<?xml version="1.0" encoding="iso-8859-1"?>
<!-- Generator: Adobe Illustrator 16.0.0, SVG Export Plug-In . SVG Version: 6.00 Build 0)  -->
<!DOCTYPE svg PUBLIC "-//W3C//DTD SVG 1.1//EN" "http://www.w3.org/Graphics/SVG/1.1/DTD/svg11.dtd">
<svg version="1.1" id="Layer_1" xmlns="http://www.w3.org/2000/svg" xmlns:xlink="http://www.w3.org/1999/xlink" x="0px" y="0px"
	 width="47.693px" height="22.344px" viewBox="0 0 47.693 22.344" style="enable-background:new 0 0 47.693 22.344;"
	 xml:space="preserve">
<g>
	<polygon points="38.977,13.804 38.217,13.825 38.186,13.414 38.309,13.466 38.606,13.435 38.576,13.056 37.755,13.065 
		37.529,12.768 37.542,12.613 36.484,11.66 36.227,11.865 37.734,13.712 37.95,13.784 37.95,13.886 37.663,13.886 37.734,14.113 
		39.591,14.194 	"/>
	<polygon points="40.166,12.838 40.293,12.755 40.293,11.742 40.166,11.688 40.104,11.373 39.919,11.373 39.8,11.692 39.658,11.819 
		38.584,12.401 38.584,12.977 38.943,13.45 39.847,13.45 39.962,13.158 40.166,12.973 	"/>
	<polygon points="40.962,12.755 40.42,12.966 40.427,13.087 40.293,13.087 40.293,13.836 40.57,13.836 40.529,13.359 40.745,13.436 
		40.745,13.775 40.97,13.754 	"/>
	<polygon points="45.383,16.693 44.83,16.22 44.789,15.317 44.424,14.692 44.096,14.676 43.962,15.81 43.335,15.763 43.16,15.658 
		43.138,15.208 43.47,15.276 43.75,15.002 43.154,14.645 42.454,14.645 41.951,15.358 41.746,15.358 41.746,15.133 41.144,15.179 
		40.189,16.266 39.684,16.272 39.12,16.662 39.078,18.344 38.74,18.672 38.74,18.97 40.381,18.406 41.712,18.353 42.205,19.436 
		43.716,19.488 45.172,18.119 45.532,17.3 	"/>
	<polygon points="42.402,20.27 42.937,20.328 43.369,20.09 43.377,19.765 42.905,19.713 	"/>
	<polygon points="47.542,18.792 47.319,18.836 47.313,18.333 46.904,18.358 46.852,19.144 46.493,19.389 45.826,19.481 
		44.759,20.241 44.577,20.39 44.577,20.644 45.135,20.558 46.489,19.728 46.873,19.476 47.282,19.295 47.693,19.062 	"/>
	<polygon points="43.346,13.189 43.002,13.198 43.028,12.84 42.7,12.645 42.233,13.112 42.546,13.497 43.223,13.594 43.603,13.793 
		43.613,13.979 43.367,13.979 43.377,14.358 44.198,14.307 44.496,13.989 44.813,13.958 44.813,14.543 45.368,14.543 45.368,14.307 
		45.09,14.307 45.039,13.594 43.716,12.994 	"/>
	<polygon points="33.497,11.485 33.625,11.834 34.092,11.66 34.144,11.178 33.768,11.104 	"/>
	<polygon points="28.019,15.549 27.382,15.466 27.382,15.959 27.608,16.226 27.434,16.492 27.177,16.79 27.177,17.333 
		27.527,17.672 27.845,17.161 28.47,16.246 28.768,14.81 28.388,14.81 	"/>
	<polygon points="41.097,14.033 40.889,14.033 40.889,14.144 41.051,14.194 	"/>
	<rect x="39.919" y="14.194" width="0.247" height="0.137"/>
	<polygon points="40.52,14.331 40.674,14.331 40.674,14.211 40.785,14.194 40.785,14.077 40.539,14.077 40.439,14.194 
		40.293,14.331 40.293,14.451 40.52,14.427 	"/>
	<polygon points="41.151,14.439 41.397,14.439 41.397,14.312 41.57,14.331 41.547,14.113 41.266,14.155 41.241,14.297 
		40.928,14.331 40.912,14.331 40.912,14.547 41.151,14.547 	"/>
	<path d="M3.232,3.735l0.051-0.323L2.95,3.36c0,0.02,0.025,0.375,0.051,0.375C3.026,3.735,3.232,3.735,3.232,3.735z"/>
	<polygon points="19.986,3.427 20.011,3.627 19.713,3.688 19.672,4.114 20.032,4.114 20.509,4.068 20.754,3.775 20.493,3.673 
		20.35,3.509 20.134,3.16 20.032,2.667 19.626,2.75 19.513,2.923 19.513,3.119 19.708,3.252 	"/>
	<polygon points="19.642,3.591 19.663,3.324 19.426,3.222 19.093,3.298 18.847,3.693 18.847,3.95 19.134,3.95 	"/>
	<path d="M36.672,11.388l1.462,1.4l0.077-0.246l-1.185-1.693l0.123-0.493l0.626,0.71l0.349,0.037l0.459-0.306l-0.076-0.461
		l-0.759-0.61l-0.031-0.554l0.216-0.292l0.384,0.123l-0.031,0.262l0.22,0.338l0.195-0.139l-0.107-0.4l1.077-0.385l0.472-0.395
		l-0.072-0.713l-0.938-0.984l-0.016-0.8h0.416l1.292,0.985l0.364-0.098l-0.241-0.318l-0.692-0.42l0.041-0.625l0.82,0.001
		l0.067-0.775l-0.313-0.412l0.185-0.2l0.4,0.4l0.128-0.169L41.074,3.57l-1.277-0.154l-0.169-0.338l0.369-0.523l0.292,0.215
		l0.877,0.077l1.108-0.739l0.185,0.231l-0.247,0.385v0.385l1.016,0.831l0.324-0.169l-0.124-0.554L42.706,2.54l0.954-0.062V2.201
		l0.462-0.092l-0.354-0.244l0.015-0.188l0.97,0.157l0.185-0.157l-1.308-0.554l-4.771-0.246l-0.446-0.226l-0.708-0.105L37.17,0.528
		l-0.482,0.488L36.484,1l-0.643-0.477h-1.892L33.071,0l-1.758,0.111l-1.335,0.597l0.011,0.693l-0.411,0.123l-0.092-0.693
		L29.332,0.59L28.87,0.477l-0.107,0.416l0.138,0.338l-1.642-0.107l-0.784,0.364l-0.119-0.343l-0.195,0.051l-0.143,0.379
		l-0.411,0.321l-1.001-0.028l-0.045-0.221l1.046-0.046l0.215-0.185l-1.262-0.585l-1.54,0.046l-0.861,0.441l-0.323,0.577
		l-0.569,0.223l-0.24,0.261l0.055,0.304l0.293,0.041l0.178,0.442l0.506-0.204l0.084,0.592h-0.153l-0.417-0.062L21.114,3.57
		l-0.446,0.631l-0.639,0.1l-0.092,0.546l0.27,0.064l-0.077,0.351l-0.635-0.127l-0.582,0.127L18.79,5.586l0.101,0.679l0.342,0.16
		l0.572-0.003l0.387-0.035l0.119-0.308l0.604-0.786l0.397,0.082l0.392-0.354l0.073,0.277l0.964,0.65l-0.118,0.158l-0.435-0.023
		l0.167,0.237l0.267,0.059l0.313-0.131L22.93,5.871l0.139-0.07l-0.112-0.119l-0.643-0.358l-0.169-0.477h0.535l0.17,0.169
		l0.461,0.396l0.02,0.48l0.477,0.508l0.177-0.696l0.331-0.18l0.062,0.569L24.7,6.448l0.974-0.016l0.288,0.216v0.508l-0.354,0.323
		h-0.985l-0.6-0.447l-0.631,0.062v0.385h-0.201l-0.215-0.154l-1.093-0.277V6.34l-1.385,0.108l-0.43,0.231h-0.55l-0.27-0.027
		L18.58,7.023v0.698l-1.365,0.985l0.113,0.42h0.277l-0.072,0.4l-0.195,0.071l-0.01,1.047l1.179,1.344h0.514l0.031-0.082h0.923
		l0.266-0.246h0.524l0.287,0.287l0.779,0.082l-0.103,1.037l0.867,1.529l-0.457,0.872l0.031,0.411l0.36,0.358v0.987l0.471,0.634
		v0.821h1.396l1.046-1.077l0.328-0.585l0.42-0.093v-0.492l0.277-0.329l0.585-0.8l-0.123-1.22l-0.257-0.453l1.152-1.1l1.269-1.814
		l-0.246-0.113l-1.318,0.277l-0.339-0.169l-1.385-2.609l0.097-0.113l1.373,1.667l0.033,0.516l0.318,0.318l0.646-0.042l1.35-0.977
		l0.423-0.277L30.04,8.857l-0.451-0.059c0,0-1.58-0.745-1.58-0.777c0-0.033,0.01-0.639,0.01-0.639h0.349l0.052,0.441l0.732,0.421
		l0.837,0.041l1.816,0.297l0.425,0.268v0.416L32.175,9.83l0.931,1.531l0.3,0.069l0.3-0.435l0.166-1.239l0.31-0.667l0.5-0.187
		l0.883,0.084l1.107,0.984V11.388z M23.907,1.646L23.295,2.02v0.246l0.347,0.162l0.022,0.331l-0.488,0.727L22.33,3.478l-0.053-0.177
		l0.53-0.269l0.004-1.004l0.9-0.627h0.196V1.646z M25.789,5.925l-0.798-0.033l-0.239,0.033V5.379l0.179-0.201l0.193-0.06
		l0.424-0.049l0.093-0.145l0.173,0.086l0.024,0.497l0.464,0.19l0.041,0.227H25.789z M28.855,6.315l-0.139,0.133l-0.323-0.026
		l-0.062-0.097l-0.508-0.036l0.036-0.164l0.268-0.231V5.699l-0.514-0.375l-0.02-0.477l0.103-0.236l0.415-0.036l0.354,0.148
		l0.016,0.247l-0.502-0.028l-0.026,0.229l0.631,0.421v0.308l0.272,0.2V6.315z"/>
	<path d="M12.735,4.912h-0.354v0.182h0.084c0,0,0.005,0.039,0.012,0.09l0.217-0.018l0.135-0.084l0.036-0.17l0.175-0.015l0.069-0.143
		L12.949,4.72l-0.141,0.003L12.735,4.912z"/>
	<polygon points="11.882,5.233 12.139,5.212 12.166,5.033 12.011,4.912 11.896,5.055 	"/>
	<path d="M15.256,13.148l-1.087-0.011l-0.862-0.328l-0.041-0.615l-0.288-0.503l-0.779-0.011l-0.452-0.708l-0.4-0.195l-0.021,0.215
		l-0.729,0.043l-0.267-0.371l-0.759-0.154l-0.626,0.723l-0.985-0.167L7.89,9.957L7.171,9.834L7.459,9.29L7.376,8.977L6.432,9.608
		L5.838,9.536L5.626,9.072l0.13-0.479l0.328-0.604l0.754-0.382l1.457,0L8.29,8.051l0.523,0.244L8.771,7.536l0.377-0.379l0.762-0.5
		l0.052-0.352l0.759-0.79l0.807-0.447l-0.071-0.059l0.547-0.515l0.2,0.053l0.092,0.115l0.208-0.23l0.051-0.022l-0.228-0.032
		l-0.23-0.077V4.078l0.123-0.1h0.27l0.124,0.054l0.107,0.215l0.131-0.02V4.209l0.038,0.013l0.378-0.059l0.054-0.185l0.215,0.054v0.2
		l-0.2,0.138h0l0.029,0.22l0.686,0.211c0,0,0.001,0.003,0.002,0.008l0.157-0.014l0.011-0.297l-0.543-0.247l-0.031-0.143l0.451-0.154
		l0.02-0.431l-0.471-0.287l-0.031-0.728l-0.646,0.318h-0.236l0.062-0.554l-0.88-0.208L11.55,2.339v0.839l-0.654,0.208l-0.262,0.546
		l-0.284,0.046v-0.7L9.734,3.193l-0.308-0.2L9.303,2.54l1.101-0.644l0.539-0.164l0.054,0.362l0.3-0.016l0.023-0.182l0.314-0.045
		l0.005-0.063l-0.135-0.056l-0.031-0.192l0.386-0.032l0.233-0.243l0.013-0.018l0.003,0.001l0.071-0.073l0.811-0.103l0.358,0.305
		l-0.94,0.5l1.196,0.282l0.155-0.4h0.523l0.185-0.349l-0.37-0.092V0.877l-1.159-0.513l-0.8,0.092l-0.452,0.236l0.031,0.575
		l-0.472-0.072l-0.073-0.318l0.452-0.411l-0.821-0.041l-0.236,0.072l-0.103,0.277l0.308,0.052l-0.062,0.308l-0.523,0.031
		L10.105,1.37L9.347,1.39c0,0-0.021-0.431-0.051-0.431s0.595-0.01,0.595-0.01l0.452-0.441l-0.247-0.123L9.767,0.703L9.223,0.672
		L8.895,0.221H8.197L7.469,0.765h0.667l0.061,0.195L8.023,1.124l0.739,0.021l0.113,0.267L8.043,1.38L8.002,1.175L7.479,1.062
		L7.202,0.908l-1.231,0.01l-0.38,0.369L5.335,1.267L5.048,1.103L4.196,0.847h-1.56L1.734,1.462L1.129,1.555L0.852,1.77l0.431,0.064
		v0.172H0.359L0,2.262l0.461,0.39l1.262,0.01l0.174-0.185h1.057l0.379,0.339L3.314,3.34l0.318,0.297L3.365,3.827L3.427,4.52
		L2.473,5.679v1.087l0.513,0.247v0.977l0.492,0.839l0.4,0.062l0.051-0.288L3.458,7.874L3.365,7.167h0.277l0.117,0.729L4.442,8.89
		L4.265,9.212l0.434,0.663l1.077,0.267V9.967l0.431,0.062l-0.041,0.308l0.338,0.062l0.523,0.143l0.739,0.842l0.943,0.071l0.092,0.77
		l-0.646,0.452l-0.031,0.688l-0.092,0.42l0.934,1.17l0.072,0.4c0,0,0.339,0.092,0.38,0.092s0.759,0.544,0.759,0.544v2.113
		l0.256,0.072l-0.175,0.974l0.431,0.575l-0.08,0.966l0.569,1.001l0.731,0.638l0.735,0.014l0.072-0.236l-0.54-0.455l0.031-0.226
		l0.097-0.277l0.021-0.282l-0.365-0.01l-0.184-0.231l0.303-0.292l0.041-0.221l-0.338-0.097l0.02-0.205l0.482-0.073l0.734-0.353
		l0.246-0.452l0.77-0.985l-0.175-0.77l0.236-0.41l0.708,0.021l0.477-0.377l0.154-1.485l0.528-0.672l0.092-0.431l-0.482-0.154
		L15.256,13.148z M9.68,5.563L9.503,5.74H9.11l0.062-0.269l0.185-0.016l0.039-0.092L9.68,5.324V5.563z M9.772,5.079L9.587,5.198
		L9.357,5.24c0,0,0-0.369,0-0.408h0.416V5.079z M10.122,4.794l0.189,0.118L10.16,5.036l-0.149-0.125L10.122,4.794z M9.873,5.102
		h0.031l0.469,0.139v0.239H9.98L9.873,5.324V5.102z M9.564,4.439l0.254,0.231L9.564,4.732V4.439z M8.487,4.479l0.354-0.146h0.485
		v0.146h0.107v0.254H8.695L8.418,4.655L8.487,4.479z M8.418,5.14l0.285-0.308H9.11L8.587,5.563L8.372,5.448L8.418,5.14z
		 M8.041,3.401L8.333,3.47L8.233,3.863l-0.315,0.1l-0.2-0.408L8.041,3.401z M6.579,1.539V1.516h0.27l0.023-0.092h0.441v0.192
		L7.187,1.785H6.579V1.539z M7.01,2.139c0,0,0.27-0.046,0.292-0.046s0,0.269,0,0.269L6.694,2.401L6.579,2.262L7.01,2.139z"/>
</g>
<g>
</g>
<g>
</g>
<g>
</g>
<g>
</g>
<g>
</g>
<g>
</g>
<g>
</g>
<g>
</g>
<g>
</g>
<g>
</g>
<g>
</g>
<g>
</g>
<g>
</g>
<g>
</g>
<g>
</g>
</svg>
