<?xml version="1.0" encoding="iso-8859-1"?>
<!-- Generator: Adobe Illustrator 16.0.0, SVG Export Plug-In . SVG Version: 6.00 Build 0)  -->
<!DOCTYPE svg PUBLIC "-//W3C//DTD SVG 1.1//EN" "http://www.w3.org/Graphics/SVG/1.1/DTD/svg11.dtd">
<svg version="1.1" id="Layer_1" xmlns="http://www.w3.org/2000/svg" xmlns:xlink="http://www.w3.org/1999/xlink" x="0px" y="0px"
	 width="48.748px" height="48.758px" viewBox="0 0 48.748 48.758" style="enable-background:new 0 0 48.748 48.758;"
	 xml:space="preserve">
<path d="M725.988-508.247c-0.371-0.524-0.759-1.035-1.17-1.527c-4.475-5.369-11.207-8.792-18.726-8.792
	c-0.013,0-0.024,0.001-0.036,0.001c-0.008,0-0.015-0.001-0.021-0.001c-0.028,0-0.056,0.003-0.084,0.003
	c-7.461,0.043-14.136,3.457-18.582,8.79c-0.41,0.493-0.799,1.003-1.17,1.527c-2.816,3.975-4.479,8.822-4.479,14.054
	s1.663,10.08,4.479,14.054c0.371,0.524,0.76,1.035,1.17,1.527c4.447,5.333,11.121,8.747,18.582,8.79
	c0.028,0,0.056,0.003,0.084,0.003c0.007,0,0.014-0.001,0.021-0.001c0.012,0,0.023,0.001,0.036,0.001
	c7.519,0,14.251-3.423,18.726-8.792c0.41-0.492,0.799-1.004,1.17-1.528c2.816-3.975,4.479-8.823,4.479-14.055
	C730.467-499.424,728.805-504.272,725.988-508.247z M698.969-515.397c-2.241,2.161-4.102,5.32-5.385,9.111
	c-1.719-0.642-3.266-1.415-4.6-2.289C691.6-511.681,695.039-514.073,698.969-515.397z M687.811-507.046
	c1.515,1.012,3.267,1.897,5.204,2.626c-0.836,3.054-1.315,6.444-1.333,10.021h-7.957
	C683.768-499.104,685.281-503.458,687.811-507.046z M683.798-492.398h7.923c0.129,2.994,0.583,5.835,1.293,8.434
	c-1.938,0.729-3.689,1.614-5.203,2.626C685.568-484.519,684.125-488.301,683.798-492.398z M688.99-479.814
	c1.333-0.872,2.877-1.643,4.592-2.285c1.283,3.792,3.146,6.949,5.387,9.11C695.039-474.313,691.605-476.708,688.99-479.814z
	 M705.093-471.891c-4.103-0.563-7.646-4.772-9.653-10.833c2.894-0.869,6.172-1.394,9.653-1.479V-471.891z M705.093-486.201
	c-3.671,0.088-7.133,0.656-10.214,1.601c-0.631-2.397-1.035-5.026-1.157-7.798h11.371V-486.201z M705.093-494.398h-11.411
	c0.017-3.359,0.455-6.532,1.207-9.384c3.078,0.943,6.537,1.511,10.204,1.598V-494.398z M705.093-504.183
	c-3.479-0.085-6.756-0.609-9.648-1.477c2.009-6.059,5.547-10.272,9.648-10.835V-504.183z M728.461-494.398h-8.072
	c-0.018-3.562-0.493-6.938-1.322-9.981c1.979-0.736,3.767-1.635,5.309-2.665C726.904-503.457,728.418-499.104,728.461-494.398z
	 M723.2-508.573c-1.36,0.891-2.942,1.676-4.702,2.325c-1.295-3.843-3.184-7.04-5.459-9.209
	C717.043-514.146,720.545-511.727,723.2-508.573z M707.093-516.479c4.06,0.627,7.555,4.832,9.542,10.85
	c-2.866,0.849-6.104,1.363-9.542,1.447V-516.479z M707.093-502.184c3.625-0.086,7.046-0.642,10.097-1.565
	c0.747,2.844,1.182,6.005,1.199,9.351h-11.296V-502.184z M707.093-492.398h11.255c-0.121,2.76-0.523,5.377-1.149,7.765
	c-3.054-0.925-6.478-1.481-10.105-1.568V-492.398z M707.093-471.906v-12.296c3.439,0.084,6.679,0.598,9.547,1.448
	C714.652-476.734,711.152-472.533,707.093-471.906z M713.039-472.928c2.275-2.169,4.168-5.363,5.462-9.208
	c1.757,0.649,3.337,1.432,4.695,2.322C720.541-476.661,717.043-474.24,713.039-472.928z M724.377-481.338
	c-1.542-1.031-3.33-1.931-5.312-2.667c0.704-2.587,1.154-5.415,1.282-8.393h8.041C728.062-488.301,726.62-484.518,724.377-481.338z"
	/>
<g>
</g>
<g>
</g>
<g>
</g>
<g>
</g>
<g>
</g>
<g>
</g>
<g>
</g>
<g>
</g>
<g>
</g>
<g>
</g>
<g>
</g>
<g>
</g>
<g>
</g>
<g>
</g>
<g>
</g>
</svg>
