<?xml version="1.0" encoding="iso-8859-1"?>
<!-- Generator: Adobe Illustrator 16.0.0, SVG Export Plug-In . SVG Version: 6.00 Build 0)  -->
<!DOCTYPE svg PUBLIC "-//W3C//DTD SVG 1.1//EN" "http://www.w3.org/Graphics/SVG/1.1/DTD/svg11.dtd">
<svg version="1.1" id="Layer_1" xmlns="http://www.w3.org/2000/svg" xmlns:xlink="http://www.w3.org/1999/xlink" x="0px" y="0px"
	 width="48.748px" height="48.758px" viewBox="0 0 48.748 48.758" style="enable-background:new 0 0 48.748 48.758;"
	 xml:space="preserve">
<g>
	<path d="M15.908-430.414c2.893,0.868,6.169,1.392,9.648,1.477v-12.312C21.455-440.686,17.917-436.472,15.908-430.414z"/>
	<path d="M25.556-396.644v-12.312c-3.481,0.085-6.76,0.61-9.653,1.479C17.911-401.417,21.454-397.207,25.556-396.644z"/>
	<path d="M15.342-409.354c3.081-0.945,6.543-1.513,10.214-1.601v-6.197H14.185C14.307-414.379,14.711-411.75,15.342-409.354z"/>
	<path d="M14.145-419.152h11.411v-7.786c-3.667-0.087-7.126-0.655-10.204-1.598C14.6-425.684,14.162-422.511,14.145-419.152z"/>
	<path d="M19.432-440.15c-3.93,1.324-7.369,3.716-9.984,6.823c1.334,0.874,2.881,1.646,4.6,2.289
		C15.331-434.831,17.191-437.99,19.432-440.15z"/>
	<path d="M13.478-429.173c-1.938-0.729-3.689-1.614-5.204-2.626c-2.529,3.588-4.043,7.942-4.086,12.647h7.957
		C12.163-422.729,12.642-426.119,13.478-429.173z"/>
	<path d="M9.454-404.568c2.615,3.106,6.049,5.502,9.979,6.826c-2.241-2.161-4.104-5.318-5.387-9.11
		C12.331-406.211,10.787-405.44,9.454-404.568z"/>
	<path d="M40.852-419.152h8.072c-0.043-4.706-1.557-9.059-4.086-12.646c-1.542,1.03-3.329,1.929-5.309,2.665
		C40.359-426.09,40.834-422.713,40.852-419.152z"/>
	<path d="M12.184-417.152H4.261c0.327,4.097,1.771,7.879,4.013,11.06c1.514-1.012,3.266-1.897,5.203-2.626
		C12.767-411.316,12.313-414.158,12.184-417.152z"/>
	<path d="M39.529-408.759c1.981,0.737,3.77,1.636,5.312,2.667c2.243-3.18,3.685-6.963,4.012-11.061h-8.041
		C40.683-414.173,40.233-411.346,39.529-408.759z"/>
	<path d="M38.811-417.152H27.556v6.197c3.628,0.086,7.052,0.643,10.105,1.568C38.288-411.775,38.69-414.392,38.811-417.152z"/>
	<path d="M27.556-408.956v12.296c4.06-0.627,7.56-4.828,9.547-10.848C34.235-408.357,30.996-408.872,27.556-408.956z"/>
	<path d="M33.502-397.682c4.004-1.312,7.502-3.732,10.157-6.886c-1.358-0.89-2.938-1.673-4.695-2.322
		C37.67-403.045,35.778-399.851,33.502-397.682z"/>
	<path d="M43.664-433.327c-2.655-3.154-6.157-5.573-10.161-6.884c2.275,2.169,4.164,5.366,5.459,9.209
		C40.721-431.651,42.303-432.436,43.664-433.327z"/>
	<path d="M27.556-441.233v12.296c3.438-0.083,6.676-0.598,9.542-1.447C35.111-436.401,31.616-440.606,27.556-441.233z"/>
	<path d="M37.653-428.503c-3.051,0.923-6.472,1.479-10.097,1.565v7.786h11.296C38.834-422.498,38.4-425.659,37.653-428.503z"/>
</g>
<g>
</g>
<g>
</g>
<g>
</g>
<g>
</g>
<g>
</g>
<g>
</g>
<g>
</g>
<g>
</g>
<g>
</g>
<g>
</g>
<g>
</g>
<g>
</g>
<g>
</g>
<g>
</g>
<g>
</g>
</svg>
