<?xml version="1.0" encoding="iso-8859-1"?>
<!-- Generator: Adobe Illustrator 16.0.0, SVG Export Plug-In . SVG Version: 6.00 Build 0)  -->
<!DOCTYPE svg PUBLIC "-//W3C//DTD SVG 1.1//EN" "http://www.w3.org/Graphics/SVG/1.1/DTD/svg11.dtd">
<svg version="1.1" id="Layer_1" xmlns="http://www.w3.org/2000/svg" xmlns:xlink="http://www.w3.org/1999/xlink" x="0px" y="0px"
	 width="48.748px" height="48.758px" viewBox="0 0 48.748 48.758" style="enable-background:new 0 0 48.748 48.758;"
	 xml:space="preserve">
<g>
	<g>
		<path d="M95.316-429.416c2.62,0.786,5.588,1.261,8.74,1.338v-11.153C100.34-438.721,97.135-434.904,95.316-429.416z"/>
		<path d="M104.056-398.825v-11.153c-3.154,0.077-6.124,0.552-8.745,1.34C97.13-403.148,100.34-399.335,104.056-398.825z"/>
		<path d="M94.804-410.338c2.791-0.856,5.927-1.371,9.252-1.451v-5.614H93.755C93.866-414.891,94.232-412.509,94.804-410.338z"/>
		<path d="M93.719-419.214h10.337v-7.053c-3.322-0.079-6.456-0.593-9.244-1.447C94.131-425.131,93.734-422.257,93.719-419.214z"/>
		<path d="M98.508-438.236c-3.56,1.199-6.675,3.366-9.044,6.18c1.208,0.792,2.61,1.492,4.167,2.073
			C94.793-433.417,96.478-436.279,98.508-438.236z"/>
		<path d="M93.115-428.292c-1.755-0.66-3.342-1.461-4.714-2.378c-2.291,3.25-3.662,7.194-3.701,11.457h7.208
			C91.923-422.455,92.357-425.525,93.115-428.292z"/>
		<path d="M89.469-406.003c2.369,2.813,5.479,4.984,9.039,6.183c-2.03-1.958-3.717-4.817-4.879-8.252
			C92.075-407.491,90.677-406.793,89.469-406.003z"/>
		<path d="M117.912-419.214h7.313c-0.039-4.263-1.41-8.206-3.701-11.456c-1.397,0.933-3.016,1.747-4.809,2.414
			C117.465-425.499,117.896-422.44,117.912-419.214z"/>
		<path d="M91.943-417.402h-7.177c0.296,3.711,1.604,7.138,3.635,10.019c1.372-0.917,2.958-1.718,4.713-2.379
			C92.471-412.116,92.06-414.69,91.943-417.402z"/>
		<path d="M116.713-409.799c1.795,0.667,3.415,1.482,4.812,2.417c2.032-2.881,3.338-6.308,3.634-10.02h-7.284
			C117.759-414.704,117.351-412.143,116.713-409.799z"/>
		<path d="M116.063-417.402h-10.196v5.614c3.287,0.079,6.388,0.583,9.154,1.42C115.589-412.531,115.954-414.902,116.063-417.402z"/>
		<path d="M105.868-409.978v11.139c3.678-0.568,6.848-4.374,8.648-9.827C111.918-409.436,108.983-409.901,105.868-409.978z"/>
		<path d="M111.254-399.765c3.627-1.188,6.796-3.381,9.201-6.238c-1.23-0.806-2.662-1.515-4.253-2.103
			C115.03-404.623,113.315-401.73,111.254-399.765z"/>
		<path d="M120.459-432.055c-2.405-2.857-5.578-5.048-9.205-6.236c2.061,1.965,3.772,4.861,4.945,8.343
			C117.793-430.537,119.227-431.248,120.459-432.055z"/>
		<path d="M105.868-439.217v11.139c3.115-0.076,6.047-0.542,8.644-1.311C112.711-434.84,109.545-438.649,105.868-439.217z"/>
		<path d="M115.014-427.685c-2.764,0.836-5.863,1.34-9.146,1.418v7.053h10.233C116.084-422.245,115.691-425.109,115.014-427.685z"/>
	</g>
	<path d="M105.117-394.84c-13.439,0-24.373-10.934-24.373-24.374s10.934-24.374,24.373-24.374c13.44,0,24.374,10.934,24.374,24.374
		S118.557-394.84,105.117-394.84z M105.117-441.588c-12.336,0-22.373,10.037-22.373,22.374s10.037,22.374,22.373,22.374
		c12.337,0,22.374-10.037,22.374-22.374S117.454-441.588,105.117-441.588z"/>
</g>
<g>
</g>
<g>
</g>
<g>
</g>
<g>
</g>
<g>
</g>
<g>
</g>
<g>
</g>
<g>
</g>
<g>
</g>
<g>
</g>
<g>
</g>
<g>
</g>
<g>
</g>
<g>
</g>
<g>
</g>
</svg>
