<?xml version="1.0" encoding="iso-8859-1"?>
<!-- Generator: Adobe Illustrator 16.0.0, SVG Export Plug-In . SVG Version: 6.00 Build 0)  -->
<!DOCTYPE svg PUBLIC "-//W3C//DTD SVG 1.1//EN" "http://www.w3.org/Graphics/SVG/1.1/DTD/svg11.dtd">
<svg version="1.1" id="Layer_1" xmlns="http://www.w3.org/2000/svg" xmlns:xlink="http://www.w3.org/1999/xlink" x="0px" y="0px"
	 width="48.748px" height="48.758px" viewBox="0 0 48.748 48.758" style="enable-background:new 0 0 48.748 48.758;"
	 xml:space="preserve">
<path d="M182.013-443.82c-15.055,0-24.373,12.652-24.373,24.374c0,13.44,10.934,24.374,24.373,24.374
	c13.44,0,24.374-10.934,24.374-24.374S195.453-443.82,182.013-443.82z M199.472-433.415c-1.759-0.161-4.503-0.266-7.766,0.062
	c-0.347-0.911-1.04-1.647-1.925-2.043c0.276-2.055,0.489-3.726,0.621-4.787C193.977-438.731,197.093-436.382,199.472-433.415z
	 M192.014-409.332c-2.085,0.147-4.441,0.172-7.061,0.002c-0.034-0.875-0.374-1.666-0.917-2.279c1.829-4.15,3.411-8.402,3.95-11.678
	c0.28-1.701,0.545-3.402,0.791-5.044c0.599,0.866,1.184,1.785,1.742,2.774c2.542,4.505,3.397,9.298,3.484,13.553
	C192.966-411.491,192.21-410.511,192.014-409.332z M181.306-412.852c-1.575,0-2.906,1-3.423,2.396
	c-3.646-1.108-6.77-3.027-9.332-5.15c0.309-0.537,0.5-1.151,0.5-1.815c0-0.758-0.23-1.462-0.625-2.046
	c1.952-2.095,4.445-4.302,7.623-6.414c3.023-2.009,6.17-3.323,9.179-4.18c0.385,0.59,0.934,1.061,1.584,1.35
	c-0.248,1.659-0.515,3.378-0.799,5.101c-0.496,3.011-1.97,6.983-3.695,10.919C181.994-412.786,181.659-412.852,181.306-412.852z
	 M182.013-441.82c2.245,0,4.412,0.336,6.458,0.954c-0.122,0.994-0.354,2.842-0.671,5.198c-0.716,0.097-1.361,0.397-1.884,0.847
	c-3.528-3.423-7.027-5.336-9.379-6.344C178.254-441.586,180.08-441.82,182.013-441.82z M173.441-440.159
	c1.119,0.322,6.239,2.018,11.354,7.074c-0.097,0.329-0.165,0.669-0.165,1.028c0,0.02,0.005,0.038,0.006,0.057
	c-3.16,0.913-6.478,2.314-9.695,4.452c-3.373,2.242-6.002,4.573-8.062,6.788c-0.457-0.204-0.958-0.323-1.491-0.323
	c-0.655,0-1.262,0.187-1.794,0.488c-1.694-2.059-2.776-3.784-3.188-4.482C162.129-431.468,166.707-437.383,173.441-440.159z
	 M159.64-419.446c0-0.926,0.068-1.859,0.192-2.79c0.589,0.871,1.382,1.947,2.338,3.104c-0.273,0.513-0.442,1.089-0.442,1.71
	c0,0.872,0.317,1.662,0.826,2.291c-0.717,1.161-1.271,2.205-1.662,3.052C160.084-414.387,159.64-416.865,159.64-419.446z
	 M161.994-409.473c0.234-0.679,0.888-2.33,2.22-4.497c0.371,0.126,0.761,0.21,1.175,0.21c0.605,0,1.168-0.161,1.671-0.421
	c2.871,2.409,6.434,4.619,10.684,5.808c0.208,0.913,0.752,1.697,1.501,2.208c-1.828,3.655-3.491,6.668-4.222,7.969
	C169.331-400.074,164.643-404.177,161.994-409.473z M182.013-397.072c-1.721,0-3.394-0.202-5.004-0.571
	c0.857-1.531,2.451-4.443,4.171-7.898c0.042,0.001,0.083,0.013,0.125,0.013c1.349,0,2.514-0.737,3.15-1.823
	c1.451,0.106,2.834,0.162,4.13,0.162c1.298,0,2.51-0.05,3.65-0.131c0.283,0.677,0.763,1.248,1.368,1.646
	c-0.444,3.043-1.118,5.295-1.395,6.134C189.149-397.967,185.685-397.072,182.013-397.072z M194.748-401.065
	c0.279-1.07,0.583-2.433,0.828-4.008c0.013,0,0.025,0.004,0.039,0.004c1.901,0,3.446-1.454,3.626-3.308
	c1.021-0.245,1.896-0.5,2.607-0.737C200.163-405.892,197.717-403.129,194.748-401.065z M198.875-410.367
	c-0.541-1.074-1.586-1.835-2.831-1.982c-0.134-4.434-1.093-9.425-3.782-14.19c-0.539-0.954-1.098-1.844-1.671-2.688
	c0.646-0.525,1.119-1.253,1.29-2.1c4.747-0.482,8.338-0.008,9.155,0.119c2.123,3.42,3.352,7.449,3.352,11.762
	c0,2.723-0.49,5.332-1.385,7.748C202.413-411.439,201.012-410.888,198.875-410.367z"/>
<g>
</g>
<g>
</g>
<g>
</g>
<g>
</g>
<g>
</g>
<g>
</g>
<g>
</g>
<g>
</g>
<g>
</g>
<g>
</g>
<g>
</g>
<g>
</g>
<g>
</g>
<g>
</g>
<g>
</g>
</svg>
