<?xml version="1.0" encoding="iso-8859-1"?>
<!-- Generator: Adobe Illustrator 16.0.0, SVG Export Plug-In . SVG Version: 6.00 Build 0)  -->
<!DOCTYPE svg PUBLIC "-//W3C//DTD SVG 1.1//EN" "http://www.w3.org/Graphics/SVG/1.1/DTD/svg11.dtd">
<svg version="1.1" id="Layer_1" xmlns="http://www.w3.org/2000/svg" xmlns:xlink="http://www.w3.org/1999/xlink" x="0px" y="0px"
	 width="48.748px" height="48.758px" viewBox="0 0 48.748 48.758" style="enable-background:new 0 0 48.748 48.758;"
	 xml:space="preserve">
<g>
	<path style="fill:none;" d="M252.541-441.874c0.031,0.013,0.067,0.031,0.098,0.044c1.384-0.358,2.829-0.592,4.329-0.687
		C255.424-442.437,253.946-442.218,252.541-441.874z"/>
	<path style="fill:none;" d="M249.508-440.771c-0.067-0.02-0.136-0.042-0.187-0.056c-7.005,2.888-11.768,9.04-13.559,15.688
		c0.034,0.057,0.079,0.131,0.121,0.2C237.688-431.776,242.622-437.867,249.508-440.771z"/>
	<path style="fill:none;" d="M237.414-408.906c1.096,2.191,2.539,4.174,4.238,5.905c-1.695-1.763-3.12-3.788-4.199-6.013
		C237.44-408.98,237.424-408.937,237.414-408.906z"/>
	<path style="fill:none;" d="M235.307-421.979c-0.046-0.066-0.099-0.14-0.142-0.204c-0.13,0.968-0.201,1.938-0.201,2.902
		c0,2.685,0.463,5.263,1.304,7.664c0.021-0.045,0.048-0.098,0.07-0.145c-0.784-2.336-1.215-4.834-1.215-7.435
		C235.123-420.127,235.189-421.056,235.307-421.979z"/>
	<path d="M264.258-436.155c0.33-2.451,0.571-4.374,0.698-5.407c-2.128-0.643-4.382-0.993-6.717-0.993
		c-0.43,0-0.851,0.017-1.271,0.039c-1.5,0.095-2.945,0.329-4.329,0.687c2.446,1.059,6.036,3.04,9.659,6.555
		C262.841-435.742,263.512-436.054,264.258-436.155z"/>
	<path d="M255.359-405.465c-0.779-0.532-1.345-1.348-1.562-2.297c-4.421-1.237-8.127-3.536-11.114-6.042
		c-0.523,0.271-1.108,0.438-1.738,0.438c-0.43,0-0.836-0.086-1.222-0.219c-1.326,2.157-2.001,3.812-2.271,4.57
		c1.079,2.226,2.503,4.25,4.199,6.013c2.573,2.622,5.75,4.649,9.316,5.826C251.728-398.528,253.458-401.664,255.359-405.465z"/>
	<path d="M240.945-420.983c0.554,0,1.076,0.124,1.55,0.336c2.143-2.303,4.877-4.729,8.386-7.061
		c3.347-2.224,6.798-3.682,10.085-4.632c0-0.019-0.005-0.038-0.005-0.059c0-0.374,0.07-0.728,0.171-1.069
		c-5.087-5.028-10.169-6.857-11.624-7.303c-6.886,2.903-11.82,8.995-13.625,15.833c0.495,0.819,1.571,2.487,3.196,4.462
		C239.633-420.79,240.263-420.983,240.945-420.983z"/>
	<path d="M237.137-417.175c0-0.646,0.176-1.245,0.46-1.778c-0.924-1.119-1.693-2.156-2.29-3.025
		c-0.118,0.923-0.184,1.852-0.184,2.782c0,2.601,0.431,5.099,1.215,7.435c0.401-0.856,0.951-1.886,1.659-3.03
		C237.467-415.446,237.137-416.268,237.137-417.175z"/>
	<path d="M268.321-433.747c3.394-0.341,6.249-0.232,8.078-0.065c-2.475-3.086-5.716-5.53-9.435-7.039
		c-0.137,1.104-0.358,2.841-0.646,4.979C267.239-435.46,267.961-434.695,268.321-433.747z"/>
	<path d="M265.275-428.522c-0.256,1.708-0.532,3.478-0.823,5.247c-0.56,3.408-2.207,7.831-4.109,12.147
		c0.565,0.638,0.919,1.459,0.954,2.371c2.726,0.177,5.176,0.15,7.345-0.002c0.204-1.227,0.99-2.246,2.068-2.779
		c-0.09-4.426-0.979-9.412-3.624-14.098C266.506-426.665,265.898-427.622,265.275-428.522z"/>
	<path d="M278.025-431.516c-0.85-0.132-4.585-0.625-9.523-0.124c-0.178,0.88-0.67,1.637-1.342,2.184
		c0.596,0.878,1.178,1.805,1.738,2.796c2.797,4.957,3.795,10.148,3.935,14.761c1.294,0.153,2.383,0.945,2.945,2.062
		c2.224-0.541,3.681-1.116,4.293-1.386c0.931-2.512,1.441-5.227,1.441-8.059C281.513-423.767,280.233-427.958,278.025-431.516z"/>
	<path d="M272.388-404.325c-0.014,0-0.027-0.004-0.041-0.004c-0.255,1.638-0.571,3.056-0.861,4.169
		c3.088-2.147,5.632-5.021,7.386-8.373c-0.74,0.247-1.65,0.512-2.712,0.767C275.972-405.838,274.365-404.325,272.388-404.325z"/>
	<path d="M268.873-406.668c-1.187,0.085-2.447,0.137-3.797,0.137c-1.348,0-2.787-0.058-4.297-0.168
		c-0.661,1.129-1.874,1.896-3.276,1.896c-0.045,0-0.087-0.012-0.13-0.013c-1.791,3.594-3.447,6.623-4.34,8.216
		c1.675,0.384,3.415,0.595,5.206,0.595c3.819,0,7.423-0.931,10.607-2.569c0.288-0.872,0.989-3.214,1.451-6.38
		C269.666-405.37,269.167-405.963,268.873-406.668z"/>
	<path d="M258.555-412.256c1.795-4.094,3.329-8.226,3.844-11.358c0.295-1.792,0.573-3.58,0.831-5.306
		c-0.677-0.3-1.248-0.79-1.648-1.404c-3.13,0.891-6.404,2.259-9.548,4.349c-3.305,2.196-5.899,4.492-7.929,6.671
		c0.411,0.607,0.65,1.34,0.65,2.128c0,0.69-0.198,1.33-0.52,1.889c2.665,2.208,5.914,4.204,9.708,5.357
		c0.537-1.452,1.922-2.492,3.561-2.492C257.87-412.421,258.219-412.353,258.555-412.256z"/>
</g>
<g>
</g>
<g>
</g>
<g>
</g>
<g>
</g>
<g>
</g>
<g>
</g>
<g>
</g>
<g>
</g>
<g>
</g>
<g>
</g>
<g>
</g>
<g>
</g>
<g>
</g>
<g>
</g>
<g>
</g>
</svg>
