<?xml version="1.0" encoding="iso-8859-1"?>
<!-- Generator: Adobe Illustrator 16.0.0, SVG Export Plug-In . SVG Version: 6.00 Build 0)  -->
<!DOCTYPE svg PUBLIC "-//W3C//DTD SVG 1.1//EN" "http://www.w3.org/Graphics/SVG/1.1/DTD/svg11.dtd">
<svg version="1.1" id="Layer_1" xmlns="http://www.w3.org/2000/svg" xmlns:xlink="http://www.w3.org/1999/xlink" x="0px" y="0px"
	 width="48.748px" height="48.758px" viewBox="0 0 48.748 48.758" style="enable-background:new 0 0 48.748 48.758;"
	 xml:space="preserve">
<g>
	<path d="M326.746-398.041c2.718-1.61,7.495-4.761,12.235-9.459c-0.797-1.072-1.625-2.195-2.461-3.342
		c-0.364,0.003-0.727,0.006-1.092,0.006c-0.011,0-0.023,0-0.035,0c-0.879,0-1.746-0.022-2.601-0.063
		c-0.585,1.39-1.959,2.366-3.562,2.366c-0.409,0-0.794-0.081-1.164-0.198c-2.294,3.75-4.047,6.899-5.056,8.768
		C324.189-399.216,325.438-398.57,326.746-398.041z"/>
	<path d="M356.887-429.17c-0.997,1.719-2.167,3.679-3.487,5.784c2.087,0.58,3.906,1.196,5.403,1.757
		C358.586-424.295,357.923-426.833,356.887-429.17z"/>
	<path d="M348.676-433.252c0.11,0.36,0.188,0.734,0.188,1.13c0,1.139-0.502,2.152-1.286,2.859c0.362,0.576,0.732,1.15,1.115,1.718
		c0.824,1.223,1.683,2.428,2.553,3.6c0.042,0.01,0.084,0.02,0.125,0.03c1.749-2.77,3.248-5.306,4.436-7.386
		c-0.944-1.649-2.083-3.171-3.386-4.537C351.323-435.136,350.052-434.275,348.676-433.252z"/>
	<path d="M344.217-416.259c0.624,0,1.205,0.162,1.726,0.424c1.513-2.108,2.934-4.211,4.242-6.227
		c-0.019-0.024-0.037-0.049-0.055-0.073c-3.459-0.803-7.454-1.427-11.723-1.529c-0.61,0.726-1.212,1.476-1.797,2.256
		c-0.898,1.198-1.769,2.404-2.609,3.603c1.125,1.617,2.318,3.288,3.524,4.95c0.969-0.016,1.932-0.041,2.883-0.075
		C340.671-414.809,342.267-416.259,344.217-416.259z"/>
	<path d="M341.28-409.914c-0.259-0.307-0.481-0.646-0.636-1.023c-0.556,0.021-1.117,0.037-1.68,0.052
		c0.479,0.652,0.957,1.298,1.43,1.935C340.69-409.265,340.986-409.587,341.28-409.914z"/>
	<path d="M329.231-416.259c0.405,0,0.787,0.08,1.153,0.195c0.387-0.578,0.783-1.16,1.185-1.745c-0.309-0.45-0.621-0.902-0.915-1.339
		c-0.866-1.286-1.687-2.726-2.455-4.243c-6.898,0.418-12.815,1.194-15.965,1.659c-0.057,0.668-0.093,1.342-0.093,2.025
		c0,0.687,0.036,1.366,0.094,2.038c2.573,1.084,7.384,2.867,13.385,3.939C326.165-415.204,327.569-416.259,329.231-416.259z"/>
	<path d="M335.829-423.671c-1.845,0.02-3.667,0.078-5.442,0.163c0.61,1.15,1.253,2.244,1.926,3.243
		c0.157,0.232,0.318,0.469,0.479,0.706c0.72-1.016,1.46-2.035,2.22-3.047C335.281-422.968,335.554-423.323,335.829-423.671z"/>
	<path d="M333.044-412.892c0.668,0.03,1.344,0.048,2.026,0.052c-0.774-1.075-1.537-2.149-2.282-3.213
		c-0.241,0.354-0.479,0.708-0.715,1.059C332.595-414.422,332.94-413.697,333.044-412.892z"/>
	<path d="M326.382-409.807c-0.479-0.527-0.815-1.181-0.945-1.912c-5.518-0.96-10.036-2.506-12.886-3.647
		c1.087,5.787,4.304,10.82,8.809,14.254C322.399-403.031,324.133-406.133,326.382-409.807z"/>
	<path d="M327.261-425.335c-2.24-4.862-3.948-10.165-4.93-13.673c-5.082,3.478-8.715,8.911-9.827,15.215
		C315.673-424.249,321.039-424.928,327.261-425.335z"/>
	<path d="M329.407-425.463c2.505-0.132,5.119-0.215,7.761-0.216c0.011,0,0.023,0,0.035,0c0.096,0,0.19,0.003,0.286,0.003
		c1.395-1.608,2.827-3.075,4.243-4.406c-0.371-0.593-0.595-1.289-0.595-2.04c0-1.017,0.401-1.934,1.042-2.624
		c-1.654-3.235-2.917-6.161-3.675-8.139c-0.98-0.125-1.977-0.197-2.99-0.197c-4.144,0-8.033,1.083-11.408,2.975
		C325.056-436.649,326.903-430.715,329.407-425.463z"/>
	<path d="M341.733-403.829c-0.482-0.638-1.002-1.33-1.538-2.044c-4.068,4.011-8.121,6.889-10.966,8.678
		c2,0.558,4.106,0.862,6.285,0.862c3.637,0,7.081-0.831,10.15-2.313C344.737-399.856,343.485-401.512,341.733-403.829z"/>
	<path d="M347.924-411.367c-0.453,1.631-1.932,2.834-3.707,2.834c-0.45,0-0.875-0.092-1.277-0.233
		c-0.44,0.497-0.883,0.982-1.327,1.451c2.315,3.092,4.415,5.831,5.854,7.694c4.793-2.859,8.473-7.383,10.248-12.775
		C355.113-412.057,351.739-411.671,347.924-411.367z"/>
	<path d="M340.114-425.599c2.916,0.155,5.676,0.527,8.207,1.016c-0.456-0.635-0.889-1.253-1.287-1.844
		c-0.425-0.631-0.835-1.271-1.238-1.916c-0.257,0.054-0.523,0.084-0.796,0.084c-0.646,0-1.247-0.174-1.782-0.455
		C342.183-427.75,341.142-426.71,340.114-425.599z"/>
	<path d="M343.884-435.802c0.355-0.108,0.725-0.184,1.116-0.184c1.002,0,1.907,0.392,2.593,1.018
		c1.206-0.892,2.328-1.657,3.331-2.307c-2.844-2.497-6.298-4.313-10.112-5.197C341.53-440.724,342.57-438.384,343.884-435.802z"/>
	<path d="M358.881-419.442c-1.49-0.578-3.394-1.249-5.628-1.886c1.816,2.307,3.598,4.404,5.184,6.197
		C358.714-416.527,358.865-417.968,358.881-419.442z"/>
	<path d="M356.521-414.259c-1.635-1.894-3.387-4.017-5.042-6.127c-1.252,1.915-2.601,3.897-4.029,5.883
		c0.223,0.342,0.384,0.724,0.491,1.129C351.203-413.637,354.136-413.96,356.521-414.259z"/>
</g>
<g>
</g>
<g>
</g>
<g>
</g>
<g>
</g>
<g>
</g>
<g>
</g>
<g>
</g>
<g>
</g>
<g>
</g>
<g>
</g>
<g>
</g>
<g>
</g>
<g>
</g>
<g>
</g>
<g>
</g>
</svg>
