<?xml version="1.0" encoding="iso-8859-1"?>
<!-- Generator: Adobe Illustrator 16.0.0, SVG Export Plug-In . SVG Version: 6.00 Build 0)  -->
<!DOCTYPE svg PUBLIC "-//W3C//DTD SVG 1.1//EN" "http://www.w3.org/Graphics/SVG/1.1/DTD/svg11.dtd">
<svg version="1.1" id="Layer_1" xmlns="http://www.w3.org/2000/svg" xmlns:xlink="http://www.w3.org/1999/xlink" x="0px" y="0px"
	 width="48.748px" height="48.758px" viewBox="0 0 48.748 48.758" style="enable-background:new 0 0 48.748 48.758;"
	 xml:space="preserve">
<path d="M127.688-354.545l0.007-0.358c-0.009,0-0.076-0.001-0.191-0.001c-4.064-7.817-12.234-13.172-21.637-13.172
	c-13.439,0-24.373,10.934-24.373,24.374s10.934,24.374,24.373,24.374c13.44,0,24.374-10.934,24.374-24.374
	C130.241-347.597,129.318-351.277,127.688-354.545z M121.557-336.219c1.192,2.952,1.528,5.455,1.052,7.336
	c-1.171,1.321-2.496,2.502-3.946,3.518c-0.416,0.067-0.857,0.106-1.331,0.106c-1.842,0-3.987-0.524-6.273-1.472
	c1.959-1.61,4.001-3.47,5.879-5.543c1.446-1.596,2.84-3.31,4.144-5.011C121.245-336.929,121.415-336.571,121.557-336.219z
	 M116.198-332.946c-1.967,2.171-4.121,4.113-6.161,5.764c-1.743-0.805-3.551-1.84-5.365-3.082c1.4-1.92,2.811-4.056,4.075-6.324
	c3.602-1.279,7.119-2.958,10.2-4.625c0.621,0.978,1.167,1.951,1.653,2.914C119.226-336.486,117.739-334.647,116.198-332.946z
	 M96.303-323.481c0.727-1.799,2.056-5.346,3.125-9.607c1.259,1.104,2.543,2.124,3.835,3.048c-2.393,3.187-4.655,5.678-5.934,7.014
	C96.982-323.169,96.64-323.321,96.303-323.481z M84.166-338.264l0.198,0.245c0.049-0.04,2.631-2.112,6.536-4.676
	c0.632,0.941,1.307,1.881,2.045,2.814c-0.455,1.879-0.842,3.675-1.168,5.326c-2.946,0.147-5.234,0.099-6.292,0.061
	C84.939-335.698,84.494-336.958,84.166-338.264z M87.518-356.481c0.759-1.086,1.607-2.105,2.542-3.04
	c0.768-0.336,1.665-0.526,2.72-0.526c1.701,0,3.66,0.448,5.749,1.261c0.136,0.667,0.271,1.368,0.4,2.098
	c-1.533,3.09-3.039,6.566-4.138,10.095c-0.039,0.126-0.077,0.251-0.115,0.377c-1.24,0.725-2.407,1.448-3.494,2.147
	c-1.079-1.696-1.966-3.384-2.626-5.019C87.352-352.07,87.02-354.594,87.518-356.481z M105.867-366.077
	c3.538,0,6.885,0.829,9.862,2.297l-0.083-0.009c-0.008,0.073-0.484,4.454-1.803,10.162c-1.25,0.232-2.529,0.507-3.816,0.832
	c-2.938-2.49-6.001-4.518-8.919-5.941c1.74-3.258,3.373-5.873,4.321-7.33C105.575-366.068,105.72-366.077,105.867-366.077z
	 M98.194-335.576c-1.517-1.47-2.903-3.001-4.158-4.553c0.433-1.756,0.925-3.578,1.481-5.418c1.414-0.818,2.911-1.629,4.457-2.397
	c0.064,1.192,0.095,2.396,0.078,3.595c-0.045,3.074-0.51,6.206-1.143,9.103c-0.105,0.016-0.21,0.03-0.316,0.045
	C98.461-335.327,98.326-335.448,98.194-335.576z M100.646-357.862c2.666,1.299,5.471,3.138,8.191,5.383
	c-1.603,0.443-3.203,0.965-4.753,1.584c-1.083,0.433-2.154,0.911-3.21,1.407c-0.195-2.482-0.527-4.881-0.904-7.049
	C100.196-356.988,100.421-357.43,100.646-357.862z M99.673-358.155c-0.011-0.056-0.022-0.114-0.033-0.17
	c0.032,0.014,0.065,0.03,0.098,0.045C99.716-358.238,99.694-358.198,99.673-358.155z M99.907-349.028
	c-1.362,0.667-2.683,1.369-3.951,2.083c0.907-2.783,2.056-5.522,3.258-8.046C99.508-353.113,99.757-351.096,99.907-349.028z
	 M99.735-334.362c2.492-0.395,5.08-0.958,7.585-1.749c-1.099,1.878-2.284,3.654-3.465,5.272c-1.401-1.005-2.798-2.124-4.162-3.346
	C99.708-334.244,99.722-334.303,99.735-334.362z M109.887-341.133c-0.544,1.269-1.161,2.515-1.824,3.726
	c-2.646,0.916-5.42,1.554-8.095,1.995c0.604-2.85,1.04-5.913,1.084-8.922c0.02-1.364-0.02-2.733-0.103-4.086
	c1.151-0.549,2.322-1.073,3.506-1.546c1.729-0.691,3.522-1.259,5.312-1.729c0.726,0.629,1.445,1.281,2.151,1.965
	c0.25,0.243,0.485,0.492,0.728,0.737C111.901-346.398,110.991-343.705,109.887-341.133z M113.449-348.181
	c1.893,1.992,3.549,4.063,4.94,6.134c-2.722,1.469-5.783,2.944-8.938,4.136c0.481-0.929,0.943-1.869,1.354-2.828
	C111.851-343.174,112.723-345.714,113.449-348.181z M112.615-350.448c-0.549-0.532-1.107-1.042-1.67-1.542
	c0.89-0.213,1.774-0.404,2.646-0.572c-0.195,0.802-0.406,1.624-0.634,2.461C112.84-350.217,112.732-350.334,112.615-350.448z
	 M100.2-359.156c-0.268-0.12-0.534-0.238-0.798-0.347c-0.467-2.229-0.932-4.042-1.25-5.201c1.909-0.704,3.94-1.148,6.051-1.304
	C103.212-364.459,101.746-362.056,100.2-359.156z M98.287-359.938c-1.989-0.719-3.859-1.11-5.507-1.11
	c-0.4,0-0.768,0.042-1.135,0.085c1.671-1.379,3.545-2.521,5.571-3.373C97.497-363.306,97.886-361.786,98.287-359.938z
	 M94.252-344.799c-0.361,1.242-0.693,2.471-0.998,3.674c-0.538-0.703-1.042-1.408-1.516-2.114
	C92.531-343.749,93.374-344.271,94.252-344.799z M93.744-338.915c1.103,1.322,2.296,2.624,3.583,3.883
	c-1.592,0.197-3.116,0.33-4.519,0.418C93.078-335.964,93.389-337.409,93.744-338.915z M98.258-334.146
	c0.11,0.103,0.218,0.208,0.329,0.308c-1.06,4.371-2.43,8.042-3.179,9.905c-1.412-0.75-2.734-1.647-3.946-2.67
	c0.199-1.485,0.567-3.961,1.149-6.998C94.337-333.704,96.25-333.873,98.258-334.146z M104.078-329.463
	c1.711,1.17,3.423,2.172,5.085,2.972c-3.084,2.412-5.785,4.106-7.024,4.846c-1.309-0.221-2.58-0.553-3.802-0.991
	C99.676-324.053,101.819-326.451,104.078-329.463z M119.824-341.692c2.09-1.159,3.946-2.289,5.458-3.254
	c-1.105,1.682-2.48,3.687-4.019,5.762C120.827-340.017,120.355-340.853,119.824-341.692z M119.27-342.527
	c-1.53-2.29-3.386-4.573-5.503-6.755c0.333-1.191,0.632-2.357,0.899-3.479c4.658-0.821,8.815-1.057,11.116-1.121
	c0.831,1.618,1.469,3.35,1.886,5.165c-0.258,0.427-0.609,0.998-1.058,1.709C124.913-345.871,122.338-344.226,119.27-342.527z
	 M125.246-354.864c-2.334,0.082-6.11,0.329-10.335,1.047c1.057-4.664,1.551-8.382,1.688-9.512
	C120.198-361.353,123.193-358.414,125.246-354.864z M86.304-354.542c0.021,1.702,0.449,3.66,1.324,5.829
	c0.683,1.693,1.6,3.438,2.715,5.19c-3.285,2.158-5.622,3.952-6.348,4.522c-0.326-1.517-0.501-3.089-0.501-4.702
	C83.494-347.634,84.517-351.329,86.304-354.542z M85.978-333.478c0.483,0.013,1.095,0.023,1.823,0.023
	c1.05,0,2.337-0.023,3.781-0.091c-0.481,2.534-0.812,4.664-1.02,6.14C88.709-329.146,87.154-331.198,85.978-333.478z
	 M103.707-321.435c1.536-0.963,3.892-2.535,6.48-4.591c2.445,1.069,4.752,1.679,6.76,1.749c-3.27,1.873-7.05,2.949-11.08,2.949
	C105.138-321.329,104.418-321.366,103.707-321.435z M123.824-330.372c0.047-1.787-0.398-3.889-1.34-6.221
	c-0.213-0.529-0.455-1.063-0.712-1.602c2.318-3.096,4.276-6.059,5.569-8.101c0.248-0.167,0.479-0.325,0.686-0.466
	c0.137,1.001,0.214,2.021,0.214,3.059C128.241-338.711,126.597-334.098,123.824-330.372z"/>
<g>
</g>
<g>
</g>
<g>
</g>
<g>
</g>
<g>
</g>
<g>
</g>
<g>
</g>
<g>
</g>
<g>
</g>
<g>
</g>
<g>
</g>
<g>
</g>
<g>
</g>
<g>
</g>
<g>
</g>
</svg>
