<?xml version="1.0" encoding="iso-8859-1"?>
<!-- Generator: Adobe Illustrator 16.0.0, SVG Export Plug-In . SVG Version: 6.00 Build 0)  -->
<!DOCTYPE svg PUBLIC "-//W3C//DTD SVG 1.1//EN" "http://www.w3.org/Graphics/SVG/1.1/DTD/svg11.dtd">
<svg version="1.1" id="Layer_1" xmlns="http://www.w3.org/2000/svg" xmlns:xlink="http://www.w3.org/1999/xlink" x="0px" y="0px"
	 width="48.748px" height="48.758px" viewBox="0 0 48.748 48.758" style="enable-background:new 0 0 48.748 48.758;"
	 xml:space="preserve">
<g>
	<path d="M27.555-330.9c-3.403,0-6.631-0.329-9.584-0.925c1.573,4.766,3.948,8.361,6.684,9.881c0.951,0.118,1.918,0.186,2.901,0.186
		c0.984,0,1.952-0.068,2.903-0.186c2.735-1.52,5.11-5.115,6.683-9.881C34.188-331.229,30.959-330.9,27.555-330.9z"/>
	<path d="M15.072-334.654c-0.718-3.191-1.116-6.729-1.116-10.48c0-3.227,0.294-6.298,0.833-9.125
		c-5.116,1.593-8.972,4.091-10.505,6.985c-0.064,0.706-0.102,1.418-0.102,2.141c0,1.28,0.107,2.534,0.305,3.758
		C6.17-338.579,10.026-336.178,15.072-334.654z"/>
	<path d="M27.555-358.101c3.562,0,6.934,0.359,9.998,1.009c-1.553-5.431-4.107-9.569-7.094-11.229
		c-0.952-0.118-1.919-0.186-2.903-0.186c-0.983,0-1.95,0.068-2.901,0.186c-2.987,1.66-5.542,5.798-7.095,11.229
		C20.623-357.743,23.994-358.101,27.555-358.101z"/>
	<path d="M38.116-354.871c-3.208-0.784-6.798-1.23-10.561-1.23c-3.761,0-7.351,0.446-10.558,1.229
		c-0.665,2.995-1.041,6.294-1.041,9.738c0,3.968,0.497,7.746,1.363,11.083c3.124,0.735,6.601,1.15,10.236,1.15
		c3.636,0,7.113-0.416,10.238-1.151c0.866-3.337,1.363-7.115,1.363-11.083C39.156-348.578,38.78-351.877,38.116-354.871z"/>
	<path d="M50.625-341.375c0.198-1.224,0.305-2.478,0.305-3.758c0-0.722-0.038-1.435-0.102-2.141
		c-1.533-2.894-5.389-5.392-10.505-6.985c0.539,2.827,0.833,5.898,0.833,9.125c0,3.75-0.398,7.289-1.116,10.48
		C45.086-336.179,48.942-338.579,50.625-341.375z"/>
	<path d="M39.452-332.362c-1.136,3.922-2.785,7.194-4.79,9.499c6.893-2.198,12.397-7.503,14.862-14.272
		C47.062-335.102,43.592-333.452,39.452-332.362z"/>
	<path d="M15.661-332.361c-4.141-1.09-7.61-2.74-10.073-4.773c2.465,6.769,7.97,12.075,14.863,14.272
		C18.446-325.167,16.797-328.439,15.661-332.361z"/>
	<path d="M39.822-356.542c4.294,1.177,7.84,2.962,10.253,5.152c-2.105-7.592-7.94-13.631-15.413-16.014
		C36.896-364.836,38.69-361.072,39.822-356.542z"/>
	<path d="M15.29-356.542c1.132-4.53,2.927-8.294,5.161-10.862c-7.473,2.382-13.309,8.421-15.414,16.014
		C7.45-353.58,10.997-355.366,15.29-356.542z"/>
</g>
<g>
</g>
<g>
</g>
<g>
</g>
<g>
</g>
<g>
</g>
<g>
</g>
<g>
</g>
<g>
</g>
<g>
</g>
<g>
</g>
<g>
</g>
<g>
</g>
<g>
</g>
<g>
</g>
<g>
</g>
</svg>
