<?xml version="1.0" encoding="iso-8859-1"?>
<!-- Generator: Adobe Illustrator 16.0.0, SVG Export Plug-In . SVG Version: 6.00 Build 0)  -->
<!DOCTYPE svg PUBLIC "-//W3C//DTD SVG 1.1//EN" "http://www.w3.org/Graphics/SVG/1.1/DTD/svg11.dtd">
<svg version="1.1" id="Layer_1" xmlns="http://www.w3.org/2000/svg" xmlns:xlink="http://www.w3.org/1999/xlink" x="0px" y="0px"
	 width="48.748px" height="48.758px" viewBox="0 0 48.748 48.758" style="enable-background:new 0 0 48.748 48.758;"
	 xml:space="preserve">
<path d="M23.805-225.484c-6.361,0-12.151,2.459-16.495,6.466c-4.41,3.595-7.308,8.528-7.803,14.147
	c-0.083,0.937-0.089,1.869-0.038,2.796c-0.013,0.321-0.038,0.64-0.038,0.965c0,13.44,10.934,24.374,24.373,24.374
	c13.44,0,24.374-10.934,24.374-24.374S37.245-225.484,23.805-225.484z M46.172-200.857c-0.023,2.041-0.335,4.011-0.872,5.887
	c-3.138,2.454-7.064,4.202-11.469,4.943c0.217-1.817,0.371-3.817,0.429-5.968c4.527-0.857,8.44-3.002,11.2-5.989
	C45.808-201.468,46.047-201.073,46.172-200.857z M45.535-205.255c-1.135-1.415-2.667-3.087-4.666-4.787
	c0.668-1.155,1.094-2.439,1.215-3.812c0.003-0.038,0.002-0.076,0.005-0.114c1.75,2.484,3.001,5.338,3.625,8.42
	C45.653-205.45,45.598-205.351,45.535-205.255z M34.283-198.036c-0.008-2.163-0.123-4.459-0.38-6.876
	c2.325-0.644,4.329-1.865,5.775-3.489c2.007,1.729,3.525,3.425,4.594,4.792C41.863-200.876,38.363-198.884,34.283-198.036z
	 M9.411-197.332c-3.772-3.772-5.81-8.387-5.906-13.158c0.491-1.058,1.055-2.075,1.699-3.036c0.722-0.246,1.935-0.631,3.493-1.028
	c-0.325,4.546,1.413,8.983,4.928,12.529c-1.359,1.741-2.613,3.486-3.728,5.135C9.738-197.041,9.565-197.177,9.411-197.332z
	 M28.841-216.825c-2.926-0.893-5.948-1.234-8.838-1.246c0.854-1.97,2.57-3.562,4.779-4.497
	C25.869-221.606,27.426-219.848,28.841-216.825z M32.303-213.277c2.225,1.091,4.159,2.334,5.819,3.605
	c-1.13,1.245-2.675,2.203-4.47,2.751C33.31-209.32,32.849-211.439,32.303-213.277z M19.432-215.852
	c0.006-0.065,0.019-0.128,0.027-0.193c2.828-0.035,5.788,0.245,8.624,1.081c-2.179,1.186-4.487,2.728-6.78,4.699
	C19.919-211.916,19.256-213.871,19.432-215.852z M30.063-213.732c0.664,1.998,1.228,4.402,1.623,7.229
	c-0.861,0.108-1.755,0.138-2.675,0.056c-2.373-0.209-4.558-1.067-6.276-2.433C25.22-210.994,27.74-212.567,30.063-213.732z
	 M17.867-218.02c-2.404,0.119-4.665,0.438-6.65,0.826c0.302-0.999,0.72-1.952,1.243-2.855c2.636-1.384,5.635-2.33,8.852-2.767
	C19.685-221.553,18.479-219.908,17.867-218.02z M17.438-215.97c-0.207,2.521,0.635,4.984,2.378,7.038
	c-1.737,1.646-3.39,3.462-4.927,5.329c-3.049-3.159-4.544-7.061-4.193-11.029c0.012-0.135,0.045-0.264,0.062-0.398
	C12.714-215.446,14.993-215.813,17.438-215.97z M21.234-207.519c2.062,1.73,4.721,2.81,7.602,3.064
	c0.436,0.039,0.866,0.057,1.293,0.057c0.614,0,1.212-0.049,1.801-0.123c0.247,2.387,0.353,4.664,0.347,6.801
	c-0.802,0.089-1.619,0.143-2.453,0.143c-0.657,0-1.325-0.03-1.985-0.088c-4.359-0.385-8.374-1.992-11.483-4.567
	C17.881-204.097,19.523-205.9,21.234-207.519z M40.092-214.029c-0.085,0.964-0.372,1.872-0.811,2.708
	c-1.754-1.331-3.794-2.632-6.15-3.779c3.095-1.214,5.518-1.681,6.48-1.829c0.067,0.067,0.127,0.141,0.194,0.209
	C40.067-215.858,40.173-214.954,40.092-214.029z M31.175-216.476c-1.283-3.105-2.762-5.188-4.028-6.56
	c0.257,0.016,0.515,0.028,0.771,0.051c0.142,0.013,0.277,0.04,0.418,0.054c-0.17-0.053-0.333-0.118-0.502-0.172
	c3.687,0.674,7.063,2.242,9.883,4.489C36.154-218.276,33.854-217.636,31.175-216.476z M9.387-218.105
	c-0.149,0.456-0.271,0.921-0.376,1.392c-0.573,0.138-1.118,0.277-1.612,0.414c0.382-0.413,0.785-0.807,1.197-1.189
	C8.854-217.7,9.117-217.905,9.387-218.105z M2.03-206.24c0.913,3.75,2.935,7.29,5.966,10.322c0.25,0.25,0.524,0.474,0.784,0.713
	c-1.032,1.59-1.91,3.034-2.616,4.237c-2.838-3.316-4.455-7.166-4.695-11.154C1.533-203.531,1.716-204.909,2.03-206.24z
	 M10.326-193.879c4.37,3.444,9.879,5.607,15.844,6.133c0.935,0.083,1.88,0.124,2.811,0.124c0.839,0,1.666-0.039,2.483-0.104
	c-0.37,2.268-0.807,4.149-1.195,5.58c-1.088,0.125-2.196,0.2-3.329,0.2c-0.873,0-1.759-0.039-2.635-0.116
	c-6.494-0.574-12.407-3.198-16.704-7.384C8.306-190.655,9.232-192.186,10.326-193.879z M28.98-189.622
	c-0.873,0-1.759-0.039-2.635-0.116c-5.637-0.498-10.833-2.546-14.918-5.812c1.104-1.642,2.337-3.381,3.683-5.117
	c3.417,2.818,7.803,4.576,12.553,4.995c0.718,0.063,1.445,0.096,2.161,0.096c0.821,0,1.626-0.048,2.419-0.128
	c-0.073,2.151-0.248,4.141-0.48,5.942C30.85-189.676,29.924-189.622,28.98-189.622z M4.521-189.813
	c0.193,0.229,0.387,0.459,0.591,0.684c-0.027,0.049-0.062,0.108-0.087,0.155C4.847-189.247,4.686-189.532,4.521-189.813z
	 M23.805-178.736c-7.071,0-13.381-3.301-17.484-8.438c0.074-0.137,0.17-0.31,0.27-0.491c4.591,4.298,10.772,6.999,17.539,7.596
	c0.935,0.083,1.88,0.124,2.811,0.124c0.917,0,1.82-0.043,2.71-0.12c-0.079,0.239-0.15,0.45-0.207,0.608
	C27.642-178.987,25.752-178.736,23.805-178.736z M31.845-180.339c0.124-0.02,0.248-0.036,0.371-0.058
	c-0.137,0.056-0.268,0.121-0.406,0.174C31.821-180.258,31.834-180.302,31.845-180.339z M38.853-184.576
	c-1.976,0.942-4.126,1.662-6.412,2.105c0.379-1.485,0.778-3.325,1.11-5.485c3.891-0.574,7.458-1.884,10.529-3.743
	C42.816-188.989,41.038-186.566,38.853-184.576z"/>
<g>
</g>
<g>
</g>
<g>
</g>
<g>
</g>
<g>
</g>
<g>
</g>
<g>
</g>
<g>
</g>
<g>
</g>
<g>
</g>
<g>
</g>
<g>
</g>
<g>
</g>
<g>
</g>
<g>
</g>
</svg>
