<?xml version="1.0" encoding="iso-8859-1"?>
<!-- Generator: Adobe Illustrator 16.0.0, SVG Export Plug-In . SVG Version: 6.00 Build 0)  -->
<!DOCTYPE svg PUBLIC "-//W3C//DTD SVG 1.1//EN" "http://www.w3.org/Graphics/SVG/1.1/DTD/svg11.dtd">
<svg version="1.1" id="Layer_1" xmlns="http://www.w3.org/2000/svg" xmlns:xlink="http://www.w3.org/1999/xlink" x="0px" y="0px"
	 width="46.71px" height="46.748px" viewBox="0 0 46.71 46.748" style="enable-background:new 0 0 46.71 46.748;"
	 xml:space="preserve">
<g>
	<polygon style="fill:none;" points="-293.036,9.812 -292.854,9.103 -293.382,8.977 -293.966,9.255 -293.605,9.993 	"/>
	<polygon style="fill:none;" points="-291.45,11.564 -292.187,11.564 -292.701,12.12 -292.785,12.676 -292.395,12.885 	"/>
	<polygon style="fill:none;" points="-290.867,11.383 -290.867,10.924 -291.06,10.924 -291.06,10.66 -291.936,10.66 
		-292.577,10.924 -292.701,11.244 -292.201,11.383 	"/>
	<polygon style="fill:none;" points="-290.63,10.854 -290.63,11.383 -290.17,11.272 	"/>
	<path style="fill:none;" d="M-261.116,17.772c-0.028-0.127-0.058-0.253-0.088-0.38l-0.07,0.082L-261.116,17.772z"/>
	<polygon style="fill:none;" points="-294.699,5.751 -294.699,5.404 -295.496,5.404 -295.539,5.571 -296.025,5.571 -296.025,5.612 
		-296.025,6.057 -294.927,6.057 	"/>
	<polygon style="fill:none;" points="-289.169,12.733 -289.169,12.301 -290.017,12.051 -290.073,12.051 -290.073,12.453 
		-289.878,12.733 	"/>
	<path style="fill:none;" d="M-263.859,13.844l-0.112-1.029l-0.597,0.326l-0.321,1.258l-0.862-0.918l-0.035-0.867l-0.833-0.717
		l-0.308-0.306h-0.966l0.306,0.861l1.162,0.648l0.202,0.214l-0.251,0.126l0.011,0.682l-0.566,0.236l-0.483-0.106l-0.302-0.428
		l0.786,0.042l0.212-0.286l-1.742-1.175l-0.132-0.5l-0.708,0.64l-0.718-0.147l-1.092,1.419l-0.214,0.556l-0.699,0.063l-1.034,0.006
		l-0.618-0.289l-0.181-1.228l0.222-0.585l1.051-0.23l1.147,0.23l0.14-0.635l-0.487-0.115l0.167-0.988l1.154-0.181l0.807-1.14
		l0.833-0.14l0.752,0.111h0.277l-0.152-1.07l-0.915,0.369l-0.321-0.8l-0.531-0.074l-0.099-0.549l0.433-0.471l1.029-0.403
		l0.265-0.474c-3.933-3.465-9.089-5.574-14.73-5.574c-4.896,0-9.425,1.589-13.109,4.273l1.125-0.009l0.501,0.278l0.945,0.204
		l0.073,0.371l1.503,0.056l-0.204-0.482l-1.335-0.037l0.315-0.296l-0.11-0.353h-1.206l1.316-0.983h1.261l0.593,0.816l0.984,0.056
		l0.593-0.576l0.446,0.223l-0.817,0.798c0,0-1.13,0.019-1.075,0.019c0.056,0,0.093,0.778,0.093,0.778l1.371-0.038l0.148-0.37
		l0.945-0.056l0.111-0.556l-0.556-0.094l0.185-0.5l0.426-0.129l1.483,0.074l-0.817,0.742l0.132,0.574l0.853,0.13l-0.056-1.038
		l0.816-0.427l1.446-0.167l2.095,0.928v0.797l0.668,0.167l-0.334,0.63h-0.945l-0.28,0.723l-2.162-0.51l1.699-0.905l-0.648-0.55
		l-1.465,0.185l-0.128,0.132l-0.005-0.002l-0.023,0.032l-0.421,0.438l-0.697,0.059l0.056,0.348l0.244,0.101l-0.01,0.115
		l-0.567,0.081l-0.042,0.329l-0.542,0.028l-0.098-0.654l-0.973,0.296l-1.989,1.164l0.224,0.819l0.556,0.362l1.112,0.154v1.264
		l0.514-0.083l0.474-0.988l1.183-0.375V7.059l0.658-0.497l1.59,0.375l-0.112,1.001h0.427l1.168-0.574l0.056,1.315l0.852,0.519
		l-0.036,0.78l-0.815,0.278l0.056,0.258l0.982,0.447l-0.019,0.537l-0.285,0.024c-0.001-0.009-0.003-0.015-0.003-0.015l-1.239-0.382
		l-0.053-0.397h-0.001l0.362-0.249v-0.362l-0.39-0.098l-0.097,0.334l-0.684,0.105l-0.068-0.023v0.034l-0.236,0.036l-0.193-0.39
		l-0.223-0.098h-0.487l-0.221,0.181v0.403l0.417,0.139l0.411,0.058l-0.092,0.041l-0.375,0.416l-0.166-0.208l-0.362-0.096
		l-0.988,0.93l0.129,0.106l-1.459,0.808l-1.372,1.428l-0.094,0.636l-1.376,0.904l-0.682,0.686l0.075,1.372l-0.946-0.44l0.007-0.803
		l-2.632,0.001l-1.363,0.69l-0.592,1.091l-0.234,0.865l0.383,0.839l1.074,0.131l1.707-1.141l0.149,0.565l-0.521,0.984l1.299,0.222
		l0.129,2.006l1.78,0.302l1.131-1.307l1.373,0.279l0.482,0.671l1.316-0.078l0.037-0.39l0.723,0.353l0.816,1.278l1.409,0.02
		l0.52,0.909l0.074,1.111l1.558,0.594l1.965,0.019l0.575,0.944l0.871,0.279l-0.167,0.779l-0.955,1.214l-0.278,2.685l-0.862,0.682
		l-1.279-0.039l-0.427,0.741l0.316,1.392l-1.391,1.78l-0.445,0.816l-1.326,0.637l-0.872,0.132l-0.036,0.37l0.612,0.175l-0.074,0.398
		l-0.548,0.528l0.333,0.418l0.66,0.019l-0.037,0.51l-0.175,0.5l-0.056,0.408l0.976,0.822l-0.13,0.427l-1.328-0.025l-1.321-1.153
		l-1.029-1.809l0.144-1.747l-0.779-1.039l0.315-1.761l-0.463-0.13v-3.819c0,0-1.298-0.984-1.372-0.984
		c-0.074,0-0.687-0.166-0.687-0.166l-0.129-0.723l-1.688-2.114l0.167-0.76l0.055-1.242l1.167-0.816l-0.167-1.391l-1.705-0.128
		l-1.335-1.521l-0.945-0.258l-0.612-0.112l0.074-0.556l-0.779-0.111v0.315l-1.947-0.482l-0.784-1.199l0.319-0.581l-1.233-1.799
		l-0.211-1.316h-0.5l0.167,1.279l0.853,1.316l-0.093,0.52l-0.723-0.111l-0.889-1.517v-1.765l-0.927-0.446v-1.27
		c-1.146,2.683-1.781,5.635-1.781,8.732c0,12.303,10.009,22.313,22.313,22.313c6.975,0,13.21-3.219,17.305-8.248h-0.736v-1.483
		l-0.851-1.146v-1.784l-0.65-0.647l-0.056-0.742l0.825-1.576l-1.566-2.763l0.186-1.874l-1.409-0.147l-0.519-0.519h-0.947
		l-0.481,0.445h-1.668l-0.056,0.148h-0.928l-2.131-2.428l0.018-1.892l0.352-0.129l0.131-0.724h-0.5l-0.205-0.76l2.466-1.78v-1.261
		l1.207-0.67l0.488,0.049h0.994l0.777-0.417l2.503-0.195v1.28l1.976,0.501l0.389,0.278h0.362v-0.696l1.14-0.111l1.084,0.807h1.78
		l0.125-0.114c-0.177-0.601-0.378-1.19-0.604-1.769l-1.163,0.02L-263.859,13.844z M-272.649,8.114l0.205-0.314l0.732-0.148
		l0.185,0.891l0.39,0.63l0.259,0.298l0.472,0.184l-0.444,0.529l-0.862,0.083h-0.649l0.074-0.769l0.539-0.112l-0.046-0.361
		l-0.502-0.315l-0.352-0.241V8.114z M-273.854,9.506l0.445-0.714l0.601-0.139l0.428,0.186l-0.038,0.482l-0.917,0.649h-0.519V9.506z
		 M-285.976,12.25l-0.465,0.039l0.025-0.322l0.208-0.259l0.279,0.219L-285.976,12.25z M-284.347,11.68l-0.317,0.027l-0.064,0.307
		l-0.245,0.152l-0.392,0.033c-0.013-0.092-0.022-0.162-0.022-0.162h-0.152v-0.33h0.639l0.132-0.34l0.254-0.005l0.291,0.06
		L-284.347,11.68z"/>
	<path style="fill:none;" d="M-263.183,12.553v0.986l0.433-0.06l0.231,0.009c-0.165-0.37-0.339-0.734-0.523-1.094L-263.183,12.553z"
		/>
	<path style="fill:none;" d="M-294.717,7.1c0,0,0.042-0.486,0-0.486c-0.042,0-0.529,0.083-0.529,0.083l-0.779,0.222l0.209,0.25
		L-294.717,7.1z"/>
	<polygon style="fill:none;" points="-289.28,11.707 -289.621,11.495 -289.823,11.707 -289.553,11.932 	"/>
	<path style="fill:none;" d="M-291.004,12.301l0.416-0.077l0.334-0.215v-0.445h-0.75C-291.004,11.634-291.004,12.301-291.004,12.301
		z"/>
	<path style="fill:none;" d="M-260.307,13.539l-0.074-0.411l-0.132-0.054c0.064,0.153,0.122,0.31,0.184,0.465H-260.307z"/>
	<polygon style="fill:none;" points="-291.004,12.69 -291.339,12.719 -291.45,13.205 -290.74,13.205 -290.421,12.885 
		-290.421,12.453 -290.935,12.523 	"/>
	<path style="fill:none;" d="M-301.757,10.594c-0.316,0.498-0.614,1.007-0.891,1.53l0.926-1.125L-301.757,10.594z"/>
	<path style="fill:none;" d="M-267.656,8.797l0.096,0.319l1.531,0.014l0.438-0.652c-0.351-0.432-0.72-0.849-1.102-1.254
		l-0.004,1.086L-267.656,8.797z"/>
	<polygon points="-271.795,9.024 -271.749,9.385 -272.288,9.497 -272.362,10.266 -271.712,10.266 -270.85,10.183 -270.406,9.654 
		-270.878,9.47 -271.137,9.172 -271.527,8.542 -271.712,7.651 -272.445,7.8 -272.649,8.114 -272.649,8.468 -272.297,8.708 	"/>
	<polygon points="-272.417,9.32 -272.379,8.838 -272.808,8.653 -273.408,8.792 -273.854,9.506 -273.854,9.969 -273.335,9.969 	"/>
	<path d="M-284.768,11.367l-0.132,0.34h-0.639v0.33h0.152c0,0,0.009,0.07,0.022,0.162l0.392-0.033l0.245-0.152l0.064-0.307
		l0.317-0.027l0.125-0.258l-0.291-0.06L-284.768,11.367z"/>
	<polygon points="-286.416,11.966 -286.441,12.289 -285.976,12.25 -285.929,11.926 -286.208,11.707 	"/>
	<path d="M-258.608,22.27c-0.007-0.711-0.043-1.417-0.11-2.112c-0.225-2.317-0.779-4.538-1.61-6.62
		c-0.062-0.155-0.119-0.312-0.184-0.465c-1.106-2.613-2.66-4.992-4.56-7.045c-0.124-0.134-0.251-0.266-0.378-0.396
		c-0.36-0.373-0.728-0.737-1.111-1.086c-4.321-3.935-10.062-6.337-16.353-6.337c-6.345,0-12.127,2.445-16.461,6.44
		c-1.009,0.931-1.938,1.947-2.779,3.035c-3.176,4.109-5.072,9.254-5.072,14.837c0,13.406,10.907,24.313,24.313,24.313
		c9.43,0,17.617-5.4,21.647-13.267c0.862-1.682,1.533-3.475,1.985-5.354c0.115-0.476,0.214-0.956,0.3-1.442
		c0.245-1.381,0.379-2.8,0.379-4.25C-258.602,22.437-258.607,22.354-258.608,22.27z M-263.183,12.553l0.141-0.158
		c0.184,0.359,0.358,0.724,0.523,1.094l-0.231-0.009l-0.433,0.06V12.553z M-266.697,8.311l0.004-1.086
		c0.382,0.405,0.75,0.822,1.102,1.254l-0.438,0.652l-1.531-0.014l-0.096-0.319L-266.697,8.311z M-296.025,5.612V5.571h0.487
		l0.042-0.167h0.797v0.348l-0.229,0.306h-1.098V5.612z M-295.247,6.697c0,0,0.487-0.083,0.529-0.083c0.042,0,0,0.486,0,0.486
		l-1.099,0.069l-0.209-0.25L-295.247,6.697z M-261.635,16.348h-1.78l-1.084-0.807l-1.14,0.111v0.696h-0.362l-0.389-0.278
		l-1.976-0.501v-1.28l-2.503,0.195l-0.777,0.417h-0.994l-0.488-0.049l-1.207,0.67v1.261l-2.466,1.78l0.205,0.76h0.5l-0.131,0.724
		l-0.352,0.129l-0.018,1.892l2.131,2.428h0.928l0.056-0.148h1.668l0.481-0.445h0.947l0.519,0.519l1.409,0.147l-0.186,1.874
		l1.566,2.763l-0.825,1.576l0.056,0.742l0.65,0.647v1.784l0.851,1.146v1.483h0.736c-4.095,5.028-10.33,8.248-17.305,8.248
		c-12.303,0-22.313-10.009-22.313-22.313c0-3.097,0.636-6.049,1.781-8.732v-0.696l0.798-0.969c0.277-0.523,0.574-1.033,0.891-1.53
		l0.036,0.405l-0.926,1.125c-0.287,0.542-0.555,1.096-0.798,1.665v1.27l0.927,0.446v1.765l0.889,1.517l0.723,0.111l0.093-0.52
		l-0.853-1.316l-0.167-1.279h0.5l0.211,1.316l1.233,1.799l-0.319,0.581l0.784,1.199l1.947,0.482v-0.315l0.779,0.111l-0.074,0.556
		l0.612,0.112l0.945,0.258l1.335,1.521l1.705,0.128l0.167,1.391l-1.167,0.816l-0.055,1.242l-0.167,0.76l1.688,2.114l0.129,0.723
		c0,0,0.612,0.166,0.687,0.166c0.074,0,1.372,0.984,1.372,0.984v3.819l0.463,0.13l-0.315,1.761l0.779,1.039l-0.144,1.747
		l1.029,1.809l1.321,1.153l1.328,0.025l0.13-0.427l-0.976-0.822l0.056-0.408l0.175-0.5l0.037-0.51l-0.66-0.019l-0.333-0.418
		l0.548-0.528l0.074-0.398l-0.612-0.175l0.036-0.37l0.872-0.132l1.326-0.637l0.445-0.816l1.391-1.78l-0.316-1.392l0.427-0.741
		l1.279,0.039l0.862-0.682l0.278-2.685l0.955-1.214l0.167-0.779l-0.871-0.279l-0.575-0.944l-1.965-0.019l-1.558-0.594l-0.074-1.111
		l-0.52-0.909l-1.409-0.02l-0.816-1.278l-0.723-0.353l-0.037,0.39l-1.316,0.078l-0.482-0.671l-1.373-0.279l-1.131,1.307l-1.78-0.302
		l-0.129-2.006l-1.299-0.222l0.521-0.984l-0.149-0.565l-1.707,1.141l-1.074-0.131l-0.383-0.839l0.234-0.865l0.592-1.091l1.363-0.69
		l2.632-0.001l-0.007,0.803l0.946,0.44l-0.075-1.372l0.682-0.686l1.376-0.904l0.094-0.636l1.372-1.428l1.459-0.808l-0.129-0.106
		l0.988-0.93l0.362,0.096l0.166,0.208l0.375-0.416l0.092-0.041l-0.411-0.058l-0.417-0.139v-0.403l0.221-0.181h0.487l0.223,0.098
		l0.193,0.39l0.236-0.036v-0.034l0.068,0.023l0.684-0.105l0.097-0.334l0.39,0.098v0.362l-0.362,0.249h0.001l0.053,0.397l1.239,0.382
		c0,0,0.001,0.005,0.003,0.015l0.285-0.024l0.019-0.537l-0.982-0.447l-0.056-0.258l0.815-0.278l0.036-0.78l-0.852-0.519
		l-0.056-1.315l-1.168,0.574h-0.427l0.112-1.001l-1.59-0.375l-0.658,0.497v1.516l-1.183,0.375l-0.474,0.988l-0.514,0.083V8.756
		l-1.112-0.154l-0.556-0.362l-0.224-0.819l1.989-1.164l0.973-0.296l0.098,0.654l0.542-0.028l0.042-0.329l0.567-0.081l0.01-0.115
		l-0.244-0.101l-0.056-0.348l0.697-0.059l0.421-0.438l0.023-0.032l0.005,0.002l0.128-0.132l1.465-0.185l0.648,0.55l-1.699,0.905
		l2.162,0.51l0.28-0.723h0.945l0.334-0.63l-0.668-0.167V4.417l-2.095-0.928l-1.446,0.167l-0.816,0.427l0.056,1.038l-0.853-0.13
		l-0.132-0.574l0.817-0.742l-1.483-0.074l-0.426,0.129l-0.185,0.5l0.556,0.094l-0.111,0.556l-0.945,0.056l-0.148,0.37l-1.371,0.038
		c0,0-0.038-0.778-0.093-0.778c-0.055,0,1.075-0.019,1.075-0.019l0.817-0.798l-0.446-0.223l-0.593,0.576l-0.984-0.056l-0.593-0.816
		h-1.261l-1.316,0.983h1.206l0.11,0.353l-0.315,0.296l1.335,0.037l0.204,0.482l-1.503-0.056l-0.073-0.371l-0.945-0.204l-0.501-0.278
		l-1.125,0.009c3.684-2.684,8.213-4.273,13.109-4.273c5.642,0,10.797,2.109,14.73,5.574l-0.265,0.474l-1.029,0.403l-0.433,0.471
		l0.099,0.549l0.531,0.074l0.321,0.8l0.915-0.369l0.152,1.07h-0.277l-0.752-0.111l-0.833,0.14l-0.807,1.14l-1.154,0.181
		l-0.167,0.988l0.487,0.115l-0.14,0.635l-1.147-0.23l-1.051,0.23l-0.222,0.585l0.181,1.228l0.618,0.289l1.034-0.006l0.699-0.063
		l0.214-0.556l1.092-1.419l0.718,0.147l0.708-0.64l0.132,0.5l1.742,1.175l-0.212,0.286l-0.786-0.042l0.302,0.428l0.483,0.106
		l0.566-0.236l-0.011-0.682l0.251-0.126l-0.202-0.214l-1.162-0.648l-0.306-0.861h0.966l0.308,0.306l0.833,0.717l0.035,0.867
		l0.862,0.918l0.321-1.258l0.597-0.326l0.112,1.029l0.583,0.64l1.163-0.02c0.225,0.579,0.427,1.168,0.604,1.769L-261.635,16.348z
		 M-293.966,9.255l0.584-0.278l0.528,0.126l-0.182,0.709l-0.57,0.181L-293.966,9.255z M-290.867,10.924v0.459h-1.334l-0.5-0.139
		l0.125-0.32l0.641-0.265h0.876v0.265H-290.867z M-290.253,11.564v0.445l-0.334,0.215l-0.416,0.077c0,0,0-0.667,0-0.737H-290.253z
		 M-290.63,11.383v-0.529l0.459,0.418L-290.63,11.383z M-290.421,12.453v0.433l-0.319,0.32h-0.709l0.111-0.486l0.335-0.029
		l0.069-0.167L-290.421,12.453z M-292.187,11.564h0.737l-0.945,1.321l-0.39-0.209l0.084-0.556L-292.187,11.564z M-289.169,12.301
		v0.432h-0.709l-0.194-0.28v-0.402h0.056L-289.169,12.301z M-289.823,11.707l0.202-0.212l0.341,0.212l-0.273,0.225L-289.823,11.707z
		 M-261.274,17.474l0.07-0.082c0.03,0.126,0.06,0.252,0.088,0.38L-261.274,17.474z"/>
	<path d="M-303.446,13.093v0.696c0.243-0.568,0.511-1.122,0.798-1.665L-303.446,13.093z"/>
</g>
<g>
</g>
<g>
</g>
<g>
</g>
<g>
</g>
<g>
</g>
<g>
</g>
<g>
</g>
<g>
</g>
<g>
</g>
<g>
</g>
<g>
</g>
<g>
</g>
<g>
</g>
<g>
</g>
<g>
</g>
</svg>
