<?xml version="1.0" encoding="iso-8859-1"?>
<!-- Generator: Adobe Illustrator 16.0.0, SVG Export Plug-In . SVG Version: 6.00 Build 0)  -->
<!DOCTYPE svg PUBLIC "-//W3C//DTD SVG 1.1//EN" "http://www.w3.org/Graphics/SVG/1.1/DTD/svg11.dtd">
<svg version="1.1" id="Layer_1" xmlns="http://www.w3.org/2000/svg" xmlns:xlink="http://www.w3.org/1999/xlink" x="0px" y="0px"
	 width="48.748px" height="48.758px" viewBox="0 0 48.748 48.758" style="enable-background:new 0 0 48.748 48.758;"
	 xml:space="preserve">
<g>
	<path d="M99.906-215.993c-0.175,1.981,0.488,3.936,1.871,5.587c2.293-1.971,4.601-3.514,6.78-4.699
		c-2.836-0.836-5.796-1.116-8.624-1.081C99.925-216.121,99.912-216.058,99.906-215.993z"/>
	<path d="M89.861-218.247c-0.27,0.2-0.533,0.406-0.792,0.616c-0.412,0.383-0.815,0.776-1.197,1.189
		c0.495-0.136,1.04-0.275,1.612-0.414C89.59-217.326,89.712-217.791,89.861-218.247z"/>
	<path d="M112.161-206.644c-0.395-2.827-0.959-5.231-1.623-7.229c-2.323,1.166-4.843,2.739-7.328,4.853
		c1.718,1.366,3.903,2.223,6.276,2.433C110.406-206.506,111.3-206.536,112.161-206.644z"/>
	<path d="M105.256-222.709c-2.209,0.935-3.925,2.526-4.779,4.497c2.891,0.012,5.912,0.353,8.838,1.246
		C107.9-219.989,106.344-221.748,105.256-222.709z"/>
	<path d="M91.691-217.335c1.985-0.388,4.246-0.707,6.65-0.826c0.612-1.888,1.818-3.533,3.445-4.796
		c-3.217,0.438-6.216,1.383-8.852,2.767C92.411-219.288,91.994-218.334,91.691-217.335z"/>
	<path d="M112.691-180.538c-0.123,0.021-0.248,0.038-0.371,0.058c-0.011,0.037-0.024,0.081-0.035,0.117
		C112.423-180.417,112.554-180.481,112.691-180.538z"/>
	<path d="M110.299-195.717c-0.716,0-1.443-0.032-2.161-0.096c-4.75-0.419-9.137-2.177-12.553-4.995
		c-1.346,1.736-2.579,3.475-3.683,5.117c4.086,3.266,9.281,5.314,14.918,5.812c0.876,0.077,1.763,0.116,2.635,0.116
		c0.943,0,1.869-0.054,2.783-0.14c0.232-1.801,0.407-3.792,0.48-5.942C111.925-195.766,111.12-195.717,110.299-195.717z"/>
	<path d="M85.586-189.27c-0.204-0.225-0.397-0.455-0.591-0.684c0.166,0.281,0.326,0.566,0.503,0.839
		C85.524-189.162,85.559-189.221,85.586-189.27z"/>
	<path d="M91.171-214.774c-0.351,3.969,1.144,7.871,4.193,11.029c1.537-1.867,3.189-3.682,4.927-5.329
		c-1.743-2.053-2.585-4.517-2.378-7.038c-2.444,0.157-4.724,0.524-6.68,0.939C91.216-215.038,91.183-214.91,91.171-214.774z"/>
	<path d="M89.255-195.346c-0.26-0.24-0.535-0.464-0.784-0.713c-3.032-3.032-5.053-6.571-5.966-10.322
		c-0.314,1.331-0.497,2.709-0.561,4.119c0.24,3.988,1.857,7.838,4.695,11.154C87.345-192.312,88.224-193.755,89.255-195.346z"/>
	<path d="M83.979-210.631c0.096,4.771,2.134,9.386,5.906,13.158c0.155,0.155,0.327,0.292,0.486,0.442
		c1.115-1.649,2.369-3.394,3.728-5.135c-3.515-3.546-5.253-7.983-4.928-12.529c-1.558,0.397-2.771,0.783-3.493,1.028
		C85.035-212.707,84.471-211.689,83.979-210.631z"/>
	<path d="M104.279-178.877c1.947,0,3.837-0.251,5.64-0.721c0.056-0.158,0.128-0.369,0.207-0.608c-0.891,0.077-1.794,0.12-2.71,0.12
		c-0.931,0-1.876-0.042-2.811-0.124c-6.767-0.598-12.948-3.298-17.539-7.596c-0.1,0.181-0.196,0.354-0.27,0.491
		C90.898-182.178,97.208-178.877,104.279-178.877z"/>
	<path d="M126.009-205.396c0.063-0.095,0.119-0.194,0.179-0.292c-0.624-3.083-1.875-5.936-3.625-8.42
		c-0.003,0.038-0.001,0.076-0.005,0.114c-0.121,1.372-0.547,2.656-1.215,3.812C123.342-208.483,124.874-206.812,126.009-205.396z"/>
	<path d="M118.597-209.813c-1.661-1.271-3.594-2.514-5.819-3.605c0.546,1.838,1.007,3.957,1.349,6.356
		C115.922-207.611,117.466-208.568,118.597-209.813z"/>
	<path d="M126.647-200.998c-0.125-0.216-0.365-0.611-0.712-1.127c-2.759,2.987-6.673,5.132-11.2,5.989
		c-0.058,2.15-0.211,4.15-0.429,5.968c4.404-0.741,8.331-2.489,11.469-4.943C126.312-196.987,126.624-198.957,126.647-200.998z"/>
	<path d="M124.554-191.84c-3.071,1.859-6.638,3.168-10.529,3.743c-0.332,2.16-0.73,4-1.11,5.485
		c2.286-0.443,4.436-1.163,6.412-2.105C121.512-186.708,123.291-189.13,124.554-191.84z"/>
	<path d="M120.086-217.07c-0.962,0.148-3.385,0.615-6.48,1.829c2.356,1.146,4.396,2.448,6.15,3.779
		c0.438-0.836,0.726-1.744,0.811-2.708c0.082-0.924-0.024-1.829-0.286-2.691C120.214-216.929,120.154-217.003,120.086-217.07z"/>
	<path d="M112.405-204.662c-0.588,0.074-1.187,0.123-1.801,0.123c-0.427,0-0.858-0.019-1.293-0.057
		c-2.881-0.254-5.54-1.334-7.602-3.064c-1.711,1.619-3.354,3.422-4.879,5.288c3.11,2.575,7.124,4.182,11.483,4.567
		c0.66,0.058,1.328,0.088,1.985,0.088c0.834,0,1.651-0.054,2.453-0.143C112.758-199.998,112.651-202.274,112.405-204.662z"/>
	<path d="M114.377-205.053c0.258,2.417,0.372,4.714,0.38,6.876c4.081-0.848,7.58-2.84,9.989-5.574
		c-1.069-1.366-2.587-3.063-4.594-4.792C118.706-206.918,116.702-205.697,114.377-205.053z"/>
	<path d="M111.938-187.866c-0.817,0.064-1.645,0.104-2.483,0.104c-0.931,0-1.876-0.042-2.811-0.124
		c-5.964-0.526-11.474-2.689-15.844-6.133c-1.093,1.693-2.02,3.224-2.724,4.433c4.297,4.186,10.209,6.811,16.704,7.384
		c0.876,0.077,1.763,0.116,2.635,0.116c1.133,0,2.241-0.075,3.329-0.2C111.132-183.717,111.568-185.598,111.938-187.866z"/>
	<path d="M108.308-223.244c0.169,0.054,0.333,0.119,0.502,0.172c-0.141-0.015-0.276-0.042-0.418-0.054
		c-0.256-0.022-0.514-0.035-0.771-0.051c1.266,1.371,2.745,3.454,4.028,6.56c2.679-1.16,4.979-1.8,6.542-2.137
		C115.371-221.001,111.995-222.57,108.308-223.244z"/>
</g>
<g>
</g>
<g>
</g>
<g>
</g>
<g>
</g>
<g>
</g>
<g>
</g>
<g>
</g>
<g>
</g>
<g>
</g>
<g>
</g>
<g>
</g>
<g>
</g>
<g>
</g>
<g>
</g>
<g>
</g>
</svg>
