<?xml version="1.0" encoding="iso-8859-1"?>
<!-- Generator: Adobe Illustrator 16.0.0, SVG Export Plug-In . SVG Version: 6.00 Build 0)  -->
<!DOCTYPE svg PUBLIC "-//W3C//DTD SVG 1.1//EN" "http://www.w3.org/Graphics/SVG/1.1/DTD/svg11.dtd">
<svg version="1.1" id="Layer_1" xmlns="http://www.w3.org/2000/svg" xmlns:xlink="http://www.w3.org/1999/xlink" x="0px" y="0px"
	 width="48.748px" height="48.758px" viewBox="0 0 48.748 48.758" style="enable-background:new 0 0 48.748 48.758;"
	 xml:space="preserve">
<g>
	<path style="fill:none;" d="M236.203-135.239c-0.054,0.102-0.106,0.206-0.159,0.309h0.203L236.203-135.239z"/>
	<path style="fill:none;" d="M235.518-118.241l0.18-1.819l-1.367-0.143l-0.32-0.319c0.439,2.267,1.216,4.415,2.285,6.383
		l0.743-1.419L235.518-118.241z"/>
	<path style="fill:none;" d="M235.788-128.8l1.918,0.487l0.376,0.27h0.353v-0.676l1.107-0.108l1.053,0.784h1.729l0.62-0.567v-0.891
		l-0.504-0.379l-1.71,0.028l-0.566-0.621l-0.109-1l-0.58,0.316l-0.311,1.222l-0.837-0.892l-0.035-0.842l-0.809-0.696l-0.298-0.297
		h-0.938l0.297,0.836l1.128,0.629l0.196,0.208l-0.244,0.123l0.01,0.661l-0.55,0.23l-0.468-0.104l-0.294-0.416l0.762,0.041
		l0.207-0.277l-1.692-1.142l-0.128-0.485l-0.688,0.621l-0.066-0.014c-0.197,0.6-0.369,1.21-0.515,1.831l1.586-0.124V-128.8z"/>
	<polygon style="fill:none;" points="243.541,-131.169 242.727,-131.504 242.684,-132.375 242.38,-132.527 242.217,-132.272 
		241.474,-132.186 241.134,-132.081 240.821,-131.728 240.821,-130.771 241.24,-130.829 242.641,-130.771 243.613,-130.771 	"/>
	<polygon style="fill:none;" points="246.744,-131.167 246.744,-130.826 246.274,-130.42 246.21,-130.132 247.102,-130.069 
		247.21,-129.898 247.778,-129.853 248.022,-130.087 248.022,-130.464 247.544,-130.816 247.544,-131.355 246.437,-132.094 
		246.482,-132.495 247.364,-132.445 247.336,-132.878 246.715,-133.137 245.987,-133.075 245.807,-132.661 245.842,-131.825 	"/>
	<path style="fill:none;" d="M276.023-115.649v-1.026l-0.558,0.054l-0.523,0.558l-1.44,0.091l-0.018-0.667h0.433l-0.018-0.325
		l-0.667-0.35l-1.188-0.171l-0.549-0.675l0.819-0.819l0.576,0.342l-0.045,0.627l0.603-0.015l0.649-0.343l2.321,1.054l0.09,1.25
		h0.069c1.138-2.68,1.769-5.626,1.769-8.717c0-4.676-1.444-9.02-3.907-12.614l-0.442,0.088v0.486l-1.673,0.108l1.268,1.188
		l0.217,0.972l-0.568,0.296l-1.783-1.457v-0.675l0.433-0.675l-0.323-0.405l-1.945,1.296l-1.539-0.136l-0.513-0.377l-0.647,0.918
		l0.297,0.593l2.241,0.27l0.9,1.026l-0.225,0.298l-0.702-0.703l-0.324,0.351l0.548,0.723l-0.117,1.36l-1.439-0.001l-0.072,1.097
		l1.215,0.738l0.423,0.557l-0.639,0.172l-2.268-1.729h-0.729l0.028,1.404l1.646,1.728l0.126,1.251l-0.829,0.692l-1.889,0.676
		l0.188,0.702l-0.343,0.243l-0.386-0.593l0.054-0.459l-0.675-0.216l-0.379,0.512l0.054,0.973l1.332,1.071l0.133,0.81l-0.806,0.536
		l-0.612-0.064l-1.1-1.246l-0.216,0.864l2.08,2.971l-0.135,0.431l-2.565-2.456v-2.485l-1.943-1.727l-1.549-0.148l-0.878,0.328
		l-0.544,1.17l-0.291,2.173l-0.526,0.763l-0.527-0.122l-1.633-2.686l0.095-0.992v-0.729l-0.745-0.47l-3.188-0.521l-1.468-0.072
		l-1.286-0.739l-0.09-0.774h-0.612c0,0-0.017,1.063-0.017,1.122c0,0.058,2.772,1.364,2.772,1.364l0.791,0.103l0.014,0.594
		l-0.742,0.485l-2.368,1.715l-1.134,0.073l-0.558-0.559l-0.059-0.906l-2.409-2.925l-0.171,0.199l2.43,4.578l0.595,0.297l2.313-0.487
		l0.432,0.199l-2.227,3.183l-2.022,1.93l0.451,0.794l0.216,2.14l-1.027,1.404l-0.486,0.577v0.864l-0.738,0.163l-0.576,1.026
		l-1.565,1.612c4.024,3.875,9.488,6.265,15.503,6.265c5.752,0,11.002-2.183,14.97-5.763l-0.362-0.795l-2.335,0.094l-2.88,0.99
		v-0.523l0.594-0.576l0.072-2.952l0.99-0.684l0.888-0.012l1.674-1.907l1.057-0.08v0.396h0.36l0.883-1.252h1.229l1.045,0.628
		l-0.491,0.479l-0.583-0.119l0.039,0.789l0.307,0.185l1.1,0.082l0.235-1.988l0.575,0.027l0.506,0.867
		c0.192-0.37,0.374-0.747,0.545-1.128H276.023z M247.345-112.66l-1.097,1.605l-0.558,0.897l-0.613-0.596v-0.953l0.451-0.522
		l0.306-0.468l-0.396-0.468v-0.864l1.116,0.144l0.648-1.297h0.667L247.345-112.66z M257.211-120.707l-0.819,0.305l-0.226-0.611
		l0.475-0.67l0.66,0.13L257.211-120.707z M269.266-118.787l0.013,1.754l-0.396,0.036v-0.595l-0.378-0.135l0.072,0.838h-0.485v-1.314
		h0.234l-0.012-0.214L269.266-118.787z M263.602-116.403l-0.126-0.398h0.503v-0.18l-0.377-0.126l-2.646-3.24l0.451-0.359
		l1.856,1.671l-0.021,0.272l0.396,0.522l1.44-0.018l0.054,0.666l-0.522,0.054l-0.216-0.091l0.054,0.721l1.333-0.036l1.079,0.685
		L263.602-116.403z M267.869-116.021h-0.433v-0.24h0.433V-116.021z M267.869-118.64v0.236l-0.358,0.324l-0.202,0.514h-1.586
		l-0.629-0.832v-1.009l1.884-1.021l0.25-0.222l0.209-0.562h0.325l0.108,0.555l0.223,0.093v1.778L267.869-118.64z M268.955-116.261
		l-0.195,0.03v0.21h-0.27v0.168l-0.398,0.041v-0.209l0.256-0.24l0.176-0.205h0.432V-116.261z M269.138-116.544h0.364l-0.081,0.283
		l-0.283-0.088V-116.544z M270.029-116.054v0.222h-0.432v0.189h-0.419v-0.378h0.027l0.55-0.06l0.043-0.25l0.493-0.073l0.04,0.382
		L270.029-116.054z"/>
	<path style="fill:none;" d="M236.478-135.375l0.093,0.31l1.486,0.014l0.857-1.276l-0.04-0.581l-0.608-0.284v-0.432l1.073-0.655
		v-0.432h-0.344l-1.095,0.763c-0.165,0.226-0.33,0.453-0.486,0.686l-0.006,1.415L236.478-135.375z"/>
	<path style="fill:none;" d="M242.701-138.683l-0.377,0.324l-1.836,0.081l0.08,0.387l1.757,0.05l0.72-0.563l0.251-0.665l0.343-0.09
		l0.208,0.602l1.375-0.638l2.88,0.188l-0.243-0.594l0.188-0.729l0.811,0.199l0.269,0.422l0.162,1.215l0.721-0.216l-0.019-1.215
		l2.343-1.047l3.084-0.195l1.541,0.918h3.32l1.127,0.837l0.358,0.028l0.847-0.856l0.935,0.032l1.244,0.185l0.783,0.396l7.451,0.385
		c-4.107-4.835-10.226-7.911-17.051-7.911c-6.622,0-12.578,2.894-16.678,7.481l1.192-0.036L242.701-138.683z"/>
	<polygon points="264.448,-116.909 264.394,-117.63 264.61,-117.539 265.132,-117.593 265.078,-118.259 263.638,-118.241 
		263.242,-118.763 263.263,-119.036 261.407,-120.707 260.956,-120.348 263.602,-117.107 263.979,-116.981 263.979,-116.801 
		263.476,-116.801 263.602,-116.403 266.86,-116.261 265.781,-116.945 	"/>
	<polygon points="268.092,-120.564 267.869,-120.658 267.761,-121.212 267.436,-121.212 267.227,-120.65 266.978,-120.428 
		265.093,-119.407 265.093,-118.397 265.722,-117.566 267.308,-117.566 267.51,-118.08 267.869,-118.404 267.869,-118.64 
		268.092,-118.787 	"/>
	<polygon points="268.092,-118.203 268.092,-116.888 268.577,-116.888 268.505,-117.727 268.884,-117.591 268.884,-116.997 
		269.279,-117.033 269.266,-118.787 268.314,-118.417 268.326,-118.203 	"/>
	<polygon points="256.167,-121.014 256.392,-120.402 257.211,-120.707 257.301,-121.554 256.641,-121.684 	"/>
	<polygon points="246.553,-113.884 245.437,-114.028 245.437,-113.164 245.833,-112.696 245.528,-112.229 245.077,-111.706 
		245.077,-110.753 245.69,-110.158 246.248,-111.055 247.345,-112.66 247.869,-115.181 247.202,-115.181 	"/>
	<polygon points="269.501,-116.544 269.138,-116.544 269.138,-116.349 269.421,-116.261 	"/>
	<rect x="267.436" y="-116.261" width="0.433" height="0.24"/>
	<polygon points="268.348,-116.261 268.092,-116.021 268.092,-115.811 268.49,-115.852 268.49,-116.021 268.76,-116.021 
		268.76,-116.23 268.955,-116.261 268.955,-116.466 268.523,-116.466 	"/>
	<polygon points="269.799,-116.33 269.755,-116.081 269.205,-116.021 269.178,-116.021 269.178,-115.642 269.597,-115.642 
		269.597,-115.832 270.029,-115.832 270.029,-116.054 270.332,-116.021 270.292,-116.403 	"/>
	<path d="M237.415-137.609l-0.001,0.348c0.157-0.233,0.321-0.459,0.486-0.686L237.415-137.609z"/>
	<path d="M232.789-132.29c-0.038,0.117-0.078,0.232-0.114,0.35l0.036,0.007L232.789-132.29z"/>
	<path d="M276.996-115.649v-0.415h-0.418c-0.059,0.14-0.125,0.276-0.188,0.415H276.996z"/>
	<g>
		<path d="M276.509-116.063l-0.09-1.25l-2.321-1.054l-0.649,0.343l-0.603,0.015l0.045-0.627l-0.576-0.342l-0.819,0.819l0.549,0.675
			l1.188,0.171l0.667,0.35l0.018,0.325h-0.433l0.018,0.667l1.44-0.091l0.523-0.558l0.558-0.054v1.026h0.367
			c0.062-0.138,0.128-0.275,0.188-0.415H276.509z"/>
		<path d="M255.973-149.154c-8.702,0-16.35,4.588-20.662,11.469c-0.257,0.41-0.506,0.826-0.74,1.252
			c-0.473,0.866-0.89,1.766-1.257,2.691c-0.189,0.477-0.366,0.96-0.525,1.452l-0.079,0.357l-0.036-0.007
			c-0.206,0.668-0.381,1.35-0.529,2.041c-0.032,0.15-0.063,0.301-0.092,0.452c-0.294,1.512-0.453,3.071-0.453,4.667
			c0,1.54,0.15,3.044,0.424,4.505c0.83,4.42,2.854,8.422,5.726,11.657c0.066,0.074,0.128,0.151,0.195,0.225
			c4.461,4.904,10.891,7.987,18.027,7.987c6.443,0,12.307-2.518,16.669-6.615c1.591-1.495,2.985-3.196,4.131-5.067
			c2.266-3.699,3.574-8.045,3.574-12.691C280.347-138.22,269.413-149.154,255.973-149.154z M255.973-147.154
			c6.826,0,12.944,3.076,17.051,7.911l-7.451-0.385l-0.783-0.396l-1.244-0.185l-0.935-0.032l-0.847,0.856l-0.358-0.028l-1.127-0.837
			h-3.32l-1.541-0.918l-3.084,0.195l-2.343,1.047l0.019,1.215l-0.721,0.216l-0.162-1.215l-0.269-0.422l-0.811-0.199l-0.188,0.729
			l0.243,0.594l-2.88-0.188l-1.375,0.638l-0.208-0.602l-0.343,0.09l-0.251,0.665l-0.72,0.563l-1.757-0.05l-0.08-0.387l1.836-0.081
			l0.377-0.324l-2.214-1.026l-1.192,0.036C243.395-144.26,249.351-147.154,255.973-147.154z M245.842-131.825l-0.035-0.836
			l0.18-0.414l0.728-0.062l0.621,0.259l0.028,0.433l-0.882-0.05l-0.046,0.401l1.107,0.738v0.54l0.478,0.352v0.377l-0.244,0.234
			l-0.567-0.046l-0.109-0.17l-0.891-0.063l0.063-0.288l0.47-0.406v-0.341L245.842-131.825z M243.613-130.771h-0.972l-1.401-0.057
			l-0.419,0.057v-0.957l0.313-0.353l0.339-0.105l0.744-0.086l0.163-0.255l0.304,0.152l0.043,0.871l0.814,0.334L243.613-130.771z
			 M237.408-135.847l0.006-1.415l0.001-0.348l0.485-0.338l1.095-0.763h0.344v0.432l-1.073,0.655v0.432l0.608,0.284l0.04,0.581
			l-0.857,1.276l-1.486-0.014l-0.093-0.31L237.408-135.847z M236.203-135.239l0.044,0.309h-0.203
			C236.097-135.033,236.149-135.137,236.203-135.239z M236.296-114.14c-1.069-1.969-1.846-4.116-2.285-6.383l0.32,0.319l1.367,0.143
			l-0.18,1.819l1.521,2.682L236.296-114.14z M238.436-128.719v0.676h-0.353l-0.376-0.27l-1.918-0.487v-1.242l-1.586,0.124
			c0.146-0.621,0.318-1.231,0.515-1.831l0.066,0.014l0.688-0.621l0.128,0.485l1.692,1.142l-0.207,0.277l-0.762-0.041l0.294,0.416
			l0.468,0.104l0.55-0.23l-0.01-0.661l0.244-0.123l-0.196-0.208l-1.128-0.629l-0.297-0.836h0.938l0.298,0.297l0.809,0.696
			l0.035,0.842l0.837,0.892l0.311-1.222l0.58-0.316l0.109,1l0.566,0.621l1.71-0.028l0.504,0.379v0.891l-0.62,0.567h-1.729
			l-1.053-0.784L238.436-128.719z M276.391-115.649c-0.171,0.382-0.353,0.758-0.545,1.128l-0.506-0.867l-0.575-0.027l-0.235,1.988
			l-1.1-0.082l-0.307-0.185l-0.039-0.789l0.583,0.119l0.491-0.479l-1.045-0.628h-1.229l-0.883,1.252h-0.36v-0.396l-1.057,0.08
			l-1.674,1.907l-0.888,0.012l-0.99,0.684l-0.072,2.952l-0.594,0.576v0.523l2.88-0.99l2.335-0.094l0.362,0.795
			c-3.968,3.58-9.218,5.763-14.97,5.763c-6.015,0-11.479-2.39-15.503-6.265l1.565-1.612l0.576-1.026l0.738-0.163v-0.864l0.486-0.577
			l1.027-1.404l-0.216-2.14l-0.451-0.794l2.022-1.93l2.227-3.183l-0.432-0.199l-2.313,0.487l-0.595-0.297l-2.43-4.578l0.171-0.199
			l2.409,2.925l0.059,0.906l0.558,0.559l1.134-0.073l2.368-1.715l0.742-0.485l-0.014-0.594l-0.791-0.103
			c0,0-2.772-1.307-2.772-1.364c0-0.058,0.017-1.122,0.017-1.122h0.612l0.09,0.774l1.286,0.739l1.468,0.072l3.188,0.521l0.745,0.47
			v0.729l-0.095,0.992l1.633,2.686l0.527,0.122l0.526-0.763l0.291-2.173l0.544-1.17l0.878-0.328l1.549,0.148l1.943,1.727v2.485
			l2.565,2.456l0.135-0.431l-2.08-2.971l0.216-0.864l1.1,1.246l0.612,0.064l0.806-0.536l-0.133-0.81l-1.332-1.071l-0.054-0.973
			l0.379-0.512l0.675,0.216l-0.054,0.459l0.386,0.593l0.343-0.243l-0.188-0.702l1.889-0.676l0.829-0.692l-0.126-1.251l-1.646-1.728
			l-0.028-1.404h0.729l2.268,1.729l0.639-0.172l-0.423-0.557l-1.215-0.738l0.072-1.097l1.439,0.001l0.117-1.36l-0.548-0.723
			l0.324-0.351l0.702,0.703l0.225-0.298l-0.9-1.026l-2.241-0.27l-0.297-0.593l0.647-0.918l0.513,0.377l1.539,0.136l1.945-1.296
			l0.323,0.405l-0.433,0.675v0.675l1.783,1.457l0.568-0.296l-0.217-0.972l-1.268-1.188l1.673-0.108v-0.486l0.442-0.088
			c2.462,3.594,3.907,7.938,3.907,12.614c0,3.09-0.63,6.037-1.769,8.717L276.391-115.649z"/>
	</g>
</g>
<g>
</g>
<g>
</g>
<g>
</g>
<g>
</g>
<g>
</g>
<g>
</g>
<g>
</g>
<g>
</g>
<g>
</g>
<g>
</g>
<g>
</g>
<g>
</g>
<g>
</g>
<g>
</g>
<g>
</g>
</svg>
