<?xml version="1.0" encoding="iso-8859-1"?>
<!-- Generator: Adobe Illustrator 16.0.0, SVG Export Plug-In . SVG Version: 6.00 Build 0)  -->
<!DOCTYPE svg PUBLIC "-//W3C//DTD SVG 1.1//EN" "http://www.w3.org/Graphics/SVG/1.1/DTD/svg11.dtd">
<svg version="1.1" id="Layer_1" xmlns="http://www.w3.org/2000/svg" xmlns:xlink="http://www.w3.org/1999/xlink" x="0px" y="0px"
	 width="48.748px" height="48.758px" viewBox="0 0 48.748 48.758" style="enable-background:new 0 0 48.748 48.758;"
	 xml:space="preserve">
<g>
	<polygon points="322.474,-115.899 320.152,-116.953 319.503,-116.61 318.9,-116.595 318.945,-117.223 318.37,-117.564 
		317.55,-116.746 318.1,-116.07 319.287,-115.899 319.954,-115.549 319.972,-115.225 319.539,-115.225 319.557,-114.558 
		320.997,-114.649 321.52,-115.207 322.078,-115.261 322.078,-114.234 323.05,-114.234 323.05,-114.649 322.563,-114.649 	"/>
	<path d="M329.562-137.276l0.09-0.566l-0.585-0.091c0,0.036,0.044,0.657,0.09,0.657
		C329.201-137.276,329.562-137.276,329.562-137.276z"/>
	<path d="M346.365-135.542l-0.128,0.331h-0.622v0.319h0.148c0,0,0.009,0.068,0.022,0.158l0.38-0.032l0.237-0.147l0.063-0.298
		l0.308-0.027l0.121-0.251l-0.282-0.059L346.365-135.542z"/>
	<polygon points="344.765,-134.959 344.74,-134.646 345.191,-134.684 345.238,-134.998 344.967,-135.21 	"/>
	<path d="M335.265-149.487c-8.685,0-16.319,4.57-20.636,11.428c-2.363,3.754-3.737,8.191-3.737,12.946
		c0,0.735,0.039,1.461,0.103,2.18c0.14,1.567,0.43,3.092,0.853,4.561c0.218,0.756,0.471,1.496,0.759,2.22
		c0.571,1.438,1.274,2.809,2.096,4.099c1.53,2.4,3.466,4.516,5.713,6.249c0.612,0.472,1.247,0.915,1.903,1.328
		c0.27,0.169,0.542,0.333,0.819,0.492c3.575,2.06,7.714,3.245,12.127,3.245c13.44,0,24.374-10.934,24.374-24.374
		S348.705-149.487,335.265-149.487z M345.799-105.38l-0.539-0.454l0.054-0.396l0.17-0.485l0.036-0.496l-0.641-0.018l-0.322-0.406
		l0.531-0.513l0.072-0.387l-0.594-0.17l0.035-0.359l0.847-0.129l1.288-0.618l0.432-0.793l1.351-1.728l-0.307-1.351l0.415-0.72
		l1.242,0.037l0.836-0.661l0.271-2.607l0.927-1.179l0.162-0.756l-0.846-0.271l-0.559-0.917l-1.908-0.019l-1.512-0.576l-0.073-1.08
		l-0.504-0.882l-1.367-0.019l-0.792-1.241l-0.702-0.342l-0.036,0.378l-1.278,0.075l-0.468-0.651l-1.332-0.271l-1.099,1.269
		l-1.729-0.293l-0.126-1.948l-1.26-0.216l0.505-0.954l-0.145-0.549l-1.657,1.107l-1.042-0.127l-0.372-0.814l0.228-0.841l0.575-1.059
		l1.323-0.67l2.556,0l-0.007,0.779l0.918,0.428l-0.073-1.333l0.661-0.666l1.336-0.877l0.091-0.618l1.333-1.386l1.417-0.784
		l-0.125-0.103l0.96-0.903l0.351,0.093l0.161,0.203l0.364-0.404l0.089-0.04l-0.399-0.056l-0.405-0.134v-0.392l0.215-0.176h0.474
		l0.217,0.095l0.188,0.378l0.229-0.035v-0.032l0.066,0.022l0.664-0.103l0.095-0.325l0.377,0.095v0.352l-0.351,0.243h0l0.051,0.385
		l1.203,0.371c0,0,0.002,0.005,0.004,0.014l0.276-0.023l0.019-0.522l-0.954-0.434l-0.054-0.251l0.792-0.27l0.035-0.756l-0.827-0.504
		l-0.054-1.278l-1.135,0.558h-0.415l0.109-0.973l-1.544-0.365l-0.639,0.482v1.472l-1.148,0.364l-0.46,0.959l-0.499,0.081v-1.228
		l-1.079-0.149l-0.54-0.351l-0.217-0.796l1.931-1.13l0.945-0.288l0.094,0.634l0.527-0.027l0.04-0.319l0.551-0.079l0.01-0.112
		l-0.237-0.097l-0.054-0.338l0.677-0.057l0.409-0.426l0.022-0.031l0.005,0.002l0.125-0.128l1.422-0.18l0.629,0.534l-1.649,0.878
		l2.099,0.495l0.271-0.702h0.918l0.325-0.613l-0.648-0.162v-0.774l-2.034-0.9l-1.404,0.162l-0.793,0.414l0.055,1.009l-0.828-0.126
		l-0.128-0.558l0.793-0.72l-1.44-0.072l-0.414,0.126l-0.18,0.486l0.54,0.091l-0.108,0.54l-0.918,0.054l-0.145,0.36l-1.332,0.036
		c0,0-0.036-0.756-0.09-0.756c-0.054,0,1.043-0.018,1.043-0.018l0.793-0.774l-0.433-0.216l-0.576,0.559l-0.955-0.054l-0.575-0.792
		h-1.225l-1.278,0.954h1.171l0.107,0.342l-0.306,0.288l1.296,0.036l0.198,0.467l-1.459-0.054l-0.071-0.36l-0.917-0.198l-0.487-0.271
		l-2.16,0.018l-0.667,0.648l-0.45-0.036l-0.503-0.288l-1.495-0.45h-2.736l-1.584,1.08l-1.062,0.163l-0.487,0.377l0.756,0.113v0.302
		h-1.62l-0.63,0.449l0.81,0.685l2.215,0.018l0.306-0.325h1.854l0.666,0.594l-0.035,0.918l0.558,0.522l-0.468,0.333l0.108,1.215
		l-1.674,2.035v1.908l0.9,0.433v1.713l0.864,1.473l0.702,0.108l0.09-0.504l-0.827-1.278l-0.163-1.242h0.486l0.205,1.278l1.198,1.747
		l-0.31,0.565l0.76,1.163l1.891,0.468v-0.307l0.756,0.108l-0.072,0.54l0.594,0.109l0.918,0.25l1.296,1.477l1.656,0.125l0.162,1.35
		l-1.133,0.792l-0.054,1.207l-0.162,0.737l1.638,2.053l0.125,0.701c0,0,0.595,0.162,0.667,0.162s1.333,0.955,1.333,0.955v3.708
		l0.45,0.127l-0.307,1.709l0.756,1.008l-0.14,1.696l1,1.756l1.112,0.971c-2.849,1.317-6.017,2.058-9.355,2.058
		c-3.659,0-7.112-0.889-10.164-2.453l0.59-0.387l0.718-0.318l0.722-0.409l-0.267-0.474l-0.391,0.078l-0.011-0.881l-0.717,0.042
		l-0.091,1.379l-0.63,0.431l-0.738,0.102c-0.833-0.471-1.637-0.99-2.399-1.561l0.82-0.771l0.63-1.437l-0.261-1.064l-0.97-0.831
		l-0.073-1.585l-0.64-1.097L320.818-114l-0.235,1.988l-1.1-0.082l-0.307-0.185l-0.039-0.789l0.583,0.119l0.491-0.479l-1.045-0.628
		h-1.229l-0.883,1.252h-0.36v-0.396l-0.337,0.025c-0.247-0.389-0.484-0.784-0.707-1.188c-0.049-0.089-0.097-0.18-0.145-0.271
		c-0.042-0.08-0.083-0.162-0.124-0.243l0.093,0.029l0.081-0.283h-0.304c-0.077-0.153-0.153-0.306-0.226-0.46l0.308-0.028
		l-0.013-1.754l-0.907,0.353c-0.093-0.238-0.182-0.479-0.267-0.721c-0.235-0.672-0.44-1.358-0.611-2.058
		c-0.368-1.504-0.581-3.067-0.627-4.672l0.15-0.054l0.829-0.692l-0.126-1.251l-0.763-0.8c0.064-0.668,0.161-1.327,0.283-1.977
		l1.803,1.374l0.639-0.172L315.3-128.6l-1.215-0.738l0.072-1.097l1.439,0.001l0.117-1.36l-0.548-0.723l0.324-0.351l0.702,0.703
		l0.225-0.298l-0.9-1.026l-0.946-0.114c0.167-0.407,0.343-0.81,0.534-1.205l0.574,0.051l1.945-1.296l0.323,0.405l-0.433,0.675v0.675
		l1.783,1.457l0.568-0.296l-0.217-0.972l-1.268-1.188l1.673-0.108v-0.486l0.811-0.162l-0.621-0.428l0.026-0.329l1.702,0.275
		l0.324-0.275l-2.295-0.972l-3.048-0.157c4.051-5.768,10.748-9.548,18.315-9.548c12.337,0,22.374,10.037,22.374,22.374
		C357.639-116.582,352.839-109.154,345.799-105.38z"/>
</g>
<g>
</g>
<g>
</g>
<g>
</g>
<g>
</g>
<g>
</g>
<g>
</g>
<g>
</g>
<g>
</g>
<g>
</g>
<g>
</g>
<g>
</g>
<g>
</g>
<g>
</g>
<g>
</g>
<g>
</g>
</svg>
