<?xml version="1.0" encoding="iso-8859-1"?>
<!-- Generator: Adobe Illustrator 16.0.0, SVG Export Plug-In . SVG Version: 6.00 Build 0)  -->
<!DOCTYPE svg PUBLIC "-//W3C//DTD SVG 1.1//EN" "http://www.w3.org/Graphics/SVG/1.1/DTD/svg11.dtd">
<svg version="1.1" id="Layer_1" xmlns="http://www.w3.org/2000/svg" xmlns:xlink="http://www.w3.org/1999/xlink" x="0px" y="0px"
	 width="48.748px" height="48.758px" viewBox="0 0 48.748 48.758" style="enable-background:new 0 0 48.748 48.758;"
	 xml:space="preserve">
<g>
	<path d="M397.473-128.405l0.62-0.567v-0.891l-0.504-0.379l-1.71,0.028l-0.566-0.621l-0.109-1l-0.58,0.316l-0.311,1.222
		l-0.837-0.892l-0.035-0.842l-0.809-0.696l-0.298-0.297h-0.938l0.297,0.836l1.128,0.629l0.196,0.208l-0.244,0.123l0.01,0.661
		l-0.55,0.23l-0.468-0.104l-0.294-0.416l0.762,0.041l0.207-0.277l-1.692-1.142l-0.128-0.485l-0.688,0.621l-0.066-0.014
		c-0.197,0.6-0.369,1.21-0.515,1.831l1.586-0.124v1.242l1.918,0.487l0.376,0.27h0.353v-0.676l1.107-0.108l1.053,0.784H397.473z"/>
	<path d="M433.496-125.142c0-4.676-1.444-9.02-3.907-12.614l-0.442,0.088v0.486l-1.673,0.108l1.268,1.188l0.217,0.972l-0.568,0.296
		l-1.783-1.457v-0.675l0.433-0.675l-0.323-0.405l-1.945,1.296l-1.539-0.136l-0.513-0.377l-0.647,0.918l0.297,0.593l2.241,0.27
		l0.9,1.026l-0.225,0.298l-0.702-0.703l-0.324,0.351l0.548,0.723l-0.117,1.36l-1.439-0.001l-0.072,1.097l1.215,0.738l0.423,0.557
		l-0.639,0.172l-2.268-1.729h-0.729l0.028,1.404l1.646,1.728l0.126,1.251l-0.829,0.692l-1.889,0.676l0.188,0.702l-0.343,0.243
		l-0.386-0.593l0.054-0.459l-0.675-0.216l-0.379,0.512l0.054,0.973l1.332,1.071l0.133,0.81l-0.806,0.536l-0.612-0.064l-1.1-1.246
		l-0.216,0.864l2.08,2.971l-0.135,0.431l-2.565-2.456v-2.485l-1.943-1.727l-1.549-0.148l-0.878,0.328l-0.544,1.17l-0.291,2.173
		l-0.526,0.763l-0.527-0.122l-1.633-2.686l0.095-0.992v-0.729l-0.745-0.47l-3.188-0.521l-1.468-0.072l-1.286-0.739l-0.09-0.774
		h-0.612c0,0-0.017,1.063-0.017,1.122c0,0.058,2.772,1.364,2.772,1.364l0.791,0.103l0.014,0.594l-0.742,0.485l-2.368,1.715
		l-1.134,0.073l-0.558-0.559l-0.059-0.906l-2.409-2.925l-0.171,0.199l2.43,4.578l0.595,0.297l2.313-0.487l0.432,0.199l-2.227,3.183
		l-2.022,1.93l0.451,0.794l0.216,2.14l-1.027,1.404l-0.486,0.577v0.864l-0.738,0.163l-0.576,1.026l-1.565,1.612
		c4.024,3.875,9.488,6.265,15.503,6.265c5.752,0,11.002-2.183,14.97-5.763l-0.362-0.795l-2.335,0.094l-2.88,0.99v-0.523l0.594-0.576
		l0.072-2.952l0.99-0.684l0.888-0.012l1.674-1.907l1.057-0.08v0.396h0.36l0.883-1.252h1.229l1.045,0.628l-0.491,0.479l-0.583-0.119
		l0.039,0.789l0.307,0.185l1.1,0.082l0.235-1.988l0.575,0.027l0.506,0.867c0.192-0.37,0.374-0.747,0.545-1.128h0.605v-0.415h-0.418
		C432.866-119.105,433.496-122.052,433.496-125.142z"/>
	<path d="M397.851-139.044l-0.377,0.324l-1.836,0.081l0.08,0.387l1.757,0.05l0.72-0.563l0.251-0.665l0.343-0.09l0.208,0.602
		l1.375-0.638l2.88,0.188l-0.243-0.594l0.188-0.729l0.811,0.199l0.269,0.422l0.162,1.215l0.721-0.216l-0.019-1.215l2.343-1.047
		l3.084-0.195l1.541,0.918h3.32l1.127,0.837l0.358,0.028l0.847-0.856l0.935,0.032l1.244,0.185l0.783,0.396l7.451,0.385
		c-4.107-4.835-10.226-7.911-17.051-7.911c-6.622,0-12.578,2.894-16.678,7.481l1.192-0.036L397.851-139.044z"/>
	<path d="M391.353-135.601c-0.054,0.102-0.106,0.206-0.159,0.309h0.203L391.353-135.601z"/>
	<polygon points="401.423,-130.782 401.36,-130.494 402.251,-130.431 402.36,-130.26 402.927,-130.214 403.171,-130.449 
		403.171,-130.826 402.693,-131.178 402.693,-131.717 401.586,-132.456 401.632,-132.857 402.514,-132.807 402.486,-133.24 
		401.865,-133.499 401.137,-133.437 400.957,-133.023 400.992,-132.187 401.893,-131.529 401.893,-131.188 	"/>
	<polygon points="397.833,-132.737 397.529,-132.889 397.367,-132.634 396.623,-132.548 396.284,-132.442 395.97,-132.09 
		395.97,-131.133 396.39,-131.19 397.791,-131.133 398.762,-131.133 398.69,-131.531 397.876,-131.866 	"/>
	<polygon points="393.206,-135.413 394.063,-136.688 394.023,-137.269 393.415,-137.553 393.415,-137.985 394.488,-138.64 
		394.488,-139.072 394.144,-139.072 393.049,-138.309 392.564,-137.971 392.563,-137.624 392.557,-136.208 391.627,-135.736 
		391.72,-135.427 	"/>
	<path d="M390.847-120.422l-1.367-0.143l-0.32-0.319c0.439,2.267,1.216,4.415,2.285,6.383l0.743-1.419l-1.521-2.682L390.847-120.422
		z"/>
</g>
<g>
</g>
<g>
</g>
<g>
</g>
<g>
</g>
<g>
</g>
<g>
</g>
<g>
</g>
<g>
</g>
<g>
</g>
<g>
</g>
<g>
</g>
<g>
</g>
<g>
</g>
<g>
</g>
<g>
</g>
</svg>
