<?xml version="1.0" encoding="iso-8859-1"?>
<!-- Generator: Adobe Illustrator 16.0.0, SVG Export Plug-In . SVG Version: 6.00 Build 0)  -->
<!DOCTYPE svg PUBLIC "-//W3C//DTD SVG 1.1//EN" "http://www.w3.org/Graphics/SVG/1.1/DTD/svg11.dtd">
<svg version="1.1" id="Layer_1" xmlns="http://www.w3.org/2000/svg" xmlns:xlink="http://www.w3.org/1999/xlink" x="0px" y="0px"
	 width="48.748px" height="48.758px" viewBox="0 0 48.748 48.758" style="enable-background:new 0 0 48.748 48.758;"
	 xml:space="preserve">
<path d="M484.129-147.441c-7.664,0-14.447,3.83-18.55,9.671l3.087,0.159l2.325,0.984l-0.328,0.278l-1.724-0.278l-0.026,0.333
	l0.629,0.433l-0.821,0.164v0.493l-1.694,0.11l1.284,1.203l0.22,0.984l-0.575,0.3l-1.806-1.476v-0.684l0.438-0.684l-0.328-0.41
	l-1.97,1.313l-0.582-0.052c-0.192,0.4-0.37,0.808-0.54,1.221l0.958,0.116l0.912,1.04l-0.228,0.302l-0.712-0.712l-0.327,0.355
	l0.555,0.732l-0.118,1.377l-1.458-0.001l-0.073,1.111l1.231,0.748l0.427,0.564l-0.646,0.174l-1.826-1.392
	c-0.122,0.658-0.222,1.325-0.286,2.002l0.773,0.811l0.126,1.268l-0.839,0.701l-0.152,0.055c0.048,1.625,0.264,3.209,0.636,4.732
	c0.174,0.708,0.381,1.403,0.619,2.084c0.086,0.245,0.176,0.488,0.271,0.73l0.918-0.357l0.014,1.776l-0.313,0.029
	c0.075,0.157,0.152,0.312,0.229,0.466h0.309l-0.082,0.287l-0.094-0.03c0.042,0.082,0.082,0.165,0.125,0.246
	c0.049,0.092,0.097,0.184,0.147,0.274c0.225,0.41,0.466,0.81,0.716,1.204l0.341-0.025v0.4h0.365l0.895-1.269h1.244l1.058,0.637
	l-0.497,0.485l-0.59-0.12l0.04,0.799l0.311,0.188l1.113,0.083l0.237-2.014l0.584,0.027l0.647,1.111l0.074,1.605l0.982,0.841
	l0.264,1.078l-0.638,1.455l-0.83,0.781c0.771,0.578,1.587,1.103,2.43,1.581l0.748-0.104l0.638-0.436l0.092-1.397l0.726-0.043
	l0.013,0.893l0.396-0.079l0.269,0.48l-0.73,0.415l-0.728,0.322l-0.597,0.392c3.092,1.584,6.589,2.484,10.294,2.484
	c3.382,0,6.59-0.75,9.476-2.084l-1.126-0.983l-1.013-1.778l0.142-1.718l-0.767-1.021l0.312-1.731l-0.456-0.128v-3.756
	c0,0-1.276-0.967-1.349-0.967c-0.073,0-0.676-0.164-0.676-0.164l-0.128-0.71l-1.658-2.079l0.163-0.747l0.056-1.222l1.146-0.803
	l-0.163-1.368l-1.676-0.127l-1.313-1.496l-0.931-0.253l-0.601-0.111l0.073-0.547l-0.767-0.109v0.311l-1.915-0.474l-0.771-1.178
	l0.314-0.572l-1.214-1.769L479.082-131h-0.493l0.165,1.257l0.837,1.295l-0.091,0.511l-0.71-0.109l-0.875-1.492v-1.735l-0.911-0.438
	v-1.932l1.695-2.061l-0.11-1.231l0.474-0.337l-0.564-0.529l0.035-0.93l-0.673-0.602h-1.879l-0.31,0.329l-2.243-0.018l-0.82-0.694
	l0.639-0.455h1.64v-0.306l-0.766-0.114l0.494-0.382l1.075-0.165l1.604-1.093h2.771l1.515,0.456l0.51,0.292l0.455,0.036l0.676-0.656
	l2.188-0.019l0.492,0.274l0.93,0.2l0.071,0.364l1.478,0.055l-0.2-0.474l-1.313-0.037l0.311-0.292l-0.109-0.346h-1.187l1.296-0.966
	h1.24l0.581,0.802l0.968,0.055l0.583-0.566l0.438,0.219l-0.803,0.784c0,0-1.111,0.019-1.058,0.019c0.056,0,0.091,0.766,0.091,0.766
	l1.349-0.037l0.146-0.365l0.93-0.054l0.109-0.547l-0.546-0.092l0.182-0.492l0.42-0.127l1.457,0.073l-0.803,0.729l0.13,0.565
	l0.839,0.127l-0.056-1.022l0.803-0.418l1.423-0.165l2.06,0.912v0.784l0.657,0.164l-0.328,0.621h-0.93l-0.275,0.71l-2.127-0.501
	l1.671-0.89l-0.637-0.541l-1.441,0.182l-0.126,0.13l-0.004-0.002l-0.024,0.031l-0.413,0.431l-0.687,0.057l0.056,0.342l0.239,0.099
	l-0.01,0.113l-0.559,0.08l-0.039,0.323l-0.534,0.028l-0.096-0.643l-0.957,0.292l-1.956,1.145l0.22,0.806l0.547,0.356l1.093,0.151
	v1.244l0.505-0.082l0.467-0.972l1.163-0.368v-1.491l0.646-0.488l1.563,0.369l-0.109,0.985h0.419l1.149-0.565l0.055,1.294l0.838,0.51
	l-0.036,0.766l-0.802,0.273l0.055,0.254l0.966,0.439l-0.019,0.529l-0.28,0.023c-0.001-0.009-0.004-0.014-0.004-0.014l-1.218-0.376
	l-0.052-0.39h-0.001l0.355-0.246v-0.356l-0.383-0.096l-0.096,0.329l-0.672,0.104l-0.066-0.022v0.033l-0.232,0.036l-0.19-0.383
	l-0.22-0.096h-0.479l-0.218,0.178v0.397l0.411,0.136l0.403,0.057l-0.09,0.04l-0.369,0.409l-0.163-0.205l-0.355-0.094l-0.973,0.915
	l0.127,0.104l-1.435,0.794l-1.35,1.404l-0.092,0.625l-1.354,0.889l-0.668,0.674l0.073,1.35l-0.93-0.433l0.007-0.79l-2.589,0
	l-1.339,0.679l-0.584,1.072l-0.229,0.852l0.376,0.825l1.057,0.128l1.678-1.122l0.147,0.557l-0.512,0.966l1.275,0.218l0.129,1.973
	l1.751,0.297l1.111-1.285l1.35,0.274l0.475,0.659l1.294-0.076l0.037-0.383l0.71,0.347l0.804,1.257l1.385,0.019l0.51,0.894
	l0.073,1.094l1.532,0.583l1.932,0.019l0.566,0.929l0.855,0.274l-0.164,0.766l-0.938,1.194l-0.274,2.641l-0.847,0.669l-1.259-0.038
	l-0.42,0.729l0.311,1.369l-1.368,1.75l-0.437,0.803l-1.304,0.626l-0.858,0.13l-0.035,0.364l0.602,0.172l-0.073,0.392l-0.537,0.52
	l0.326,0.412l0.649,0.018l-0.038,0.502l-0.172,0.492l-0.056,0.401l0.546,0.46c7.132-3.822,11.993-11.345,11.993-19.985
	C506.79-137.275,496.624-147.441,484.129-147.441z M471.758-113.762h-0.985v-1.04l-0.564,0.055l-0.529,0.565l-1.46,0.092
	l-0.018-0.675h0.438l-0.019-0.329l-0.676-0.354l-1.202-0.173l-0.557-0.684l0.83-0.83l0.583,0.346l-0.046,0.636l0.611-0.016
	l0.657-0.347l2.352,1.067l0.091,1.267h0.493V-113.762z M478.443-137.673l-0.091,0.574c0,0-0.366,0-0.411,0
	c-0.046,0-0.091-0.63-0.091-0.666L478.443-137.673z M494.182-134.474l-0.457,0.038l0.026-0.317l0.203-0.254l0.275,0.215
	L494.182-134.474z M495.784-135.035l-0.312,0.027l-0.064,0.302l-0.239,0.149l-0.386,0.032c-0.013-0.09-0.021-0.16-0.021-0.16h-0.15
	v-0.323h0.63l0.13-0.335l0.25-0.005l0.286,0.06L495.784-135.035z"/>
<g>
</g>
<g>
</g>
<g>
</g>
<g>
</g>
<g>
</g>
<g>
</g>
<g>
</g>
<g>
</g>
<g>
</g>
<g>
</g>
<g>
</g>
<g>
</g>
<g>
</g>
<g>
</g>
<g>
</g>
</svg>
