<?xml version="1.0" encoding="iso-8859-1"?>
<!-- Generator: Adobe Illustrator 16.0.0, SVG Export Plug-In . SVG Version: 6.00 Build 0)  -->
<!DOCTYPE svg PUBLIC "-//W3C//DTD SVG 1.1//EN" "http://www.w3.org/Graphics/SVG/1.1/DTD/svg11.dtd">
<svg version="1.1" id="Layer_1" xmlns="http://www.w3.org/2000/svg" xmlns:xlink="http://www.w3.org/1999/xlink" x="0px" y="0px"
	 width="49.312px" height="47.213px" viewBox="0 0 49.312 47.213" style="enable-background:new 0 0 49.312 47.213;"
	 xml:space="preserve">
<g>
	<path d="M342.703-134.192c-0.371-0.524-0.759-1.035-1.17-1.527c-4.475-5.368-11.207-8.792-18.726-8.792c-0.013,0-0.024,0-0.036,0
		c-0.008,0-0.015,0-0.021,0c-0.028,0-0.056,0.003-0.084,0.003c-7.461,0.043-14.136,3.457-18.582,8.79
		c-0.41,0.492-0.799,1.003-1.17,1.527c-2.816,3.975-4.479,8.821-4.479,14.053c0,5.232,1.663,10.08,4.479,14.055
		c0.371,0.523,0.76,1.035,1.17,1.527c4.447,5.332,11.121,8.746,18.582,8.789c0.028,0,0.056,0.004,0.084,0.004
		c0.007,0,0.014-0.002,0.021-0.002c0.012,0,0.023,0.002,0.036,0.002c7.519,0,14.251-3.424,18.726-8.792
		c0.41-0.492,0.799-1.004,1.17-1.528c2.816-3.975,4.479-8.822,4.479-14.055C347.181-125.369,345.519-130.217,342.703-134.192z
		 M345.175-120.344h-8.072c-0.018-3.562-0.493-6.938-1.322-9.981c1.979-0.736,3.767-1.635,5.309-2.665
		C343.619-129.402,345.132-125.049,345.175-120.344z M339.915-134.519c-1.36,0.892-2.942,1.676-4.702,2.325
		c-1.295-3.844-3.184-7.04-5.459-9.209C333.757-140.092,337.259-137.672,339.915-134.519z M323.807-142.425
		c4.06,0.627,7.555,4.831,9.542,10.85c-2.866,0.849-6.104,1.363-9.542,1.446V-142.425z M321.807-142.44v12.312
		c-3.479-0.084-6.756-0.609-9.648-1.477C314.167-137.664,317.706-141.877,321.807-142.44z M315.683-141.342
		c-2.241,2.16-4.102,5.319-5.385,9.111c-1.719-0.643-3.266-1.415-4.6-2.289C308.314-137.626,311.753-140.018,315.683-141.342z
		 M304.525-132.991c1.515,1.013,3.267,1.897,5.204,2.626c-0.836,3.055-1.315,6.443-1.333,10.021h-7.957
		C300.482-125.049,301.996-129.403,304.525-132.991z M300.512-118.344h7.923c0.129,2.994,0.583,5.836,1.293,8.434
		c-1.938,0.729-3.689,1.614-5.203,2.626C302.283-110.465,300.839-114.246,300.512-118.344z M305.705-105.76
		c1.333-0.872,2.877-1.643,4.592-2.285c1.283,3.793,3.146,6.949,5.387,9.111C311.753-100.258,308.32-102.654,305.705-105.76z
		 M321.807-97.836c-4.103-0.563-7.646-4.772-9.653-10.832c2.894-0.869,6.172-1.395,9.653-1.479V-97.836z M321.807-112.146
		c-3.671,0.088-7.133,0.656-10.214,1.602c-0.631-2.397-1.035-5.026-1.157-7.799l-0.04-2c0.017-3.359,0.455-6.531,1.207-9.384
		c3.078,0.942,6.537,1.511,10.204,1.599h2c3.625-0.087,7.046-0.643,10.097-1.566c0.747,2.844,1.182,6.006,1.199,9.352l-0.041,2
		c-0.121,2.76-0.523,5.377-1.149,7.766c-3.054-0.926-6.478-1.482-10.105-1.568H321.807z M323.807-97.852v-12.296
		c3.439,0.084,6.679,0.599,9.547,1.448C331.367-102.68,327.867-98.479,323.807-97.852z M329.753-98.873
		c2.275-2.17,4.168-5.363,5.462-9.208c1.757,0.649,3.337,1.433,4.695,2.321C337.255-102.605,333.757-100.186,329.753-98.873z
		 M341.091-107.283c-1.542-1.031-3.33-1.931-5.312-2.668c0.704-2.587,1.154-5.414,1.282-8.393h8.041
		C344.776-114.246,343.334-110.463,341.091-107.283z"/>
	<path d="M315.914-118.123c0.348-0.212,0.712-0.418,1.094-0.616c0.383-0.197,0.732-0.419,1.052-0.663
		c0.318-0.244,0.58-0.529,0.785-0.854s0.308-0.726,0.308-1.2c0-0.389-0.072-0.73-0.218-1.024c-0.145-0.293-0.35-0.536-0.615-0.727
		c-0.266-0.191-0.584-0.335-0.956-0.431c-0.371-0.096-0.78-0.144-1.226-0.144c-0.496,0-0.943,0.071-1.343,0.213
		c-0.4,0.142-0.738,0.349-1.015,0.621c-0.275,0.272-0.481,0.606-0.615,1.003c-0.135,0.396-0.188,0.85-0.159,1.359h1.996
		c-0.015-0.453,0.062-0.819,0.228-1.099c0.166-0.28,0.462-0.42,0.887-0.42c0.248,0,0.458,0.065,0.632,0.196
		c0.173,0.131,0.26,0.366,0.26,0.706c0,0.135-0.033,0.255-0.101,0.361s-0.152,0.201-0.255,0.286s-0.212,0.163-0.329,0.234
		c-0.117,0.07-0.222,0.134-0.313,0.19c-0.233,0.142-0.474,0.285-0.722,0.431c-0.248,0.145-0.486,0.297-0.717,0.456
		c-0.229,0.159-0.445,0.331-0.647,0.515c-0.201,0.185-0.381,0.383-0.536,0.595c-0.184,0.248-0.324,0.524-0.419,0.828
		c-0.096,0.305-0.133,0.637-0.111,0.998h6.401v-1.805h-3.345V-118.123z"/>
	<path d="M325.384-116.308v-1.465h0.998v-1.805h-0.998v-4.12h-2.113l-3.376,3.929v1.996h3.28v1.465H325.384z M321.371-119.577
		l1.805-2.07v2.07H321.371z"/>
	<path d="M329.344-119.217c0-0.219,0.026-0.397,0.079-0.536c0.054-0.138,0.12-0.246,0.202-0.323
		c0.081-0.078,0.171-0.131,0.271-0.159c0.099-0.028,0.194-0.043,0.286-0.043c0.156,0,0.278,0.026,0.367,0.08
		c0.088,0.053,0.157,0.127,0.207,0.223c0.049,0.096,0.081,0.211,0.095,0.345c0.015,0.135,0.021,0.28,0.021,0.436v2.888h2.103v-3.779
		c0-0.318-0.052-0.595-0.154-0.828s-0.242-0.427-0.419-0.579c-0.178-0.151-0.379-0.267-0.605-0.345s-0.464-0.117-0.711-0.117
		c-0.446,0-0.801,0.069-1.063,0.207c-0.262,0.139-0.481,0.313-0.658,0.525h-0.021v-2.664h-2.103v7.58h2.103V-119.217z"/>
</g>
<g>
</g>
<g>
</g>
<g>
</g>
<g>
</g>
<g>
</g>
<g>
</g>
<g>
</g>
<g>
</g>
<g>
</g>
<g>
</g>
<g>
</g>
<g>
</g>
<g>
</g>
<g>
</g>
<g>
</g>
</svg>
