<?xml version="1.0" encoding="iso-8859-1"?>
<!-- Generator: Adobe Illustrator 16.0.0, SVG Export Plug-In . SVG Version: 6.00 Build 0)  -->
<!DOCTYPE svg PUBLIC "-//W3C//DTD SVG 1.1//EN" "http://www.w3.org/Graphics/SVG/1.1/DTD/svg11.dtd">
<svg version="1.1" id="Layer_1" xmlns="http://www.w3.org/2000/svg" xmlns:xlink="http://www.w3.org/1999/xlink" x="0px" y="0px"
	 width="49.312px" height="47.213px" viewBox="0 0 49.312 47.213" style="enable-background:new 0 0 49.312 47.213;"
	 xml:space="preserve">
<g>
	<path d="M322.721-73.294c6.39,0,12.095,2.969,15.825,7.592l-2.449,1.73l7.704,2.63l-0.8-7.505l-2.158,1.523
		c-4.243-5.344-10.785-8.781-18.122-8.781c-3.613,0-7.035,0.834-10.085,2.316l0.898,2.696
		C316.296-72.497,319.417-73.294,322.721-73.294z"/>
	<path d="M342.898-47.74c-0.707,3.017-2.108,5.917-4.238,8.442c-4.121,4.885-10.068,7.332-16.008,7.203l0.258-2.988l-6.978,4.193
		l6.252,4.227l0.228-2.631c6.818,0.201,13.666-2.584,18.396-8.191c2.33-2.763,3.898-5.915,4.732-9.203L342.898-47.74z"/>
	<path d="M303.031-44.685c-2.427-5.911-1.848-12.315,1.014-17.522l2.529,1.61l-0.493-8.127l-6.638,3.59l2.229,1.418
		c-3.331,5.953-4.027,13.313-1.24,20.099c1.371,3.345,3.442,6.192,5.972,8.451l2.153-1.856
		C306.208-39.043,304.285-41.628,303.031-44.685z"/>
	<path d="M322.724-37.51l0.363-0.031c0.018,0,0.033,0.002,0.05,0.002c4.957,0,9.358-2.415,12.091-6.129
		c0.478-0.649,0.902-1.339,1.272-2.062c0.829-1.62,1.374-3.409,1.563-5.302c0.05-0.491,0.075-0.989,0.075-1.493
		c0-0.076-0.005-0.152-0.006-0.229c-0.021-1.376-0.228-2.708-0.599-3.972c-0.137-0.467-0.295-0.923-0.475-1.37
		c-0.365-0.906-0.815-1.77-1.344-2.579c-0.239-0.367-0.494-0.723-0.763-1.066c-0.739-0.943-1.588-1.795-2.528-2.538
		c-0.322-0.254-0.653-0.497-0.995-0.725c-2.377-1.582-5.228-2.506-8.292-2.506c-2.712,0-5.255,0.727-7.453,1.989
		c-0.361,0.208-0.713,0.429-1.055,0.664c-0.965,0.667-1.85,1.443-2.634,2.313c-0.303,0.335-0.591,0.684-0.862,1.045
		c-0.752,1.001-1.379,2.099-1.863,3.27c-0.186,0.448-0.349,0.906-0.49,1.375c-0.382,1.257-0.598,2.583-0.632,3.954
		c-0.003,0.126-0.01,0.25-0.01,0.376c0,0.458,0.024,0.91,0.064,1.357c0.151,1.671,0.578,3.261,1.233,4.729
		c0.341,0.762,0.741,1.491,1.199,2.18c2.616,3.937,7.044,6.566,12.085,6.705C322.722-37.529,322.724-37.513,322.724-37.51z
		 M323.487-46.098c1.619-0.017,3.184-0.18,4.682-0.459c-0.354,1.498-0.812,2.849-1.271,3.991c-1.059,0.126-2.145,0.199-3.255,0.204
		C323.585-43.48,323.53-44.745,323.487-46.098z M325.127-38.929c-0.417,0.061-0.84,0.102-1.268,0.124
		c-0.042-0.592-0.095-1.384-0.149-2.327c0.893-0.006,1.77-0.054,2.631-0.137C325.813-40.115,325.349-39.3,325.127-38.929z
		 M327.321-39.428c-0.194,0.063-0.392,0.115-0.589,0.168c0.301-0.561,0.668-1.3,1.048-2.184c0.555-0.082,1.104-0.173,1.641-0.285
		C328.482-40.56,327.666-39.753,327.321-39.428z M328.309-42.771c0.446-1.193,0.876-2.561,1.195-4.072
		c1.217-0.295,2.373-0.673,3.462-1.124c-0.607,1.783-1.505,3.386-2.415,4.716C329.826-43.06,329.075-42.902,328.309-42.771z
		 M330.248-40.769c0.354-0.431,0.727-0.912,1.102-1.439c0.451-0.129,0.898-0.266,1.333-0.415
		C331.947-41.915,331.125-41.3,330.248-40.769z M334.392-44.612c-0.637,0.291-1.307,0.552-1.994,0.791
		c0.84-1.413,1.599-3.045,2.067-4.836c0.774-0.395,1.517-0.816,2.195-1.286C336.288-47.988,335.5-46.181,334.392-44.612z
		 M336.908-52.524c0,0.31-0.014,0.615-0.034,0.92c-0.636,0.51-1.335,0.982-2.088,1.415c0.118-0.766,0.181-1.552,0.168-2.359
		c-0.01-0.589-0.064-1.166-0.149-1.733c0.63-0.431,1.213-0.893,1.736-1.387C336.778-54.658,336.908-53.606,336.908-52.524z
		 M336.158-56.993c-0.474,0.502-1.015,0.973-1.608,1.411c-0.248-1.008-0.596-1.973-1.008-2.886c0.495-0.376,0.952-0.778,1.354-1.207
		C335.409-58.836,335.833-57.937,336.158-56.993z M331.679-63.302c0.947,0.751,1.795,1.621,2.516,2.591
		c-0.35,0.4-0.753,0.777-1.198,1.132c-0.603-1.139-1.286-2.178-1.973-3.093C331.258-62.873,331.479-63.082,331.679-63.302z
		 M331.969-58.858c-0.792,0.492-1.681,0.915-2.648,1.254c-0.303-1.226-0.674-2.385-1.072-3.444c0.64-0.247,1.228-0.548,1.766-0.888
		C330.696-61.026,331.378-59.989,331.969-58.858z M330.694-64.016c-0.128,0.136-0.275,0.261-0.42,0.388
		c-0.374-0.455-0.737-0.869-1.079-1.238C329.712-64.611,330.215-64.331,330.694-64.016z M326.392-65.885
		c0.328,0.284,1.531,1.365,2.871,2.993c-0.445,0.271-0.934,0.511-1.461,0.712c-0.668-1.604-1.352-2.915-1.856-3.805
		C326.095-65.953,326.244-65.921,326.392-65.885z M323.914-66.251c0.155,0.009,0.31,0.019,0.463,0.032
		c0.414,0.676,1.334,2.27,2.231,4.407c-0.911,0.229-1.896,0.359-2.93,0.359c-0.002,0-0.003,0-0.003,0
		C323.769-63.688,323.863-65.39,323.914-66.251z M323.624-60.224c0.019,0,0.037,0.002,0.055,0.002c1.195,0,2.334-0.162,3.386-0.445
		c0.398,1.053,0.771,2.207,1.07,3.424c-1.38,0.362-2.881,0.566-4.456,0.566c-0.058,0-0.115-0.004-0.174-0.005
		C323.541-57.941,323.582-59.132,323.624-60.224z M323.307-55.522c4.751,0.012,8.313-1.703,9.189-2.236
		c0.406,0.923,0.896,2.676,0.951,2.908s0.215,0.818,0.206,1.281s-0.041,3.123-0.266,4.107c-1.01,0.473-5.349,2.131-9.936,2.139
		s-9.145-1.561-10.251-2.066c-0.235-1.006-0.367-4.123-0.094-5.375c0.117-0.406,0.65-2.322,1.149-3.386
		C315.071-57.59,318.121-55.886,323.307-55.522z M322.41-42.39c-0.961-0.035-1.903-0.118-2.822-0.246
		c-0.445-1.119-0.889-2.434-1.234-3.888c1.255,0.229,2.561,0.372,3.902,0.418C322.298-44.764,322.353-43.506,322.41-42.39z
		 M318.168-42.869c-0.772-0.148-1.524-0.328-2.254-0.538c-0.858-1.276-1.695-2.792-2.276-4.474c1.064,0.431,2.193,0.79,3.378,1.073
		C317.326-45.351,317.738-44.03,318.168-42.869z M314.813-59.241c0.619-1.125,1.32-2.148,2.011-3.039
		c0.47,0.345,0.993,0.652,1.56,0.921c-0.409,1.06-0.798,2.223-1.117,3.46C316.361-58.274,315.538-58.727,314.813-59.241z
		 M318.436-57.469c0.313-1.222,0.696-2.374,1.102-3.424c0.885,0.302,1.845,0.512,2.857,0.608c-0.043,1.095-0.084,2.286-0.12,3.548
		C320.915-56.841,319.622-57.091,318.436-57.469z M322.681-66.265c-0.052,0.882-0.144,2.563-0.236,4.751
		c-0.869-0.086-1.687-0.268-2.444-0.517c0.877-2.051,1.76-3.572,2.152-4.213C322.328-66.256,322.504-66.259,322.681-66.265z
		 M320.26-65.973c0.112-0.024,0.226-0.046,0.339-0.067c-0.475,0.833-1.116,2.051-1.755,3.546c-0.453-0.217-0.882-0.454-1.26-0.726
		c1.44-1.694,2.656-2.716,2.686-2.74L320.26-65.973z M317.608-65.111c-0.301,0.317-0.622,0.673-0.955,1.063
		c-0.124-0.132-0.255-0.263-0.361-0.402C316.715-64.695,317.157-64.912,317.608-65.111z M315.263-63.799
		c0.183,0.244,0.388,0.479,0.61,0.703c-0.699,0.896-1.41,1.925-2.048,3.06c-0.461-0.426-0.866-0.879-1.197-1.361
		C313.399-62.307,314.285-63.114,315.263-63.799z M311.852-60.39c0.397,0.52,0.867,1.008,1.396,1.464
		c-0.521,1.075-0.958,2.228-1.247,3.441c-0.691-0.497-1.312-1.038-1.845-1.619C310.574-58.281,311.147-59.384,311.852-60.39z
		 M309.394-51.733c-0.016-0.262-0.025-0.525-0.025-0.791c0-1.122,0.139-2.213,0.394-3.258c0.593,0.573,1.262,1.105,1.993,1.593
		c-0.076,0.538-0.125,1.085-0.135,1.641c-0.014,0.84,0.056,1.656,0.184,2.45C310.925-50.592,310.115-51.138,309.394-51.733z
		 M311.521-45.155c-0.938-1.471-1.604-3.129-1.927-4.907c0.779,0.553,1.632,1.056,2.542,1.507c0.448,1.67,1.147,3.201,1.926,4.541
		C313.169-44.351,312.318-44.731,311.521-45.155z M313.163-43.058c0.627,0.253,1.28,0.478,1.947,0.685
		c0.519,0.743,1.038,1.4,1.511,1.957C315.333-41.112,314.165-42.005,313.163-43.058z M319.406-39.287
		c-0.162-0.146-1.171-1.074-2.352-2.562c0.538,0.123,1.088,0.229,1.645,0.321c0.413,0.97,0.812,1.764,1.129,2.353
		C319.687-39.211,319.545-39.247,319.406-39.287z M321.416-38.881c-0.213-0.352-0.708-1.211-1.27-2.444
		c0.765,0.088,1.541,0.146,2.331,0.174c0.055,0.954,0.108,1.76,0.151,2.369C322.219-38.797,321.815-38.831,321.416-38.881z"/>
	<path d="M320.569-50.458h-2.504v-0.009c0.261-0.158,0.534-0.313,0.819-0.46c0.286-0.148,0.549-0.315,0.788-0.498
		c0.238-0.182,0.434-0.396,0.587-0.64c0.154-0.243,0.231-0.544,0.231-0.898c0-0.291-0.055-0.548-0.164-0.768
		c-0.106-0.22-0.262-0.401-0.46-0.544c-0.199-0.143-0.438-0.251-0.717-0.322c-0.277-0.071-0.584-0.108-0.917-0.108
		c-0.372,0-0.707,0.055-1.007,0.159c-0.298,0.106-0.553,0.262-0.759,0.466c-0.206,0.205-0.36,0.454-0.462,0.751
		c-0.101,0.298-0.14,0.638-0.117,1.019h1.494c-0.011-0.34,0.046-0.614,0.171-0.823c0.123-0.21,0.345-0.314,0.664-0.314
		c0.186,0,0.343,0.048,0.472,0.148c0.131,0.097,0.195,0.273,0.195,0.527c0,0.101-0.025,0.191-0.075,0.271
		c-0.05,0.08-0.114,0.151-0.191,0.214c-0.076,0.064-0.158,0.123-0.246,0.176s-0.166,0.102-0.235,0.144
		c-0.173,0.105-0.354,0.212-0.539,0.323c-0.187,0.106-0.365,0.221-0.537,0.341c-0.173,0.118-0.334,0.247-0.486,0.385
		c-0.149,0.138-0.284,0.286-0.4,0.445c-0.138,0.186-0.242,0.393-0.313,0.621c-0.071,0.228-0.1,0.477-0.083,0.747h4.792V-50.458z"/>
	<path d="M323.503-49.106h1.654v-1.097h0.747v-1.353h-0.747v-3.085h-1.583l-2.528,2.942v1.495h2.457V-49.106z M322.152-51.556
		l1.352-1.551v1.551H322.152z"/>
	<path d="M328.123-51.286c0-0.164,0.021-0.297,0.061-0.4s0.089-0.186,0.15-0.242c0.061-0.06,0.129-0.099,0.203-0.12
		c0.073-0.021,0.146-0.032,0.215-0.032c0.117,0,0.207,0.021,0.274,0.061c0.065,0.039,0.117,0.096,0.154,0.167
		c0.038,0.071,0.062,0.157,0.071,0.258c0.011,0.101,0.017,0.21,0.017,0.326v2.163h1.574v-2.831c0-0.238-0.039-0.444-0.115-0.62
		c-0.077-0.175-0.182-0.319-0.313-0.433c-0.133-0.114-0.284-0.2-0.454-0.259s-0.349-0.088-0.532-0.088
		c-0.334,0-0.601,0.053-0.795,0.155c-0.196,0.104-0.361,0.234-0.493,0.394h-0.017v-1.995h-1.573v5.677h1.573V-51.286z"/>
</g>
<g>
</g>
<g>
</g>
<g>
</g>
<g>
</g>
<g>
</g>
<g>
</g>
<g>
</g>
<g>
</g>
<g>
</g>
<g>
</g>
<g>
</g>
<g>
</g>
<g>
</g>
<g>
</g>
<g>
</g>
</svg>
