<?xml version="1.0" encoding="iso-8859-1"?>
<!-- Generator: Adobe Illustrator 16.0.0, SVG Export Plug-In . SVG Version: 6.00 Build 0)  -->
<!DOCTYPE svg PUBLIC "-//W3C//DTD SVG 1.1//EN" "http://www.w3.org/Graphics/SVG/1.1/DTD/svg11.dtd">
<svg version="1.1" id="Layer_1" xmlns="http://www.w3.org/2000/svg" xmlns:xlink="http://www.w3.org/1999/xlink" x="0px" y="0px"
	 width="49.312px" height="47.213px" viewBox="0 0 49.312 47.213" style="enable-background:new 0 0 49.312 47.213;"
	 xml:space="preserve">
<g>
	<path d="M395.958-37.51c0.004,0,0.008-0.002,0.013-0.002c0.007,0,0.015,0.002,0.022,0.002c4.627,0,8.771-2.107,11.524-5.41
		c0.252-0.303,0.492-0.618,0.72-0.94c1.733-2.446,2.756-5.43,2.756-8.65c0-3.219-1.022-6.202-2.756-8.648
		c-0.228-0.323-0.467-0.638-0.72-0.94c-2.754-3.303-6.897-5.41-11.524-5.41c-0.008,0-0.016,0-0.022,0c-0.005,0-0.009,0-0.013,0
		c-0.018,0-0.035,0.002-0.052,0.002c-4.592,0.026-8.7,2.128-11.436,5.409c-0.253,0.303-0.492,0.617-0.721,0.939
		c-1.733,2.446-2.757,5.429-2.757,8.648c0,3.221,1.023,6.204,2.757,8.65c0.229,0.321,0.468,0.637,0.721,0.939
		c2.736,3.281,6.844,5.382,11.436,5.409C395.922-37.512,395.94-37.51,395.958-37.51z M396.609-38.794v-7.567
		c2.116,0.052,4.109,0.368,5.875,0.892C401.261-41.766,399.106-39.181,396.609-38.794z M400.268-39.423
		c1.4-1.336,2.564-3.301,3.361-5.667c1.081,0.399,2.053,0.881,2.889,1.429C404.885-41.721,402.732-40.231,400.268-39.423z
		 M407.246-44.599c-0.949-0.635-2.05-1.188-3.27-1.643c0.434-1.592,0.711-3.332,0.79-5.165h4.948
		C409.513-48.884,408.625-46.556,407.246-44.599z M409.759-52.637h-4.969c-0.01-2.191-0.304-4.27-0.813-6.143
		c1.218-0.453,2.318-1.006,3.268-1.64C408.801-58.211,409.733-55.532,409.759-52.637z M406.521-61.36
		c-0.837,0.55-1.811,1.032-2.894,1.432c-0.797-2.365-1.959-4.332-3.359-5.668C402.732-64.789,404.887-63.301,406.521-61.36z
		 M396.609-66.226c2.497,0.387,4.648,2.974,5.871,6.677c-1.764,0.522-3.756,0.84-5.871,0.89V-66.226z M395.377-66.234v7.575
		c-2.142-0.051-4.157-0.374-5.938-0.908C390.675-63.296,392.853-65.889,395.377-66.234z M391.608-65.559
		c-1.379,1.329-2.523,3.273-3.313,5.607c-1.058-0.396-2.01-0.872-2.831-1.409C387.073-63.272,389.19-64.744,391.608-65.559z
		 M384.742-60.42c0.932,0.623,2.01,1.168,3.202,1.616c-0.515,1.88-0.81,3.965-0.82,6.167h-4.896
		C382.253-55.532,383.185-58.212,384.742-60.42z M382.272-51.406h4.876c0.08,1.843,0.358,3.592,0.796,5.19
		c-1.193,0.448-2.271,0.993-3.202,1.616C383.362-46.557,382.473-48.884,382.272-51.406z M385.467-43.661
		c0.82-0.537,1.771-1.012,2.826-1.407c0.789,2.335,1.936,4.277,3.314,5.607C389.19-40.275,387.078-41.75,385.467-43.661z
		 M395.377-38.785c-2.524-0.346-4.705-2.937-5.94-6.666c1.78-0.535,3.798-0.858,5.94-0.91V-38.785z M389.092-46.606
		c-0.389-1.476-0.638-3.093-0.713-4.8l-0.024-1.23c0.01-2.067,0.279-4.02,0.742-5.774c1.895,0.579,4.023,0.93,6.28,0.984h1.231
		c2.23-0.055,4.335-0.396,6.213-0.965c0.46,1.75,0.728,3.696,0.738,5.755l-0.024,1.23c-0.075,1.699-0.323,3.31-0.708,4.779
		c-1.88-0.569-3.986-0.912-6.219-0.966h-1.231C393.118-47.538,390.988-47.188,389.092-46.606z"/>
	<path d="M391.75-51.271c0.214-0.13,0.438-0.257,0.673-0.378c0.235-0.122,0.451-0.259,0.647-0.409
		c0.196-0.149,0.356-0.325,0.482-0.525c0.127-0.2,0.19-0.447,0.19-0.738c0-0.239-0.045-0.45-0.135-0.631
		c-0.088-0.181-0.215-0.33-0.378-0.447c-0.164-0.117-0.359-0.206-0.589-0.265c-0.229-0.059-0.48-0.089-0.754-0.089
		c-0.306,0-0.581,0.045-0.827,0.131c-0.245,0.087-0.454,0.215-0.624,0.383c-0.169,0.168-0.296,0.373-0.379,0.617
		s-0.115,0.523-0.097,0.837h1.228c-0.009-0.279,0.038-0.505,0.141-0.677c0.102-0.173,0.283-0.259,0.546-0.259
		c0.152,0,0.281,0.04,0.388,0.122c0.107,0.08,0.16,0.225,0.16,0.434c0,0.083-0.021,0.157-0.062,0.223s-0.094,0.124-0.157,0.176
		c-0.063,0.053-0.13,0.101-0.202,0.145c-0.072,0.043-0.137,0.083-0.193,0.117c-0.143,0.087-0.291,0.175-0.443,0.266
		c-0.153,0.088-0.3,0.182-0.441,0.28c-0.142,0.098-0.274,0.203-0.399,0.316c-0.123,0.113-0.233,0.235-0.329,0.366
		c-0.113,0.152-0.199,0.322-0.258,0.51s-0.082,0.392-0.068,0.614h3.938v-1.11h-2.058V-51.271z"/>
	<path d="M397.579-50.152v-0.901h0.614v-1.111h-0.614V-54.7h-1.301l-2.077,2.418v1.229h2.019v0.901H397.579z M395.109-52.165
		l1.11-1.274v1.274H395.109z"/>
	<path d="M400.015-51.943c0-0.135,0.018-0.244,0.05-0.329s0.073-0.152,0.124-0.199c0.05-0.049,0.105-0.081,0.167-0.099
		c0.06-0.017,0.119-0.026,0.176-0.026c0.097,0,0.171,0.017,0.226,0.05c0.054,0.032,0.097,0.078,0.127,0.137
		c0.031,0.059,0.051,0.13,0.059,0.212c0.009,0.083,0.014,0.173,0.014,0.269v1.777h1.294v-2.326c0-0.196-0.032-0.365-0.095-0.51
		c-0.063-0.144-0.149-0.263-0.258-0.355c-0.109-0.094-0.233-0.165-0.373-0.213s-0.286-0.072-0.438-0.072
		c-0.274,0-0.493,0.043-0.653,0.128c-0.161,0.085-0.297,0.192-0.405,0.323h-0.014v-1.64h-1.293v4.665h1.293V-51.943z"/>
	<path d="M395.641-73.294c6.39,0,12.095,2.969,15.825,7.592l-2.449,1.73l7.704,2.63l-0.8-7.505l-2.158,1.523
		c-4.243-5.344-10.785-8.781-18.122-8.781c-3.613,0-7.035,0.834-10.085,2.316l0.898,2.696
		C389.216-72.497,392.336-73.294,395.641-73.294z"/>
	<path d="M415.818-47.74c-0.707,3.017-2.108,5.917-4.238,8.442c-4.121,4.885-10.068,7.332-16.008,7.203l0.258-2.988l-6.978,4.193
		l6.252,4.227l0.228-2.631c6.818,0.201,13.666-2.584,18.396-8.191c2.33-2.763,3.898-5.915,4.732-9.203L415.818-47.74z"/>
	<path d="M375.951-44.685c-2.427-5.911-1.848-12.315,1.014-17.522l2.529,1.61L379-68.724l-6.638,3.59l2.229,1.418
		c-3.331,5.953-4.027,13.313-1.24,20.099c1.371,3.345,3.442,6.192,5.972,8.451l2.153-1.856
		C379.127-39.043,377.205-41.628,375.951-44.685z"/>
</g>
<g>
</g>
<g>
</g>
<g>
</g>
<g>
</g>
<g>
</g>
<g>
</g>
<g>
</g>
<g>
</g>
<g>
</g>
<g>
</g>
<g>
</g>
<g>
</g>
<g>
</g>
<g>
</g>
<g>
</g>
</svg>
