<?xml version="1.0" encoding="iso-8859-1"?>
<!-- Generator: Adobe Illustrator 16.0.0, SVG Export Plug-In . SVG Version: 6.00 Build 0)  -->
<!DOCTYPE svg PUBLIC "-//W3C//DTD SVG 1.1//EN" "http://www.w3.org/Graphics/SVG/1.1/DTD/svg11.dtd">
<svg version="1.1" id="Layer_1" xmlns="http://www.w3.org/2000/svg" xmlns:xlink="http://www.w3.org/1999/xlink" x="0px" y="0px"
	 width="48.748px" height="48.758px" viewBox="0 0 48.748 48.758" style="enable-background:new 0 0 48.748 48.758;"
	 xml:space="preserve">
<g>
	<path style="fill:none;" d="M613.777-134.841c-0.055,0.102-0.105,0.206-0.158,0.309h0.202L613.777-134.841z"/>
	<path style="fill:none;" d="M613.092-117.843l0.18-1.819l-1.367-0.143l-0.319-0.319c0.438,2.267,1.216,4.415,2.285,6.383
		l0.743-1.419L613.092-117.843z"/>
	<path style="fill:none;" d="M613.362-128.401l1.919,0.487l0.376,0.27h0.353v-0.676l1.107-0.108l1.053,0.784h1.729l0.619-0.567
		v-0.891l-0.504-0.379l-1.71,0.028l-0.565-0.621l-0.109-1l-0.58,0.316l-0.311,1.222l-0.838-0.892l-0.034-0.842l-0.809-0.696
		l-0.298-0.297h-0.938l0.297,0.836l1.128,0.629l0.196,0.208l-0.244,0.123l0.011,0.661l-0.551,0.23l-0.469-0.104l-0.293-0.416
		l0.762,0.041l0.207-0.277l-1.691-1.142l-0.129-0.485l-0.688,0.621l-0.066-0.014c-0.197,0.6-0.369,1.21-0.516,1.831l1.587-0.124
		V-128.401z"/>
	<polygon style="fill:none;" points="621.115,-130.771 620.301,-131.105 620.258,-131.977 619.954,-132.128 619.791,-131.874 
		619.048,-131.788 618.709,-131.682 618.395,-131.33 618.395,-130.373 618.814,-130.43 620.215,-130.373 621.188,-130.373 	"/>
	<polygon style="fill:none;" points="624.318,-130.769 624.318,-130.428 623.848,-130.021 623.785,-129.733 624.676,-129.67 
		624.785,-129.5 625.352,-129.454 625.596,-129.688 625.596,-130.066 625.118,-130.417 625.118,-130.957 624.011,-131.695 
		624.057,-132.097 624.938,-132.047 624.91,-132.479 624.289,-132.739 623.562,-132.677 623.381,-132.263 623.416,-131.427 	"/>
	<path style="fill:none;" d="M614.052-134.976l0.093,0.31l1.486,0.014l0.857-1.276l-0.04-0.581l-0.608-0.284v-0.432l1.072-0.655
		v-0.432h-0.344l-1.094,0.763c-0.166,0.226-0.33,0.453-0.486,0.686l-0.006,1.415L614.052-134.976z"/>
	<path style="fill:none;" d="M620.275-138.284l-0.377,0.324l-1.837,0.081l0.079,0.387l1.758,0.05l0.72-0.563l0.251-0.665l0.344-0.09
		l0.207,0.602l1.375-0.638l2.881,0.188l-0.242-0.594l0.188-0.729l0.812,0.199l0.269,0.422l0.162,1.215l0.721-0.216l-0.018-1.215
		l2.343-1.047l3.085-0.195l1.54,0.918h3.32l1.127,0.837l0.358,0.028l0.847-0.856l0.935,0.032l1.244,0.185l0.782,0.396l7.45,0.385
		c-4.107-4.835-10.225-7.911-17.051-7.911c-6.621,0-12.578,2.894-16.678,7.481l1.192-0.036L620.275-138.284z"/>
	<polygon points="642.022,-116.511 641.969,-117.231 642.184,-117.141 642.706,-117.194 642.652,-117.86 641.212,-117.843 
		640.816,-118.365 640.838,-118.637 638.981,-120.309 638.53,-119.949 641.176,-116.709 641.554,-116.583 641.554,-116.403 
		641.051,-116.403 641.176,-116.004 644.434,-115.862 643.355,-116.547 	"/>
	<polygon points="645.666,-120.166 645.443,-120.259 645.335,-120.814 645.01,-120.814 644.801,-120.252 644.552,-120.03 
		642.668,-119.008 642.668,-117.999 643.297,-117.167 644.883,-117.167 645.084,-117.681 645.443,-118.005 645.443,-118.242 
		645.666,-118.388 	"/>
	<polygon points="645.666,-117.804 645.666,-116.49 646.151,-116.49 646.08,-117.328 646.458,-117.193 646.458,-116.598 
		646.854,-116.634 646.84,-118.388 645.889,-118.018 645.9,-117.804 	"/>
	<polygon points="633.74,-120.615 633.967,-120.004 634.785,-120.309 634.875,-121.155 634.215,-121.286 	"/>
	<polygon points="624.044,-115.777 622.929,-115.921 623.012,-112.766 623.408,-112.298 623.102,-111.83 622.651,-111.308 
		622.651,-110.355 623.265,-109.759 623.822,-110.657 624.92,-112.262 625.736,-115.862 625.068,-115.862 	"/>
	<polygon points="647.076,-116.146 646.712,-116.146 646.712,-115.951 646.995,-115.862 	"/>
	<rect x="645.01" y="-115.862" width="0.434" height="0.24"/>
	<polygon points="645.922,-115.862 645.666,-115.622 645.666,-115.413 646.064,-115.454 646.064,-115.622 646.334,-115.622 
		646.334,-115.832 646.529,-115.862 646.529,-116.067 646.098,-116.067 	"/>
	<polygon points="647.373,-115.932 647.33,-115.682 646.779,-115.622 646.752,-115.622 646.752,-115.244 647.171,-115.244 
		647.171,-115.433 647.604,-115.433 647.604,-115.655 647.906,-115.622 647.866,-116.004 	"/>
	<path d="M614.989-137.211l-0.001,0.348c0.156-0.233,0.32-0.459,0.486-0.686L614.989-137.211z"/>
	<path d="M610.363-131.892c-0.038,0.117-0.078,0.232-0.115,0.35l0.036,0.007L610.363-131.892z"/>
	<path d="M654.57-115.25v-0.415h-0.418c-0.059,0.14-0.125,0.276-0.188,0.415H654.57z"/>
	<path d="M654.084-115.665l-0.09-1.25l-2.322-1.054l-0.648,0.343l-0.604,0.015l0.045-0.627l-0.575-0.342l-0.819,0.819l0.549,0.675
		l1.188,0.171l0.667,0.35l0.019,0.325h-0.434l0.018,0.667l1.441-0.091l0.522-0.558l0.558-0.054v1.026h0.367
		c0.063-0.138,0.129-0.275,0.188-0.415H654.084z"/>
	<path d="M633.547-148.756c-8.702,0-16.35,4.588-20.662,11.469c-0.258,0.41-0.506,0.826-0.74,1.252
		c-0.473,0.866-0.889,1.766-1.256,2.691c-0.189,0.477-0.366,0.96-0.525,1.452l-0.079,0.357l-0.036-0.007
		c-0.205,0.668-0.381,1.35-0.529,2.041c-0.031,0.15-0.063,0.301-0.092,0.452c-0.295,1.512-0.453,3.071-0.453,4.667
		c0,1.54,0.15,3.044,0.424,4.505c0.83,4.42,2.854,8.422,5.727,11.657c0.066,0.074,0.129,0.151,0.195,0.225
		c4.461,4.904,10.891,7.987,18.027,7.987c6.443,0,12.307-2.518,16.67-6.615c1.591-1.495,2.984-3.196,4.131-5.067
		c2.266-3.699,3.573-8.045,3.573-12.691C657.921-137.822,646.986-148.756,633.547-148.756z M633.547-146.756
		c6.826,0,12.943,3.076,17.051,7.911l-7.45-0.385l-0.782-0.396l-1.244-0.185l-0.935-0.032l-0.847,0.856l-0.358-0.028l-1.127-0.837
		h-3.32l-1.54-0.918l-3.085,0.195l-2.343,1.047l0.018,1.215l-0.721,0.216l-0.162-1.215l-0.269-0.422l-0.812-0.199l-0.188,0.729
		l0.242,0.594l-2.881-0.188l-1.375,0.638l-0.207-0.602l-0.344,0.09l-0.251,0.665l-0.72,0.563l-1.758-0.05l-0.079-0.387l1.837-0.081
		l0.377-0.324l-2.214-1.026l-1.192,0.036C620.969-143.862,626.926-146.756,633.547-146.756z M640.237-128.37l0.918,0.396
		c-0.154,0.359-0.241,0.625-0.274,0.838l-0.988-0.151C639.939-127.591,640.045-127.925,640.237-128.37z M639.427-135.896
		c-0.244-0.183-0.511-0.355-0.793-0.513l0.488-0.873c0.32,0.18,0.625,0.376,0.904,0.585L639.427-135.896z M640.703-134.565
		l-0.117-0.168c-0.137-0.191-0.292-0.375-0.46-0.549l0.721-0.694c0.201,0.209,0.386,0.429,0.553,0.662l0.136,0.195L640.703-134.565z
		 M642.063-134.153c0.149,0.35,0.26,0.71,0.326,1.07l-0.982,0.184c-0.054-0.288-0.143-0.578-0.264-0.86L642.063-134.153z
		 M641.023-126.546c0.068,0.072,0.162,0.142,0.278,0.208l-0.49,0.872c-0.204-0.115-0.377-0.247-0.515-0.392L641.023-126.546z
		 M640.663-129.302c0.133-0.286,0.267-0.586,0.388-0.899l0.934,0.36c-0.129,0.334-0.272,0.654-0.413,0.959L640.663-129.302z
		 M641.337-131.101c0.076-0.317,0.119-0.613,0.131-0.905l1,0.043c-0.016,0.356-0.067,0.714-0.158,1.094L641.337-131.101z
		 M635.492-130.883l-0.137,0.99c-0.253-0.035-0.54-0.051-0.848-0.069l-0.123-0.007l0.059-0.998l0.123,0.007
		C634.902-130.94,635.216-130.921,635.492-130.883z M634.982-137.535l0.107-0.994c0.349,0.038,0.698,0.092,1.047,0.164l-0.201,0.979
		C635.618-137.451,635.3-137.5,634.982-137.535z M634.773-126.691l0.787,0.617c-0.217,0.275-0.449,0.542-0.69,0.799l-0.729-0.686
		C634.363-126.195,634.576-126.439,634.773-126.691z M635.324-127.473c0.173-0.281,0.318-0.56,0.432-0.829l0.922,0.389
		c-0.134,0.316-0.303,0.641-0.502,0.964L635.324-127.473z M636.021-129.157c0.016-0.092,0.023-0.176,0.023-0.251
		c0-0.194-0.056-0.255-0.074-0.275l0.738-0.675c0.223,0.244,0.336,0.563,0.336,0.95c0,0.127-0.012,0.268-0.039,0.422
		L636.021-129.157z M636.87-137.15l0.291-0.957c0.34,0.104,0.675,0.224,0.998,0.359l-0.385,0.923
		C637.48-136.948,637.179-137.056,636.87-137.15z M633.065-137.552l-0.1-0.995c0.306-0.03,0.62-0.046,0.94-0.046
		c0.005,0,0.01,0,0.016,0l0.111,0l-0.014,1C633.625-137.602,633.342-137.58,633.065-137.552z M633.468-131.05l-0.127,0.992
		c-0.391-0.05-0.739-0.12-1.065-0.213l0.275-0.961C632.827-131.153,633.127-131.093,633.468-131.05z M634.126-124.54
		c-0.261,0.241-0.525,0.469-0.786,0.683l-0.635-0.772c0.247-0.203,0.496-0.419,0.743-0.646L634.126-124.54z M629.695-135.297
		c-0.011,0.088-0.017,0.181-0.017,0.275c0,0.181,0.021,0.372,0.061,0.567l-0.98,0.2c-0.053-0.261-0.08-0.519-0.08-0.768
		c0-0.137,0.008-0.271,0.024-0.4L629.695-135.297z M629.091-136.565c0.195-0.33,0.461-0.628,0.787-0.887l0.621,0.784
		c-0.23,0.183-0.415,0.389-0.549,0.614L629.091-136.565z M630.019-133.588c0.126,0.298,0.27,0.571,0.427,0.812l-0.836,0.548
		c-0.19-0.291-0.363-0.617-0.513-0.971L630.019-133.588z M631.013-132.088c0.211,0.201,0.449,0.375,0.708,0.518l-0.482,0.876
		c-0.335-0.185-0.643-0.41-0.915-0.669L631.013-132.088z M631.257-137.112l-0.398-0.917c0.318-0.139,0.67-0.254,1.044-0.343
		l0.23,0.973C631.816-137.324,631.521-137.228,631.257-137.112z M614.982-135.448l0.006-1.415l0.001-0.348l0.485-0.338l1.094-0.763
		h0.344v0.432l-1.072,0.655v0.432l0.608,0.284l0.04,0.581l-0.857,1.276l-1.486-0.014l-0.093-0.31L614.982-135.448z M613.777-134.841
		l0.044,0.309h-0.202C613.672-134.635,613.723-134.739,613.777-134.841z M613.87-113.741c-1.069-1.969-1.847-4.116-2.285-6.383
		l0.319,0.319l1.367,0.143l-0.18,1.819l1.521,2.682L613.87-113.741z M654.152-115.665l-0.188,0.415
		c-0.172,0.382-0.354,0.758-0.545,1.128l-0.506-0.867l-0.576-0.027l-0.234,1.988l-1.1-0.082l-0.307-0.185l-0.039-0.789l0.582,0.119
		l0.491-0.479l-1.045-0.628h-1.229l-0.883,1.252h-0.36v-0.396l-1.057,0.08l-1.674,1.907l-0.889,0.012l-0.989,0.684l-0.072,2.952
		l-0.595,0.576v0.523l2.881-0.99l2.335-0.094l0.362,0.795c-3.969,3.58-9.219,5.763-14.971,5.763c-6.015,0-11.479-2.39-15.503-6.265
		l1.565-1.612l0.576-1.026l0.738-0.163v-0.864l0.485-0.577l0.761-3.348h-7.203l0.063-10.353h-1.968l1.968-1.691v-0.006h0.006
		l0.058-0.049l-1.73-0.439v-1.242l-1.587,0.124c0.146-0.621,0.318-1.231,0.516-1.831l0.066,0.014l0.688-0.621l0.129,0.485
		l1.691,1.142l-0.207,0.277l-0.762-0.041l0.293,0.416l0.469,0.104l0.551-0.23l-0.011-0.661l0.244-0.123l-0.196-0.208l-1.128-0.629
		l-0.297-0.836h0.938l0.298,0.297l0.809,0.696l0.034,0.842l0.838,0.892l0.311-1.222l0.58-0.316l0.093,0.852l0.673-0.578v-0.528
		l0.314-0.353l0.339-0.105l0.571-0.066l3.687-3.17l10.396,8.808h-2.116v2.436c0.111-0.077,0.221-0.151,0.342-0.241l0.596,0.803
		c-0.227,0.169-0.435,0.312-0.642,0.454l1.174,1.93l0.527,0.122l0.525-0.763l0.291-2.173l0.543-1.17l0.879-0.328l1.549,0.148
		l1.943,1.727v2.485l2.565,2.456l0.136-0.431l-2.08-2.971l0.216-0.864l1.1,1.246l0.612,0.064l0.807-0.536l-0.134-0.81l-1.331-1.071
		l-0.055-0.973l0.379-0.512l0.676,0.216l-0.055,0.459l0.386,0.593l0.343-0.243l-0.188-0.702l1.889-0.676l0.828-0.692l-0.125-1.251
		l-1.646-1.728l-0.028-1.404h0.729l2.268,1.729l0.639-0.172l-0.422-0.557l-1.216-0.738l0.072-1.097l1.439,0.001l0.117-1.36
		l-0.548-0.723l0.323-0.351l0.702,0.703l0.225-0.298l-0.9-1.026l-2.24-0.27l-0.297-0.593l0.647-0.918l0.513,0.377l1.539,0.136
		l1.945-1.296l0.323,0.405l-0.433,0.675v0.675l1.783,1.457l0.567-0.296l-0.217-0.972l-1.268-1.188l1.673-0.108v-0.486l0.441-0.088
		c2.463,3.594,3.907,7.938,3.907,12.614C655.921-121.292,655.291-118.345,654.152-115.665z"/>
	<g>
		<rect x="624.864" y="-124.087" width="2.813" height="2.812"/>
		<path d="M623.322-133.817l-6.513,5.599h-0.005v0.005l-1.55,1.332h1.55v9.902h13.036v-9.902h1.667L623.322-133.817z
			 M628.504-118.316h-5.182v-5.809h-3.396v5.809h-1.784v-8.566h10.362V-118.316z"/>
	</g>
</g>
<g>
</g>
<g>
</g>
<g>
</g>
<g>
</g>
<g>
</g>
<g>
</g>
<g>
</g>
<g>
</g>
<g>
</g>
<g>
</g>
<g>
</g>
<g>
</g>
<g>
</g>
<g>
</g>
<g>
</g>
</svg>
