<?xml version="1.0" encoding="iso-8859-1"?>
<!-- Generator: Adobe Illustrator 16.0.0, SVG Export Plug-In . SVG Version: 6.00 Build 0)  -->
<!DOCTYPE svg PUBLIC "-//W3C//DTD SVG 1.1//EN" "http://www.w3.org/Graphics/SVG/1.1/DTD/svg11.dtd">
<svg version="1.1" id="Layer_1" xmlns="http://www.w3.org/2000/svg" xmlns:xlink="http://www.w3.org/1999/xlink" x="0px" y="0px"
	 width="48.748px" height="48.758px" viewBox="0 0 48.748 48.758" style="enable-background:new 0 0 48.748 48.758;"
	 xml:space="preserve">
<g>
	<path d="M167.401-51.394h10.572v-10.65c-3.213,0-6.536,0.265-9.71,0.659C167.832-58.186,167.5-54.76,167.401-51.394z"/>
	<path d="M168.884-65.493c2.974-0.334,6.063-0.551,9.089-0.551v-7.41c-2.805,0.151-5.477,0.799-7.933,1.854
		C169.676-69.874,169.269-67.796,168.884-65.493z"/>
	<path d="M169.713-28.784c2.546,1.142,5.33,1.845,8.26,2.003v-6.894c-3.133-0.093-6.29-0.389-9.278-0.787
		C169.023-32.387,169.377-30.466,169.713-28.784z"/>
	<path d="M168.108-38.591c3.163,0.457,6.543,0.808,9.865,0.913v-9.716h-10.572C167.488-44.441,167.753-41.442,168.108-38.591z"/>
	<path d="M181.973-37.678c3.292-0.104,6.643-0.45,9.782-0.901c0.385-2.855,0.672-5.858,0.767-8.814h-10.549V-37.678z"/>
	<path d="M196.524-51.394h6.074c-0.144-2.678-0.741-5.234-1.712-7.599c-1.429-0.334-3.148-0.712-5.072-1.086
		C196.173-57.267,196.438-54.32,196.524-51.394z"/>
	<path d="M195.882-39.248c1.629-0.292,3.15-0.597,4.517-0.89c1.062-2.245,1.774-4.688,2.072-7.256h-5.947
		C196.443-44.653,196.207-41.896,195.882-39.248z"/>
	<path d="M198.298-63.671c-1.077-1.51-2.328-2.885-3.726-4.099c0.213,1.108,0.425,2.273,0.626,3.491
		C196.289-64.078,197.324-63.873,198.298-63.671z"/>
	<path d="M181.973-61.917v10.523h10.549c-0.101-3.167-0.425-6.387-0.852-9.421C188.617-61.306,185.294-61.72,181.973-61.917z"/>
	<path d="M164.145-60.793c-2.271,0.368-4.386,0.776-6.236,1.168c-1.132,2.538-1.829,5.313-1.986,8.231h7.477
		C163.486-54.569,163.768-57.77,164.145-60.793z"/>
	<path d="M160.806-35.781c1.248,1.604,2.698,3.042,4.316,4.273c-0.2-1.14-0.396-2.336-0.582-3.585
		C163.23-35.314,161.979-35.548,160.806-35.781z"/>
	<path d="M194.893-32.744c0.927-0.835,1.785-1.743,2.568-2.715c-0.705,0.131-1.426,0.26-2.171,0.386
		C195.162-34.274,195.029-33.501,194.893-32.744z"/>
	<path d="M160.652-64.259c1.295-0.238,2.659-0.472,4.079-0.687c0.224-1.416,0.459-2.758,0.693-4.009
		C163.618-67.625,162.01-66.042,160.652-64.259z"/>
	<path d="M189.809-70.974c-2.403-1.218-5.043-2.033-7.835-2.355v7.402c3.091,0.173,6.165,0.522,9.037,0.951
		C190.615-67.21,190.194-69.245,189.809-70.974z"/>
	<path d="M163.399-47.394h-7.35c0.283,2.437,0.941,4.757,1.915,6.906c1.715,0.389,3.764,0.819,6.029,1.227
		C163.693-41.904,163.474-44.658,163.399-47.394z"/>
	<path d="M181.973-26.906c2.929-0.339,5.693-1.218,8.189-2.536c0.319-1.514,0.648-3.199,0.958-5.002
		c-2.949,0.39-6.06,0.678-9.146,0.77V-26.906z"/>
</g>
<g>
</g>
<g>
</g>
<g>
</g>
<g>
</g>
<g>
</g>
<g>
</g>
<g>
</g>
<g>
</g>
<g>
</g>
<g>
</g>
<g>
</g>
<g>
</g>
<g>
</g>
<g>
</g>
<g>
</g>
</svg>
