<?xml version="1.0" encoding="iso-8859-1"?>
<!-- Generator: Adobe Illustrator 16.0.0, SVG Export Plug-In . SVG Version: 6.00 Build 0)  -->
<!DOCTYPE svg PUBLIC "-//W3C//DTD SVG 1.1//EN" "http://www.w3.org/Graphics/SVG/1.1/DTD/svg11.dtd">
<svg version="1.1" id="Layer_1" xmlns="http://www.w3.org/2000/svg" xmlns:xlink="http://www.w3.org/1999/xlink" x="0px" y="0px"
	 width="48.748px" height="48.758px" viewBox="0 0 48.748 48.758" style="enable-background:new 0 0 48.748 48.758;"
	 xml:space="preserve">
<g>
	<path d="M324.097-50.615h9.288v-9.532c-2.962,0.063-5.795,0.407-8.375,0.974C324.453-56.533,324.129-53.638,324.097-50.615z"/>
	<path d="M322.835-58.63c-5.99,1.705-10.202,4.667-10.756,8.015h10.018C322.125-53.441,322.38-56.138,322.835-58.63z"/>
	<path d="M325.534-61.35c2.44-0.466,5.078-0.743,7.851-0.797v-10.231C330.082-71.648,327.182-67.355,325.534-61.35z"/>
	<path d="M322.939-41.072c-0.46-2.348-0.746-4.88-0.824-7.543h-9.926C313.065-45.455,317.195-42.688,322.939-41.072z"/>
	<path d="M345.934-58.63c0.455,2.493,0.71,5.188,0.738,8.015h10.017C356.135-53.963,351.924-56.925,345.934-58.63z"/>
	<path d="M335.385-72.378v10.231c2.772,0.054,5.41,0.331,7.851,0.798C341.587-67.354,338.688-71.648,335.385-72.378z"/>
	<path d="M343.76-59.174c-2.58-0.565-5.413-0.91-8.375-0.974v9.532h9.288C344.64-53.638,344.316-56.533,343.76-59.174z"/>
	<path d="M325.121-40.534c2.551,0.552,5.344,0.888,8.264,0.95v-9.031h-9.266C324.21-45.756,324.56-43.023,325.121-40.534z"/>
	<path d="M356.09-55.54c-1.968-7.873-8.117-14.105-15.943-16.193c2.318,2.388,4.182,6.192,5.315,10.876
		C350.049-59.702,353.765-57.842,356.09-55.54z"/>
	<path d="M312.866-44.004c2.147,7.547,8.16,13.479,15.756,15.505c-2.229-2.296-4.035-5.902-5.178-10.34
		C318.918-39.96,315.226-41.765,312.866-44.004z"/>
	<path d="M328.623-71.734c-7.827,2.087-13.976,8.32-15.945,16.194c2.326-2.303,6.042-4.162,10.629-5.317
		C324.441-65.542,326.304-69.347,328.623-71.734z"/>
	<path d="M333.385-27.854v-9.73c-2.715-0.053-5.302-0.318-7.7-0.768C327.355-32.626,330.18-28.562,333.385-27.854z"/>
	<path d="M340.147-28.5c7.596-2.026,13.608-7.958,15.755-15.504c-2.359,2.239-6.051,4.043-10.577,5.165
		C344.182-34.402,342.376-30.796,340.147-28.5z"/>
	<path d="M335.385-37.585v9.73c3.205-0.708,6.029-4.771,7.7-10.498C340.687-37.904,338.1-37.638,335.385-37.585z"/>
	<path d="M344.651-48.615h-9.266v9.031c2.92-0.063,5.713-0.398,8.264-0.95C344.209-43.023,344.559-45.757,344.651-48.615z"/>
	<path d="M345.83-41.072c5.744-1.615,9.873-4.384,10.749-7.543h-9.925C346.576-45.953,346.291-43.42,345.83-41.072z"/>
</g>
<g>
</g>
<g>
</g>
<g>
</g>
<g>
</g>
<g>
</g>
<g>
</g>
<g>
</g>
<g>
</g>
<g>
</g>
<g>
</g>
<g>
</g>
<g>
</g>
<g>
</g>
<g>
</g>
<g>
</g>
</svg>
