<?xml version="1.0" encoding="iso-8859-1"?>
<!-- Generator: Adobe Illustrator 16.0.0, SVG Export Plug-In . SVG Version: 6.00 Build 0)  -->
<!DOCTYPE svg PUBLIC "-//W3C//DTD SVG 1.1//EN" "http://www.w3.org/Graphics/SVG/1.1/DTD/svg11.dtd">
<svg version="1.1" id="Layer_1" xmlns="http://www.w3.org/2000/svg" xmlns:xlink="http://www.w3.org/1999/xlink" x="0px" y="0px"
	 width="48.748px" height="48.758px" viewBox="0 0 48.748 48.758" style="enable-background:new 0 0 48.748 48.758;"
	 xml:space="preserve">
<path d="M281.103-50.452c0-0.056,0.004-0.109,0.004-0.165c0-13.438-10.934-24.373-24.373-24.374h-0.001h0h0
	c-13.439,0-24.373,10.935-24.373,24.374c0,0.056,0.004,0.109,0.004,0.165c0,0.028-0.004,0.057-0.004,0.086
	c0,0.093,0.01,0.184,0.013,0.275c0.282,13.184,11.075,23.824,24.32,23.846c0.014,0,0.027,0.002,0.041,0.002
	c0.015,0,0.029-0.002,0.043-0.002c13.244-0.024,24.035-10.664,24.317-23.846c0.003-0.092,0.013-0.183,0.013-0.275
	C281.107-50.396,281.104-50.424,281.103-50.452z M269.021-51.116c-0.027-2.826-0.283-5.521-0.738-8.015
	c5.99,1.705,10.201,4.667,10.755,8.015H269.021z M267.021-51.116h-9.288v-9.532c2.962,0.063,5.795,0.408,8.375,0.974
	C266.666-57.034,266.989-54.139,267.021-51.116z M257.734-62.647v-10.231c3.303,0.729,6.203,5.023,7.851,11.029
	C263.144-62.316,260.506-62.594,257.734-62.647z M255.734-72.879v10.231c-2.772,0.054-5.41,0.331-7.851,0.797
	C249.531-67.856,252.431-72.149,255.734-72.879z M255.734-60.648v9.532h-9.288c0.032-3.022,0.356-5.918,0.912-8.559
	C249.938-60.241,252.771-60.585,255.734-60.648z M244.447-51.116h-10.018c0.554-3.348,4.766-6.31,10.756-8.015
	C244.729-56.639,244.474-53.942,244.447-51.116z M244.465-49.116c0.078,2.663,0.363,5.195,0.824,7.543
	c-5.744-1.615-9.874-4.383-10.75-7.543H244.465z M246.468-49.116h9.266v9.031c-2.92-0.063-5.713-0.398-8.264-0.95
	C246.909-43.524,246.56-46.257,246.468-49.116z M255.734-38.086v9.73c-3.205-0.707-6.029-4.771-7.7-10.498
	C250.432-38.404,253.019-38.139,255.734-38.086z M257.734-28.355v-9.73c2.715-0.053,5.302-0.319,7.7-0.768
	C263.763-33.127,260.938-29.063,257.734-28.355z M257.734-40.085v-9.031H267c-0.092,2.858-0.441,5.592-1.002,8.081
	C263.447-40.483,260.654-40.148,257.734-40.085z M269.003-49.116h9.925c-0.875,3.159-5.005,5.928-10.749,7.543
	C268.64-43.921,268.925-46.454,269.003-49.116z M278.439-56.041c-2.325-2.302-6.041-4.162-10.627-5.317
	c-1.134-4.684-2.997-8.488-5.315-10.876C270.322-70.146,276.471-63.914,278.439-56.041z M250.972-72.235
	c-2.319,2.388-4.182,6.192-5.316,10.877c-4.587,1.155-8.303,3.015-10.629,5.317C236.996-63.915,243.146-70.148,250.972-72.235z
	 M235.215-44.505c2.36,2.239,6.052,4.044,10.579,5.165c1.143,4.438,2.949,8.044,5.178,10.34
	C243.375-31.026,237.362-36.958,235.215-44.505z M262.497-29.001c2.229-2.296,4.035-5.902,5.178-10.339
	c4.526-1.122,8.218-2.926,10.577-5.165C276.104-36.959,270.092-31.027,262.497-29.001z"/>
<g>
</g>
<g>
</g>
<g>
</g>
<g>
</g>
<g>
</g>
<g>
</g>
<g>
</g>
<g>
</g>
<g>
</g>
<g>
</g>
<g>
</g>
<g>
</g>
<g>
</g>
<g>
</g>
<g>
</g>
</svg>
