<?xml version="1.0" encoding="iso-8859-1"?>
<!-- Generator: Adobe Illustrator 16.0.0, SVG Export Plug-In . SVG Version: 6.00 Build 0)  -->
<!DOCTYPE svg PUBLIC "-//W3C//DTD SVG 1.1//EN" "http://www.w3.org/Graphics/SVG/1.1/DTD/svg11.dtd">
<svg version="1.1" id="Layer_1" xmlns="http://www.w3.org/2000/svg" xmlns:xlink="http://www.w3.org/1999/xlink" x="0px" y="0px"
	 width="48.748px" height="48.758px" viewBox="0 0 48.748 48.758" style="enable-background:new 0 0 48.748 48.758;"
	 xml:space="preserve">
<g>
	<path d="M639.672-58.196c-0.486-1.979-1.092-3.855-1.738-5.568c-1.71,0.46-3.561,0.724-5.502,0.724
		c-0.029,0-0.059-0.002-0.089-0.002c-0.068,1.775-0.135,3.712-0.193,5.761c0.095,0.001,0.188,0.007,0.282,0.007
		C634.99-57.275,637.43-57.606,639.672-58.196z"/>
	<path d="M637.192-65.627c-1.459-3.477-2.954-6.068-3.626-7.168c-0.25-0.022-0.501-0.038-0.753-0.053
		c-0.082,1.401-0.235,4.17-0.389,7.807c0.002,0,0.004,0,0.007,0C634.111-65.041,635.711-65.255,637.192-65.627z"/>
	<path d="M641.507-67.383c-2.178-2.648-4.133-4.406-4.665-4.868c-0.241-0.059-0.483-0.112-0.727-0.163
		c0.82,1.447,1.933,3.58,3.017,6.188C639.99-66.552,640.782-66.943,641.507-67.383z"/>
	<path d="M653.331-55.635c-0.851,0.804-1.798,1.555-2.82,2.254c0.138,0.924,0.227,1.863,0.242,2.82
		c0.021,1.313-0.081,2.593-0.273,3.838c1.224-0.704,2.36-1.473,3.393-2.303c0.033-0.495,0.056-0.992,0.056-1.495
		C653.928-52.28,653.717-53.991,653.331-55.635z"/>
	<path d="M643.105-31.399c1.427-0.865,2.762-1.866,3.957-3.018c-0.707,0.244-1.433,0.466-2.167,0.676
		C644.286-32.883,643.682-32.101,643.105-31.399z"/>
	<path d="M640.102-56.252c-2.387,0.627-4.969,0.977-7.67,0.977c-0.112,0-0.223-0.007-0.335-0.008
		c-0.032,1.308-0.061,2.651-0.083,4.024c-0.007,0.41-0.012,0.821-0.016,1.232c3.083-0.027,6.03-0.43,8.746-1.143
		C640.656-52.9,640.426-54.604,640.102-56.252z"/>
	<path d="M646.601-36.365c1.117-0.39,2.206-0.813,3.239-1.287c1.8-2.551,3.081-5.491,3.687-8.67
		c-1.102,0.763-2.309,1.449-3.566,2.091C649.197-41.318,647.965-38.663,646.601-36.365z"/>
	<path d="M640.782-49.127c-2.752,0.689-5.71,1.075-8.794,1.101c0,2.032,0.028,4.039,0.076,5.966
		c2.816-0.025,5.534-0.321,8.102-0.851C640.525-44.876,640.756-46.962,640.782-49.127z"/>
	<path d="M643.831-69.211c-0.777-0.513-1.595-0.97-2.436-1.384c0.555,0.601,1.146,1.273,1.753,2.014
		C643.384-68.787,643.623-68.991,643.831-69.211z"/>
	<path d="M637.394-28.945c0.32-0.087,0.642-0.173,0.956-0.273c0.561-0.529,1.887-1.842,3.412-3.742
		c-0.872,0.182-1.764,0.33-2.665,0.463C638.479-31.06,637.882-29.858,637.394-28.945z"/>
	<path d="M643.6-35.438c1.479-2.163,2.937-4.769,3.924-7.67c-1.77,0.734-3.648,1.349-5.625,1.829
		c-0.52,2.458-1.217,4.683-1.942,6.623C641.2-34.87,642.42-35.127,643.6-35.438z"/>
	<path d="M632.727-28.206c0.695-0.036,1.382-0.103,2.06-0.202c0.36-0.603,1.114-1.929,1.973-3.805
		c-1.399,0.135-2.825,0.212-4.275,0.222C632.572-30.457,632.658-29.169,632.727-28.206z"/>
	<path d="M639.858-64.386c0.646,1.724,1.25,3.608,1.742,5.602c1.572-0.551,3.017-1.238,4.303-2.039
		c-0.959-1.84-2.068-3.525-3.177-5.007C641.852-65.277,640.896-64.788,639.858-64.386z"/>
	<path d="M639.728-40.814c-2.434,0.455-4.977,0.72-7.607,0.746c0.07,2.201,0.16,4.257,0.254,6.078
		c1.805-0.009,3.568-0.127,5.289-0.332C638.408-36.182,639.152-38.378,639.728-40.814z"/>
	<path d="M649.521-63.836c-1.172-1.578-2.549-2.993-4.088-4.214c-0.325,0.356-0.684,0.697-1.064,1.023
		c1.115,1.489,2.226,3.18,3.204,5.03C648.296-62.571,648.952-63.185,649.521-63.836z"/>
	<path d="M650.096-55.494c0.965-0.713,1.844-1.479,2.613-2.295c-0.528-1.535-1.216-2.997-2.05-4.362
		c-0.654,0.697-1.396,1.352-2.201,1.963C649.128-58.703,649.693-57.133,650.096-55.494z"/>
	<path d="M648.307-54.304c-0.351-1.645-0.887-3.23-1.546-4.731c-1.424,0.868-3.009,1.611-4.725,2.2
		c0.327,1.643,0.563,3.346,0.675,5.083C644.753-52.431,646.632-53.293,648.307-54.304z"/>
	<path d="M648.753-50.527c-0.01-0.57-0.053-1.134-0.112-1.693c-1.78,1.009-3.747,1.864-5.865,2.533
		c0.011,2.184-0.167,4.29-0.482,6.276c2.103-0.558,4.089-1.272,5.916-2.129C648.574-47.141,648.781-48.809,648.753-50.527z"/>
	<path d="M615.344-35.123c1.628,1.713,3.526,3.164,5.62,4.296c-0.77-0.904-1.612-1.974-2.455-3.183
		C617.425-34.347,616.363-34.712,615.344-35.123z"/>
	<path d="M613.676-44.065c-1.479-0.734-2.863-1.553-4.13-2.451c0.524,2.892,1.605,5.59,3.13,7.982
		c1.296,0.688,2.679,1.308,4.13,1.854C615.541-38.859,614.405-41.35,613.676-44.065z"/>
	<path d="M615.481-60.933c-0.857-0.741-1.621-1.536-2.267-2.382c-1.146,1.637-2.077,3.431-2.756,5.346
		c0.865,0.945,1.873,1.825,2.997,2.634C613.926-57.31,614.637-59.184,615.481-60.933z"/>
	<path d="M623.478-34.816c-0.699-1.889-1.368-4.037-1.872-6.406c-1.924-0.46-3.76-1.046-5.489-1.746
		c0.945,2.735,2.305,5.201,3.699,7.277C621.001-35.351,622.224-35.059,623.478-34.816z"/>
	<path d="M612.839-50.561c0.015-0.904,0.095-1.794,0.219-2.669c-1.188-0.793-2.276-1.658-3.238-2.591
		c-0.414,1.7-0.64,3.474-0.64,5.3c0,0.432,0.015,0.86,0.04,1.286c1.172,0.97,2.489,1.856,3.917,2.658
		C612.929-47.866,612.816-49.195,612.839-50.561z"/>
	<path d="M626.691-32.306c0.913,2.007,1.718,3.404,2.063,3.977c0.648,0.081,1.306,0.136,1.97,0.16
		c-0.069-0.991-0.156-2.302-0.245-3.854C629.195-32.067,627.934-32.163,626.691-32.306z"/>
	<path d="M621.667-33.157c1.919,2.419,3.559,3.931,3.821,4.167c0.228,0.064,0.457,0.124,0.687,0.182
		c-0.517-0.957-1.163-2.249-1.835-3.826C623.435-32.785,622.542-32.957,621.667-33.157z"/>
	<path d="M626.455-65.982c1.231,0.405,2.56,0.7,3.972,0.84c0.151-3.56,0.301-6.292,0.384-7.728c-0.286,0.01-0.574,0.016-0.858,0.035
		C629.314-71.793,627.881-69.317,626.455-65.982z"/>
	<path d="M630.37-34.036c-0.093-1.816-0.182-3.861-0.251-6.044c-2.181-0.075-4.302-0.307-6.341-0.68
		c0.562,2.364,1.281,4.502,2.006,6.322C627.277-34.229,628.808-34.095,630.37-34.036z"/>
	<path d="M614.839-50.527c-0.029,1.761,0.187,3.469,0.568,5.104c1.798,0.823,3.74,1.513,5.799,2.05
		c-0.317-1.982-0.495-4.086-0.488-6.266c-2.082-0.646-4.02-1.475-5.78-2.449C614.886-51.571,614.848-51.052,614.839-50.527z"/>
	<path d="M622.567-70.993c-0.733,0.323-1.45,0.676-2.14,1.073c0.174,0.228,0.386,0.439,0.588,0.655
		C621.557-69.899,622.079-70.478,622.567-70.993z"/>
	<path d="M623.913-58.563c1.927,0.615,4.027,1.022,6.238,1.192c0.059-2.053,0.125-3.991,0.194-5.771
		c-1.646-0.157-3.205-0.499-4.643-0.99C625.044-62.425,624.421-60.55,623.913-58.563z"/>
	<path d="M629.988-48.056c-2.539-0.109-4.978-0.471-7.277-1.036c0.028,2.165,0.262,4.251,0.622,6.216
		c2.149,0.434,4.402,0.706,6.73,0.792C630.017-44.013,629.988-46.022,629.988-48.056z"/>
	<path d="M629.998-50.057c0.004-0.412,0.009-0.823,0.016-1.235c0.022-1.392,0.052-2.754,0.084-4.079
		c-2.341-0.175-4.573-0.603-6.634-1.253c-0.365,1.776-0.623,3.619-0.717,5.492C625.023-50.546,627.456-50.17,629.998-50.057z"/>
	<path d="M622.529-67.916c0.613,0.44,1.311,0.826,2.047,1.179c1.038-2.431,2.081-4.412,2.853-5.767
		c-0.185,0.035-0.369,0.07-0.552,0.109l0.017,0.021C626.846-72.334,624.869-70.673,622.529-67.916z"/>
	<path d="M619.749-67.715c-0.361-0.366-0.695-0.747-0.991-1.144c-1.591,1.113-3.03,2.427-4.282,3.906
		c0.538,0.783,1.196,1.521,1.946,2.214C617.457-64.585,618.612-66.259,619.749-67.715z"/>
	<path d="M615.255-54.165c1.661,0.977,3.514,1.812,5.523,2.467c0.121-1.925,0.396-3.807,0.777-5.613
		c-1.623-0.653-3.111-1.448-4.434-2.36C616.312-57.942,615.653-56.095,615.255-54.165z"/>
	<path d="M618.025-61.445c1.178,0.837,2.516,1.572,3.986,2.182c0.519-2.012,1.15-3.904,1.815-5.628
		c-0.92-0.436-1.771-0.937-2.534-1.497C620.171-64.94,619.031-63.275,618.025-61.445z"/>
</g>
<g>
</g>
<g>
</g>
<g>
</g>
<g>
</g>
<g>
</g>
<g>
</g>
<g>
</g>
<g>
</g>
<g>
</g>
<g>
</g>
<g>
</g>
<g>
</g>
<g>
</g>
<g>
</g>
<g>
</g>
</svg>
