<?xml version="1.0" encoding="iso-8859-1"?>
<!-- Generator: Adobe Illustrator 16.0.0, SVG Export Plug-In . SVG Version: 6.00 Build 0)  -->
<!DOCTYPE svg PUBLIC "-//W3C//DTD SVG 1.1//EN" "http://www.w3.org/Graphics/SVG/1.1/DTD/svg11.dtd">
<svg version="1.1" id="Layer_1" xmlns="http://www.w3.org/2000/svg" xmlns:xlink="http://www.w3.org/1999/xlink" x="0px" y="0px"
	 width="46.71px" height="46.748px" viewBox="0 0 46.71 46.748" style="enable-background:new 0 0 46.71 46.748;"
	 xml:space="preserve">
<g>
	<polygon style="fill:none;" points="-203.674,16.987 -204.813,16.228 -204.766,15.815 -203.859,15.866 -203.888,15.421 
		-204.526,15.154 -205.275,15.219 -205.46,15.644 -205.424,16.504 -204.498,17.181 -204.498,17.531 -204.98,17.949 -205.045,18.245 
		-204.129,18.31 -204.017,18.485 -203.434,18.532 -203.183,18.292 -203.183,17.903 -203.674,17.542 	"/>
	<polygon style="fill:none;" points="-208.627,16.834 -208.672,15.938 -208.985,15.783 -209.152,16.044 -209.917,16.133 
		-210.266,16.242 -210.588,16.604 -210.588,17.588 -210.156,17.529 -208.716,17.588 -207.717,17.588 -207.791,17.178 	"/>
	<polygon style="fill:none;" points="-214.09,10.556 -214.097,12.369 -215.054,12.854 -214.958,13.173 -213.43,13.187 
		-212.549,11.875 -212.59,11.277 -213.215,10.986 -213.215,10.542 -212.112,9.868 -212.112,9.424 -212.466,9.424 	"/>
	<polygon points="-194.808,27.622 -194.576,28.25 -193.733,27.937 -193.641,27.066 -194.319,26.933 	"/>
	<polygon points="-204.693,34.954 -205.841,34.805 -205.841,35.693 -205.433,36.175 -205.748,36.656 -206.211,37.193 
		-206.211,38.173 -205.58,38.785 -205.006,37.863 -203.879,36.211 -203.34,33.62 -204.026,33.62 	"/>
	<polygon points="-219.187,13.081 -219.142,13.441 -219.679,13.552 -219.753,14.321 -219.104,14.321 -218.244,14.238 -217.8,13.709 
		-218.272,13.525 -218.53,13.229 -218.919,12.599 -219.104,11.71 -219.836,11.858 -220.04,12.172 -220.04,12.525 -219.688,12.766 	
		"/>
	<polygon points="-219.809,13.376 -219.771,12.896 -220.198,12.71 -220.798,12.849 -221.242,13.562 -221.242,14.025 
		-220.725,14.025 	"/>
	<path d="M-191.641,7.015c0.012,0.012,0.024,0.023,0.037,0.035C-191.616,7.038-191.628,7.027-191.641,7.015z"/>
	<path d="M-207.163-1.292c-13.406,0-24.313,10.907-24.313,24.313s10.907,24.313,24.313,24.313s24.313-10.907,24.313-24.313
		S-193.757-1.292-207.163-1.292z M-207.163,45.333c-12.303,0-22.313-10.009-22.313-22.313s10.009-22.313,22.313-22.313
		c6.048,0,11.539,2.422,15.562,6.344c0.262,0.255,0.513,0.521,0.763,0.79h-3.153l-1.584-0.945l-3.172,0.201l-2.41,1.077l0.02,1.25
		l-0.742,0.222l-0.167-1.25l-0.277-0.434l-0.833-0.205l-0.194,0.75l0.25,0.61l-2.962-0.194l-1.414,0.656l-0.214-0.619l-0.352,0.092
		l-0.258,0.685l-0.741,0.579l-1.806-0.051l-0.082-0.398l1.888-0.083l0.389-0.333l-2.276-1.056l-2.778,0.083l-1.555,0.796
		l-0.583,1.042l-1.027,0.403l-0.433,0.47l0.1,0.548l0.529,0.074l0.321,0.798l0.913-0.368l0.152,1.068h-0.277l-0.751-0.111
		l-0.832,0.139l-0.805,1.138l-1.153,0.181l-0.166,0.986l0.486,0.116l-0.139,0.633l-1.145-0.229l-1.05,0.229l-0.222,0.584
		l0.182,1.226l0.617,0.288l1.032-0.006l0.698-0.063l0.214-0.555l1.09-1.417l0.716,0.147l0.708-0.639l0.132,0.5l1.739,1.173
		l-0.212,0.286l-0.784-0.042l0.303,0.428l0.481,0.106l0.566-0.236l-0.011-0.68l0.251-0.126l-0.202-0.214l-1.159-0.647l-0.306-0.86
		h0.965l0.307,0.306l0.832,0.715l0.035,0.866l0.861,0.917l0.32-1.256l0.597-0.325l0.111,1.027l0.583,0.639l1.758-0.029l0.519,0.39
		v0.917l-0.638,0.583h-1.777l-1.083-0.806l-1.139,0.111v0.695h-0.362l-0.388-0.277l-1.973-0.5v-1.278l-2.5,0.195l-0.776,0.417
		h-0.992l-0.487-0.049l-1.206,0.669v1.259l-2.462,1.777l0.205,0.759h0.5l-0.13,0.722l-0.352,0.128l-0.018,1.889l2.127,2.425h0.927
		l0.055-0.148h1.666l0.48-0.444h0.945l0.518,0.519l1.406,0.147l-0.185,1.871l1.564,2.758l-0.824,1.574l0.056,0.741l0.649,0.647
		v1.781l0.85,1.145v1.481h2.519l1.888-1.943l0.592-1.056l0.758-0.167v-0.888l0.5-0.593l1.056-1.443l-0.222-2.201l-0.464-0.817
		l2.079-1.984l2.289-3.273l-0.444-0.205l-2.378,0.5l-0.612-0.305l-2.499-4.708l0.176-0.204l2.477,3.008l0.061,0.931l0.573,0.575
		l1.166-0.075l2.435-1.763l0.763-0.5l-0.014-0.611l-0.813-0.106c0,0-2.851-1.344-2.851-1.403c0-0.06,0.018-1.153,0.018-1.153h0.629
		l0.093,0.797l1.322,0.759l1.51,0.074l3.277,0.536l0.767,0.482v0.75l-0.098,1.02l1.679,2.763l0.542,0.125l0.541-0.785l0.298-2.235
		l0.56-1.204l0.903-0.336l1.593,0.152l1.998,1.776v2.555l2.638,2.526l0.139-0.443l-2.138-3.055l0.222-0.889l1.13,1.281l0.63,0.066
		l0.829-0.552l-0.138-0.833l-1.369-1.102l-0.055-1l0.39-0.527l0.694,0.222l-0.056,0.472l0.396,0.61l0.353-0.25l-0.193-0.722
		l0.754-0.27c0,0.013,0.001,0.025,0.001,0.038C-184.851,35.324-194.86,45.333-207.163,45.333z M-205.424,16.504l-0.036-0.86
		l0.185-0.425l0.749-0.064l0.639,0.267l0.028,0.445l-0.907-0.051l-0.047,0.413l1.139,0.759v0.555l0.492,0.361v0.389l-0.251,0.24
		l-0.583-0.047l-0.112-0.175l-0.917-0.065l0.065-0.296l0.483-0.417v-0.351L-205.424,16.504z M-207.717,17.588h-0.999l-1.44-0.059
		l-0.432,0.059v-0.984l0.323-0.362l0.349-0.108l0.765-0.089l0.167-0.261l0.313,0.156l0.044,0.896l0.836,0.344L-207.717,17.588z
		 M-212.59,11.277l0.041,0.598l-0.881,1.312l-1.528-0.014l-0.096-0.319l0.957-0.485l0.007-1.813l1.625-1.132h0.354v0.444
		l-1.103,0.674v0.444L-212.59,11.277z"/>
</g>
<g>
</g>
<g>
</g>
<g>
</g>
<g>
</g>
<g>
</g>
<g>
</g>
<g>
</g>
<g>
</g>
<g>
</g>
<g>
</g>
<g>
</g>
<g>
</g>
<g>
</g>
<g>
</g>
<g>
</g>
</svg>
