<?xml version="1.0" encoding="iso-8859-1"?>
<!-- Generator: Adobe Illustrator 16.0.0, SVG Export Plug-In . SVG Version: 6.00 Build 0)  -->
<!DOCTYPE svg PUBLIC "-//W3C//DTD SVG 1.1//EN" "http://www.w3.org/Graphics/SVG/1.1/DTD/svg11.dtd">
<svg version="1.1" id="Layer_1" xmlns="http://www.w3.org/2000/svg" xmlns:xlink="http://www.w3.org/1999/xlink" x="0px" y="0px"
	 width="48.748px" height="48.758px" viewBox="0 0 48.748 48.758" style="enable-background:new 0 0 48.748 48.758;"
	 xml:space="preserve">
<path d="M434.375-50.49c-0.034-2.238-0.371-4.404-0.973-6.46c-0.222-0.759-0.479-1.501-0.771-2.228
	c-0.593-1.475-1.326-2.879-2.183-4.195c-0.389-0.597-0.803-1.175-1.24-1.734c-1.201-1.534-2.58-2.92-4.108-4.129
	c-0.523-0.413-1.061-0.809-1.617-1.179c-3.862-2.572-8.495-4.075-13.473-4.075c-4.407,0-8.541,1.182-12.111,3.236
	c-0.586,0.337-1.159,0.696-1.713,1.079c-1.569,1.085-3.006,2.348-4.28,3.761c-0.491,0.546-0.96,1.112-1.401,1.7
	c-1.221,1.628-2.24,3.413-3.027,5.318c-0.301,0.729-0.568,1.474-0.798,2.235c-0.619,2.045-0.971,4.202-1.026,6.433
	c-0.005,0.204-0.016,0.406-0.016,0.611c0,0.745,0.039,1.48,0.104,2.208c0.246,2.717,0.939,5.304,2.005,7.691
	c0.553,1.239,1.204,2.426,1.948,3.546c4.369,6.58,11.843,10.928,20.315,10.928c8.055,0,15.206-3.929,19.646-9.968
	c0.776-1.057,1.467-2.178,2.067-3.354c1.348-2.636,2.233-5.545,2.54-8.623c0.08-0.799,0.122-1.609,0.122-2.429
	C434.384-50.241,434.376-50.365,434.375-50.49z M410.009-72.49c4.532,0,8.75,1.358,12.278,3.684
	c-2.368,2.498-6.585,4.17-11.399,4.17c-5.256,0-9.804-1.992-12.004-4.879C402.163-71.404,405.96-72.49,410.009-72.49z
	 M397.214-68.454c2.573,3.451,7.732,5.817,13.674,5.817c5.464,0,10.262-2.003,13.001-5.009c1.539,1.221,2.916,2.636,4.088,4.214
	c-3.411,3.914-9.786,6.561-17.089,6.561c-7.979,0-14.85-3.156-17.956-7.677C394.183-66.027,395.623-67.341,397.214-68.454z
	 M391.671-62.91c3.648,4.776,10.891,8.039,19.217,8.039c7.63,0,14.35-2.741,18.228-6.876c0.833,1.365,1.521,2.827,2.049,4.362
	c-4.391,4.661-12.177,7.77-21.038,7.77c-8.976,0-16.854-3.187-21.212-7.949C389.593-59.479,390.525-61.273,391.671-62.91z
	 M410.127-47.615c8.89,0,16.779-3.004,21.66-7.615c0.386,1.644,0.597,3.354,0.597,5.114c0,0.503-0.022,1-0.056,1.495
	c-5.294,4.257-13.281,6.973-22.201,6.973c-9.064,0-17.16-2.807-22.452-7.182c-0.024-0.426-0.04-0.854-0.04-1.286
	c0-1.826,0.225-3.6,0.64-5.3C393.14-50.7,401.119-47.615,410.127-47.615z M410.009-27.743c-6.375,0-12.13-2.684-16.209-6.976
	c4.938,1.991,10.677,3.139,16.803,3.139c5.36,0,10.424-0.88,14.916-2.433C421.493-30.136,416.026-27.743,410.009-27.743z
	 M428.296-37.248c-5.039,2.312-11.132,3.668-17.693,3.668c-7.354,0-14.12-1.706-19.471-4.55c-1.524-2.393-2.605-5.091-3.13-7.982
	c5.609,3.981,13.452,6.464,22.125,6.464c8.533,0,16.267-2.4,21.856-6.27C431.377-42.739,430.096-39.799,428.296-37.248z"/>
<g>
</g>
<g>
</g>
<g>
</g>
<g>
</g>
<g>
</g>
<g>
</g>
<g>
</g>
<g>
</g>
<g>
</g>
<g>
</g>
<g>
</g>
<g>
</g>
<g>
</g>
<g>
</g>
<g>
</g>
</svg>
