<?xml version="1.0" encoding="iso-8859-1"?>
<!-- Generator: Adobe Illustrator 16.0.0, SVG Export Plug-In . SVG Version: 6.00 Build 0)  -->
<!DOCTYPE svg PUBLIC "-//W3C//DTD SVG 1.1//EN" "http://www.w3.org/Graphics/SVG/1.1/DTD/svg11.dtd">
<svg version="1.1" id="Layer_1" xmlns="http://www.w3.org/2000/svg" xmlns:xlink="http://www.w3.org/1999/xlink" x="0px" y="0px"
	 width="48.748px" height="48.758px" viewBox="0 0 48.748 48.758" style="enable-background:new 0 0 48.748 48.758;"
	 xml:space="preserve">
<g>
	<path d="M706.212-72.679c-0.165,2.812-0.637,11.498-0.803,21.649c-0.155,9.456,0.429,19.055,0.713,23.053
		c0.688-0.026,1.369-0.084,2.041-0.172c1.098-1.827,6.191-10.909,6.015-21.7c-0.174-10.601-5.835-20.468-7.259-22.786
		C706.685-72.652,706.449-72.668,706.212-72.679z"/>
	<path d="M714.462-70.72c3.741,3.971,9.541,11.534,9.687,20.389c0.137,8.354-4.534,15.458-7.935,19.508
		c6.817-3.839,11.434-11.141,11.434-19.505C727.647-59.391,722.229-67.206,714.462-70.72z"/>
	<path d="M709.441-72.307c2.173,3.812,6.576,12.703,6.736,22.425c0.157,9.594-3.521,17.695-5.435,21.248
		c0.298-0.075,0.593-0.159,0.886-0.246c1.361-1.265,10.701-10.35,10.52-21.418c-0.194-11.883-11.937-21.749-12.055-21.847
		l0.02-0.024C709.891-72.218,709.667-72.264,709.441-72.307z"/>
	<path d="M698.683-28.947c0.269,0.084,0.54,0.159,0.813,0.232c-1.927-3.598-5.546-11.652-5.39-21.167
		c0.159-9.678,4.523-18.533,6.707-22.373c-0.182,0.037-0.359,0.081-0.539,0.122c-0.348,0.292-11.848,10.072-12.04,21.835
		C688.056-39.384,697.1-30.428,698.683-28.947z"/>
	<path d="M704.208-72.675c-0.286,0.013-0.57,0.036-0.854,0.061c-1.447,2.362-7.074,12.215-7.247,22.766
		c-0.176,10.724,4.854,19.759,5.993,21.665c0.664,0.094,1.336,0.164,2.018,0.199c-0.29-4.125-0.862-13.671-0.708-23.078
		C703.574-61.102,704.036-69.72,704.208-72.675z"/>
	<path d="M695.801-70.592c-7.614,3.574-12.901,11.312-12.901,20.264c0,8.236,4.477,15.441,11.12,19.325
		c-3.386-4.078-7.92-11.094-7.785-19.328C686.378-59.091,692.057-66.588,695.801-70.592z"/>
</g>
<g>
</g>
<g>
</g>
<g>
</g>
<g>
</g>
<g>
</g>
<g>
</g>
<g>
</g>
<g>
</g>
<g>
</g>
<g>
</g>
<g>
</g>
<g>
</g>
<g>
</g>
<g>
</g>
<g>
</g>
</svg>
