<?xml version="1.0" encoding="iso-8859-1"?>
<!-- Generator: Adobe Illustrator 16.0.0, SVG Export Plug-In . SVG Version: 6.00 Build 0)  -->
<!DOCTYPE svg PUBLIC "-//W3C//DTD SVG 1.1//EN" "http://www.w3.org/Graphics/SVG/1.1/DTD/svg11.dtd">
<svg version="1.1" id="Layer_1" xmlns="http://www.w3.org/2000/svg" xmlns:xlink="http://www.w3.org/1999/xlink" x="0px" y="0px"
	 width="48.748px" height="48.758px" viewBox="0 0 48.748 48.758" style="enable-background:new 0 0 48.748 48.758;"
	 xml:space="preserve">
<path d="M24.373,0C10.934,0,0,10.935,0,24.374c0,13.103,10.394,23.818,23.368,24.348c0.005,0.062,1.005,0.025,1.005,0.025
	c13.44,0,24.375-10.934,24.375-24.373S37.813,0,24.373,0z M41.249,24.404c0.182,11.068-9.158,20.153-10.52,21.418
	c-0.293,0.087-0.588,0.171-0.886,0.246c1.914-3.553,5.592-11.654,5.435-21.248c-0.16-9.722-4.563-18.613-6.736-22.425
	c0.226,0.043,0.449,0.089,0.672,0.138l-0.02,0.024C29.313,2.655,41.055,12.521,41.249,24.404z M24.51,23.673
	c0.166-10.151,0.638-18.838,0.803-21.649c0.237,0.011,0.473,0.026,0.707,0.044c1.424,2.318,7.085,12.186,7.259,22.786
	c0.177,10.791-4.917,19.873-6.015,21.7c-0.672,0.088-1.353,0.146-2.041,0.172C24.938,42.728,24.354,33.129,24.51,23.673z
	 M7.335,24.404C7.527,12.642,19.027,2.861,19.375,2.569c0.18-0.041,0.357-0.085,0.539-0.122c-2.184,3.84-6.548,12.695-6.707,22.373
	c-0.156,9.515,3.463,17.569,5.39,21.167c-0.273-0.073-0.545-0.148-0.813-0.232C16.2,44.274,7.156,35.318,7.335,24.404z M2,24.374
	C2,15.422,7.287,7.685,14.901,4.11c-3.744,4.004-9.423,11.501-9.566,20.261C5.2,32.605,9.734,39.621,13.12,43.699
	C6.477,39.815,2,32.61,2,24.374z M21.2,46.519c-1.14-1.906-6.169-10.941-5.993-21.665c0.173-10.551,5.8-20.403,7.247-22.766
	c0.284-0.024,0.568-0.048,0.854-0.061c-0.172,2.955-0.634,11.573-0.799,21.612c-0.154,9.407,0.418,18.953,0.708,23.078
	C22.536,46.683,21.864,46.612,21.2,46.519z M35.314,43.879c3.4-4.05,8.071-11.153,7.935-19.508
	c-0.146-8.854-5.945-16.418-9.687-20.389c7.767,3.514,13.186,11.329,13.186,20.392C46.748,32.738,42.132,40.04,35.314,43.879z"/>
<g>
</g>
<g>
</g>
<g>
</g>
<g>
</g>
<g>
</g>
<g>
</g>
<g>
</g>
<g>
</g>
<g>
</g>
<g>
</g>
<g>
</g>
<g>
</g>
<g>
</g>
<g>
</g>
<g>
</g>
</svg>
