<?xml version="1.0" encoding="iso-8859-1"?>
<!-- Generator: Adobe Illustrator 16.0.0, SVG Export Plug-In . SVG Version: 6.00 Build 0)  -->
<!DOCTYPE svg PUBLIC "-//W3C//DTD SVG 1.1//EN" "http://www.w3.org/Graphics/SVG/1.1/DTD/svg11.dtd">
<svg version="1.1" id="Layer_1" xmlns="http://www.w3.org/2000/svg" xmlns:xlink="http://www.w3.org/1999/xlink" x="0px" y="0px"
	 width="45.553px" height="48.496px" viewBox="0 0 45.553 48.496" style="enable-background:new 0 0 45.553 48.496;"
	 xml:space="preserve">
<path d="M-34.219-647.79c-0.001-0.046,0-0.087-0.001-0.133l-0.101,0.004c-4.465-5.7-11.405-9.374-19.19-9.374
	c-13.439,0-24.373,10.934-24.373,24.373c0,13.44,10.934,24.375,24.373,24.375c13.44,0,24.374-10.935,24.374-24.375
	C-29.137-638.515-31.037-643.672-34.219-647.79z M-37.501-625.479c-2.882,2.312-6.148,4.933-6.344,12.71l0.05,0.001
	c-2.484,1.203-5.225,1.953-8.113,2.159c0.511-9.554,4.374-12.681,8.465-15.963c4.303-3.452,8.724-7.036,9.198-17.706
	c1.063,1.796,1.885,3.75,2.414,5.82l-0.102,0.004C-31.65-630.173-34.492-627.893-37.501-625.479z M-36.21-647.089
	c0.225,11.937-4.002,15.361-8.484,18.957c-4.282,3.436-8.693,7.006-9.216,17.577c-2.004-0.036-3.944-0.336-5.788-0.867
	c0.32-11.293,4.686-14.804,9.309-18.514c4.913-3.941,9.981-8.018,10.045-21.058C-38.808-649.87-37.417-648.56-36.21-647.089z
	 M-51.642-631.495c-4.693,3.765-9.53,7.678-10.025,19.404c-1.813-0.713-3.511-1.652-5.059-2.789
	c0.412-10.853,4.72-14.297,9.286-17.922c5.014-3.98,10.192-8.093,10.051-21.633c1.778,0.507,3.465,1.228,5.034,2.134
	C-42.084-639.173-46.728-635.438-51.642-631.495z M-63.314-640.285c-4.545,2.831-9.623,6.026-10.84,15.987
	c-0.621-1.482-1.082-3.046-1.373-4.668c0.217-8.516,3.681-10.674,7.348-12.958c3.472-2.163,7.05-4.403,6.848-11.956
	c1.95-0.729,4.029-1.19,6.191-1.348C-54.657-645.71-58.673-643.177-63.314-640.285z M-63.324-653.021
	c-0.06,5.732-2.676,7.383-5.913,9.399c-2.109,1.313-4.375,2.729-6.006,5.396C-73.655-644.732-69.215-650.134-63.324-653.021z
	 M-72.41-620.967c0.383-11.518,5.346-14.626,10.153-17.621c4.746-2.956,9.631-6.034,9.113-16.696
	c1.277,0.021,2.528,0.149,3.745,0.376c0.26,12.952-4.377,16.644-9.284,20.54c-4.517,3.586-9.175,7.292-9.963,17.908
	C-70.089-617.788-71.354-619.304-72.41-620.967z M-41.789-613.872c0.427-5.94,2.914-7.939,5.54-10.047
	c1.785-1.432,3.599-2.898,4.827-5.448C-32.471-622.825-36.363-617.223-41.789-613.872z"/>
<g>
</g>
<g>
</g>
<g>
</g>
<g>
</g>
<g>
</g>
<g>
</g>
<g>
</g>
<g>
</g>
<g>
</g>
<g>
</g>
<g>
</g>
<g>
</g>
<g>
</g>
<g>
</g>
<g>
</g>
</svg>
