<?xml version="1.0" encoding="iso-8859-1"?>
<!-- Generator: Adobe Illustrator 16.0.0, SVG Export Plug-In . SVG Version: 6.00 Build 0)  -->
<!DOCTYPE svg PUBLIC "-//W3C//DTD SVG 1.1//EN" "http://www.w3.org/Graphics/SVG/1.1/DTD/svg11.dtd">
<svg version="1.1" id="Layer_1" xmlns="http://www.w3.org/2000/svg" xmlns:xlink="http://www.w3.org/1999/xlink" x="0px" y="0px"
	 width="45.553px" height="48.496px" viewBox="0 0 45.553 48.496" style="enable-background:new 0 0 45.553 48.496;"
	 xml:space="preserve">
<g>
	<path d="M351.063-707.414c0-1.76-0.211-3.471-0.597-5.114c-4.881,4.611-12.771,7.615-21.66,7.615
		c-9.008,0-16.986-3.085-21.852-7.801c-0.414,1.7-0.64,3.474-0.64,5.3c0,0.432,0.015,0.86,0.04,1.286
		c5.291,4.375,13.387,7.182,22.451,7.182c8.92,0,16.906-2.716,22.201-6.973C351.041-706.414,351.063-706.911,351.063-707.414z"/>
	<path d="M312.479-692.017c4.079,4.292,9.835,6.976,16.209,6.976c6.018,0,11.483-2.393,15.51-6.27
		c-4.491,1.553-9.556,2.433-14.916,2.433C323.156-688.878,317.417-690.025,312.479-692.017z"/>
	<path d="M350.662-703.216c-5.589,3.869-13.322,6.27-21.855,6.27c-8.674,0-16.516-2.482-22.125-6.464
		c0.524,2.892,1.605,5.59,3.13,7.982c5.351,2.844,12.116,4.55,19.471,4.55c6.562,0,12.655-1.356,17.693-3.668
		C348.775-697.097,350.057-700.037,350.662-703.216z"/>
	<path d="M307.595-714.862c4.358,4.763,12.236,7.949,21.212,7.949c8.861,0,16.647-3.108,21.038-7.77
		c-0.528-1.535-1.216-2.997-2.05-4.362c-3.878,4.135-10.598,6.876-18.228,6.876c-8.325,0-15.569-3.263-19.217-8.039
		C309.205-718.571,308.273-716.777,307.595-714.862z"/>
	<path d="M340.967-726.104c-3.527-2.325-7.746-3.684-12.278-3.684c-4.048,0-7.846,1.086-11.125,2.975
		c2.2,2.887,6.747,4.879,12.004,4.879C334.381-721.935,338.599-723.606,340.967-726.104z"/>
	<path d="M315.894-725.752c-1.591,1.113-3.03,2.427-4.282,3.906c3.106,4.521,9.978,7.677,17.956,7.677
		c7.304,0,13.679-2.646,17.089-6.561c-1.172-1.578-2.549-2.993-4.088-4.214c-2.739,3.006-7.537,5.009-13.001,5.009
		C323.625-719.935,318.467-722.301,315.894-725.752z"/>
</g>
<g>
</g>
<g>
</g>
<g>
</g>
<g>
</g>
<g>
</g>
<g>
</g>
<g>
</g>
<g>
</g>
<g>
</g>
<g>
</g>
<g>
</g>
<g>
</g>
<g>
</g>
<g>
</g>
<g>
</g>
</svg>
