<?xml version="1.0" encoding="iso-8859-1"?>
<!-- Generator: Adobe Illustrator 16.0.0, SVG Export Plug-In . SVG Version: 6.00 Build 0)  -->
<!DOCTYPE svg PUBLIC "-//W3C//DTD SVG 1.1//EN" "http://www.w3.org/Graphics/SVG/1.1/DTD/svg11.dtd">
<svg version="1.1" id="Layer_1" xmlns="http://www.w3.org/2000/svg" xmlns:xlink="http://www.w3.org/1999/xlink" x="0px" y="0px"
	 width="45.553px" height="48.496px" viewBox="0 0 45.553 48.496" style="enable-background:new 0 0 45.553 48.496;"
	 xml:space="preserve">
<g>
	<path d="M12.5-67.321c2.007,0,3.634-1.627,3.634-3.634c0-0.997-0.411-1.889-1.064-2.542c-2.208,0.829-4.25,1.996-6.068,3.436
		C9.399-68.489,10.804-67.321,12.5-67.321z"/>
	<path d="M4.148-64.783c-1.318,1.99-2.328,4.199-2.964,6.562c0.366,0.128,0.754,0.207,1.165,0.207c2.007,0,3.634-1.626,3.634-3.634
		C5.982-62.996,5.24-64.158,4.148-64.783z"/>
	<circle cx="12.5" cy="-61.648" r="3.634"/>
	<circle cx="22.575" cy="-70.955" r="3.634"/>
	<path d="M32.728-67.321c1.871,0,3.395-1.42,3.594-3.238c-1.801-1.323-3.806-2.383-5.957-3.129
		c-0.774,0.663-1.271,1.635-1.271,2.733C29.093-68.948,30.72-67.321,32.728-67.321z"/>
	<circle cx="22.575" cy="-61.648" r="3.634"/>
	<circle cx="32.728" cy="-61.648" r="3.634"/>
	<path d="M2.348-55.986c-0.624,0-1.202,0.172-1.714,0.448c-0.147,1.042-0.229,2.104-0.229,3.187s0.081,2.145,0.229,3.186
		c0.513,0.276,1.091,0.448,1.714,0.448c2.007,0,3.634-1.627,3.634-3.635C5.982-54.359,4.355-55.986,2.348-55.986z"/>
	<circle cx="12.5" cy="-52.352" r="3.634"/>
	<path d="M2.348-46.68c-0.41,0-0.797,0.078-1.163,0.206c0.639,2.365,1.651,4.578,2.973,6.57c1.089-0.625,1.823-1.796,1.823-3.143
		C5.982-45.053,4.355-46.68,2.348-46.68z"/>
	<circle cx="12.5" cy="-43.045" r="3.634"/>
	<circle cx="22.575" cy="-52.352" r="3.634"/>
	<circle cx="32.728" cy="-52.352" r="3.634"/>
	<circle cx="22.575" cy="-43.045" r="3.634"/>
	<circle cx="32.728" cy="-43.045" r="3.634"/>
	<path d="M42.476-58.015c0.816,0,1.558-0.281,2.161-0.739c-0.684-2.309-1.726-4.463-3.064-6.4c-1.567,0.403-2.73,1.813-2.73,3.506
		C38.842-59.641,40.469-58.015,42.476-58.015z"/>
	<path d="M45.47-54.408c-0.655-0.952-1.75-1.578-2.994-1.578c-2.007,0-3.634,1.627-3.634,3.634c0,2.008,1.626,3.635,3.634,3.635
		c1.243,0,2.338-0.626,2.994-1.578c0.062-0.678,0.098-1.362,0.098-2.056S45.531-53.73,45.47-54.408z"/>
	<path d="M38.842-43.046c0,1.691,1.16,3.101,2.725,3.506c1.341-1.938,2.385-4.097,3.07-6.409c-0.604-0.453-1.347-0.73-2.161-0.73
		C40.469-46.68,38.842-45.053,38.842-43.046z"/>
	<path d="M12.663-37.144c-1.662,0-3.047,1.122-3.476,2.647c1.851,1.435,3.928,2.589,6.171,3.396
		c0.578-0.641,0.939-1.479,0.939-2.409C16.297-35.517,14.67-37.144,12.663-37.144z"/>
	<circle cx="22.738" cy="-33.509" r="3.634"/>
	<path d="M32.891-37.144c-2.007,0-3.634,1.627-3.634,3.635c0,0.981,0.394,1.868,1.026,2.521c2.226-0.763,4.297-1.858,6.15-3.235
		C36.101-35.886,34.651-37.144,32.891-37.144z"/>
</g>
<g>
</g>
<g>
</g>
<g>
</g>
<g>
</g>
<g>
</g>
<g>
</g>
<g>
</g>
<g>
</g>
<g>
</g>
<g>
</g>
<g>
</g>
<g>
</g>
<g>
</g>
<g>
</g>
<g>
</g>
</svg>
