<?xml version="1.0" encoding="iso-8859-1"?>
<!-- Generator: Adobe Illustrator 16.0.0, SVG Export Plug-In . SVG Version: 6.00 Build 0)  -->
<!DOCTYPE svg PUBLIC "-//W3C//DTD SVG 1.1//EN" "http://www.w3.org/Graphics/SVG/1.1/DTD/svg11.dtd">
<svg version="1.1" id="Layer_1" xmlns="http://www.w3.org/2000/svg" xmlns:xlink="http://www.w3.org/1999/xlink" x="0px" y="0px"
	 width="45.553px" height="48.496px" viewBox="0 0 45.553 48.496" style="enable-background:new 0 0 45.553 48.496;"
	 xml:space="preserve">
<g>
	<path d="M86.965-33.206c-0.105-0.063-0.211-0.126-0.316-0.19C86.754-33.332,86.859-33.269,86.965-33.206z"/>
	<path d="M111.139-33.936c-0.034,0.022-0.066,0.046-0.1,0.068C111.072-33.89,111.105-33.913,111.139-33.936z"/>
	<path d="M79.28-40.76c-0.049-0.08-0.098-0.16-0.146-0.241C79.183-40.92,79.231-40.84,79.28-40.76z"/>
	<path d="M85.482-34.171c-0.176-0.124-0.354-0.246-0.525-0.376C85.129-34.417,85.306-34.295,85.482-34.171z"/>
	<path d="M108.314-32.303c-0.051,0.025-0.103,0.05-0.154,0.074C108.212-32.253,108.263-32.277,108.314-32.303z"/>
	<path d="M118.287-41.813c0.001-0.002,0.003-0.005,0.004-0.008C118.29-41.818,118.288-41.815,118.287-41.813z"/>
	<path d="M114.333-43.296c0-2.007,1.626-3.634,3.634-3.634c0.803,0,1.534,0.271,2.134,0.713c0.402-1.372,0.677-2.798,0.81-4.265
		c-0.66,0.914-1.73,1.514-2.944,1.514c-2.007,0-3.634-1.627-3.634-3.635c0-2.007,1.626-3.634,3.634-3.634
		c1.207,0,2.271,0.593,2.932,1.499c-0.142-1.455-0.425-2.867-0.832-4.227c-0.592,0.432-1.31,0.699-2.1,0.699
		c-2.007,0-3.634-1.626-3.634-3.634c0-1.657,1.117-3.036,2.634-3.473c-1.424-2.038-3.177-3.83-5.184-5.299
		c-0.262,1.749-1.744,3.099-3.565,3.099c-2.007,0-3.634-1.627-3.634-3.634c0-1.036,0.453-1.95,1.152-2.608
		c-2.279-0.773-4.719-1.199-7.26-1.199c-2.747,0-5.378,0.492-7.813,1.39c0.588,0.642,0.961,1.479,0.961,2.418
		c0,2.007-1.627,3.634-3.634,3.634c-1.649,0-3.015-1.107-3.455-2.614c-1.867,1.47-3.497,3.225-4.818,5.204
		c1.047,0.635,1.755,1.77,1.755,3.083c0,2.008-1.627,3.634-3.634,3.634c-0.386,0-0.75-0.074-1.097-0.189
		c-0.235,0.86-0.422,1.739-0.554,2.637c0.497-0.258,1.052-0.419,1.651-0.419c2.007,0,3.634,1.627,3.634,3.634
		c0,2.008-1.627,3.635-3.634,3.635c-0.606,0-1.168-0.164-1.67-0.428c0.126,0.906,0.306,1.796,0.538,2.664
		c0.356-0.122,0.734-0.198,1.132-0.198c2.007,0,3.634,1.627,3.634,3.634c0,1.34-0.728,2.506-1.809,3.133
		c1.366,2.064,3.065,3.89,5.02,5.402c0.434-1.518,1.814-2.633,3.47-2.633c2.007,0,3.634,1.627,3.634,3.635
		c0,0.922-0.356,1.752-0.924,2.39c2.378,0.853,4.94,1.319,7.613,1.319c2.549,0,4.997-0.429,7.281-1.207
		c-0.623-0.651-1.011-1.529-1.011-2.502c0-2.008,1.627-3.635,3.634-3.635c1.754,0,3.199,1.25,3.537,2.905
		c1.986-1.476,3.717-3.271,5.123-5.308C115.485-40.206,114.333-41.61,114.333-43.296z M87.99-39.661
		c-2.007,0-3.634-1.627-3.634-3.635c0-2.007,1.627-3.634,3.634-3.634c2.007,0,3.634,1.627,3.634,3.634
		C91.625-41.288,89.998-39.661,87.99-39.661z M87.99-48.968c-2.007,0-3.634-1.627-3.634-3.635c0-2.007,1.627-3.634,3.634-3.634
		c2.007,0,3.634,1.627,3.634,3.634C91.625-50.595,89.998-48.968,87.99-48.968z M87.99-58.265c-2.007,0-3.634-1.626-3.634-3.634
		c0-2.007,1.627-3.634,3.634-3.634c2.007,0,3.634,1.627,3.634,3.634C91.625-59.891,89.998-58.265,87.99-58.265z M98.065-74.839
		c2.007,0,3.634,1.627,3.634,3.634s-1.626,3.634-3.634,3.634s-3.634-1.627-3.634-3.634S96.058-74.839,98.065-74.839z M98.065-65.532
		c2.007,0,3.634,1.627,3.634,3.634c0,2.008-1.626,3.634-3.634,3.634s-3.634-1.626-3.634-3.634
		C94.432-63.905,96.058-65.532,98.065-65.532z M98.065-56.236c2.007,0,3.634,1.627,3.634,3.634c0,2.008-1.626,3.635-3.634,3.635
		s-3.634-1.627-3.634-3.635C94.432-54.609,96.058-56.236,98.065-56.236z M98.065-46.93c2.007,0,3.634,1.627,3.634,3.634
		c0,2.008-1.626,3.635-3.634,3.635s-3.634-1.627-3.634-3.635C94.432-45.303,96.058-46.93,98.065-46.93z M98.229-30.125
		c-2.007,0-3.634-1.627-3.634-3.634c0-2.008,1.626-3.635,3.634-3.635s3.634,1.627,3.634,3.635
		C101.863-31.752,100.236-30.125,98.229-30.125z M108.218-39.661c-2.007,0-3.634-1.627-3.634-3.635c0-2.007,1.627-3.634,3.634-3.634
		c2.007,0,3.634,1.627,3.634,3.634C111.852-41.288,110.225-39.661,108.218-39.661z M108.218-48.968
		c-2.007,0-3.634-1.627-3.634-3.635c0-2.007,1.627-3.634,3.634-3.634c2.007,0,3.634,1.627,3.634,3.634
		C111.852-50.595,110.225-48.968,108.218-48.968z M108.218-58.265c-2.007,0-3.634-1.626-3.634-3.634
		c0-2.007,1.627-3.634,3.634-3.634c2.007,0,3.634,1.627,3.634,3.634C111.852-59.891,110.225-58.265,108.218-58.265z"/>
</g>
<g>
</g>
<g>
</g>
<g>
</g>
<g>
</g>
<g>
</g>
<g>
</g>
<g>
</g>
<g>
</g>
<g>
</g>
<g>
</g>
<g>
</g>
<g>
</g>
<g>
</g>
<g>
</g>
<g>
</g>
</svg>
