<?xml version="1.0" encoding="iso-8859-1"?>
<!-- Generator: Adobe Illustrator 16.0.0, SVG Export Plug-In . SVG Version: 6.00 Build 0)  -->
<!DOCTYPE svg PUBLIC "-//W3C//DTD SVG 1.1//EN" "http://www.w3.org/Graphics/SVG/1.1/DTD/svg11.dtd">
<svg version="1.1" id="Layer_1" xmlns="http://www.w3.org/2000/svg" xmlns:xlink="http://www.w3.org/1999/xlink" x="0px" y="0px"
	 width="45.553px" height="48.496px" viewBox="0 0 45.553 48.496" style="enable-background:new 0 0 45.553 48.496;"
	 xml:space="preserve">
<g>
	<polygon style="fill:none;" points="18.462,19.904 18.534,19.62 18.322,19.57 18.09,19.681 18.233,19.978 	"/>
	<polygon style="fill:none;" points="19.095,20.605 18.801,20.605 18.595,20.827 18.562,21.05 18.718,21.133 	"/>
	<polygon style="fill:none;" points="19.329,20.532 19.329,20.35 19.251,20.35 19.251,20.243 18.9,20.243 18.645,20.35 
		18.595,20.477 18.795,20.532 	"/>
	<polygon style="fill:none;" points="19.423,20.321 19.423,20.532 19.606,20.489 	"/>
	<path style="fill:none;" d="M31.224,23.087c-0.012-0.052-0.023-0.102-0.035-0.151l-0.028,0.032L31.224,23.087z"/>
	<polygon style="fill:none;" points="17.796,18.281 17.796,18.142 17.478,18.142 17.46,18.209 17.267,18.209 17.267,18.225 
		17.267,18.403 17.706,18.403 	"/>
	<polygon style="fill:none;" points="20.007,21.072 20.007,20.899 19.668,20.8 19.646,20.8 19.646,20.96 19.725,21.072 	"/>
	<path style="fill:none;" d="M30.126,21.517l-0.044-0.412l-0.238,0.131l-0.129,0.504l-0.345-0.368l-0.014-0.348l-0.334-0.286
		L28.9,20.616h-0.386l0.122,0.344l0.464,0.258l0.081,0.088l-0.101,0.049l0.004,0.272l-0.227,0.096l-0.193-0.043l-0.121-0.171
		l0.314,0.017l0.086-0.114l-0.698-0.47l-0.052-0.199l-0.283,0.255l-0.287-0.059l-0.437,0.567l-0.086,0.222l-0.279,0.025
		l-0.413,0.002l-0.248-0.114l-0.071-0.491l0.089-0.234l0.42-0.091l0.459,0.091l0.056-0.253l-0.195-0.046l0.067-0.396l0.461-0.073
		l0.322-0.455l0.333-0.055l0.302,0.043h0.111l-0.062-0.428l-0.366,0.148l-0.128-0.32l-0.212-0.029l-0.04-0.22l0.173-0.188
		l0.412-0.161l0.104-0.189c-1.571-1.385-3.633-2.229-5.889-2.229c-1.958,0-3.769,0.636-5.241,1.709l0.449-0.004l0.201,0.111
		l0.379,0.081l0.028,0.148l0.601,0.021l-0.081-0.192l-0.534-0.016l0.125-0.117l-0.043-0.142h-0.482l0.525-0.393h0.505l0.237,0.326
		l0.393,0.022l0.237-0.23l0.178,0.09l-0.325,0.317c0,0-0.451,0.009-0.431,0.009c0.022,0,0.038,0.31,0.038,0.31l0.549-0.014
		l0.058-0.148l0.379-0.022l0.045-0.222l-0.223-0.037l0.073-0.2l0.171-0.052l0.593,0.03l-0.326,0.295l0.052,0.231l0.341,0.051
		l-0.021-0.415l0.325-0.171l0.578-0.065l0.838,0.369v0.319l0.268,0.066l-0.135,0.253h-0.377l-0.111,0.289l-0.865-0.205l0.68-0.36
		l-0.259-0.221l-0.587,0.074l-0.051,0.053l-0.002-0.001l-0.01,0.014l-0.167,0.175l-0.279,0.022l0.022,0.14l0.097,0.04l-0.005,0.046
		l-0.226,0.032l-0.017,0.131l-0.217,0.013l-0.04-0.262l-0.388,0.118l-0.796,0.466l0.09,0.327l0.222,0.146l0.445,0.062v0.505
		l0.204-0.034l0.19-0.394l0.473-0.149v-0.606l0.262-0.199l0.637,0.15l-0.045,0.399h0.171l0.468-0.229l0.021,0.526l0.341,0.207
		l-0.015,0.312l-0.326,0.111l0.022,0.104l0.394,0.179l-0.009,0.214l-0.114,0.011c0-0.004,0-0.006,0-0.006l-0.496-0.153l-0.021-0.159
		l0,0l0.145-0.099v-0.146l-0.155-0.039l-0.039,0.135l-0.273,0.041l-0.026-0.01v0.015l-0.095,0.013l-0.078-0.154l-0.089-0.039h-0.194
		l-0.089,0.072v0.161l0.167,0.056l0.164,0.022l-0.037,0.018l-0.149,0.165l-0.066-0.083l-0.146-0.037l-0.396,0.371l0.053,0.043
		l-0.584,0.322l-0.548,0.569l-0.037,0.255l-0.551,0.362l-0.272,0.273l0.03,0.549l-0.379-0.176l0.004-0.321h-1.053l-0.545,0.276
		l-0.236,0.437l-0.094,0.347l0.153,0.335l0.43,0.052l0.682-0.457l0.06,0.227l-0.208,0.394l0.519,0.089l0.053,0.803l0.712,0.12
		l0.451-0.521l0.549,0.11l0.193,0.268l0.526-0.029l0.015-0.156l0.289,0.141l0.326,0.512l0.563,0.007l0.208,0.363l0.029,0.443
		l0.623,0.238l0.786,0.008l0.229,0.377l0.349,0.111l-0.067,0.313l-0.381,0.485l-0.11,1.073l-0.346,0.272l-0.512-0.017l-0.171,0.298
		l0.127,0.556l-0.557,0.713l-0.178,0.326l-0.53,0.255l-0.349,0.053l-0.015,0.146l0.245,0.071l-0.029,0.16l-0.22,0.211l0.133,0.167
		l0.265,0.008l-0.016,0.203l-0.069,0.2l-0.023,0.162l0.391,0.33l-0.052,0.17l-0.531-0.01l-0.528-0.462l-0.412-0.723l0.058-0.698
		l-0.312-0.415l0.127-0.704l-0.185-0.052v-1.528c0,0-0.52-0.393-0.55-0.393c-0.029,0-0.274-0.065-0.274-0.065l-0.052-0.29
		l-0.674-0.845l0.066-0.304l0.021-0.498l0.469-0.326l-0.068-0.556l-0.681-0.051l-0.535-0.609l-0.378-0.103l-0.244-0.045l0.029-0.223
		l-0.311-0.044v0.125l-0.779-0.192l-0.313-0.479l0.127-0.233l-0.492-0.719l-0.086-0.525h-0.2l0.067,0.512l0.341,0.525l-0.037,0.207
		l-0.289-0.043l-0.355-0.607v-0.705l-0.37-0.179v-0.508c-0.459,1.072-0.713,2.254-0.713,3.491c0,4.92,4.002,8.921,8.921,8.921
		c2.789,0,5.282-1.286,6.92-3.297h-0.295v-0.593l-0.341-0.459v-0.714l-0.259-0.258l-0.023-0.297l0.33-0.631l-0.626-1.104
		l0.074-0.749l-0.563-0.059l-0.207-0.207h-0.379l-0.191,0.178h-0.668l-0.022,0.059h-0.372l-0.851-0.971l0.007-0.757l0.141-0.052
		l0.052-0.289h-0.199l-0.082-0.304l0.986-0.713v-0.503l0.482-0.269l0.195,0.02h0.396l0.312-0.167l1.001-0.077v0.512l0.788,0.2
		l0.156,0.111h0.146v-0.279l0.455-0.044l0.435,0.323h0.712l0.049-0.046c-0.07-0.24-0.15-0.476-0.24-0.707l-0.466,0.007
		L30.126,21.517z M26.612,19.226l0.082-0.126l0.293-0.06l0.074,0.355l0.154,0.253l0.104,0.119l0.188,0.073l-0.177,0.211
		l-0.345,0.033h-0.261l0.03-0.307l0.215-0.045l-0.018-0.146l-0.202-0.125l-0.14-0.096V19.226z M26.13,19.782l0.179-0.285l0.24-0.057
		l0.171,0.074l-0.014,0.193l-0.367,0.259H26.13V19.782z M21.283,20.879l-0.185,0.016l0.01-0.13l0.083-0.103l0.11,0.087
		L21.283,20.879z M21.936,20.651l-0.127,0.011l-0.025,0.122l-0.099,0.062l-0.155,0.013c-0.007-0.036-0.01-0.064-0.01-0.064h-0.062
		v-0.132h0.256l0.054-0.137l0.102-0.001l0.115,0.023L21.936,20.651z"/>
	<path style="fill:none;" d="M30.396,21v0.394l0.173-0.023l0.093,0.003c-0.065-0.146-0.136-0.292-0.209-0.437L30.396,21z"/>
	<path style="fill:none;" d="M17.789,18.82c0,0,0.017-0.194,0-0.194s-0.211,0.031-0.211,0.031l-0.312,0.091l0.082,0.1L17.789,18.82z
		"/>
	<polygon style="fill:none;" points="19.963,20.662 19.826,20.577 19.745,20.662 19.854,20.752 	"/>
	<path style="fill:none;" d="M19.274,20.899l0.165-0.031l0.134-0.085v-0.178h-0.299C19.274,20.633,19.274,20.899,19.274,20.899z"/>
	<path style="fill:none;" d="M31.546,21.394l-0.027-0.164l-0.054-0.021c0.026,0.063,0.048,0.125,0.073,0.186H31.546z"/>
	<polygon style="fill:none;" points="19.274,21.055 19.14,21.066 19.095,21.261 19.379,21.261 19.507,21.133 19.507,20.96 
		19.301,20.988 	"/>
	<path style="fill:none;" d="M14.975,20.218c-0.126,0.197-0.246,0.401-0.356,0.611l0.371-0.45L14.975,20.218z"/>
	<path style="fill:none;" d="M28.608,19.498l0.039,0.129l0.611,0.005l0.175-0.261c-0.141-0.173-0.287-0.339-0.439-0.5l-0.003,0.434
		L28.608,19.498z"/>
	<polygon points="26.954,19.588 26.972,19.733 26.757,19.778 26.727,20.085 26.987,20.085 27.332,20.052 27.509,19.841 
		27.32,19.768 27.216,19.648 27.062,19.396 26.987,19.04 26.694,19.1 26.612,19.226 26.612,19.367 26.752,19.463 	"/>
	<polygon points="26.706,19.708 26.72,19.515 26.549,19.44 26.309,19.497 26.13,19.782 26.13,19.967 26.339,19.967 	"/>
	<path d="M21.768,20.525l-0.054,0.137h-0.256v0.132h0.062c0,0,0.003,0.028,0.01,0.064l0.155-0.013l0.099-0.062l0.025-0.122
		l0.127-0.011l0.049-0.104l-0.115-0.023L21.768,20.525z"/>
	<polygon points="21.108,20.765 21.099,20.895 21.283,20.879 21.302,20.749 21.191,20.662 	"/>
	<path d="M32.226,24.886c-0.002-0.284-0.017-0.567-0.044-0.845c-0.09-0.927-0.311-1.815-0.644-2.647
		c-0.025-0.061-0.047-0.123-0.073-0.186c-0.442-1.045-1.063-1.996-1.824-2.816c-0.049-0.054-0.099-0.106-0.149-0.158
		c-0.145-0.149-0.291-0.295-0.445-0.436c-1.728-1.572-4.023-2.533-6.538-2.533c-2.537,0-4.848,0.978-6.581,2.575
		c-0.403,0.372-0.775,0.779-1.11,1.214c-1.271,1.643-2.029,3.699-2.029,5.932c0,5.359,4.361,9.721,9.721,9.721
		c3.771,0,7.044-2.159,8.656-5.305c0.344-0.672,0.612-1.39,0.792-2.141c0.047-0.189,0.086-0.382,0.121-0.576
		c0.098-0.551,0.151-1.119,0.151-1.699C32.229,24.952,32.226,24.919,32.226,24.886z M30.396,21l0.057-0.063
		c0.073,0.145,0.144,0.29,0.209,0.437l-0.093-0.003l-0.173,0.023V21z M28.991,19.305l0.003-0.434c0.152,0.161,0.299,0.327,0.439,0.5
		l-0.175,0.261l-0.611-0.005l-0.039-0.129L28.991,19.305z M17.267,18.225v-0.016h0.193l0.018-0.067h0.318v0.14l-0.09,0.122h-0.439
		V18.225z M17.578,18.657c0,0,0.194-0.031,0.211-0.031s0,0.194,0,0.194l-0.44,0.027l-0.082-0.1L17.578,18.657z M31.017,22.518
		h-0.712l-0.435-0.323l-0.455,0.044v0.279H29.27l-0.156-0.111l-0.788-0.2v-0.512l-1.001,0.077l-0.312,0.167h-0.396l-0.195-0.02
		l-0.482,0.269v0.503l-0.986,0.713l0.082,0.304h0.199l-0.052,0.289l-0.141,0.052l-0.007,0.757l0.851,0.971h0.372l0.022-0.059h0.668
		l0.191-0.178h0.379l0.207,0.207l0.563,0.059l-0.074,0.749l0.626,1.104l-0.33,0.631l0.023,0.297l0.259,0.258v0.714l0.341,0.459
		v0.593h0.295c-1.638,2.011-4.131,3.297-6.92,3.297c-4.919,0-8.921-4.001-8.921-8.921c0-1.237,0.254-2.419,0.713-3.491v-0.278
		l0.318-0.387c0.11-0.21,0.23-0.414,0.356-0.611l0.015,0.161l-0.371,0.45c-0.114,0.217-0.222,0.438-0.318,0.665v0.508l0.37,0.179
		v0.705l0.355,0.607l0.289,0.043l0.037-0.207l-0.341-0.525l-0.067-0.512h0.2l0.086,0.525l0.492,0.719l-0.127,0.233l0.313,0.479
		l0.779,0.192v-0.125l0.311,0.044l-0.029,0.223l0.244,0.045l0.378,0.103l0.535,0.609l0.681,0.051l0.068,0.556l-0.469,0.326
		l-0.021,0.498l-0.066,0.304l0.674,0.845l0.052,0.29c0,0,0.245,0.065,0.274,0.065c0.03,0,0.55,0.393,0.55,0.393v1.528l0.185,0.052
		l-0.127,0.704l0.312,0.415l-0.058,0.698l0.412,0.723l0.528,0.462l0.531,0.01l0.052-0.17l-0.391-0.33l0.023-0.162l0.069-0.2
		l0.016-0.203l-0.265-0.008l-0.133-0.167l0.22-0.211l0.029-0.16l-0.245-0.071l0.015-0.146l0.349-0.053l0.53-0.255l0.178-0.326
		l0.557-0.713l-0.127-0.556l0.171-0.298l0.512,0.017l0.346-0.272l0.11-1.073l0.381-0.485l0.067-0.313l-0.349-0.111l-0.229-0.377
		l-0.786-0.008l-0.623-0.238l-0.029-0.443l-0.208-0.363l-0.563-0.007l-0.326-0.512l-0.289-0.141l-0.015,0.156l-0.526,0.029
		l-0.193-0.268l-0.549-0.11l-0.451,0.521l-0.712-0.12l-0.053-0.803l-0.519-0.089l0.208-0.394l-0.06-0.227l-0.682,0.457l-0.43-0.052
		l-0.153-0.335l0.094-0.347l0.236-0.437l0.545-0.276h1.053l-0.004,0.321l0.379,0.176l-0.03-0.549l0.272-0.273l0.551-0.362
		l0.037-0.255l0.548-0.569l0.584-0.322l-0.053-0.043l0.396-0.371l0.146,0.037l0.066,0.083l0.149-0.165l0.037-0.018l-0.164-0.022
		l-0.167-0.056V20.06l0.089-0.072h0.194l0.089,0.039l0.078,0.154l0.095-0.013v-0.015l0.026,0.01l0.273-0.041l0.039-0.135
		l0.155,0.039v0.146l-0.145,0.099l0,0l0.021,0.159l0.496,0.153c0,0,0,0.002,0,0.006l0.114-0.011l0.009-0.214l-0.394-0.179
		l-0.022-0.104l0.326-0.111l0.015-0.312l-0.341-0.207l-0.021-0.526l-0.468,0.229h-0.171l0.045-0.399l-0.637-0.15l-0.262,0.199v0.606
		l-0.473,0.149l-0.19,0.394l-0.204,0.034v-0.505l-0.445-0.062l-0.222-0.146l-0.09-0.327l0.796-0.466l0.388-0.118l0.04,0.262
		l0.217-0.013l0.017-0.131l0.226-0.032l0.005-0.046l-0.097-0.04l-0.022-0.14l0.279-0.022l0.167-0.175l0.01-0.014l0.002,0.001
		l0.051-0.053l0.587-0.074l0.259,0.221l-0.68,0.36l0.865,0.205l0.111-0.289h0.377l0.135-0.253l-0.268-0.066v-0.319l-0.838-0.369
		l-0.578,0.065l-0.325,0.171l0.021,0.415l-0.341-0.051l-0.052-0.231l0.326-0.295l-0.593-0.03l-0.171,0.052l-0.073,0.2l0.223,0.037
		l-0.045,0.222l-0.379,0.022l-0.058,0.148l-0.549,0.014c0,0-0.016-0.31-0.038-0.31c-0.021,0,0.431-0.009,0.431-0.009l0.325-0.317
		l-0.178-0.09l-0.237,0.23l-0.393-0.022l-0.237-0.326h-0.505l-0.525,0.393h0.482l0.043,0.142l-0.125,0.117l0.534,0.016l0.081,0.192
		l-0.601-0.021l-0.028-0.148l-0.379-0.081l-0.201-0.111l-0.449,0.004c1.473-1.073,3.283-1.709,5.241-1.709
		c2.256,0,4.317,0.844,5.889,2.229l-0.104,0.189l-0.412,0.161l-0.173,0.188l0.04,0.22l0.212,0.029l0.128,0.32l0.366-0.148
		l0.062,0.428h-0.111l-0.302-0.043l-0.333,0.055l-0.322,0.455l-0.461,0.073l-0.067,0.396l0.195,0.046l-0.056,0.253l-0.459-0.091
		l-0.42,0.091l-0.089,0.234l0.071,0.491l0.248,0.114l0.413-0.002l0.279-0.025l0.086-0.222l0.437-0.567l0.287,0.059l0.283-0.255
		l0.052,0.199l0.698,0.47l-0.086,0.114l-0.314-0.017l0.121,0.171l0.193,0.043l0.227-0.096l-0.004-0.272l0.101-0.049l-0.081-0.088
		l-0.464-0.258l-0.122-0.344H28.9l0.122,0.121l0.334,0.286l0.014,0.348l0.345,0.368l0.129-0.504l0.238-0.131l0.044,0.412
		l0.233,0.255l0.466-0.007c0.09,0.231,0.17,0.467,0.24,0.707L31.017,22.518z M18.09,19.681l0.232-0.11l0.212,0.05l-0.072,0.284
		l-0.229,0.073L18.09,19.681z M19.329,20.35v0.183h-0.534l-0.2-0.056l0.05-0.127l0.256-0.106h0.351v0.106H19.329z M19.573,20.605
		v0.178l-0.134,0.085l-0.165,0.031c0,0,0-0.267,0-0.294H19.573z M19.423,20.532v-0.211l0.184,0.168L19.423,20.532z M19.507,20.96
		v0.173l-0.128,0.128h-0.284l0.045-0.194l0.135-0.012l0.026-0.066L19.507,20.96z M18.801,20.605h0.294l-0.377,0.527l-0.156-0.083
		l0.033-0.223L18.801,20.605z M20.007,20.899v0.173h-0.282l-0.078-0.112V20.8h0.021L20.007,20.899z M19.745,20.662l0.081-0.085
		l0.137,0.085l-0.108,0.09L19.745,20.662z M31.16,22.968l0.028-0.032c0.012,0.05,0.023,0.1,0.035,0.151L31.16,22.968z"/>
	<path d="M14.3,21.216v0.278c0.097-0.228,0.204-0.448,0.318-0.665L14.3,21.216z"/>
</g>
<path d="M44.484,13.253c-1.659-3.276-5.107-5.428-9.698-6.15l0.224,1.054c4.075,0.727,7.118,2.657,8.582,5.548
	c1.684,3.324,1.138,7.548-1.536,11.892c-2.722,4.42-7.305,8.416-12.904,11.252c-4.861,2.462-10.122,3.817-14.813,3.817
	c-5.982,0-10.498-2.142-12.389-5.875c-1.182-2.333-1.241-5.113-0.261-8.063l-0.898-0.478c-1.125,3.266-1.063,6.37,0.267,8.992
	c2.067,4.083,6.908,6.424,13.281,6.424c4.845,0,10.266-1.394,15.264-3.925c5.763-2.918,10.488-7.045,13.305-11.62
	C45.771,21.469,46.331,16.898,44.484,13.253z"/>
<path d="M15.939,10.757c-5.062,2.563-9.319,6.059-12.19,9.971l0.743,0.685c2.778-3.823,6.936-7.25,11.898-9.763
	c4.132-2.093,8.548-3.377,12.661-3.719l-0.177-0.985C24.66,7.31,20.151,8.623,15.939,10.757z"/>
<path d="M30.627,4.888l0.844-0.579c-2.057-2.469-4.569-3.944-7.335-4.251C15.794-0.861,7.89,9.356,6.428,22.585
	c-0.711,6.419,0.157,12.632,2.445,17.493c2.326,4.941,5.845,7.91,9.906,8.359c0.354,0.039,0.708,0.059,1.061,0.059
	c3.845,0,7.542-2.333,10.789-5.923l-0.746-0.64c-3.299,3.684-7.096,5.938-10.994,5.51c-3.702-0.409-6.938-3.176-9.11-7.791
	C7.567,34.956,6.73,28.934,7.422,22.694C8.768,10.529,15.644,0.999,23.075,0.999c0.316,0,0.633,0.018,0.951,0.053
	C26.496,1.325,28.749,2.668,30.627,4.888z"/>
<path d="M34.6,9.744l-0.946,0.327c1.812,4.498,2.475,10.018,1.842,15.731c-0.422,3.813-1.391,7.363-2.905,11.086l1.05,0.059
	c1.486-3.736,2.432-7.263,2.849-11.035C37.138,20.057,36.458,14.387,34.6,9.744z"/>
<path d="M15.195,35.019c-3.807-2.304-7.043-5.156-10.028-8.421l-0.369,1.139c3.012,3.156,6.185,5.902,9.88,8.138
	c4.779,2.892,9.924,4.648,13.834,4.869l0.178-0.99C24.906,39.561,19.877,37.852,15.195,35.019z"/>
<path d="M42.727,22.586c-2.464-4.774-6.864-9.245-12.391-12.588c-5.472-3.313-11.425-5.137-16.762-5.137
	c-5.531,0-9.753,1.943-11.888,5.474C-0.11,13.304-0.21,17.07,1.329,21.11l0.866-0.552c-1.349-3.669-1.256-7.058,0.347-9.706
	c1.946-3.219,5.864-4.991,11.032-4.991c5.157,0,10.926,1.772,16.244,4.992c5.37,3.249,9.639,7.578,12.02,12.191
	c2.34,4.533,2.565,8.785,0.637,11.973c-1.468,2.425-4.055,4.027-7.451,4.671l-0.03,1.011c3.782-0.669,6.687-2.437,8.337-5.164
	C45.446,32.039,45.231,27.439,42.727,22.586z"/>
<polygon points="29.998,40.216 33.393,41.966 33.292,38.021 "/>
<polygon points="3.622,22.406 0.345,24.365 3.749,26.362 "/>
<polygon points="29.928,7.178 33.58,8.965 33.378,5.239 "/>
<g>
</g>
<g>
</g>
<g>
</g>
<g>
</g>
<g>
</g>
<g>
</g>
<g>
</g>
<g>
</g>
<g>
</g>
<g>
</g>
<g>
</g>
<g>
</g>
<g>
</g>
<g>
</g>
<g>
</g>
</svg>
