<?xml version="1.0" encoding="iso-8859-1"?>
<!-- Generator: Adobe Illustrator 16.0.0, SVG Export Plug-In . SVG Version: 6.00 Build 0)  -->
<!DOCTYPE svg PUBLIC "-//W3C//DTD SVG 1.1//EN" "http://www.w3.org/Graphics/SVG/1.1/DTD/svg11.dtd">
<svg version="1.1" id="Layer_1" xmlns="http://www.w3.org/2000/svg" xmlns:xlink="http://www.w3.org/1999/xlink" x="0px" y="0px"
	 width="49.163px" height="49.162px" viewBox="0 0 49.163 49.162" style="enable-background:new 0 0 49.163 49.162;"
	 xml:space="preserve">
<path d="M-32.95-539.47c3.597-4.249,5.772-9.737,5.772-15.727c0-10.854-7.134-20.071-16.959-23.216c0,0-0.001-0.001-0.001-0.001h0
	c-1.081-0.346-2.195-0.615-3.335-0.809c0,0-0.001-0.002-0.002-0.002l-0.002,0.002c-1.326-0.225-2.686-0.348-4.075-0.348
	c-7.062,0-13.428,3.021-17.884,7.837c-0.289,0.218-0.462,0.369-0.496,0.401l0.07,0.075c-3.77,4.292-6.063,9.911-6.063,16.06
	c0,12.088,8.845,22.144,20.402,24.046c0.037,0.046,0.065,0.08,0.078,0.094l0.076-0.065c1.244,0.196,2.519,0.301,3.817,0.301
	c4.147,0,8.054-1.044,11.476-2.878l0.094,0.083c0.021-0.023,0.097-0.115,0.197-0.242c2.5-1.384,4.729-3.195,6.595-5.334
	c0.144-0.144,0.23-0.242,0.252-0.269L-32.95-539.47z M-45.777-533.581c0.13-0.221,0.266-0.461,0.403-0.714
	c0.223-0.03,0.461-0.054,0.676-0.087c-0.176,0.27-0.32,0.475-0.426,0.614C-45.34-533.702-45.558-533.64-45.777-533.581z
	 M-66.285-539.896c0.079,0.027,0.164,0.054,0.245,0.082c0.114,0.312,0.229,0.612,0.344,0.898
	C-65.885-539.208-66.082-539.534-66.285-539.896z M-67.569-542.571c-0.162-0.4-0.322-0.819-0.476-1.265
	c0.291,0.119,0.59,0.237,0.902,0.354c0.104,0.431,0.216,0.829,0.327,1.229C-67.081-542.36-67.329-542.466-67.569-542.571z
	 M-36.85-570.768c-0.104-0.039-0.222-0.076-0.33-0.114c-0.145-0.36-0.289-0.711-0.436-1.037
	C-37.379-571.595-37.124-571.218-36.85-570.768z M-35.426-567.973c0.159,0.374,0.313,0.773,0.466,1.19
	c-0.31-0.116-0.635-0.231-0.97-0.346c-0.115-0.432-0.237-0.84-0.36-1.241C-35.983-568.236-35.701-568.104-35.426-567.973z
	 M-36.054-542.172c0.107-0.396,0.214-0.796,0.314-1.224c0.273-0.102,0.537-0.205,0.792-0.309c-0.158,0.439-0.319,0.859-0.484,1.253
	C-35.636-542.357-35.831-542.266-36.054-542.172z M-36.78-539.737c-0.023,0.04-0.047,0.084-0.07,0.123
	c0.014-0.038,0.027-0.074,0.041-0.112C-36.8-539.729-36.79-539.733-36.78-539.737z M-51.31-535.9
	c-0.059-0.544-0.121-1.123-0.185-1.73c0.123,0.001,0.234,0.008,0.358,0.008c0.005,0,0.011,0,0.016,0
	c-0.046,0.679-0.087,1.258-0.121,1.721C-51.265-535.902-51.286-535.9-51.31-535.9z M-62.989-555.093
	c0-0.312,0.016-0.596,0.021-0.899c0.435-0.04,0.862-0.081,1.324-0.118c-0.004,0.307-0.01,0.609-0.01,0.923
	c0,0.348,0.006,0.685,0.011,1.024c-0.463-0.024-0.906-0.051-1.327-0.078C-62.975-554.529-62.989-554.798-62.989-555.093z
	 M-39.904-555.235c0,0.355-0.017,0.681-0.022,1.025c-0.314,0.017-0.639,0.033-0.974,0.049c0.006-0.357,0.013-0.713,0.013-1.08
	c0-0.296-0.006-0.582-0.01-0.873c0.333,0.027,0.658,0.056,0.975,0.084C-39.918-555.761-39.904-555.511-39.904-555.235z
	 M-40.069-550.857c-0.323,0.057-0.642,0.114-0.98,0.168c0.035-0.479,0.065-0.966,0.089-1.464c0.336-0.016,0.664-0.031,0.98-0.048
	C-40.003-551.738-40.038-551.301-40.069-550.857z M-37.967-552.32c0.501-0.033,0.972-0.068,1.416-0.104
	c-0.014,0.286-0.037,0.552-0.055,0.83c-0.452,0.115-0.923,0.228-1.419,0.336C-38.004-551.608-37.983-551.959-37.967-552.32z
	 M-59.655-555.188c0-0.367,0.018-0.704,0.023-1.062c0.438-0.026,0.897-0.049,1.356-0.072c-0.015,0.617-0.035,1.222-0.035,1.865
	c0,0.146,0.003,0.285,0.004,0.43c-0.458-0.014-0.896-0.029-1.324-0.046C-59.637-554.447-59.655-554.802-59.655-555.188z
	 M-58.113-559.933c-0.038,0.521-0.065,1.061-0.092,1.604c-0.46,0.021-0.934,0.041-1.374,0.067c0.026-0.539,0.067-1.048,0.105-1.563
	C-59.039-559.865-58.569-559.896-58.113-559.933z M-59.284-561.85c0.046-0.413,0.087-0.84,0.141-1.235
	c0.433-0.049,0.89-0.088,1.345-0.129c-0.049,0.405-0.09,0.832-0.133,1.254C-58.393-561.927-58.844-561.89-59.284-561.85z
	 M-42.887-555.241c0,0.402-0.02,0.772-0.027,1.163c-0.37,0.014-0.75,0.025-1.141,0.037c0.005-0.367,0.011-0.734,0.011-1.112
	c0-0.396-0.006-0.782-0.012-1.168c0.39,0.021,0.772,0.042,1.146,0.065C-42.905-555.914-42.887-555.593-42.887-555.241z
	 M-48.384-553.954c0-0.374-0.003-0.736-0.01-1.076c-0.008-0.444-0.021-0.929-0.035-1.441c0.817,0.015,1.601,0.037,2.36,0.063
	c0.007,0.421,0.024,0.821,0.024,1.255c0,0.402-0.016,0.772-0.022,1.163C-46.805-553.975-47.58-553.963-48.384-553.954z
	 M-56.311-554.456c0-0.673,0.021-1.309,0.037-1.951c0.52-0.018,1.053-0.033,1.597-0.046c-0.025,0.533-0.043,1.032-0.051,1.48
	c-0.006,0.315-0.006,0.661-0.002,1.021c-0.544-0.007-1.067-0.016-1.576-0.025C-56.307-554.139-56.311-554.293-56.311-554.456z
	 M-52.728-554.935c0.009-0.464,0.028-0.986,0.056-1.549c0.498-0.004,0.978-0.014,1.495-0.014c0.254,0,0.498,0.002,0.747,0.004
	c0.015,0.534,0.028,1.04,0.037,1.501c0.006,0.332,0.009,0.687,0.009,1.055c-0.438,0.002-0.881,0.003-1.337,0.003
	c-0.344,0-0.675-0.002-1.007-0.003C-52.733-554.289-52.733-554.627-52.728-554.935z M-44.111-558.33
	c-0.021-0.514-0.048-1.017-0.08-1.509c0.381,0.036,0.757,0.074,1.123,0.115c0.037,0.481,0.079,0.954,0.104,1.456
	C-43.339-558.29-43.721-558.311-44.111-558.33z M-46.123-558.412c-0.763-0.026-1.55-0.047-2.37-0.062
	c-0.019-0.535-0.039-1.089-0.062-1.656c0.806,0.029,1.583,0.07,2.336,0.121C-46.182-559.486-46.148-558.96-46.123-558.412z
	 M-50.495-558.494c-0.228-0.001-0.451-0.003-0.683-0.003c-0.476,0-0.917,0.009-1.377,0.013c0.037-0.541,0.078-1.105,0.124-1.687
	c0.302-0.003,0.584-0.014,0.894-0.014c0.338,0,0.649,0.013,0.979,0.017C-50.535-559.595-50.514-559.035-50.495-558.494z
	 M-54.562-558.458c-0.56,0.012-1.099,0.029-1.633,0.047c0.029-0.555,0.054-1.12,0.095-1.649c0.547-0.028,1.084-0.061,1.659-0.078
	C-54.485-559.56-54.526-558.998-54.562-558.458z M-58.273-552.025c0.017,0.598,0.039,1.183,0.068,1.75
	c-0.421-0.044-0.855-0.082-1.259-0.133c-0.042-0.544-0.083-1.089-0.111-1.66C-59.156-552.053-58.72-552.038-58.273-552.025z
	 M-56.271-551.977c0.517,0.01,1.044,0.019,1.594,0.025c0.025,0.619,0.059,1.273,0.099,1.95c-0.557-0.024-1.084-0.063-1.615-0.101
	C-56.227-550.707-56.252-551.335-56.271-551.977z M-52.674-551.938c0.315,0.001,0.627,0.003,0.952,0.003
	c0.449,0,0.885-0.001,1.317-0.003c-0.013,0.64-0.03,1.304-0.053,1.988c-0.356,0.005-0.691,0.019-1.057,0.019
	c-0.365,0-0.7-0.017-1.056-0.021C-52.612-550.643-52.648-551.309-52.674-551.938z M-48.403-551.953
	c0.792-0.009,1.558-0.021,2.287-0.034c-0.028,0.645-0.067,1.265-0.11,1.873c-0.718,0.051-1.459,0.092-2.228,0.122
	C-48.432-550.666-48.416-551.32-48.403-551.953z M-44.107-552.037c0.387-0.011,0.765-0.023,1.132-0.036
	c-0.03,0.571-0.073,1.118-0.118,1.662c-0.36,0.043-0.732,0.081-1.108,0.119C-44.164-550.86-44.131-551.439-44.107-552.037z
	 M-43.303-548.369c-0.065,0.527-0.13,1.051-0.207,1.55c-0.333,0.045-0.676,0.087-1.022,0.127c0.062-0.507,0.117-1.03,0.169-1.564
	C-44.002-548.292-43.651-548.33-43.303-548.369z M-41.241-548.637c0.335-0.05,0.664-0.101,0.985-0.153
	c-0.054,0.489-0.105,0.984-0.17,1.448c-0.326,0.066-0.658,0.131-1,0.192C-41.358-547.633-41.297-548.129-41.241-548.637z
	 M-40.953-558.129c-0.021-0.452-0.046-0.896-0.076-1.332c0.335,0.049,0.652,0.103,0.974,0.155c0.029,0.42,0.067,0.822,0.087,1.259
	C-40.289-558.075-40.617-558.103-40.953-558.129z M-41.206-561.517c-0.045-0.43-0.094-0.852-0.147-1.265
	c0.333,0.052,0.656,0.105,0.973,0.16c0.054,0.404,0.1,0.826,0.146,1.25C-40.554-561.421-40.872-561.471-41.206-561.517z
	 M-43.263-561.77c-0.349-0.037-0.728-0.063-1.089-0.096c-0.042-0.445-0.087-0.882-0.137-1.308c0.364,0.035,0.722,0.073,1.071,0.113
	C-43.359-562.646-43.313-562.203-43.263-561.77z M-46.392-562.021c-0.729-0.046-1.467-0.088-2.244-0.114
	c-0.019-0.435-0.038-0.873-0.057-1.313c0.747,0.025,1.464,0.064,2.162,0.11C-46.479-562.916-46.437-562.464-46.392-562.021z
	 M-50.639-562.169c-0.304-0.004-0.587-0.016-0.897-0.016c-0.248,0-0.485,0.004-0.729,0.006c0.037-0.431,0.076-0.866,0.116-1.305
	c0.244-0.003,0.468-0.014,0.716-0.014c0.25,0,0.491,0.005,0.736,0.007C-50.677-563.048-50.658-562.607-50.639-562.169z
	 M-54.278-562.144c-0.554,0.016-1.098,0.035-1.627,0.061c0.048-0.438,0.1-0.86,0.154-1.279c0.523-0.03,1.038-0.064,1.587-0.084
	C-54.203-563.009-54.241-562.573-54.278-562.144z M-55.455-565.394c0.112-0.675,0.229-1.325,0.354-1.944
	c0.429-0.024,0.867-0.045,1.314-0.06c-0.064,0.644-0.128,1.293-0.19,1.943C-54.479-565.438-54.972-565.418-55.455-565.394z
	 M-57.521-565.258c-0.441,0.036-0.873,0.075-1.295,0.118c0.119-0.663,0.249-1.293,0.385-1.899c0.406-0.051,0.821-0.098,1.247-0.14
	C-57.303-566.561-57.417-565.927-57.521-565.258z M-60.906-564.894c-0.426,0.059-0.844,0.119-1.249,0.184
	c0.114-0.618,0.239-1.205,0.369-1.772c0.394-0.082,0.8-0.16,1.218-0.233C-60.688-566.13-60.801-565.525-60.906-564.894z
	 M-61.202-562.815c-0.047,0.386-0.092,0.779-0.133,1.18c-0.443,0.054-0.874,0.109-1.292,0.168c0.043-0.381,0.083-0.771,0.133-1.137
	C-62.074-562.678-61.648-562.749-61.202-562.815z M-64.69-561.143c-0.475,0.083-0.936,0.169-1.375,0.258
	c0.04-0.334,0.079-0.67,0.125-0.991c0.434-0.11,0.893-0.216,1.366-0.32C-64.616-561.853-64.654-561.499-64.69-561.143z
	 M-64.861-559.069c-0.026,0.411-0.05,0.829-0.068,1.256c-0.489,0.054-0.967,0.107-1.417,0.165c0.019-0.396,0.056-0.76,0.084-1.141
	C-65.817-558.885-65.35-558.979-64.861-559.069z M-62.819-559.409c0.428-0.064,0.853-0.128,1.309-0.186
	c-0.032,0.479-0.059,0.971-0.081,1.471c-0.46,0.034-0.891,0.073-1.325,0.112C-62.893-558.495-62.854-558.947-62.819-559.409z
	 M-61.588-552.158c0.022,0.493,0.049,0.976,0.082,1.449c-0.464-0.077-0.9-0.161-1.337-0.245c-0.028-0.427-0.063-0.837-0.083-1.281
	C-62.499-552.208-62.055-552.183-61.588-552.158z M-61.326-548.64c0.054,0.525,0.113,1.039,0.179,1.538
	c-0.467-0.083-0.92-0.171-1.359-0.264c-0.063-0.479-0.112-0.993-0.164-1.499C-62.234-548.786-61.787-548.71-61.326-548.64z
	 M-59.268-548.364c0.391,0.046,0.79,0.088,1.196,0.127c0.043,0.547,0.092,1.078,0.146,1.595c-0.39-0.043-0.771-0.089-1.144-0.139
	C-59.144-547.29-59.207-547.825-59.268-548.364z M-56.052-548.073c0.523,0.034,1.058,0.062,1.604,0.084
	c0.038,0.533,0.079,1.075,0.123,1.622c-0.537-0.024-1.062-0.054-1.573-0.091C-55.955-546.978-56.005-547.52-56.052-548.073z
	 M-52.436-547.94c0.306,0.004,0.608,0.01,0.921,0.01c0.333,0,0.656-0.005,0.981-0.009c-0.023,0.539-0.047,1.081-0.073,1.624
	c-0.309,0.004-0.614,0.01-0.93,0.01c-0.263,0-0.517-0.006-0.774-0.009C-52.355-546.862-52.397-547.405-52.436-547.94z
	 M-48.528-547.985c0.731-0.027,1.435-0.065,2.123-0.111c-0.057,0.549-0.117,1.084-0.185,1.601c-0.651,0.051-1.316,0.096-2.009,0.126
	C-48.574-546.909-48.55-547.449-48.528-547.985z M-46.894-544.463c-0.08,0.466-0.162,0.922-0.248,1.357
	c-0.528,0.039-1.075,0.069-1.633,0.093c0.025-0.444,0.05-0.896,0.074-1.352C-48.083-544.39-47.48-544.422-46.894-544.463z
	 M-44.821-544.645c0.321-0.034,0.636-0.069,0.947-0.107c-0.093,0.462-0.193,0.901-0.295,1.335c-0.288,0.039-0.581,0.076-0.879,0.111
	C-44.969-543.738-44.894-544.187-44.821-544.645z M-41.764-545.05c0.339-0.056,0.672-0.113,0.998-0.174
	c-0.082,0.438-0.171,0.849-0.26,1.26c-0.322,0.069-0.653,0.136-0.991,0.199C-41.929-544.182-41.845-544.61-41.764-545.05z
	 M-38.646-545.668c0.485-0.114,0.948-0.233,1.396-0.355c-0.069,0.383-0.146,0.735-0.222,1.097c-0.438,0.146-0.899,0.287-1.383,0.425
	C-38.782-544.882-38.712-545.27-38.646-545.668z M-38.338-547.821c0.054-0.44,0.104-0.891,0.148-1.352
	c0.489-0.102,0.963-0.206,1.414-0.313c-0.044,0.429-0.087,0.859-0.14,1.267C-37.369-548.083-37.84-547.949-38.338-547.821z
	 M-34.703-550.035c0.461-0.135,0.901-0.271,1.313-0.407c-0.042,0.343-0.09,0.674-0.141,1.002c-0.399,0.172-0.83,0.345-1.291,0.518
	C-34.781-549.293-34.736-549.65-34.703-550.035z M-34.562-552.166c0.007-0.147,0.016-0.292,0.022-0.441
	c0.508-0.053,0.962-0.105,1.365-0.157c-0.003,0.048-0.008,0.091-0.011,0.138C-33.608-552.475-34.07-552.32-34.562-552.166z
	 M-30.529-553.752l-0.236-0.839c0.495,0.125,0.888,0.238,1.181,0.328C-29.809-554.129-30.118-553.957-30.529-553.752z
	 M-33.109-554.794c-0.398,0.053-0.859,0.108-1.388,0.166c0.002-0.198,0.013-0.379,0.013-0.58c0-0.049-0.003-0.093-0.003-0.143
	c0.499,0.082,0.96,0.165,1.387,0.246C-33.101-554.997-33.108-554.899-33.109-554.794z M-36.484-555.208
	c0,0.267-0.013,0.509-0.017,0.769c-0.439,0.037-0.911,0.072-1.413,0.107c0.004-0.3,0.01-0.597,0.01-0.903
	c0-0.2-0.005-0.392-0.007-0.588c0.496,0.057,0.965,0.115,1.416,0.176C-36.493-555.498-36.484-555.36-36.484-555.208z
	 M-37.959-557.849c-0.015-0.367-0.034-0.728-0.056-1.084c0.491,0.1,0.958,0.202,1.407,0.308c0.021,0.315,0.049,0.619,0.064,0.944
	C-36.994-557.738-37.468-557.794-37.959-557.849z M-38.174-561.018c-0.039-0.405-0.081-0.805-0.127-1.194
	c0.478,0.106,0.93,0.216,1.365,0.328c0.052,0.372,0.1,0.753,0.143,1.142C-37.229-560.838-37.703-560.928-38.174-561.018z
	 M-38.602-564.333c-0.088-0.544-0.184-1.07-0.285-1.58c0.442,0.117,0.861,0.239,1.267,0.363c0.115,0.484,0.226,0.981,0.328,1.505
	C-37.714-564.144-38.147-564.24-38.602-564.333z M-40.708-564.714c-0.31-0.05-0.629-0.096-0.952-0.142
	c-0.104-0.605-0.218-1.185-0.337-1.748c0.322,0.059,0.636,0.12,0.944,0.184C-40.931-565.872-40.815-565.308-40.708-564.714z
	 M-43.759-565.112c-0.328-0.035-0.662-0.067-1.002-0.098c-0.097-0.64-0.2-1.26-0.311-1.852c0.314,0.036,0.622,0.076,0.925,0.117
	C-44.01-566.357-43.879-565.751-43.759-565.112z M-46.82-565.364c-0.635-0.037-1.291-0.065-1.963-0.088
	c-0.03-0.646-0.06-1.286-0.09-1.914c0.585,0.026,1.151,0.064,1.706,0.106C-47.045-566.653-46.927-566.026-46.82-565.364z
	 M-50.788-565.491c-0.216-0.002-0.426-0.006-0.646-0.006c-0.179,0-0.351,0.004-0.528,0.005c0.063-0.649,0.126-1.299,0.191-1.942
	c0.302,0.001,0.595,0.006,0.891,0.01C-50.848-566.79-50.818-566.145-50.788-565.491z M-51.564-569.432
	c0.06-0.575,0.12-1.139,0.178-1.685c0.112,0,0.214,0.006,0.325,0.007c0.027,0.535,0.056,1.101,0.084,1.684
	C-51.172-569.428-51.366-569.432-51.564-569.432z M-51.169-573.111c0.001-0.009,0.002-0.019,0.003-0.028
	c0,0.01,0.001,0.02,0.001,0.028C-51.167-573.111-51.168-573.111-51.169-573.111z M-53.581-569.407
	c-0.36,0.011-0.716,0.023-1.065,0.039c0.146-0.591,0.294-1.152,0.446-1.682c0.255-0.015,0.533-0.013,0.795-0.022
	C-53.463-570.531-53.521-569.975-53.581-569.407z M-56.756-569.227c-0.393,0.033-0.779,0.07-1.157,0.111
	c0.16-0.569,0.324-1.104,0.492-1.613c0.356-0.049,0.705-0.101,1.076-0.141C-56.485-570.346-56.623-569.802-56.756-569.227z
	 M-60.081-568.835c-0.393,0.062-0.777,0.126-1.151,0.194c0.153-0.527,0.312-1.021,0.473-1.495c0.35-0.081,0.731-0.148,1.1-0.221
	C-59.804-569.871-59.945-569.364-60.081-568.835z M-63.456-568.172c-0.395,0.096-0.775,0.195-1.146,0.298
	c0.142-0.447,0.288-0.869,0.436-1.273c0.342-0.12,0.71-0.234,1.076-0.348C-63.216-569.073-63.337-568.628-63.456-568.172z
	 M-63.967-565.955c-0.107,0.524-0.208,1.063-0.302,1.626c-0.453,0.092-0.885,0.188-1.307,0.285c0.106-0.537,0.223-1.043,0.343-1.539
	C-64.83-565.711-64.407-565.835-63.967-565.955z M-67.716-563.491c-0.437,0.126-0.85,0.253-1.244,0.382
	c0.088-0.395,0.185-0.764,0.283-1.133c0.371-0.175,0.767-0.351,1.19-0.524C-67.57-564.359-67.642-563.922-67.716-563.491z
	 M-68.037-561.28c-0.035,0.291-0.079,0.564-0.11,0.865c-0.472,0.118-0.919,0.236-1.338,0.356c0.033-0.262,0.07-0.517,0.108-0.769
	C-68.962-560.979-68.515-561.129-68.037-561.28z M-68.307-558.3c-0.018,0.306-0.034,0.615-0.047,0.93
	c-0.491,0.075-0.955,0.15-1.388,0.226c0.013-0.259,0.031-0.508,0.048-0.759C-69.269-558.035-68.803-558.167-68.307-558.3z
	 M-69.796-555.093c0.432-0.078,0.896-0.156,1.393-0.234c0,0.09-0.006,0.171-0.006,0.262c0,0.098,0.006,0.186,0.006,0.282
	c-0.571-0.087-1.029-0.17-1.391-0.245C-69.794-555.051-69.796-555.07-69.796-555.093z M-66.41-555.065
	c0-0.189,0.011-0.362,0.013-0.549c0.452-0.06,0.922-0.116,1.416-0.173c-0.002,0.232-0.008,0.459-0.008,0.694
	c0,0.238,0.005,0.467,0.007,0.701c-0.512-0.044-0.982-0.09-1.417-0.137C-66.399-554.712-66.41-554.879-66.41-555.065z
	 M-64.933-552.382c0.013,0.334,0.03,0.661,0.048,0.985c-0.493-0.119-0.968-0.24-1.419-0.366c-0.015-0.254-0.037-0.492-0.049-0.752
	C-65.914-552.47-65.441-552.425-64.933-552.382z M-64.732-549.28c0.044,0.486,0.095,0.958,0.149,1.422
	c-0.487-0.131-0.952-0.266-1.398-0.403c-0.057-0.44-0.11-0.894-0.157-1.358C-65.687-549.503-65.219-549.39-64.732-549.28z
	 M-64.287-545.701c0.06,0.373,0.122,0.738,0.188,1.095c-0.462-0.135-0.906-0.273-1.33-0.416c-0.072-0.339-0.144-0.673-0.21-1.031
	C-65.206-545.932-64.753-545.814-64.287-545.701z M-62.177-545.244c0.436,0.083,0.887,0.161,1.348,0.235
	c0.073,0.422,0.149,0.834,0.229,1.235c-0.46-0.087-0.905-0.181-1.337-0.278C-62.02-544.444-62.103-544.827-62.177-545.244z
	 M-58.729-544.712c0.342,0.04,0.694,0.076,1.048,0.111c0.061,0.446,0.126,0.879,0.194,1.299c-0.331-0.038-0.656-0.079-0.975-0.123
	C-58.553-543.845-58.646-544.267-58.729-544.712z M-55.639-544.436c0.483,0.03,0.977,0.056,1.481,0.075
	c0.039,0.448,0.079,0.896,0.119,1.341c-0.473-0.022-0.936-0.05-1.389-0.084C-55.501-543.532-55.572-543.977-55.639-544.436z
	 M-52.143-544.313c0.203,0.002,0.4,0.007,0.606,0.007c0.281,0,0.552-0.006,0.828-0.009c-0.024,0.457-0.049,0.908-0.075,1.353
	c-0.189,0.002-0.373,0.007-0.565,0.007c-0.229,0-0.448-0.006-0.672-0.009C-52.063-543.411-52.103-543.861-52.143-544.313z
	 M-51.349-540.955c0.152,0,0.296-0.004,0.446-0.005c-0.028,0.461-0.057,0.905-0.084,1.334c-0.052,0-0.098,0.003-0.149,0.003
	c-0.195,0-0.372-0.011-0.564-0.013c-0.043-0.435-0.087-0.876-0.131-1.325C-51.67-540.96-51.513-540.955-51.349-540.955z
	 M-49.111-537.66c0.173-0.006,0.349-0.011,0.519-0.018c-0.215,0.619-0.428,1.17-0.635,1.671
	C-49.194-536.47-49.155-537.024-49.111-537.66z M-48.978-539.671c0.028-0.429,0.056-0.875,0.084-1.336
	c0.443-0.018,0.877-0.039,1.303-0.065c-0.118,0.477-0.24,0.918-0.362,1.352C-48.291-539.702-48.628-539.684-48.978-539.671z
	 M-45.476-541.24c0.259-0.026,0.509-0.057,0.761-0.087c-0.14,0.479-0.285,0.929-0.432,1.366c-0.222,0.025-0.437,0.054-0.665,0.077
	C-45.698-540.319-45.585-540.769-45.476-541.24z M-42.527-541.634c0.332-0.055,0.659-0.112,0.977-0.172
	c-0.133,0.481-0.27,0.932-0.409,1.368c-0.304,0.06-0.634,0.109-0.953,0.163C-42.78-540.709-42.652-541.165-42.527-541.634z
	 M-39.338-542.288c0.459-0.115,0.902-0.234,1.328-0.357c-0.126,0.464-0.258,0.897-0.391,1.316c-0.405,0.127-0.838,0.247-1.285,0.365
	C-39.566-541.387-39.45-541.831-39.338-542.288z M-35.259-545.767c0.052-0.292,0.097-0.602,0.144-0.905
	c0.402-0.137,0.786-0.274,1.152-0.413c-0.065,0.285-0.139,0.546-0.209,0.818C-34.509-546.101-34.873-545.934-35.259-545.767z
	 M-31.723-548.041c0.453-0.218,0.867-0.431,1.236-0.635c-0.256,0.237-0.688,0.603-1.316,1.035
	C-31.777-547.775-31.748-547.904-31.723-548.041z M-31.355-550.502c0.026-0.229,0.038-0.48,0.06-0.716
	c0.768-0.315,1.398-0.613,1.897-0.871c-0.016,0.116-0.029,0.233-0.047,0.35C-29.755-551.495-30.379-551.045-31.355-550.502z
	 M-31.137-556.747c-0.002-0.063-0.002-0.126-0.005-0.188c0.383,0.156,0.73,0.304,1.017,0.437
	C-30.427-556.578-30.761-556.661-31.137-556.747z M-33.148-557.158c-0.432-0.079-0.895-0.157-1.389-0.235
	c-0.009-0.233-0.012-0.476-0.024-0.704c0.497,0.143,0.963,0.284,1.393,0.425C-33.159-557.505-33.156-557.328-33.148-557.158z
	 M-34.721-560.234c-0.034-0.358-0.077-0.698-0.117-1.044c0.483,0.156,0.932,0.313,1.344,0.468c0.046,0.318,0.096,0.63,0.135,0.962
	C-33.785-559.979-34.243-560.106-34.721-560.234z M-35.151-563.485c-0.074-0.439-0.148-0.878-0.232-1.293
	c0.425,0.165,0.823,0.33,1.194,0.494c0.101,0.386,0.199,0.778,0.289,1.191C-34.296-563.225-34.709-563.356-35.151-563.485z
	 M-38.232-567.826c-0.371-0.1-0.757-0.195-1.153-0.288c-0.131-0.515-0.266-1.013-0.406-1.485c0.368,0.105,0.728,0.212,1.068,0.322
	C-38.556-568.819-38.392-568.338-38.232-567.826z M-41.592-568.573c-0.299-0.055-0.6-0.108-0.911-0.158
	c-0.149-0.564-0.305-1.105-0.465-1.62c0.3,0.058,0.594,0.115,0.881,0.177C-41.917-569.671-41.752-569.138-41.592-568.573z
	 M-44.69-569.037c-0.266-0.031-0.541-0.059-0.815-0.086c-0.136-0.586-0.278-1.143-0.423-1.673c0.239,0.027,0.476,0.057,0.708,0.087
	C-45.039-570.183-44.862-569.626-44.69-569.037z M-47.624-569.301c-0.44-0.028-0.889-0.054-1.348-0.073
	c-0.029-0.584-0.058-1.149-0.085-1.688c0.338,0.017,0.647,0.049,0.974,0.07C-47.926-570.46-47.773-569.896-47.624-569.301z
	 M-49.16-573.063c-0.022-0.43-0.043-0.826-0.062-1.183c0.151,0.369,0.304,0.77,0.459,1.198
	C-48.892-573.055-49.028-573.058-49.16-573.063z M-50.799-576.398c0.037-0.323,0.071-0.62,0.101-0.874
	c0.138,0.229,0.303,0.522,0.491,0.881C-50.404-576.395-50.599-576.397-50.799-576.398z M-53.045-574.353
	c-0.046,0.405-0.093,0.831-0.142,1.274c-0.126,0.004-0.255,0.005-0.38,0.01c0.158-0.46,0.313-0.888,0.465-1.283
	C-53.084-574.352-53.064-574.352-53.045-574.353z M-55.749-572.929c-0.295,0.026-0.602,0.045-0.888,0.075
	c0.187-0.455,0.37-0.876,0.551-1.264c0.26-0.028,0.503-0.063,0.772-0.088C-55.458-573.803-55.603-573.383-55.749-572.929z
	 M-58.936-572.54c-0.332,0.056-0.648,0.117-0.968,0.179c0.198-0.459,0.392-0.883,0.583-1.269c0.283-0.057,0.579-0.107,0.876-0.159
	C-58.609-573.395-58.773-572.981-58.936-572.54z M-62.31-571.815c-0.275,0.072-0.559,0.141-0.822,0.217
	c0.221-0.457,0.436-0.869,0.644-1.239c0.218-0.067,0.436-0.134,0.667-0.199C-61.984-572.652-62.147-572.247-62.31-571.815z
	 M-65.721-570.724c-0.116,0.045-0.23,0.09-0.344,0.135c0.282-0.464,0.544-0.854,0.785-1.186
	C-65.428-571.445-65.574-571.089-65.721-570.724z M-66.627-568.144c-0.099,0.323-0.195,0.651-0.289,0.994
	c-0.33,0.117-0.652,0.235-0.958,0.356c0.117-0.313,0.232-0.628,0.352-0.915C-67.238-567.854-66.941-567.998-66.627-568.144z
	 M-70.39-565.651c-0.452,0.234-0.868,0.468-1.24,0.692c0.242-0.228,0.697-0.617,1.374-1.103
	C-70.3-565.922-70.347-565.796-70.39-565.651z M-71.173-562.304c-0.675,0.276-1.253,0.542-1.741,0.787
	c0.247-0.238,0.848-0.771,1.871-1.428C-71.086-562.73-71.133-562.523-71.173-562.304z M-71.527-559.946
	c-0.02,0.178-0.032,0.37-0.05,0.552c-0.878,0.311-1.572,0.601-2.095,0.842c0.012-0.081,0.027-0.16,0.041-0.241
	C-73.374-558.972-72.688-559.405-71.527-559.946z M-71.752-556.762c-0.812,0.173-1.45,0.331-1.952,0.466
	c0.252-0.144,0.888-0.478,1.964-0.898C-71.747-557.054-71.747-556.904-71.752-556.762z M-71.785-554.695
	c0.003,0.297,0.015,0.581,0.024,0.87l-0.021,0.044c-0.466-0.227-0.881-0.44-1.213-0.628
	C-72.663-554.494-72.25-554.592-71.785-554.695z M-69.739-552.983c0.393,0.073,0.849,0.149,1.381,0.226
	c0.004,0.119,0.003,0.249,0.008,0.366c-0.495-0.168-0.958-0.336-1.387-0.504C-69.738-552.924-69.737-552.955-69.739-552.983z
	 M-68.202-550.208c0.036,0.418,0.078,0.819,0.122,1.22c-0.47-0.182-0.908-0.364-1.316-0.546c-0.054-0.374-0.114-0.737-0.159-1.129
	C-69.127-550.511-68.678-550.358-68.202-550.208z M-67.779-546.725c0.047,0.293,0.094,0.584,0.145,0.866
	c-0.409-0.174-0.793-0.35-1.153-0.523c-0.064-0.258-0.127-0.514-0.186-0.782C-68.596-547.016-68.194-546.87-67.779-546.725z
	 M-64.87-542.727c0.399,0.118,0.813,0.231,1.239,0.342c0.106,0.446,0.216,0.875,0.329,1.289c-0.408-0.11-0.799-0.223-1.174-0.339
	C-64.61-541.845-64.742-542.272-64.87-542.727z M-61.432-541.885c0.424,0.084,0.859,0.164,1.306,0.239
	c0.113,0.454,0.229,0.896,0.349,1.319c-0.439-0.075-0.864-0.155-1.276-0.24C-61.183-540.986-61.309-541.423-61.432-541.885z
	 M-57.953-541.336c0.278,0.033,0.555,0.067,0.842,0.097c0.093,0.455,0.188,0.898,0.288,1.318c-0.25-0.026-0.496-0.055-0.739-0.084
	C-57.695-540.433-57.826-540.87-57.953-541.336z M-55.031-541.072c0.387,0.024,0.781,0.045,1.182,0.062
	c0.044,0.451,0.087,0.894,0.131,1.331c-0.348-0.016-0.667-0.046-1.003-0.067C-54.828-540.167-54.931-540.61-55.031-541.072z
	 M-53.513-537.676c0.064,0.607,0.125,1.188,0.185,1.735c-0.064-0.002-0.135-0.002-0.199-0.004c-0.202-0.52-0.409-1.104-0.615-1.757
	C-53.936-537.69-53.723-537.685-53.513-537.676z M-47.012-536.106c0.199-0.524,0.4-1.09,0.599-1.708
	c0.162-0.014,0.328-0.025,0.488-0.04c-0.262,0.635-0.521,1.192-0.775,1.709C-46.807-536.134-46.903-536.117-47.012-536.106z
	 M-47.862-534.038c-0.036,0.057-0.076,0.125-0.11,0.179c0.029-0.06,0.057-0.115,0.085-0.177
	C-47.878-534.037-47.871-534.038-47.862-534.038z M-43.645-538.12c0.31-0.043,0.61-0.091,0.907-0.139
	c-0.24,0.598-0.477,1.136-0.707,1.615c-0.272,0.056-0.572,0.103-0.859,0.153C-44.083-536.994-43.862-537.538-43.645-538.12z
	 M-40.403-538.707c0.399-0.09,0.78-0.185,1.152-0.281c-0.202,0.488-0.402,0.943-0.595,1.339c-0.348,0.125-0.713,0.246-1.1,0.364
	C-40.764-537.729-40.583-538.202-40.403-538.707z M-31.821-544.658c-0.14,0.129-0.434,0.382-0.92,0.719
	c0.099-0.309,0.198-0.614,0.292-0.941c0.386-0.211,0.739-0.418,1.061-0.619C-31.527-545.216-31.672-544.936-31.821-544.658z
	 M-30.1-548.896c0.005-0.003,0.011-0.006,0.016-0.009c-0.002,0.006-0.003,0.013-0.005,0.019L-30.1-548.896z M-31.283-559.15
	c-0.022-0.244-0.036-0.502-0.062-0.739c1.247,0.614,1.821,1.063,1.839,1.077l0.027-0.032c0.025,0.154,0.05,0.31,0.072,0.465
	C-29.914-558.612-30.538-558.873-31.283-559.15z M-31.682-562.258c-0.051-0.288-0.112-0.555-0.168-0.832
	c0.833,0.493,1.362,0.895,1.616,1.102c0.051,0.159,0.097,0.319,0.145,0.479C-30.534-561.74-31.062-561.994-31.682-562.258z
	 M-32.483-565.72c-0.07-0.24-0.146-0.459-0.22-0.689c0.45,0.316,0.744,0.559,0.888,0.686c0.083,0.155,0.162,0.314,0.242,0.473
	C-31.854-565.404-32.158-565.561-32.483-565.72z M-40.468-573.089c0.235,0.414,0.48,0.88,0.733,1.406
	c-0.265-0.071-0.544-0.138-0.822-0.206c-0.182-0.488-0.366-0.946-0.55-1.376C-40.893-573.206-40.669-573.149-40.468-573.089z
	 M-42.922-572.383c-0.265-0.048-0.523-0.099-0.798-0.142c-0.191-0.498-0.384-0.966-0.577-1.404c0.244,0.037,0.488,0.074,0.719,0.115
	C-43.363-573.383-43.145-572.906-42.922-572.383z M-46.034-572.83c-0.176-0.019-0.349-0.038-0.528-0.056
	c-0.161-0.483-0.323-0.938-0.484-1.361c0.122,0.01,0.256,0.015,0.375,0.025C-46.461-573.796-46.249-573.336-46.034-572.83z
	 M-47.918-576.313c-0.088-0.188-0.174-0.365-0.257-0.533c0.109,0.16,0.225,0.338,0.351,0.538
	C-47.855-576.311-47.887-576.312-47.918-576.313z M-54.501-576.265c-0.157,0.011-0.317,0.021-0.471,0.032
	c0.324-0.537,0.595-0.934,0.775-1.175c0.077-0.01,0.154-0.021,0.231-0.03C-54.13-577.102-54.312-576.701-54.501-576.265z
	 M-57.428-575.974c-0.211,0.028-0.413,0.061-0.618,0.092c0.303-0.457,0.538-0.765,0.657-0.91c0.159-0.043,0.318-0.085,0.479-0.124
	C-57.076-576.632-57.249-576.318-57.428-575.974z M-60.694-575.382c-0.019,0.004-0.04,0.008-0.059,0.013
	c0.003-0.003,0.016-0.018,0.017-0.019l-0.139-0.139c0.115-0.053,0.231-0.105,0.347-0.157
	C-60.583-575.587-60.639-575.484-60.694-575.382z M-73.896-556.304l0.033,0.051c-0.011,0.004-0.023,0.007-0.035,0.01
	C-73.897-556.264-73.897-556.284-73.896-556.304z M-71.632-551.484c0.024,0.286,0.042,0.581,0.072,0.858
	c-1.171-0.672-1.864-1.22-2.144-1.459c-0.021-0.148-0.039-0.297-0.057-0.445C-73.192-552.216-72.487-551.859-71.632-551.484z
	 M-73.101-549.194c0.522,0.322,1.148,0.674,1.879,1.036c0.028,0.164,0.064,0.313,0.095,0.475c-1.052-0.676-1.692-1.229-1.967-1.486
	C-73.096-549.179-73.099-549.187-73.101-549.194z M-70.506-544.981c0.1,0.363,0.204,0.711,0.312,1.052
	c-0.572-0.354-0.931-0.625-1.106-0.766c-0.182-0.34-0.354-0.686-0.518-1.036C-71.423-545.488-70.989-545.237-70.506-544.981z
	 M-62.827-537.469c-0.246-0.464-0.504-1.013-0.767-1.619c0.322,0.084,0.643,0.168,0.984,0.247c0.202,0.587,0.407,1.132,0.612,1.635
	C-62.292-537.291-62.559-537.38-62.827-537.469z M-60.304-538.378c0.394,0.068,0.789,0.137,1.204,0.198
	c0.218,0.627,0.439,1.211,0.66,1.751c-0.379-0.062-0.753-0.123-1.105-0.192C-59.792-537.14-60.046-537.717-60.304-538.378z
	 M-56.846-537.904c0.19,0.019,0.375,0.04,0.569,0.058c0.187,0.637,0.376,1.228,0.565,1.764c-0.136-0.013-0.255-0.03-0.388-0.043
	C-56.345-536.663-56.595-537.245-56.846-537.904z M-54.895-534.025c0.16,0.356,0.313,0.679,0.457,0.961
	c-0.167-0.25-0.37-0.579-0.596-0.971C-54.988-534.032-54.941-534.028-54.895-534.025z M-50.968-532.836
	c-0.036-0.312-0.077-0.67-0.122-1.07c0.309-0.002,0.597-0.015,0.896-0.021c-0.273,0.513-0.49,0.867-0.635,1.088
	C-50.875-532.838-50.922-532.837-50.968-532.836z M-45.296-576.673c0.12,0.157,0.275,0.377,0.452,0.64
	c-0.17-0.021-0.339-0.044-0.515-0.064c-0.138-0.252-0.271-0.487-0.402-0.707C-45.605-576.764-45.45-576.718-45.296-576.673z
	 M-57.851-533.73c-0.107-0.138-0.26-0.352-0.454-0.646c0.273,0.04,0.564,0.074,0.85,0.109c0.137,0.271,0.271,0.523,0.4,0.759
	C-57.323-533.576-57.587-533.652-57.851-533.73z"/>
<g>
</g>
<g>
</g>
<g>
</g>
<g>
</g>
<g>
</g>
<g>
</g>
<g>
</g>
<g>
</g>
<g>
</g>
<g>
</g>
<g>
</g>
<g>
</g>
<g>
</g>
<g>
</g>
<g>
</g>
</svg>
