<?xml version="1.0" encoding="iso-8859-1"?>
<!-- Generator: Adobe Illustrator 16.0.0, SVG Export Plug-In . SVG Version: 6.00 Build 0)  -->
<!DOCTYPE svg PUBLIC "-//W3C//DTD SVG 1.1//EN" "http://www.w3.org/Graphics/SVG/1.1/DTD/svg11.dtd">
<svg version="1.1" id="Layer_1" xmlns="http://www.w3.org/2000/svg" xmlns:xlink="http://www.w3.org/1999/xlink" x="0px" y="0px"
	 width="46.71px" height="46.748px" viewBox="0 0 46.71 46.748" style="enable-background:new 0 0 46.71 46.748;"
	 xml:space="preserve">
<g>
	<path style="fill:none;" d="M-140.247,4.59h3.414l1.16,0.86l0.368,0.028l0.871-0.88l0.961,0.032l1.278,0.19l0.805,0.407
		l8.608,0.444l2.36,0.999l-0.333,0.283l-1.75-0.283l-0.027,0.338l0.639,0.44l-0.833,0.167v0.5l-1.721,0.112l1.304,1.221l0.223,1
		l-0.584,0.305l-1.832-1.499V8.561l0.445-0.694l-0.333-0.417l-2,1.333l-1.582-0.139l-0.528-0.388l-0.666,0.944l0.306,0.611
		l2.304,0.277l0.925,1.056l-0.231,0.306l-0.721-0.723l-0.333,0.36l0.564,0.744l-0.121,1.398l-1.48-0.002l-0.074,1.129l1.25,0.758
		l0.435,0.574l-0.657,0.176l-2.332-1.777h-0.75l0.028,1.444l1.693,1.776l0.129,1.288l-0.852,0.711l-1.942,0.695l0.193,0.722
		l-0.353,0.25l-0.396-0.61l0.056-0.472l-0.694-0.222l-0.39,0.527l0.055,1l1.369,1.102l0.138,0.833l-0.829,0.552l-0.63-0.066
		l-1.13-1.281l-0.222,0.889l2.138,3.055l-0.139,0.443l-2.638-2.526V21.64l-1.998-1.776l-1.593-0.152l-0.903,0.336l-0.56,1.204
		l-0.298,2.235l-0.541,0.785l-0.542-0.125l-1.679-2.763l0.098-1.02v-0.75l-0.767-0.482l-3.277-0.536l-1.51-0.074l-1.322-0.759
		l-0.093-0.797h-0.629c0,0-0.018,1.094-0.018,1.153c0,0.059,2.851,1.403,2.851,1.403l0.813,0.106l0.014,0.611l-0.763,0.5
		l-2.435,1.763l-1.166,0.075L-152.225,22l-0.061-0.931l-0.585-0.711c-0.052,0.537-0.08,1.08-0.093,1.627l0.524,0.988l0.612,0.305
		l2.378-0.5l0.444,0.205l-2.289,3.273l-1.15,1.098c2.215,9.987,11.136,17.48,21.78,17.48c12.303,0,22.313-10.009,22.313-22.313
		s-10.009-22.313-22.313-22.313c-4.396,0-8.496,1.283-11.954,3.487l0.787-0.05L-140.247,4.59z M-139.989,24.685l-0.842,0.314
		l-0.232-0.629l0.488-0.689l0.679,0.134L-139.989,24.685z M-127.089,29.443l0.044-0.257l0.507-0.075l0.042,0.393l-0.312-0.035v0.229
		h-0.444v0.195h-0.431v-0.389h0.028L-127.089,29.443z M-127.433,29.258l-0.292-0.091v-0.201h0.375L-127.433,29.258z
		 M-127.592,26.661l0.013,1.803l-0.406,0.037V27.89l-0.39-0.139l0.074,0.862h-0.5V27.26h0.242l-0.013-0.219L-127.592,26.661z
		 M-127.912,29.046v0.211l-0.201,0.031v0.216h-0.278v0.173l-0.41,0.042v-0.216l0.264-0.247l0.18-0.211H-127.912z M-131.883,26.023
		l1.937-1.05l0.257-0.229l0.215-0.578h0.334l0.111,0.57l0.229,0.096v1.829l-0.229,0.15v0.243l-0.368,0.333l-0.208,0.528h-1.631
		l-0.646-0.855V26.023z M-129.029,29.258v0.247h-0.445v-0.247H-129.029z M-133.546,28.702h0.518v-0.185l-0.389-0.13l-2.721-3.332
		l0.464-0.37l1.908,1.719l-0.022,0.28l0.407,0.537l1.481-0.018l0.056,0.685l-0.537,0.056l-0.222-0.093l0.056,0.741l1.371-0.037
		l1.109,0.704l-3.351-0.146L-133.546,28.702z M-123.25,39.897l-0.779,0.429l-0.965-0.105l0.908-1.003l0.851,0.093L-123.25,39.897z
		 M-117.612,38.631l0.647-0.443l0.093-1.417l0.737-0.044l0.012,0.907l0.402-0.08l0.274,0.487l-0.743,0.421l-0.738,0.327
		l-0.692,0.454l-2.443,1.499l-1.007,0.154v-0.458l0.329-0.269l1.925-1.37L-117.612,38.631z M-119.347,34.861l-0.648,1.478
		l-2.627,2.471l-2.728-0.094l-0.889-1.955l-2.401,0.096l-2.962,1.018v-0.538l0.611-0.593l0.075-3.035l1.018-0.703l0.913-0.011
		l1.721-1.961l1.087-0.083v0.407h0.37l0.908-1.288h1.263l1.075,0.646l-0.504,0.493l-0.6-0.123l0.04,0.812l0.315,0.19l1.131,0.084
		l0.241-2.045l0.592,0.028l0.658,1.127l0.075,1.63l0.997,0.854L-119.347,34.861z M-120.144,29.46h0.5v0.427h-1v-1.056l-0.574,0.056
		l-0.538,0.573l-1.481,0.094l-0.019-0.686h0.445l-0.019-0.334l-0.686-0.36l-1.221-0.176l-0.565-0.694l0.842-0.842l0.592,0.352
		l-0.046,0.646l0.62-0.016l0.668-0.352l2.387,1.083L-120.144,29.46z"/>
	<path style="fill:none;" d="M-150.753,14.28l-0.483,0.417l-0.065,0.296l0.917,0.065l0.112,0.175l0.583,0.047l0.251-0.24v-0.389
		l-0.492-0.361v-0.555l-0.954-0.636c-0.085,0.183-0.169,0.367-0.25,0.552l0.38,0.278V14.28z"/>
	<path style="fill:none;" d="M-150.115,12.615l-0.028-0.445l-0.229-0.096c-0.09,0.169-0.177,0.34-0.263,0.511L-150.115,12.615z"/>
	<polygon points="-131.175,28.554 -132.546,28.591 -132.602,27.85 -132.38,27.943 -131.843,27.888 -131.899,27.203 -133.38,27.221 
		-133.787,26.685 -133.765,26.404 -135.673,24.685 -136.138,25.055 -133.417,28.387 -133.028,28.517 -133.028,28.702 
		-133.546,28.702 -133.417,29.112 -130.066,29.258 	"/>
	<polygon points="-129.605,27.916 -129.397,27.388 -129.029,27.054 -129.029,26.811 -128.8,26.661 -128.8,24.832 -129.029,24.736 
		-129.14,24.166 -129.474,24.166 -129.689,24.744 -129.946,24.973 -131.883,26.023 -131.883,27.061 -131.236,27.916 	"/>
	<polygon points="-128.8,27.26 -128.8,28.612 -128.3,28.612 -128.375,27.75 -127.985,27.89 -127.985,28.501 -127.579,28.464 
		-127.592,26.661 -128.571,27.041 -128.559,27.26 	"/>
	<polygon points="-120.688,31.283 -121.346,30.156 -121.938,30.128 -122.18,32.173 -123.311,32.089 -123.626,31.898 
		-123.667,31.087 -123.067,31.209 -122.563,30.716 -123.637,30.07 -124.9,30.07 -125.808,31.358 -126.178,31.358 -126.178,30.952 
		-127.266,31.034 -128.987,32.996 -129.9,33.007 -130.917,33.71 -130.992,36.745 -131.603,37.338 -131.603,37.875 -128.641,36.857 
		-126.24,36.761 -125.351,38.716 -122.623,38.811 -119.996,36.339 -119.347,34.861 -119.616,33.768 -120.613,32.914 	"/>
	<polygon points="-124.994,40.22 -124.029,40.326 -123.25,39.897 -123.235,39.31 -124.086,39.217 	"/>
	<polygon points="-121.07,40.437 -121.07,40.895 -120.063,40.741 -117.62,39.242 -116.928,38.788 -116.189,38.461 -115.447,38.041 
		-115.721,37.553 -116.123,37.633 -116.134,36.727 -116.872,36.771 -116.965,38.188 -117.612,38.631 -118.816,38.798 
		-120.741,40.168 	"/>
	<polygon points="-123.291,27.444 -123.911,27.46 -123.865,26.814 -124.457,26.462 -125.299,27.305 -124.734,27.999 
		-123.513,28.175 -122.828,28.535 -122.809,28.869 -123.254,28.869 -123.235,29.554 -121.754,29.46 -121.217,28.887 
		-120.643,28.832 -120.643,29.887 -119.644,29.887 -119.644,29.46 -120.144,29.46 -120.236,28.175 -122.623,27.092 	"/>
	<polygon points="-141.063,24.37 -140.831,24.999 -139.989,24.685 -139.896,23.815 -140.575,23.681 	"/>
	<polygon points="-127.725,29.167 -127.433,29.258 -127.35,28.966 -127.725,28.966 	"/>
	<rect x="-129.474" y="29.258" width="0.445" height="0.247"/>
	<polygon points="-128.537,29.258 -128.8,29.505 -128.8,29.721 -128.391,29.678 -128.391,29.505 -128.113,29.505 -128.113,29.289 
		-127.912,29.258 -127.912,29.046 -128.356,29.046 	"/>
	<polygon points="-127.683,29.505 -127.683,29.894 -127.252,29.894 -127.252,29.699 -126.808,29.699 -126.808,29.47 
		-126.496,29.505 -126.538,29.112 -127.044,29.187 -127.089,29.443 -127.655,29.505 	"/>
	<path d="M-130.665-1.792c-6.486,0-12.382,2.559-16.746,6.713l-0.002,0.001v0.001c-0.276,0.263-0.547,0.532-0.811,0.807
		c-3.246,3.393-5.519,7.719-6.373,12.532c-0.028,0.161-0.061,0.321-0.086,0.483c-0.193,1.23-0.294,2.491-0.294,3.774
		c0,3.301,0.664,6.449,1.861,9.322c3.664,8.792,12.346,14.991,22.451,14.991c13.406,0,24.313-10.907,24.313-24.313
		S-117.259-1.792-130.665-1.792z M-150.372,12.074l0.229,0.096l0.028,0.445l-0.52-0.029
		C-150.549,12.414-150.462,12.243-150.372,12.074z M-151.236,14.697l0.483-0.417v-0.351l-0.38-0.278
		c0.081-0.186,0.164-0.369,0.25-0.552l0.954,0.636v0.555l0.492,0.361v0.389l-0.251,0.24l-0.583-0.047l-0.112-0.175l-0.917-0.065
		L-151.236,14.697z M-130.665,44.833c-10.644,0-19.565-7.494-21.78-17.48l1.15-1.098l2.289-3.273l-0.444-0.205l-2.378,0.5
		l-0.612-0.305l-0.524-0.988c0.013-0.547,0.041-1.09,0.093-1.627l0.585,0.711l0.061,0.931l0.573,0.575l1.166-0.075l2.435-1.763
		l0.763-0.5l-0.014-0.611l-0.813-0.106c0,0-2.851-1.344-2.851-1.403c0-0.06,0.018-1.153,0.018-1.153h0.629l0.093,0.797l1.322,0.759
		l1.51,0.074l3.277,0.536l0.767,0.482v0.75l-0.098,1.02l1.679,2.763l0.542,0.125l0.541-0.785l0.298-2.235l0.56-1.204l0.903-0.336
		l1.593,0.152l1.998,1.776v2.555l2.638,2.526l0.139-0.443l-2.138-3.055l0.222-0.889l1.13,1.281l0.63,0.066l0.829-0.552l-0.138-0.833
		l-1.369-1.102l-0.055-1l0.39-0.527l0.694,0.222l-0.056,0.472l0.396,0.61l0.353-0.25l-0.193-0.722l1.942-0.695l0.852-0.711
		l-0.129-1.288l-1.693-1.776l-0.028-1.444h0.75l2.332,1.777l0.657-0.176l-0.435-0.574l-1.25-0.758l0.074-1.129l1.48,0.002
		l0.121-1.398l-0.564-0.744l0.333-0.36l0.721,0.723l0.231-0.306l-0.925-1.056l-2.304-0.277l-0.306-0.611l0.666-0.944l0.528,0.388
		l1.582,0.139l2-1.333l0.333,0.417l-0.445,0.694v0.694l1.832,1.499l0.584-0.305l-0.223-1l-1.304-1.221l1.721-0.112v-0.5l0.833-0.167
		l-0.639-0.44l0.027-0.338l1.75,0.283l0.333-0.283l-2.36-0.999l-8.608-0.444l-0.805-0.407l-1.278-0.19l-0.961-0.032l-0.871,0.88
		l-0.368-0.028l-1.16-0.86h-3.414l-1.584-0.945l-0.787,0.05c3.458-2.204,7.558-3.487,11.954-3.487
		c12.303,0,22.313,10.009,22.313,22.313S-118.361,44.833-130.665,44.833z"/>
</g>
<g>
</g>
<g>
</g>
<g>
</g>
<g>
</g>
<g>
</g>
<g>
</g>
<g>
</g>
<g>
</g>
<g>
</g>
<g>
</g>
<g>
</g>
<g>
</g>
<g>
</g>
<g>
</g>
<g>
</g>
</svg>
