<?xml version="1.0" encoding="iso-8859-1"?>
<!-- Generator: Adobe Illustrator 16.0.0, SVG Export Plug-In . SVG Version: 6.00 Build 0)  -->
<!DOCTYPE svg PUBLIC "-//W3C//DTD SVG 1.1//EN" "http://www.w3.org/Graphics/SVG/1.1/DTD/svg11.dtd">
<svg version="1.1" id="Layer_1" xmlns="http://www.w3.org/2000/svg" xmlns:xlink="http://www.w3.org/1999/xlink" x="0px" y="0px"
	 width="49.163px" height="49.162px" viewBox="0 0 49.163 49.162" style="enable-background:new 0 0 49.163 49.162;"
	 xml:space="preserve">
<g>
	<path d="M-148.684-546.324c1.218-9.961,6.295-13.156,10.84-15.987c4.642-2.892,8.657-5.425,8.174-14.942
		c-2.163,0.157-4.241,0.618-6.191,1.348c0.203,7.553-3.376,9.793-6.848,11.956c-3.667,2.284-7.131,4.442-7.348,12.958
		C-149.766-549.37-149.305-547.807-148.684-546.324z"/>
	<path d="M-143.767-565.647c3.237-2.017,5.853-3.667,5.913-9.399c-5.89,2.887-10.33,8.288-11.919,14.796
		C-148.142-562.919-145.876-564.334-143.767-565.647z"/>
	<path d="M-143.176-538.486c0.789-10.616,5.447-14.322,9.963-17.908c4.907-3.896,9.544-7.588,9.283-20.54
		c-1.217-0.227-2.467-0.354-3.744-0.375c0.518,10.661-4.367,13.739-9.113,16.695c-4.808,2.995-9.77,6.104-10.153,17.621
		C-145.884-541.33-144.619-539.814-143.176-538.486z"/>
	<path d="M-119.224-550.158c4.482-3.596,8.709-7.021,8.484-18.957c-1.206-1.471-2.597-2.781-4.135-3.904
		c-0.064,13.04-5.132,17.116-10.045,21.058c-4.624,3.71-8.989,7.221-9.309,18.514c1.844,0.531,3.784,0.831,5.788,0.867
		C-127.917-543.152-123.506-546.723-119.224-550.158z"/>
	<path d="M-111.712-545.493c-3.21,1.956-5.994,3.671-6.318,10.549c6.155-3.093,10.692-8.942,11.984-15.92
		C-107.487-548.07-109.676-546.734-111.712-545.493z"/>
	<path d="M-112.753-547.2c3.438-2.096,6.686-4.074,6.291-13.271l0.103-0.004c-0.529-2.074-1.352-4.031-2.416-5.829
		c-0.474,10.67-4.895,14.254-9.198,17.706c-4.091,3.282-7.954,6.409-8.465,15.963c2.229-0.159,4.369-0.645,6.372-1.411
		C-119.941-542.819-116.123-545.146-112.753-547.2z"/>
	<path d="M-126.171-553.521c4.915-3.943,9.558-7.678,9.287-20.806c-1.569-0.906-3.256-1.627-5.034-2.134
		c0.142,13.54-5.037,17.652-10.051,21.633c-4.566,3.625-8.875,7.069-9.286,17.922c1.547,1.137,3.246,2.076,5.059,2.789
		C-135.702-545.844-130.864-549.757-126.171-553.521z"/>
</g>
<g>
</g>
<g>
</g>
<g>
</g>
<g>
</g>
<g>
</g>
<g>
</g>
<g>
</g>
<g>
</g>
<g>
</g>
<g>
</g>
<g>
</g>
<g>
</g>
<g>
</g>
<g>
</g>
<g>
</g>
</svg>
