<?xml version="1.0" encoding="iso-8859-1"?>
<!-- Generator: Adobe Illustrator 16.0.0, SVG Export Plug-In . SVG Version: 6.00 Build 0)  -->
<!DOCTYPE svg PUBLIC "-//W3C//DTD SVG 1.1//EN" "http://www.w3.org/Graphics/SVG/1.1/DTD/svg11.dtd">
<svg version="1.1" id="Layer_1" xmlns="http://www.w3.org/2000/svg" xmlns:xlink="http://www.w3.org/1999/xlink" x="0px" y="0px"
	 width="49.163px" height="49.162px" viewBox="0 0 49.163 49.162" style="enable-background:new 0 0 49.163 49.162;"
	 xml:space="preserve">
<g>
	<path d="M33.554-563.325c0.05,0.426,0.095,0.862,0.137,1.308c0.361,0.032,0.741,0.059,1.089,0.096
		c-0.05-0.434-0.097-0.876-0.155-1.29C34.276-563.252,33.918-563.29,33.554-563.325z"/>
	<path d="M35.076-570.504c0.16,0.515,0.315,1.056,0.465,1.62c0.311,0.05,0.612,0.104,0.911,0.158
		c-0.16-0.564-0.325-1.098-0.495-1.602C35.669-570.389,35.375-570.446,35.076-570.504z"/>
	<path d="M36.383-565.008c0.323,0.046,0.643,0.092,0.952,0.142c-0.107-0.594-0.223-1.158-0.345-1.706
		c-0.308-0.063-0.622-0.125-0.944-0.184C36.165-566.192,36.279-565.613,36.383-565.008z"/>
	<path d="M35.079-558.42c-0.025-0.502-0.067-0.975-0.104-1.456c-0.366-0.041-0.742-0.079-1.123-0.115
		c0.032,0.492,0.059,0.995,0.08,1.509C34.323-558.463,34.705-558.442,35.079-558.42z"/>
	<path d="M38.14-555.388c0-0.275-0.015-0.525-0.018-0.795c-0.317-0.028-0.642-0.057-0.975-0.084c0.004,0.291,0.01,0.577,0.01,0.873
		c0,0.367-0.007,0.723-0.013,1.08c0.334-0.016,0.659-0.032,0.974-0.049C38.123-554.707,38.14-555.032,38.14-555.388z"/>
	<path d="M25.778-562.331c0.243-0.002,0.481-0.006,0.729-0.006c0.31,0,0.594,0.012,0.897,0.016
		c-0.019-0.438-0.038-0.879-0.058-1.321c-0.245-0.002-0.486-0.007-0.736-0.007c-0.248,0-0.473,0.011-0.716,0.014
		C25.854-563.197,25.815-562.762,25.778-562.331z"/>
	<path d="M35.069-552.226c-0.368,0.013-0.745,0.025-1.132,0.036c-0.024,0.598-0.057,1.177-0.094,1.745
		c0.376-0.038,0.748-0.076,1.108-0.119C34.996-551.107,35.039-551.654,35.069-552.226z"/>
	<path d="M34.533-546.972c0.077-0.499,0.142-1.022,0.207-1.55c-0.348,0.039-0.699,0.077-1.061,0.112
		c-0.052,0.534-0.107,1.058-0.169,1.564C33.857-546.885,34.2-546.927,34.533-546.972z"/>
	<path d="M38.063-552.354c-0.317,0.017-0.644,0.032-0.98,0.048c-0.024,0.498-0.054,0.985-0.089,1.464
		c0.339-0.054,0.657-0.111,0.98-0.168C38.006-551.453,38.041-551.891,38.063-552.354z"/>
	<path d="M39.157-566.065c0.101,0.51,0.196,1.036,0.285,1.58c0.455,0.093,0.888,0.189,1.31,0.288
		c-0.102-0.523-0.212-1.021-0.328-1.505C40.018-565.826,39.599-565.948,39.157-566.065z"/>
	<path d="M38.252-569.752c0.14,0.473,0.275,0.971,0.406,1.485c0.396,0.093,0.782,0.188,1.153,0.288
		c-0.159-0.512-0.324-0.993-0.491-1.451C38.979-569.54,38.62-569.646,38.252-569.752z"/>
	<path d="M33.747-574.081c0.193,0.438,0.386,0.906,0.577,1.404c0.275,0.043,0.533,0.094,0.798,0.142
		c-0.222-0.523-0.441-1-0.655-1.431C34.234-574.007,33.99-574.044,33.747-574.081z"/>
	<path d="M41.5-557.833c-0.015-0.325-0.043-0.629-0.064-0.944c-0.449-0.105-0.917-0.208-1.407-0.308
		c0.021,0.356,0.041,0.717,0.056,1.084C40.575-557.946,41.049-557.891,41.5-557.833z"/>
	<path d="M40.864-571.034c0.107,0.038,0.225,0.075,0.33,0.114c-0.274-0.45-0.53-0.827-0.765-1.151
		C40.575-571.745,40.72-571.395,40.864-571.034z"/>
	<path d="M38.076-558.199c-0.02-0.437-0.058-0.839-0.087-1.259c-0.321-0.053-0.638-0.106-0.974-0.155
		c0.029,0.437,0.055,0.88,0.076,1.332C37.427-558.255,37.755-558.228,38.076-558.199z"/>
	<path d="M37.618-547.494c0.064-0.464,0.116-0.959,0.17-1.448c-0.322,0.053-0.65,0.104-0.985,0.153
		c-0.056,0.508-0.117,1.004-0.185,1.487C36.96-547.363,37.292-547.428,37.618-547.494z"/>
	<path d="M36.691-562.934c0.053,0.413,0.102,0.835,0.147,1.265c0.334,0.046,0.651,0.096,0.972,0.146
		c-0.046-0.424-0.092-0.846-0.146-1.25C37.347-562.828,37.023-562.882,36.691-562.934z"/>
	<path d="M36.936-573.417c0.184,0.43,0.368,0.888,0.55,1.376c0.278,0.068,0.557,0.135,0.822,0.206
		c-0.253-0.526-0.498-0.992-0.733-1.406C37.375-573.302,37.15-573.358,36.936-573.417z"/>
	<path d="M26.083-565.645c0.177-0.001,0.349-0.005,0.528-0.005c0.22,0,0.43,0.004,0.646,0.006c-0.03-0.653-0.061-1.299-0.091-1.934
		c-0.295-0.004-0.588-0.009-0.891-0.01C26.209-566.943,26.146-566.294,26.083-565.645z"/>
	<path d="M26.549-537.783c0.064,0.607,0.126,1.187,0.185,1.73c0.024,0,0.045-0.002,0.069-0.002c0.033-0.463,0.074-1.042,0.121-1.721
		c-0.005,0-0.011,0-0.016,0C26.783-537.775,26.672-537.782,26.549-537.783z"/>
	<path d="M27.141-541.112c-0.15,0.001-0.294,0.005-0.446,0.005c-0.164,0-0.321-0.005-0.482-0.006
		c0.043,0.449,0.087,0.891,0.131,1.325c0.192,0.002,0.369,0.013,0.564,0.013c0.052,0,0.098-0.003,0.149-0.003
		C27.084-540.207,27.112-540.651,27.141-541.112z"/>
	<path d="M41.56-555.36c0-0.152-0.009-0.29-0.011-0.439c-0.451-0.061-0.92-0.119-1.416-0.176c0.002,0.196,0.007,0.388,0.007,0.588
		c0,0.307-0.006,0.604-0.01,0.903c0.502-0.035,0.974-0.07,1.413-0.107C41.546-554.852,41.56-555.094,41.56-555.36z"/>
	<path d="M41.492-552.576c-0.443,0.035-0.914,0.07-1.416,0.104c-0.016,0.361-0.037,0.712-0.059,1.063
		c0.497-0.108,0.968-0.221,1.419-0.336C41.455-552.024,41.479-552.29,41.492-552.576z"/>
	<path d="M26.874-573.264c0.001,0,0.003,0,0.004,0c0-0.009-0.001-0.019-0.001-0.028C26.876-573.282,26.875-573.272,26.874-573.264z"
		/>
	<path d="M27.345-577.425c-0.03,0.254-0.064,0.551-0.101,0.874c0.201,0.001,0.395,0.004,0.592,0.007
		C27.648-576.902,27.483-577.195,27.345-577.425z"/>
	<path d="M39.742-562.364c0.046,0.39,0.088,0.789,0.127,1.194c0.471,0.09,0.944,0.18,1.381,0.275
		c-0.043-0.389-0.091-0.77-0.143-1.142C40.672-562.148,40.22-562.258,39.742-562.364z"/>
	<path d="M26.479-569.584c0.199,0,0.392,0.004,0.587,0.006c-0.029-0.583-0.057-1.148-0.084-1.684
		c-0.111-0.001-0.213-0.007-0.325-0.007C26.599-570.723,26.539-570.159,26.479-569.584z"/>
	<path d="M40.794-546.176c-0.449,0.122-0.912,0.241-1.396,0.355c-0.066,0.398-0.136,0.786-0.208,1.166
		c0.484-0.138,0.945-0.279,1.383-0.425C40.647-545.44,40.725-545.793,40.794-546.176z"/>
	<path d="M33.346-534.534c-0.215,0.033-0.454,0.057-0.676,0.087c-0.138,0.253-0.273,0.493-0.403,0.714
		c0.219-0.059,0.437-0.121,0.654-0.187C33.026-534.06,33.17-534.265,33.346-534.534z"/>
	<path d="M35.306-538.411c-0.297,0.048-0.598,0.096-0.907,0.139c-0.218,0.582-0.438,1.126-0.659,1.63
		c0.287-0.051,0.587-0.098,0.859-0.153C34.829-537.275,35.066-537.813,35.306-538.411z"/>
	<path d="M33.282-565.362c0.34,0.03,0.674,0.063,1.002,0.098c-0.12-0.639-0.25-1.245-0.388-1.832
		c-0.303-0.041-0.611-0.081-0.925-0.117C33.082-566.622,33.185-566.002,33.282-565.362z"/>
	<path d="M40.033-542.798c-0.425,0.123-0.868,0.242-1.328,0.357c-0.112,0.457-0.228,0.901-0.348,1.324
		c0.447-0.118,0.879-0.238,1.285-0.365C39.775-541.9,39.907-542.334,40.033-542.798z"/>
	<path d="M33.328-541.479c-0.252,0.03-0.502,0.061-0.761,0.087c-0.109,0.472-0.222,0.921-0.336,1.356
		c0.229-0.023,0.443-0.052,0.665-0.077C33.043-540.551,33.188-541,33.328-541.479z"/>
	<path d="M34.169-544.904c-0.311,0.038-0.626,0.073-0.947,0.107c-0.073,0.458-0.148,0.906-0.228,1.339
		c0.298-0.035,0.591-0.072,0.879-0.111C33.976-544.003,34.076-544.442,34.169-544.904z"/>
	<path d="M38.792-539.141c-0.372,0.097-0.753,0.191-1.152,0.281c-0.18,0.505-0.361,0.979-0.542,1.422
		c0.387-0.118,0.752-0.239,1.1-0.364C38.39-538.197,38.59-538.652,38.792-539.141z"/>
	<path d="M36.493-541.958c-0.318,0.06-0.645,0.117-0.977,0.172c-0.125,0.469-0.253,0.925-0.385,1.359
		c0.319-0.054,0.649-0.104,0.953-0.163C36.223-541.026,36.36-541.477,36.493-541.958z"/>
	<path d="M37.277-545.376c-0.326,0.061-0.658,0.118-0.998,0.174c-0.081,0.439-0.165,0.868-0.254,1.285
		c0.338-0.063,0.669-0.13,0.991-0.199C37.105-544.527,37.195-544.938,37.277-545.376z"/>
	<path d="M35.157-555.394c0-0.352-0.018-0.673-0.024-1.015c-0.373-0.023-0.755-0.045-1.146-0.065
		c0.006,0.386,0.012,0.771,0.012,1.168c0,0.378-0.005,0.745-0.011,1.112c0.391-0.012,0.771-0.023,1.141-0.037
		C35.137-554.621,35.157-554.991,35.157-555.394z"/>
	<path d="M42.66-564.931c0.084,0.415,0.158,0.854,0.232,1.293c0.441,0.129,0.855,0.261,1.25,0.393
		c-0.09-0.413-0.188-0.806-0.289-1.191C43.483-564.601,43.085-564.766,42.66-564.931z"/>
	<path d="M44.896-557.311c-0.008-0.17-0.011-0.347-0.021-0.515c-0.43-0.141-0.896-0.282-1.393-0.425
		c0.012,0.229,0.015,0.471,0.024,0.704C44-557.468,44.463-557.39,44.896-557.311z"/>
	<path d="M43.205-561.431c0.041,0.346,0.083,0.686,0.117,1.044c0.478,0.128,0.936,0.256,1.362,0.386
		c-0.039-0.332-0.089-0.644-0.135-0.962C44.137-561.117,43.688-561.274,43.205-561.431z"/>
	<path d="M41.753-568.521c0.124,0.401,0.245,0.81,0.36,1.241c0.335,0.114,0.66,0.229,0.97,0.346
		c-0.152-0.417-0.307-0.816-0.466-1.19C42.343-568.256,42.061-568.389,41.753-568.521z"/>
	<path d="M44.868-552.917c-0.403,0.052-0.857,0.104-1.365,0.157c-0.006,0.149-0.015,0.294-0.022,0.441
		c0.492-0.154,0.954-0.309,1.375-0.461C44.86-552.826,44.865-552.869,44.868-552.917z"/>
	<path d="M44.653-550.595c-0.411,0.137-0.852,0.272-1.313,0.407c-0.034,0.385-0.079,0.742-0.119,1.112
		c0.46-0.173,0.891-0.346,1.291-0.518C44.563-549.921,44.611-550.252,44.653-550.595z"/>
	<path d="M46.32-548.193c-0.025,0.137-0.054,0.266-0.08,0.4c0.628-0.433,1.06-0.798,1.316-1.035
		C47.188-548.624,46.773-548.411,46.32-548.193z"/>
	<path d="M43.096-543.856c-0.255,0.104-0.519,0.207-0.792,0.309c-0.101,0.428-0.207,0.827-0.314,1.224
		c0.223-0.094,0.418-0.186,0.622-0.279C42.777-542.997,42.938-543.417,43.096-543.856z"/>
	<path d="M44.08-547.237c-0.366,0.139-0.75,0.276-1.152,0.413c-0.047,0.304-0.092,0.613-0.144,0.905
		c0.386-0.167,0.75-0.334,1.087-0.5C43.941-546.691,44.015-546.952,44.08-547.237z"/>
	<path d="M47.959-549.057c-0.005,0.003-0.011,0.006-0.016,0.009l0.011,0.01C47.956-549.044,47.958-549.051,47.959-549.057z"/>
	<path d="M46.906-556.899c0.376,0.086,0.71,0.169,1.012,0.248c-0.287-0.133-0.633-0.28-1.017-0.437
		C46.904-557.025,46.904-556.962,46.906-556.899z"/>
	<path d="M44.943-555.257c-0.427-0.081-0.888-0.164-1.387-0.246c0,0.05,0.003,0.094,0.003,0.143c0,0.201-0.011,0.382-0.013,0.58
		c0.528-0.058,0.989-0.113,1.388-0.166C44.936-555.052,44.942-555.149,44.943-555.257z"/>
	<path d="M48.458-554.415c-0.292-0.09-0.686-0.203-1.181-0.328l0.236,0.839C47.925-554.109,48.234-554.281,48.458-554.415z"/>
	<path d="M48.646-552.241c-0.5,0.258-1.129,0.556-1.897,0.871c-0.022,0.235-0.034,0.486-0.06,0.716
		c0.976-0.543,1.6-0.993,1.91-1.237C48.616-552.008,48.629-552.125,48.646-552.241z"/>
	<path d="M46.222-544.811c0.149-0.277,0.294-0.558,0.432-0.842c-0.322,0.201-0.675,0.408-1.061,0.619
		c-0.093,0.327-0.192,0.633-0.292,0.941C45.788-544.429,46.082-544.682,46.222-544.811z"/>
	<path d="M45.34-566.562c0.074,0.23,0.15,0.449,0.22,0.689c0.325,0.159,0.629,0.315,0.91,0.469c-0.08-0.158-0.159-0.317-0.242-0.473
		C46.084-566.003,45.79-566.245,45.34-566.562z"/>
	<path d="M46.193-563.242c0.056,0.277,0.117,0.544,0.168,0.832c0.62,0.264,1.148,0.518,1.592,0.749
		c-0.047-0.16-0.094-0.32-0.145-0.479C47.556-562.348,47.026-562.749,46.193-563.242z"/>
	<path d="M48.564-558.997l-0.027,0.032c-0.018-0.015-0.592-0.463-1.839-1.077c0.026,0.237,0.04,0.495,0.062,0.739
		c0.746,0.277,1.37,0.538,1.875,0.771C48.614-558.688,48.589-558.843,48.564-558.997z"/>
	<path d="M29.072-569.526c0.458,0.02,0.907,0.045,1.348,0.073c-0.149-0.596-0.302-1.159-0.459-1.69
		c-0.327-0.021-0.636-0.054-0.974-0.07C29.014-570.676,29.043-570.11,29.072-569.526z"/>
	<path d="M29.17-567.519c0.03,0.628,0.061,1.268,0.09,1.914c0.673,0.022,1.329,0.051,1.963,0.088
		c-0.107-0.662-0.225-1.289-0.348-1.896C30.321-567.454,29.755-567.492,29.17-567.519z"/>
	<path d="M31.927-552.14c-0.729,0.014-1.495,0.025-2.287,0.034c-0.012,0.633-0.029,1.287-0.05,1.961
		c0.769-0.03,1.51-0.071,2.228-0.122C31.86-550.875,31.899-551.495,31.927-552.14z"/>
	<path d="M28.884-573.216c0.131,0.006,0.268,0.009,0.397,0.016c-0.155-0.429-0.308-0.829-0.459-1.198
		C28.841-574.042,28.861-573.646,28.884-573.216z"/>
	<path d="M31.999-555.306c0-0.434-0.018-0.834-0.024-1.255c-0.759-0.026-1.543-0.049-2.36-0.063
		c0.014,0.513,0.026,0.997,0.035,1.441c0.006,0.34,0.009,0.702,0.01,1.076c0.805-0.009,1.58-0.021,2.317-0.036
		C31.983-554.533,31.999-554.903,31.999-555.306z"/>
	<path d="M39.854-549.325c-0.044,0.461-0.094,0.911-0.148,1.352c0.498-0.128,0.969-0.262,1.422-0.398
		c0.053-0.407,0.096-0.838,0.14-1.267C40.816-549.531,40.343-549.427,39.854-549.325z"/>
	<path d="M32.119-538.007c-0.16,0.015-0.326,0.026-0.488,0.04c-0.199,0.618-0.4,1.184-0.599,1.708
		c0.109-0.011,0.205-0.027,0.312-0.039C31.598-536.814,31.856-537.372,32.119-538.007z"/>
	<path d="M33.354-569.189c-0.172-0.589-0.349-1.146-0.53-1.672c-0.232-0.03-0.469-0.06-0.708-0.087
		c0.146,0.53,0.287,1.087,0.423,1.673C32.813-569.248,33.087-569.221,33.354-569.189z"/>
	<path d="M31.149-544.615c-0.586,0.041-1.189,0.073-1.807,0.099c-0.024,0.456-0.049,0.907-0.074,1.352
		c0.558-0.023,1.104-0.054,1.633-0.093C30.988-543.693,31.07-544.149,31.149-544.615z"/>
	<path d="M29.451-537.83c-0.17,0.007-0.346,0.012-0.519,0.018c-0.043,0.636-0.083,1.19-0.116,1.653
		C29.023-536.66,29.236-537.211,29.451-537.83z"/>
	<path d="M31.373-574.374c-0.12-0.011-0.253-0.016-0.375-0.025c0.161,0.424,0.323,0.878,0.484,1.361
		c0.179,0.018,0.353,0.037,0.528,0.056C31.794-573.488,31.582-573.948,31.373-574.374z"/>
	<path d="M31.638-548.249c-0.688,0.046-1.392,0.084-2.123,0.111c-0.022,0.536-0.046,1.076-0.072,1.615
		c0.693-0.03,1.358-0.075,2.009-0.126C31.521-547.165,31.581-547.7,31.638-548.249z"/>
	<path d="M29.149-541.159c-0.028,0.461-0.056,0.907-0.084,1.336c0.35-0.013,0.688-0.031,1.025-0.05
		c0.123-0.434,0.245-0.875,0.362-1.352C30.027-541.198,29.593-541.177,29.149-541.159z"/>
	<path d="M30.181-534.19c-0.008,0-0.016,0.001-0.024,0.002c-0.029,0.062-0.057,0.117-0.085,0.177
		C30.105-534.065,30.146-534.134,30.181-534.19z"/>
	<path d="M41.263-539.89c-0.01,0.004-0.02,0.008-0.029,0.011c-0.014,0.038-0.027,0.074-0.041,0.112
		C41.216-539.806,41.24-539.85,41.263-539.89z"/>
	<path d="M32.748-576.825c-0.154-0.045-0.309-0.091-0.465-0.132c0.13,0.22,0.264,0.455,0.402,0.707
		c0.175,0.021,0.344,0.043,0.515,0.064C33.023-576.448,32.868-576.668,32.748-576.825z"/>
	<path d="M31.92-558.564c-0.025-0.548-0.059-1.074-0.095-1.597c-0.753-0.051-1.53-0.092-2.336-0.121
		c0.022,0.567,0.043,1.121,0.062,1.656C30.37-558.611,31.158-558.591,31.92-558.564z"/>
	<path d="M30.219-576.461c-0.126-0.2-0.242-0.378-0.351-0.538c0.083,0.168,0.169,0.346,0.257,0.533
		C30.157-576.464,30.188-576.463,30.219-576.461z"/>
	<path d="M29.351-563.601c0.02,0.439,0.039,0.878,0.057,1.313c0.777,0.026,1.514,0.068,2.244,0.114
		c-0.045-0.442-0.086-0.895-0.139-1.316C30.815-563.536,30.098-563.575,29.351-563.601z"/>
	<path d="M10.557-564.919c-0.424,0.174-0.82,0.35-1.19,0.524c-0.098,0.369-0.195,0.738-0.283,1.133
		c0.394-0.129,0.808-0.256,1.244-0.382C10.401-564.074,10.473-564.512,10.557-564.919z"/>
	<path d="M22.331-536.235c-0.189-0.536-0.378-1.127-0.565-1.764c-0.194-0.018-0.378-0.039-0.569-0.058
		c0.251,0.659,0.501,1.241,0.746,1.778C22.076-536.266,22.195-536.248,22.331-536.235z"/>
	<path d="M11.634-555.218c0,0.187,0.01,0.354,0.012,0.537c0.434,0.047,0.905,0.093,1.417,0.137
		c-0.002-0.234-0.007-0.463-0.007-0.701c0-0.235,0.005-0.462,0.008-0.694c-0.493,0.057-0.963,0.113-1.416,0.173
		C11.645-555.58,11.634-555.407,11.634-555.218z"/>
	<path d="M20.933-541.392c-0.287-0.029-0.563-0.063-0.842-0.097c0.127,0.466,0.257,0.903,0.391,1.331
		c0.243,0.029,0.488,0.058,0.739,0.084C21.121-540.493,21.025-540.937,20.933-541.392z"/>
	<path d="M20.362-544.753c-0.354-0.035-0.707-0.071-1.048-0.111c0.084,0.445,0.176,0.867,0.268,1.287
		c0.319,0.044,0.644,0.085,0.975,0.123C20.488-543.874,20.423-544.307,20.362-544.753z"/>
	<path d="M24.005-543.172c-0.041-0.445-0.08-0.893-0.119-1.341c-0.504-0.02-0.998-0.045-1.481-0.075
		c0.067,0.459,0.138,0.903,0.211,1.332C23.069-543.222,23.532-543.194,24.005-543.172z"/>
	<path d="M24.194-541.163c-0.401-0.017-0.794-0.037-1.182-0.062c0.101,0.462,0.204,0.905,0.31,1.325
		c0.336,0.021,0.656,0.052,1.003,0.067C24.281-540.27,24.238-540.712,24.194-541.163z"/>
	<path d="M23.596-548.142c-0.546-0.022-1.082-0.05-1.604-0.084c0.046,0.554,0.097,1.096,0.154,1.615
		c0.512,0.037,1.037,0.066,1.573,0.091C23.675-547.066,23.634-547.608,23.596-548.142z"/>
	<path d="M23.01-534.188c0.226,0.392,0.429,0.721,0.596,0.971c-0.144-0.282-0.297-0.604-0.457-0.961
		C23.102-534.181,23.056-534.185,23.01-534.188z"/>
	<path d="M19.604-536.581c-0.221-0.54-0.442-1.124-0.66-1.751c-0.415-0.062-0.81-0.13-1.204-0.198
		c0.257,0.661,0.512,1.238,0.758,1.757C18.851-536.704,19.224-536.643,19.604-536.581z"/>
	<path d="M14.742-541.248c-0.113-0.414-0.223-0.843-0.329-1.289c-0.426-0.11-0.84-0.224-1.239-0.342
		c0.128,0.454,0.259,0.882,0.394,1.292C13.943-541.471,14.333-541.358,14.742-541.248z"/>
	<path d="M13.311-549.433c-0.486-0.109-0.955-0.223-1.406-0.34c0.047,0.465,0.1,0.918,0.157,1.358
		c0.446,0.138,0.911,0.272,1.398,0.403C13.406-548.475,13.355-548.946,13.311-549.433z"/>
	<path d="M11.758-540.048c0.204,0.361,0.4,0.688,0.589,0.98c-0.116-0.286-0.23-0.587-0.344-0.898
		C11.922-539.994,11.837-540.021,11.758-540.048z"/>
	<path d="M13.159-551.549c-0.018-0.324-0.035-0.651-0.048-0.985c-0.508-0.043-0.98-0.088-1.42-0.133
		c0.012,0.26,0.034,0.498,0.049,0.752C12.191-551.789,12.666-551.668,13.159-551.549z"/>
	<path d="M13.944-544.759c-0.065-0.356-0.128-0.722-0.188-1.095c-0.467-0.113-0.919-0.23-1.353-0.353
		c0.066,0.358,0.138,0.692,0.21,1.031C13.038-545.032,13.482-544.894,13.944-544.759z"/>
	<path d="M24.715-536.093c-0.06-0.547-0.121-1.128-0.185-1.735c-0.21-0.009-0.422-0.015-0.629-0.025
		c0.207,0.653,0.414,1.237,0.615,1.757C24.58-536.095,24.651-536.095,24.715-536.093z"/>
	<path d="M17.443-543.926c-0.08-0.401-0.156-0.813-0.229-1.235c-0.461-0.074-0.912-0.152-1.348-0.235
		c0.074,0.417,0.158,0.8,0.239,1.192C16.538-544.106,16.982-544.013,17.443-543.926z"/>
	<path d="M16.046-537.358c-0.205-0.503-0.41-1.048-0.612-1.635c-0.341-0.079-0.662-0.163-0.984-0.247
		c0.262,0.606,0.521,1.155,0.767,1.619C15.484-537.532,15.752-537.443,16.046-537.358z"/>
	<path d="M18.267-540.479c-0.12-0.423-0.235-0.865-0.349-1.319c-0.447-0.075-0.882-0.155-1.306-0.239
		c0.123,0.462,0.249,0.898,0.378,1.318C17.403-540.634,17.827-540.554,18.267-540.479z"/>
	<path d="M20.192-533.883c0.264,0.078,0.528,0.154,0.796,0.223c-0.129-0.235-0.263-0.488-0.4-0.759
		c-0.286-0.035-0.576-0.069-0.85-0.109C19.932-534.234,20.085-534.021,20.192-533.883z"/>
	<path d="M4.371-558.705c0.523-0.241,1.217-0.531,2.095-0.842c0.019-0.182,0.03-0.374,0.05-0.552
		c-1.16,0.541-1.846,0.975-2.104,1.152C4.398-558.865,4.383-558.786,4.371-558.705z"/>
	<path d="M25.489-558.637c0.46-0.004,0.901-0.013,1.377-0.013c0.232,0,0.455,0.002,0.683,0.003c-0.019-0.541-0.04-1.101-0.063-1.674
		c-0.33-0.004-0.641-0.017-0.979-0.017c-0.31,0-0.592,0.011-0.894,0.014C25.567-559.742,25.526-559.178,25.489-558.637z"/>
	<path d="M7.787-566.214c-0.677,0.485-1.131,0.875-1.374,1.103c0.373-0.225,0.788-0.458,1.24-0.692
		C7.696-565.948,7.744-566.074,7.787-566.214z"/>
	<path d="M24.998-574.505c-0.019,0.001-0.039,0.001-0.057,0.001c-0.152,0.396-0.307,0.823-0.465,1.283
		c0.125-0.005,0.254-0.006,0.38-0.01C24.905-573.674,24.952-574.1,24.998-574.505z"/>
	<path d="M4.34-552.237c0.279,0.239,0.973,0.787,2.144,1.459c-0.029-0.277-0.048-0.572-0.072-0.858
		c-0.855-0.375-1.561-0.731-2.128-1.046C4.301-552.534,4.319-552.386,4.34-552.237z"/>
	<path d="M4.18-556.405l-0.033-0.051c-0.001,0.02-0.001,0.04-0.002,0.061C4.156-556.398,4.168-556.401,4.18-556.405z"/>
	<path d="M7.849-544.082c-0.107-0.341-0.211-0.688-0.312-1.052c-0.483-0.256-0.917-0.507-1.312-0.75
		c0.164,0.351,0.336,0.696,0.518,1.036C6.918-544.707,7.277-544.437,7.849-544.082z"/>
	<path d="M6.871-562.456c0.04-0.22,0.086-0.427,0.129-0.641c-1.022,0.656-1.624,1.189-1.871,1.428
		C5.618-561.914,6.196-562.18,6.871-562.456z"/>
	<path d="M6.917-547.836c-0.03-0.161-0.066-0.311-0.095-0.475c-0.73-0.362-1.357-0.714-1.879-1.036
		c0.002,0.008,0.004,0.016,0.007,0.024C5.225-549.064,5.864-548.512,6.917-547.836z"/>
	<path d="M6.261-553.934l0.021-0.044c-0.009-0.289-0.021-0.573-0.024-0.87c-0.464,0.104-0.878,0.201-1.211,0.286
		C5.38-554.374,5.794-554.16,6.261-553.934z"/>
	<path d="M8.302-557.297c0.434-0.075,0.897-0.15,1.388-0.226c0.013-0.314,0.029-0.624,0.047-0.93
		c-0.497,0.133-0.962,0.265-1.387,0.396C8.333-557.805,8.314-557.556,8.302-557.297z"/>
	<path d="M9.694-552.544c-0.005-0.117-0.004-0.247-0.008-0.366c-0.533-0.076-0.989-0.152-1.381-0.226
		c0.001,0.028,0.001,0.06,0.002,0.088C8.737-552.88,9.2-552.712,9.694-552.544z"/>
	<path d="M10.521-567.86c-0.12,0.287-0.235,0.603-0.352,0.915c0.306-0.121,0.628-0.239,0.958-0.356
		c0.094-0.343,0.19-0.671,0.289-0.994C11.103-568.15,10.806-568.006,10.521-567.86z"/>
	<path d="M8.559-560.211c0.419-0.12,0.866-0.238,1.338-0.356c0.031-0.301,0.075-0.574,0.11-0.865
		c-0.479,0.151-0.925,0.302-1.34,0.453C8.629-560.728,8.592-560.473,8.559-560.211z"/>
	<path d="M8.249-555.181c0.362,0.075,0.82,0.158,1.391,0.245c0-0.097-0.006-0.185-0.006-0.282c0-0.091,0.006-0.172,0.006-0.262
		c-0.497,0.078-0.961,0.156-1.393,0.234C8.247-555.223,8.249-555.203,8.249-555.181z"/>
	<path d="M9.964-549.141c-0.044-0.4-0.086-0.802-0.122-1.22c-0.477-0.15-0.925-0.303-1.353-0.455
		c0.044,0.392,0.104,0.755,0.159,1.129C9.056-549.505,9.494-549.322,9.964-549.141z"/>
	<path d="M11.228-542.406c-0.111-0.399-0.223-0.798-0.327-1.229c-0.312-0.116-0.612-0.234-0.902-0.354
		c0.154,0.445,0.314,0.864,0.476,1.265C10.715-542.618,10.962-542.513,11.228-542.406z"/>
	<path d="M10.41-546.011c-0.051-0.282-0.098-0.573-0.145-0.866c-0.415-0.146-0.817-0.291-1.194-0.439
		c0.059,0.269,0.122,0.524,0.186,0.782C9.617-546.36,10.001-546.185,10.41-546.011z"/>
	<path d="M6.292-556.914c0.005-0.143,0.005-0.292,0.012-0.433c-1.076,0.421-1.712,0.755-1.964,0.898
		C4.842-556.583,5.479-556.741,6.292-556.914z"/>
	<path d="M23.367-556.605c-0.544,0.013-1.077,0.028-1.597,0.046c-0.017,0.643-0.037,1.278-0.037,1.951
		c0,0.163,0.003,0.317,0.004,0.479c0.509,0.01,1.032,0.019,1.576,0.025c-0.003-0.359-0.003-0.705,0.002-1.021
		C23.324-555.573,23.342-556.072,23.367-556.605z"/>
	<path d="M24.463-569.56c0.059-0.567,0.118-1.124,0.176-1.665c-0.262,0.01-0.54,0.008-0.795,0.022
		c-0.152,0.529-0.3,1.091-0.446,1.682C23.747-569.536,24.103-569.549,24.463-569.56z"/>
	<path d="M23.603-560.291c-0.575,0.018-1.112,0.05-1.659,0.078c-0.041,0.529-0.065,1.095-0.095,1.649
		c0.535-0.018,1.073-0.035,1.633-0.047C23.518-559.15,23.558-559.712,23.603-560.291z"/>
	<path d="M22.589-565.546c0.482-0.024,0.975-0.045,1.478-0.061c0.062-0.65,0.126-1.3,0.19-1.943
		c-0.447,0.015-0.885,0.035-1.314,0.06C22.818-566.871,22.701-566.221,22.589-565.546z"/>
	<path d="M19.227-565.292c0.422-0.043,0.854-0.082,1.295-0.118c0.104-0.669,0.218-1.303,0.336-1.921
		c-0.425,0.042-0.841,0.089-1.247,0.14C19.476-566.585,19.346-565.955,19.227-565.292z"/>
	<path d="M23.88-563.599c-0.549,0.02-1.063,0.054-1.587,0.084c-0.054,0.419-0.106,0.841-0.154,1.279
		c0.529-0.025,1.073-0.045,1.627-0.061C23.802-562.726,23.841-563.161,23.88-563.599z"/>
	<path d="M20.13-569.268c0.378-0.041,0.764-0.078,1.157-0.111c0.133-0.575,0.271-1.119,0.411-1.643
		c-0.371,0.04-0.72,0.092-1.076,0.141C20.455-570.372,20.29-569.837,20.13-569.268z"/>
	<path d="M19.997-576.034c0.205-0.031,0.407-0.063,0.618-0.092c0.179-0.345,0.353-0.658,0.518-0.942
		c-0.16,0.039-0.319,0.081-0.479,0.124C20.535-576.799,20.3-576.491,19.997-576.034z"/>
	<path d="M21.407-573.006c0.287-0.03,0.593-0.049,0.888-0.075c0.146-0.454,0.291-0.874,0.435-1.276
		c-0.269,0.024-0.512,0.06-0.772,0.088C21.777-573.882,21.593-573.461,21.407-573.006z"/>
	<path d="M23.465-550.153c-0.04-0.677-0.073-1.331-0.099-1.95c-0.55-0.007-1.078-0.016-1.594-0.025
		c0.02,0.642,0.044,1.27,0.078,1.875C22.381-550.217,22.908-550.178,23.465-550.153z"/>
	<path d="M26.694-543.107c0.192,0,0.376-0.005,0.565-0.007c0.026-0.444,0.051-0.896,0.075-1.353
		c-0.275,0.003-0.546,0.009-0.828,0.009c-0.206,0-0.403-0.005-0.606-0.007c0.04,0.451,0.08,0.901,0.121,1.349
		C26.247-543.113,26.466-543.107,26.694-543.107z"/>
	<path d="M23.071-576.385c0.154-0.012,0.314-0.021,0.471-0.032c0.189-0.437,0.371-0.837,0.536-1.173
		c-0.078,0.009-0.154,0.021-0.231,0.03C23.667-577.318,23.395-576.922,23.071-576.385z"/>
	<path d="M26.507-546.458c0.316,0,0.621-0.006,0.93-0.01c0.026-0.543,0.05-1.085,0.073-1.624c-0.326,0.004-0.648,0.009-0.981,0.009
		c-0.313,0-0.615-0.006-0.921-0.01c0.039,0.535,0.081,1.078,0.125,1.626C25.99-546.464,26.244-546.458,26.507-546.458z"/>
	<path d="M25.316-555.087c-0.006,0.308-0.005,0.646-0.002,0.997c0.333,0.001,0.663,0.003,1.007,0.003c0.456,0,0.9-0.001,1.337-0.003
		c0-0.368-0.003-0.723-0.009-1.055c-0.009-0.461-0.021-0.967-0.037-1.501c-0.249-0.002-0.493-0.004-0.747-0.004
		c-0.517,0-0.997,0.01-1.495,0.014C25.344-556.073,25.325-555.551,25.316-555.087z"/>
	<path d="M26.528-550.083c0.366,0,0.701-0.014,1.057-0.019c0.022-0.685,0.04-1.349,0.053-1.988
		c-0.432,0.002-0.868,0.003-1.317,0.003c-0.325,0-0.637-0.002-0.952-0.003c0.026,0.629,0.062,1.295,0.104,1.985
		C25.828-550.1,26.164-550.083,26.528-550.083z"/>
	<path d="M17.962-568.987c0.136-0.529,0.277-1.036,0.421-1.521c-0.368,0.072-0.75,0.14-1.1,0.221
		c-0.161,0.474-0.32,0.968-0.473,1.495C17.186-568.861,17.569-568.926,17.962-568.987z"/>
	<path d="M17.349-575.534c0.056-0.103,0.111-0.205,0.166-0.302c-0.116,0.052-0.232,0.104-0.347,0.157l0.139,0.139
		c-0.001,0.001-0.014,0.016-0.017,0.019C17.31-575.526,17.33-575.53,17.349-575.534z"/>
	<path d="M27.214-532.992c0.145-0.221,0.362-0.575,0.635-1.088c-0.299,0.007-0.587,0.02-0.896,0.021
		c0.045,0.4,0.086,0.759,0.122,1.07C27.122-532.989,27.168-532.99,27.214-532.992z"/>
	<path d="M19.931-560.085c-0.456,0.036-0.926,0.067-1.36,0.108c-0.039,0.515-0.08,1.023-0.105,1.563
		c0.439-0.026,0.913-0.046,1.374-0.067C19.866-559.024,19.893-559.564,19.931-560.085z"/>
	<path d="M14.912-571.751c0.263-0.076,0.547-0.145,0.822-0.217c0.162-0.432,0.325-0.837,0.489-1.222
		c-0.231,0.065-0.449,0.132-0.667,0.199C15.348-572.62,15.132-572.208,14.912-571.751z"/>
	<path d="M16.896-547.254c-0.065-0.499-0.125-1.013-0.179-1.538c-0.461-0.07-0.908-0.146-1.344-0.225
		c0.052,0.506,0.101,1.021,0.164,1.499C15.976-547.425,16.429-547.337,16.896-547.254z"/>
	<path d="M13.441-568.026c0.371-0.103,0.751-0.202,1.146-0.298c0.119-0.456,0.24-0.901,0.366-1.323
		c-0.366,0.113-0.734,0.228-1.076,0.348C13.729-568.896,13.583-568.474,13.441-568.026z"/>
	<path d="M16.537-550.861c-0.032-0.474-0.06-0.956-0.082-1.449c-0.467-0.024-0.911-0.05-1.338-0.077
		c0.02,0.444,0.055,0.854,0.083,1.281C15.637-551.022,16.073-550.938,16.537-550.861z"/>
	<path d="M12.468-564.196c0.422-0.098,0.854-0.193,1.307-0.285c0.093-0.563,0.195-1.102,0.302-1.626
		c-0.439,0.12-0.862,0.244-1.266,0.372C12.69-565.239,12.574-564.733,12.468-564.196z"/>
	<path d="M13.353-561.295c0.036-0.356,0.074-0.71,0.116-1.054c-0.473,0.104-0.932,0.21-1.366,0.32
		c-0.046,0.321-0.084,0.657-0.125,0.991C12.417-561.126,12.878-561.212,13.353-561.295z"/>
	<path d="M15.055-555.245c0,0.295,0.014,0.563,0.018,0.852c0.421,0.027,0.864,0.054,1.327,0.078
		c-0.005-0.34-0.011-0.677-0.011-1.024c0-0.313,0.006-0.616,0.01-0.923c-0.461,0.037-0.889,0.078-1.324,0.118
		C15.071-555.841,15.055-555.557,15.055-555.245z"/>
	<path d="M12.322-570.876c0.147-0.365,0.293-0.722,0.441-1.051c-0.241,0.331-0.503,0.722-0.785,1.186
		C12.092-570.786,12.207-570.831,12.322-570.876z"/>
	<path d="M20.117-546.795c-0.054-0.517-0.103-1.048-0.146-1.595c-0.407-0.039-0.805-0.081-1.196-0.127
		c0.062,0.539,0.124,1.074,0.198,1.583C19.347-546.884,19.728-546.838,20.117-546.795z"/>
	<path d="M19.838-550.428c-0.029-0.567-0.051-1.152-0.068-1.75c-0.447-0.013-0.883-0.027-1.302-0.043
		c0.028,0.571,0.069,1.116,0.111,1.66C18.983-550.51,19.417-550.472,19.838-550.428z"/>
	<path d="M16.841-562.968c-0.446,0.066-0.872,0.138-1.292,0.211c-0.05,0.366-0.09,0.756-0.133,1.137
		c0.419-0.059,0.85-0.114,1.292-0.168C16.75-562.188,16.794-562.582,16.841-562.968z"/>
	<path d="M11.697-557.801c0.451-0.058,0.928-0.111,1.417-0.165c0.018-0.427,0.042-0.845,0.068-1.256
		c-0.489,0.091-0.956,0.185-1.401,0.28C11.753-558.561,11.716-558.196,11.697-557.801z"/>
	<path d="M18.9-563.237c-0.054,0.396-0.094,0.822-0.141,1.235c0.44-0.04,0.891-0.077,1.353-0.11
		c0.043-0.422,0.083-0.849,0.133-1.254C19.79-563.325,19.333-563.286,18.9-563.237z"/>
	<path d="M18.389-555.34c0,0.386,0.018,0.74,0.024,1.115c0.427,0.017,0.865,0.032,1.324,0.046c-0.001-0.145-0.004-0.283-0.004-0.43
		c0-0.644,0.021-1.248,0.035-1.865c-0.458,0.023-0.918,0.046-1.356,0.072C18.406-556.044,18.389-555.707,18.389-555.34z"/>
	<path d="M15.127-558.164c0.434-0.039,0.865-0.078,1.325-0.112c0.021-0.5,0.048-0.991,0.081-1.471
		c-0.456,0.058-0.881,0.121-1.309,0.186C15.19-559.1,15.151-558.647,15.127-558.164z"/>
	<path d="M18.14-572.514c0.32-0.062,0.636-0.123,0.968-0.179c0.163-0.441,0.327-0.854,0.491-1.249
		c-0.298,0.052-0.593,0.103-0.876,0.159C18.531-573.396,18.337-572.973,18.14-572.514z"/>
	<path d="M15.889-564.862c0.405-0.064,0.823-0.125,1.249-0.184c0.104-0.632,0.218-1.236,0.338-1.822
		c-0.417,0.073-0.824,0.151-1.218,0.233C16.127-566.067,16.003-565.48,15.889-564.862z"/>
</g>
<g>
</g>
<g>
</g>
<g>
</g>
<g>
</g>
<g>
</g>
<g>
</g>
<g>
</g>
<g>
</g>
<g>
</g>
<g>
</g>
<g>
</g>
<g>
</g>
<g>
</g>
<g>
</g>
<g>
</g>
</svg>
