<?xml version="1.0" encoding="iso-8859-1"?>
<!-- Generator: Adobe Illustrator 16.0.0, SVG Export Plug-In . SVG Version: 6.00 Build 0)  -->
<!DOCTYPE svg PUBLIC "-//W3C//DTD SVG 1.1//EN" "http://www.w3.org/Graphics/SVG/1.1/DTD/svg11.dtd">
<svg version="1.1" id="Layer_1" xmlns="http://www.w3.org/2000/svg" xmlns:xlink="http://www.w3.org/1999/xlink" x="0px" y="0px"
	 width="49.163px" height="49.162px" viewBox="0 0 49.163 49.162" style="enable-background:new 0 0 49.163 49.162;"
	 xml:space="preserve">
<path d="M125.935-555.29c0-13.116-10.415-23.839-23.409-24.349c-0.317-0.015-0.636-0.024-0.955-0.024c-0.002,0-0.004,0-0.006,0
	c-0.001,0-0.002,0-0.004,0c-0.006,0-0.012,0-0.018,0c-0.302,0.001-0.604,0.01-0.905,0.023c-13.013,0.487-23.45,11.22-23.45,24.35
	c0,0.084,0.005,0.166,0.006,0.25c-0.003,0.043-0.018,0.083-0.018,0.126c0,0.062,0.019,0.12,0.026,0.18
	c0.261,11.549,8.585,21.14,19.556,23.342c1.388,0.546,3.296,0.806,5.2,0.806c2.304,0,4.617-0.378,6.001-1.187
	c4.093-1.115,7.76-3.27,10.698-6.165c0.012-0.012,0.025-0.023,0.037-0.035C123.162-542.395,125.935-548.523,125.935-555.29z
	 M116.992-539.111c-1.515,0.976-6.823,2.304-15.033,2.304c-9.492,0-15.116-1.776-15.469-2.652c0.353-0.953,5.977-2.729,15.469-2.729
	c9.492,0,15.116,1.776,15.469,2.653c-0.002,0.005-0.008,0.011-0.01,0.016C117.278-539.381,117.134-539.247,116.992-539.111z
	 M101.561-532.915c-1.457,0-2.879-0.145-4.259-0.411c-0.231-0.099-0.415-0.195-0.526-0.278c0.512-0.38,2.281-1.018,5.183-1.018
	c2.876,0,4.636,0.626,5.165,1.007C105.345-533.158,103.48-532.915,101.561-532.915z M94.716-533.99
	c-1.452-0.468-2.838-1.081-4.144-1.821c1.53,0.317,3.218,0.546,4.911,0.704C95.089-534.788,94.816-534.418,94.716-533.99z
	 M80.333-548.236c-0.466-1.4-0.797-2.861-0.979-4.368c1.737,0.794,4.338,1.352,7.167,1.741
	C83.634-550.292,81.237-549.455,80.333-548.236z M79.919-560.966c1.28,0.929,3.565,1.591,6.186,2.061
	c-2.708,0.393-5.178,0.943-6.831,1.717C79.383-558.481,79.599-559.744,79.919-560.966z M101.715-577.659
	c2.813,0.021,4.536,0.641,5.039,1.014c-0.512,0.38-2.281,1.018-5.183,1.018c-2.902,0-4.671-0.638-5.183-1.018
	c0.511-0.38,2.279-1.017,5.178-1.018C101.616-577.663,101.666-577.659,101.715-577.659z M116.605-550.867
	c2.831-0.392,5.433-0.95,7.164-1.748c-0.18,1.504-0.509,2.962-0.974,4.359C121.879-549.466,119.485-550.299,116.605-550.867z
	 M101.572-552.105c-0.227,0-1.771,0.004-3.932,0.093c-11.4-0.313-17.491-1.942-18.402-2.901c0.914-0.961,7.033-2.596,18.484-2.903
	c1.967,0.07,3.347,0.074,3.563,0.074c0.225,0,1.699-0.004,3.789-0.082c11.647,0.286,17.866,1.941,18.788,2.911
	c-0.911,0.958-6.992,2.586-18.375,2.901C103.334-552.102,101.799-552.105,101.572-552.105z M121.709-562.702
	c-0.739,0.979-6.542,2.548-16.465,2.89c-1.818-0.053-3.178-0.06-3.695-0.06c-0.543,0-2.006,0.007-3.961,0.066
	c-10.081-0.322-15.981-1.909-16.727-2.896c0.834-1.103,8.082-2.958,20.423-2.958C113.627-565.66,120.875-563.805,121.709-562.702z
	 M116.702-558.947c2.859-0.529,5.287-1.294,6.395-2.394c0.378,1.342,0.633,2.733,0.753,4.163
	C122.138-557.985,119.538-558.551,116.702-558.947z M113.777-566.908c2.419-0.521,4.39-1.259,5.299-2.279
	c1.026,1.291,1.918,2.694,2.643,4.193C119.84-565.911,116.875-566.513,113.777-566.908z M108.837-576.442
	c1.707,0.589,3.32,1.378,4.813,2.341c-1.815-0.383-3.871-0.646-5.914-0.816C108.363-575.323,108.763-575.829,108.837-576.442z
	 M95.363-574.946c-1.954,0.153-3.933,0.389-5.714,0.732c1.449-0.916,3.01-1.669,4.657-2.235
	C94.375-575.848,94.758-575.349,95.363-574.946z M85.437-570.776c1.375-1.001,6.939-2.405,15.933-2.405
	c9.88,0,15.639,1.696,16.231,2.689c-0.59,0.994-6.348,2.692-16.231,2.692c-9.836,0-15.582-1.682-16.218-2.678
	C85.245-570.578,85.341-570.677,85.437-570.776z M88.904-566.921c-2.771,0.349-5.443,0.86-7.34,1.615
	c0.653-1.299,1.429-2.525,2.313-3.665C84.851-568.069,86.687-567.403,88.904-566.921z M97.443-550.026
	c2.026,0.064,3.55,0.071,4.106,0.071c0.558,0,2.09-0.008,4.127-0.072c9.409,0.362,14.858,1.917,15.502,2.881
	c-0.736,1.095-7.685,2.957-19.607,2.957c-11.923,0-18.872-1.862-19.608-2.957C82.608-548.109,88.049-549.662,97.443-550.026z
	 M114.12-543.014c2.866-0.404,5.561-1.009,7.26-1.91c-0.741,1.411-1.625,2.735-2.639,3.949
	C117.854-541.864,116.171-542.527,114.12-543.014z M81.735-544.94c1.793,0.962,4.712,1.589,7.774,1.995
	c-2.265,0.564-4.04,1.357-4.716,2.445C83.604-541.847,82.576-543.336,81.735-544.94z M109.118-534.231
	c-0.132-0.327-0.366-0.618-0.684-0.876c1.264-0.118,2.524-0.275,3.72-0.479C111.183-535.063,110.168-534.609,109.118-534.231z"/>
<g>
</g>
<g>
</g>
<g>
</g>
<g>
</g>
<g>
</g>
<g>
</g>
<g>
</g>
<g>
</g>
<g>
</g>
<g>
</g>
<g>
</g>
<g>
</g>
<g>
</g>
<g>
</g>
<g>
</g>
</svg>
