<?xml version="1.0" encoding="iso-8859-1"?>
<!-- Generator: Adobe Illustrator 16.0.0, SVG Export Plug-In . SVG Version: 6.00 Build 0)  -->
<!DOCTYPE svg PUBLIC "-//W3C//DTD SVG 1.1//EN" "http://www.w3.org/Graphics/SVG/1.1/DTD/svg11.dtd">
<svg version="1.1" id="Layer_1" xmlns="http://www.w3.org/2000/svg" xmlns:xlink="http://www.w3.org/1999/xlink" x="0px" y="0px"
	 width="49.163px" height="49.162px" viewBox="0 0 49.163 49.162" style="enable-background:new 0 0 49.163 49.162;"
	 xml:space="preserve">
<path d="M372.52-580.195v50h50v-50H372.52z M407.713-569.102l0.204-0.314l0.732-0.148l0.186,0.891l0.391,0.63l0.258,0.298
	l0.473,0.184l-0.443,0.529l-0.863,0.084h-0.648l0.073-0.77l0.539-0.111l-0.046-0.361l-0.502-0.316l-0.353-0.24V-569.102z
	 M406.509-567.71l0.445-0.714l0.601-0.139l0.429,0.186l-0.039,0.481l-0.917,0.649h-0.519V-567.71z M401.298-548.621l-0.955,1.214
	l-0.277,2.685l-0.862,0.682l-1.279-0.039l-0.427,0.742l0.316,1.392l-1.392,1.78l-0.444,0.816l-1.326,0.637l-0.873,0.133
	l-0.035,0.369l0.611,0.176l-0.074,0.398l-0.547,0.528l0.332,0.419l0.66,0.018l-0.037,0.51l-0.176,0.501l-0.057,0.407l0.977,0.822
	l-0.131,0.427l-1.328-0.025l-1.32-1.153l-1.029-1.809l0.144-1.746l-0.778-1.039l0.314-1.761l-0.463-0.13v-3.82
	c0,0-1.298-0.983-1.371-0.983c-0.074,0-0.688-0.166-0.688-0.166l-0.129-0.723l-1.688-2.114l0.167-0.76l0.056-1.242l1.167-0.816
	l-0.167-1.391l-1.705-0.129l-1.335-1.521l-0.945-0.258l-0.612-0.113l0.074-0.556l-0.779-0.11v0.314l-1.946-0.482l-0.784-1.198
	l0.32-0.581l-1.234-1.799l-0.211-1.316h-0.5l0.166,1.279l0.853,1.316l-0.093,0.52l-0.723-0.111l-0.89-1.517v-1.765l-0.927-0.446
	v-1.125v-0.145v-0.696l0.797-0.969c0.277-0.523,0.574-1.032,0.891-1.529l0.01,0.112c1.537-2.43,3.524-4.544,5.848-6.227l1.002-0.009
	l0.501,0.278l0.945,0.204l0.073,0.371l1.503,0.055l-0.204-0.481l-1.335-0.037l0.315-0.296l-0.111-0.354h-1.205l1.316-0.982h1.26
	l0.594,0.816l0.983,0.056l0.593-0.575l0.445,0.223l-0.816,0.797c0,0-1.13,0.02-1.074,0.02c0.055,0,0.093,0.777,0.093,0.777
	l1.371-0.037l0.148-0.37l0.945-0.056l0.111-0.556l-0.556-0.094l0.186-0.501l0.426-0.129l1.483,0.074l-0.817,0.742l0.132,0.574
	l0.853,0.129l-0.056-1.037l0.816-0.428l1.446-0.166l2.095,0.928v0.797l0.668,0.166l-0.334,0.631h-0.945l-0.28,0.723l-2.162-0.51
	l1.699-0.904l-0.648-0.551l-1.465,0.186l-0.128,0.132l-0.005-0.002L394.3-572.1l-0.422,0.438l-0.696,0.059l0.056,0.348l0.244,0.101
	l-0.01,0.114l-0.568,0.082l-0.041,0.328l-0.543,0.029l-0.098-0.654l-0.973,0.297l-1.989,1.164l0.224,0.818l0.556,0.363l1.112,0.153
	v1.265l0.514-0.084l0.474-0.987l1.183-0.374v-1.517l0.658-0.497l1.59,0.376l-0.111,1.001h0.426l1.169-0.574l0.056,1.316l0.852,0.519
	l-0.036,0.78l-0.815,0.277l0.056,0.258l0.981,0.447l-0.019,0.537l-0.284,0.024c-0.002-0.009-0.004-0.015-0.004-0.015l-1.238-0.383
	l-0.053-0.396h-0.002l0.362-0.25v-0.361l-0.39-0.098l-0.097,0.334l-0.684,0.105l-0.068-0.023v0.035l-0.236,0.035l-0.193-0.389
	l-0.224-0.098h-0.486l-0.222,0.18v0.404l0.417,0.139l0.41,0.057l-0.092,0.041l-0.375,0.416l-0.165-0.208l-0.362-0.096l-0.988,0.93
	l0.129,0.106l-1.459,0.807l-1.372,1.428l-0.094,0.637l-1.376,0.903l-0.682,0.687l0.075,1.371l-0.946-0.44l0.008-0.803l-2.632,0.001
	l-1.362,0.69l-0.593,1.091l-0.234,0.865l0.384,0.839l1.073,0.131l1.706-1.142l0.15,0.566l-0.521,0.983l1.299,0.222l0.13,2.006
	l1.78,0.303l1.131-1.308l1.373,0.278l0.481,0.672l1.316-0.078l0.036-0.39l0.724,0.353l0.815,1.278l1.409,0.02l0.52,0.909
	l0.073,1.111l1.559,0.594l1.965,0.02l0.576,0.943l0.871,0.279L401.298-548.621z M396.14-565.795l-0.125,0.259l-0.316,0.027
	l-0.064,0.308l-0.244,0.151l-0.393,0.032c-0.013-0.092-0.021-0.162-0.021-0.162h-0.152v-0.329h0.639l0.133-0.341l0.254-0.005
	L396.14-565.795z M394.434-565.29l-0.048,0.324l-0.465,0.038l0.025-0.322l0.209-0.259L394.434-565.29z M415.42-540.672l-0.688,0.065
	c0.007-0.008,0.014-0.016,0.021-0.023h-0.736v-1.483l-0.852-1.146v-1.784l-0.65-0.647l-0.055-0.742l0.824-1.576l-1.566-2.764
	l0.186-1.873l-1.408-0.146l-0.52-0.52h-0.946l-0.481,0.445h-1.668l-0.057,0.147h-0.928l-2.131-2.428l0.018-1.892l0.352-0.13
	l0.131-0.724h-0.5l-0.205-0.76l2.467-1.779v-1.262l1.207-0.67l0.488,0.049h0.994l0.777-0.417l2.503-0.195v1.28l1.976,0.5
	l0.389,0.278h0.362v-0.696l1.14-0.111l1.085,0.808h1.78l0.125-0.114c-0.177-0.601-0.379-1.189-0.604-1.769l-1.163,0.02l-0.583-0.64
	l-0.112-1.029l-0.597,0.326l-0.321,1.258l-0.862-0.918l-0.035-0.867l-0.832-0.717l-0.309-0.306h-0.965l0.305,0.86l1.162,0.648
	l0.202,0.215l-0.251,0.125l0.01,0.682l-0.566,0.236l-0.482-0.105l-0.303-0.429l0.785,0.042l0.213-0.285l-1.742-1.176l-0.133-0.5
	l-0.707,0.639l-0.719-0.146l-1.092,1.42l-0.214,0.556l-0.698,0.063l-1.034,0.006l-0.618-0.288l-0.181-1.228l0.222-0.585l1.051-0.229
	l1.147,0.229l0.14-0.635l-0.487-0.115l0.167-0.987l1.154-0.182l0.807-1.14l0.833-0.14l0.753,0.111h0.277l-0.152-1.07l-0.915,0.369
	l-0.321-0.801l-0.531-0.073l-0.099-0.549l0.433-0.472l1.029-0.402c0,0,0.38-0.63,0.429-0.588c4.789,4.129,7.825,10.235,7.825,17.055
	C420.167-549.281,418.392-544.487,415.42-540.672z"/>
<g>
</g>
<g>
</g>
<g>
</g>
<g>
</g>
<g>
</g>
<g>
</g>
<g>
</g>
<g>
</g>
<g>
</g>
<g>
</g>
<g>
</g>
<g>
</g>
<g>
</g>
<g>
</g>
<g>
</g>
</svg>
