<?xml version="1.0" encoding="iso-8859-1"?>
<!-- Generator: Adobe Illustrator 16.0.0, SVG Export Plug-In . SVG Version: 6.00 Build 0)  -->
<!DOCTYPE svg PUBLIC "-//W3C//DTD SVG 1.1//EN" "http://www.w3.org/Graphics/SVG/1.1/DTD/svg11.dtd">
<svg version="1.1" id="Layer_1" xmlns="http://www.w3.org/2000/svg" xmlns:xlink="http://www.w3.org/1999/xlink" x="0px" y="0px"
	 width="49.163px" height="49.162px" viewBox="0 0 49.163 49.162" style="enable-background:new 0 0 49.163 49.162;"
	 xml:space="preserve">
<g>
	<path d="M195.607-479.717l-1.693,2.43l-4.84-2.13l-4.486-2.714l0,0l-1.229-0.743l0,0l-2.343-1.417l0,0l-1.156-0.699l0,0
		l-2.412-1.459l-3.578,2.543l0,0l-0.608,0.433l0.608,0.427l0,0l5.031,3.527l0.789,0.554l0,0l1.727,1.21l-11.575,2.534l-8.806-4.732
		l-5,2.32l12.221,8.161l15.125,0.125l4.448,0.792l-1.829,2.625l5.41,3.767l9.608-13.786L195.607-479.717z M190.913-464.947
		l-2.127-1.481l7.319-10.505l2.129,1.481L190.913-464.947z"/>
	<path d="M160.289-483.68c3.062,3.671,7.657,6.022,12.795,6.052c0.02,0,0.039,0.003,0.058,0.003c0.005,0,0.01-0.001,0.016-0.001
		c0.008,0,0.016,0.001,0.024,0.001c0.196,0,0.386-0.026,0.581-0.033l2.774-1.076l-1.16-0.813c-0.486,0.24-0.99,0.405-1.507,0.485
		v-1.542l-1.377-0.965v2.517c-2.825-0.387-5.264-3.285-6.647-7.458c1.992-0.599,4.25-0.961,6.647-1.019v2.148l1.377-0.979v-1.17
		c0.517,0.013,1.023,0.045,1.526,0.085l0.894-0.635l0.781-0.556c-1.035-0.146-2.102-0.245-3.201-0.271v-4.268h7.75
		c-0.084,1.901-0.36,3.703-0.792,5.348c-0.922-0.279-1.899-0.5-2.91-0.676l0.565,0.342l3.769,2.279
		c0.992,0.402,1.914,0.854,2.707,1.373c-0.05,0.059-0.104,0.113-0.154,0.171l1.205,0.729c0.021-0.025,0.046-0.047,0.066-0.072
		c0.282-0.338,0.549-0.69,0.805-1.052c1.939-2.736,3.084-6.074,3.084-9.678c0-3.602-1.145-6.939-3.084-9.677
		c-0.256-0.361-0.521-0.713-0.805-1.052c-3.082-3.696-7.718-6.054-12.895-6.054c-0.009,0-0.017,0-0.024,0c-0.006,0-0.011,0-0.016,0
		c-0.019,0-0.038,0.002-0.058,0.002c-5.138,0.029-9.733,2.381-12.795,6.053c-0.282,0.339-0.55,0.69-0.806,1.052
		c-1.938,2.736-3.084,6.074-3.084,9.676c0,3.604,1.146,6.941,3.084,9.678C159.739-484.37,160.007-484.02,160.289-483.68z
		 M185.772-485.557c-1.063-0.71-2.293-1.33-3.658-1.838c0.484-1.781,0.795-3.728,0.883-5.779h5.537
		C188.31-490.352,187.316-487.747,185.772-485.557z M188.584-494.55h-5.559c-0.013-2.453-0.34-4.778-0.91-6.873
		c1.362-0.507,2.594-1.126,3.655-1.836C187.512-500.787,188.555-497.79,188.584-494.55z M184.961-504.311
		c-0.936,0.613-2.025,1.154-3.237,1.602c-0.892-2.646-2.192-4.849-3.76-6.342C180.723-508.148,183.133-506.482,184.961-504.311z
		 M173.87-509.755c2.795,0.432,5.202,3.327,6.57,7.472c-1.974,0.584-4.202,0.938-6.57,0.995V-509.755z M173.87-499.91
		c2.496-0.061,4.852-0.443,6.952-1.079c0.515,1.958,0.813,4.136,0.825,6.439h-7.777V-499.91z M168.276-479.808
		c-2.706-0.912-5.07-2.563-6.871-4.7c0.918-0.601,1.981-1.131,3.162-1.574C165.45-483.47,166.732-481.297,168.276-479.808z
		 M172.493-488.906c-2.528,0.062-4.912,0.452-7.033,1.103c-0.435-1.65-0.712-3.461-0.796-5.37h7.829V-488.906z M172.493-494.55
		h-7.857c0.011-2.313,0.313-4.498,0.832-6.462c2.119,0.649,4.5,1.04,7.025,1.102V-494.55z M172.493-509.765v8.477
		c-2.396-0.058-4.651-0.42-6.644-1.017C167.232-506.476,169.669-509.377,172.493-509.765z M168.276-509.009
		c-1.544,1.487-2.824,3.662-3.707,6.273c-1.185-0.442-2.249-0.975-3.168-1.576C163.202-506.451,165.57-508.097,168.276-509.009z
		 M160.593-503.26c1.044,0.697,2.249,1.308,3.584,1.81c-0.575,2.103-0.905,4.437-0.918,6.9h-5.479
		C157.809-497.79,158.852-500.789,160.593-503.26z M163.286-493.174c0.088,2.063,0.4,4.02,0.89,5.808
		c-1.334,0.502-2.54,1.112-3.583,1.809c-1.544-2.19-2.538-4.794-2.763-7.616H163.286z"/>
</g>
<g>
</g>
<g>
</g>
<g>
</g>
<g>
</g>
<g>
</g>
<g>
</g>
<g>
</g>
<g>
</g>
<g>
</g>
<g>
</g>
<g>
</g>
<g>
</g>
<g>
</g>
<g>
</g>
<g>
</g>
</svg>
