<?xml version="1.0" encoding="iso-8859-1"?>
<!-- Generator: Adobe Illustrator 16.0.0, SVG Export Plug-In . SVG Version: 6.00 Build 0)  -->
<!DOCTYPE svg PUBLIC "-//W3C//DTD SVG 1.1//EN" "http://www.w3.org/Graphics/SVG/1.1/DTD/svg11.dtd">
<svg version="1.1" id="Layer_1" xmlns="http://www.w3.org/2000/svg" xmlns:xlink="http://www.w3.org/1999/xlink" x="0px" y="0px"
	 width="49.163px" height="49.162px" viewBox="0 0 49.163 49.162" style="enable-background:new 0 0 49.163 49.162;"
	 xml:space="preserve">
<g>
	<path d="M123.18-474.565l-0.934,1.34l-2.669-1.175l-6.413-3.878l-2.309,1.641l4.498,3.154l-6.384,1.396l-4.856-2.609l-2.758,1.28
		l6.74,4.5l8.341,0.069l2.453,0.437l-1.009,1.447l2.984,2.078l5.299-7.604L123.18-474.565z M120.591-466.42l-1.173-0.816
		l4.037-5.794l1.174,0.817L120.591-466.42z"/>
	<path d="M93.364-472.085l-6.384-1.397l4.498-3.153l-2.309-1.643l-6.412,3.879l-2.67,1.175l-0.934-1.341l-2.985,2.078l5.299,7.604
		l2.984-2.078l-1.009-1.447l2.453-0.437l8.342-0.069l6.74-4.5l-2.758-1.28L93.364-472.085z M81.744-466.419l-4.039-5.793
		l1.174-0.817l4.037,5.794L81.744-466.419z"/>
	<path d="M89.876-482.727c2.793,3.351,6.987,5.496,11.674,5.522c0.018,0,0.035,0.003,0.053,0.003c0.004,0,0.009-0.001,0.014-0.001
		c0.007,0,0.015,0.001,0.022,0.001c4.724,0,8.954-2.151,11.765-5.523c0.257-0.31,0.502-0.631,0.735-0.961
		c1.77-2.496,2.813-5.542,2.813-8.83c0-3.285-1.044-6.331-2.813-8.829c-0.233-0.33-0.477-0.65-0.735-0.96
		c-2.812-3.372-7.041-5.523-11.765-5.523c-0.008,0-0.015,0-0.022,0c-0.005,0-0.009,0-0.014,0c-0.018,0-0.035,0.002-0.053,0.002
		c-4.687,0.027-8.881,2.173-11.674,5.522c-0.258,0.31-0.502,0.63-0.735,0.96c-1.77,2.497-2.814,5.542-2.814,8.828
		c0,3.288,1.045,6.334,2.814,8.83C89.374-483.356,89.618-483.034,89.876-482.727z M106.003-479.154
		c1.429-1.363,2.618-3.37,3.431-5.786c1.104,0.409,2.097,0.9,2.95,1.459C110.716-481.5,108.519-479.979,106.003-479.154z
		 M113.126-484.439c-0.969-0.647-2.092-1.213-3.337-1.676c0.442-1.625,0.725-3.401,0.806-5.271h5.052
		C115.441-488.813,114.535-486.436,113.126-484.439z M115.692-492.644h-5.072c-0.011-2.238-0.31-4.359-0.831-6.271
		c1.244-0.463,2.366-1.027,3.335-1.674C114.714-498.335,115.665-495.6,115.692-492.644z M112.387-501.55
		c-0.855,0.561-1.849,1.054-2.955,1.461c-0.813-2.414-2-4.423-3.429-5.786C108.519-505.051,110.718-503.53,112.387-501.55z
		 M102.267-506.517c2.55,0.394,4.747,3.035,5.995,6.815c-1.8,0.534-3.834,0.857-5.995,0.91V-506.517z M102.267-497.535
		c2.278-0.055,4.427-0.404,6.343-0.983c0.47,1.785,0.742,3.772,0.753,5.875h-7.097V-497.535z M102.267-491.387h7.071
		c-0.076,1.733-0.329,3.377-0.722,4.878c-1.918-0.582-4.069-0.931-6.349-0.985V-491.387z M102.267-486.238
		c2.161,0.053,4.196,0.376,5.998,0.91c-1.249,3.782-3.448,6.421-5.998,6.814V-486.238z M90.894-483.481
		c0.838-0.548,1.808-1.032,2.885-1.437c0.806,2.384,1.976,4.367,3.384,5.725C94.694-480.025,92.537-481.53,90.894-483.481z
		 M101.011-478.504c-2.578-0.353-4.804-2.998-6.064-6.805c1.817-0.546,3.877-0.877,6.064-0.93V-478.504z M101.011-487.494
		c-2.306,0.056-4.481,0.412-6.417,1.007c-0.396-1.507-0.65-3.158-0.727-4.899h7.144V-487.494z M101.011-492.644h-7.169
		c0.01-2.111,0.286-4.104,0.758-5.896c1.934,0.592,4.107,0.949,6.411,1.004V-492.644z M101.011-506.526v7.735
		c-2.186-0.054-4.244-0.384-6.062-0.928C96.211-503.525,98.434-506.172,101.011-506.526z M97.163-505.837
		c-1.408,1.357-2.577,3.343-3.383,5.725c-1.08-0.403-2.052-0.889-2.89-1.438C92.533-503.502,94.694-505.005,97.163-505.837z
		 M90.153-500.59c0.952,0.636,2.052,1.191,3.27,1.649c-0.525,1.919-0.826,4.049-0.837,6.297h-4.999
		C87.613-495.6,88.563-498.336,90.153-500.59z M92.609-491.387c0.081,1.88,0.366,3.666,0.813,5.298
		c-1.217,0.457-2.318,1.014-3.269,1.649c-1.409-1.998-2.315-4.374-2.521-6.947H92.609z"/>
</g>
<g>
</g>
<g>
</g>
<g>
</g>
<g>
</g>
<g>
</g>
<g>
</g>
<g>
</g>
<g>
</g>
<g>
</g>
<g>
</g>
<g>
</g>
<g>
</g>
<g>
</g>
<g>
</g>
<g>
</g>
</svg>
