<?xml version="1.0" encoding="iso-8859-1"?>
<!-- Generator: Adobe Illustrator 16.0.0, SVG Export Plug-In . SVG Version: 6.00 Build 0)  -->
<!DOCTYPE svg PUBLIC "-//W3C//DTD SVG 1.1//EN" "http://www.w3.org/Graphics/SVG/1.1/DTD/svg11.dtd">
<svg version="1.1" id="Layer_1" xmlns="http://www.w3.org/2000/svg" xmlns:xlink="http://www.w3.org/1999/xlink" x="0px" y="0px"
	 width="49.163px" height="49.162px" viewBox="0 0 49.163 49.162" style="enable-background:new 0 0 49.163 49.162;"
	 xml:space="preserve">
<path d="M178.245-1024.074c-13.439,0-24.373,10.934-24.373,24.373c0,5.062,1.551,9.768,4.203,13.668v0.069h0.049
	c4.395,6.417,11.773,10.638,20.121,10.638c13.439,0,24.373-10.935,24.373-24.375
	C202.618-1013.141,191.685-1024.074,178.245-1024.074z M179.245-1012.951v-9.098c2.389,0.105,4.682,0.588,6.82,1.388
	c0.556,1.008,1.834,3.602,2.89,7.71H179.245z M189.425-1010.951c0.622,2.96,1.078,6.556,1.122,10.751h-11.302v-10.751H189.425z
	 M177.245-1012.951h-9.25c1.139-4.424,2.531-7.091,3.002-7.912c1.975-0.678,4.07-1.089,6.248-1.186V-1012.951z M177.245-1010.951
	v10.751h-10.842c0.045-4.195,0.5-7.792,1.123-10.751H177.245z M164.403-1000.2h-8.52c0.087-3.912,1.18-7.578,3.034-10.751h6.554
	C164.872-1007.957,164.444-1004.369,164.403-1000.2z M164.418-998.2c0.084,3.974,0.513,7.396,1.103,10.236h-6.313
	c-1.865-3.014-3.031-6.501-3.28-10.236H164.418z M166.419-998.2h10.826v10.236h-9.658
	C166.972-990.771,166.508-994.188,166.419-998.2z M177.245-985.964v8.612c-2.181-0.097-4.279-0.51-6.256-1.189
	c-0.458-0.771-1.794-3.255-2.914-7.423H177.245z M179.245-985.964h9.63c-1.036,3.854-2.256,6.269-2.797,7.219
	c-2.142,0.804-4.438,1.288-6.833,1.394V-985.964z M179.245-987.964V-998.2h11.287c-0.09,4.013-0.554,7.43-1.17,10.236H179.245z
	 M192.532-998.2h8.03c-0.249,3.735-1.415,7.223-3.28,10.236h-5.854C192.02-990.804,192.448-994.227,192.532-998.2z M192.547-1000.2
	c-0.042-4.169-0.469-7.757-1.067-10.751h6.093c1.854,3.173,2.947,6.839,3.034,10.751H192.547z M196.259-1012.951h-5.221
	c-0.668-2.743-1.446-4.87-2.11-6.403C191.815-1017.778,194.317-1015.584,196.259-1012.951z M168.154-1019.66
	c-0.689,1.548-1.529,3.784-2.243,6.709h-5.68C162.304-1015.762,165.019-1018.067,168.154-1019.66z M160.604-985.964h5.378
	c0.684,2.688,1.471,4.745,2.131,6.202C165.177-981.26,162.616-983.386,160.604-985.964z M188.974-980.073
	c0.631-1.436,1.357-3.387,1.994-5.891h4.918C194.012-983.562,191.661-981.548,188.974-980.073z"/>
<g>
</g>
<g>
</g>
<g>
</g>
<g>
</g>
<g>
</g>
<g>
</g>
<g>
</g>
<g>
</g>
<g>
</g>
<g>
</g>
<g>
</g>
<g>
</g>
<g>
</g>
<g>
</g>
<g>
</g>
</svg>
