<?xml version="1.0" encoding="iso-8859-1"?>
<!-- Generator: Adobe Illustrator 16.0.0, SVG Export Plug-In . SVG Version: 6.00 Build 0)  -->
<!DOCTYPE svg PUBLIC "-//W3C//DTD SVG 1.1//EN" "http://www.w3.org/Graphics/SVG/1.1/DTD/svg11.dtd">
<svg version="1.1" id="Layer_1" xmlns="http://www.w3.org/2000/svg" xmlns:xlink="http://www.w3.org/1999/xlink" x="0px" y="0px"
	 width="49.163px" height="49.162px" viewBox="0 0 49.163 49.162" style="enable-background:new 0 0 49.163 49.162;"
	 xml:space="preserve">
<g>
	<path d="M106.069-976.786c2.394-0.105,4.691-0.59,6.833-1.394c0.541-0.95,1.761-3.365,2.797-7.219h-9.63V-976.786z"/>
	<path d="M115.798-979.508c2.688-1.475,5.038-3.488,6.912-5.891h-4.918C117.155-982.895,116.429-980.943,115.798-979.508z"/>
	<path d="M117.356-997.635h-11.287v10.236h10.118C116.803-990.205,117.267-993.622,117.356-997.635z"/>
	<path d="M119.371-999.635h8.06c-0.087-3.912-1.18-7.578-3.034-10.751h-6.093C118.902-1007.392,119.33-1003.804,119.371-999.635z"/>
	<path d="M118.253-987.398h5.854c1.865-3.014,3.031-6.501,3.28-10.236h-8.03C119.272-993.661,118.844-990.238,118.253-987.398z"/>
	<path d="M116.249-1010.386h-10.179v10.751h11.302C117.327-1003.83,116.871-1007.426,116.249-1010.386z"/>
	<path d="M112.89-1020.096c-2.139-0.8-4.431-1.282-6.82-1.388v9.098h9.71C114.723-1016.494,113.445-1019.088,112.89-1020.096z"/>
	<path d="M123.083-1012.386c-1.941-2.633-4.443-4.827-7.331-6.403c0.664,1.533,1.442,3.66,2.111,6.403H123.083z"/>
	<path d="M94.82-1012.386h9.25v-9.098c-2.178,0.097-4.273,0.508-6.248,1.186C97.351-1019.477,95.958-1016.81,94.82-1012.386z"/>
	<path d="M94.412-987.398h9.658v-10.236H93.243C93.332-993.622,93.796-990.205,94.412-987.398z"/>
	<path d="M93.228-999.635h10.842v-10.751h-9.719C93.728-1007.427,93.272-1003.83,93.228-999.635z"/>
	<path d="M97.813-977.976c1.976,0.68,4.075,1.093,6.256,1.189v-8.612h-9.17C96.02-981.23,97.355-978.747,97.813-977.976z"/>
	<path d="M94.979-1019.095c-3.136,1.593-5.851,3.898-7.923,6.709h5.68C93.449-1015.311,94.289-1017.547,94.979-1019.095z"/>
	<path d="M92.295-1010.386h-6.553c-1.854,3.173-2.947,6.839-3.034,10.751h8.519C91.269-1003.804,91.697-1007.392,92.295-1010.386z"
		/>
	<path d="M91.242-997.635h-8.49c0.249,3.735,1.415,7.223,3.28,10.236h6.313C91.754-990.238,91.326-993.661,91.242-997.635z"/>
	<path d="M87.428-985.398c2.012,2.578,4.573,4.704,7.509,6.202c-0.66-1.457-1.447-3.515-2.131-6.202H87.428z"/>
</g>
<g>
</g>
<g>
</g>
<g>
</g>
<g>
</g>
<g>
</g>
<g>
</g>
<g>
</g>
<g>
</g>
<g>
</g>
<g>
</g>
<g>
</g>
<g>
</g>
<g>
</g>
<g>
</g>
<g>
</g>
</svg>
