<?xml version="1.0" encoding="iso-8859-1"?>
<!-- Generator: Adobe Illustrator 16.0.0, SVG Export Plug-In . SVG Version: 6.00 Build 0)  -->
<!DOCTYPE svg PUBLIC "-//W3C//DTD SVG 1.1//EN" "http://www.w3.org/Graphics/SVG/1.1/DTD/svg11.dtd">
<svg version="1.1" id="Layer_1" xmlns="http://www.w3.org/2000/svg" xmlns:xlink="http://www.w3.org/1999/xlink" x="0px" y="0px"
	 width="49.163px" height="49.162px" viewBox="0 0 49.163 49.162" style="enable-background:new 0 0 49.163 49.162;"
	 xml:space="preserve">
<path d="M264.258-1021.639c-0.047-0.052-0.085-0.092-0.1-0.106l-0.042,0.042c-3.14-1.476-6.642-2.306-10.334-2.306
	c-0.542,0-1.078,0.024-1.611,0.059l-0.001-0.001l-0.001,0.001c-12.689,0.834-22.76,11.417-22.76,24.314
	c0,13.44,10.934,24.374,24.373,24.374s24.374-10.934,24.374-24.374C278.156-1009.327,272.47-1017.713,264.258-1021.639z
	 M274.079-990.235c-0.558,0.472-2.233,1.735-5.244,2.937c0.563-2.031,1.039-4.391,1.315-7.145c2.748-0.813,4.649-1.703,5.819-2.355
	C275.676-994.482,275.027-992.276,274.079-990.235z M231.627-996.549c1.292,0.638,3.218,1.438,5.853,2.173
	c0.273,2.689,0.746,5.015,1.311,7.021c-3.097-1.232-4.814-2.513-5.33-2.939C232.56-992.246,231.933-994.346,231.627-996.549z
	 M233.197-1008.276c0.031-0.03,1.714-1.602,5.396-3.084c-0.553,2.158-0.984,4.706-1.206,7.626c-2.739,0.793-4.68,1.654-5.897,2.288
	c0.194-2.416,0.768-4.727,1.672-6.867L233.197-1008.276z M276.069-1001.542c-1.215-0.657-3.118-1.517-5.815-2.298
	c-0.208-2.848-0.618-5.325-1.145-7.439c3.433,1.389,5.112,2.816,5.303,2.985C275.299-1006.187,275.868-1003.916,276.069-1001.542z
	 M253.673-977.447c-0.304-0.431-1.403-2.135-2.482-5.381c0.877,0.043,1.786,0.066,2.73,0.066c0.734,0,1.429-0.025,2.121-0.052
	C255.107-979.915,254.143-978.183,253.673-977.447z M253.921-984.761c-1.175,0-2.274-0.049-3.341-0.117
	c-0.559-2.07-1.058-4.602-1.38-7.642c1.458,0.089,2.979,0.15,4.618,0.15c1.46,0,2.837-0.042,4.146-0.113
	c-0.308,3.029-0.788,5.569-1.334,7.651C255.762-984.787,254.861-984.761,253.921-984.761z M253.818-994.37
	c-1.71,0-3.296-0.066-4.803-0.166c-0.117-1.603-0.188-3.318-0.188-5.175c0-1.393,0.049-2.693,0.116-3.951
	c1.616-0.117,3.338-0.189,5.193-0.189c1.43,0,2.755,0.051,4.033,0.122c0.082,1.373,0.139,2.8,0.139,4.337
	c0,1.748-0.067,3.361-0.172,4.883C256.775-994.427,255.354-994.37,253.818-994.37z M231.423-999.108
	c0.72-0.439,2.634-1.477,5.844-2.473c-0.022,0.647-0.048,1.291-0.048,1.973c0,1.073,0.037,2.092,0.094,3.08
	c-3.035-0.91-4.964-1.87-5.886-2.396C231.425-998.985,231.424-999.047,231.423-999.108z M239.219-999.608
	c0-0.878,0.022-1.723,0.062-2.541c2.11-0.541,4.652-1.019,7.647-1.332c-0.059,1.205-0.101,2.447-0.101,3.77
	c0,1.786,0.062,3.449,0.166,5.008c-2.966-0.291-5.514-0.743-7.631-1.264C239.278-997.123,239.219-998.321,239.219-999.608z
	 M260.183-1003.591c3.242,0.282,5.957,0.767,8.171,1.328c0.035,0.783,0.059,1.586,0.059,2.427c0,1.352-0.063,2.608-0.151,3.818
	c-2.188,0.567-4.877,1.063-8.1,1.359c0.094-1.479,0.147-3.053,0.147-4.733C260.309-1000.875,260.257-1002.256,260.183-1003.591z
	 M270.367-1001.693c3.103,0.967,4.939,1.989,5.704,2.477c-0.448,0.316-2.273,1.488-5.759,2.604c0.06-1.033,0.1-2.098,0.1-3.225
	C270.412-1000.479,270.387-1001.082,270.367-1001.693z M268.209-1004.375c-2.263-0.534-4.967-0.987-8.16-1.245
	c-0.264-3.134-0.71-5.813-1.233-8.084c3.18,0.32,5.826,0.915,7.99,1.598C267.424-1009.988,267.941-1007.427,268.209-1004.375z
	 M258.298-1015.753c-0.793-2.84-1.665-4.864-2.321-6.147c2.492,0.244,4.863,0.902,7.05,1.898c0.558,0.687,1.835,2.474,3.01,5.57
	C263.86-1015.022,261.289-1015.5,258.298-1015.753z M253.631-1022.005c0.488,0.819,1.536,2.815,2.522,6.109
	c-0.797-0.035-1.61-0.06-2.461-0.06c-0.974,0-1.909,0.025-2.811,0.07c0.897-3.098,1.871-5.106,2.433-6.112
	C253.42-1021.999,253.524-1022.004,253.631-1022.005z M253.692-1013.955c1.054,0,2.051,0.037,3.017,0.092
	c0.55,2.231,1.025,4.936,1.313,8.112c-1.231-0.063-2.521-0.1-3.885-0.1c-1.804,0-3.476,0.069-5.062,0.176
	c0.269-3.189,0.73-5.905,1.269-8.163C251.411-1013.906,252.513-1013.955,253.692-1013.955z M247.046-1005.507
	c-2.934,0.287-5.474,0.726-7.612,1.237c0.287-3.128,0.839-5.758,1.491-7.924c2.003-0.621,4.437-1.156,7.314-1.469
	C247.727-1011.359,247.291-1008.666,247.046-1005.507z M239.562-993.852c2.151,0.494,4.676,0.914,7.597,1.18
	c0.293,2.975,0.754,5.498,1.282,7.612c-2.858-0.313-5.29-0.846-7.3-1.465C240.479-988.529,239.907-990.969,239.562-993.852z
	 M249.017-982.987c0.817,2.665,1.697,4.489,2.326,5.591c-2.219-0.242-4.341-0.807-6.316-1.65c-0.395-0.45-1.713-2.096-3.001-5.126
	C244.024-983.652,246.354-983.23,249.017-982.987z M258.203-982.942c2.848-0.227,5.327-0.654,7.427-1.199
	c-1.244,2.992-2.502,4.59-2.828,4.974c-2.13,0.943-4.432,1.565-6.848,1.798C256.591-978.531,257.43-980.352,258.203-982.942z
	 M258.755-984.988c0.519-2.127,0.967-4.66,1.247-7.637c3.153-0.268,5.824-0.726,8.058-1.261c-0.35,2.932-0.924,5.396-1.579,7.416
	C264.379-985.827,261.82-985.279,258.755-984.988z M272.438-1011.967c-1.064-0.564-2.399-1.163-4.015-1.727
	c-0.542-1.669-1.135-3.054-1.705-4.179C268.968-1016.272,270.91-1014.271,272.438-1011.967z M248.745-1015.727
	c-2.686,0.247-5.022,0.676-7.021,1.205c1.28-3.298,2.641-5.095,3.051-5.587c1.936-0.854,4.013-1.44,6.188-1.715
	C250.306-1020.48,249.487-1018.466,248.745-1015.727z M241.088-1018.044c-0.587,1.131-1.205,2.544-1.777,4.262
	c-1.693,0.583-3.079,1.21-4.174,1.8C236.718-1014.361,238.74-1016.42,241.088-1018.044z M235.652-986.548
	c1.063,0.542,2.367,1.106,3.924,1.634c0.553,1.519,1.138,2.787,1.695,3.82C239.094-982.569,237.192-984.42,235.652-986.548z
	 M266.51-981.249c0.515-0.989,1.054-2.191,1.567-3.631c1.478-0.503,2.733-1.042,3.761-1.563
	C270.363-984.43,268.562-982.673,266.51-981.249z"/>
<g>
</g>
<g>
</g>
<g>
</g>
<g>
</g>
<g>
</g>
<g>
</g>
<g>
</g>
<g>
</g>
<g>
</g>
<g>
</g>
<g>
</g>
<g>
</g>
<g>
</g>
<g>
</g>
<g>
</g>
</svg>
