<?xml version="1.0" encoding="iso-8859-1"?>
<!-- Generator: Adobe Illustrator 16.0.0, SVG Export Plug-In . SVG Version: 6.00 Build 0)  -->
<!DOCTYPE svg PUBLIC "-//W3C//DTD SVG 1.1//EN" "http://www.w3.org/Graphics/SVG/1.1/DTD/svg11.dtd">
<svg version="1.1" id="Layer_1" xmlns="http://www.w3.org/2000/svg" xmlns:xlink="http://www.w3.org/1999/xlink" x="0px" y="0px"
	 width="49.163px" height="49.162px" viewBox="0 0 49.163 49.162" style="enable-background:new 0 0 49.163 49.162;"
	 xml:space="preserve">
<g>
	<path d="M331.047-1004.71c-0.287-3.176-0.763-5.88-1.313-8.112c-0.966-0.055-1.963-0.092-3.017-0.092
		c-1.18,0-2.281,0.049-3.349,0.117c-0.538,2.258-1,4.974-1.269,8.163c1.586-0.106,3.258-0.176,5.062-0.176
		C328.526-1004.811,329.815-1004.773,331.047-1004.71z"/>
	<path d="M322.226-991.479c0.322,3.039,0.821,5.571,1.38,7.642c1.066,0.068,2.166,0.117,3.341,0.117c0.94,0,1.841-0.025,2.709-0.07
		c0.546-2.082,1.026-4.623,1.334-7.651c-1.309,0.072-2.686,0.113-4.146,0.113C325.205-991.329,323.684-991.39,322.226-991.479z"/>
	<path d="M331.334-998.352c0-1.537-0.057-2.964-0.139-4.337c-1.278-0.071-2.604-0.122-4.033-0.122c-1.855,0-3.577,0.072-5.193,0.189
		c-0.067,1.258-0.116,2.558-0.116,3.951c0,1.857,0.071,3.572,0.188,5.175c1.507,0.101,3.093,0.166,4.803,0.166
		c1.536,0,2.957-0.057,4.318-0.139C331.267-994.99,331.334-996.604,331.334-998.352z"/>
	<path d="M312.459-1003.229c2.139-0.512,4.679-0.951,7.612-1.237c0.245-3.159,0.681-5.853,1.193-8.155
		c-2.878,0.313-5.312,0.847-7.314,1.469C313.298-1008.987,312.746-1006.357,312.459-1003.229z"/>
	<path d="M326.34-1020.957c-0.562,1.006-1.535,3.014-2.433,6.112c0.901-0.045,1.837-0.07,2.811-0.07c0.851,0,1.664,0.025,2.461,0.06
		c-0.986-3.294-2.034-5.291-2.522-6.109C326.55-1020.964,326.445-1020.958,326.34-1020.957z"/>
	<path d="M314.75-1013.481c1.998-0.528,4.335-0.958,7.021-1.205c0.742-2.739,1.561-4.753,2.218-6.098
		c-2.175,0.275-4.252,0.861-6.188,1.716C317.391-1018.576,316.03-1016.78,314.75-1013.481z"/>
	<path d="M349.095-1000.501c-0.201-2.374-0.771-4.645-1.657-6.751c-0.19-0.169-1.87-1.597-5.303-2.985
		c0.526,2.114,0.937,4.591,1.145,7.439C345.977-1002.019,347.88-1001.158,349.095-1000.501z"/>
	<path d="M341.438-998.796c0-0.84-0.023-1.644-0.059-2.427c-2.214-0.561-4.929-1.045-8.171-1.328
		c0.074,1.335,0.126,2.716,0.126,4.199c0,1.68-0.054,3.253-0.147,4.733c3.223-0.296,5.911-0.792,8.1-1.359
		C341.375-996.188,341.438-997.444,341.438-998.796z"/>
	<path d="M339.743-1016.832c0.57,1.124,1.163,2.509,1.705,4.178c1.615,0.564,2.95,1.163,4.015,1.727
		C343.936-1013.23,341.993-1015.232,339.743-1016.832z"/>
	<path d="M333.074-1004.58c3.193,0.258,5.897,0.711,8.16,1.245c-0.268-3.052-0.785-5.612-1.403-7.731
		c-2.164-0.683-4.811-1.278-7.99-1.598C332.364-1010.394,332.811-1007.713,333.074-1004.58z"/>
	<path d="M329.002-1020.859c0.656,1.283,1.528,3.307,2.321,6.147c2.991,0.253,5.563,0.731,7.738,1.321
		c-1.175-3.096-2.452-4.883-3.01-5.57C333.865-1019.958,331.494-1020.616,329.002-1020.859z"/>
	<path d="M331.78-983.947c3.065-0.291,5.624-0.839,7.726-1.482c0.655-2.019,1.229-4.484,1.579-7.416
		c-2.233,0.536-4.904,0.993-8.058,1.261C332.747-988.607,332.299-986.075,331.78-983.947z"/>
	<path d="M320.184-991.631c-2.921-0.266-5.445-0.686-7.597-1.18c0.346,2.882,0.918,5.322,1.579,7.328
		c2.01,0.619,4.441,1.15,7.3,1.464C320.938-986.133,320.477-988.657,320.184-991.631z"/>
	<path d="M341.103-983.839c-0.514,1.44-1.053,2.642-1.567,3.631c2.052-1.424,3.854-3.181,5.328-5.194
		C343.836-984.88,342.58-984.342,341.103-983.839z"/>
	<path d="M338.655-983.1c-2.1,0.544-4.579,0.972-7.427,1.199c-0.773,2.59-1.612,4.411-2.249,5.574
		c2.416-0.234,4.718-0.856,6.848-1.799C336.153-978.51,337.411-980.107,338.655-983.1z"/>
	<path d="M324.368-976.356c-0.629-1.102-1.509-2.926-2.326-5.591c-2.662-0.243-4.992-0.665-6.991-1.186
		c1.288,3.031,2.606,4.676,3.001,5.126C320.027-977.163,322.149-976.598,324.368-976.356z"/>
	<path d="M312.306-1001.108c-0.039,0.817-0.062,1.663-0.062,2.541c0,1.287,0.06,2.485,0.144,3.642
		c2.117,0.521,4.665,0.973,7.631,1.264c-0.104-1.56-0.166-3.223-0.166-5.008c0-1.323,0.042-2.564,0.101-3.77
		C316.958-1002.128,314.416-1001.648,312.306-1001.108z"/>
	<path d="M343.393-1000.652c0.02,0.611,0.045,1.214,0.045,1.856c0,1.127-0.04,2.192-0.1,3.225c3.485-1.116,5.311-2.288,5.759-2.604
		C348.332-998.663,346.495-999.686,343.393-1000.652z"/>
	<path d="M348.995-995.758c-1.17,0.653-3.071,1.543-5.819,2.356c-0.276,2.753-0.753,5.114-1.315,7.145
		c3.011-1.203,4.687-2.465,5.244-2.938C348.053-991.235,348.701-993.441,348.995-995.758z"/>
	<path d="M329.067-981.772c-0.692,0.026-1.387,0.052-2.121,0.052c-0.944,0-1.854-0.023-2.73-0.066
		c1.079,3.246,2.179,4.949,2.482,5.381C327.168-977.143,328.133-978.875,329.067-981.772z"/>
	<path d="M308.162-1010.942c1.095-0.59,2.48-1.217,4.174-1.8c0.572-1.717,1.19-3.13,1.777-4.262
		C311.766-1015.38,309.743-1013.321,308.162-1010.942z"/>
	<path d="M314.297-980.054c-0.558-1.033-1.143-2.301-1.695-3.82c-1.557-0.528-2.861-1.092-3.924-1.634
		C310.218-983.379,312.119-981.528,314.297-980.054z"/>
	<path d="M306.187-1007.272c-0.904,2.14-1.478,4.451-1.672,6.868c1.218-0.634,3.158-1.495,5.897-2.289
		c0.222-2.921,0.653-5.468,1.206-7.626c-3.682,1.482-5.364,3.054-5.396,3.084L306.187-1007.272z"/>
	<path d="M311.815-986.315c-0.564-2.006-1.037-4.331-1.311-7.021c-2.635-0.735-4.561-1.535-5.853-2.173
		c0.306,2.203,0.933,4.303,1.833,6.254C307.001-988.828,308.719-987.547,311.815-986.315z"/>
	<path d="M304.452-997.884c0.922,0.527,2.851,1.487,5.886,2.396c-0.057-0.988-0.094-2.007-0.094-3.08
		c0-0.682,0.025-1.326,0.048-1.973c-3.21,0.996-5.124,2.034-5.844,2.473C304.449-998.006,304.45-997.945,304.452-997.884z"/>
</g>
<g>
</g>
<g>
</g>
<g>
</g>
<g>
</g>
<g>
</g>
<g>
</g>
<g>
</g>
<g>
</g>
<g>
</g>
<g>
</g>
<g>
</g>
<g>
</g>
<g>
</g>
<g>
</g>
<g>
</g>
</svg>
