<?xml version="1.0" encoding="iso-8859-1"?>
<!-- Generator: Adobe Illustrator 16.0.0, SVG Export Plug-In . SVG Version: 6.00 Build 0)  -->
<!DOCTYPE svg PUBLIC "-//W3C//DTD SVG 1.1//EN" "http://www.w3.org/Graphics/SVG/1.1/DTD/svg11.dtd">
<svg version="1.1" id="Layer_1" xmlns="http://www.w3.org/2000/svg" xmlns:xlink="http://www.w3.org/1999/xlink" x="0px" y="0px"
	 width="49.163px" height="49.162px" viewBox="0 0 49.163 49.162" style="enable-background:new 0 0 49.163 49.162;"
	 xml:space="preserve">
<path d="M-282.938-435.819c-13.439,0-24.373,10.934-24.373,24.373c0,13.44,10.934,24.375,24.373,24.375
	c13.44,0,24.374-10.935,24.374-24.375C-258.564-424.886-269.498-435.819-282.938-435.819z M-305.311-411.446
	c0-0.395,0.011-0.787,0.031-1.177c4.687,3.769,15.545,3.832,25.332,3.88c7.374,0.036,14.077,0.094,18.975,1.542
	c-0.384,1.992-1.033,3.891-1.909,5.658c-4.175-1.129-11.149-1.171-17.095-1.2c-8.563-0.042-17.833-0.095-24.5-2.664
	C-305.016-407.33-305.311-409.354-305.311-411.446z M-278.589-414.796c-9.113-0.045-19.02-0.106-25.742-3.196
	c0.591-1.931,1.44-3.747,2.502-5.417c5.361,2.52,14.725,2.572,23.27,2.613c6.121,0.03,11.782,0.072,16.337,0.909
	c0.839,2.051,1.38,4.253,1.573,6.553C-264.669-414.718-272.219-414.765-278.589-414.796z M-265.663-425.647
	c-3.834-0.385-8.436-0.411-12.544-0.431c-6.88-0.034-14.201-0.09-20.277-1.436c2.211-2.14,4.857-3.832,7.795-4.92
	c3.996,0.309,8.349,0.335,12.511,0.355c1.35,0.007,2.667,0.017,3.967,0.032C-270.868-430.625-267.94-428.414-265.663-425.647z
	 M-273.105-391.354c-2.425-0.08-4.918-0.096-7.255-0.107c-4.459-0.022-9.092-0.069-13.468-0.45
	c-3.208-1.796-5.929-4.358-7.917-7.438c5.505,1.802,13.784,1.851,21.414,1.889c5.254,0.026,10.171,0.059,14.343,0.594
	C-267.955-394.582-270.373-392.696-273.105-391.354z"/>
<g>
</g>
<g>
</g>
<g>
</g>
<g>
</g>
<g>
</g>
<g>
</g>
<g>
</g>
<g>
</g>
<g>
</g>
<g>
</g>
<g>
</g>
<g>
</g>
<g>
</g>
<g>
</g>
<g>
</g>
</svg>
