<?xml version="1.0" encoding="iso-8859-1"?>
<!-- Generator: Adobe Illustrator 16.0.0, SVG Export Plug-In . SVG Version: 6.00 Build 0)  -->
<!DOCTYPE svg PUBLIC "-//W3C//DTD SVG 1.1//EN" "http://www.w3.org/Graphics/SVG/1.1/DTD/svg11.dtd">
<svg version="1.1" id="Layer_1" xmlns="http://www.w3.org/2000/svg" xmlns:xlink="http://www.w3.org/1999/xlink" x="0px" y="0px"
	 width="49.163px" height="49.162px" viewBox="0 0 49.163 49.162" style="enable-background:new 0 0 49.163 49.162;"
	 xml:space="preserve">
<g>
	<path d="M-201.959-402.493c-9.099-0.045-18.998-0.099-25.72-3.175c0.514,2.119,1.316,4.124,2.364,5.973
		c5.403,2.396,14.603,2.442,23.003,2.484c5.738,0.028,11.084,0.057,15.485,0.749c1.132-1.392,2.108-2.915,2.899-4.546
		C-187.931-402.418-195.547-402.462-201.959-402.493z"/>
	<path d="M-200.542-420.546c6.624,0.032,12.727,0.066,17.452,1.121c-0.791-2.101-1.872-4.058-3.2-5.82
		c-4.066-0.534-9.296-0.561-13.898-0.583c-7.338-0.036-15.196-0.078-21.49-1.705c-1.155,1.182-2.185,2.485-3.07,3.889
		C-219.598-420.644-209.606-420.59-200.542-420.546z"/>
	<path d="M-200.16-431.828c2.167,0.011,4.279,0.021,6.306,0.067c-3.306-1.791-7.093-2.809-11.117-2.809
		c-3.53,0-6.874,0.787-9.874,2.188C-210.292-431.881-205.089-431.853-200.16-431.828z"/>
	<path d="M-202.342-391.211c-5.25-0.026-10.764-0.056-15.784-0.665c3.748,2.558,8.276,4.055,13.156,4.055
		c4.31,0,8.344-1.171,11.81-3.206C-196.164-391.179-199.381-391.196-202.342-391.211z"/>
	<path d="M-182.036-406.682c0.286-1.462,0.44-2.97,0.44-4.515c0-0.503-0.021-1.001-0.053-1.495
		c-3.658-1.772-11.994-1.82-18.923-1.854c-9.553-0.047-19.987-0.104-26.701-3.658c-0.492,1.567-0.819,3.206-0.971,4.896
		c3.975,4.7,15.772,4.763,26.313,4.814C-194.096-408.455-186.992-408.413-182.036-406.682z"/>
</g>
<g>
</g>
<g>
</g>
<g>
</g>
<g>
</g>
<g>
</g>
<g>
</g>
<g>
</g>
<g>
</g>
<g>
</g>
<g>
</g>
<g>
</g>
<g>
</g>
<g>
</g>
<g>
</g>
<g>
</g>
</svg>
