<?xml version="1.0" encoding="iso-8859-1"?>
<!-- Generator: Adobe Illustrator 16.0.0, SVG Export Plug-In . SVG Version: 6.00 Build 0)  -->
<!DOCTYPE svg PUBLIC "-//W3C//DTD SVG 1.1//EN" "http://www.w3.org/Graphics/SVG/1.1/DTD/svg11.dtd">
<svg version="1.1" id="Layer_1" xmlns="http://www.w3.org/2000/svg" xmlns:xlink="http://www.w3.org/1999/xlink" x="0px" y="0px"
	 width="49.163px" height="49.162px" viewBox="0 0 49.163 49.162" style="enable-background:new 0 0 49.163 49.162;"
	 xml:space="preserve">
<path d="M-262.757-322.072c0.006-0.049,0.023-0.191,0.045-0.399c2.219-3.672,3.498-7.972,3.498-12.566
	c0-6.052-2.222-11.592-5.887-15.858c0.005-0.005,0.025-0.028,0.027-0.029l-0.24-0.216c-4.47-5.067-11.003-8.271-18.275-8.271
	c-12.793,0-23.308,9.91-24.291,22.456c-0.015,0.001-0.031,0.002-0.034,0.002l0.014,0.265c-0.037,0.547-0.063,1.097-0.063,1.652
	c0,13.103,10.393,23.817,23.367,24.348c0.005,0.062,0.009,0.104,0.009,0.11l0.997-0.085c4.211,0,8.176-1.074,11.637-2.962
	c0.083-0.004,0.142-0.007,0.17-0.009l-0.005-0.086c0.891-0.495,1.747-1.045,2.564-1.644c0.047,0.012,0.082,0.02,0.101,0.024
	l0.027-0.115c1.604-1.19,3.058-2.571,4.326-4.11l0.203-0.034c-0.004-0.027-0.016-0.095-0.032-0.183
	c0.594-0.737,1.144-1.51,1.65-2.313L-262.757-322.072z M-302.856-323.686c-0.006-0.13-0.014-0.379-0.018-0.735
	c0.205,0.179,0.416,0.359,0.634,0.542c-0.093,0.279-0.175,0.538-0.252,0.785C-302.617-323.289-302.738-323.486-302.856-323.686z
	 M-271.406-353.791c-0.371,0.097-0.781,0.209-1.232,0.342c-0.246-0.293-0.487-0.574-0.725-0.844
	c0.724,0.021,1.172,0.058,1.269,0.066C-271.861-354.086-271.633-353.939-271.406-353.791z M-269.362-349.246
	c-0.092-0.062-0.186-0.122-0.278-0.184c-0.537-0.817-1.086-1.59-1.636-2.313c0.935-0.258,1.625-0.414,1.987-0.489
	c0.509,0.425,1,0.87,1.47,1.338C-268.241-350.44-268.758-349.887-269.362-349.246z M-261.9-329.537
	c-0.086,0.095-0.319,0.346-0.678,0.708c-0.015-0.296-0.032-0.599-0.054-0.907c0.317-0.159,0.612-0.311,0.883-0.452
	C-261.798-329.971-261.846-329.752-261.9-329.537z M-302.669-328.953c0.289,0.143,0.573,0.285,0.885,0.432
	c0.167,0.619,0.355,1.226,0.561,1.82c-0.103,0.263-0.201,0.521-0.295,0.771c-0.47-0.406-0.902-0.798-1.292-1.164
	C-302.778-327.664-302.734-328.284-302.669-328.953z M-290.67-354.877c0.436,0.033,0.913,0.077,1.427,0.135
	c-0.21,0.414-0.427,0.853-0.648,1.316c-0.178,0.045-0.353,0.094-0.529,0.143c-0.441-0.19-0.864-0.365-1.266-0.525
	C-291.327-354.199-290.986-354.556-290.67-354.877z M-276.087-354.273c0.424,0.447,0.879,0.946,1.354,1.494
	c-0.193,0.066-0.387,0.134-0.587,0.206c-0.793-0.451-1.597-0.86-2.404-1.225c-0.06-0.123-0.119-0.243-0.178-0.362
	C-277.257-354.215-276.652-354.251-276.087-354.273z M-267.548-329.737c-0.564-1.412-1.227-2.896-1.996-4.398
	c1.005,0.075,1.947,0.149,2.818,0.22c-0.055,1.398-0.26,2.761-0.571,4.076C-267.38-329.806-267.464-329.771-267.548-329.737z
	 M-268.526-326.571c-0.687,1.044-1.472,2.045-2.359,2.981c-0.586-0.688-1.23-1.44-1.91-2.23c1.443-0.396,2.808-0.841,4.076-1.302
	C-268.653-326.936-268.59-326.754-268.526-326.571z M-300.627-335.008c0.001-0.06,0.007-0.118,0.008-0.178
	c1.061-0.021,2.208-0.038,3.425-0.049c0.027,0.046,0.052,0.091,0.079,0.136c-1.082,1.789-1.996,3.563-2.759,5.22
	c-0.014-0.006-0.026-0.012-0.04-0.018c-0.102-0.233-0.204-0.466-0.298-0.7C-300.498-332.02-300.652-333.495-300.627-335.008z
	 M-278.742-351.191c-1.296,0.581-2.66,1.26-4.052,2.057c-0.085-0.058-0.171-0.117-0.256-0.174c0.042-1.021,0.085-1.975,0.127-2.852
	c1.384,0.072,2.733,0.304,4.041,0.65C-278.836-351.406-278.789-351.298-278.742-351.191z M-285-350.526
	c-0.838-0.496-1.658-0.946-2.451-1.354c0.827-0.141,1.669-0.234,2.525-0.277C-284.95-351.639-284.975-351.095-285-350.526z
	 M-276.932-341.495c-1.505,1.487-3.103,3.031-4.752,4.576c-0.328-0.018-0.657-0.034-0.987-0.051
	c-0.248-0.269-0.495-0.534-0.743-0.801c0.047-2.281,0.107-4.469,0.175-6.512c1.367,0.089,2.717,0.262,4.037,0.507
	C-278.425-343.063-277.665-342.305-276.932-341.495z M-279.552-326.513c-1.261,0.155-2.546,0.247-3.842,0.262
	c-0.052-2.031-0.084-4.155-0.083-6.307c0.198-0.178,0.393-0.353,0.592-0.532c0.19-0.172,0.378-0.348,0.568-0.521
	c1.708,1.896,3.332,3.728,4.832,5.44C-278.156-327.588-278.846-327.033-279.552-326.513z M-292.755-334.559
	c0.004-0.228,0.015-0.454,0.023-0.681c2.328,0.016,4.786,0.061,7.27,0.151c-0.007,0.547-0.012,1.094-0.015,1.64
	c-1.647,1.479-3.238,2.888-4.741,4.204c-0.902-0.942-1.729-1.92-2.491-2.912C-292.75-332.946-292.768-333.747-292.755-334.559z
	 M-285.238-344.351c-0.048,1.438-0.092,2.947-0.13,4.511c-0.973-1.018-1.935-2.008-2.877-2.963c0.611-0.54,1.233-1.051,1.861-1.535
	C-286.004-344.348-285.623-344.353-285.238-344.351z M-291.114-342.853c-0.22,0.219-0.437,0.439-0.649,0.662
	c0.083-0.353,0.169-0.703,0.259-1.05C-291.374-343.112-291.245-342.983-291.114-342.853z M-289.704-341.433
	c1.364,1.382,2.772,2.839,4.186,4.342c-2.417-0.087-4.806-0.131-7.075-0.146c0.036-0.357,0.076-0.714,0.123-1.068
	C-291.622-339.39-290.699-340.439-289.704-341.433z M-291.724-327.928c-0.147,0.127-0.299,0.261-0.444,0.387
	c-0.062-0.346-0.119-0.693-0.172-1.046C-292.139-328.365-291.932-328.146-291.724-327.928z M-288.784-327.841
	c1.064-0.934,2.172-1.912,3.313-2.93c0.012,1.52,0.038,3.015,0.075,4.465c-0.594-0.03-1.183-0.071-1.763-0.13
	C-287.712-326.885-288.254-327.354-288.784-327.841z M-283.335-324.252c0.115-0.001,0.229-0.003,0.344-0.006
	c-0.113,0.066-0.225,0.134-0.337,0.198C-283.331-324.123-283.333-324.188-283.335-324.252z M-283.169-346.282
	c0.003-0.096,0.007-0.191,0.011-0.287c0.094-0.058,0.187-0.115,0.281-0.172c0.245,0.175,0.49,0.354,0.735,0.537
	C-282.483-346.235-282.826-346.261-283.169-346.282z M-285.117-347.705c-0.661,0.436-1.321,0.896-1.978,1.387
	c-1.235,0.055-2.436,0.169-3.6,0.325c0.518-1.588,1.088-3.073,1.662-4.42c1.244,0.615,2.574,1.342,3.936,2.19
	C-285.104-348.053-285.11-347.879-285.117-347.705z M-292.486-347.016c-0.49-0.477-0.959-0.931-1.411-1.366
	c0.825-0.674,1.689-1.273,2.58-1.805C-291.72-349.189-292.115-348.129-292.486-347.016z M-293.762-345.467
	c-1.316,0.273-2.563,0.595-3.726,0.939c0.626-0.884,1.326-1.725,2.105-2.509C-294.867-346.54-294.329-346.02-293.762-345.467z
	 M-293.525-343.46c-0.352,1.401-0.648,2.857-0.861,4.352c-0.472,0.617-0.921,1.24-1.349,1.866c-0.093,0.001-0.187,0.001-0.279,0.002
	c-0.943-1.715-1.71-3.379-2.327-4.903C-296.888-342.627-295.27-343.086-293.525-343.46z M-294.738-335.101
	c0,0.01,0,0.021-0.001,0.03c-0.003-0.005-0.006-0.01-0.009-0.015C-294.745-335.09-294.741-335.096-294.738-335.101z
	 M-294.654-331.402c0.085,1.221,0.212,2.418,0.396,3.568c-1.333-0.39-2.59-0.819-3.745-1.269c0.603-1.305,1.297-2.679,2.097-4.072
	C-295.511-332.583-295.093-331.991-294.654-331.402z M-287.967-324.511c0.757,0.6,1.527,1.163,2.303,1.695
	c-1.62,0.807-3.215,1.487-4.71,2.056c-0.467-1.332-0.911-2.789-1.286-4.348C-290.473-324.857-289.239-324.657-287.967-324.511z
	 M-278.797-324.588c1.025-0.137,2.033-0.31,3.015-0.513c-0.412,1.706-0.906,3.291-1.422,4.724c-1.429-0.652-2.949-1.422-4.487-2.313
	C-280.717-323.272-279.749-323.904-278.797-324.588z M-276.015-329.526c-1.475-1.684-3.067-3.48-4.742-5.34
	c2.12,0.115,4.158,0.24,6.073,0.367c0.019,1.281-0.04,2.536-0.154,3.761C-275.216-330.329-275.609-329.925-276.015-329.526z
	 M-272.687-334.363c0.26,0.018,0.519,0.036,0.773,0.054c-0.255,0.352-0.519,0.703-0.79,1.054
	C-272.697-333.624-272.684-333.99-272.687-334.363z M-274.78-336.511c-1.331-0.087-2.72-0.174-4.152-0.257
	c1.135-1.081,2.238-2.152,3.297-3.198c0.18,0.226,0.355,0.452,0.528,0.681C-274.963-338.372-274.853-337.446-274.78-336.511z
	 M-278.278-345.638c-0.887-0.792-1.788-1.524-2.691-2.202c1.032-0.558,2.043-1.051,3.016-1.487c0.509,1.266,1.005,2.633,1.451,4.08
	C-277.086-345.389-277.679-345.519-278.278-345.638z M-298.296-337.222c-0.754,0.01-1.478,0.021-2.167,0.034
	c0.143-1.081,0.374-2.141,0.673-3.172C-299.355-339.354-298.86-338.302-298.296-337.222z M-298.488-327.125
	c1.3,0.498,2.721,0.968,4.234,1.386c-0.702,0.603-1.373,1.178-1.991,1.704C-297.102-325.01-297.843-326.048-298.488-327.125z
	 M-293.415-323.824c0.281,1.084,0.593,2.104,0.917,3.077c-0.82-0.557-1.609-1.169-2.351-1.852
	C-294.395-322.984-293.913-323.397-293.415-323.824z M-285.204-320.789c0.038,0.864,0.078,1.691,0.118,2.476
	c-1.433-0.097-2.823-0.349-4.16-0.713C-287.951-319.529-286.591-320.113-285.204-320.789z M-283.222-321.25
	c1.5,0.897,2.985,1.679,4.399,2.351c-1.381,0.345-2.805,0.565-4.258,0.619C-283.13-319.211-283.178-320.204-283.222-321.25z
	 M-273.958-324.104c0.573,0.666,1.119,1.305,1.622,1.895c-0.875,0.751-1.808,1.41-2.779,1.988
	C-274.698-321.422-274.306-322.724-273.958-324.104z M-273.185-327.808c0.109-0.679,0.202-1.372,0.278-2.077
	c0.719-0.801,1.391-1.614,2.015-2.432c0.544,1.126,1.026,2.235,1.454,3.304C-270.608-328.588-271.864-328.177-273.185-327.808z
	 M-268.333-336.05c0.464-0.756,0.891-1.501,1.283-2.227c0.145,0.772,0.243,1.557,0.295,2.351
	C-267.259-335.966-267.786-336.007-268.333-336.05z M-270.61-336.221c-0.023-0.002-0.046-0.003-0.069-0.005
	c-0.754-1.305-1.593-2.606-2.527-3.87c-0.109-0.648-0.234-1.289-0.371-1.921c0.071-0.071,0.146-0.146,0.216-0.216
	c1.822,0.615,3.521,1.311,5.046,2.01C-268.962-338.95-269.724-337.599-270.61-336.221z M-274.22-344.625
	c-0.55-1.975-1.201-3.82-1.873-5.491c0.194-0.078,0.384-0.151,0.573-0.224c0.019,0.008,0.036,0.017,0.055,0.024
	c1.442,0.892,2.817,1.952,4.059,3.217c-0.767,0.798-1.603,1.658-2.499,2.57C-274.01-344.561-274.115-344.593-274.22-344.625z
	 M-262.292-337.016c0.423,0.261,0.77,0.482,1.036,0.656c0.018,0.301,0.026,0.604,0.031,0.907c-0.378-0.034-0.842-0.076-1.384-0.124
	C-262.493-336.065-262.385-336.547-262.292-337.016z M-268.247-342.41c-1.107-0.488-2.294-0.967-3.546-1.416
	c0.608-0.622,1.175-1.208,1.718-1.772c0.417,0.526,0.805,1.071,1.163,1.631C-268.677-343.457-268.452-342.939-268.247-342.41z
	 M-287.201-354.304c0.026-0.05,0.05-0.096,0.076-0.145c0.075,0.013,0.15,0.024,0.226,0.037
	C-287-354.377-287.1-354.339-287.201-354.304z M-299.709-345.977c-0.047-0.153-0.093-0.305-0.136-0.449
	c0.19-0.135,0.387-0.27,0.586-0.405C-299.411-346.55-299.563-346.266-299.709-345.977z M-278.912-316.251
	c-0.037,0.079-0.074,0.155-0.111,0.232c-0.136-0.019-0.275-0.039-0.414-0.06C-279.261-316.136-279.086-316.189-278.912-316.251z
	 M-263.078-333.61c0.734,0.064,1.34,0.119,1.801,0.162c-0.018,0.251-0.035,0.503-0.061,0.752c-0.355,0.2-0.861,0.478-1.5,0.807
	C-262.904-332.452-262.982-333.025-263.078-333.61z M-261.926-339.146c0.03-0.207,0.059-0.411,0.085-0.611
	c0.066,0.079,0.124,0.149,0.169,0.204c0.042,0.208,0.076,0.419,0.113,0.629C-261.676-338.996-261.799-339.07-261.926-339.146z
	 M-263.501-344.881c0,0.097,0,0.235-0.002,0.403c-0.179-0.173-0.362-0.349-0.553-0.526c0.071-0.201,0.136-0.392,0.198-0.573
	C-263.735-345.348-263.616-345.115-263.501-344.881z M-263.653-341.768c-0.043,0.475-0.099,0.988-0.169,1.536
	c-0.396-0.216-0.816-0.439-1.256-0.666c-0.102-0.249-0.211-0.496-0.32-0.743c0.202-0.456,0.388-0.894,0.56-1.313
	C-264.406-342.535-264.008-342.136-263.653-341.768z M-266.59-344.009c-0.15-0.262-0.31-0.521-0.471-0.777
	c-0.042-0.092-0.081-0.186-0.123-0.276c0.259,0.217,0.511,0.434,0.755,0.646C-266.481-344.281-266.533-344.148-266.59-344.009z
	 M-278.016-356.186c-0.292,0.024-0.59,0.052-0.895,0.083c-0.181-0.332-0.351-0.636-0.509-0.915c0.225,0.043,0.449,0.089,0.672,0.138
	l-0.02,0.024C-278.75-356.841-278.471-356.605-278.016-356.186z M-281.054-355.826c-0.51,0.08-1.032,0.174-1.562,0.279
	c-0.045-0.012-0.09-0.023-0.135-0.035c0.041-0.746,0.075-1.352,0.102-1.808c0.237,0.011,0.472,0.026,0.707,0.044
	C-281.73-357-281.424-356.486-281.054-355.826z M-284.728-356.063c-0.466-0.101-0.923-0.192-1.367-0.272
	c0.234-0.407,0.434-0.741,0.586-0.99c0.284-0.024,0.568-0.048,0.855-0.061C-284.674-357.027-284.699-356.582-284.728-356.063z
	 M-288.221-356.661c-0.171-0.021-0.341-0.043-0.506-0.063c0.078-0.067,0.121-0.104,0.14-0.12c0.18-0.041,0.357-0.085,0.539-0.122
	C-288.105-356.866-288.161-356.767-288.221-356.661z M-293.389-354.98c0.002,0,0.02,0,0.031,0c-0.123,0.134-0.248,0.272-0.375,0.414
	c-0.167-0.058-0.326-0.111-0.477-0.16c0.268-0.146,0.541-0.284,0.815-0.418L-293.389-354.98z M-295.142-352.918
	c-0.491,0.604-0.99,1.253-1.487,1.938c-0.502-0.472-0.931-0.871-1.301-1.215c0.47-0.393,0.958-0.765,1.458-1.119
	C-296.354-353.284-295.881-353.157-295.142-352.918z M-298.336-349.84c-0.733,0.437-1.422,0.882-2.069,1.324
	c-0.142-0.599-0.207-0.948-0.21-0.968l-0.047,0.009c0.399-0.472,0.814-0.93,1.25-1.367
	C-299.104-350.558-298.746-350.224-298.336-349.84z M-302.161-347.25c-0.109,0.083-0.213,0.165-0.319,0.247
	c0.09-0.143,0.18-0.286,0.273-0.426C-302.192-347.37-302.177-347.311-302.161-347.25z M-304.722-342.369
	c0.028-0.028,0.06-0.061,0.095-0.096c0.007,0.22,0.017,0.445,0.028,0.678c-0.131,0.063-0.258,0.125-0.379,0.185
	C-304.898-341.86-304.811-342.115-304.722-342.369z M-302.633-344.274c0.325-0.273,0.683-0.565,1.069-0.87
	c0.172,0.556,0.372,1.158,0.599,1.795c-0.585,0.224-1.136,0.446-1.646,0.662C-302.631-343.276-302.636-343.806-302.633-344.274z
	 M-301.837-340.825c-0.192,0.443-0.371,0.89-0.54,1.336c-0.041-0.361-0.077-0.716-0.106-1.058
	C-302.276-340.639-302.06-340.731-301.837-340.825z M-303.711-335.107c-0.245,1.032-0.441,2.039-0.596,3.001
	c-0.767-0.44-1.288-0.772-1.563-0.953c-0.057-0.652-0.092-1.31-0.092-1.976c0.618-0.023,1.374-0.05,2.25-0.075
	C-303.711-335.109-303.711-335.108-303.711-335.107z M-304.598-329.961c-0.037,0.331-0.069,0.652-0.098,0.966
	c-0.38-0.413-0.592-0.667-0.605-0.684l-0.006,0.005c-0.065-0.264-0.128-0.529-0.184-0.797
	C-305.222-330.313-304.924-330.143-304.598-329.961z M-301.013-321.026c0.104-0.374,0.254-0.888,0.456-1.52
	c0.44,0.331,0.899,0.662,1.378,0.99c-0.543,0.455-0.993,0.83-1.34,1.119C-300.687-320.631-300.852-320.826-301.013-321.026z
	 M-297.945-319.98c0.285,0.452,0.572,0.889,0.861,1.309c-0.57,0.139-1.04,0.242-1.393,0.315c-0.227-0.202-0.449-0.411-0.667-0.623
	C-298.82-319.248-298.421-319.581-297.945-319.98z M-295.804-316.917c0.153,0.198,0.304,0.391,0.454,0.579
	c-0.249-0.02-0.446-0.038-0.582-0.053c-0.178-0.118-0.353-0.24-0.527-0.363C-296.251-316.805-296.034-316.858-295.804-316.917z
	 M-290.753-314.212c0.313-0.009,0.632-0.02,0.962-0.034c0.148,0.29,0.293,0.572,0.426,0.821c-0.273-0.073-0.546-0.149-0.815-0.232
	C-290.318-313.787-290.511-313.972-290.753-314.212z M-292.623-316.221c-0.339-0.391-0.698-0.819-1.067-1.282
	c0.43-0.128,0.88-0.268,1.346-0.419c0.342,0.131,0.689,0.255,1.04,0.373c0.19,0.46,0.378,0.896,0.565,1.311
	C-291.417-316.218-292.045-316.215-292.623-316.221z M-288.613-316.428c0.052,0.021,0.105,0.041,0.157,0.062
	c-0.042,0.004-0.083,0.007-0.124,0.01C-288.591-316.38-288.602-316.404-288.613-316.428z M-282.871-314.649
	c0.996,0.221,1.959,0.396,2.884,0.536c-0.304,0.563-0.551,0.987-0.712,1.256c-0.671,0.087-1.351,0.145-2.04,0.171
	C-282.778-313.239-282.823-313.897-282.871-314.649z M-277.859-313.839c0.282,0.029,0.545,0.05,0.813,0.072
	c-0.073,0.069-0.136,0.129-0.187,0.177c-0.293,0.087-0.588,0.171-0.886,0.246C-278.036-313.497-277.947-313.67-277.859-313.839z
	 M-275.213-315.663c-0.518-0.026-1.086-0.065-1.691-0.119c0.227-0.49,0.459-1.022,0.694-1.582c0.14-0.066,0.28-0.132,0.419-0.2
	c0.579,0.235,1.136,0.451,1.661,0.646C-274.511-316.46-274.875-316.038-275.213-315.663z M-273.262-318.75
	c0.292-0.134,0.582-0.271,0.867-0.413c-0.141,0.197-0.282,0.388-0.422,0.575C-272.963-318.641-273.109-318.693-273.262-318.75z
	 M-269.853-319.271c0.367,0.437,0.67,0.801,0.928,1.109c-0.238,0.207-0.479,0.409-0.726,0.605c-0.316-0.091-0.703-0.206-1.148-0.348
	C-270.483-318.339-270.167-318.796-269.853-319.271z M-268.741-321.056c0.058-0.1,0.117-0.197,0.175-0.298
	c0.466-0.304,0.916-0.609,1.349-0.916c0.205,0.785,0.358,1.442,0.467,1.94c-0.235,0.269-0.476,0.531-0.723,0.788
	C-267.812-319.947-268.236-320.455-268.741-321.056z M-266.279-326.239c0.036-0.096,0.068-0.194,0.103-0.291
	c0.404-0.679,0.771-1.367,1.109-2.061c0.156-0.069,0.308-0.137,0.458-0.205c0.034,0.64,0.054,1.251,0.062,1.821
	c-0.464,0.41-0.982,0.852-1.549,1.31C-266.156-325.854-266.215-326.044-266.279-326.239z M-265.253-347.839
	c-0.083,0.293-0.226,0.769-0.433,1.385c-0.633-0.538-1.311-1.082-2.031-1.622c0.475-0.506,0.897-0.956,1.253-1.34
	C-266.037-348.909-265.634-348.382-265.253-347.839z M-305.602-339.012c0.248-0.139,0.643-0.353,1.168-0.617
	c0.081,0.804,0.191,1.65,0.337,2.53c-0.669,0.02-1.263,0.04-1.771,0.059C-305.809-337.706-305.718-338.363-305.602-339.012z
	 M-286.762-312.894c-0.189-0.316-0.484-0.826-0.847-1.511c0.877-0.084,1.789-0.198,2.727-0.351c0.049,0.785,0.096,1.477,0.137,2.061
	C-285.426-312.729-286.098-312.799-286.762-312.894z M-272.508-315.613c-0.025,0-0.047,0.001-0.074,0.001
	c0.16-0.191,0.323-0.39,0.488-0.595c0.128,0.042,0.253,0.083,0.375,0.122C-271.979-315.923-272.242-315.766-272.508-315.613z
	 M-265.478-323.564c0.306-0.24,0.604-0.478,0.886-0.71c-0.022,0.458-0.048,0.846-0.072,1.151c-0.162,0.256-0.327,0.51-0.499,0.759
	C-265.256-322.735-265.36-323.136-265.478-323.564z"/>
<g>
</g>
<g>
</g>
<g>
</g>
<g>
</g>
<g>
</g>
<g>
</g>
<g>
</g>
<g>
</g>
<g>
</g>
<g>
</g>
<g>
</g>
<g>
</g>
<g>
</g>
<g>
</g>
<g>
</g>
</svg>
