<?xml version="1.0" encoding="iso-8859-1"?>
<!-- Generator: Adobe Illustrator 16.0.0, SVG Export Plug-In . SVG Version: 6.00 Build 0)  -->
<!DOCTYPE svg PUBLIC "-//W3C//DTD SVG 1.1//EN" "http://www.w3.org/Graphics/SVG/1.1/DTD/svg11.dtd">
<svg version="1.1" id="Layer_1" xmlns="http://www.w3.org/2000/svg" xmlns:xlink="http://www.w3.org/1999/xlink" x="0px" y="0px"
	 width="49.163px" height="49.162px" viewBox="0 0 49.163 49.162" style="enable-background:new 0 0 49.163 49.162;"
	 xml:space="preserve">
<g>
	<path d="M323.499-430.376c-13.754,0-25.373,8.298-25.373,18.12s11.619,18.121,25.373,18.121s25.374-8.299,25.374-18.121
		S337.253-430.376,323.499-430.376z M300.126-412.256c0-8.738,10.703-16.12,23.373-16.12s23.374,7.382,23.374,16.12
		c0,2.67-1.004,5.213-2.754,7.458l-0.27,0.017l-0.021,0.345c-0.165,0.198-0.333,0.396-0.51,0.589l-0.419,0.058l-0.941,0.671
		l-0.161,0.13v0.225l0.493-0.076l0.096-0.059c-4.291,4.064-11.228,6.765-18.887,6.765
		C310.829-396.135,300.126-403.518,300.126-412.256z"/>
	<polygon points="336.854,-408.801 336.184,-408.782 336.156,-409.146 336.265,-409.099 336.527,-409.127 336.499,-409.461 
		335.775,-409.452 335.577,-409.715 335.588,-409.853 334.653,-410.693 334.427,-410.513 335.758,-408.882 335.948,-408.818 
		335.948,-408.729 335.694,-408.729 335.758,-408.528 337.396,-408.456 	"/>
	<polygon points="337.903,-409.652 338.016,-409.727 338.016,-410.621 337.903,-410.668 337.85,-410.948 337.686,-410.948 
		337.581,-410.665 337.456,-410.552 336.508,-410.038 336.508,-409.531 336.824,-409.112 337.621,-409.112 337.724,-409.372 
		337.903,-409.534 	"/>
	<polygon points="338.606,-409.727 338.128,-409.541 338.134,-409.435 338.016,-409.435 338.016,-408.772 338.26,-408.772 
		338.224,-409.194 338.415,-409.126 338.415,-408.827 338.612,-408.844 	"/>
	<polygon points="342.64,-405.715 342.508,-406.25 342.021,-406.668 341.983,-407.465 341.661,-408.017 341.372,-408.03 
		341.254,-407.03 340.7,-407.072 340.546,-407.165 340.526,-407.562 340.819,-407.501 341.066,-407.742 340.541,-408.06 
		339.923,-408.06 339.479,-407.429 339.298,-407.429 339.298,-407.628 338.767,-407.588 337.925,-406.629 337.478,-406.622 
		336.98,-406.279 336.943,-404.794 336.645,-404.504 336.645,-404.241 338.095,-404.74 339.269,-404.786 339.702,-403.829 
		341.036,-403.784 342.322,-404.993 	"/>
	<polygon points="339.878,-403.095 340.349,-403.043 340.73,-403.252 340.737,-403.54 340.321,-403.584 	"/>
	<polygon points="340.711,-409.344 340.407,-409.335 340.431,-409.651 340.14,-409.823 339.729,-409.411 340.004,-409.072 
		340.603,-408.986 340.937,-408.81 340.946,-408.647 340.728,-408.647 340.737,-408.312 341.462,-408.357 341.725,-408.638 
		342.005,-408.665 342.005,-408.148 342.495,-408.148 342.495,-408.357 342.25,-408.357 342.205,-408.986 341.036,-409.517 	"/>
	<polygon points="332.018,-410.848 332.132,-410.539 332.544,-410.693 332.589,-411.118 332.257,-411.185 	"/>
	<polygon points="327.182,-407.261 326.62,-407.334 326.62,-406.898 326.82,-406.663 326.667,-406.429 326.438,-406.165 
		326.438,-405.686 326.747,-405.386 327.029,-405.838 327.58,-406.646 327.844,-407.913 327.509,-407.913 	"/>
	<polygon points="338.726,-408.599 338.543,-408.599 338.543,-408.501 338.685,-408.456 	"/>
	<rect x="337.686" y="-408.456" width="0.218" height="0.12"/>
	<polygon points="338.217,-408.336 338.352,-408.336 338.352,-408.441 338.45,-408.456 338.45,-408.56 338.233,-408.56 
		338.144,-408.456 338.016,-408.336 338.016,-408.23 338.217,-408.252 	"/>
	<polygon points="338.773,-408.241 338.991,-408.241 338.991,-408.353 339.143,-408.336 339.122,-408.528 338.875,-408.49 
		338.853,-408.366 338.576,-408.336 338.562,-408.336 338.562,-408.146 338.773,-408.146 	"/>
	<path d="M305.351-417.974l-0.294-0.045c0,0.018,0.022,0.331,0.045,0.331s0.203,0,0.203,0L305.351-417.974z"/>
	<polygon points="320.092,-417.96 320.114,-417.783 319.853,-417.729 319.816,-417.354 320.134,-417.354 320.554,-417.395 
		320.771,-417.652 320.541,-417.742 320.414,-417.888 320.223,-418.195 320.134,-418.63 319.774,-418.559 319.675,-418.404 
		319.675,-418.231 319.848,-418.113 	"/>
	<polygon points="319.788,-417.815 319.808,-418.051 319.598,-418.142 319.305,-418.073 319.087,-417.724 319.087,-417.498 
		319.34,-417.498 	"/>
	<path d="M334.82-410.934l1.29,1.236l0.068-0.218l-1.046-1.494l0.108-0.436l0.553,0.628l0.309,0.032l0.405-0.27l-0.066-0.407
		l-0.671-0.54l-0.027-0.487l0.19-0.259l0.34,0.109l-0.028,0.23l0.196,0.298l0.172-0.121l-0.095-0.353l0.95-0.341l0.417-0.349
		l-0.064-0.629l-0.828-0.869l-0.013-0.706h0.366l1.14,0.869l0.323-0.086l-0.214-0.28l-0.61-0.371l0.036-0.553l0.725,0.001
		l0.058-0.684l-0.275-0.364l0.163-0.175l0.353,0.353l0.113-0.149l-0.453-0.517l-1.127-0.135l-0.148-0.3l0.326-0.462l0.258,0.19
		l0.773,0.066l0.979-0.651l0.162,0.203l-0.218,0.34v0.34l0.896,0.734l0.286-0.149l-0.108-0.49l-0.638-0.596l0.842-0.056v-0.244
		l0.407-0.082l-0.313-0.215l0.014-0.165l0.855,0.139l0.162-0.139l-1.154-0.488l-4.209-0.217l-0.395-0.2l-0.626-0.094l-0.47-0.015
		l-0.426,0.431l-0.181-0.014l-0.567-0.422h-1.669l-0.775-0.462l-1.551,0.098l-1.18,0.526l0.01,0.613l-0.363,0.108l-0.081-0.612
		l-0.135-0.212l-0.407-0.101l-0.096,0.367l0.122,0.299l-1.449-0.095l-0.69,0.32l-0.105-0.303l-0.174,0.045l-0.125,0.335
		l-0.361,0.283l-0.885-0.025l-0.04-0.194l0.925-0.041l0.189-0.162l-1.114-0.517l-1.358,0.042l-0.76,0.389l-0.286,0.509l-0.502,0.196
		l-0.212,0.231l0.049,0.268l0.259,0.035l0.156,0.392l0.446-0.181l0.075,0.523h-0.135l-0.368-0.055l-0.407,0.068l-0.394,0.556
		l-0.564,0.09l-0.081,0.481l0.238,0.056l-0.067,0.311l-0.561-0.111l-0.514,0.111l-0.108,0.286l0.089,0.6l0.301,0.14l0.505-0.002
		l0.342-0.031l0.104-0.271l0.532-0.692l0.352,0.07l0.346-0.313l0.065,0.245l0.85,0.574l-0.103,0.14l-0.384-0.021l0.147,0.209
		l0.236,0.053l0.276-0.116l-0.006-0.332l0.124-0.062l-0.101-0.105l-0.566-0.316l-0.149-0.421h0.472l0.15,0.149l0.407,0.351
		l0.017,0.423l0.422,0.448l0.155-0.614l0.293-0.159l0.054,0.503l0.286,0.313l0.858-0.014l0.255,0.19v0.448l-0.312,0.285h-0.871
		l-0.529-0.395l-0.558,0.055v0.34h-0.176l-0.189-0.136l-0.965-0.245v-0.625l-1.223,0.096l-0.381,0.203h-0.484l-0.238-0.024
		l-0.59,0.328v0.616l-1.204,0.869l0.101,0.371h0.243l-0.063,0.354l-0.171,0.063l-0.009,0.924l1.039,1.187h0.454l0.026-0.072h0.815
		l0.235-0.218h0.462l0.254,0.254l0.688,0.071l-0.09,0.916l0.766,1.349l-0.404,0.77l0.027,0.362l0.317,0.317v0.87l0.416,0.561v0.725
		h1.232l0.924-0.951l0.289-0.517l0.371-0.081v-0.435l0.245-0.29l0.516-0.706l-0.108-1.076l-0.227-0.4l1.017-0.971l1.12-1.601
		l-0.217-0.1l-1.163,0.244l-0.3-0.148l-1.223-2.303l0.086-0.1l1.213,1.472l0.029,0.455l0.279,0.281l0.569-0.037l1.192-0.863
		l0.374-0.243l-0.008-0.299l-0.397-0.052c0,0-1.396-0.657-1.396-0.688c0-0.028,0.009-0.563,0.009-0.563h0.309l0.045,0.389
		l0.647,0.371l0.738,0.036l1.603,0.263l0.375,0.235v0.367l-0.048,0.499l0.822,1.352l0.265,0.061l0.264-0.384l0.147-1.093
		l0.273-0.589l0.441-0.165l0.779,0.074l0.978,0.87V-410.934z M323.554-419.531l-0.539,0.33v0.217l0.305,0.143l0.021,0.292
		l-0.431,0.642l-0.748-0.007l-0.047-0.155l0.468-0.237l0.003-0.887l0.796-0.554h0.173V-419.531z M325.215-415.755l-0.704-0.03
		l-0.212,0.03v-0.481l0.158-0.178l0.171-0.054l0.374-0.043l0.08-0.127l0.154,0.075l0.021,0.438l0.409,0.169l0.035,0.2H325.215z
		 M327.921-415.411l-0.123,0.118l-0.285-0.022l-0.055-0.087l-0.448-0.031l0.032-0.145l0.235-0.205v-0.171l-0.452-0.331l-0.019-0.421
		l0.091-0.207l0.366-0.033l0.313,0.132l0.014,0.217l-0.443-0.024l-0.022,0.202l0.557,0.37v0.272l0.24,0.176V-415.411z"/>
	<path d="M313.693-416.65h-0.313v0.161h0.074c0,0,0.004,0.035,0.011,0.08l0.191-0.017l0.119-0.074l0.031-0.15l0.154-0.013
		l0.062-0.126l-0.143-0.03l-0.124,0.005L313.693-416.65z"/>
	<polygon points="312.939,-416.365 313.168,-416.385 313.189,-416.543 313.054,-416.65 312.952,-416.522 	"/>
	<path d="M315.917-409.381l-0.958-0.008l-0.762-0.29l-0.036-0.542l-0.254-0.445l-0.688-0.009l-0.399-0.625l-0.353-0.172
		l-0.017,0.189l-0.645,0.039l-0.235-0.328l-0.67-0.137l-0.552,0.638l-0.87-0.146l-0.063-0.979l-0.634-0.108l0.254-0.48l-0.073-0.276
		l-0.832,0.558l-0.526-0.063l-0.187-0.411l0.115-0.422l0.289-0.532l0.665-0.338l1.286-0.001l-0.004,0.394l0.463,0.215l-0.038-0.67
		l0.333-0.335l0.672-0.442l0.046-0.311l0.67-0.696l0.713-0.395l-0.063-0.052l0.483-0.454l0.177,0.047l0.081,0.103l0.183-0.203
		l0.045-0.021l-0.201-0.027l-0.203-0.067v-0.197l0.108-0.089h0.238l0.109,0.049l0.094,0.188l0.115-0.017v-0.017l0.034,0.011
		l0.333-0.052l0.047-0.163l0.19,0.049v0.176l-0.176,0.121l0.025,0.195l0.605,0.187c0,0,0.001,0.002,0.002,0.007l0.139-0.012
		l0.009-0.263l-0.479-0.218l-0.028-0.127l0.399-0.136l0.017-0.38l-0.416-0.253l-0.027-0.644l-0.571,0.281h-0.208l0.056-0.489
		l-0.777-0.184l-0.321,0.241v0.742l-0.577,0.183l-0.231,0.482l-0.251,0.04v-0.617l-0.543-0.075l-0.271-0.176l-0.109-0.4l0.972-0.569
		l0.477-0.145l0.046,0.318l0.266-0.014l0.021-0.16l0.276-0.04l0.004-0.056l-0.118-0.049l-0.026-0.17l0.341-0.028l0.204-0.214
		l0.013-0.016l0.001,0.001l0.064-0.064l0.715-0.091l0.316,0.27l-0.83,0.441l1.056,0.249l0.138-0.353h0.461l0.163-0.308l-0.325-0.082
		v-0.389l-1.023-0.454l-0.706,0.082l-0.399,0.208l0.027,0.507l-0.416-0.063l-0.064-0.279l0.398-0.363l-0.724-0.036l-0.208,0.063
		l-0.092,0.245l0.272,0.045l-0.054,0.272l-0.463,0.027l-0.072,0.181l-0.67,0.018c0,0-0.019-0.38-0.044-0.38
		c-0.028,0,0.523-0.01,0.523-0.01l0.398-0.389l-0.217-0.108l-0.29,0.28l-0.479-0.025l-0.29-0.4h-0.615l-0.645,0.48h0.59l0.055,0.172
		l-0.155,0.146l0.652,0.018l0.1,0.236l-0.733-0.028l-0.035-0.181l-0.463-0.1l-0.245-0.136l-1.085,0.01l-0.336,0.326l-0.227-0.02
		l-0.253-0.146l-0.752-0.226h-1.376l-0.798,0.543l-0.533,0.083l-0.245,0.189l0.381,0.057v0.151h-0.815l-0.316,0.227l0.407,0.344
		l1.113,0.01l0.154-0.164h0.932l0.335,0.3l-0.017,0.461l0.28,0.264l-0.235,0.167l0.055,0.611l-0.843,1.023v0.96l0.453,0.217v0.862
		l0.434,0.74l0.354,0.054l0.046-0.254l-0.416-0.643l-0.082-0.623h0.244l0.104,0.643l0.603,0.877l-0.155,0.285l0.382,0.585
		l0.952,0.235v-0.154l0.379,0.054l-0.035,0.272l0.299,0.055l0.462,0.127l0.651,0.743l0.833,0.062l0.081,0.68l-0.57,0.398
		l-0.026,0.606l-0.082,0.372l0.823,1.033l0.063,0.353c0,0,0.3,0.08,0.337,0.08c0.035,0,0.67,0.479,0.67,0.479v1.866l0.227,0.063
		l-0.156,0.86l0.382,0.507l-0.071,0.854l0.503,0.883l0.646,0.563l0.648,0.013l0.063-0.208l-0.476-0.401l0.027-0.2l0.084-0.244
		l0.019-0.249l-0.321-0.009l-0.162-0.204l0.267-0.258l0.036-0.194l-0.299-0.086l0.019-0.181l0.426-0.064l0.647-0.313l0.217-0.397
		l0.68-0.869l-0.155-0.681l0.21-0.362l0.624,0.02l0.421-0.334l0.136-1.31l0.467-0.594l0.081-0.38l-0.425-0.136L315.917-409.381z
		 M310.996-416.074l-0.155,0.156h-0.348l0.055-0.236l0.163-0.015l0.034-0.081l0.251-0.035V-416.074z M311.078-416.502l-0.163,0.105
		l-0.204,0.037c0,0,0-0.325,0-0.359h0.367V-416.502z M311.387-416.753l0.168,0.103l-0.135,0.11l-0.131-0.11L311.387-416.753z
		 M311.166-416.481h0.027l0.414,0.122v0.211h-0.347l-0.095-0.137V-416.481z M310.894-417.066l0.226,0.204l-0.226,0.055V-417.066z
		 M309.944-417.032l0.312-0.129h0.428v0.129h0.095v0.225h-0.651l-0.244-0.068L309.944-417.032z M309.883-416.448l0.25-0.271h0.36
		l-0.461,0.645l-0.19-0.102L309.883-416.448z M309.55-417.982l0.258,0.061l-0.088,0.346l-0.278,0.09l-0.177-0.36L309.55-417.982z
		 M308.26-419.626v-0.021h0.237l0.021-0.081h0.389v0.17l-0.111,0.149h-0.536V-419.626z M308.64-419.096c0,0,0.238-0.042,0.258-0.042
		c0.021,0,0,0.238,0,0.238l-0.536,0.035l-0.102-0.123L308.64-419.096z"/>
</g>
<g>
</g>
<g>
</g>
<g>
</g>
<g>
</g>
<g>
</g>
<g>
</g>
<g>
</g>
<g>
</g>
<g>
</g>
<g>
</g>
<g>
</g>
<g>
</g>
<g>
</g>
<g>
</g>
<g>
</g>
</svg>
