<?xml version="1.0" encoding="iso-8859-1"?>
<!-- Generator: Adobe Illustrator 16.0.0, SVG Export Plug-In . SVG Version: 6.00 Build 0)  -->
<!DOCTYPE svg PUBLIC "-//W3C//DTD SVG 1.1//EN" "http://www.w3.org/Graphics/SVG/1.1/DTD/svg11.dtd">
<svg version="1.1" id="Layer_1" xmlns="http://www.w3.org/2000/svg" xmlns:xlink="http://www.w3.org/1999/xlink" x="0px" y="0px"
	 width="49.163px" height="49.162px" viewBox="0 0 49.163 49.162" style="enable-background:new 0 0 49.163 49.162;"
	 xml:space="preserve">
<g>
	<circle cx="-140.533" cy="-422.527" r="3.182"/>
	<circle cx="-122.421" cy="-411.195" r="2.545"/>
	<circle cx="-117.332" cy="-400.899" r="2.545"/>
	<circle cx="-117.713" cy="-422.527" r="3.182"/>
	<circle cx="-141.373" cy="-400.76" r="2.683"/>
	<path d="M-109.292-425.75c-0.371-0.524-0.759-1.035-1.17-1.527c-4.475-5.368-11.207-8.792-18.726-8.792c-0.013,0-0.024,0-0.036,0
		c-0.008,0-0.015,0-0.021,0c-0.028,0-0.056,0.003-0.084,0.003c-7.461,0.043-14.136,3.457-18.582,8.79
		c-0.41,0.492-0.799,1.003-1.17,1.527c-2.816,3.975-4.479,8.821-4.479,14.053c0,5.232,1.663,10.08,4.479,14.055
		c0.371,0.523,0.76,1.035,1.17,1.527c4.447,5.332,11.121,8.746,18.582,8.789c0.028,0,0.056,0.004,0.084,0.004
		c0.007,0,0.014-0.002,0.021-0.002c0.012,0,0.023,0.002,0.036,0.002c7.519,0,14.251-3.424,18.726-8.792
		c0.41-0.492,0.799-1.004,1.17-1.528c2.816-3.975,4.479-8.822,4.479-14.055C-104.814-416.927-106.476-421.774-109.292-425.75z
		 M-130.188-403.704c-2.462,0.059-4.817,0.351-7.04,0.811c0.3,0.58,0.483,1.225,0.516,1.914c2.058-0.408,4.24-0.67,6.524-0.726
		v12.312c-3.337-0.458-6.304-3.329-8.375-7.646c-0.512,0.388-1.099,0.675-1.744,0.826c1.114,2.293,2.463,4.244,3.995,5.722
		c-3.93-1.324-7.363-3.721-9.979-6.826c0.366-0.239,0.75-0.469,1.147-0.692c-0.378-0.518-0.659-1.107-0.8-1.755
		c-0.529,0.296-1.044,0.601-1.526,0.923c-2.242-3.181-3.686-6.962-4.013-11.06h7.923c0.071,1.647,0.249,3.242,0.505,4.782
		c0.523-0.203,1.087-0.325,1.682-0.325c0.096,0,0.186,0.022,0.28,0.028c-0.234-1.442-0.399-2.938-0.467-4.485h11.371V-403.704z
		 M-130.188-421.687c-1.797-0.043-3.536-0.209-5.2-0.474c-0.049,0.686-0.226,1.331-0.518,1.918c1.83,0.311,3.74,0.508,5.718,0.556
		v7.785h-11.411c0.009-1.908,0.168-3.746,0.43-5.509c-0.69-0.086-1.334-0.303-1.913-0.634c-0.315,1.965-0.507,4.014-0.517,6.143
		h-7.957c0.043-4.705,1.557-9.06,4.086-12.647c0.579,0.387,1.203,0.749,1.849,1.098c0.119-0.655,0.363-1.264,0.705-1.809
		c-0.479-0.263-0.945-0.532-1.38-0.817c2.615-3.106,6.055-5.498,9.984-6.822c-1.424,1.373-2.693,3.151-3.759,5.237
		c0.682,0.062,1.321,0.249,1.901,0.55c2.045-3.889,4.848-6.455,7.982-6.886V-421.687z M-110.904-398.841
		c-0.616-0.412-1.282-0.797-1.974-1.165c-0.13,0.652-0.408,1.247-0.786,1.767c0.551,0.294,1.084,0.599,1.579,0.922
		c-2.655,3.154-6.153,5.574-10.157,6.887c1.605-1.531,3.015-3.58,4.163-5.999c-0.658-0.11-1.273-0.35-1.804-0.711
		c-2.05,4.322-4.991,7.22-8.306,7.731v-12.296c2.21,0.054,4.324,0.303,6.324,0.688c0.018-0.692,0.198-1.338,0.493-1.92
		c-2.158-0.434-4.437-0.71-6.817-0.767v-6.197h1.433c-0.124-0.412-0.21-0.841-0.21-1.293c0-0.242,0.035-0.475,0.071-0.707h-1.293
		v-7.785c2.021-0.049,3.969-0.256,5.834-0.579c-0.288-0.588-0.462-1.234-0.508-1.921c-1.702,0.278-3.482,0.455-5.327,0.5v-12.296
		c3.116,0.481,5.896,3.075,7.92,6.975c0.564-0.323,1.188-0.539,1.858-0.631c-1.084-2.126-2.378-3.936-3.832-5.321
		c4.004,1.311,7.506,3.73,10.161,6.884c-0.405,0.266-0.835,0.518-1.278,0.764c0.347,0.54,0.6,1.144,0.727,1.795
		c0.601-0.328,1.184-0.668,1.726-1.03c2.529,3.588,4.043,7.941,4.086,12.646h-8.072c-0.01-2.084-0.194-4.093-0.497-6.021
		c-0.589,0.299-1.238,0.483-1.93,0.536c0.259,1.756,0.417,3.586,0.427,5.484h-1.056c0.037,0.232,0.071,0.465,0.071,0.707
		c0,0.452-0.086,0.881-0.21,1.293h1.153c-0.067,1.539-0.231,3.028-0.463,4.464c0.022-0.001,0.043-0.007,0.065-0.007
		c0.671,0,1.303,0.155,1.876,0.417c0.265-1.568,0.45-3.193,0.522-4.874h8.041C-107.219-405.804-108.661-402.021-110.904-398.841z"/>
</g>
<g>
</g>
<g>
</g>
<g>
</g>
<g>
</g>
<g>
</g>
<g>
</g>
<g>
</g>
<g>
</g>
<g>
</g>
<g>
</g>
<g>
</g>
<g>
</g>
<g>
</g>
<g>
</g>
<g>
</g>
</svg>
