<?xml version="1.0" encoding="iso-8859-1"?>
<!-- Generator: Adobe Illustrator 16.0.0, SVG Export Plug-In . SVG Version: 6.00 Build 0)  -->
<!DOCTYPE svg PUBLIC "-//W3C//DTD SVG 1.1//EN" "http://www.w3.org/Graphics/SVG/1.1/DTD/svg11.dtd">
<svg version="1.1" id="Layer_1" xmlns="http://www.w3.org/2000/svg" xmlns:xlink="http://www.w3.org/1999/xlink" x="0px" y="0px"
	 width="49.163px" height="49.162px" viewBox="0 0 49.163 49.162" style="enable-background:new 0 0 49.163 49.162;"
	 xml:space="preserve">
<g>
	<path d="M-190.701-341.455c-0.206-0.529-0.431-1.047-0.666-1.558c-0.358-0.56-0.746-1.104-1.163-1.631
		c-0.543,0.564-1.11,1.15-1.718,1.772C-192.995-342.422-191.809-341.943-190.701-341.455z"/>
	<path d="M-197.188-351.824c-0.475-0.548-0.93-1.047-1.354-1.494c-0.564,0.022-1.17,0.059-1.816,0.113
		c0.06,0.119,0.119,0.239,0.178,0.362c0.808,0.364,1.612,0.773,2.405,1.224C-197.575-351.69-197.381-351.758-197.188-351.824z"/>
	<path d="M-193.731-350.788c0.549,0.724,1.099,1.496,1.636,2.313c0.093,0.062,0.187,0.122,0.278,0.184
		c0.604-0.641,1.122-1.194,1.543-1.648c-0.47-0.468-0.961-0.913-1.47-1.338C-192.105-351.202-192.796-351.046-193.731-350.788z"/>
	<path d="M-205.849-325.296c1.296-0.015,2.581-0.106,3.842-0.262c0.707-0.521,1.396-1.075,2.067-1.657
		c-1.5-1.713-3.124-3.545-4.833-5.44c-0.19,0.173-0.378,0.349-0.568,0.521c-0.199,0.18-0.394,0.354-0.592,0.532
		C-205.933-329.451-205.9-327.327-205.849-325.296z"/>
	<path d="M-205.126-336.015c0.331,0.017,0.66,0.033,0.987,0.051c1.649-1.545,3.247-3.089,4.753-4.576
		c-0.733-0.81-1.494-1.568-2.271-2.28c-1.319-0.245-2.67-0.418-4.036-0.507c-0.068,2.043-0.128,4.23-0.176,6.512
		C-205.621-336.549-205.374-336.283-205.126-336.015z"/>
	<path d="M-196.36-343.573c0.896-0.912,1.732-1.772,2.499-2.57c-1.241-1.265-2.617-2.325-4.058-3.217
		c-0.019-0.008-0.037-0.017-0.055-0.024c-0.188,0.072-0.379,0.146-0.573,0.224c0.672,1.671,1.323,3.517,1.873,5.491
		C-196.57-343.638-196.465-343.605-196.36-343.573z"/>
	<path d="M-198.469-328.571c0.406-0.398,0.798-0.803,1.177-1.212c0.114-1.225,0.172-2.479,0.154-3.761
		c-1.916-0.127-3.953-0.252-6.073-0.367C-201.537-332.052-199.944-330.255-198.469-328.571z"/>
	<path d="M-198.089-339.011c-1.059,1.046-2.162,2.117-3.297,3.198c1.433,0.083,2.821,0.17,4.152,0.257
		c-0.073-0.936-0.184-1.861-0.327-2.774C-197.734-338.559-197.91-338.785-198.089-339.011z"/>
	<path d="M-183.731-332.493c-0.46-0.043-1.066-0.098-1.801-0.162c0.095,0.585,0.173,1.158,0.24,1.721
		c0.639-0.329,1.146-0.606,1.5-0.807C-183.766-331.99-183.749-332.242-183.731-332.493z"/>
	<path d="M-205.446-323.303c-0.114,0.003-0.229,0.005-0.344,0.006c0.002,0.064,0.004,0.129,0.006,0.192
		C-205.671-323.169-205.559-323.236-205.446-323.303z"/>
	<path d="M-189.505-337.321c-0.392,0.726-0.819,1.471-1.283,2.227c0.548,0.043,1.075,0.084,1.578,0.124
		C-189.263-335.765-189.36-336.549-189.505-337.321z"/>
	<path d="M-187.708-346.884c-0.381-0.543-0.784-1.07-1.21-1.577c-0.356,0.384-0.778,0.834-1.253,1.34
		c0.72,0.54,1.397,1.084,2.031,1.622C-187.934-346.115-187.791-346.591-187.708-346.884z"/>
	<path d="M-188.883-343.461c-0.244-0.213-0.497-0.43-0.755-0.646c0.042,0.091,0.082,0.185,0.123,0.276
		c0.161,0.257,0.321,0.516,0.471,0.777C-188.988-343.193-188.936-343.326-188.883-343.461z"/>
	<path d="M-196.585-315.963c-0.525-0.195-1.082-0.411-1.661-0.646c-0.139,0.068-0.279,0.134-0.419,0.2
		c-0.235,0.56-0.467,1.091-0.693,1.581c0.605,0.054,1.174,0.093,1.691,0.119C-197.33-315.084-196.965-315.505-196.585-315.963z"/>
	<path d="M-191.999-333.181c0.769,1.503,1.431,2.986,1.996,4.398c0.084-0.034,0.168-0.068,0.251-0.103
		c0.311-1.315,0.516-2.678,0.571-4.076C-190.052-333.031-190.993-333.105-191.999-333.181z"/>
	<path d="M-185.956-343.926c-0.115-0.234-0.234-0.467-0.357-0.696c-0.062,0.182-0.126,0.372-0.198,0.573
		c0.19,0.178,0.374,0.354,0.553,0.526C-185.956-343.69-185.955-343.829-185.956-343.926z"/>
	<path d="M-186.107-340.813c-0.355-0.368-0.753-0.768-1.187-1.186c-0.171,0.419-0.357,0.856-0.56,1.313
		c0.109,0.247,0.219,0.494,0.32,0.743c0.44,0.227,0.86,0.45,1.256,0.666C-186.207-339.824-186.151-340.338-186.107-340.813z"/>
	<path d="M-194.85-318.208c-0.285,0.142-0.574,0.279-0.867,0.413c0.152,0.057,0.298,0.109,0.445,0.162
		C-195.131-317.82-194.991-318.011-194.85-318.208z"/>
	<path d="M-196.412-323.148c-0.348,1.38-0.741,2.682-1.158,3.883c0.972-0.578,1.904-1.238,2.779-1.988
		C-195.293-321.844-195.839-322.482-196.412-323.148z"/>
	<path d="M-194.174-315.13c-0.122-0.039-0.247-0.08-0.375-0.122c-0.165,0.205-0.327,0.403-0.487,0.595
		c0.027-0.001,0.049-0.001,0.074-0.002C-194.696-314.811-194.434-314.968-194.174-315.13z"/>
	<path d="M-189.205-319.374c-0.108-0.498-0.262-1.155-0.467-1.94c-0.433,0.307-0.883,0.612-1.349,0.916
		c-0.058,0.101-0.117,0.198-0.175,0.298c0.505,0.601,0.929,1.108,1.268,1.515C-189.681-318.843-189.44-319.105-189.205-319.374z"/>
	<path d="M-194.549-353.271c-0.097-0.009-0.545-0.045-1.269-0.066c0.238,0.27,0.479,0.551,0.725,0.844
		c0.452-0.133,0.861-0.245,1.232-0.342C-194.088-352.984-194.316-353.131-194.549-353.271z"/>
	<path d="M-191.174-326.167c-1.268,0.461-2.633,0.905-4.076,1.302c0.68,0.79,1.324,1.542,1.911,2.23
		c0.887-0.937,1.672-1.938,2.359-2.981C-191.044-325.799-191.107-325.98-191.174-326.167z"/>
	<path d="M-205.677-320.295c0.044,1.044,0.092,2.035,0.141,2.964c1.452-0.055,2.874-0.273,4.252-0.616
		C-202.696-318.619-204.179-319.398-205.677-320.295z"/>
	<path d="M-187.119-322.168c0.024-0.306,0.05-0.693,0.072-1.151c-0.282,0.232-0.58,0.47-0.886,0.71
		c0.118,0.429,0.222,0.829,0.314,1.2C-187.446-321.658-187.281-321.912-187.119-322.168z"/>
	<path d="M-201.252-323.633c-0.951,0.684-1.92,1.315-2.895,1.898c1.539,0.891,3.059,1.66,4.487,2.313
		c0.516-1.433,1.01-3.018,1.422-4.724C-199.219-323.942-200.227-323.77-201.252-323.633z"/>
	<path d="M-200.573-312.389c0.298-0.075,0.593-0.159,0.886-0.246c0.051-0.048,0.114-0.107,0.187-0.177
		c-0.268-0.022-0.531-0.043-0.813-0.072C-200.402-312.715-200.491-312.542-200.573-312.389z"/>
	<path d="M-192.105-316.601c0.247-0.196,0.488-0.398,0.726-0.605c-0.257-0.309-0.562-0.673-0.928-1.109
		c-0.314,0.475-0.63,0.932-0.946,1.367C-192.808-316.807-192.422-316.691-192.105-316.601z"/>
	<path d="M-184.355-328.581c0.055-0.216,0.103-0.435,0.151-0.652c-0.271,0.142-0.565,0.293-0.883,0.452
		c0.021,0.309,0.039,0.612,0.054,0.908C-184.674-328.234-184.442-328.486-184.355-328.581z"/>
	<path d="M-183.711-335.404c-0.265-0.174-0.612-0.396-1.035-0.656c-0.094,0.469-0.201,0.95-0.317,1.439
		c0.542,0.048,1.006,0.09,1.385,0.124C-183.685-334.801-183.693-335.104-183.711-335.404z"/>
	<path d="M-184.295-338.803c-0.026,0.2-0.055,0.404-0.085,0.611c0.126,0.076,0.25,0.15,0.367,0.222
		c-0.037-0.21-0.071-0.421-0.113-0.629C-184.171-338.653-184.229-338.724-184.295-338.803z"/>
	<path d="M-187.064-327.841c-0.15,0.068-0.302,0.136-0.458,0.205c-0.337,0.693-0.705,1.382-1.109,2.061
		c-0.035,0.097-0.067,0.195-0.102,0.291c0.064,0.196,0.124,0.388,0.184,0.578c0.565-0.458,1.084-0.899,1.548-1.31
		C-187.009-326.586-187.03-327.199-187.064-327.841z"/>
	<path d="M-201.874-356.063c0.159,0.279,0.329,0.583,0.509,0.914c0.305-0.031,0.603-0.059,0.895-0.082
		c-0.455-0.421-0.734-0.655-0.751-0.67l0.02-0.024C-201.425-355.974-201.649-356.02-201.874-356.063z"/>
	<path d="M-201.337-350.555c-1.307-0.347-2.657-0.578-4.041-0.65c-0.042,0.877-0.084,1.83-0.127,2.852
		c0.085,0.057,0.171,0.116,0.257,0.174c1.392-0.797,2.755-1.476,4.052-2.057C-201.244-350.343-201.291-350.451-201.337-350.555z"/>
	<path d="M-204.397-356.391c-0.234-0.018-0.47-0.033-0.706-0.044c-0.027,0.456-0.062,1.062-0.102,1.807
		c0.045,0.013,0.09,0.023,0.136,0.036c0.529-0.105,1.051-0.199,1.56-0.279C-203.878-355.531-204.185-356.045-204.397-356.391z"/>
	<path d="M-201.366-315.296c-0.174,0.062-0.349,0.114-0.523,0.173c0.138,0.02,0.277,0.041,0.413,0.06
		C-201.44-315.141-201.403-315.217-201.366-315.296z"/>
	<path d="M-198.958-344.292c-0.446-1.447-0.942-2.814-1.451-4.08c-0.973,0.437-1.984,0.93-3.016,1.487
		c0.904,0.678,1.805,1.41,2.691,2.202C-200.134-344.563-199.541-344.434-198.958-344.292z"/>
	<path d="M-205.613-345.614c-0.004,0.096-0.007,0.191-0.011,0.287c0.344,0.021,0.686,0.047,1.027,0.078
		c-0.245-0.184-0.49-0.362-0.735-0.537C-205.426-345.729-205.52-345.672-205.613-345.614z"/>
	<path d="M-203.153-311.902c0.161-0.269,0.407-0.693,0.711-1.256c-0.924-0.14-1.888-0.315-2.884-0.536
		c0.048,0.752,0.093,1.41,0.132,1.963C-204.505-311.758-203.825-311.815-203.153-311.902z"/>
	<path d="M-195.639-326.853c1.321-0.369,2.576-0.78,3.747-1.205c-0.427-1.068-0.909-2.178-1.454-3.304
		c-0.625,0.817-1.296,1.631-2.015,2.432C-195.438-328.225-195.53-327.531-195.639-326.853z"/>
	<path d="M-195.159-332.301c0.271-0.351,0.535-0.702,0.79-1.054c-0.254-0.018-0.513-0.036-0.773-0.054
		C-195.138-333.035-195.151-332.669-195.159-332.301z"/>
	<path d="M-207.659-319.834c-1.387,0.676-2.747,1.26-4.042,1.763c1.337,0.364,2.727,0.616,4.161,0.713
		C-207.581-318.143-207.621-318.97-207.659-319.834z"/>
	<path d="M-195.815-341.277c-0.07,0.07-0.145,0.145-0.216,0.216c0.137,0.632,0.261,1.272,0.371,1.921
		c0.934,1.264,1.773,2.565,2.527,3.87c0.023,0.002,0.046,0.003,0.069,0.005c0.887-1.378,1.648-2.729,2.296-4.002
		C-192.295-339.967-193.994-340.662-195.815-341.277z"/>
	<path d="M-221.712-345.878c-0.2,0.136-0.397,0.271-0.588,0.406c0.043,0.146,0.089,0.296,0.136,0.45
		C-222.017-345.312-221.865-345.596-221.712-345.878z"/>
	<path d="M-220.751-336.267c-0.563-1.08-1.059-2.132-1.493-3.138c-0.3,1.031-0.531,2.091-0.674,3.172
		C-222.229-336.246-221.506-336.257-220.751-336.267z"/>
	<path d="M-219.648-334.279c-1.216,0.011-2.364,0.027-3.425,0.048c-0.001,0.06-0.007,0.119-0.008,0.179
		c-0.025,1.513,0.129,2.988,0.415,4.411c0.095,0.234,0.196,0.467,0.298,0.7c0.014,0.006,0.026,0.012,0.04,0.018
		c0.764-1.657,1.677-3.431,2.759-5.22C-219.596-334.189-219.622-334.234-219.648-334.279z"/>
	<path d="M-223.117-348.52l0.047-0.009c0.003,0.02,0.069,0.372,0.212,0.976c0.649-0.442,1.34-0.888,2.074-1.325
		c-0.413-0.387-0.774-0.723-1.083-1.009C-222.303-349.449-222.718-348.991-223.117-348.52z"/>
	<path d="M-217.203-334.13c0.003,0.005,0.006,0.01,0.009,0.015c0-0.01,0.001-0.021,0.001-0.03
		C-217.196-334.141-217.199-334.135-217.203-334.13z"/>
	<path d="M-219.943-343.571c1.164-0.346,2.411-0.667,3.726-0.94c-0.566-0.553-1.104-1.073-1.621-1.569
		C-218.617-345.297-219.316-344.455-219.943-343.571z"/>
	<path d="M-220.931-317.401c0.353-0.073,0.822-0.177,1.393-0.315c-0.289-0.42-0.576-0.856-0.861-1.309
		c-0.476,0.399-0.875,0.732-1.198,1.001C-221.38-317.813-221.158-317.604-220.931-317.401z"/>
	<path d="M-220.385-351.24c0.371,0.344,0.799,0.743,1.302,1.215c0.496-0.685,0.996-1.334,1.486-1.938
		c-0.739-0.239-1.211-0.366-1.33-0.396C-219.427-352.005-219.915-351.633-220.385-351.24z"/>
	<path d="M-215.849-354.189c-0.274,0.134-0.547,0.272-0.815,0.418c0.151,0.049,0.31,0.103,0.477,0.16
		c0.126-0.142,0.251-0.28,0.375-0.414c-0.012,0-0.029,0-0.031,0L-215.849-354.189z"/>
	<path d="M-220.457-328.147c1.155,0.449,2.412,0.879,3.745,1.269c-0.185-1.15-0.312-2.348-0.396-3.568
		c-0.439-0.589-0.856-1.181-1.251-1.772C-219.159-330.826-219.854-329.452-220.457-328.147z"/>
	<path d="M-218.47-336.285c0.092-0.001,0.187-0.001,0.279-0.002c0.428-0.626,0.877-1.249,1.349-1.866
		c0.213-1.493,0.509-2.948,0.861-4.349c-1.744,0.374-3.362,0.832-4.815,1.315C-220.179-339.663-219.413-337.999-218.47-336.285z"/>
	<path d="M-227.756-328.724c0.013,0.017,0.226,0.271,0.605,0.684c0.029-0.313,0.061-0.635,0.098-0.966
		c-0.326-0.182-0.625-0.352-0.894-0.51c0.056,0.268,0.119,0.533,0.185,0.797L-227.756-328.724z"/>
	<path d="M-207.107-356.431c-0.287,0.013-0.571,0.036-0.855,0.061c-0.152,0.249-0.352,0.582-0.586,0.989
		c0.444,0.08,0.901,0.172,1.367,0.272C-207.154-355.627-207.128-356.072-207.107-356.431z"/>
	<path d="M-215.869-322.869c-0.498,0.427-0.98,0.84-1.433,1.226c0.741,0.683,1.531,1.295,2.351,1.852
		C-215.276-320.765-215.588-321.785-215.869-322.869z"/>
	<path d="M-228.322-336.085c0.509-0.019,1.102-0.039,1.771-0.059c-0.146-0.88-0.256-1.727-0.338-2.529
		c-0.524,0.264-0.919,0.478-1.167,0.616C-228.173-337.408-228.263-336.751-228.322-336.085z"/>
	<path d="M-227.177-341.414c-0.088,0.254-0.176,0.509-0.255,0.767c0.121-0.06,0.248-0.122,0.379-0.185
		c-0.011-0.232-0.021-0.459-0.028-0.678C-227.117-341.475-227.149-341.442-227.177-341.414z"/>
	<path d="M-226.166-334.152c0-0.001,0-0.002-0.001-0.004c-0.876,0.026-1.632,0.053-2.25,0.076c0,0.666,0.035,1.323,0.092,1.976
		c0.275,0.181,0.796,0.513,1.563,0.953C-226.606-332.113-226.41-333.12-226.166-334.152z"/>
	<path d="M-213.193-315.282c-0.187-0.415-0.375-0.852-0.565-1.312c-0.351-0.118-0.698-0.242-1.04-0.373
		c-0.466,0.151-0.916,0.291-1.346,0.419c0.37,0.463,0.728,0.892,1.068,1.282C-214.5-315.259-213.872-315.262-213.193-315.282z"/>
	<path d="M-207.199-311.739c-0.041-0.584-0.088-1.275-0.137-2.061c-0.938,0.152-1.85,0.267-2.727,0.351
		c0.363,0.685,0.658,1.194,0.847,1.511C-208.552-311.844-207.88-311.774-207.199-311.739z"/>
	<path d="M-211.819-312.47c-0.133-0.249-0.278-0.531-0.426-0.821c-0.33,0.015-0.65,0.025-0.962,0.034
		c0.242,0.24,0.435,0.425,0.573,0.555C-212.365-312.619-212.093-312.543-211.819-312.47z"/>
	<path d="M-210.421-323.556c-1.272-0.146-2.506-0.347-3.693-0.597c0.375,1.559,0.819,3.016,1.286,4.348
		c1.495-0.568,3.089-1.249,4.71-2.056C-208.894-322.393-209.664-322.956-210.421-323.556z"/>
	<path d="M-224.019-344.19c-0.386,0.305-0.744,0.597-1.069,0.87c-0.003,0.47,0.002,0.999,0.022,1.588
		c0.51-0.216,1.061-0.438,1.646-0.661C-223.646-343.032-223.846-343.635-224.019-344.19z"/>
	<path d="M-210.91-315.41c-0.052-0.021-0.105-0.041-0.157-0.063c0.011,0.023,0.022,0.049,0.033,0.072
		C-210.993-315.404-210.952-315.407-210.91-315.41z"/>
	<path d="M-211.042-355.889c-0.018,0.016-0.061,0.052-0.139,0.12c0.165,0.019,0.334,0.04,0.505,0.062
		c0.059-0.105,0.115-0.204,0.172-0.304C-210.684-355.974-210.862-355.93-211.042-355.889z"/>
	<path d="M-224.938-339.591c0.029,0.341,0.066,0.696,0.106,1.057c0.168-0.446,0.347-0.892,0.539-1.335
		C-224.515-339.775-224.731-339.682-224.938-339.591z"/>
	<path d="M-213.149-345.038c1.164-0.156,2.365-0.271,3.6-0.325c0.657-0.49,1.317-0.951,1.978-1.387
		c0.007-0.174,0.014-0.348,0.021-0.518c-1.362-0.849-2.692-1.575-3.936-2.19C-212.062-348.111-212.632-346.626-213.149-345.038z"/>
	<path d="M-221.634-320.601c-0.479-0.328-0.938-0.659-1.378-0.99c-0.201,0.632-0.351,1.146-0.456,1.52
		c0.161,0.2,0.326,0.396,0.494,0.59C-222.627-319.771-222.177-320.146-221.634-320.601z"/>
	<path d="M-224.943-346.034c0.109-0.085,0.216-0.169,0.329-0.254c-0.016-0.063-0.032-0.125-0.047-0.186
		C-224.758-346.329-224.85-346.182-224.943-346.034z"/>
	<path d="M-214.94-346.061c0.371-1.114,0.766-2.174,1.168-3.171c-0.891,0.531-1.755,1.131-2.58,1.805
		C-215.899-346.991-215.43-346.537-214.94-346.061z"/>
	<path d="M-218.386-315.435c0.135,0.014,0.333,0.032,0.582,0.052c-0.15-0.188-0.301-0.381-0.454-0.579
		c-0.23,0.059-0.447,0.112-0.655,0.163C-218.739-315.676-218.564-315.553-218.386-315.435z"/>
	<path d="M-223.678-325.746c-0.206-0.595-0.394-1.201-0.561-1.82c-0.312-0.146-0.597-0.289-0.885-0.432
		c-0.064,0.669-0.109,1.289-0.14,1.859c0.389,0.366,0.822,0.758,1.292,1.164C-223.879-325.226-223.78-325.483-223.678-325.746z"/>
	<path d="M-225.311-322.73c0.118,0.199,0.24,0.396,0.364,0.592c0.078-0.247,0.16-0.506,0.252-0.785
		c-0.218-0.183-0.429-0.363-0.634-0.542C-225.325-323.109-225.317-322.86-225.311-322.73z"/>
	<path d="M-220.943-326.17c0.645,1.077,1.387,2.115,2.243,3.09c0.618-0.526,1.289-1.102,1.991-1.704
		C-218.222-325.202-219.643-325.672-220.943-326.17z"/>
	<path d="M-214.217-341.235c0.212-0.223,0.429-0.443,0.649-0.662c-0.131-0.131-0.26-0.26-0.39-0.388
		C-214.048-341.938-214.135-341.588-214.217-341.235z"/>
	<path d="M-207.851-325.351c-0.037-1.45-0.063-2.945-0.075-4.465c-1.141,1.018-2.249,1.996-3.313,2.93
		c0.53,0.487,1.072,0.956,1.625,1.405C-209.033-325.422-208.445-325.381-207.851-325.351z"/>
	<path d="M-207.455-349.571c0.025-0.568,0.05-1.113,0.074-1.631c-0.856,0.042-1.699,0.136-2.526,0.276
		C-209.114-350.518-208.293-350.067-207.455-349.571z"/>
	<path d="M-214.141-352.854c0.406,0.161,0.833,0.339,1.279,0.531c0.17-0.047,0.339-0.095,0.511-0.139
		c0.223-0.467,0.441-0.909,0.653-1.326c-0.514-0.058-0.991-0.102-1.426-0.135C-213.44-353.601-213.781-353.244-214.141-352.854z"/>
	<path d="M-207.692-343.395c-0.385-0.002-0.768,0.003-1.147,0.014c-0.628,0.483-1.25,0.994-1.86,1.533
		c0.942,0.955,1.904,1.945,2.877,2.963C-207.784-340.447-207.74-341.957-207.692-343.395z"/>
	<path d="M-207.931-332.493c0.002-0.546,0.008-1.093,0.015-1.64c-2.484-0.091-4.942-0.137-7.27-0.151
		c-0.009,0.227-0.02,0.453-0.023,0.681c-0.013,0.812,0.005,1.612,0.047,2.402c0.761,0.992,1.588,1.97,2.491,2.912
		C-211.169-329.605-209.578-331.015-207.931-332.493z"/>
	<path d="M-215.048-336.282c2.269,0.016,4.658,0.06,7.075,0.146c-1.414-1.503-2.822-2.96-4.186-4.342
		c-0.996,0.993-1.918,2.043-2.767,3.127C-214.972-336.996-215.012-336.64-215.048-336.282z"/>
	<path d="M-209.655-353.349c0.101-0.035,0.201-0.073,0.302-0.107c-0.076-0.013-0.151-0.024-0.226-0.037
		C-209.605-353.444-209.629-353.398-209.655-353.349z"/>
	<path d="M-214.178-326.973c-0.208-0.219-0.416-0.438-0.616-0.659c0.053,0.353,0.11,0.7,0.172,1.046
		C-214.478-326.712-214.325-326.846-214.178-326.973z"/>
</g>
<g>
</g>
<g>
</g>
<g>
</g>
<g>
</g>
<g>
</g>
<g>
</g>
<g>
</g>
<g>
</g>
<g>
</g>
<g>
</g>
<g>
</g>
<g>
</g>
<g>
</g>
<g>
</g>
<g>
</g>
</svg>
