<?xml version="1.0" encoding="iso-8859-1"?>
<!-- Generator: Adobe Illustrator 16.0.0, SVG Export Plug-In . SVG Version: 6.00 Build 0)  -->
<!DOCTYPE svg PUBLIC "-//W3C//DTD SVG 1.1//EN" "http://www.w3.org/Graphics/SVG/1.1/DTD/svg11.dtd">
<svg version="1.1" id="Layer_1" xmlns="http://www.w3.org/2000/svg" xmlns:xlink="http://www.w3.org/1999/xlink" x="0px" y="0px"
	 width="49.163px" height="49.162px" viewBox="0 0 49.163 49.162" style="enable-background:new 0 0 49.163 49.162;"
	 xml:space="preserve">
<path style="fill:none;" d="M45.386,15.802c-0.162,1.103-1.101,1.95-2.247,1.95c-1.259,0-2.28-1.021-2.28-2.28
	c0-1.259,1.021-2.279,2.28-2.279c-1.259,0-2.28-1.021-2.28-2.279c0-0.539,0.195-1.027,0.507-1.418
	c-0.43-0.478-0.882-0.935-1.351-1.375c-0.385,0.298-0.863,0.482-1.388,0.482c-1.259,0-2.28-1.021-2.28-2.28
	c0-0.315,0.064-0.616,0.181-0.89c-0.151-0.095-0.303-0.188-0.456-0.279c0.17,0.319,0.276,0.679,0.276,1.065
	c0,1.26-1.021,2.28-2.28,2.28c-1.259,0-2.28-1.021-2.28-2.28c0-1.161,0.872-2.109,1.995-2.25c-0.057-0.026-0.113-0.053-0.17-0.078
	c-0.31-0.059-0.598-0.179-0.849-0.35c-0.451-0.176-0.907-0.342-1.371-0.488c-0.407,0.625-1.108,1.04-1.91,1.04
	c-1.14,0-2.076-0.839-2.245-1.931c-0.027-0.004-0.053-0.008-0.08-0.011c-0.206,1.048-1.127,1.838-2.235,1.838
	c-1.13,0-2.062-0.824-2.242-1.903c-0.022,0.002-0.043,0.003-0.065,0.005c-0.135,1.131-1.086,2.011-2.253,2.011
	c-0.875,0-1.626-0.499-2.008-1.223c-0.254,0.073-0.507,0.149-0.757,0.23c-0.417,0.537-1.062,0.889-1.794,0.889
	c-0.138,0-0.272-0.018-0.404-0.041c-0.781,0.35-1.54,0.74-2.271,1.173c0.262,0.371,0.419,0.821,0.419,1.311
	c0,1.26-1.021,2.28-2.28,2.28c-0.738,0-1.387-0.356-1.804-0.9c-0.47,0.425-0.919,0.871-1.352,1.332
	c0.501,0.419,0.828,1.041,0.828,1.745c0,1.259-1.021,2.279-2.279,2.279c1.259,0,2.28,1.021,2.28,2.279c0,1.26-1.021,2.28-2.28,2.28
	c-1.259,0-2.28-1.021-2.28-2.28c0-1.259,1.021-2.279,2.28-2.279c-0.489,0-0.939-0.157-1.311-0.419
	c-0.394,0.639-0.758,1.297-1.088,1.976c0.07,0.22,0.119,0.449,0.119,0.692c0,0.873-0.496,1.622-1.216,2.006
	c-0.055,0.162-0.112,0.323-0.163,0.487c0.784,0.36,1.331,1.147,1.331,2.067c0,1.236-0.987,2.238-2.215,2.272
	c-0.001,0.005-0.001,0.011-0.002,0.016c1.241,0.021,2.242,1.029,2.242,2.275c0,1.248-1.003,2.259-2.247,2.276
	c0,0.004,0,0.008,0.001,0.012c1.22,0.045,2.197,1.041,2.197,2.272c0,0.917-0.545,1.702-1.326,2.064
	c0.049,0.159,0.103,0.317,0.155,0.476c0.735,0.378,1.243,1.135,1.243,2.019c0,0.259-0.052,0.502-0.131,0.733
	c0.328,0.678,0.69,1.334,1.082,1.972c0.365-0.249,0.806-0.395,1.281-0.395c1.259,0,2.279,1.021,2.279,2.28
	c0,0.692-0.315,1.306-0.804,1.724c0.458,0.489,0.935,0.96,1.434,1.407c0.417-0.454,1.009-0.743,1.674-0.743
	c1.259,0,2.28,1.021,2.28,2.279c0,0.412-0.118,0.794-0.309,1.127c0.656,0.386,1.333,0.738,2.028,1.058
	c0.166-0.038,0.336-0.063,0.513-0.063c0.786,0,1.478,0.397,1.888,1.003c0.238,0.077,0.478,0.149,0.719,0.22
	c0.397-0.668,1.119-1.119,1.952-1.119c1.132,0,2.065,0.828,2.243,1.911c0.021,0.002,0.042,0.003,0.063,0.005
	c0.127-1.14,1.082-2.028,2.255-2.028c1.156,0,2.101,0.864,2.249,1.981c0.024-0.003,0.048-0.007,0.072-0.01
	c0.194-1.063,1.12-1.868,2.238-1.868c0.787,0,1.48,0.398,1.89,1.005c0.303-0.095,0.603-0.198,0.9-0.305
	c0.418-0.52,1.051-0.858,1.77-0.858c0.083,0,0.162,0.016,0.243,0.024c0.042-0.02,0.084-0.037,0.125-0.057
	c-0.105,0.015-0.21,0.032-0.32,0.032c-1.259,0-2.28-1.021-2.28-2.28c0-1.259,1.021-2.279,2.28-2.279c1.259,0,2.28,1.021,2.28,2.279
	c0,0.593-0.232,1.128-0.603,1.533c0.275-0.155,0.546-0.315,0.814-0.482c-0.133-0.289-0.212-0.607-0.212-0.947
	c0-1.259,1.021-2.279,2.28-2.279c0.551,0,1.049,0.203,1.444,0.528c0.461-0.432,0.908-0.88,1.332-1.35
	c-0.32-0.393-0.521-0.887-0.521-1.433c0-1.26,1.021-2.28,2.28-2.28c0.306,0,0.597,0.063,0.864,0.172
	c0.09-0.149,0.175-0.302,0.261-0.454c-0.322,0.174-0.685,0.282-1.077,0.282c-1.259,0-2.28-1.021-2.28-2.28
	c0-1.259,1.021-2.279,2.28-2.279c1.139,0,2.075,0.838,2.245,1.93c0.32-0.755,0.596-1.532,0.833-2.326
	c-0.526-0.418-0.87-1.056-0.87-1.779c0-1.049,0.712-1.923,1.676-2.189c0.007-0.063,0.017-0.126,0.024-0.189
	c-0.952-0.274-1.651-1.142-1.651-2.182c0-1.046,0.708-1.918,1.669-2.186c-0.006-0.063-0.008-0.127-0.014-0.188
	c-0.966-0.266-1.679-1.14-1.679-2.189c0-0.74,0.358-1.392,0.904-1.808c-0.149-0.518-0.312-1.03-0.497-1.532
	c-0.153-0.241-0.264-0.513-0.317-0.805C45.435,15.929,45.413,15.864,45.386,15.802z M38.58,8.603c1.259,0,2.28,1.021,2.28,2.28
	c0,1.259-1.021,2.279-2.28,2.279c1.259,0,2.28,1.021,2.28,2.279c0,1.26-1.021,2.28-2.28,2.28s-2.28-1.021-2.28-2.28
	c0-1.259,1.021-2.279,2.28-2.279c-1.259,0-2.28-1.021-2.28-2.279C36.3,9.623,37.32,8.603,38.58,8.603z M20.341,36.028
	c-1.259,0-2.28-1.021-2.28-2.28c0-1.259,1.021-2.279,2.28-2.279s2.28,1.021,2.28,2.279C22.621,35.008,21.6,36.028,20.341,36.028z
	 M22.572,38.309c0,1.259-1.021,2.279-2.28,2.279c-1.259,0-2.28-1.021-2.28-2.279c0-1.26,1.021-2.28,2.28-2.28
	C21.551,36.028,22.572,37.049,22.572,38.309z M8.919,24.58c0,1.26-1.021,2.28-2.28,2.28c-1.259,0-2.28-1.021-2.28-2.28
	c0-1.259,1.021-2.279,2.28-2.279C7.898,22.301,8.919,23.321,8.919,24.58z M8.894,20.12c0-1.26,1.021-2.28,2.28-2.28
	c1.259,0,2.28,1.021,2.28,2.28c0,1.259-1.021,2.279-2.28,2.279C9.915,22.399,8.894,21.379,8.894,20.12z M11.198,22.404
	c1.259,0,2.28,1.021,2.28,2.279c0,1.26-1.021,2.28-2.28,2.28s-2.28-1.021-2.28-2.28C8.918,23.425,9.939,22.404,11.198,22.404z
	 M18.062,10.946c0-1.26,1.021-2.28,2.28-2.28c1.259,0,2.28,1.021,2.28,2.28c0,1.259-1.021,2.279-2.28,2.279
	c1.259,0,2.28,1.021,2.28,2.279c0,1.26-1.021,2.28-2.28,2.28s-2.28-1.021-2.28-2.28c0-1.259,1.021-2.279,2.28-2.279
	C19.082,13.226,18.062,12.205,18.062,10.946z M33.972,22.178c-1.259,0-2.28-1.021-2.28-2.279c0-1.26,1.021-2.28,2.28-2.28
	c1.259,0,2.279,1.021,2.279,2.28C36.251,21.157,35.231,22.178,33.972,22.178z M36.276,24.462c0,1.26-1.021,2.28-2.28,2.28
	c-1.259,0-2.28-1.021-2.28-2.28c0-1.259,1.021-2.279,2.28-2.279C35.255,22.183,36.276,23.203,36.276,24.462z M20.317,26.909
	c-1.259,0-2.28-1.021-2.28-2.28c0-1.259,1.021-2.279,2.28-2.279s2.28,1.021,2.28,2.279C22.597,25.889,21.577,26.909,20.317,26.909z
	 M22.549,29.189c0,1.259-1.021,2.279-2.28,2.279c-1.259,0-2.28-1.021-2.28-2.279c0-1.26,1.021-2.28,2.28-2.28
	C21.528,26.909,22.549,27.93,22.549,29.189z M15.758,26.806c-1.259,0-2.28-1.021-2.28-2.28c0-1.259,1.021-2.279,2.28-2.279
	c1.259,0,2.28,1.021,2.28,2.279C18.038,25.785,17.017,26.806,15.758,26.806z M24.829,26.797c1.259,0,2.279,1.021,2.279,2.28
	c0,1.259-1.021,2.279-2.279,2.279c-1.259,0-2.28-1.021-2.28-2.279C22.549,27.817,23.57,26.797,24.829,26.797z M27.157,24.517
	c0,1.26-1.021,2.28-2.28,2.28c-1.259,0-2.28-1.021-2.28-2.28c0-1.259,1.021-2.279,2.28-2.279
	C26.136,22.237,27.157,23.258,27.157,24.517z M27.132,20.057c0-1.26,1.021-2.28,2.28-2.28c1.259,0,2.28,1.021,2.28,2.28
	c0,1.259-1.021,2.279-2.28,2.279C28.153,22.336,27.132,21.315,27.132,20.057z M24.901,31.356c1.259,0,2.28,1.021,2.28,2.279
	c0,1.26-1.021,2.28-2.28,2.28c-1.259,0-2.28-1.021-2.28-2.28C22.621,32.377,23.642,31.356,24.901,31.356z M27.108,29.181
	c0-1.26,1.021-2.28,2.28-2.28c1.259,0,2.28,1.021,2.28,2.28c0,1.259-1.021,2.279-2.28,2.279
	C28.129,31.46,27.108,30.439,27.108,29.181z M29.437,26.9c-1.259,0-2.28-1.021-2.28-2.28c0-1.259,1.021-2.279,2.28-2.279
	s2.28,1.021,2.28,2.279C31.716,25.88,30.696,26.9,29.437,26.9z M31.74,15.496c0,1.26-1.021,2.28-2.28,2.28s-2.28-1.021-2.28-2.28
	c0-1.259,1.021-2.279,2.28-2.279c-1.259,0-2.28-1.021-2.28-2.279c0-1.26,1.021-2.28,2.28-2.28c1.259,0,2.28,1.021,2.28,2.28
	c0,1.259-1.021,2.279-2.28,2.279C30.72,13.217,31.74,14.237,31.74,15.496z M24.901,13.113c1.259,0,2.28,1.021,2.28,2.279
	c0,1.26-1.021,2.28-2.28,2.28c-1.259,0-2.28-1.021-2.28-2.28C22.622,14.134,23.642,13.113,24.901,13.113
	c-1.259,0-2.28-1.021-2.28-2.279c0-1.26,1.021-2.28,2.28-2.28c1.259,0,2.279,1.021,2.279,2.28
	C27.181,12.093,26.16,13.113,24.901,13.113z M24.853,17.673c1.259,0,2.279,1.021,2.279,2.28c0,1.259-1.021,2.279-2.279,2.279
	c-1.259,0-2.28-1.021-2.28-2.279C22.573,18.693,23.594,17.673,24.853,17.673z M20.293,17.785c1.259,0,2.28,1.021,2.28,2.28
	c0,1.259-1.021,2.279-2.28,2.279c-1.259,0-2.28-1.021-2.28-2.279C18.013,18.806,19.034,17.785,20.293,17.785z M15.734,22.241
	c-1.259,0-2.28-1.021-2.28-2.279c0-1.26,1.021-2.28,2.28-2.28c1.259,0,2.279,1.021,2.279,2.28
	C18.013,21.221,16.993,22.241,15.734,22.241z M11.15,26.964c1.259,0,2.28,1.021,2.28,2.28c0,1.259-1.021,2.279-2.28,2.279
	c-1.259,0-2.28-1.021-2.28-2.279C8.87,27.984,9.891,26.964,11.15,26.964z M11.222,31.523c1.259,0,2.28,1.021,2.28,2.279
	c0,1.26-1.021,2.28-2.28,2.28s-2.28-1.021-2.28-2.28C8.942,32.544,9.962,31.523,11.222,31.523z M13.43,29.086
	c0-1.26,1.021-2.28,2.28-2.28c1.259,0,2.279,1.021,2.279,2.28c0,1.259-1.021,2.279-2.279,2.279
	C14.451,31.365,13.43,30.345,13.43,29.086z M15.782,31.365c1.259,0,2.28,1.021,2.28,2.279c0,1.26-1.021,2.28-2.28,2.28
	c-1.259,0-2.28-1.021-2.28-2.28C13.502,32.386,14.522,31.365,15.782,31.365z M24.853,35.916c1.259,0,2.279,1.021,2.279,2.28
	c0,1.259-1.021,2.279-2.279,2.279c-1.259,0-2.28-1.021-2.28-2.279C22.572,36.937,23.593,35.916,24.853,35.916z M29.412,36.02
	c1.259,0,2.28,1.021,2.28,2.28c0,1.259-1.021,2.279-2.28,2.279c-1.259,0-2.28-1.021-2.28-2.279
	C27.132,37.04,28.152,36.02,29.412,36.02z M29.46,36.02c-1.259,0-2.28-1.021-2.28-2.28c0-1.259,1.021-2.279,2.28-2.279
	s2.28,1.021,2.28,2.279C31.74,34.999,30.719,36.02,29.46,36.02z M31.668,29.022c0-1.26,1.021-2.28,2.28-2.28
	c1.259,0,2.279,1.021,2.279,2.28c0,1.259-1.021,2.279-2.279,2.279C32.689,31.302,31.668,30.281,31.668,29.022z M34.02,31.302
	c1.259,0,2.28,1.021,2.28,2.279c0,1.26-1.021,2.28-2.28,2.28c-1.259,0-2.28-1.021-2.28-2.28
	C31.74,32.322,32.761,31.302,34.02,31.302z M36.228,29.126c0-1.26,1.021-2.28,2.28-2.28c1.259,0,2.28,1.021,2.28,2.28
	c0,1.259-1.021,2.279-2.28,2.279C37.248,31.405,36.228,30.385,36.228,29.126z M38.556,26.846c-1.259,0-2.28-1.021-2.28-2.28
	c0-1.259,1.021-2.279,2.28-2.279s2.28,1.021,2.28,2.279C40.835,25.825,39.815,26.846,38.556,26.846z M38.531,22.281
	c-1.259,0-2.28-1.021-2.28-2.279c0-1.26,1.021-2.28,2.28-2.28c1.259,0,2.28,1.021,2.28,2.28
	C40.811,21.261,39.79,22.281,38.531,22.281z M34.021,8.499c1.259,0,2.279,1.021,2.279,2.28c0,1.259-1.021,2.279-2.279,2.279
	c1.259,0,2.28,1.021,2.28,2.279c0,1.26-1.021,2.28-2.28,2.28c-1.259,0-2.28-1.021-2.28-2.28c0-1.259,1.021-2.279,2.28-2.279
	c-1.259,0-2.28-1.021-2.28-2.279C31.74,9.52,32.761,8.499,34.021,8.499z M29.509,4.098c1.259,0,2.28,1.021,2.28,2.279
	c0,1.26-1.021,2.28-2.28,2.28s-2.28-1.021-2.28-2.28C27.229,5.118,28.25,4.098,29.509,4.098z M24.95,3.994
	c1.259,0,2.28,1.021,2.28,2.279c0,1.26-1.021,2.28-2.28,2.28c-1.259,0-2.28-1.021-2.28-2.28C22.67,5.015,23.69,3.994,24.95,3.994z
	 M20.39,4.106c1.259,0,2.28,1.021,2.28,2.279c0,1.26-1.021,2.28-2.28,2.28s-2.28-1.021-2.28-2.28
	C18.11,5.127,19.13,4.106,20.39,4.106z M15.831,4.003c1.259,0,2.28,1.021,2.28,2.279c0,1.26-1.021,2.28-2.28,2.28
	c-1.259,0-2.28-1.021-2.28-2.28C13.551,5.023,14.571,4.003,15.831,4.003z M15.782,8.563c1.259,0,2.279,1.021,2.279,2.28
	c0,1.259-1.021,2.279-2.279,2.279c1.259,0,2.28,1.021,2.28,2.279c0,1.26-1.021,2.28-2.28,2.28c-1.259,0-2.28-1.021-2.28-2.28
	c0-1.259,1.021-2.279,2.28-2.279c-1.259,0-2.28-1.021-2.28-2.279C13.502,9.583,14.523,8.563,15.782,8.563z M11.222,13.28
	c-1.259,0-2.28-1.021-2.28-2.279c0-1.26,1.021-2.28,2.28-2.28c1.259,0,2.28,1.021,2.28,2.28C13.502,12.26,12.481,13.28,11.222,13.28
	c1.259,0,2.28,1.021,2.28,2.279c0,1.26-1.021,2.28-2.28,2.28s-2.28-1.021-2.28-2.28C8.942,14.301,9.963,13.28,11.222,13.28z
	 M4.334,20.017c0-1.26,1.021-2.28,2.28-2.28c1.259,0,2.279,1.021,2.279,2.28c0,1.259-1.021,2.279-2.279,2.279
	C5.355,22.296,4.334,21.275,4.334,20.017z M4.311,29.141c0-1.26,1.021-2.28,2.28-2.28c1.259,0,2.279,1.021,2.279,2.28
	c0,1.259-1.021,2.279-2.279,2.279C5.332,31.42,4.311,30.399,4.311,29.141z M6.663,35.979c-1.259,0-2.28-1.021-2.28-2.28
	c0-1.259,1.021-2.279,2.28-2.279c1.259,0,2.28,1.021,2.28,2.279C8.942,34.959,7.921,35.979,6.663,35.979z M11.173,40.643
	c-1.259,0-2.28-1.021-2.28-2.279c0-1.26,1.021-2.28,2.28-2.28c1.259,0,2.28,1.021,2.28,2.28
	C13.453,39.622,12.432,40.643,11.173,40.643z M13.453,38.205c0-1.26,1.021-2.28,2.28-2.28c1.259,0,2.279,1.021,2.279,2.28
	c0,1.259-1.021,2.279-2.279,2.279C14.474,40.484,13.453,39.464,13.453,38.205z M15.758,45.049c-1.259,0-2.28-1.021-2.28-2.28
	c0-1.259,1.021-2.279,2.28-2.279c1.259,0,2.28,1.021,2.28,2.279C18.038,44.028,17.017,45.049,15.758,45.049z M20.317,45.152
	c-1.259,0-2.28-1.021-2.28-2.28c0-1.259,1.021-2.279,2.28-2.279s2.28,1.021,2.28,2.279C22.597,44.132,21.576,45.152,20.317,45.152z
	 M24.877,45.04c-1.259,0-2.28-1.021-2.28-2.28c0-1.259,1.021-2.279,2.28-2.279c1.259,0,2.28,1.021,2.28,2.279
	C27.157,44.02,26.136,45.04,24.877,45.04z M29.436,45.144c-1.259,0-2.28-1.021-2.28-2.28c0-1.259,1.021-2.279,2.28-2.279
	s2.28,1.021,2.28,2.279C31.716,44.123,30.695,45.144,29.436,45.144z M33.972,40.421c-1.259,0-2.28-1.021-2.28-2.279
	c0-1.26,1.021-2.28,2.28-2.28c1.259,0,2.279,1.021,2.279,2.28C36.251,39.4,35.23,40.421,33.972,40.421z M38.531,40.524
	c-1.259,0-2.28-1.021-2.28-2.279c0-1.26,1.021-2.28,2.28-2.28c1.259,0,2.28,1.021,2.28,2.28
	C40.811,39.504,39.79,40.524,38.531,40.524z M38.579,35.965c-1.259,0-2.28-1.021-2.28-2.28c0-1.259,1.021-2.279,2.28-2.279
	s2.28,1.021,2.28,2.279C40.859,34.944,39.838,35.965,38.579,35.965z M43.067,31.436c-1.259,0-2.28-1.021-2.28-2.279
	c0-1.26,1.021-2.28,2.28-2.28c1.259,0,2.279,1.021,2.279,2.28C45.347,30.415,44.326,31.436,43.067,31.436z M45.396,24.596
	c0,1.26-1.021,2.28-2.28,2.28c-1.259,0-2.28-1.021-2.28-2.28c0-1.259,1.021-2.279,2.28-2.279
	C44.375,22.316,45.396,23.337,45.396,24.596z M43.091,22.312c-1.259,0-2.28-1.021-2.28-2.279c0-1.26,1.021-2.28,2.28-2.28
	c1.259,0,2.279,1.021,2.279,2.28C45.371,21.291,44.35,22.312,43.091,22.312z"/>
<path style="fill:none;" d="M2.911,12.992c-0.252,0.096-0.522,0.154-0.808,0.154c0.235,0,0.458,0.046,0.671,0.112
	C2.82,13.17,2.863,13.08,2.911,12.992z"/>
<path style="fill:none;" d="M44.237,13.485c-0.086-0.152-0.172-0.306-0.262-0.456c-0.259,0.103-0.54,0.163-0.835,0.163
	C43.54,13.192,43.91,13.305,44.237,13.485z"/>
<path d="M3.14,31.65c0.313,0.945,0.682,1.866,1.111,2.752c0.079-0.231,0.131-0.475,0.131-0.733
	C4.382,32.785,3.875,32.028,3.14,31.65z"/>
<circle cx="6.663" cy="33.7" r="2.28"/>
<circle cx="11.222" cy="33.803" r="2.28"/>
<path d="M8.894,38.26c0-1.26-1.021-2.28-2.279-2.28c-0.475,0-0.916,0.146-1.281,0.395c0.797,1.296,1.723,2.503,2.757,3.609
	C8.578,39.565,8.894,38.952,8.894,38.26z"/>
<circle cx="11.173" cy="38.363" r="2.28"/>
<path d="M11.198,40.647c-0.665,0-1.258,0.289-1.674,0.743c1.12,1.004,2.341,1.896,3.645,2.663c0.191-0.333,0.309-0.715,0.309-1.127
	C13.478,41.668,12.457,40.647,11.198,40.647z"/>
<circle cx="15.782" cy="33.645" r="2.28"/>
<circle cx="20.341" cy="33.749" r="2.28"/>
<circle cx="15.733" cy="38.205" r="2.28"/>
<circle cx="20.292" cy="38.308" r="2.28"/>
<circle cx="15.758" cy="42.769" r="2.28"/>
<circle cx="20.317" cy="42.873" r="2.28"/>
<path d="M15.709,45.049c-0.177,0-0.347,0.024-0.513,0.063c0.778,0.357,1.579,0.672,2.401,0.94
	C17.188,45.446,16.495,45.049,15.709,45.049z"/>
<path d="M20.269,45.152c-0.833,0-1.555,0.451-1.952,1.119c1.351,0.391,2.753,0.66,4.195,0.792
	C22.334,45.98,21.401,45.152,20.269,45.152z"/>
<path d="M4.383,15.426c0-0.243-0.048-0.473-0.119-0.692c-0.423,0.869-0.787,1.771-1.097,2.698
	C3.887,17.048,4.383,16.299,4.383,15.426z"/>
<path d="M4.334,19.986c0-0.92-0.547-1.707-1.331-2.067c-0.431,1.395-0.731,2.846-0.885,4.34C3.347,22.225,4.334,21.223,4.334,19.986
	z"/>
<path d="M4.359,24.55c0-1.246-1-2.255-2.242-2.275C2.04,23.033,2,23.803,2,24.581c0,0.758,0.039,1.507,0.112,2.245
	C3.356,26.809,4.359,25.798,4.359,24.55z"/>
<path d="M4.311,29.11c0-1.231-0.978-2.228-2.197-2.272c0.149,1.493,0.445,2.943,0.871,4.337C3.766,30.813,4.311,30.027,4.311,29.11z
	"/>
<path d="M11.271,8.721c1.259,0,2.28-1.021,2.28-2.28c0-0.489-0.157-0.939-0.419-1.311c-1.312,0.774-2.54,1.676-3.664,2.69
	C9.883,8.364,10.532,8.721,11.271,8.721z"/>
<path d="M8.942,10.897c0-0.704-0.326-1.326-0.828-1.745c-1.036,1.105-1.963,2.312-2.762,3.605c0.371,0.262,0.822,0.419,1.311,0.419
	C7.922,13.177,8.942,12.156,8.942,10.897z"/>
<circle cx="11.222" cy="11.001" r="2.28"/>
<path d="M17.6,3.109c-0.751,0.245-1.483,0.529-2.198,0.848c0.132,0.023,0.266,0.041,0.404,0.041
	C16.539,3.998,17.183,3.646,17.6,3.109z"/>
<path d="M20.365,4.102c1.167,0,2.118-0.88,2.253-2.011c-1.465,0.127-2.889,0.395-4.261,0.788C18.739,3.603,19.49,4.102,20.365,4.102
	z"/>
<circle cx="15.831" cy="6.283" r="2.28"/>
<circle cx="20.39" cy="6.386" r="2.28"/>
<circle cx="15.782" cy="10.842" r="2.28"/>
<circle cx="20.341" cy="10.946" r="2.28"/>
<circle cx="6.663" cy="15.456" r="2.28"/>
<circle cx="11.222" cy="15.56" r="2.28"/>
<circle cx="6.615" cy="20.016" r="2.28"/>
<circle cx="11.174" cy="20.12" r="2.28"/>
<circle cx="6.639" cy="24.581" r="2.28"/>
<circle cx="11.198" cy="24.684" r="2.28"/>
<circle cx="6.591" cy="29.14" r="2.28"/>
<circle cx="11.15" cy="29.244" r="2.28"/>
<circle cx="15.782" cy="15.401" r="2.28"/>
<circle cx="20.341" cy="15.505" r="2.28"/>
<circle cx="15.734" cy="19.961" r="2.28"/>
<circle cx="20.293" cy="20.065" r="2.28"/>
<circle cx="15.758" cy="24.526" r="2.28"/>
<circle cx="20.317" cy="24.629" r="2.28"/>
<circle cx="15.71" cy="29.085" r="2.28"/>
<circle cx="20.269" cy="29.189" r="2.28"/>
<circle cx="24.901" cy="33.636" r="2.28"/>
<circle cx="29.46" cy="33.74" r="2.28"/>
<circle cx="24.853" cy="38.196" r="2.28"/>
<circle cx="29.412" cy="38.299" r="2.28"/>
<circle cx="24.877" cy="42.76" r="2.28"/>
<circle cx="29.436" cy="42.864" r="2.28"/>
<path d="M24.829,45.04c-1.173,0-2.128,0.889-2.255,2.028c0.662,0.059,1.331,0.094,2.007,0.094c0.844,0,1.676-0.051,2.497-0.141
	C26.93,45.904,25.985,45.04,24.829,45.04z"/>
<path d="M29.388,45.144c-1.118,0-2.044,0.806-2.238,1.868c1.419-0.161,2.801-0.45,4.128-0.863
	C30.868,45.542,30.174,45.144,29.388,45.144z"/>
<circle cx="34.02" cy="33.582" r="2.28"/>
<circle cx="38.579" cy="33.685" r="2.28"/>
<circle cx="33.972" cy="38.141" r="2.28"/>
<circle cx="38.531" cy="38.245" r="2.28"/>
<path d="M33.996,40.426c-1.259,0-2.28,1.021-2.28,2.279c0,1.26,1.021,2.28,2.28,2.28c0.109,0,0.214-0.018,0.32-0.032
	c0.462-0.222,0.913-0.463,1.357-0.715c0.371-0.405,0.603-0.94,0.603-1.533C36.276,41.446,35.255,40.426,33.996,40.426z"/>
<path d="M36.275,42.809c0,0.34,0.079,0.658,0.212,0.947c1.259-0.784,2.434-1.689,3.512-2.698c-0.395-0.325-0.893-0.528-1.444-0.528
	C37.296,40.529,36.275,41.55,36.275,42.809z"/>
<path d="M32.178,45.844c0.687-0.246,1.358-0.525,2.012-0.834c-0.081-0.009-0.16-0.024-0.243-0.024
	C33.229,44.985,32.596,45.324,32.178,45.844z"/>
<path d="M43.139,31.436c-1.259,0-2.28,1.021-2.28,2.279c0,1.26,1.021,2.28,2.28,2.28c0.392,0,0.755-0.108,1.077-0.282
	c0.431-0.758,0.825-1.539,1.168-2.348C45.214,32.273,44.278,31.436,43.139,31.436z"/>
<path d="M40.811,38.275c0,0.546,0.2,1.04,0.521,1.433c0.984-1.089,1.864-2.275,2.624-3.541c-0.267-0.109-0.558-0.172-0.864-0.172
	C41.832,35.995,40.811,37.016,40.811,38.275z"/>
<path d="M24.925,3.989c1.107,0,2.029-0.79,2.235-1.838C26.313,2.055,25.454,2,24.581,2c-0.64,0-1.271,0.033-1.898,0.086
	C22.863,3.165,23.795,3.989,24.925,3.989z"/>
<path d="M29.484,4.093c0.801,0,1.503-0.415,1.91-1.04c-1.335-0.424-2.725-0.723-4.154-0.891C27.409,3.254,28.345,4.093,29.484,4.093
	z"/>
<circle cx="24.95" cy="6.274" r="2.28"/>
<circle cx="29.509" cy="6.377" r="2.28"/>
<circle cx="24.901" cy="10.833" r="2.28"/>
<circle cx="29.46" cy="10.938" r="2.28"/>
<path d="M32.765,3.541c0.251,0.171,0.54,0.291,0.849,0.35C33.334,3.769,33.05,3.652,32.765,3.541z"/>
<path d="M31.789,6.219c0,1.26,1.021,2.28,2.28,2.28c1.259,0,2.28-1.021,2.28-2.28c0-0.387-0.105-0.746-0.276-1.065
	c-0.737-0.438-1.501-0.832-2.289-1.185C32.661,4.109,31.789,5.058,31.789,6.219z"/>
<path d="M38.628,8.603c0.525,0,1.002-0.185,1.388-0.482c-1.07-1.004-2.237-1.905-3.487-2.688c-0.116,0.273-0.181,0.574-0.181,0.89
	C36.348,7.582,37.369,8.603,38.628,8.603z"/>
<circle cx="34.021" cy="10.779" r="2.28"/>
<circle cx="38.58" cy="10.882" r="2.28"/>
<circle cx="24.901" cy="15.393" r="2.28"/>
<circle cx="29.46" cy="15.496" r="2.28"/>
<circle cx="24.853" cy="19.953" r="2.28"/>
<circle cx="29.412" cy="20.056" r="2.28"/>
<circle cx="24.877" cy="24.517" r="2.28"/>
<circle cx="29.437" cy="24.621" r="2.28"/>
<circle cx="24.829" cy="29.077" r="2.28"/>
<circle cx="29.388" cy="29.18" r="2.28"/>
<circle cx="34.021" cy="15.338" r="2.28"/>
<circle cx="38.58" cy="15.441" r="2.28"/>
<circle cx="33.972" cy="19.898" r="2.28"/>
<circle cx="38.531" cy="20.001" r="2.28"/>
<circle cx="33.997" cy="24.462" r="2.28"/>
<circle cx="38.556" cy="24.566" r="2.28"/>
<circle cx="33.948" cy="29.022" r="2.28"/>
<circle cx="38.507" cy="29.125" r="2.28"/>
<path d="M43.14,13.192c0.295,0,0.576-0.061,0.835-0.163c-0.755-1.263-1.629-2.446-2.608-3.534c-0.313,0.391-0.507,0.879-0.507,1.418
	C40.859,12.172,41.88,13.192,43.14,13.192z"/>
<path d="M40.86,15.472c0,1.26,1.021,2.28,2.28,2.28c1.146,0,2.085-0.848,2.247-1.95c-0.338-0.798-0.726-1.568-1.149-2.316
	c-0.327-0.181-0.697-0.293-1.097-0.293C41.88,13.192,40.86,14.213,40.86,15.472z"/>
<path d="M45.778,16.796c-0.1-0.271-0.208-0.538-0.317-0.805C45.515,16.283,45.625,16.555,45.778,16.796z"/>
<circle cx="43.091" cy="20.032" r="2.28"/>
<path d="M45.371,20.136c0,1.05,0.713,1.924,1.679,2.189c-0.137-1.373-0.402-2.708-0.775-3.997
	C45.729,18.744,45.371,19.396,45.371,20.136z"/>
<circle cx="43.116" cy="24.596" r="2.28"/>
<path d="M45.395,24.699c0,1.04,0.7,1.907,1.651,2.182c0.077-0.757,0.116-1.523,0.116-2.3c0-0.697-0.037-1.386-0.099-2.067
	C46.104,22.781,45.395,23.653,45.395,24.699z"/>
<circle cx="43.067" cy="29.156" r="2.28"/>
<path d="M45.347,29.26c0,0.724,0.344,1.361,0.87,1.779c0.383-1.279,0.655-2.605,0.806-3.969
	C46.059,27.337,45.347,28.211,45.347,29.26z"/>
<path d="M47.05,22.325c0.006,0.062,0.008,0.126,0.014,0.188c0.196-0.055,0.398-0.094,0.611-0.094c0.543,0,1.035,0.197,1.427,0.515
	c-0.022-0.331-0.047-0.66-0.082-0.987c-0.382,0.289-0.853,0.468-1.369,0.468C47.441,22.415,47.242,22.378,47.05,22.325z"/>
<path d="M27.149,47.012c-0.024,0.003-0.048,0.007-0.072,0.01c0.013,0.099,0.03,0.196,0.03,0.299c0,0.725-0.344,1.362-0.872,1.779
	c0.496-0.032,0.986-0.081,1.474-0.144c-0.371-0.405-0.602-0.94-0.602-1.532C27.108,47.283,27.125,47.146,27.149,47.012z"/>
<path d="M47.046,26.881c-0.007,0.063-0.017,0.126-0.024,0.189c0.193-0.053,0.394-0.091,0.604-0.091c0.514,0,0.983,0.177,1.364,0.463
	c0.037-0.318,0.066-0.64,0.091-0.962c-0.389,0.308-0.873,0.499-1.407,0.499C47.455,26.979,47.247,26.938,47.046,26.881z"/>
<path d="M47.699,17.855c-0.809,0-1.516-0.424-1.92-1.06c0.185,0.502,0.347,1.015,0.497,1.532c0.383-0.293,0.856-0.473,1.375-0.473
	c0.207,0,0.403,0.036,0.594,0.088c-0.014-0.049-0.028-0.099-0.042-0.148C48.04,17.832,47.873,17.855,47.699,17.855z"/>
<path d="M46.217,31.039c-0.237,0.794-0.513,1.571-0.833,2.326c0.018,0.115,0.035,0.23,0.035,0.35c0,0.868-0.49,1.613-1.203,1.998
	c-0.086,0.152-0.171,0.305-0.261,0.454c0.678,0.278,1.189,0.873,1.354,1.602c0.419-0.657,0.808-1.335,1.165-2.032
	c-0.633-0.404-1.056-1.11-1.056-1.918c0-1.259,1.021-2.279,2.28-2.279c0.151,0,0.299,0.017,0.442,0.045
	c0.012-0.039,0.022-0.079,0.034-0.119c-0.176,0.044-0.358,0.074-0.548,0.074C47.091,31.539,46.606,31.348,46.217,31.039z"/>
<path d="M22.548,47.32c0-0.086,0.016-0.168,0.025-0.252c-0.021-0.002-0.042-0.003-0.063-0.005c0.02,0.121,0.037,0.243,0.037,0.369
	c0,0.615-0.247,1.171-0.643,1.581c0.514,0.057,1.032,0.097,1.555,0.12C22.91,48.718,22.548,48.063,22.548,47.32z"/>
<path d="M3.004,17.919c0.051-0.164,0.108-0.325,0.163-0.487c-0.319,0.169-0.677,0.274-1.064,0.274c-0.378,0-0.729-0.101-1.042-0.264
	c-0.06,0.196-0.114,0.395-0.168,0.592c0.341-0.204,0.736-0.328,1.163-0.328C2.395,17.706,2.714,17.785,3.004,17.919z"/>
<path d="M2.079,22.271c0.013,0,0.025,0.004,0.038,0.004c0-0.005,0.001-0.011,0.002-0.016c-0.022,0.001-0.042,0.007-0.064,0.007
	c-0.754,0-1.418-0.371-1.833-0.936c-0.098,0.739-0.166,1.488-0.196,2.246C0.392,22.807,1.17,22.271,2.079,22.271z"/>
<path d="M8.115,9.152C8.547,8.691,8.997,8.245,9.467,7.82C9.172,7.437,8.991,6.962,8.991,6.44c0-0.388,0.106-0.747,0.276-1.066
	C9.139,5.477,9.01,5.576,8.884,5.682c0.063,0.209,0.107,0.426,0.107,0.655c0,1.26-1.021,2.28-2.28,2.28
	c-0.244,0-0.475-0.049-0.696-0.119c-0.092,0.105-0.185,0.21-0.275,0.317c0.282-0.126,0.593-0.198,0.922-0.198
	C7.218,8.617,7.719,8.823,8.115,9.152z"/>
<path d="M2.911,12.992c-0.047,0.088-0.09,0.178-0.137,0.267c0.709,0.22,1.264,0.77,1.49,1.475c0.33-0.679,0.694-1.337,1.088-1.976
	c-0.585-0.412-0.97-1.09-0.97-1.86c0-0.12,0.018-0.236,0.036-0.352c-0.02,0.028-0.04,0.056-0.06,0.083
	c0.008,0.08,0.024,0.156,0.024,0.238C4.383,11.841,3.77,12.665,2.911,12.992z"/>
<path d="M2.031,26.83c0.028,0,0.054,0.008,0.083,0.008c0-0.004,0-0.008-0.001-0.012C2.101,26.827,2.09,26.83,2.079,26.83
	c-0.911,0-1.69-0.537-2.055-1.309c0.028,0.752,0.092,1.494,0.187,2.228C0.627,27.194,1.284,26.83,2.031,26.83z"/>
<path d="M32.178,45.844c-0.298,0.106-0.597,0.21-0.9,0.305c0.246,0.364,0.39,0.803,0.39,1.275c0,0.257-0.052,0.499-0.13,0.729
	c0.095-0.028,0.19-0.052,0.285-0.081c-0.096-0.251-0.154-0.521-0.154-0.807C31.667,46.725,31.863,46.234,32.178,45.844z"/>
<path d="M3.14,31.65c-0.053-0.158-0.106-0.316-0.155-0.476c-0.291,0.134-0.612,0.215-0.954,0.215c-0.424,0-0.816-0.124-1.157-0.325
	c0.055,0.2,0.11,0.399,0.17,0.598c0.318-0.168,0.674-0.272,1.059-0.272C2.478,31.39,2.827,31.489,3.14,31.65z"/>
<path d="M9.523,41.391c-0.499-0.447-0.976-0.918-1.434-1.407c-0.398,0.342-0.91,0.556-1.476,0.556c-0.302,0-0.589-0.062-0.853-0.168
	C5.839,40.464,5.92,40.555,6,40.646c0.204-0.061,0.415-0.103,0.639-0.103c1.259,0,2.28,1.021,2.28,2.279
	c0,0.212-0.038,0.413-0.092,0.607c0.068,0.058,0.136,0.115,0.205,0.172c-0.067-0.215-0.113-0.438-0.113-0.676
	C8.918,42.332,9.151,41.796,9.523,41.391z"/>
<path d="M15.197,45.111c-0.696-0.319-1.373-0.672-2.028-1.058c-0.388,0.677-1.105,1.139-1.939,1.15
	c0.007,0.004,0.014,0.009,0.021,0.013c0.78,0.035,1.453,0.458,1.837,1.084c0.161,0.085,0.324,0.168,0.487,0.25
	C13.836,45.833,14.442,45.285,15.197,45.111z"/>
<path d="M13.131,5.13c0.732-0.433,1.49-0.823,2.271-1.173c-0.785-0.141-1.428-0.68-1.714-1.404c-0.11,0.056-0.219,0.113-0.329,0.169
	c-0.336,0.84-1.154,1.435-2.114,1.435c-0.096,0-0.188-0.017-0.281-0.028c-0.039,0.026-0.08,0.05-0.118,0.076
	c0.137-0.026,0.278-0.043,0.423-0.043C12.041,4.161,12.718,4.545,13.131,5.13z"/>
<path d="M5.333,36.374c-0.392-0.638-0.754-1.294-1.082-1.972c-0.238,0.696-0.798,1.234-1.506,1.443
	c0.045,0.088,0.088,0.177,0.135,0.264c0.85,0.331,1.455,1.152,1.455,2.12c0,0.081-0.016,0.157-0.023,0.235
	c0.017,0.024,0.035,0.048,0.051,0.072c-0.011-0.092-0.028-0.183-0.028-0.277C4.334,37.476,4.73,36.784,5.333,36.374z"/>
<path d="M31.394,3.053c0.464,0.146,0.92,0.313,1.371,0.488c-0.604-0.41-1-1.102-1-1.886c0-0.194,0.032-0.38,0.078-0.56
	c-0.074-0.023-0.15-0.042-0.224-0.064c0.09,0.245,0.146,0.506,0.146,0.782C31.764,2.271,31.626,2.695,31.394,3.053z"/>
<path d="M43.975,13.029c0.09,0.15,0.176,0.304,0.262,0.456c0.702,0.389,1.183,1.128,1.183,1.986c0,0.113-0.018,0.222-0.033,0.33
	c0.026,0.063,0.049,0.127,0.075,0.189c-0.025-0.135-0.042-0.273-0.042-0.416c0-0.845,0.465-1.574,1.148-1.968
	c-0.191-0.381-0.392-0.757-0.602-1.126c-0.173-0.205-0.311-0.438-0.403-0.694c-0.069-0.113-0.144-0.223-0.214-0.334
	C45.171,12.176,44.655,12.761,43.975,13.029z"/>
<path d="M22.645,1.822c0,0.092-0.017,0.18-0.027,0.269c0.021-0.002,0.043-0.003,0.065-0.005c-0.021-0.123-0.038-0.247-0.038-0.376
	c0-0.668,0.292-1.263,0.75-1.68c-0.501,0.023-0.998,0.064-1.491,0.118C22.356,0.565,22.645,1.158,22.645,1.822z"/>
<path d="M34.044,3.935c-0.147,0-0.291-0.017-0.431-0.044c0.057,0.025,0.113,0.052,0.17,0.078c0.094-0.013,0.187-0.029,0.285-0.029
	c0.872,0,1.621,0.495,2.004,1.214c0.153,0.091,0.305,0.185,0.456,0.279c0.286-0.674,0.887-1.18,1.618-1.337
	c-0.103-0.068-0.208-0.133-0.312-0.199c-0.31-0.112-0.591-0.282-0.822-0.508c-0.335-0.197-0.675-0.387-1.02-0.568
	C35.596,3.484,34.875,3.935,34.044,3.935z"/>
<path d="M27.205,1.71c0,0.151-0.017,0.299-0.044,0.441c0.026,0.003,0.053,0.007,0.08,0.011c-0.018-0.115-0.035-0.229-0.035-0.349
	c0-0.619,0.249-1.179,0.648-1.589c-0.441-0.06-0.885-0.105-1.333-0.141C26.942,0.497,27.205,1.072,27.205,1.71z"/>
<path d="M40.016,8.12c0.469,0.44,0.921,0.897,1.351,1.375c0.418-0.521,1.052-0.862,1.773-0.862c0.046,0,0.09,0.011,0.136,0.014
	c-0.006-0.007-0.012-0.014-0.018-0.021c-0.024,0.001-0.046,0.007-0.07,0.007c-1.259,0-2.28-1.021-2.28-2.28
	c0-0.04,0.01-0.076,0.012-0.115c-0.008-0.007-0.015-0.014-0.023-0.021c0.002,0.036,0.011,0.069,0.011,0.105
	C40.908,7.057,40.555,7.703,40.016,8.12z"/>
<path d="M41.331,39.708c-0.424,0.47-0.871,0.918-1.332,1.35c0.506,0.419,0.836,1.043,0.836,1.751c0,0.071-0.015,0.139-0.021,0.208
	c0.012-0.011,0.024-0.021,0.036-0.031c-0.003-0.05-0.015-0.097-0.015-0.146c0-1.259,1.021-2.279,2.28-2.279
	c0.039,0,0.074,0.01,0.112,0.012c0.01-0.012,0.019-0.022,0.028-0.033c-0.055,0.004-0.108,0.017-0.165,0.017
	C42.378,40.555,41.749,40.221,41.331,39.708z"/>
<path d="M36.487,43.756c-0.268,0.167-0.539,0.327-0.814,0.482c-0.348,0.381-0.822,0.639-1.357,0.715
	c-0.042,0.02-0.084,0.037-0.125,0.057c0.817,0.088,1.505,0.599,1.831,1.318c0.25-0.132,0.496-0.27,0.74-0.409
	c0.322-0.387,0.761-0.671,1.271-0.779c0.046-0.03,0.094-0.059,0.14-0.089C37.42,44.922,36.796,44.43,36.487,43.756z"/>
<path d="M18.316,46.271c-0.241-0.07-0.481-0.143-0.719-0.22c0.247,0.364,0.391,0.804,0.391,1.277c0,0.312-0.063,0.607-0.176,0.878
	c0.117,0.033,0.233,0.068,0.352,0.1c-0.112-0.27-0.175-0.564-0.175-0.874C17.989,47.006,18.113,46.612,18.316,46.271z"/>
<path d="M17.6,3.109c0.25-0.081,0.503-0.157,0.757-0.23c-0.167-0.316-0.271-0.673-0.271-1.057c0-0.367,0.095-0.708,0.249-1.016
	c-0.135,0.035-0.267,0.076-0.4,0.114c0.093,0.249,0.151,0.516,0.151,0.798C18.085,2.245,17.9,2.724,17.6,3.109z"/>
<path d="M4.251,34.402c-0.43-0.886-0.799-1.807-1.111-2.752c-0.313-0.161-0.662-0.261-1.037-0.261c-0.384,0-0.741,0.104-1.059,0.272
	c0.439,1.456,1.012,2.854,1.701,4.184C3.453,35.637,4.013,35.099,4.251,34.402z"/>
<path d="M2.879,36.109c0.434,0.813,0.912,1.6,1.431,2.355c0.008-0.078,0.023-0.154,0.023-0.235
	C4.334,37.262,3.729,36.44,2.879,36.109z"/>
<path d="M8.09,39.983c-1.034-1.106-1.959-2.313-2.757-3.609c-0.603,0.41-0.999,1.102-0.999,1.886c0,0.095,0.017,0.186,0.028,0.277
	c0.438,0.633,0.905,1.245,1.399,1.834c0.264,0.106,0.551,0.168,0.853,0.168C7.18,40.539,7.691,40.325,8.09,39.983z"/>
<path d="M6.639,40.544c-0.224,0-0.435,0.042-0.639,0.103c0.867,1.001,1.81,1.934,2.826,2.784c0.054-0.194,0.092-0.396,0.092-0.607
	C8.918,41.564,7.897,40.544,6.639,40.544z"/>
<path d="M13.168,44.054c-1.304-0.767-2.525-1.659-3.645-2.663c-0.373,0.405-0.605,0.941-0.605,1.536
	c0,0.237,0.046,0.461,0.113,0.676c0.701,0.574,1.437,1.106,2.198,1.602C12.063,45.192,12.781,44.73,13.168,44.054z"/>
<path d="M11.25,45.217c0.596,0.387,1.208,0.749,1.837,1.084C12.704,45.675,12.03,45.252,11.25,45.217z"/>
<path d="M17.598,46.052c-0.822-0.269-1.623-0.583-2.401-0.94c-0.755,0.174-1.36,0.722-1.622,1.439
	c1.347,0.677,2.764,1.233,4.238,1.656c0.113-0.271,0.176-0.566,0.176-0.878C17.989,46.855,17.844,46.416,17.598,46.052z"/>
<path d="M22.511,47.063c-1.442-0.132-2.844-0.401-4.195-0.792c-0.203,0.341-0.328,0.734-0.328,1.161c0,0.31,0.063,0.604,0.175,0.874
	c1.213,0.329,2.462,0.568,3.742,0.707c0.396-0.41,0.643-0.966,0.643-1.581C22.548,47.307,22.531,47.185,22.511,47.063z"/>
<path d="M4.383,10.867c0-0.082-0.016-0.158-0.024-0.238c-0.525,0.759-1.01,1.547-1.448,2.363C3.77,12.665,4.383,11.841,4.383,10.867
	z"/>
<path d="M3.167,17.432c0.31-0.927,0.674-1.829,1.097-2.698c-0.226-0.705-0.781-1.255-1.49-1.475
	c-0.693,1.329-1.271,2.728-1.713,4.184c0.313,0.163,0.665,0.264,1.042,0.264C2.49,17.706,2.848,17.601,3.167,17.432z"/>
<path d="M2.055,22.266c0.022,0,0.042-0.006,0.064-0.007c0.153-1.494,0.454-2.945,0.885-4.34c-0.29-0.134-0.609-0.213-0.949-0.213
	c-0.427,0-0.821,0.124-1.163,0.328c-0.296,1.071-0.521,2.172-0.67,3.296C0.637,21.895,1.3,22.266,2.055,22.266z"/>
<path d="M2.079,26.83c0.011,0,0.022-0.003,0.033-0.004C2.039,26.088,2,25.339,2,24.581c0-0.778,0.04-1.548,0.117-2.307
	c-0.013,0-0.025-0.004-0.038-0.004c-0.909,0-1.688,0.536-2.054,1.306C0.012,23.91,0,24.244,0,24.581c0,0.315,0.012,0.628,0.024,0.94
	C0.389,26.293,1.168,26.83,2.079,26.83z"/>
<path d="M2.984,31.175c-0.426-1.394-0.722-2.844-0.871-4.337c-0.028,0-0.054-0.008-0.083-0.008c-0.747,0-1.404,0.364-1.82,0.919
	c0.146,1.131,0.368,2.237,0.663,3.315c0.34,0.201,0.732,0.325,1.157,0.325C2.373,31.39,2.693,31.309,2.984,31.175z"/>
<path d="M13.36,2.722c-0.826,0.426-1.626,0.894-2.395,1.406c0.093,0.012,0.185,0.028,0.281,0.028
	C12.206,4.156,13.023,3.562,13.36,2.722z"/>
<path d="M8.991,6.337c0-0.229-0.044-0.446-0.107-0.655C7.852,6.539,6.895,7.484,6.016,8.498c0.221,0.07,0.452,0.119,0.696,0.119
	C7.97,8.617,8.991,7.597,8.991,6.337z"/>
<path d="M9.467,7.82c1.125-1.015,2.353-1.916,3.664-2.69c-0.413-0.585-1.09-0.969-1.86-0.969c-0.145,0-0.286,0.017-0.423,0.043
	c-0.544,0.367-1.068,0.761-1.58,1.17C9.097,5.693,8.991,6.053,8.991,6.44C8.991,6.962,9.172,7.437,9.467,7.82z"/>
<path d="M5.353,12.758c0.799-1.294,1.727-2.5,2.762-3.605C7.719,8.823,7.218,8.617,6.663,8.617c-0.329,0-0.64,0.072-0.922,0.198
	c-0.466,0.556-0.906,1.134-1.322,1.73c-0.018,0.115-0.036,0.231-0.036,0.352C4.383,11.668,4.768,12.346,5.353,12.758z"/>
<path d="M15.402,3.957c0.714-0.318,1.447-0.603,2.198-0.848c0.3-0.386,0.485-0.864,0.485-1.391c0-0.282-0.058-0.549-0.151-0.798
	c-1.476,0.415-2.896,0.962-4.246,1.632C13.975,3.277,14.617,3.816,15.402,3.957z"/>
<path d="M18.357,2.879c1.372-0.394,2.796-0.661,4.261-0.788c0.01-0.089,0.027-0.177,0.027-0.269c0-0.664-0.289-1.257-0.742-1.674
	c-1.219,0.133-2.411,0.354-3.569,0.658c-0.154,0.308-0.249,0.648-0.249,1.016C18.085,2.206,18.189,2.563,18.357,2.879z"/>
<path d="M27.108,47.32c0-0.103-0.017-0.2-0.03-0.299c-0.82,0.09-1.652,0.141-2.497,0.141c-0.677,0-1.345-0.035-2.007-0.094
	c-0.009,0.084-0.025,0.166-0.025,0.252c0,0.743,0.361,1.397,0.913,1.813c0.372,0.017,0.745,0.028,1.12,0.028
	c0.557,0,1.107-0.025,1.655-0.063C26.764,48.683,27.108,48.045,27.108,47.32z"/>
<path d="M31.278,46.148c-1.328,0.413-2.709,0.702-4.128,0.863c-0.024,0.134-0.042,0.271-0.042,0.412
	c0,0.592,0.231,1.127,0.602,1.532c1.311-0.167,2.589-0.437,3.827-0.803c0.079-0.23,0.13-0.473,0.13-0.729
	C31.667,46.951,31.524,46.513,31.278,46.148z"/>
<path d="M35.673,44.238c-0.444,0.252-0.895,0.493-1.357,0.715C34.852,44.877,35.325,44.619,35.673,44.238z"/>
<path d="M39.999,41.058c-1.078,1.009-2.253,1.914-3.512,2.698c0.309,0.674,0.933,1.166,1.685,1.295
	c0.928-0.618,1.809-1.299,2.642-2.034c0.006-0.069,0.021-0.137,0.021-0.208C40.835,42.101,40.505,41.477,39.999,41.058z"/>
<path d="M34.19,45.01c-0.654,0.309-1.326,0.588-2.012,0.834c-0.315,0.391-0.511,0.881-0.511,1.422c0,0.285,0.059,0.556,0.154,0.807
	c1.463-0.451,2.866-1.04,4.199-1.744C35.695,45.608,35.008,45.098,34.19,45.01z"/>
<path d="M36.761,45.919c0.432-0.247,0.856-0.507,1.271-0.779C37.522,45.248,37.083,45.532,36.761,45.919z"/>
<path d="M45.419,33.715c0-0.119-0.018-0.234-0.035-0.35c-0.343,0.809-0.737,1.59-1.168,2.348
	C44.929,35.328,45.419,34.583,45.419,33.715z"/>
<path d="M45.418,33.818c0,0.808,0.422,1.514,1.056,1.918c0.676-1.32,1.236-2.708,1.667-4.152c-0.143-0.028-0.291-0.045-0.442-0.045
	C46.439,31.539,45.418,32.56,45.418,33.818z"/>
<path d="M43.955,36.167c-0.76,1.266-1.639,2.452-2.624,3.541c0.418,0.513,1.047,0.847,1.76,0.847c0.057,0,0.11-0.013,0.165-0.017
	c0.747-0.873,1.433-1.798,2.053-2.77C45.144,37.04,44.632,36.445,43.955,36.167z"/>
<path d="M40.835,42.839c0,0.05,0.012,0.097,0.015,0.146c0.847-0.749,1.641-1.557,2.377-2.414c-0.038-0.002-0.074-0.012-0.112-0.012
	C41.856,40.56,40.835,41.58,40.835,42.839z"/>
<path d="M22.645,1.71c0,0.129,0.018,0.253,0.038,0.376C23.31,2.033,23.941,2,24.581,2c0.873,0,1.732,0.055,2.579,0.151
	c0.028-0.143,0.044-0.29,0.044-0.441c0-0.638-0.263-1.213-0.684-1.626C25.88,0.033,25.234,0,24.581,0
	c-0.398,0-0.793,0.012-1.187,0.03C22.937,0.447,22.645,1.042,22.645,1.71z"/>
<path d="M27.24,2.162c1.429,0.168,2.819,0.467,4.154,0.891c0.232-0.357,0.37-0.781,0.37-1.239c0-0.276-0.057-0.537-0.146-0.782
	c-1.218-0.364-2.476-0.635-3.765-0.807c-0.4,0.41-0.648,0.97-0.648,1.589C27.205,1.933,27.222,2.047,27.24,2.162z"/>
<path d="M32.765,3.541c0.286,0.111,0.569,0.228,0.849,0.35c0.14,0.027,0.283,0.044,0.431,0.044c0.831,0,1.551-0.45,1.949-1.114
	c-1.319-0.694-2.706-1.277-4.152-1.725c-0.046,0.18-0.078,0.365-0.078,0.56C31.764,2.439,32.161,3.131,32.765,3.541z"/>
<path d="M37.013,3.389c0.231,0.226,0.512,0.396,0.822,0.508C37.564,3.722,37.291,3.552,37.013,3.389z"/>
<path d="M34.069,3.939c-0.098,0-0.19,0.017-0.285,0.029c0.787,0.353,1.552,0.747,2.289,1.185C35.689,4.435,34.94,3.939,34.069,3.939
	z"/>
<path d="M36.529,5.433c1.25,0.782,2.417,1.684,3.487,2.688c0.539-0.417,0.892-1.063,0.892-1.798c0-0.036-0.009-0.069-0.011-0.105
	c-0.865-0.769-1.783-1.479-2.75-2.121C37.416,4.253,36.815,4.759,36.529,5.433z"/>
<path d="M43.188,8.633c0.024,0,0.046-0.006,0.07-0.007c-0.726-0.848-1.505-1.646-2.338-2.389c-0.002,0.039-0.012,0.075-0.012,0.115
	C40.908,7.612,41.929,8.633,43.188,8.633z"/>
<path d="M41.367,9.495c0.979,1.088,1.853,2.271,2.608,3.534c0.681-0.269,1.196-0.854,1.373-1.576
	c-0.625-0.985-1.317-1.923-2.072-2.807c-0.046-0.003-0.089-0.014-0.136-0.014C42.419,8.633,41.785,8.974,41.367,9.495z"/>
<path d="M45.562,11.787c0.093,0.257,0.23,0.489,0.403,0.694C45.833,12.248,45.701,12.016,45.562,11.787z"/>
<path d="M45.419,15.472c0-0.858-0.481-1.598-1.183-1.986c0.424,0.748,0.812,1.519,1.149,2.316
	C45.402,15.693,45.419,15.585,45.419,15.472z"/>
<path d="M45.419,15.575c0,0.143,0.017,0.281,0.042,0.416c0.11,0.267,0.218,0.533,0.317,0.805c0.405,0.636,1.111,1.06,1.92,1.06
	c0.174,0,0.341-0.023,0.503-0.061c-0.418-1.455-0.967-2.855-1.635-4.188C45.884,14.001,45.419,14.73,45.419,15.575z"/>
<path d="M46.275,18.328c0.373,1.289,0.638,2.624,0.775,3.997c0.192,0.053,0.391,0.09,0.601,0.09c0.516,0,0.987-0.179,1.369-0.468
	c-0.146-1.371-0.411-2.708-0.775-4.004c-0.191-0.052-0.387-0.088-0.594-0.088C47.131,17.855,46.658,18.035,46.275,18.328z"/>
<path d="M47.064,22.514c0.062,0.682,0.099,1.37,0.099,2.067c0,0.776-0.04,1.543-0.116,2.3c0.201,0.058,0.409,0.099,0.628,0.099
	c0.534,0,1.019-0.191,1.407-0.499c0.048-0.627,0.081-1.26,0.081-1.899c0-0.554-0.025-1.102-0.061-1.646
	c-0.392-0.317-0.884-0.515-1.427-0.515C47.462,22.42,47.26,22.459,47.064,22.514z"/>
<path d="M47.022,27.07c-0.15,1.363-0.423,2.689-0.806,3.969c0.389,0.309,0.875,0.5,1.41,0.5c0.19,0,0.372-0.03,0.548-0.074
	c0.38-1.3,0.656-2.644,0.816-4.022c-0.381-0.286-0.851-0.463-1.364-0.463C47.416,26.979,47.216,27.018,47.022,27.07z"/>
<g>
</g>
<g>
</g>
<g>
</g>
<g>
</g>
<g>
</g>
<g>
</g>
<g>
</g>
<g>
</g>
<g>
</g>
<g>
</g>
<g>
</g>
<g>
</g>
<g>
</g>
<g>
</g>
<g>
</g>
</svg>
