<?xml version="1.0" encoding="iso-8859-1"?>
<!-- Generator: Adobe Illustrator 16.0.0, SVG Export Plug-In . SVG Version: 6.00 Build 0)  -->
<!DOCTYPE svg PUBLIC "-//W3C//DTD SVG 1.1//EN" "http://www.w3.org/Graphics/SVG/1.1/DTD/svg11.dtd">
<svg version="1.1" id="Layer_1" xmlns="http://www.w3.org/2000/svg" xmlns:xlink="http://www.w3.org/1999/xlink" x="0px" y="0px"
	 width="49.312px" height="47.213px" viewBox="0 0 49.312 47.213" style="enable-background:new 0 0 49.312 47.213;"
	 xml:space="preserve">
<path d="M123.329,455.675c0.196-0.055,0.397-0.094,0.61-0.094c0.133,0,0.263,0.013,0.389,0.035c-0.003-0.026-0.004-0.054-0.007-0.08
	c-0.132,0.025-0.267,0.04-0.405,0.04c-0.21,0-0.408-0.037-0.602-0.09c-0.965-0.266-1.679-1.14-1.679-2.189
	c0-0.74,0.358-1.392,0.904-1.808c0.269-0.205,0.582-0.35,0.924-0.421c-0.013-0.04-0.022-0.081-0.035-0.121
	c-0.579-0.142-1.073-0.5-1.386-0.99c-0.152-0.241-0.264-0.513-0.316-0.805c-0.025-0.135-0.043-0.273-0.043-0.416
	c0-0.47,0.154-0.896,0.399-1.256c-0.31-0.64-0.648-1.262-1.013-1.867c-0.229,0.249-0.51,0.45-0.83,0.577
	c0.09,0.15,0.176,0.304,0.262,0.456c0.701,0.389,1.183,1.128,1.183,1.986c0,0.113-0.018,0.222-0.033,0.33
	c-0.161,1.103-1.101,1.95-2.247,1.95c-1.259,0-2.279-1.021-2.279-2.28c0-1.259,1.021-2.279,2.279-2.279
	c-1.259,0-2.279-1.021-2.279-2.279c0-0.539,0.194-1.027,0.507-1.418c0.212-0.265,0.481-0.481,0.788-0.632
	c-0.474-0.53-0.973-1.037-1.492-1.521c-0.155,0.305-0.378,0.57-0.646,0.778c-0.386,0.298-0.863,0.482-1.389,0.482
	c-1.259,0-2.279-1.021-2.279-2.28c0-0.315,0.064-0.616,0.181-0.89c0.135-0.316,0.343-0.591,0.598-0.815
	c-0.603-0.379-1.224-0.73-1.86-1.056c-0.354,0.23-0.768,0.373-1.222,0.373c-0.147,0-0.291-0.017-0.431-0.044
	c-0.31-0.059-0.598-0.179-0.85-0.35c-0.475-0.323-0.813-0.823-0.939-1.402c-0.034-0.012-0.068-0.024-0.104-0.035
	c-0.046,0.344-0.146,0.671-0.327,0.949c-0.407,0.625-1.108,1.04-1.909,1.04c-1.141,0-2.076-0.839-2.245-1.931
	c-0.018-0.115-0.035-0.229-0.035-0.349c0-0.228,0.044-0.443,0.106-0.651c-0.063-0.007-0.125-0.017-0.188-0.023
	c0.048,0.184,0.081,0.373,0.081,0.571c0,0.151-0.017,0.299-0.044,0.441c-0.207,1.048-1.128,1.838-2.235,1.838
	c-1.13,0-2.062-0.824-2.242-1.903c-0.021-0.123-0.038-0.247-0.038-0.376c0-0.222,0.042-0.431,0.102-0.632
	c-0.078,0.006-0.156,0.011-0.235,0.018c0.079,0.229,0.134,0.47,0.134,0.727c0,0.092-0.017,0.18-0.027,0.269
	c-0.135,1.131-1.086,2.011-2.252,2.011c-0.876,0-1.627-0.499-2.009-1.223c-0.153-0.291-0.245-0.619-0.26-0.969
	c-0.01,0.003-0.02,0.006-0.029,0.008c-0.041,0.447-0.207,0.855-0.468,1.191c-0.417,0.537-1.062,0.889-1.794,0.889
	c-0.138,0-0.272-0.018-0.403-0.041c-0.44-0.079-0.826-0.292-1.139-0.584c-0.661,0.322-1.306,0.673-1.93,1.053
	c0.317,0.169,0.59,0.411,0.797,0.704c0.262,0.371,0.419,0.821,0.419,1.311c0,1.26-1.021,2.28-2.28,2.28
	c-0.738,0-1.387-0.356-1.803-0.9c-0.214-0.278-0.365-0.604-0.434-0.961c-0.05,0.043-0.1,0.084-0.148,0.128
	c-0.224,0.748-0.814,1.33-1.569,1.538c-0.049,0.053-0.101,0.104-0.149,0.157c0.354,0.083,0.678,0.244,0.948,0.47
	c0.501,0.419,0.827,1.041,0.827,1.745c0,1.259-1.02,2.279-2.279,2.279c1.26,0,2.28,1.021,2.28,2.279c0,1.26-1.021,2.28-2.28,2.28
	c-1.259,0-2.279-1.021-2.279-2.28c0-1.259,1.021-2.279,2.279-2.279c-0.488,0-0.939-0.157-1.311-0.419
	c-0.288-0.203-0.526-0.473-0.695-0.784c-0.367,0.579-0.709,1.175-1.025,1.786c0.286,0.264,0.511,0.593,0.633,0.974
	c0.07,0.22,0.119,0.449,0.119,0.692c0,0.873-0.496,1.622-1.217,2.006c-0.318,0.169-0.677,0.274-1.063,0.274
	c-0.027,0-0.052-0.009-0.079-0.011c-0.002,0.006-0.003,0.011-0.005,0.016c0.013,0,0.023-0.005,0.036-0.005
	c0.34,0,0.659,0.079,0.949,0.213c0.783,0.36,1.33,1.147,1.33,2.067c0,1.236-0.987,2.238-2.215,2.272
	c-0.022,0.001-0.043,0.007-0.064,0.007c-0.33,0-0.638-0.082-0.92-0.209c-0.016,0.154-0.027,0.309-0.041,0.464
	c0.301-0.147,0.627-0.25,0.984-0.25c0.014,0,0.025,0.004,0.039,0.004c1.24,0.021,2.241,1.029,2.241,2.275
	c0,1.248-1.003,2.259-2.247,2.276c-0.011,0.001-0.021,0.004-0.033,0.004c-0.359,0-0.688-0.104-0.989-0.252
	c0.013,0.151,0.021,0.304,0.037,0.455c0.278-0.124,0.58-0.203,0.904-0.203c0.028,0,0.054,0.008,0.083,0.008
	c1.219,0.045,2.197,1.041,2.197,2.272c0,0.917-0.545,1.702-1.326,2.064c-0.291,0.134-0.612,0.215-0.954,0.215
	c-0.011,0-0.02-0.004-0.03-0.005c0.002,0.006,0.003,0.012,0.005,0.018c0.033-0.002,0.063-0.013,0.097-0.013
	c0.376,0,0.725,0.1,1.037,0.261c0.735,0.378,1.243,1.135,1.243,2.019c0,0.259-0.052,0.502-0.132,0.733
	c-0.128,0.375-0.354,0.698-0.643,0.955c0.315,0.612,0.656,1.209,1.021,1.789c0.174-0.309,0.413-0.574,0.703-0.772
	c0.365-0.249,0.807-0.395,1.281-0.395c1.26,0,2.279,1.021,2.279,2.28c0,0.692-0.314,1.306-0.803,1.724
	c-0.267,0.229-0.587,0.393-0.938,0.481c0.063,0.068,0.13,0.134,0.193,0.202c0.678,0.223,1.211,0.748,1.441,1.423
	c0.077,0.068,0.156,0.134,0.233,0.202c0.102-0.339,0.271-0.647,0.504-0.901c0.416-0.454,1.009-0.743,1.674-0.743
	c1.26,0,2.279,1.021,2.279,2.279c0,0.412-0.117,0.794-0.309,1.127c-0.175,0.305-0.424,0.558-0.713,0.753
	c0.541,0.326,1.099,0.628,1.667,0.91c0.293-0.291,0.656-0.51,1.074-0.605c0.165-0.038,0.336-0.063,0.513-0.063
	c0.785,0,1.479,0.397,1.889,1.003c0.226,0.334,0.352,0.735,0.373,1.165c0.016,0.004,0.031,0.008,0.047,0.013
	c0.033-0.347,0.129-0.674,0.299-0.958c0.396-0.668,1.119-1.119,1.951-1.119c1.133,0,2.066,0.828,2.243,1.911
	c0.02,0.121,0.037,0.243,0.037,0.369c0,0.22-0.041,0.428-0.1,0.629c0.082,0.008,0.165,0.013,0.248,0.019
	c-0.087-0.238-0.148-0.49-0.148-0.76c0-0.086,0.017-0.168,0.025-0.252c0.127-1.14,1.082-2.028,2.255-2.028
	c1.156,0,2.102,0.864,2.249,1.981c0.013,0.099,0.03,0.196,0.03,0.299c0,0.255-0.056,0.493-0.134,0.722
	c0.075-0.008,0.148-0.02,0.223-0.027c-0.052-0.189-0.089-0.385-0.089-0.591c0-0.141,0.018-0.278,0.041-0.412
	c0.195-1.063,1.121-1.868,2.238-1.868c0.787,0,1.48,0.398,1.891,1.005c0.187,0.275,0.289,0.602,0.34,0.945
	c0.022-0.007,0.045-0.016,0.067-0.023c0.041-0.462,0.218-0.884,0.493-1.227c0.418-0.52,1.051-0.858,1.77-0.858
	c0.083,0,0.162,0.016,0.242,0.024c0.461,0.05,0.871,0.244,1.207,0.523c0.586-0.303,1.157-0.629,1.713-0.979
	c-0.262-0.217-0.479-0.485-0.623-0.799c-0.133-0.289-0.211-0.607-0.211-0.947c0-1.259,1.02-2.279,2.279-2.279
	c0.551,0,1.049,0.203,1.443,0.528c0.264,0.218,0.475,0.492,0.621,0.804c0.524-0.486,1.027-0.996,1.506-1.528
	c-0.309-0.148-0.58-0.361-0.795-0.625c-0.32-0.393-0.52-0.887-0.52-1.433c0-1.26,1.021-2.28,2.279-2.28
	c0.307,0,0.598,0.063,0.864,0.172c0.319,0.131,0.597,0.337,0.823,0.59c0.349-0.576,0.67-1.17,0.969-1.776
	c-0.204-0.341-0.328-0.735-0.328-1.162c0-1.047,0.71-1.919,1.671-2.187c0.016-0.052,0.03-0.104,0.046-0.154
	c-0.34-0.078-0.652-0.228-0.918-0.438c-0.527-0.418-0.871-1.056-0.871-1.779c0-1.049,0.713-1.923,1.676-2.189
	c0.193-0.053,0.395-0.091,0.604-0.091c0.141,0,0.277,0.016,0.411,0.041c0.002-0.024,0.004-0.05,0.007-0.074
	c-0.12,0.021-0.243,0.033-0.37,0.033c-0.219,0-0.428-0.041-0.628-0.099c-0.952-0.274-1.651-1.142-1.651-2.182
	C121.66,456.814,122.369,455.942,123.329,455.675z M119.356,450.913c1.259,0,2.279,1.021,2.279,2.28
	c0,1.259-1.021,2.279-2.279,2.279s-2.28-1.021-2.28-2.279C117.076,451.934,118.097,450.913,119.356,450.913z M96.605,469.189
	c-1.259,0-2.279-1.021-2.279-2.28c0-1.259,1.021-2.279,2.279-2.279c1.26,0,2.28,1.021,2.28,2.279
	C98.885,468.169,97.865,469.189,96.605,469.189z M98.837,471.47c0,1.259-1.021,2.279-2.28,2.279s-2.28-1.021-2.28-2.279
	c0-1.26,1.021-2.28,2.28-2.28S98.837,470.21,98.837,471.47z M85.183,457.741c0,1.26-1.021,2.28-2.279,2.28
	c-1.26,0-2.279-1.021-2.279-2.28c0-1.259,1.02-2.279,2.279-2.279C84.163,455.462,85.183,456.482,85.183,457.741z M85.159,453.281
	c0-1.26,1.021-2.28,2.28-2.28c1.258,0,2.279,1.021,2.279,2.28c0,1.259-1.021,2.279-2.279,2.279
	C86.179,455.561,85.159,454.54,85.159,453.281z M87.462,455.565c1.26,0,2.28,1.021,2.28,2.279c0,1.26-1.021,2.28-2.28,2.28
	c-1.259,0-2.279-1.021-2.279-2.28C85.183,456.586,86.204,455.565,87.462,455.565z M94.326,444.107c0-1.26,1.021-2.28,2.28-2.28
	s2.28,1.021,2.28,2.28c0,1.259-1.021,2.279-2.28,2.279c1.259,0,2.28,1.021,2.28,2.279c0,1.26-1.021,2.28-2.28,2.28
	s-2.28-1.021-2.28-2.28c0-1.259,1.021-2.279,2.28-2.279C95.347,446.387,94.326,445.366,94.326,444.107z M98.886,443.995
	c0-1.26,1.021-2.28,2.279-2.28c1.26,0,2.279,1.021,2.279,2.28c0,1.259-1.02,2.279-2.279,2.279c1.26,0,2.28,1.021,2.28,2.279
	c0,1.26-1.021,2.28-2.28,2.28c-1.259,0-2.279-1.021-2.279-2.28c0-1.259,1.021-2.279,2.279-2.279
	C99.907,446.274,98.886,445.254,98.886,443.995z M108.005,443.94c0-1.26,1.021-2.28,2.279-2.28c1.26,0,2.279,1.021,2.279,2.28
	c0,1.259-1.02,2.279-2.279,2.279c1.26,0,2.28,1.021,2.28,2.279c0,1.26-1.021,2.28-2.28,2.28c-1.259,0-2.279-1.021-2.279-2.28
	c0-1.259,1.021-2.279,2.279-2.279C109.026,446.22,108.005,445.199,108.005,443.94z M96.582,460.07c-1.259,0-2.279-1.021-2.279-2.28
	c0-1.259,1.021-2.279,2.279-2.279c1.26,0,2.28,1.021,2.28,2.279C98.862,459.05,97.841,460.07,96.582,460.07z M98.814,462.351
	c0,1.259-1.021,2.279-2.28,2.279s-2.28-1.021-2.28-2.279c0-1.26,1.021-2.28,2.28-2.28S98.814,461.091,98.814,462.351z
	 M92.023,459.967c-1.26,0-2.279-1.021-2.279-2.28c0-1.259,1.02-2.279,2.279-2.279c1.259,0,2.279,1.021,2.279,2.279
	C94.302,458.946,93.282,459.967,92.023,459.967z M103.397,453.218c0-1.26,1.021-2.28,2.28-2.28c1.258,0,2.279,1.021,2.279,2.28
	c0,1.259-1.021,2.279-2.279,2.279C104.417,455.497,103.397,454.477,103.397,453.218z M103.421,457.678c0,1.26-1.021,2.28-2.279,2.28
	c-1.26,0-2.279-1.021-2.279-2.28c0-1.259,1.02-2.279,2.279-2.279C102.401,455.398,103.421,456.419,103.421,457.678z
	 M101.118,455.394c-1.259,0-2.28-1.021-2.28-2.279c0-1.26,1.021-2.28,2.28-2.28s2.279,1.021,2.279,2.28
	C103.397,454.373,102.376,455.394,101.118,455.394z M101.093,459.958c1.26,0,2.279,1.021,2.279,2.28c0,1.259-1.02,2.279-2.279,2.279
	c-1.259,0-2.279-1.021-2.279-2.279C98.814,460.979,99.834,459.958,101.093,459.958z M101.166,464.518
	c1.259,0,2.279,1.021,2.279,2.279c0,1.26-1.021,2.28-2.279,2.28c-1.26,0-2.279-1.021-2.279-2.28
	C98.886,465.538,99.906,464.518,101.166,464.518z M103.373,462.342c0-1.26,1.021-2.28,2.28-2.28s2.28,1.021,2.28,2.28
	c0,1.259-1.021,2.279-2.28,2.279S103.373,463.601,103.373,462.342z M105.701,460.062c-1.259,0-2.279-1.021-2.279-2.28
	c0-1.259,1.021-2.279,2.279-2.279c1.26,0,2.28,1.021,2.28,2.279C107.981,459.041,106.96,460.062,105.701,460.062z M110.212,459.903
	c1.26,0,2.279,1.021,2.279,2.28c0,1.259-1.02,2.279-2.279,2.279c-1.259,0-2.279-1.021-2.279-2.279
	C107.933,460.924,108.954,459.903,110.212,459.903z M110.261,459.903c-1.26,0-2.279-1.021-2.279-2.28
	c0-1.259,1.02-2.279,2.279-2.279c1.259,0,2.279,1.021,2.279,2.279C112.541,458.883,111.52,459.903,110.261,459.903z
	 M112.516,453.163c0-1.26,1.021-2.28,2.28-2.28c1.258,0,2.279,1.021,2.279,2.28c0,1.259-1.021,2.279-2.279,2.279
	C113.537,455.442,112.516,454.422,112.516,453.163z M110.237,455.339c-1.259,0-2.28-1.021-2.28-2.279c0-1.26,1.021-2.28,2.28-2.28
	s2.279,1.021,2.279,2.28C112.516,454.318,111.496,455.339,110.237,455.339z M105.725,446.378c1.259,0,2.28,1.021,2.28,2.279
	c0,1.26-1.021,2.28-2.28,2.28s-2.28-1.021-2.28-2.28C103.445,447.398,104.466,446.378,105.725,446.378
	c-1.259,0-2.28-1.021-2.28-2.279c0-1.26,1.021-2.28,2.28-2.28s2.28,1.021,2.28,2.28
	C108.005,445.357,106.984,446.378,105.725,446.378z M96.558,450.946c1.258,0,2.279,1.021,2.279,2.28
	c0,1.259-1.021,2.279-2.279,2.279c-1.26,0-2.28-1.021-2.28-2.279C94.278,451.967,95.298,450.946,96.558,450.946z M91.999,455.402
	c-1.259,0-2.28-1.021-2.28-2.279c0-1.26,1.021-2.28,2.28-2.28s2.279,1.021,2.279,2.28C94.278,454.382,93.257,455.402,91.999,455.402
	z M87.415,460.125c1.259,0,2.28,1.021,2.28,2.28c0,1.259-1.021,2.279-2.28,2.279s-2.28-1.021-2.28-2.279
	C85.134,461.146,86.156,460.125,87.415,460.125z M87.486,464.685c1.26,0,2.28,1.021,2.28,2.279c0,1.26-1.021,2.28-2.28,2.28
	c-1.259,0-2.279-1.021-2.279-2.28C85.207,465.705,86.227,464.685,87.486,464.685z M89.695,462.247c0-1.26,1.021-2.28,2.279-2.28
	c1.26,0,2.279,1.021,2.279,2.28c0,1.259-1.02,2.279-2.279,2.279C90.715,464.526,89.695,463.506,89.695,462.247z M92.046,464.526
	c1.259,0,2.279,1.021,2.279,2.279c0,1.26-1.021,2.28-2.279,2.28c-1.26,0-2.279-1.021-2.279-2.28
	C89.767,465.547,90.787,464.526,92.046,464.526z M101.117,469.077c1.26,0,2.279,1.021,2.279,2.28c0,1.259-1.02,2.279-2.279,2.279
	c-1.259,0-2.279-1.021-2.279-2.279C98.837,470.098,99.858,469.077,101.117,469.077z M105.676,469.181c1.259,0,2.28,1.021,2.28,2.28
	c0,1.259-1.021,2.279-2.28,2.279s-2.28-1.021-2.28-2.279C103.396,470.201,104.417,469.181,105.676,469.181z M105.724,469.181
	c-1.259,0-2.279-1.021-2.279-2.28c0-1.259,1.021-2.279,2.279-2.279c1.26,0,2.28,1.021,2.28,2.279
	C108.004,468.16,106.984,469.181,105.724,469.181z M110.236,469.022c1.26,0,2.279,1.021,2.279,2.28c0,1.259-1.02,2.279-2.279,2.279
	c-1.259,0-2.279-1.021-2.279-2.279C107.957,470.043,108.977,469.022,110.236,469.022z M110.285,469.022
	c-1.26,0-2.279-1.021-2.279-2.28c0-1.259,1.02-2.279,2.279-2.279c1.259,0,2.279,1.021,2.279,2.279
	C112.564,468.002,111.543,469.022,110.285,469.022z M112.492,462.287c0-1.26,1.021-2.28,2.28-2.28s2.28,1.021,2.28,2.28
	c0,1.259-1.021,2.279-2.28,2.279S112.492,463.546,112.492,462.287z M114.82,460.007c-1.259,0-2.279-1.021-2.279-2.28
	c0-1.259,1.021-2.279,2.279-2.279c1.26,0,2.28,1.021,2.28,2.279C117.1,458.986,116.08,460.007,114.82,460.007z M114.844,441.764
	c1.259,0,2.28,1.021,2.28,2.28c0,1.259-1.021,2.279-2.28,2.279c1.259,0,2.28,1.021,2.28,2.279c0,1.26-1.021,2.28-2.28,2.28
	s-2.28-1.021-2.28-2.28c0-1.259,1.021-2.279,2.28-2.279c-1.259,0-2.28-1.021-2.28-2.279
	C112.564,442.784,113.585,441.764,114.844,441.764z M110.048,437.13c0.095-0.013,0.188-0.029,0.285-0.029
	c0.871,0,1.621,0.495,2.004,1.214c0.17,0.319,0.275,0.679,0.275,1.065c0,1.26-1.021,2.28-2.279,2.28c-1.26,0-2.279-1.021-2.279-2.28
	C108.054,438.219,108.925,437.271,110.048,437.13z M105.773,437.259c1.26,0,2.28,1.021,2.28,2.279c0,1.26-1.021,2.28-2.28,2.28
	c-1.259,0-2.279-1.021-2.279-2.28C103.494,438.279,104.514,437.259,105.773,437.259z M101.214,437.155
	c1.259,0,2.279,1.021,2.279,2.279c0,1.26-1.021,2.28-2.279,2.28c-1.26,0-2.279-1.021-2.279-2.28
	C98.935,438.176,99.955,437.155,101.214,437.155z M96.654,437.268c1.26,0,2.28,1.021,2.28,2.279c0,1.26-1.021,2.28-2.28,2.28
	c-1.259,0-2.279-1.021-2.279-2.28C94.375,438.288,95.395,437.268,96.654,437.268z M92.095,437.164c1.259,0,2.279,1.021,2.279,2.279
	c0,1.26-1.021,2.28-2.279,2.28c-1.26,0-2.279-1.021-2.279-2.28C89.816,438.185,90.835,437.164,92.095,437.164z M92.046,441.724
	c1.26,0,2.279,1.021,2.279,2.28c0,1.259-1.02,2.279-2.279,2.279c1.26,0,2.28,1.021,2.28,2.279c0,1.26-1.021,2.28-2.28,2.28
	c-1.259,0-2.279-1.021-2.279-2.28c0-1.259,1.021-2.279,2.279-2.279c-1.259,0-2.279-1.021-2.279-2.279
	C89.767,442.744,90.788,441.724,92.046,441.724z M87.487,446.441c-1.259,0-2.28-1.021-2.28-2.279c0-1.26,1.021-2.28,2.28-2.28
	s2.28,1.021,2.28,2.28C89.767,445.421,88.746,446.441,87.487,446.441c1.259,0,2.28,1.021,2.28,2.279c0,1.26-1.021,2.28-2.28,2.28
	s-2.28-1.021-2.28-2.28C85.207,447.462,86.228,446.441,87.487,446.441z M80.599,453.178c0-1.26,1.021-2.28,2.28-2.28
	s2.279,1.021,2.279,2.28c0,1.259-1.021,2.279-2.279,2.279S80.599,454.437,80.599,453.178z M80.576,462.302
	c0-1.26,1.021-2.28,2.279-2.28c1.26,0,2.279,1.021,2.279,2.28c0,1.259-1.02,2.279-2.279,2.279
	C81.596,464.581,80.576,463.561,80.576,462.302z M82.927,469.141c-1.26,0-2.279-1.021-2.279-2.28c0-1.259,1.02-2.279,2.279-2.279
	c1.259,0,2.279,1.021,2.279,2.279C85.207,468.12,84.186,469.141,82.927,469.141z M87.438,473.804c-1.259,0-2.28-1.021-2.28-2.279
	c0-1.26,1.021-2.28,2.28-2.28s2.28,1.021,2.28,2.28C89.718,472.783,88.697,473.804,87.438,473.804z M89.718,471.366
	c0-1.26,1.021-2.28,2.279-2.28c1.26,0,2.279,1.021,2.279,2.28c0,1.259-1.02,2.279-2.279,2.279
	C90.739,473.646,89.718,472.625,89.718,471.366z M92.023,478.21c-1.26,0-2.28-1.021-2.28-2.28c0-1.259,1.021-2.279,2.28-2.279
	c1.258,0,2.279,1.021,2.279,2.279C94.302,477.189,93.281,478.21,92.023,478.21z M96.582,478.313c-1.26,0-2.279-1.021-2.279-2.28
	c0-1.259,1.02-2.279,2.279-2.279s2.279,1.021,2.279,2.279C98.861,477.293,97.841,478.313,96.582,478.313z M101.142,478.201
	c-1.26,0-2.28-1.021-2.28-2.28c0-1.259,1.021-2.279,2.28-2.279c1.258,0,2.279,1.021,2.279,2.279
	C103.421,477.181,102.4,478.201,101.142,478.201z M105.701,478.305c-1.26,0-2.279-1.021-2.279-2.28c0-1.259,1.02-2.279,2.279-2.279
	s2.279,1.021,2.279,2.279C107.98,477.284,106.96,478.305,105.701,478.305z M111.938,477.399c-0.444,0.252-0.896,0.493-1.357,0.715
	c-0.105,0.015-0.21,0.032-0.319,0.032c-1.26,0-2.28-1.021-2.28-2.28c0-1.259,1.021-2.279,2.28-2.279
	c1.258,0,2.279,1.021,2.279,2.279C112.541,476.459,112.308,476.994,111.938,477.399z M114.795,473.686
	c-1.259,0-2.28-1.021-2.28-2.279c0-1.26,1.021-2.28,2.28-2.28s2.28,1.021,2.28,2.28
	C117.076,472.665,116.054,473.686,114.795,473.686z M114.843,469.126c-1.259,0-2.279-1.021-2.279-2.28
	c0-1.259,1.021-2.279,2.279-2.279c1.26,0,2.28,1.021,2.28,2.279C117.124,468.105,116.103,469.126,114.843,469.126z M121.648,466.526
	c0.018,0.115,0.035,0.23,0.035,0.35c0,0.868-0.49,1.613-1.203,1.998c-0.321,0.174-0.685,0.282-1.076,0.282
	c-1.26,0-2.279-1.021-2.279-2.28c0-1.259,1.02-2.279,2.279-2.279C120.542,464.597,121.479,465.435,121.648,466.526z
	 M119.332,464.597c-1.259,0-2.279-1.021-2.279-2.279c0-1.26,1.021-2.28,2.279-2.28c1.26,0,2.279,1.021,2.279,2.28
	C121.611,463.576,120.591,464.597,119.332,464.597z M119.38,460.037c-1.26,0-2.279-1.021-2.279-2.28c0-1.259,1.02-2.279,2.279-2.279
	c1.259,0,2.279,1.021,2.279,2.279C121.66,459.017,120.639,460.037,119.38,460.037z"/>
<g>
</g>
<g>
</g>
<g>
</g>
<g>
</g>
<g>
</g>
<g>
</g>
<g>
</g>
<g>
</g>
<g>
</g>
<g>
</g>
<g>
</g>
<g>
</g>
<g>
</g>
<g>
</g>
<g>
</g>
</svg>
