<?xml version="1.0" encoding="iso-8859-1"?>
<!-- Generator: Adobe Illustrator 16.0.0, SVG Export Plug-In . SVG Version: 6.00 Build 0)  -->
<!DOCTYPE svg PUBLIC "-//W3C//DTD SVG 1.1//EN" "http://www.w3.org/Graphics/SVG/1.1/DTD/svg11.dtd">
<svg version="1.1" id="Layer_1" xmlns="http://www.w3.org/2000/svg" xmlns:xlink="http://www.w3.org/1999/xlink" x="0px" y="0px"
	 width="46.71px" height="46.748px" viewBox="0 0 46.71 46.748" style="enable-background:new 0 0 46.71 46.748;"
	 xml:space="preserve">
<path d="M46.245,24.02l0.062-0.514l-0.756-0.242l-0.424,0.574l0.06,1.089l1.402,1.128c0.053-0.46,0.096-0.924,0.121-1.393
	l-0.032,0.023L46.245,24.02z"/>
<path d="M45.238,27.562l-1.23-1.396l-0.242,0.968l2.018,2.882c0.262-0.881,0.471-1.785,0.627-2.706l-0.486,0.323L45.238,27.562z"/>
<polygon style="fill:#FFFFFF;" points="27.173,16.802 25.933,15.975 25.984,15.526 26.971,15.582 26.94,15.097 26.245,14.806 
	25.429,14.876 25.227,15.34 25.268,16.276 26.275,17.013 26.275,17.395 25.75,17.85 25.68,18.172 26.678,18.243 26.799,18.434 
	27.435,18.485 27.708,18.224 27.708,17.8 27.173,17.407 "/>
<polygon style="fill:#FFFFFF;" points="21.778,16.636 21.729,15.66 21.39,15.491 21.206,15.775 20.375,15.873 19.994,15.991 
	19.644,16.385 19.644,17.457 20.113,17.393 21.682,17.457 22.77,17.457 22.689,17.011 "/>
<polygon style="fill:#FFFFFF;" points="15.829,9.798 15.82,11.772 14.778,12.301 14.884,12.648 16.548,12.664 17.508,11.235 
	17.463,10.584 16.782,10.267 16.782,9.783 17.982,9.049 17.982,8.565 17.598,8.565 "/>
<path d="M43.069,28.193v-2.782l-2.176-1.935l-1.734-0.166l-0.984,0.367l-0.609,1.311l-0.324,2.434l-0.589,0.854l-0.592-0.136
	l-1.828-3.009l0.106-1.111v-0.817l-0.835-0.525l-3.569-0.583l-1.645-0.081l-1.44-0.827l-0.102-0.868h-0.686
	c0,0-0.019,1.191-0.019,1.256c0,0.064,3.105,1.528,3.105,1.528l0.885,0.116l0.016,0.665l-0.83,0.544l-2.652,1.919l-1.271,0.082
	l-0.623-0.626l-0.066-1.014l-2.698-3.276l-0.191,0.223l2.722,5.127l0.667,0.332l2.59-0.545l0.483,0.223l-2.493,3.565l-2.264,2.161
	l0.504,0.89l0.243,2.397l-1.151,1.572l-0.544,0.646v0.967l-0.825,0.183l-0.646,1.149l-2.056,2.117h-2.744v-1.613l-0.925-1.247v-1.94
	l-0.707-0.705l-0.062-0.807l0.898-1.714l-1.704-3.004l0.202-2.037l-1.532-0.16l-0.564-0.565H10.78l-0.523,0.484H8.442l-0.06,0.161
	h-1.01l-2.317-2.641l0.019-2.058l0.383-0.14L5.6,23.748H5.056l-0.223-0.827l2.682-1.936v-1.371l1.313-0.729l0.531,0.054h1.081
	l0.845-0.454l2.722-0.212v1.392l2.148,0.545l0.424,0.302h0.394v-0.757l1.24-0.121l1.178,0.878h1.936l0.696-0.635v-0.998
	l-0.566-0.425l-1.914,0.031l-0.634-0.696l-0.121-1.119l-0.651,0.354l-0.348,1.368l-0.938-0.998l-0.038-0.943l-0.906-0.778
	l-0.334-0.333h-1.051l0.333,0.937l1.263,0.705l0.219,0.233l-0.271,0.137l0.01,0.741l-0.615,0.257l-0.524-0.116l-0.33-0.466
	l0.854,0.046l0.23-0.311l-1.894-1.278l-0.145-0.544l-0.77,0.695l-0.78-0.16l-1.187,1.543l-0.234,0.605l-0.76,0.069L8.796,18.44
	l-0.671-0.313l-0.198-1.335l0.242-0.636l1.144-0.249l1.247,0.249l0.151-0.689l-0.529-0.126l0.18-1.074l1.256-0.197l0.877-1.24
	l0.906-0.151l0.818,0.121h0.302l-0.166-1.164l-0.994,0.401l-0.35-0.87l-0.576-0.081l-0.108-0.597l0.471-0.512l1.12-0.438
	l0.634-1.134l1.693-0.867l3.025-0.091l2.479,1.15l-0.424,0.362L19.27,9.049l0.09,0.433l1.966,0.056l0.808-0.63l0.282-0.746
	l0.383-0.101l0.233,0.674l1.54-0.715l3.227,0.211l-0.271-0.665l0.211-0.817l0.908,0.223l0.301,0.473l0.182,1.362l0.808-0.242
	l-0.021-1.362l2.624-1.173l3.454-0.219l1.726,1.029h2.18C35.667,2.615,29.825,0,23.373,0C10.465,0,0,10.465,0,23.374
	s10.465,23.374,23.373,23.374c10.381,0,19.177-6.77,22.226-16.134L43.069,28.193z M9.349,11.558l0.222-0.341l0.797-0.161
	l0.202,0.968l0.424,0.686l0.281,0.323l0.514,0.201l-0.483,0.575l-0.938,0.09H9.661l0.081-0.837l0.585-0.121l-0.05-0.393
	l-0.546-0.343l-0.383-0.261V11.558z M8.04,13.072l0.483-0.776l0.653-0.151l0.466,0.202L9.601,12.87l-0.998,0.706H8.04V13.072z
	 M26.95,37.74l-1.228,1.799l-0.626,1.004l-0.687-0.667v-1.067l0.504-0.585l0.343-0.523l-0.443-0.524v-0.968l1.249,0.163l0.728-1.453
	h0.747L26.95,37.74z M37.999,28.728l-0.917,0.342l-0.253-0.685l0.532-0.75l0.739,0.146L37.999,28.728z"/>
<polygon points="17.982,9.049 16.782,9.783 16.782,10.267 17.463,10.584 17.508,11.235 16.548,12.664 14.884,12.648 14.778,12.301 
	15.82,11.772 15.829,9.798 17.598,8.565 17.982,8.565 "/>
<polygon points="21.682,17.457 20.113,17.393 19.644,17.457 19.644,16.385 19.994,15.991 20.375,15.873 21.206,15.775 21.39,15.491 
	21.729,15.66 21.778,16.636 22.689,17.011 22.77,17.457 "/>
<polygon points="27.708,18.224 27.435,18.485 26.799,18.434 26.678,18.243 25.68,18.172 25.75,17.85 26.275,17.395 26.275,17.013 
	25.268,16.276 25.227,15.34 25.429,14.876 26.245,14.806 26.94,15.097 26.971,15.582 25.984,15.526 25.933,15.975 27.173,16.802 
	27.173,17.407 27.708,17.8 "/>
<g>
</g>
<g>
</g>
<g>
</g>
<g>
</g>
<g>
</g>
<g>
</g>
<g>
</g>
<g>
</g>
<g>
</g>
<g>
</g>
<g>
</g>
<g>
</g>
<g>
</g>
<g>
</g>
<g>
</g>
</svg>
