<?xml version="1.0" encoding="iso-8859-1"?>
<!-- Generator: Adobe Illustrator 16.0.0, SVG Export Plug-In . SVG Version: 6.00 Build 0)  -->
<!DOCTYPE svg PUBLIC "-//W3C//DTD SVG 1.1//EN" "http://www.w3.org/Graphics/SVG/1.1/DTD/svg11.dtd">
<svg version="1.1" id="Layer_1" xmlns="http://www.w3.org/2000/svg" xmlns:xlink="http://www.w3.org/1999/xlink" x="0px" y="0px"
	 width="49.312px" height="47.213px" viewBox="0 0 49.312 47.213" style="enable-background:new 0 0 49.312 47.213;"
	 xml:space="preserve">
<g>
	<path d="M196.189,462.602c-0.952-0.274-1.651-1.142-1.651-2.182c0-1.046,0.709-1.918,1.669-2.186
		c0.196-0.055,0.397-0.094,0.61-0.094c0.133,0,0.263,0.013,0.389,0.035c-0.003-0.026-0.004-0.054-0.007-0.08
		c-0.132,0.025-0.267,0.04-0.405,0.04c-0.21,0-0.408-0.037-0.602-0.09c-0.965-0.266-1.679-1.14-1.679-2.189
		c0-0.74,0.358-1.392,0.904-1.808c0.269-0.205,0.582-0.35,0.924-0.421c-0.013-0.04-0.022-0.081-0.035-0.121
		c-0.579-0.142-1.073-0.5-1.386-0.99c-0.152-0.241-0.264-0.513-0.316-0.805c-0.025-0.135-0.043-0.273-0.043-0.416
		c0-0.47,0.154-0.896,0.399-1.256c-0.31-0.64-0.648-1.262-1.013-1.867c-0.229,0.249-0.51,0.45-0.83,0.577
		c0.09,0.15,0.176,0.304,0.262,0.456c0.701,0.389,1.183,1.128,1.183,1.986c0,0.113-0.018,0.222-0.033,0.33
		c-0.161,1.103-1.101,1.95-2.247,1.95c-1.259,0-2.279-1.021-2.279-2.28c0-1.259,1.021-2.279,2.279-2.279
		c-1.259,0-2.279-1.021-2.279-2.279c0-0.539,0.194-1.027,0.507-1.418c0.212-0.265,0.481-0.481,0.788-0.632
		c-0.474-0.53-0.973-1.037-1.492-1.521c-0.155,0.305-0.378,0.57-0.646,0.778c-0.386,0.298-0.863,0.482-1.389,0.482
		c-1.259,0-2.279-1.021-2.279-2.28c0-0.315,0.064-0.616,0.181-0.89c0.135-0.316,0.343-0.591,0.598-0.815
		c-0.603-0.379-1.224-0.73-1.86-1.056c-0.354,0.23-0.768,0.373-1.222,0.373c-0.147,0-0.291-0.017-0.431-0.044
		c-0.31-0.059-0.598-0.179-0.85-0.35c-0.475-0.323-0.813-0.823-0.939-1.402c-0.034-0.012-0.068-0.024-0.104-0.035
		c-0.046,0.344-0.146,0.671-0.327,0.949c-0.407,0.625-1.108,1.04-1.909,1.04c-1.141,0-2.076-0.839-2.245-1.931
		c-0.018-0.115-0.035-0.229-0.035-0.349c0-0.228,0.044-0.443,0.106-0.651c-0.063-0.007-0.125-0.017-0.188-0.023
		c0.048,0.184,0.081,0.373,0.081,0.571c0,0.151-0.017,0.299-0.044,0.441c-0.207,1.048-1.128,1.838-2.235,1.838
		c-1.13,0-2.062-0.824-2.242-1.903c-0.021-0.123-0.038-0.247-0.038-0.376c0-0.222,0.042-0.431,0.102-0.632
		c-0.078,0.006-0.156,0.011-0.235,0.018c0.079,0.229,0.134,0.47,0.134,0.727c0,0.092-0.017,0.18-0.027,0.269
		c-0.135,1.131-1.086,2.011-2.252,2.011c-0.876,0-1.627-0.499-2.009-1.223c-0.153-0.291-0.245-0.619-0.26-0.969
		c-0.01,0.003-0.02,0.006-0.029,0.008c-0.041,0.447-0.207,0.855-0.468,1.191c-0.417,0.537-1.062,0.889-1.794,0.889
		c-0.138,0-0.272-0.018-0.403-0.041c-0.44-0.079-0.826-0.292-1.139-0.584c-0.661,0.322-1.306,0.673-1.93,1.053
		c0.317,0.169,0.59,0.411,0.797,0.704c0.262,0.371,0.419,0.821,0.419,1.311c0,1.26-1.021,2.28-2.28,2.28
		c-0.738,0-1.387-0.356-1.803-0.9c-0.214-0.278-0.365-0.604-0.434-0.961c-0.05,0.043-0.1,0.084-0.148,0.128
		c-0.224,0.748-0.814,1.33-1.569,1.538c-0.049,0.053-0.101,0.104-0.149,0.157c0.354,0.083,0.678,0.244,0.948,0.47
		c0.501,0.419,0.827,1.041,0.827,1.745c0,1.259-1.02,2.279-2.279,2.279c1.26,0,2.28,1.021,2.28,2.279c0,1.26-1.021,2.28-2.28,2.28
		c-1.259,0-2.279-1.021-2.279-2.28c0-1.259,1.021-2.279,2.279-2.279c-0.488,0-0.939-0.157-1.311-0.419
		c-0.288-0.203-0.526-0.473-0.695-0.784c-0.367,0.579-0.709,1.175-1.025,1.786c0.286,0.264,0.511,0.593,0.633,0.974
		c0.07,0.22,0.119,0.449,0.119,0.692c0,0.873-0.496,1.622-1.217,2.006c-0.318,0.169-0.677,0.274-1.063,0.274
		c-0.027,0-0.052-0.009-0.079-0.011c-0.002,0.006-0.003,0.011-0.005,0.016c0.013,0,0.023-0.005,0.036-0.005
		c0.34,0,0.659,0.079,0.949,0.213c0.783,0.36,1.33,1.147,1.33,2.067c0,1.236-0.987,2.238-2.215,2.272
		c-0.022,0.001-0.043,0.007-0.064,0.007c-0.33,0-0.638-0.082-0.92-0.209c-0.016,0.154-0.027,0.309-0.041,0.464
		c0.301-0.147,0.627-0.25,0.984-0.25c0.014,0,0.025,0.004,0.039,0.004c1.24,0.021,2.241,1.029,2.241,2.275
		c0,1.248-1.003,2.259-2.247,2.276c-0.011,0.001-0.021,0.004-0.033,0.004c-0.359,0-0.688-0.104-0.989-0.252
		c0.013,0.151,0.021,0.304,0.037,0.455c0.278-0.124,0.58-0.203,0.904-0.203c0.028,0,0.054,0.008,0.083,0.008
		c1.219,0.045,2.197,1.041,2.197,2.272c0,0.917-0.545,1.702-1.326,2.064c-0.291,0.134-0.612,0.215-0.954,0.215
		c-0.011,0-0.02-0.004-0.03-0.005c0.002,0.006,0.003,0.012,0.005,0.018c0.033-0.002,0.063-0.013,0.097-0.013
		c0.376,0,0.725,0.1,1.037,0.261c0.735,0.378,1.243,1.135,1.243,2.019c0,0.259-0.052,0.502-0.132,0.733
		c-0.128,0.375-0.354,0.698-0.643,0.955c0.315,0.612,0.656,1.209,1.021,1.789c0.174-0.309,0.413-0.574,0.703-0.772
		c0.365-0.249,0.807-0.395,1.281-0.395c1.26,0,2.279,1.021,2.279,2.28c0,0.692-0.314,1.306-0.803,1.724
		c-0.267,0.229-0.587,0.393-0.938,0.481c0.063,0.068,0.13,0.134,0.193,0.202c0.678,0.223,1.211,0.748,1.441,1.423
		c0.077,0.068,0.156,0.134,0.233,0.202c0.102-0.339,0.271-0.647,0.504-0.901c0.416-0.454,1.009-0.743,1.674-0.743
		c1.26,0,2.279,1.021,2.279,2.279c0,0.412-0.117,0.794-0.309,1.127c-0.175,0.305-0.424,0.558-0.713,0.753
		c0.541,0.326,1.099,0.628,1.667,0.91c0.293-0.291,0.656-0.51,1.074-0.605c0.165-0.038,0.336-0.063,0.513-0.063
		c0.785,0,1.479,0.397,1.889,1.003c0.226,0.334,0.352,0.735,0.373,1.165c0.016,0.004,0.031,0.008,0.047,0.013
		c0.033-0.347,0.129-0.674,0.299-0.958c0.396-0.668,1.119-1.119,1.951-1.119c1.133,0,2.066,0.828,2.243,1.911
		c0.02,0.121,0.037,0.243,0.037,0.369c0,0.22-0.041,0.428-0.1,0.629c0.082,0.008,0.165,0.013,0.248,0.019
		c-0.087-0.238-0.148-0.49-0.148-0.76c0-0.086,0.017-0.168,0.025-0.252c0.127-1.14,1.082-2.028,2.255-2.028
		c1.156,0,2.102,0.864,2.249,1.981c0.013,0.099,0.03,0.196,0.03,0.299c0,0.255-0.056,0.493-0.134,0.722
		c0.075-0.008,0.148-0.02,0.223-0.027c-0.052-0.189-0.089-0.385-0.089-0.591c0-0.141,0.018-0.278,0.041-0.412
		c0.195-1.063,1.121-1.868,2.238-1.868c0.787,0,1.48,0.398,1.891,1.005c0.187,0.275,0.289,0.602,0.34,0.945
		c0.022-0.007,0.045-0.016,0.067-0.023c0.041-0.462,0.218-0.884,0.493-1.227c0.418-0.52,1.051-0.858,1.77-0.858
		c0.083,0,0.162,0.016,0.242,0.024c0.461,0.05,0.871,0.244,1.207,0.523c0.586-0.303,1.157-0.629,1.713-0.979
		c-0.262-0.217-0.479-0.485-0.623-0.799c-0.133-0.289-0.211-0.607-0.211-0.947c0-1.259,1.02-2.279,2.279-2.279
		c0.551,0,1.049,0.203,1.443,0.528c0.264,0.218,0.475,0.492,0.621,0.804c0.524-0.486,1.027-0.996,1.506-1.528
		c-0.309-0.148-0.58-0.361-0.795-0.625c-0.32-0.393-0.52-0.887-0.52-1.433c0-1.26,1.021-2.28,2.279-2.28
		c0.307,0,0.598,0.063,0.864,0.172c0.319,0.131,0.597,0.337,0.823,0.59c0.349-0.576,0.67-1.17,0.969-1.776
		c-0.204-0.341-0.328-0.735-0.328-1.162c0-1.047,0.71-1.919,1.671-2.187c0.016-0.052,0.03-0.104,0.046-0.154
		c-0.34-0.078-0.652-0.228-0.918-0.438c-0.527-0.418-0.871-1.056-0.871-1.779c0-1.049,0.713-1.923,1.676-2.189
		c0.193-0.053,0.395-0.091,0.604-0.091c0.141,0,0.277,0.016,0.411,0.041c0.002-0.024,0.004-0.05,0.007-0.074
		c-0.12,0.021-0.243,0.033-0.37,0.033C196.598,462.7,196.389,462.659,196.189,462.602z M194.538,460.316
		c0,1.26-1.021,2.28-2.279,2.28c-1.26,0-2.279-1.021-2.279-2.28c0-1.259,1.02-2.279,2.279-2.279
		C193.517,458.037,194.538,459.058,194.538,460.316z M192.234,453.473c1.259,0,2.279,1.021,2.279,2.28
		c0,1.259-1.021,2.279-2.279,2.279s-2.28-1.021-2.28-2.279C189.954,454.493,190.975,453.473,192.234,453.473z M182.926,439.689
		c0.095-0.013,0.188-0.029,0.285-0.029c0.871,0,1.621,0.495,2.004,1.214c0.17,0.319,0.275,0.679,0.275,1.065
		c0,1.26-1.021,2.28-2.279,2.28c-1.26,0-2.279-1.021-2.279-2.28C180.932,440.778,181.803,439.83,182.926,439.689z M178.651,439.818
		c1.26,0,2.28,1.021,2.28,2.279c0,1.26-1.021,2.28-2.28,2.28c-1.259,0-2.279-1.021-2.279-2.28
		C176.372,440.839,177.392,439.818,178.651,439.818z M174.092,439.715c1.259,0,2.279,1.021,2.279,2.279
		c0,1.26-1.021,2.28-2.279,2.28c-1.26,0-2.279-1.021-2.279-2.28C171.813,440.735,172.833,439.715,174.092,439.715z M169.532,439.827
		c1.26,0,2.28,1.021,2.28,2.279c0,1.26-1.021,2.28-2.28,2.28c-1.259,0-2.279-1.021-2.279-2.28
		C167.252,440.848,168.273,439.827,169.532,439.827z M164.973,439.724c1.259,0,2.279,1.021,2.279,2.279
		c0,1.26-1.021,2.28-2.279,2.28c-1.26,0-2.279-1.021-2.279-2.28C162.694,440.744,163.713,439.724,164.973,439.724z M153.477,455.737
		c0-1.26,1.021-2.28,2.28-2.28s2.279,1.021,2.279,2.28c0,1.259-1.021,2.279-2.279,2.279S153.477,456.996,153.477,455.737z
		 M158.061,460.301c0,1.26-1.021,2.28-2.279,2.28c-1.26,0-2.279-1.021-2.279-2.28c0-1.259,1.02-2.279,2.279-2.279
		C157.041,458.021,158.061,459.042,158.061,460.301z M153.454,464.861c0-1.26,1.021-2.28,2.279-2.28c1.26,0,2.279,1.021,2.279,2.28
		c0,1.259-1.02,2.279-2.279,2.279C154.474,467.141,153.454,466.12,153.454,464.861z M155.805,471.7c-1.26,0-2.279-1.021-2.279-2.28
		c0-1.259,1.02-2.279,2.279-2.279c1.259,0,2.279,1.021,2.279,2.279C158.084,470.68,157.064,471.7,155.805,471.7z M160.316,476.363
		c-1.259,0-2.28-1.021-2.28-2.279c0-1.26,1.021-2.28,2.28-2.28s2.28,1.021,2.28,2.28
		C162.596,475.343,161.575,476.363,160.316,476.363z M164.901,480.77c-1.26,0-2.28-1.021-2.28-2.28c0-1.259,1.021-2.279,2.28-2.279
		c1.258,0,2.279,1.021,2.279,2.279C167.18,479.749,166.159,480.77,164.901,480.77z M169.459,480.873c-1.26,0-2.279-1.021-2.279-2.28
		c0-1.259,1.02-2.279,2.279-2.279s2.279,1.021,2.279,2.279C171.739,479.853,170.719,480.873,169.459,480.873z M174.02,480.761
		c-1.26,0-2.28-1.021-2.28-2.28c0-1.259,1.021-2.279,2.28-2.279c1.258,0,2.279,1.021,2.279,2.279
		C176.299,479.74,175.278,480.761,174.02,480.761z M178.579,480.864c-1.26,0-2.279-1.021-2.279-2.28c0-1.259,1.02-2.279,2.279-2.279
		s2.279,1.021,2.279,2.279C180.858,479.844,179.838,480.864,178.579,480.864z M184.816,479.959
		c-0.444,0.252-0.896,0.493-1.357,0.715c-0.105,0.015-0.21,0.032-0.319,0.032c-1.26,0-2.28-1.021-2.28-2.28
		c0-1.259,1.021-2.279,2.28-2.279c1.258,0,2.279,1.021,2.279,2.279C185.418,479.019,185.186,479.554,184.816,479.959z
		 M187.673,476.245c-1.259,0-2.28-1.021-2.28-2.279c0-1.26,1.021-2.28,2.28-2.28s2.28,1.021,2.28,2.28
		C189.954,475.225,188.932,476.245,187.673,476.245z M187.721,471.686c-0.952,0-1.766-0.585-2.106-1.414
		c-0.464,0.553-0.974,1.063-1.509,1.547c0.76,0.369,1.287,1.142,1.287,2.044c0,1.259-1.02,2.279-2.279,2.279
		c-1.185,0-2.146-0.906-2.258-2.062c-0.009,0.005-0.02,0.01-0.029,0.015c-0.04,1.224-1.039,2.205-2.272,2.205
		c-0.686,0-1.293-0.309-1.711-0.787c-0.489,0.1-0.988,0.175-1.493,0.228c-0.38,0.283-0.846,0.456-1.355,0.456
		c-0.49,0-0.941-0.158-1.313-0.422c-0.538-0.035-1.068-0.097-1.591-0.187c-0.415,0.441-1.001,0.721-1.655,0.721
		c-1.141,0-2.078-0.841-2.245-1.936c-0.026-0.012-0.051-0.024-0.076-0.036c-0.194,1.062-1.119,1.868-2.238,1.868
		c-1.259,0-2.279-1.021-2.279-2.279c0-0.78,0.393-1.467,0.989-1.878c-0.464-0.4-0.899-0.83-1.313-1.282
		c-0.407,0.624-1.108,1.038-1.909,1.038c-1.259,0-2.279-1.021-2.279-2.28c0-1.09,0.766-1.998,1.788-2.224
		c-0.018-0.034-0.033-0.07-0.051-0.105c-1.033-0.217-1.81-1.133-1.81-2.229c0-0.547,0.2-1.042,0.521-1.435
		c-0.154-0.727-0.243-1.475-0.291-2.234c-0.117-0.274-0.182-0.575-0.182-0.892c0-0.302,0.062-0.59,0.169-0.854
		c0.038-0.797,0.118-1.583,0.271-2.344c-0.288-0.382-0.465-0.852-0.465-1.366c0-1.045,0.706-1.916,1.665-2.186
		c0.027-0.06,0.057-0.119,0.085-0.178c-0.978-0.257-1.702-1.139-1.702-2.197c0-1.259,1.021-2.279,2.28-2.279
		c-1.259,0-2.28-1.021-2.28-2.279c0-1.26,1.021-2.28,2.28-2.28s2.28,1.021,2.28,2.28c0,1.259-1.021,2.279-2.28,2.279
		c0.749,0,1.409,0.366,1.824,0.925c0.466-0.517,0.958-1.007,1.488-1.458c-0.621-0.407-1.032-1.106-1.032-1.904
		c0-1.26,1.021-2.28,2.279-2.28c1.147,0,2.086,0.85,2.246,1.952c0.028-0.013,0.056-0.027,0.083-0.04
		c0.218-1.033,1.134-1.809,2.23-1.809c0.608,0,1.158,0.242,1.567,0.631c0.498-0.087,1.003-0.149,1.516-0.187
		c0.398-0.343,0.91-0.557,1.477-0.557c0.604,0,1.15,0.239,1.559,0.623c0.45,0.055,0.897,0.121,1.335,0.213
		c0.417-0.447,1.006-0.732,1.666-0.732c1.214,0,2.197,0.951,2.267,2.148c0.006,0.002,0.012,0.005,0.018,0.008
		c-0.001-0.012-0.004-0.022-0.004-0.034c0-1.26,1.021-2.28,2.279-2.28c1.26,0,2.279,1.021,2.279,2.28
		c0,0.983-0.626,1.813-1.499,2.134c0.595,0.521,1.155,1.08,1.664,1.686c0.336-0.841,1.154-1.437,2.115-1.437
		c-1.259,0-2.28-1.021-2.28-2.279c0-1.26,1.021-2.28,2.28-2.28s2.28,1.021,2.28,2.28c0,1.259-1.021,2.279-2.28,2.279
		c1.259,0,2.28,1.021,2.28,2.279c0,1.26-1.021,2.28-2.28,2.28c-0.031,0-0.061-0.008-0.092-0.01c0.002,0.005,0.004,0.01,0.006,0.014
		c0.013,0,0.025-0.004,0.038-0.004c1.258,0,2.279,1.021,2.279,2.28c0,0.766-0.381,1.439-0.961,1.853
		c0.057,0.317,0.109,0.635,0.146,0.958c0.508,0.418,0.839,1.044,0.839,1.753c0,0.707-0.329,1.332-0.834,1.75
		c-0.037,0.33-0.093,0.654-0.149,0.978c0.564,0.415,0.936,1.078,0.936,1.833c0,1.259-1.021,2.279-2.28,2.279
		c-0.002,0.003-0.003,0.005-0.004,0.008c0.025-0.001,0.05-0.008,0.075-0.008c1.26,0,2.28,1.021,2.28,2.279
		C190.001,470.665,188.981,471.686,187.721,471.686z M194.526,469.086c0.018,0.115,0.035,0.23,0.035,0.35
		c0,0.868-0.49,1.613-1.203,1.998c-0.321,0.174-0.685,0.282-1.076,0.282c-1.26,0-2.279-1.021-2.279-2.28
		c0-1.259,1.02-2.279,2.279-2.279C193.42,467.156,194.357,467.994,194.526,469.086z M192.209,467.156
		c-1.259,0-2.279-1.021-2.279-2.279c0-1.26,1.021-2.28,2.279-2.28c1.26,0,2.279,1.021,2.279,2.28
		C194.489,466.136,193.469,467.156,192.209,467.156z"/>
	<path d="M174.475,474.212c1.48-0.065,2.901-0.365,4.226-0.861c0.334-0.588,1.088-2.081,1.729-4.464h-5.954V474.212z"/>
	<path d="M180.491,472.529c1.661-0.912,3.115-2.157,4.273-3.643h-3.041C181.33,470.435,180.88,471.642,180.491,472.529z"/>
	<path d="M181.455,461.321h-6.979v6.329h6.256C181.112,465.915,181.399,463.802,181.455,461.321z"/>
	<path d="M182.7,460.085h4.983c-0.054-2.42-0.729-4.687-1.876-6.648h-3.768C182.41,455.288,182.674,457.507,182.7,460.085z"/>
	<path d="M182.691,461.321c-0.052,2.457-0.317,4.573-0.683,6.329h3.619c1.153-1.863,1.875-4.02,2.028-6.329H182.691z"/>
	<path d="M180.77,453.437h-6.295v6.648h6.988C181.436,457.49,181.154,455.267,180.77,453.437z"/>
	<path d="M178.692,447.434c-1.322-0.495-2.739-0.793-4.217-0.858v5.625h6.004C179.827,449.66,179.036,448.057,178.692,447.434z"/>
	<path d="M184.995,452.2c-1.2-1.628-2.747-2.984-4.532-3.959c0.41,0.948,0.892,2.263,1.305,3.959H184.995z"/>
	<path d="M167.519,452.2h5.72v-5.625c-1.347,0.06-2.643,0.314-3.863,0.733C169.084,447.816,168.223,449.465,167.519,452.2z"/>
	<path d="M167.267,467.65h5.972v-6.329h-6.694C166.6,463.802,166.886,465.915,167.267,467.65z"/>
	<path d="M166.535,460.085h6.704v-6.648h-6.009C166.844,455.267,166.563,457.49,166.535,460.085z"/>
	<path d="M169.371,473.477c1.222,0.42,2.52,0.676,3.868,0.735v-5.325h-5.67C168.261,471.464,169.087,472.999,169.371,473.477z"/>
	<path d="M167.618,448.052c-1.938,0.985-3.617,2.411-4.898,4.148h3.512C166.672,450.392,167.192,449.009,167.618,448.052z"/>
	<path d="M165.959,453.437h-4.053c-1.146,1.962-1.822,4.229-1.876,6.648h5.268C165.324,457.507,165.588,455.288,165.959,453.437z"/>
	<path d="M165.307,461.321h-5.249c0.154,2.31,0.875,4.466,2.028,6.329h3.903C165.625,465.895,165.36,463.778,165.307,461.321z"/>
	<path d="M162.95,468.887c1.244,1.595,2.827,2.909,4.643,3.835c-0.408-0.9-0.895-2.173-1.317-3.835H162.95z"/>
</g>
<g>
</g>
<g>
</g>
<g>
</g>
<g>
</g>
<g>
</g>
<g>
</g>
<g>
</g>
<g>
</g>
<g>
</g>
<g>
</g>
<g>
</g>
<g>
</g>
<g>
</g>
<g>
</g>
<g>
</g>
</svg>
