<?xml version="1.0" encoding="iso-8859-1"?>
<!-- Generator: Adobe Illustrator 16.0.0, SVG Export Plug-In . SVG Version: 6.00 Build 0)  -->
<!DOCTYPE svg PUBLIC "-//W3C//DTD SVG 1.1//EN" "http://www.w3.org/Graphics/SVG/1.1/DTD/svg11.dtd">
<svg version="1.1" id="Layer_1" xmlns="http://www.w3.org/2000/svg" xmlns:xlink="http://www.w3.org/1999/xlink" x="0px" y="0px"
	 width="49.312px" height="47.213px" viewBox="0 0 49.312 47.213" style="enable-background:new 0 0 49.312 47.213;"
	 xml:space="preserve">
<g>
	<path d="M197.359,536.332l-0.005-0.181c-0.034-2.176-0.358-4.327-0.964-6.392c-0.216-0.74-0.473-1.482-0.764-2.205
		c-0.582-1.448-1.309-2.845-2.16-4.151c-0.379-0.583-0.792-1.161-1.228-1.717c-1.187-1.517-2.555-2.892-4.065-4.087
		c-0.549-0.434-1.073-0.815-1.601-1.167c-3.963-2.639-8.574-4.033-13.335-4.033c-4.199,0-8.345,1.107-11.986,3.203
		c-0.587,0.337-1.158,0.696-1.697,1.068c-1.552,1.073-2.978,2.326-4.235,3.722c-0.494,0.549-0.961,1.114-1.388,1.684
		c-1.213,1.617-2.221,3.388-2.995,5.264c-0.297,0.715-0.563,1.459-0.79,2.212c-0.619,2.047-0.961,4.188-1.016,6.366l-0.007,0.219
		c-0.004,0.129-0.009,0.257-0.009,0.387c0,0.696,0.034,1.411,0.104,2.186c0.238,2.636,0.906,5.196,1.984,7.612
		c0.55,1.229,1.198,2.41,1.928,3.509c4.345,6.543,11.61,10.578,19.437,10.795l0.226,0.006l0.003,0.043l0.357-0.031l0.058,0.003
		c0.001,0,0.003,0,0.004,0c7.659,0,14.927-3.688,19.469-9.865c0.764-1.039,1.452-2.155,2.046-3.318
		c1.371-2.683,2.217-5.554,2.513-8.534c0.08-0.8,0.121-1.609,0.121-2.404C197.363,536.46,197.361,536.396,197.359,536.332z
		 M195.457,540.769c-0.133,0.7-0.304,1.388-0.5,2.065l-1.584,0.874v1.049l0.598,0.805c-0.105,0.241-0.215,0.48-0.329,0.719
		l-0.93,0.025l-0.053-0.749l0.22,0.093l0.533-0.057l-0.055-0.691l-1.474,0.019l-0.405-0.543l0.023-0.284l-0.396-0.362
		c0.058-0.19,0.12-0.38,0.173-0.57l1.287,1.253l0.138-0.449l-1.006-1.461c1.312-0.677,2.42-1.327,3.372-1.986l0.503-0.349
		L195.457,540.769z M172.305,552.995l0.014,0.272l-0.273-0.01c-0.742-0.028-1.482-0.076-2.218-0.139l0.546-0.988l0.753-0.17v-0.898
		l0.498-0.6l0.531-0.739C172.2,550.811,172.25,551.903,172.305,552.995z M159.566,525.803l-0.182-0.129l0.107-0.195
		c0.917-1.669,2.023-3.344,3.289-4.977l0.148-0.192l0.196,0.145c0.744,0.546,1.583,1.041,2.494,1.473l0.209,0.099l-0.083,0.217
		c-0.055,0.142-0.097,0.282-0.149,0.423l-0.159,0.005l-1.546,0.806l-0.582,1.053l-1.021,0.406l-0.431,0.479l0.1,0.551l0.525,0.075
		l0.319,0.811l0.909-0.376l0.153,1.083h-0.278l-0.748-0.111l-0.361,0.061c-0.836-0.401-1.622-0.853-2.36-1.338l-0.047-0.232
		l-0.23,0.048C159.749,525.923,159.654,525.865,159.566,525.803z M177.093,537.065c-0.556-0.267-2.704-1.303-2.704-1.355
		c0-0.06,0.016-1.165,0.016-1.165h0.627l0.093,0.805l1.313,0.767l1.504,0.074l2.444,0.407
		C179.308,536.809,178.206,536.954,177.093,537.065z M160.444,542.354h0.941l0.515,0.525l1.15,0.121
		c0.03,0.21,0.055,0.422,0.088,0.632l0.061,0.378l-0.371-0.097c-1.206-0.314-2.375-0.69-3.509-1.11h0.649L160.444,542.354z
		 M168.309,534.722l-1.077-0.815l-1.132,0.113v0.702h-0.36l-0.386-0.281l-1.034-0.267c0.051-0.498,0.114-1.001,0.188-1.509
		l0.21,0.049l0.563-0.239l-0.011-0.688l0.25-0.126l-0.202-0.218l-0.556-0.315c0.047-0.253,0.09-0.504,0.142-0.758l0.056-0.271
		l0.058,0.019l0.108,0.109l0.829,0.725l0.035,0.877l0.857,0.927l0.316-1.271l0.595-0.329l0.109,1.04l0.58,0.646l1.749-0.029
		l0.518,0.395v0.927l-0.637,0.59H168.309z M164.928,531.927l-0.211,0.288l-0.142-0.008c0.025-0.157,0.046-0.313,0.073-0.473
		L164.928,531.927z M183.731,543.594c0.089-0.561,0.163-1.123,0.228-1.687l0.118,0.028l0.539-0.796l0.298-2.261l0.553-1.217
		l0.901-0.341l1.586,0.154l1.986,1.795v2.486c-1.822,0.85-3.806,1.563-5.897,2.117l-0.372,0.099L183.731,543.594z M185.051,522.025
		l-1.244-0.756c0.155-0.092,0.318-0.171,0.471-0.267l0.195-0.124l0.139,0.186c0.238,0.319,0.465,0.64,0.691,0.961H185.051z
		 M177.939,523.396l0.004,0.231l-0.74,0.225l-0.042-0.327C177.421,523.486,177.68,523.443,177.939,523.396z M171.672,537.237
		c-0.18-0.008-0.358-0.027-0.537-0.038l-0.699-1.339l0.176-0.208l1.292,1.596L171.672,537.237z M171.636,523.784l-0.065-0.191
		c0.124,0.016,0.247,0.034,0.372,0.047L171.636,523.784z M170.816,523.944l-0.738,0.584l-1.798-0.052l-0.08-0.401l1.878-0.085
		l0.388-0.337l-0.771-0.363c0.421,0.09,0.848,0.165,1.277,0.229L170.816,523.944z M167.235,522.614l0.007-0.017l0.045,0.016
		L167.235,522.614z M158.138,528.279h0.318l0.91-0.656l0.015-0.177c0.147,0.096,0.292,0.193,0.443,0.286l-0.327,0.068l-0.073,0.779
		h0.645l0.855-0.085l0.071-0.086c0.106,0.058,0.219,0.11,0.327,0.166l-0.112,0.162l-1.148,0.184l-0.165,0.997l0.484,0.116
		l-0.137,0.641l-1.14-0.231l-1.045,0.231l-0.221,0.594l0.18,1.237l0.614,0.291l1.024-0.006l0.695-0.063l0.214-0.563l1.083-1.434
		l0.715,0.147l0.702-0.646l0.133,0.507l0.105,0.072c-0.115,0.623-0.236,1.247-0.32,1.863l-2.08,0.164l-0.773,0.421h-0.984
		l-0.486-0.051l-0.808,0.457c-0.352-0.186-0.702-0.373-1.04-0.572l-0.154-0.091l0.036-0.176
		C157.003,531.333,157.495,529.808,158.138,528.279z M158.698,527.015l0.008-0.016l0.015,0.011L158.698,527.015z M156.744,534.737
		c0.234,0.13,0.479,0.249,0.719,0.373v0.053l-1.168,0.857c0.016-0.337,0.039-0.688,0.079-1.09l0.038-0.377L156.744,534.737z
		 M157.895,543.844c1.725,0.698,3.56,1.281,5.454,1.734l0.153,0.037l0.032,0.154c0.196,0.923,0.434,1.855,0.699,2.793l-0.381,0.739
		l0.055,0.75l0.646,0.654v1.646c-1.063-0.22-2.114-0.47-3.122-0.759l-0.087-0.025l-0.052-0.075c-1.63-2.428-2.885-4.896-3.728-7.335
		l-0.18-0.521L157.895,543.844z M173.5,544.989c-0.004-0.166-0.006-0.327-0.009-0.493l0.57-0.554l2.277-3.313l-0.441-0.206
		l-2.365,0.505l-0.097-0.049c-0.002-0.315-0.005-0.63-0.006-0.942l0.276,0.282l1.158-0.077l2.121-1.561
		c1.695-0.16,3.36-0.428,4.979-0.811v0.21l-0.099,1.032l0.737,1.231c-0.101,1.299-0.265,2.613-0.506,3.933l-0.03,0.166l-0.165,0.034
		c-2.633,0.543-5.375,0.83-8.15,0.855l-0.246,0.002L173.5,544.989z M183.339,545.713l0.032-0.154l0.153-0.037
		c1.938-0.471,3.817-1.082,5.588-1.816l0.511-0.212l-0.179,0.522c-0.874,2.571-2.205,5.172-3.954,7.73l-0.052,0.077l-0.091,0.024
		c-1.129,0.298-2.362,0.563-3.665,0.786l-0.429,0.074l0.152-0.408C182.231,550.098,182.88,547.881,183.339,545.713z
		 M194.378,531.632h0.699l0.284,0.22c0.192,0.909,0.328,1.826,0.408,2.745l-1.409-1.504l-0.025-1.424
		C194.349,531.656,194.364,531.645,194.378,531.632z M186.933,518.825l0.157-0.172l0.183,0.145c1.266,1.004,2.411,2.139,3.428,3.373
		l-0.732,0.755l-0.368-0.028l-1.155-0.872h-1.288c-0.415-0.624-0.845-1.246-1.304-1.858l-0.141-0.187l0.178-0.152
		C186.28,519.494,186.63,519.157,186.933,518.825z M183.191,516.225c0.906,0.446,1.712,0.904,2.463,1.399l0.249,0.164l-0.205,0.217
		c-0.19,0.201-0.405,0.39-0.621,0.577l-0.272,0.239l-0.164-0.2c-0.562-0.685-1.148-1.358-1.743-2.002l-0.913-0.988L183.191,516.225z
		 M177.851,514.385c0.246,0.052,0.491,0.106,0.734,0.165l0.105,0.055c0.546,0.474,2.498,2.228,4.694,4.897l0.183,0.224l-0.246,0.149
		c-0.76,0.46-1.572,0.856-2.416,1.177l-0.227,0.086l-0.093-0.224c-1.111-2.672-2.246-4.825-3.004-6.161l-0.272-0.48L177.851,514.385
		z M173.86,521.992c0.146-3.449,0.292-6.151,0.389-7.811l0.015-0.249l0.25,0.014c0.255,0.016,0.508,0.031,0.761,0.054l0.125,0.012
		l0.065,0.107c0.597,0.976,2.146,3.63,3.644,7.201l0.112,0.269l-0.282,0.07c-0.775,0.195-1.564,0.342-2.361,0.441l-0.641-0.16
		l-0.059,0.226c-0.584,0.052-1.171,0.087-1.761,0.087h-0.261L173.86,521.992z M171.492,513.969l0.128-0.009
		c0.225-0.016,0.45-0.022,0.676-0.03l0.466-0.015l-0.016,0.273c-0.096,1.645-0.239,4.319-0.384,7.724l-0.012,0.264l-0.263-0.025
		c-1.365-0.135-2.72-0.422-4.025-0.852l-0.259-0.085l0.107-0.251c1.463-3.424,2.944-5.955,3.514-6.885L171.492,513.969z
		 M168.128,514.511l0.381-0.105c0.185-0.04,0.371-0.075,0.558-0.11l0.532-0.102l-0.269,0.471c-0.707,1.242-1.774,3.246-2.84,5.741
		l-0.103,0.239l-0.235-0.112c-0.832-0.398-1.514-0.791-2.084-1.201l-0.221-0.158l0.176-0.207c1.962-2.312,3.655-3.845,4.208-4.327
		L168.128,514.511z M161.988,516.907c0.653-0.376,1.361-0.731,2.164-1.085l1.136-0.501l-0.854,0.901
		c-0.519,0.547-1.037,1.126-1.543,1.719l-0.182,0.213l-0.314-0.334c-0.169-0.178-0.337-0.356-0.48-0.545l-0.173-0.226
		L161.988,516.907z M155.97,521.931c1.266-1.497,2.723-2.825,4.329-3.95l0.199-0.139l0.145,0.194
		c0.275,0.369,0.602,0.745,0.969,1.117l0.154,0.156l-0.135,0.174c-1.258,1.61-2.37,3.273-3.307,4.944l-0.154,0.276l-0.233-0.215
		c-0.785-0.725-1.452-1.483-1.982-2.256l-0.108-0.157L155.97,521.931z M151.909,528.991c0.678-1.914,1.615-3.732,2.786-5.405
		l0.196-0.28l0.207,0.272c0.619,0.811,1.37,1.599,2.231,2.344l0.146,0.126l-0.083,0.172c-0.899,1.862-1.575,3.729-2.008,5.547
		l-0.086,0.363l-0.303-0.218c-1.153-0.83-2.175-1.728-3.036-2.668l-0.102-0.111L151.909,528.991z M150.662,537.933l-0.007-0.108
		c-0.025-0.431-0.04-0.864-0.04-1.301c0-1.794,0.218-3.597,0.646-5.359l0.104-0.424l0.313,0.304
		c0.934,0.905,2.011,1.768,3.203,2.563l0.131,0.087l-0.022,0.156c-0.132,0.931-0.202,1.793-0.216,2.638
		c-0.021,1.272,0.078,2.598,0.295,3.94l0.082,0.512l-0.451-0.254c-1.469-0.824-2.799-1.727-3.954-2.684L150.662,537.933z
		 M154.244,548.73l-0.059-0.031l-0.035-0.055c-1.578-2.477-2.643-5.192-3.165-8.072l-0.109-0.604l0.5,0.354
		c1.237,0.878,2.615,1.696,4.097,2.432l0.101,0.05l0.029,0.109c0.655,2.438,1.7,4.903,3.104,7.325l0.353,0.606l-0.656-0.247
		C156.933,550.045,155.534,549.416,154.244,548.73z M162.53,556.437c-2.121-1.146-4.032-2.607-5.683-4.344l-0.793-0.834l1.068,0.431
		c0.937,0.377,1.965,0.739,3.146,1.106l0.082,0.025l0.049,0.07c0.757,1.085,1.578,2.149,2.44,3.163l0.865,1.017L162.53,556.437z
		 M167.799,558.478c-0.232-0.058-0.464-0.118-0.694-0.184l-0.099-0.055c-0.187-0.167-1.874-1.706-3.851-4.197l-0.442-0.558
		l0.694,0.158c0.633,0.146,1.298,0.275,1.989,0.399v1.122h1.244c0.459,1.024,0.937,2.022,1.438,2.952l0.27,0.5L167.799,558.478z
		 M172.401,559.125c-0.655-0.024-1.325-0.079-1.992-0.162l-0.12-0.015l-0.063-0.104c-0.311-0.512-1.127-1.92-2.057-3.958
		l0.367-0.383c1.208,0.135,2.431,0.227,3.637,0.268l0.228,0.008l0.014,0.228c0.089,1.552,0.175,2.861,0.244,3.852l0.02,0.277
		L172.401,559.125z M173.809,553.066c-0.003-0.063-0.006-0.128-0.009-0.191l0.293-0.479l1.121-1.672l0.537-2.621h-0.684
		l-0.663,1.349l-0.762-0.101c-0.032-0.792-0.063-1.585-0.088-2.368l-0.008-0.255l0.255-0.003c2.522-0.025,5.067-0.274,7.564-0.742
		l0.378-0.07l-0.089,0.374c-0.514,2.177-1.212,4.373-2.075,6.527l-0.056,0.138l-0.147,0.018c-1.787,0.213-3.576,0.325-5.317,0.334
		l-0.238,0.001L173.809,553.066z M176.625,558.866l-0.117,0.017c-0.672,0.099-1.373,0.168-2.083,0.205l-0.245,0.013l-0.017-0.245
		c-0.068-0.964-0.155-2.253-0.244-3.788l-0.015-0.263l0.263-0.002c1.401-0.01,2.832-0.084,4.253-0.221l0.433-0.041l-0.181,0.395
		c-0.863,1.886-1.614,3.208-1.985,3.828L176.625,558.866z M180.207,558.007l-0.096,0.057c-0.296,0.095-0.598,0.177-0.899,0.258
		l-0.627,0.17l0.273-0.511c0.597-1.116,1.167-2.305,1.694-3.533l0.055-0.128l0.139-0.021c1.027-0.151,1.869-0.298,2.65-0.461
		l0.682-0.142l-0.436,0.543C182.075,556.191,180.717,557.524,180.207,558.007z M188.921,552.807
		c-1.163,1.12-2.509,2.146-4.001,3.052l-1.254,0.76l0.931-1.133c0.619-0.752,1.218-1.535,1.779-2.327l0.051-0.071l0.085-0.024
		c0.816-0.233,1.521-0.453,2.153-0.672l1.072-0.37L188.921,552.807z M191.729,549.536l-0.039,0.055l-0.061,0.028
		c-0.965,0.442-2.031,0.866-3.262,1.296l-0.646,0.226l0.35-0.59c1.135-1.91,2.041-3.845,2.712-5.776l1.063,1.324l0.388,0.133v0.186
		h-0.516l0.128,0.415l1.481,0.065C192.857,547.805,192.328,548.688,191.729,549.536z M195.806,538.035l-0.007,0.109l-0.086,0.068
		c-0.755,0.607-1.598,1.181-2.476,1.732l-0.001-0.007l-1.172-0.959c0.055-0.555,0.086-1.101,0.099-1.643l0.043-0.059l0.69,0.226
		l-0.057,0.478l0.396,0.616l0.351-0.253l-0.193-0.729l1.933-0.705l0.534-0.454c0,0.022,0.002,0.045,0.002,0.067
		C195.863,536.982,195.845,537.463,195.806,538.035z"/>
	<polygon points="185.309,542.354 185.401,541.473 184.726,541.339 184.241,542.035 184.471,542.671 	"/>
</g>
<g>
</g>
<g>
</g>
<g>
</g>
<g>
</g>
<g>
</g>
<g>
</g>
<g>
</g>
<g>
</g>
<g>
</g>
<g>
</g>
<g>
</g>
<g>
</g>
<g>
</g>
<g>
</g>
<g>
</g>
</svg>
