<?xml version="1.0" encoding="iso-8859-1"?>
<!-- Generator: Adobe Illustrator 16.0.0, SVG Export Plug-In . SVG Version: 6.00 Build 0)  -->
<!DOCTYPE svg PUBLIC "-//W3C//DTD SVG 1.1//EN" "http://www.w3.org/Graphics/SVG/1.1/DTD/svg11.dtd">
<svg version="1.1" id="Layer_1" xmlns="http://www.w3.org/2000/svg" xmlns:xlink="http://www.w3.org/1999/xlink" x="0px" y="0px"
	 width="49.312px" height="47.213px" viewBox="0 0 49.312 47.213" style="enable-background:new 0 0 49.312 47.213;"
	 xml:space="preserve">
<g>
	<polygon points="105.674,524.898 105.72,525.265 105.175,525.378 105.101,526.16 105.76,526.16 106.634,526.075 107.085,525.538 
		106.606,525.349 106.344,525.049 105.946,524.407 105.76,523.502 105.014,523.655 104.805,523.972 104.805,524.334 
		105.164,524.579 	"/>
	<polygon points="105.043,525.198 105.083,524.71 104.647,524.521 104.036,524.66 103.584,525.387 103.584,525.858 104.11,525.858 	
		"/>
	<path d="M124.961,535.842l-0.005-0.181c-0.034-2.176-0.358-4.327-0.964-6.392c-0.216-0.74-0.473-1.482-0.764-2.205
		c-0.582-1.448-1.309-2.845-2.16-4.151c-0.379-0.583-0.792-1.161-1.228-1.717c-1.187-1.517-2.555-2.892-4.065-4.087
		c-0.549-0.434-1.073-0.815-1.601-1.167c-3.963-2.639-8.574-4.033-13.335-4.033c-4.199,0-8.345,1.107-11.986,3.203
		c-0.587,0.337-1.158,0.696-1.697,1.068c-1.552,1.073-2.978,2.326-4.235,3.722c-0.494,0.549-0.961,1.114-1.388,1.684
		c-1.145,1.527-2.1,3.194-2.856,4.954l-0.022,0.027l-0.002,0.027c-0.037,0.086-0.079,0.168-0.115,0.255
		c-0.297,0.715-0.563,1.459-0.79,2.212c-0.619,2.047-0.961,4.188-1.016,6.366l-0.007,0.219c-0.004,0.129-0.009,0.257-0.009,0.387
		c0,0.696,0.034,1.411,0.104,2.186c0.238,2.636,0.906,5.196,1.984,7.612c0.55,1.229,1.198,2.41,1.928,3.509
		c4.345,6.543,11.61,10.578,19.437,10.795l0.226,0.006l0.003,0.043l0.357-0.031l0.058,0.003c0.001,0,0.003,0,0.004,0
		c7.659,0,14.927-3.688,19.469-9.865c0.764-1.039,1.452-2.155,2.046-3.318c1.371-2.683,2.217-5.554,2.513-8.534
		c0.08-0.8,0.121-1.609,0.121-2.404C124.965,535.97,124.963,535.905,124.961,535.842z M95.73,514.021l0.381-0.105
		c0.185-0.04,0.371-0.075,0.558-0.11l0.532-0.102l-0.269,0.471c-0.704,1.236-1.765,3.229-2.826,5.709l-1.37-0.605l-0.327,0.037
		c-0.26-0.156-0.516-0.313-0.739-0.474l-0.221-0.158l0.176-0.207c1.962-2.312,3.655-3.845,4.208-4.327L95.73,514.021z
		 M86.065,523.271l0.387-0.227c-0.104,0.173-0.206,0.347-0.306,0.521L86.065,523.271z M91.307,556.581l-0.522-0.282l0.155-0.149
		L91.307,556.581z M91.742,526.66l-0.125-0.018l-0.423-0.14v-0.41l0.225-0.185h0.494l0.042,0.019
		C91.884,526.172,91.809,526.417,91.742,526.66z M91.391,526.957l0.168,0.211l0.053-0.059c-0.021,0.08-0.05,0.163-0.071,0.243
		l-0.072,0.278l-0.266-0.109c-0.205-0.085-0.402-0.179-0.602-0.269l0.42-0.396L91.391,526.957z M90.937,529.011l0.194,0.078
		l-0.044,0.205c-0.398,1.892-0.658,3.768-0.772,5.577l-0.02,0.322l-0.307-0.101c-1.726-0.563-3.354-1.272-4.867-2.1l-0.031-0.553
		l0.692-0.697l1.399-0.917l0.094-0.647l1.394-1.448l0.733-0.407C89.902,528.565,90.41,528.799,90.937,529.011z M86.543,526.757
		l0.469,0.424l-0.469,0.113V526.757z M86.927,527.479v0.451l-0.34,0.22l-0.422,0.076c0,0,0-0.678,0-0.747H86.927z M86.236,528.453
		l0.521-0.072v0.438l-0.325,0.324h-0.721l0.114-0.493l0.339-0.028L86.236,528.453z M88.027,528.227v0.438h-0.72l-0.197-0.284v-0.409
		h0.058L88.027,528.227z M87.365,527.623l0.204-0.216l0.347,0.216l-0.278,0.229L87.365,527.623z M86.304,526.829v0.465h-0.348
		c0.069-0.155,0.13-0.31,0.203-0.465H86.304z M84.286,524.978l-0.183,0.72l-0.581,0.186l-0.366-0.751l0.594-0.28L84.286,524.978z
		 M83.876,536.022c0.008-0.479,0.04-0.981,0.1-1.582l0.038-0.377l0.332,0.184c1.771,0.98,3.701,1.798,5.733,2.43l0.177,0.055
		l-0.001,0.185c-0.002,0.567,0.012,1.137,0.035,1.706l-0.473-0.23l-0.036,0.395l-1.338,0.078l-0.491-0.68L86.56,537.9l-1.148,1.327
		L84.06,539C83.928,537.992,83.86,536.996,83.876,536.022z M97.576,543.702l-0.583-0.962l-1.996-0.018l-1.583-0.602l-0.075-1.13
		l-0.53-0.926l-0.925-0.012c-0.075-0.872-0.126-1.738-0.137-2.589l-0.004-0.323l0.313,0.077c2.349,0.578,4.781,0.924,7.229,1.029
		l0.239,0.011v0.239c0,1.907,0.025,3.915,0.075,5.966l0.007,0.266l-0.266-0.01c-0.342-0.013-0.683-0.037-1.024-0.059l0.144-0.678
		L97.576,543.702z M99.551,535.266c-0.007,0.412-0.012,0.822-0.016,1.233l-0.003,0.26l-0.258-0.012
		c-2.484-0.111-4.941-0.476-7.303-1.083l-0.197-0.051l0.01-0.204c0.089-1.771,0.332-3.633,0.722-5.53l0.056-0.271l0.265,0.084
		c2.067,0.652,4.28,1.07,6.577,1.242l0.237,0.018l-0.006,0.237C99.603,532.514,99.573,533.875,99.551,535.266z M93.072,521.357
		l-1.308,0.697l1.363,0.321c-0.177,0.475-0.343,0.948-0.504,1.422h-0.264l0.114-1.02l-1.614-0.381l-0.668,0.504v1.541l-1.201,0.381
		l-0.481,1.003l-0.46,0.072c-0.021-0.014-0.042-0.028-0.063-0.042v-1.23l-0.632-0.088c0.521-0.914,1.097-1.827,1.724-2.733
		l0.093,0.646l0.552-0.029l0.043-0.335l0.575-0.081l0.009-0.117l-0.246-0.102l-0.057-0.354l0.709-0.059l0.426-0.445l0.025-0.031
		l0.003,0.003l0.132-0.136l0.504-0.063C92.237,520.934,92.647,521.151,93.072,521.357z M90.441,519.937l0.054,0.996l-0.717-0.109
		c0.2-0.271,0.397-0.543,0.605-0.812L90.441,519.937z M90.519,519.836l0.013-0.017l0.008,0.006L90.519,519.836z M84.253,520.686
		l0.819,0.021l0.207,0.49l-1.439-0.053C83.975,520.989,84.113,520.837,84.253,520.686z M79.555,534.38l0.6-1.107l1.385-0.701h0.197
		c0.25,0.181,0.484,0.37,0.747,0.545l0.131,0.087l-0.022,0.156c-0.089,0.629-0.14,1.221-0.174,1.802l-1.621,1.082l-1.091-0.131
		l-0.39-0.854L79.555,534.38z M82.383,536.223c-0.001,0.157,0.012,0.319,0.014,0.478l-0.245-0.042L82.383,536.223z M84.977,539.633
		l0.167,1.412l-0.488,0.342c-0.022-0.01-0.045-0.019-0.066-0.028l-0.111-0.052l-0.027-0.119c-0.126-0.541-0.225-1.08-0.31-1.617
		L84.977,539.633z M87.671,547.957v1.086c-0.354-0.605-0.684-1.212-0.989-1.819C87.094,547.521,87.671,547.957,87.671,547.957z
		 M94.43,550.14l0.434-0.752l1.3,0.039l0.875-0.691l0.273-2.641c0.698,0.058,1.399,0.104,2.103,0.129l0.233,0.008l0.008,0.234
		c0.063,1.982,0.147,4.015,0.251,6.039l0.014,0.272l-0.273-0.01c-1.556-0.059-3.107-0.194-4.61-0.403l-0.145-0.021l-0.054-0.135
		c-0.068-0.172-0.129-0.345-0.195-0.517l0.107-0.138L94.43,550.14z M99.883,523.422c-0.069,1.778-0.136,3.716-0.194,5.768
		l-0.008,0.263l-0.262-0.021c-2.207-0.169-4.325-0.574-6.295-1.203l-0.225-0.072l0.059-0.228c0.168-0.659,0.374-1.328,0.577-1.996
		l0.297,0.076v0.368l-0.365,0.253l0.054,0.404l1.259,0.388c0,0,0.001,0.006,0.003,0.015l0.288-0.024l0.019-0.547l-0.996-0.453
		l-0.058-0.264l0.828-0.28l0.035-0.791l-0.863-0.527l-0.007-0.162c0.232-0.686,0.463-1.371,0.727-2.056l0.087-0.225l0.228,0.078
		c1.455,0.497,2.998,0.826,4.585,0.978l0.235,0.022L99.883,523.422z M89.59,516.417c0.653-0.376,1.361-0.731,2.164-1.085
		l1.136-0.501l-0.854,0.901c-0.519,0.547-1.037,1.126-1.543,1.719l-0.182,0.213l-0.314-0.334c-0.169-0.178-0.337-0.356-0.48-0.545
		l-0.173-0.226L89.59,516.417z M87.901,517.49l0.199-0.139l0.145,0.194c0.275,0.369,0.602,0.745,0.969,1.117l0.154,0.156
		l-0.135,0.174c-0.104,0.133-0.2,0.268-0.302,0.401l-0.111-0.006l-0.434,0.131l-0.188,0.51l0.226,0.038
		c-0.16,0.22-0.314,0.441-0.469,0.662l-0.267,0.016l-0.151,0.378l-1.392,0.035c0,0-0.039-0.788-0.094-0.788
		c-0.058,0,1.09-0.02,1.09-0.02l0.831-0.811l-0.455-0.228l-0.601,0.586l-0.996-0.056l-0.35-0.48
		C86.306,518.689,87.084,518.063,87.901,517.49z M78.264,537.442l-0.007-0.108c-0.009-0.147-0.008-0.297-0.014-0.444l1.35,0.334
		v-0.319l0.791,0.11l-0.076,0.566l0.623,0.114l0.96,0.263l0.632,0.721c0.044,0.418,0.081,0.836,0.149,1.259l0.082,0.512
		l-0.451-0.254c-1.469-0.824-2.799-1.727-3.954-2.684L78.264,537.442z M81.846,548.24l-0.059-0.031l-0.035-0.055
		c-1.578-2.477-2.643-5.192-3.165-8.072l-0.109-0.604l0.5,0.354c1.237,0.878,2.615,1.696,4.097,2.432l0.101,0.05l0.029,0.109
		c0.655,2.438,1.7,4.903,3.104,7.325l0.353,0.606l-0.656-0.247C84.535,549.555,83.136,548.926,81.846,548.24z M83.656,550.769
		l1.068,0.431c0.937,0.377,1.965,0.739,3.146,1.106l0.082,0.025l0.049,0.07c0.016,0.023,0.034,0.046,0.051,0.069l-0.232,1.287
		l0.792,1.054l-0.019,0.224c-1.514-0.978-2.903-2.127-4.144-3.433L83.656,550.769z M95.401,557.987
		c-0.232-0.058-0.464-0.118-0.694-0.184l-0.099-0.055c-0.154-0.139-1.342-1.228-2.866-3.008l1.145-0.55l0.329-0.601
		c0.152,0.026,0.295,0.055,0.452,0.081l0.135,0.022l0.055,0.127c0.569,1.336,1.183,2.616,1.824,3.805l0.27,0.5L95.401,557.987z
		 M100.003,558.635c-0.655-0.024-1.325-0.079-1.992-0.162l-0.12-0.015l-0.063-0.104c-0.313-0.516-1.139-1.939-2.077-4.002
		l-0.183-0.402L96.007,554c1.251,0.144,2.519,0.237,3.769,0.28l0.228,0.008l0.014,0.228c0.089,1.552,0.175,2.861,0.244,3.852
		l0.02,0.277L100.003,558.635z M100.348,513.698c-0.096,1.645-0.239,4.319-0.384,7.724l-0.012,0.264l-0.263-0.025
		c-1.365-0.135-2.72-0.422-4.025-0.852l-0.259-0.085l0.107-0.251c1.463-3.424,2.944-5.955,3.514-6.885l0.067-0.109l0.128-0.009
		c0.225-0.016,0.45-0.022,0.676-0.03l0.466-0.015L100.348,513.698z M101.05,535.359h0.255l-0.131,0.735l-0.133,0.049
		C101.043,535.882,101.046,535.62,101.05,535.359z M108.824,522.024l0.23-0.09c0.046-0.018,0.09-0.043,0.137-0.061l-0.12,0.212
		l-0.196,0.077L108.824,522.024z M108.164,530.324c0.388-0.085,0.778-0.164,1.162-0.265l0.258-0.067l0.051,0.262
		c0.098,0.497,0.162,0.982,0.239,1.473l-0.715-0.182v-1.298L108.164,530.324z M117.077,529.483h-0.75l-1.464-0.062l-0.441,0.062
		v-1.001l0.33-0.368l0.355-0.111l0.777-0.092l0.17-0.264l0.318,0.158l0.044,0.91l0.456,0.188
		C116.942,529.097,117.011,529.29,117.077,529.483z M111.813,529.426l0.877,0.932l0.324-1.276l0.608-0.332l0.112,1.046l0.594,0.649
		l1.788-0.03l0.528,0.397v0.932l-0.648,0.593h-1.81l-1.103-0.82l-1.157,0.115v0.705h-0.367l-0.062-0.044
		c-0.11-0.826-0.248-1.656-0.413-2.486l-0.004-0.268l0.162-0.056c0.191-0.065,0.376-0.141,0.565-0.21L111.813,529.426z
		 M110.971,528.006l-0.26,0.091l-0.066-0.268c-0.026-0.107-0.063-0.216-0.09-0.323h0.065l0.311,0.31l0.166,0.143
		C111.054,527.974,111.013,527.991,110.971,528.006z M120.061,530.151l0.066-0.303l0.492-0.423v-0.356l-0.944-0.688l-0.038-0.875
		l0.191-0.433l0.76-0.064l0.65,0.271l0.028,0.452l-0.922-0.051l-0.046,0.418l1.158,0.772v0.565l0.115,0.085
		c-0.239,0.229-0.47,0.461-0.729,0.686L120.061,530.151z M112.872,521.631l-1.122,0.687v0.451l0.635,0.296l0.042,0.607l-0.895,1.333
		l-1.556-0.015l-0.098-0.323l0.973-0.494l0.007-1.843l1.653-1.152h0.136c0.075,0.104,0.151,0.207,0.224,0.312V521.631z
		 M108.961,528.333l0.299,0.202l0,0.001l-0.238,0.063c-0.729,0.191-1.473,0.344-2.223,0.477l0.577-0.751l0.73,0.148l0.718-0.65
		L108.961,528.333z M106.148,530.694l-0.324,0.173h-1.007l-0.049-0.005C105.23,530.815,105.69,530.761,106.148,530.694z
		 M110.182,548.246l0.163,0.162v1.813l0.864,1.163v0.388c-0.621,0.133-1.263,0.258-1.923,0.371l-0.429,0.074l0.152-0.408
		C109.453,550.622,109.842,549.432,110.182,548.246z M116.94,534.574c0.157-0.082,0.313-0.164,0.467-0.248l0.854,1.037
		c0.013,0.226,0.024,0.449,0.028,0.659c0.006,0.351-0.003,0.706-0.017,1.063L116.94,534.574z M120.415,532.406
		c0.112-0.083,0.228-0.164,0.337-0.248h0.308l0.094,0.81l1.344,0.771l0.845,0.041c0.034,0.331,0.066,0.662,0.085,0.993l-0.126-0.016
		c0,0-2.899-1.366-2.899-1.428C120.402,533.288,120.41,532.737,120.415,532.406z M114.535,518.335l0.157-0.172l0.183,0.145
		c1.098,0.871,2.105,1.842,3.018,2.888l-0.306,0.142l-0.219-0.63l-0.358,0.094l-0.261,0.698l-0.753,0.587l-0.888-0.024
		c-0.099-0.155-0.205-0.309-0.307-0.463l1.195-0.053l0.394-0.34l-2.315-1.074l-0.285,0.009c-0.112-0.154-0.219-0.311-0.334-0.464
		l-0.141-0.187l0.178-0.152C113.882,519.004,114.232,518.667,114.535,518.335z M110.793,515.734
		c0.906,0.446,1.712,0.904,2.463,1.399l0.249,0.164l-0.205,0.217c-0.19,0.201-0.405,0.39-0.621,0.577l-0.272,0.239l-0.164-0.2
		c-0.562-0.685-1.148-1.358-1.743-2.002l-0.913-0.988L110.793,515.734z M105.453,513.895c0.246,0.052,0.491,0.106,0.734,0.165
		l0.105,0.055c0.546,0.474,2.498,2.228,4.694,4.897l0.183,0.224l-0.246,0.149c-0.76,0.46-1.572,0.856-2.416,1.177l-0.227,0.086
		l-0.093-0.224c-1.111-2.672-2.246-4.825-3.004-6.161l-0.272-0.48L105.453,513.895z M101.462,521.502
		c0.146-3.449,0.292-6.151,0.389-7.811l0.015-0.249l0.25,0.014c0.255,0.016,0.508,0.031,0.761,0.054l0.125,0.012l0.065,0.107
		c0.597,0.976,2.146,3.63,3.644,7.201l0.112,0.269l-0.282,0.07c-1.567,0.395-3.189,0.594-4.821,0.594h-0.261L101.462,521.502z
		 M101.187,529.265c0.059-2.05,0.125-3.987,0.193-5.764l0.01-0.24l0.294,0.001c0.003,0,0.006,0,0.01,0
		c1.876,0,3.701-0.24,5.462-0.714l0.22-0.059l0.08,0.212c0.064,0.171,0.114,0.341,0.176,0.511l0.058,0.318l0.054,0.008
		c0.183,0.512,0.364,1.024,0.529,1.535l-0.527,0.088l-0.819,1.158l-1.174,0.184l-0.169,1.003l0.495,0.117l-0.14,0.644l-1.166-0.232
		l-1.068,0.232l-0.226,0.597l0.09,0.607c-0.613,0.038-1.23,0.058-1.851,0.058l-0.539-0.01L101.187,529.265z M101.14,531.019
		l0.579,0.01c0.808,0,1.61-0.043,2.408-0.105l-1.033,0.575v1.281l-2.021,1.46c0.019-1.003,0.038-2.009,0.062-2.975L101.14,531.019z
		 M101.102,544.499c-0.051-2.037-0.076-4.046-0.076-5.972v-0.121l1.937,2.206h0.941l0.057-0.15h1.696l0.487-0.451h0.962l0.527,0.527
		l1.432,0.148l-0.189,1.903l0.724,1.278l-0.095,0.02c-2.633,0.543-5.375,0.83-8.15,0.855l-0.246,0.002L101.102,544.499z
		 M101.411,552.576c-0.104-2.031-0.189-4.078-0.254-6.083l-0.008-0.255l0.255-0.003c2.522-0.025,5.067-0.274,7.564-0.742l0.378-0.07
		l-0.089,0.374c-0.514,2.177-1.212,4.373-2.075,6.527l-0.056,0.138l-0.147,0.018c-1.787,0.213-3.576,0.325-5.317,0.334l-0.238,0.001
		L101.411,552.576z M104.227,558.376l-0.117,0.017c-0.672,0.099-1.373,0.168-2.083,0.205l-0.245,0.013l-0.017-0.245
		c-0.068-0.964-0.155-2.253-0.244-3.788l-0.015-0.263l0.263-0.002c1.401-0.01,2.832-0.084,4.253-0.221l0.433-0.041l-0.181,0.395
		c-0.863,1.886-1.614,3.208-1.985,3.828L104.227,558.376z M107.809,557.517l-0.096,0.057c-0.296,0.095-0.598,0.177-0.899,0.258
		l-0.627,0.17l0.273-0.511c0.597-1.116,1.167-2.305,1.694-3.533l0.055-0.128l0.139-0.021c1.027-0.151,1.869-0.298,2.65-0.461
		l0.682-0.142l-0.436,0.543C109.677,555.701,108.319,557.034,107.809,557.517z M116.523,552.316
		c-1.163,1.12-2.509,2.146-4.001,3.052l-1.254,0.76l0.931-1.133c0.605-0.735,1.189-1.501,1.739-2.274l0.132-0.136l0.044-0.013
		c0.816-0.233,1.521-0.453,2.153-0.672l1.072-0.37L116.523,552.316z M123.059,540.278c-0.366,1.925-0.977,3.768-1.816,5.514h-0.146
		l-0.678,1.355l-1.167-0.151v0.905l0.415,0.489l-0.318,0.488l-0.278,0.321c-0.923,0.417-1.936,0.818-3.1,1.225h-0.001l0.328-0.584
		l0.77-0.17v-0.903l0.509-0.604l1.073-1.47l-0.226-2.235l-0.063-0.111c0.185-0.526,0.341-1.053,0.49-1.578l1.217-1.161l0-0.001
		c0.983-0.533,1.843-1.055,2.604-1.581l0.503-0.349L123.059,540.278z M123.408,537.545l-0.007,0.109l-0.086,0.068
		c-0.346,0.278-0.726,0.544-1.099,0.812l0.18-0.257l-0.451-0.208l-2.285,0.48c0.023-0.229,0.061-0.461,0.077-0.688l1.151-0.076
		l2.478-1.792l0.096-0.063c0,0.034,0.003,0.067,0.003,0.102C123.465,536.492,123.447,536.973,123.408,537.545z"/>
</g>
<g>
</g>
<g>
</g>
<g>
</g>
<g>
</g>
<g>
</g>
<g>
</g>
<g>
</g>
<g>
</g>
<g>
</g>
<g>
</g>
<g>
</g>
<g>
</g>
<g>
</g>
<g>
</g>
<g>
</g>
</svg>
