<?xml version="1.0" encoding="iso-8859-1"?>
<!-- Generator: Adobe Illustrator 16.0.0, SVG Export Plug-In . SVG Version: 6.00 Build 0)  -->
<!DOCTYPE svg PUBLIC "-//W3C//DTD SVG 1.1//EN" "http://www.w3.org/Graphics/SVG/1.1/DTD/svg11.dtd">
<svg version="1.1" id="Layer_1" xmlns="http://www.w3.org/2000/svg" xmlns:xlink="http://www.w3.org/1999/xlink" x="0px" y="0px"
	 width="49.312px" height="47.213px" viewBox="0 0 49.312 47.213" style="enable-background:new 0 0 49.312 47.213;"
	 xml:space="preserve">
<g>
	<path d="M-58.943,552.233l-0.445-7.48l-2.661-0.971l-0.045,5.494l-4.772-4.464l-0.607-5.479l-2.619-1.545l0.119,8.104l4.676,6.908
		l1.032,2.268l-1.764-0.01l-0.018,3.637l9.268,0.049l0.016-3.637l-1.633-0.009L-58.943,552.233z M-57.878,557.634l-7.061-0.037
		l0.006-1.429l7.062,0.036L-57.878,557.634z"/>
	<path d="M-42.742,544.818l-4.842,4.39l0.041-5.493l-2.678,0.928l-0.56,7.473l-0.592,2.856l-1.634-0.018l-0.039,3.637l9.268,0.095
		l0.038-3.637l-1.764-0.018l1.067-2.251l4.783-6.836l0.244-8.1l-2.643,1.504L-42.742,544.818z M-44.852,556.142l-0.016,1.43
		l-7.061-0.071l0.015-1.431L-44.852,556.142z"/>
	<path d="M-42.514,536.65c0.257-0.31,0.502-0.631,0.735-0.961c1.77-2.496,2.813-5.542,2.813-8.83c0-3.285-1.044-6.331-2.813-8.829
		c-0.233-0.33-0.477-0.65-0.735-0.96c-2.812-3.372-7.041-5.523-11.765-5.523c-0.008,0-0.015,0-0.022,0c-0.005,0-0.009,0-0.014,0
		c-0.018,0-0.035,0.002-0.053,0.002c-4.687,0.027-8.881,2.173-11.674,5.522c-0.258,0.31-0.502,0.63-0.735,0.96
		c-1.77,2.497-2.814,5.542-2.814,8.828c0,3.288,1.045,6.334,2.814,8.83c0.233,0.329,0.478,0.651,0.735,0.959
		c2.793,3.351,6.987,5.496,11.674,5.522c0.018,0,0.035,0.003,0.053,0.003c0.004,0,0.009-0.001,0.014-0.001
		c0.007,0,0.015,0.001,0.022,0.001C-49.555,542.174-45.326,540.022-42.514,536.65z M-58.755,513.538
		c-1.408,1.357-2.577,3.343-3.383,5.725c-1.08-0.403-2.052-0.889-2.89-1.438C-63.385,515.873-61.224,514.37-58.755,513.538z
		 M-65.765,518.785c0.952,0.636,2.052,1.191,3.27,1.649c-0.525,1.919-0.826,4.049-0.837,6.297h-4.999
		C-68.305,523.775-67.354,521.039-65.765,518.785z M-68.286,527.988h4.978c0.081,1.88,0.366,3.666,0.813,5.298
		c-1.217,0.457-2.318,1.014-3.269,1.649C-67.174,532.938-68.081,530.562-68.286,527.988z M-65.024,535.894
		c0.838-0.548,1.808-1.032,2.885-1.437c0.806,2.384,1.976,4.367,3.384,5.725C-61.224,539.35-63.381,537.845-65.024,535.894z
		 M-54.907,540.871c-2.578-0.353-4.804-2.998-6.064-6.805c1.817-0.546,3.877-0.877,6.064-0.93V540.871z M-54.907,531.881
		c-2.306,0.056-4.481,0.412-6.417,1.007c-0.396-1.507-0.65-3.158-0.727-4.899h7.144V531.881z M-54.907,526.731h-7.169
		c0.01-2.111,0.286-4.104,0.758-5.896c1.934,0.592,4.107,0.949,6.411,1.004V526.731z M-54.907,520.584
		c-2.186-0.054-4.244-0.384-6.062-0.928c1.262-3.807,3.484-6.453,6.062-6.808V520.584z M-42.792,534.936
		c-0.969-0.647-2.092-1.213-3.337-1.676c0.442-1.625,0.725-3.401,0.806-5.271h5.052C-40.477,530.562-41.383,532.939-42.792,534.936z
		 M-40.226,526.731h-5.072c-0.011-2.238-0.31-4.359-0.831-6.271c1.244-0.463,2.366-1.027,3.335-1.674
		C-41.204,521.04-40.253,523.775-40.226,526.731z M-43.531,517.825c-0.855,0.561-1.849,1.054-2.955,1.461
		c-0.813-2.414-2-4.423-3.429-5.786C-47.399,514.324-45.2,515.845-43.531,517.825z M-53.651,512.858
		c2.55,0.394,4.747,3.035,5.995,6.815c-1.8,0.534-3.834,0.857-5.995,0.91V512.858z M-53.651,521.84
		c2.278-0.055,4.427-0.404,6.343-0.983c0.47,1.785,0.742,3.772,0.753,5.875h-7.097V521.84z M-53.651,527.988h7.071
		c-0.076,1.733-0.329,3.377-0.722,4.878c-1.918-0.582-4.069-0.931-6.349-0.985V527.988z M-53.651,540.861v-7.725
		c2.161,0.053,4.196,0.376,5.998,0.91C-48.901,537.829-51.101,540.468-53.651,540.861z M-49.915,540.221
		c1.429-1.363,2.618-3.37,3.431-5.786c1.104,0.409,2.097,0.9,2.95,1.459C-45.202,537.875-47.399,539.396-49.915,540.221z"/>
</g>
<g>
</g>
<g>
</g>
<g>
</g>
<g>
</g>
<g>
</g>
<g>
</g>
<g>
</g>
<g>
</g>
<g>
</g>
<g>
</g>
<g>
</g>
<g>
</g>
<g>
</g>
<g>
</g>
<g>
</g>
</svg>
