<?xml version="1.0" encoding="iso-8859-1"?>
<!-- Generator: Adobe Illustrator 16.0.0, SVG Export Plug-In . SVG Version: 6.00 Build 0)  -->
<!DOCTYPE svg PUBLIC "-//W3C//DTD SVG 1.1//EN" "http://www.w3.org/Graphics/SVG/1.1/DTD/svg11.dtd">
<svg version="1.1" id="Layer_1" xmlns="http://www.w3.org/2000/svg" xmlns:xlink="http://www.w3.org/1999/xlink" x="0px" y="0px"
	 width="49.312px" height="47.213px" viewBox="0 0 49.312 47.213" style="enable-background:new 0 0 49.312 47.213;"
	 xml:space="preserve">
<g>
	<path d="M-285.199,534.054c5.657,0,11.02,0.412,15.923,1.158c0.001-0.065,0.01-0.128,0.01-0.193c0-8.8-7.134-15.934-15.934-15.934
		s-15.933,7.134-15.933,15.934c0,0.065,0.009,0.128,0.01,0.193C-296.219,534.466-290.856,534.054-285.199,534.054z"/>
	<path d="M-280.837,536.075c-0.122-0.005-0.241-0.012-0.363-0.016c-1.317-0.046-2.647-0.076-4-0.076
		c-1.355,0-2.687,0.03-4.006,0.076c-0.119,0.005-0.235,0.011-0.354,0.016c-7.592,0.288-14.551,1.313-20.4,2.905v2.049
		c0.037-0.01,0.077-0.02,0.114-0.029c0.904-0.068,7.407-0.462,10.66,1.938c0.116,0.085,0.222,0.157,0.322,0.222
		c2.776,4.66,7.845,7.792,13.664,7.792c5.916,0,11.06-3.234,13.804-8.023c0.008-0.006,0.014-0.01,0.022-0.016
		c3.5-2.583,10.773-1.93,10.773-1.93v-2.047C-266.416,537.368-273.316,536.361-280.837,536.075z"/>
</g>
<g>
</g>
<g>
</g>
<g>
</g>
<g>
</g>
<g>
</g>
<g>
</g>
<g>
</g>
<g>
</g>
<g>
</g>
<g>
</g>
<g>
</g>
<g>
</g>
<g>
</g>
<g>
</g>
<g>
</g>
</svg>
