<?xml version="1.0" encoding="iso-8859-1"?>
<!-- Generator: Adobe Illustrator 16.0.0, SVG Export Plug-In . SVG Version: 6.00 Build 0)  -->
<!DOCTYPE svg PUBLIC "-//W3C//DTD SVG 1.1//EN" "http://www.w3.org/Graphics/SVG/1.1/DTD/svg11.dtd">
<svg version="1.1" id="Layer_1" xmlns="http://www.w3.org/2000/svg" xmlns:xlink="http://www.w3.org/1999/xlink" x="0px" y="0px"
	 width="49.312px" height="47.213px" viewBox="0 0 49.312 47.213" style="enable-background:new 0 0 49.312 47.213;"
	 xml:space="preserve">
<g>
	<polygon points="-301.468,618.804 -301.523,618.083 -301.307,618.175 -300.785,618.12 -300.839,617.454 -302.279,617.472 
		-302.675,616.95 -302.654,616.678 -304.509,615.007 -304.96,615.366 -302.315,618.606 -301.937,618.731 -301.937,618.912 
		-302.441,618.912 -302.315,619.311 -299.057,619.452 -300.136,618.769 	"/>
	<polygon points="-297.826,615.149 -298.048,615.056 -298.156,614.501 -298.481,614.501 -298.69,615.063 -298.939,615.285 
		-300.824,616.307 -300.824,617.315 -300.195,618.147 -298.609,618.147 -298.407,617.634 -298.048,617.31 -298.048,617.073 
		-297.826,616.927 	"/>
	<polygon points="-297.826,617.511 -297.826,618.825 -297.339,618.825 -297.412,617.987 -297.033,618.122 -297.033,618.717 
		-296.638,618.681 -296.651,616.927 -297.603,617.297 -297.591,617.511 	"/>
	<polygon points="-294.125,630.113 -293.186,630.216 -292.429,629.799 -292.415,629.228 -293.242,629.137 	"/>
	<polygon points="-285.498,627.597 -285.509,626.716 -286.226,626.759 -286.316,628.138 -286.947,628.567 -288.117,628.729 
		-289.989,630.062 -290.308,630.323 -290.308,630.769 -289.33,630.619 -286.953,629.162 -286.281,628.721 -285.562,628.402 
		-284.84,627.993 -285.107,627.52 	"/>
	<polygon points="-289.498,618.399 -291.819,617.346 -292.468,617.688 -293.072,617.704 -293.026,617.076 -293.601,616.734 
		-294.421,617.554 -293.872,618.229 -292.684,618.399 -292.017,618.749 -292,619.074 -292.432,619.074 -292.415,619.741 
		-290.974,619.649 -290.451,619.093 -289.894,619.038 -289.894,620.064 -288.921,620.064 -288.921,619.649 -289.408,619.649 	"/>
	<polygon points="-296.416,619.169 -296.779,619.169 -296.779,619.364 -296.496,619.452 	"/>
	<rect x="-298.481" y="619.452" width="0.433" height="0.24"/>
	<polygon points="-297.57,619.452 -297.826,619.692 -297.826,619.902 -297.427,619.861 -297.427,619.692 -297.158,619.692 
		-297.158,619.483 -296.962,619.452 -296.962,619.247 -297.394,619.247 	"/>
	<polygon points="-296.119,619.384 -296.162,619.633 -296.712,619.692 -296.74,619.692 -296.74,620.071 -296.32,620.071 
		-296.32,619.882 -295.888,619.882 -295.888,619.659 -295.585,619.692 -295.625,619.311 	"/>
	<path d="M-284.993,586.668c-13.439,0-24.373,10.935-24.373,24.374s10.934,24.374,24.373,24.374s24.373-10.935,24.373-24.374
		S-271.553,586.668-284.993,586.668z M-263.079,615.56l-0.1-0.037l-0.073-1.08l-0.504-0.883l-1.367-0.019l-0.793-1.241l-0.701-0.342
		l-0.036,0.378l-1.278,0.075l-0.469-0.651l-1.331-0.271l-1.099,1.27l-1.729-0.293l-0.126-1.948l-1.261-0.216l0.506-0.954
		l-0.146-0.55l-1.657,1.107l-1.042-0.127l-0.372-0.814l0.228-0.84l0.575-1.06l1.322-0.67l2.557-0.001l-0.008,0.779l0.918,0.428
		l-0.072-1.332l0.661-0.666l1.337-0.877l0.09-0.617l1.333-1.387l1.417-0.784l-0.126-0.103l0.96-0.903l0.352,0.093l0.16,0.203
		l0.038-0.043c1.467,2.977,2.295,6.321,2.295,9.857C-262.62,612.589-262.778,614.101-263.079,615.56z M-274.228,596.8
		c0,0,0.473-0.081,0.514-0.081c0.04,0,0,0.472,0,0.472l-1.066,0.068l-0.203-0.244L-274.228,596.8z M-274.984,596.179v-0.432v-0.041
		h0.473l0.041-0.162h0.773v0.338l-0.221,0.297H-274.984z M-272.986,599.283l0.567-0.27l0.513,0.122l-0.176,0.688l-0.554,0.176
		L-272.986,599.283z M-265.2,600.628l-0.103-0.034v-0.165C-265.267,600.493-265.235,600.562-265.2,600.628z M-268.327,602.241v0.419
		h-0.689l-0.188-0.272v-0.391h0.055L-268.327,602.241z M-268.962,601.665l0.195-0.207l0.332,0.207l-0.265,0.218L-268.962,601.665z
		 M-268.369,600.026v-1.229l-1.078-0.148l-0.541-0.352l-0.217-0.796l1.932-1.13l0.12-0.037c0.642,0.734,1.239,1.509,1.782,2.322
		l-1.039,0.33l-0.46,0.959L-268.369,600.026z M-269.705,602.167l-0.404,0.074c0,0,0-0.648,0-0.716h0.729v0.432L-269.705,602.167z
		 M-269.542,602.388v0.42l-0.311,0.311h-0.689l0.108-0.473l0.325-0.026l0.067-0.162L-269.542,602.388z M-269.746,601.35v-0.514
		l0.446,0.406L-269.746,601.35z M-268.965,595.454l-1.162,0.031c0,0-0.036-0.756-0.09-0.756c-0.027,0,0.236-0.004,0.505-0.01
		C-269.458,594.959-269.208,595.204-268.965,595.454z M-270.164,600.647v0.257h0.188v0.445h-1.295l-0.485-0.135l0.12-0.311
		l0.622-0.257H-270.164z M-270.344,594.226l-0.145-0.199c0.079,0.068,0.157,0.136,0.235,0.205L-270.344,594.226z M-271.257,601.525
		h0.715l-0.917,1.282l-0.379-0.203l0.082-0.539L-271.257,601.525z M-284.993,633.416c-5.761,0-11.019-2.189-14.989-5.778
		l2.311-0.795l2.336-0.094l0.864,1.901l2.652,0.092l2.556-2.403l0.63-1.438l-0.261-1.063l-0.971-0.831l-0.072-1.584l-0.641-1.098
		l-0.575-0.026l-0.235,1.988l-1.1-0.081l-0.307-0.186l-0.039-0.789l0.583,0.119l0.491-0.479l-1.045-0.628h-1.229l-0.883,1.252h-0.36
		V621.1l-1.058,0.08l-1.674,1.907l-0.888,0.012l-0.989,0.684l-0.072,2.951l-0.484,0.47c-4.262-4.076-6.925-9.812-6.925-16.161
		c0-0.282,0.011-0.563,0.021-0.842l1.222,0.117l1.943,1.727v2.484l2.566,2.457l0.135-0.432l-2.08-2.971l0.217-0.863l1.1,1.246
		l0.611,0.063l0.807-0.536l-0.133-0.811l-1.332-1.07l-0.055-0.973l0.38-0.512l0.675,0.215l-0.055,0.46l0.387,0.593l0.342-0.242
		l-0.188-0.702l1.889-0.677l0.829-0.691l-0.126-1.252l-1.646-1.727l-0.027-1.404h0.729l2.268,1.729l0.64-0.172l-0.423-0.558
		l-1.215-0.738l0.072-1.097l1.439,0.001l0.117-1.36l-0.549-0.723l0.324-0.351l0.701,0.703l0.225-0.298l-0.899-1.026l-2.241-0.271
		l-0.297-0.593l0.648-0.919l0.513,0.378l1.538,0.136l1.945-1.297l0.324,0.406l-0.434,0.675v0.675l1.783,1.457l0.568-0.296
		l-0.217-0.972l-1.268-1.188l1.672-0.108v-0.486l0.811-0.162l-0.621-0.428l0.027-0.328l1.701,0.275l0.324-0.275l-2.296-0.972
		l-8.37-0.433l-0.783-0.395l-0.104-0.016c4.081-4.311,9.849-7.007,16.238-7.007c5.194,0,9.977,1.784,13.778,4.766h-0.93
		l-1.278,0.954h1.171l0.107,0.342l-0.306,0.288l1.296,0.036l0.198,0.467l-1.459-0.053l-0.071-0.36l-0.918-0.198l-0.486-0.27
		l-2.16,0.018l-0.666,0.648l-0.45-0.036l-0.503-0.288l-1.496-0.45h-2.736l-1.584,1.079l-1.061,0.164l-0.487,0.377l0.756,0.113v0.301
		h-1.62l-0.63,0.449l0.81,0.686l2.215,0.018l0.307-0.324h1.854l0.666,0.594l-0.035,0.919l0.558,0.522l-0.468,0.332l0.107,1.215
		l-1.674,2.035v1.908l0.9,0.432v1.714l0.863,1.474l0.702,0.107l0.09-0.504l-0.827-1.279l-0.162-1.241h0.486l0.205,1.278l1.197,1.746
		l-0.31,0.564l0.761,1.164l1.891,0.468v-0.307l0.756,0.108l-0.072,0.539l0.594,0.109l0.918,0.251l1.297,1.478l1.656,0.125
		l0.161,1.35l-1.134,0.793l-0.054,1.207l-0.161,0.736l1.638,2.054l0.126,0.701c0,0,0.594,0.161,0.666,0.161s1.332,0.955,1.332,0.955
		v3.709l0.451,0.127l-0.201,1.117C-272.516,630.573-278.428,633.416-284.993,633.416z"/>
</g>
<g>
</g>
<g>
</g>
<g>
</g>
<g>
</g>
<g>
</g>
<g>
</g>
<g>
</g>
<g>
</g>
<g>
</g>
<g>
</g>
<g>
</g>
<g>
</g>
<g>
</g>
<g>
</g>
<g>
</g>
</svg>
