<?xml version="1.0" encoding="iso-8859-1"?>
<!-- Generator: Adobe Illustrator 16.0.0, SVG Export Plug-In . SVG Version: 6.00 Build 0)  -->
<!DOCTYPE svg PUBLIC "-//W3C//DTD SVG 1.1//EN" "http://www.w3.org/Graphics/SVG/1.1/DTD/svg11.dtd">
<svg version="1.1" id="Layer_1" xmlns="http://www.w3.org/2000/svg" xmlns:xlink="http://www.w3.org/1999/xlink" x="0px" y="0px"
	 width="49.312px" height="47.213px" viewBox="0 0 49.312 47.213" style="enable-background:new 0 0 49.312 47.213;"
	 xml:space="preserve">
<g>
	<polygon points="-194.764,600.147 -195.386,600.404 -195.506,600.715 -195.021,600.85 -193.726,600.85 -193.726,600.404 
		-193.914,600.404 -193.914,600.147 	"/>
	<path d="M-194.003,593.731c-0.078-0.069-0.156-0.137-0.235-0.205l0.145,0.199L-194.003,593.731z"/>
	<polygon points="-195.588,602.104 -195.209,602.308 -194.292,601.025 -195.007,601.025 -195.506,601.565 	"/>
	<path d="M-193.738,597.798l0.541,0.352l1.078,0.148v1.229l0.499-0.08l0.46-0.959l1.039-0.33c-0.543-0.813-1.141-1.588-1.782-2.322
		l-0.12,0.037l-1.932,1.13L-193.738,597.798z"/>
	<polygon points="-193.292,602.308 -193.292,601.888 -193.792,601.957 -193.859,602.119 -194.184,602.146 -194.292,602.618 
		-193.603,602.618 	"/>
	<path d="M-192.419,620.603c0,0-1.26-0.955-1.332-0.955s-0.666-0.161-0.666-0.161l-0.126-0.701l-1.638-2.054l0.161-0.736
		l0.054-1.207l1.134-0.793l-0.161-1.35l-1.656-0.125l-1.297-1.478l-0.918-0.251l-0.594-0.109l0.072-0.539l-0.756-0.108v0.307
		l-1.891-0.468l-0.761-1.164l0.31-0.564l-1.197-1.746l-0.205-1.278h-0.486l0.162,1.241l0.827,1.279l-0.09,0.504l-0.702-0.107
		l-0.863-1.474v-1.714l-0.9-0.432v-1.908l1.674-2.035l-0.107-1.215l0.468-0.332l-0.558-0.522l0.035-0.919l-0.666-0.594h-1.854
		l-0.307,0.324l-2.215-0.018l-0.81-0.686l0.63-0.449h1.62v-0.301l-0.756-0.113l0.487-0.377l1.061-0.164l1.584-1.079h2.736
		l1.496,0.45l0.503,0.288l0.45,0.036l0.666-0.648l2.16-0.018l0.486,0.27l0.918,0.198l0.071,0.36l1.459,0.053l-0.198-0.467
		l-1.296-0.036l0.306-0.288l-0.107-0.342h-1.171l1.278-0.954h0.93c-3.802-2.981-8.584-4.766-13.778-4.766
		c-6.39,0-12.157,2.696-16.238,7.007l0.104,0.016l0.783,0.395l8.37,0.433l2.296,0.972l-0.324,0.275l-1.701-0.275l-0.027,0.328
		l0.621,0.428l-0.811,0.162v0.486l-1.672,0.108l1.268,1.188l0.217,0.972l-0.568,0.296l-1.783-1.457v-0.675l0.434-0.675l-0.324-0.406
		l-1.945,1.297l-1.538-0.136l-0.513-0.378l-0.648,0.919l0.297,0.593l2.241,0.271l0.899,1.026l-0.225,0.298l-0.701-0.703
		l-0.324,0.351l0.549,0.723l-0.117,1.36l-1.439-0.001l-0.072,1.097l1.215,0.738l0.423,0.558l-0.64,0.172l-2.268-1.729h-0.729
		l0.027,1.404l1.646,1.727l0.126,1.252l-0.829,0.691l-1.889,0.677l0.188,0.702l-0.342,0.242l-0.387-0.593l0.055-0.46l-0.675-0.215
		l-0.38,0.512l0.055,0.973l1.332,1.07l0.133,0.811l-0.807,0.536l-0.611-0.063l-1.1-1.246l-0.217,0.863l2.08,2.971l-0.135,0.432
		l-2.566-2.457v-2.484l-1.943-1.727l-1.222-0.117c-0.011,0.279-0.021,0.56-0.021,0.842c0,6.35,2.663,12.085,6.925,16.161l0.484-0.47
		l0.072-2.951l0.989-0.684l0.888-0.012l1.674-1.907l1.058-0.08v0.396h0.36l0.883-1.252h1.229l1.045,0.628l-0.491,0.479l-0.583-0.119
		l0.039,0.789l0.307,0.186l1.1,0.081l0.235-1.988l0.575,0.026l0.641,1.098l0.072,1.584l0.971,0.831l0.261,1.063l-0.63,1.438
		l-2.556,2.403l-2.652-0.092l-0.864-1.901l-2.336,0.094l-2.311,0.795c3.971,3.589,9.229,5.778,14.989,5.778
		c6.564,0,12.477-2.843,16.573-7.36l0.201-1.117l-0.451-0.127V620.603z M-220.401,616.427l0.013,1.754l-0.395,0.036v-0.595
		l-0.379-0.135l0.072,0.838h-0.486v-1.314h0.234l-0.012-0.214L-220.401,616.427z M-226.065,618.811l-0.126-0.398h0.504v-0.181
		l-0.378-0.125l-2.646-3.24l0.451-0.359l1.855,1.671l-0.021,0.272l0.396,0.521l1.439-0.018l0.055,0.666l-0.522,0.055l-0.216-0.092
		l0.055,0.721l1.332-0.035l1.079,0.684L-226.065,618.811z M-221.798,619.192h-0.433v-0.24h0.433V619.192z M-221.798,616.573v0.236
		l-0.358,0.324l-0.202,0.514h-1.586l-0.629-0.832v-1.009l1.885-1.021l0.249-0.222l0.209-0.563h0.325l0.107,0.555l0.223,0.094v1.777
		L-221.798,616.573z M-220.712,618.952l-0.195,0.031v0.209h-0.27v0.169l-0.398,0.041v-0.21l0.256-0.24l0.176-0.205h0.432V618.952z
		 M-220.529,618.669h0.363l-0.08,0.283l-0.283-0.088V618.669z M-219.638,619.159v0.223h-0.432v0.189h-0.42v-0.379h0.027l0.551-0.06
		l0.043-0.249l0.494-0.073l0.039,0.382L-219.638,619.159z M-212.671,619.564h-0.973v-1.026l-0.557,0.055l-0.523,0.557l-1.44,0.092
		l-0.018-0.667h0.433l-0.018-0.325l-0.667-0.35l-1.188-0.171l-0.55-0.675l0.82-0.819l0.575,0.342l-0.046,0.628l0.604-0.016
		l0.649-0.343l2.321,1.054l0.09,1.25h0.486V619.564z M-216.179,629.299l-0.757,0.417l-0.938-0.103l0.883-0.977l0.827,0.091
		L-216.179,629.299z M-209.312,627.902l-0.719,0.318l-0.672,0.441l-2.377,1.457l-0.979,0.149v-0.445l0.319-0.262l1.872-1.332
		l1.17-0.162l0.631-0.43l0.09-1.379l0.717-0.043l0.012,0.881l0.391-0.077l0.267,0.474L-209.312,627.902z"/>
	<polygon points="-192.955,601.497 -192.955,601.888 -192.766,602.16 -192.077,602.16 -192.077,601.741 -192.9,601.497 	"/>
	<polygon points="-192.517,600.958 -192.712,601.165 -192.45,601.383 -192.185,601.165 	"/>
	<path d="M-189.052,599.929v0.165l0.103,0.034C-188.985,600.062-189.017,599.993-189.052,599.929z"/>
	<path d="M-198.734,596.515l0.203,0.244l1.066-0.068c0,0,0.04-0.472,0-0.472c-0.041,0-0.514,0.081-0.514,0.081L-198.734,596.515z"/>
	<path d="M-188.665,600.685l-0.038,0.043l-0.16-0.203l-0.352-0.093l-0.96,0.903l0.126,0.103l-1.417,0.784l-1.333,1.387l-0.09,0.617
		l-1.337,0.877l-0.661,0.666l0.072,1.332l-0.918-0.428l0.008-0.779l-2.557,0.001l-1.322,0.67l-0.575,1.06l-0.228,0.84l0.372,0.814
		l1.042,0.127l1.657-1.107l0.146,0.55l-0.506,0.954l1.261,0.216l0.126,1.948l1.729,0.293l1.099-1.27l1.331,0.271l0.469,0.651
		l1.278-0.075l0.036-0.378l0.701,0.342l0.793,1.241l1.367,0.019l0.504,0.883l0.073,1.08l0.1,0.037
		c0.301-1.459,0.459-2.971,0.459-4.518C-186.37,607.006-187.198,603.661-188.665,600.685z"/>
	<path d="M-193.13,601.025h-0.729c0,0.067,0,0.716,0,0.716l0.404-0.074l0.324-0.21V601.025z"/>
	<polygon points="-197.447,595.044 -198.22,595.044 -198.261,595.206 -198.734,595.206 -198.734,595.247 -198.734,595.679 
		-197.667,595.679 -197.447,595.382 	"/>
	<polygon points="-193.496,600.336 -193.496,600.85 -193.049,600.742 	"/>
	<polygon points="-196.736,598.783 -196.385,599.499 -195.832,599.323 -195.656,598.636 -196.168,598.514 	"/>
	<path d="M-192.715,594.954c-0.243-0.25-0.492-0.495-0.747-0.734c-0.269,0.006-0.532,0.01-0.505,0.01c0.054,0,0.09,0.756,0.09,0.756
		L-192.715,594.954z"/>
</g>
<g>
</g>
<g>
</g>
<g>
</g>
<g>
</g>
<g>
</g>
<g>
</g>
<g>
</g>
<g>
</g>
<g>
</g>
<g>
</g>
<g>
</g>
<g>
</g>
<g>
</g>
<g>
</g>
<g>
</g>
</svg>
