<?xml version="1.0" encoding="iso-8859-1"?>
<!-- Generator: Adobe Illustrator 16.0.0, SVG Export Plug-In . SVG Version: 6.00 Build 0)  -->
<!DOCTYPE svg PUBLIC "-//W3C//DTD SVG 1.1//EN" "http://www.w3.org/Graphics/SVG/1.1/DTD/svg11.dtd">
<svg version="1.1" id="Layer_1" xmlns="http://www.w3.org/2000/svg" xmlns:xlink="http://www.w3.org/1999/xlink" x="0px" y="0px"
	 width="49.312px" height="47.213px" viewBox="0 0 49.312 47.213" style="enable-background:new 0 0 49.312 47.213;"
	 xml:space="preserve">
<g>
	<polygon points="-124.001,620.163 -125.333,620.2 -125.388,619.479 -125.172,619.569 -124.649,619.517 -124.704,618.851 
		-126.144,618.868 -126.54,618.346 -126.519,618.073 -128.374,616.401 -128.825,616.761 -126.18,620.001 -125.802,620.128 
		-125.802,620.308 -126.306,620.308 -126.18,620.706 -122.922,620.849 	"/>
	<polygon points="-122.474,619.543 -122.271,619.029 -121.913,618.705 -121.913,618.469 -121.69,618.322 -121.69,616.544 
		-121.913,616.451 -122.021,615.896 -122.346,615.896 -122.555,616.458 -122.804,616.681 -124.688,617.702 -124.688,618.712 
		-124.06,619.543 	"/>
	<polygon points="-121.69,618.906 -121.69,620.221 -121.204,620.221 -121.276,619.382 -120.897,619.518 -120.897,620.112 
		-120.503,620.076 -120.516,618.322 -121.468,618.692 -121.456,618.906 	"/>
	<polygon points="-116.549,619.795 -115.882,620.146 -115.864,620.47 -116.297,620.47 -116.279,621.136 -114.839,621.046 
		-114.315,620.487 -113.759,620.434 -113.759,621.46 -112.786,621.46 -112.786,621.046 -113.272,621.046 -113.362,619.795 
		-115.684,618.741 -116.333,619.084 -116.937,619.099 -116.891,618.472 -117.466,618.13 -118.286,618.948 -117.736,619.624 	"/>
	<polygon points="-133.615,616.095 -133.39,616.706 -132.571,616.401 -132.481,615.556 -133.141,615.425 	"/>
	<polygon points="-143.229,623.225 -144.345,623.081 -144.345,623.944 -143.948,624.413 -144.254,624.88 -144.704,625.403 
		-144.704,626.355 -144.091,626.951 -143.534,626.054 -142.437,624.448 -141.913,621.928 -142.58,621.928 	"/>
	<polygon points="-120.644,620.76 -120.36,620.849 -120.28,620.565 -120.644,620.565 	"/>
	<rect x="-122.346" y="620.849" width="0.433" height="0.24"/>
	<polygon points="-121.435,620.849 -121.69,621.089 -121.69,621.298 -121.292,621.257 -121.292,621.089 -121.022,621.089 
		-121.022,620.878 -120.827,620.849 -120.827,620.644 -121.259,620.644 	"/>
	<polygon points="-120.604,621.089 -120.604,621.467 -120.185,621.467 -120.185,621.277 -119.753,621.277 -119.753,621.056 
		-119.45,621.089 -119.489,620.706 -119.983,620.778 -120.026,621.028 -120.577,621.089 	"/>
	<path d="M-132.356,586.668c-13.439,0-24.373,10.935-24.373,24.374s10.934,24.374,24.373,24.374s24.373-10.935,24.373-24.374
		S-118.917,586.668-132.356,586.668z M-132.356,588.668c7.845,0,14.755,4.062,18.75,10.189l-2.231-0.944l-8.37-0.432l-0.783-0.396
		l-1.244-0.185l-0.934-0.032l-0.848,0.856l-0.357-0.028l-1.127-0.836h-3.32l-1.541-0.919l-3.084,0.195l-2.344,1.048l0.019,1.215
		l-0.722,0.216l-0.162-1.216l-0.268-0.422l-0.812-0.199l-0.188,0.729l0.242,0.594l-2.88-0.188l-1.375,0.639l-0.208-0.603
		l-0.343,0.09l-0.251,0.665l-0.721,0.563l-1.757-0.05l-0.079-0.387l1.836-0.081l0.377-0.323l-2.213-1.027l-0.797,0.024
		C-145.997,592.104-139.572,588.668-132.356,588.668z M-143.939,605.284l-0.035-0.836l0.181-0.414l0.728-0.063l0.621,0.26
		l0.028,0.432l-0.883-0.049l-0.045,0.4l1.107,0.738v0.54l0.478,0.352v0.378l-0.244,0.234l-0.567-0.047l-0.109-0.17l-0.891-0.063
		l0.063-0.289l0.47-0.406v-0.34L-143.939,605.284z M-149.187,609.065l-1.053-0.783l-1.107,0.107v0.676h-0.352l-0.377-0.27
		l-1.918-0.486v-1.242l-0.381,0.029c0.104-0.586,0.228-1.165,0.377-1.734l1.506,1.017l-0.207,0.277l-0.762-0.041l0.294,0.415
		l0.468,0.104l0.551-0.229l-0.01-0.662l0.244-0.123l-0.197-0.207l-1.127-0.629l-0.297-0.836h0.938l0.299,0.297l0.809,0.695
		l0.034,0.842l0.837,0.893l0.311-1.223l0.58-0.316l0.109,1l0.566,0.621l1.709-0.029l0.505,0.38v0.892l-0.62,0.566H-149.187z
		 M-152.374,601.263l0.001-0.198c0.267-0.532,0.55-1.055,0.856-1.562v0.415l0.609,0.284l0.039,0.58l-0.857,1.275l-1.11-0.01
		c0.106-0.24,0.212-0.48,0.326-0.717L-152.374,601.263z M-150.787,598.398h0.344v0.433l-1.059,0.646
		c0.218-0.36,0.448-0.713,0.686-1.059L-150.787,598.398z M-147.141,606.337l-1.401-0.057l-0.419,0.057v-0.956l0.313-0.353
		l0.34-0.105l0.743-0.086l0.163-0.255l0.304,0.151l0.043,0.871l0.813,0.335l0.072,0.397H-147.141z M-147.965,627.05l0.218-0.225
		l0.576-1.026l0.738-0.163v-0.863l0.486-0.576l1.026-1.404l-0.216-2.14l-0.451-0.794l2.022-1.93l2.227-3.184l-0.433-0.199
		l-2.313,0.488l-0.595-0.297l-2.431-4.578l0.172-0.199l2.408,2.926l0.059,0.905l0.558,0.559l1.134-0.073l2.367-1.715l0.742-0.484
		l-0.014-0.595l-0.79-0.103c0,0-2.772-1.307-2.772-1.365c0-0.058,0.017-1.121,0.017-1.121h0.612l0.09,0.774l1.286,0.739l1.468,0.071
		l3.188,0.521l0.746,0.471v0.729l-0.096,0.992l1.633,2.686l0.527,0.122l0.525-0.763l0.291-2.174l0.544-1.17l0.878-0.328l1.549,0.148
		l1.943,1.728v2.485l2.566,2.455l0.135-0.43l-2.08-2.971l0.217-0.865l1.1,1.246l0.611,0.064l0.807-0.536l-0.133-0.81l-1.332-1.071
		l-0.055-0.973l0.38-0.513l0.675,0.217l-0.055,0.459l0.387,0.594l0.342-0.243l-0.188-0.702l1.889-0.676l0.829-0.692l-0.126-1.251
		l-1.646-1.729l-0.027-1.404h0.729l2.268,1.729l0.64-0.172l-0.423-0.557l-1.215-0.738l0.072-1.098l1.439,0.002l0.117-1.359
		l-0.549-0.724l0.324-0.351l0.701,0.703l0.225-0.298l-0.899-1.026l-2.241-0.27l-0.297-0.594l0.648-0.918l0.513,0.377l1.538,0.136
		l1.945-1.296l0.324,0.404l-0.434,0.676v0.676l1.783,1.457l0.568-0.297l-0.217-0.973l-1.268-1.188l1.672-0.108v-0.486l0.811-0.161
		l-0.621-0.428l0.027-0.329l1.701,0.274l0.294-0.248c2.267,3.497,3.589,7.661,3.589,12.131c0,4.602-1.397,8.882-3.788,12.441
		l-0.03-0.666l-0.641-1.096l-0.575-0.027l-0.235,1.988l-1.1-0.082l-0.307-0.185l-0.039-0.788l0.583,0.118l0.491-0.479l-1.045-0.629
		h-1.229l-0.883,1.253h-0.36v-0.396l-1.058,0.08l-1.674,1.907l-0.888,0.012l-0.989,0.684l-0.072,2.952l-0.595,0.576v0.522l2.88-0.99
		l2.336-0.094l0.333,0.733c-3.753,2.846-8.427,4.538-13.489,4.538C-138.424,633.416-143.931,630.985-147.965,627.05z"/>
</g>
<g>
</g>
<g>
</g>
<g>
</g>
<g>
</g>
<g>
</g>
<g>
</g>
<g>
</g>
<g>
</g>
<g>
</g>
<g>
</g>
<g>
</g>
<g>
</g>
<g>
</g>
<g>
</g>
<g>
</g>
</svg>
