<?xml version="1.0" encoding="iso-8859-1"?>
<!-- Generator: Adobe Illustrator 16.0.0, SVG Export Plug-In . SVG Version: 6.00 Build 0)  -->
<!DOCTYPE svg PUBLIC "-//W3C//DTD SVG 1.1//EN" "http://www.w3.org/Graphics/SVG/1.1/DTD/svg11.dtd">
<svg version="1.1" id="Layer_1" xmlns="http://www.w3.org/2000/svg" xmlns:xlink="http://www.w3.org/1999/xlink" x="0px" y="0px"
	 width="49.312px" height="47.213px" viewBox="0 0 49.312 47.213" style="enable-background:new 0 0 49.312 47.213;"
	 xml:space="preserve">
<g>
	<path d="M22.157,592.422c-13.754,0-25.373,8.298-25.373,18.12s11.619,18.121,25.373,18.121s25.374-8.299,25.374-18.121
		S35.911,592.422,22.157,592.422z M-1.216,610.542c0-8.738,10.703-16.12,23.373-16.12s23.374,7.382,23.374,16.12
		c0,2.67-1.004,5.213-2.754,7.458l-0.27,0.017l-0.021,0.345c-0.165,0.198-0.333,0.396-0.51,0.589l-0.419,0.058l-0.941,0.671
		l-0.161,0.13v0.225l0.493-0.076l0.096-0.059c-4.291,4.064-11.228,6.765-18.887,6.765C9.487,626.663-1.216,619.28-1.216,610.542z"/>
	<polygon points="35.512,613.997 34.842,614.016 34.814,613.652 34.923,613.699 35.186,613.671 35.157,613.337 34.434,613.346 
		34.235,613.083 34.246,612.945 33.312,612.104 33.085,612.285 34.416,613.916 34.606,613.979 34.606,614.068 34.353,614.068 
		34.416,614.27 36.054,614.342 	"/>
	<polygon points="36.562,613.146 36.674,613.071 36.674,612.177 36.562,612.13 36.508,611.85 36.344,611.85 36.239,612.133 
		36.114,612.246 35.166,612.76 35.166,613.267 35.482,613.686 36.279,613.686 36.382,613.426 36.562,613.264 	"/>
	<polygon points="37.265,613.071 36.786,613.257 36.792,613.363 36.674,613.363 36.674,614.025 36.918,614.025 36.882,613.604 
		37.073,613.672 37.073,613.971 37.271,613.954 	"/>
	<polygon points="41.298,617.083 41.166,616.548 40.679,616.13 40.642,615.333 40.319,614.781 40.03,614.768 39.912,615.768 
		39.358,615.726 39.204,615.633 39.185,615.236 39.478,615.297 39.725,615.056 39.199,614.738 38.581,614.738 38.137,615.369 
		37.956,615.369 37.956,615.17 37.425,615.21 36.583,616.169 36.136,616.176 35.639,616.519 35.602,618.004 35.303,618.294 
		35.303,618.557 36.753,618.058 37.927,618.012 38.36,618.969 39.694,619.014 40.98,617.805 	"/>
	<polygon points="38.536,619.703 39.007,619.755 39.389,619.546 39.396,619.258 38.979,619.214 	"/>
	<polygon points="39.369,613.454 39.065,613.463 39.089,613.146 38.798,612.975 38.387,613.387 38.662,613.726 39.261,613.812 
		39.595,613.988 39.604,614.15 39.386,614.15 39.396,614.486 40.12,614.44 40.383,614.16 40.663,614.133 40.663,614.649 
		41.153,614.649 41.153,614.44 40.908,614.44 40.863,613.812 39.694,613.281 	"/>
	<polygon points="30.676,611.95 30.79,612.259 31.202,612.104 31.247,611.68 30.915,611.613 	"/>
	<polygon points="25.84,615.537 25.278,615.464 25.278,615.899 25.479,616.135 25.325,616.369 25.097,616.633 25.097,617.112 
		25.405,617.412 25.688,616.96 26.238,616.152 26.502,614.885 26.167,614.885 	"/>
	<polygon points="37.384,614.199 37.201,614.199 37.201,614.297 37.343,614.342 	"/>
	<rect x="36.344" y="614.342" width="0.218" height="0.12"/>
	<polygon points="36.875,614.462 37.01,614.462 37.01,614.356 37.108,614.342 37.108,614.238 36.892,614.238 36.802,614.342 
		36.674,614.462 36.674,614.567 36.875,614.546 	"/>
	<polygon points="37.432,614.557 37.649,614.557 37.649,614.445 37.801,614.462 37.78,614.27 37.533,614.308 37.511,614.432 
		37.234,614.462 37.22,614.462 37.22,614.652 37.432,614.652 	"/>
	<path d="M4.009,604.824l-0.294-0.045c0,0.018,0.022,0.331,0.045,0.331s0.203,0,0.203,0L4.009,604.824z"/>
	<polygon points="18.75,604.838 18.772,605.015 18.511,605.069 18.475,605.444 18.792,605.444 19.212,605.403 19.429,605.146 
		19.199,605.056 19.072,604.91 18.881,604.603 18.792,604.168 18.433,604.239 18.333,604.394 18.333,604.566 18.506,604.685 	"/>
	<polygon points="18.446,604.982 18.466,604.747 18.256,604.656 17.963,604.725 17.745,605.074 17.745,605.3 17.998,605.3 	"/>
	<path d="M33.479,611.864l1.29,1.236l0.068-0.218l-1.046-1.494l0.108-0.436l0.553,0.628l0.309,0.032l0.405-0.27l-0.066-0.407
		l-0.671-0.54l-0.027-0.487l0.19-0.259l0.34,0.109l-0.028,0.23l0.196,0.298l0.172-0.121l-0.095-0.353l0.95-0.341l0.417-0.349
		l-0.064-0.629l-0.828-0.869l-0.013-0.706h0.366l1.14,0.869l0.323-0.086l-0.214-0.28l-0.61-0.371l0.036-0.553l0.725,0.001
		l0.058-0.684l-0.275-0.364l0.163-0.175l0.353,0.353l0.113-0.149l-0.453-0.517l-1.127-0.135l-0.148-0.3l0.326-0.462l0.258,0.19
		l0.773,0.066l0.979-0.651l0.162,0.203l-0.218,0.34v0.34l0.896,0.734l0.286-0.149l-0.108-0.49l-0.638-0.596L39.646,604v-0.244
		l0.407-0.082l-0.313-0.215l0.014-0.165l0.855,0.139l0.162-0.139l-1.154-0.488l-4.209-0.217l-0.395-0.2l-0.626-0.094l-0.47-0.015
		l-0.426,0.431l-0.181-0.014l-0.567-0.422h-1.669l-0.775-0.462l-1.551,0.098l-1.18,0.526l0.01,0.613l-0.363,0.108l-0.081-0.612
		L27,602.335l-0.407-0.101l-0.096,0.367l0.122,0.299l-1.449-0.095l-0.69,0.32l-0.105-0.303l-0.174,0.045l-0.125,0.335l-0.361,0.283
		l-0.885-0.025l-0.04-0.194l0.925-0.041l0.189-0.162l-1.114-0.517l-1.358,0.042l-0.76,0.389l-0.286,0.509l-0.502,0.196l-0.212,0.231
		l0.049,0.268l0.259,0.035l0.156,0.392l0.446-0.181l0.075,0.523h-0.135l-0.368-0.055l-0.407,0.068l-0.394,0.556l-0.564,0.09
		l-0.081,0.481l0.238,0.056l-0.067,0.311l-0.561-0.111l-0.514,0.111l-0.108,0.286l0.089,0.6l0.301,0.14l0.505-0.002l0.342-0.031
		l0.104-0.271l0.532-0.692l0.352,0.07l0.346-0.313l0.065,0.245l0.85,0.574l-0.103,0.14l-0.384-0.021l0.147,0.209l0.236,0.053
		l0.276-0.116l-0.006-0.332l0.124-0.062l-0.101-0.105l-0.566-0.316l-0.149-0.421h0.472l0.15,0.149l0.407,0.351l0.017,0.423
		l0.422,0.448l0.155-0.614l0.293-0.159l0.054,0.503l0.286,0.313l0.858-0.014l0.255,0.19v0.448l-0.312,0.285h-0.871l-0.529-0.395
		l-0.558,0.055v0.34H21.58l-0.189-0.136l-0.965-0.245v-0.625l-1.223,0.096l-0.381,0.203h-0.484l-0.238-0.024l-0.59,0.328v0.616
		l-1.204,0.869l0.101,0.371h0.243l-0.063,0.354l-0.171,0.063l-0.009,0.924l1.039,1.187h0.454l0.026-0.072h0.815l0.235-0.218h0.462
		l0.254,0.254l0.688,0.071l-0.09,0.916l0.766,1.349l-0.404,0.77l0.027,0.362l0.317,0.317v0.87l0.416,0.561v0.725h1.232l0.924-0.951
		l0.289-0.517l0.371-0.081v-0.435l0.245-0.29l0.516-0.706l-0.108-1.076l-0.227-0.4l1.017-0.971l1.12-1.601l-0.217-0.1l-1.163,0.244
		l-0.3-0.148l-1.223-2.303l0.086-0.1l1.213,1.472l0.029,0.455l0.279,0.281l0.569-0.037l1.192-0.863l0.374-0.243l-0.008-0.299
		l-0.397-0.052c0,0-1.396-0.657-1.396-0.688c0-0.028,0.009-0.563,0.009-0.563h0.309l0.045,0.389l0.647,0.371l0.738,0.036
		l1.603,0.263l0.375,0.235v0.367l-0.048,0.499l0.822,1.352l0.265,0.061l0.264-0.384l0.147-1.093l0.273-0.589l0.441-0.165
		l0.779,0.074l0.978,0.87V611.864z M22.212,603.267l-0.539,0.33v0.217l0.305,0.143l0.021,0.292l-0.431,0.642l-0.748-0.007
		l-0.047-0.155l0.468-0.237l0.003-0.887l0.796-0.554h0.173V603.267z M23.873,607.043l-0.704-0.03l-0.212,0.03v-0.481l0.158-0.178
		l0.171-0.054l0.374-0.043l0.08-0.127l0.154,0.075l0.021,0.438l0.409,0.169l0.035,0.2H23.873z M26.579,607.387l-0.123,0.118
		l-0.285-0.022l-0.055-0.087l-0.448-0.031l0.032-0.145l0.235-0.205v-0.171l-0.452-0.331l-0.019-0.421l0.091-0.207l0.366-0.033
		l0.313,0.132l0.014,0.217l-0.443-0.024l-0.022,0.202l0.557,0.37v0.272l0.24,0.176V607.387z"/>
	<path d="M12.352,606.147h-0.313v0.161h0.074c0,0,0.004,0.035,0.011,0.08l0.191-0.017l0.119-0.074l0.031-0.15l0.154-0.013
		l0.062-0.126l-0.143-0.03l-0.124,0.005L12.352,606.147z"/>
	<polygon points="11.598,606.433 11.826,606.413 11.848,606.255 11.712,606.147 11.61,606.275 	"/>
	<path d="M14.575,613.417l-0.958-0.008l-0.762-0.29l-0.036-0.542l-0.254-0.445l-0.688-0.009l-0.399-0.625l-0.353-0.172l-0.017,0.189
		l-0.645,0.039l-0.235-0.328l-0.67-0.137l-0.552,0.638l-0.87-0.146l-0.063-0.979l-0.634-0.108l0.254-0.48l-0.073-0.276l-0.832,0.558
		l-0.526-0.063l-0.187-0.411l0.115-0.422l0.289-0.532l0.665-0.338l1.286-0.001l-0.004,0.394l0.463,0.215l-0.038-0.67l0.333-0.335
		l0.672-0.442l0.046-0.311l0.67-0.696l0.713-0.395l-0.063-0.052l0.483-0.454l0.177,0.047l0.081,0.103l0.183-0.203l0.045-0.021
		l-0.201-0.027l-0.203-0.067v-0.197l0.108-0.089h0.238l0.109,0.049l0.094,0.188l0.115-0.017v-0.017l0.034,0.011l0.333-0.052
		l0.047-0.163l0.19,0.049v0.176l-0.176,0.121l0.025,0.195l0.605,0.187c0,0,0.001,0.002,0.002,0.007l0.139-0.012l0.009-0.263
		l-0.479-0.218l-0.028-0.127l0.399-0.136l0.017-0.38l-0.416-0.253l-0.027-0.644l-0.571,0.281h-0.208l0.056-0.489l-0.777-0.184
		l-0.321,0.241v0.742l-0.577,0.183l-0.231,0.482l-0.251,0.04v-0.617l-0.543-0.075l-0.271-0.176l-0.109-0.4l0.972-0.569l0.477-0.145
		l0.046,0.318l0.266-0.014l0.021-0.16l0.276-0.04l0.004-0.056l-0.118-0.049l-0.026-0.17l0.341-0.028l0.204-0.214l0.013-0.016
		l0.001,0.001l0.064-0.064l0.715-0.091l0.316,0.27l-0.83,0.441l1.056,0.249l0.138-0.353h0.461l0.163-0.308l-0.325-0.082v-0.389
		l-1.023-0.454l-0.706,0.082l-0.399,0.208l0.027,0.507l-0.416-0.063l-0.064-0.279l0.398-0.363l-0.724-0.036l-0.208,0.063
		l-0.092,0.245l0.272,0.045l-0.054,0.272l-0.463,0.027l-0.072,0.181l-0.67,0.018c0,0-0.019-0.38-0.044-0.38
		c-0.028,0,0.523-0.01,0.523-0.01l0.398-0.389l-0.217-0.108l-0.29,0.28l-0.479-0.025l-0.29-0.4H8.347l-0.645,0.48h0.59l0.055,0.172
		l-0.155,0.146l0.652,0.018l0.1,0.236l-0.733-0.028l-0.035-0.181l-0.463-0.1l-0.245-0.136l-1.085,0.01l-0.336,0.326l-0.227-0.02
		l-0.253-0.146l-0.752-0.226H3.438l-0.798,0.543l-0.533,0.083l-0.245,0.189l0.381,0.057v0.151H1.428l-0.316,0.227l0.407,0.344
		l1.113,0.01L2.786,604h0.932l0.335,0.3l-0.017,0.461l0.28,0.264l-0.235,0.167l0.055,0.611l-0.843,1.023v0.96l0.453,0.217v0.862
		l0.434,0.74l0.354,0.054l0.046-0.254l-0.416-0.643l-0.082-0.623h0.244l0.104,0.643l0.603,0.877l-0.155,0.285l0.382,0.585
		l0.952,0.235v-0.154l0.379,0.054l-0.035,0.272l0.299,0.055l0.462,0.127l0.651,0.743l0.833,0.062l0.081,0.68l-0.57,0.398
		l-0.026,0.606l-0.082,0.372l0.823,1.033l0.063,0.353c0,0,0.3,0.08,0.337,0.08c0.035,0,0.67,0.479,0.67,0.479v1.866l0.227,0.063
		l-0.156,0.86l0.382,0.507l-0.071,0.854l0.503,0.883l0.646,0.563l0.648,0.013l0.063-0.208l-0.476-0.401l0.027-0.2l0.084-0.244
		l0.019-0.249l-0.321-0.009l-0.162-0.204l0.267-0.258l0.036-0.194l-0.299-0.086l0.019-0.181l0.426-0.064l0.647-0.313l0.217-0.397
		l0.68-0.869l-0.155-0.681l0.21-0.362l0.624,0.02l0.421-0.334l0.136-1.31l0.467-0.594l0.081-0.38l-0.425-0.136L14.575,613.417z
		 M9.654,606.724l-0.155,0.156H9.151l0.055-0.236l0.163-0.015l0.034-0.081l0.251-0.035V606.724z M9.736,606.296l-0.163,0.105
		l-0.204,0.037c0,0,0-0.325,0-0.359h0.367V606.296z M10.045,606.045l0.168,0.103l-0.135,0.11l-0.131-0.11L10.045,606.045z
		 M9.824,606.316h0.027l0.414,0.122v0.211H9.919l-0.095-0.137V606.316z M9.552,605.731l0.226,0.204l-0.226,0.055V605.731z
		 M8.603,605.766l0.312-0.129h0.428v0.129h0.095v0.225H8.785l-0.244-0.068L8.603,605.766z M8.541,606.35l0.25-0.271h0.36
		l-0.461,0.645l-0.19-0.102L8.541,606.35z M8.208,604.815l0.258,0.061l-0.088,0.346l-0.278,0.09l-0.177-0.36L8.208,604.815z
		 M6.918,603.172v-0.021h0.237l0.021-0.081h0.389v0.17l-0.111,0.149H6.918V603.172z M7.298,603.702c0,0,0.238-0.042,0.258-0.042
		c0.021,0,0,0.238,0,0.238l-0.536,0.035l-0.102-0.123L7.298,603.702z"/>
</g>
<g>
</g>
<g>
</g>
<g>
</g>
<g>
</g>
<g>
</g>
<g>
</g>
<g>
</g>
<g>
</g>
<g>
</g>
<g>
</g>
<g>
</g>
<g>
</g>
<g>
</g>
<g>
</g>
<g>
</g>
</svg>
