<?xml version="1.0" encoding="iso-8859-1"?>
<!-- Generator: Adobe Illustrator 16.0.0, SVG Export Plug-In . SVG Version: 6.00 Build 0)  -->
<!DOCTYPE svg PUBLIC "-//W3C//DTD SVG 1.1//EN" "http://www.w3.org/Graphics/SVG/1.1/DTD/svg11.dtd">
<svg version="1.1" id="Layer_1" xmlns="http://www.w3.org/2000/svg" xmlns:xlink="http://www.w3.org/1999/xlink" x="0px" y="0px"
	 width="49.312px" height="47.213px" viewBox="0 0 49.312 47.213" style="enable-background:new 0 0 49.312 47.213;"
	 xml:space="preserve">
<path d="M100.219,592.922c-13.754,0-25.373,8.298-25.373,18.12s11.619,18.121,25.373,18.121c13.753,0,25.375-8.299,25.375-18.121
	S113.972,592.922,100.219,592.922z M76.846,611.042c0-8.738,10.703-16.12,23.373-16.12c12.669,0,23.375,7.382,23.375,16.12
	c0,2.67-1.004,5.213-2.754,7.458l-0.27,0.017l-0.021,0.345c-0.166,0.198-0.334,0.396-0.51,0.589l-0.42,0.058l-0.941,0.671
	l-0.16,0.13v0.225l0.492-0.076l0.096-0.059c-4.291,4.064-11.227,6.765-18.886,6.765C87.549,627.163,76.846,619.78,76.846,611.042z"
	/>
<g>
	<polygon points="98.617,614.005 97.947,614.023 97.919,613.66 98.027,613.707 98.291,613.679 98.261,613.345 97.539,613.354 
		97.339,613.091 97.351,612.953 96.416,612.112 96.189,612.293 97.521,613.924 97.71,613.987 97.71,614.076 97.457,614.076 
		97.521,614.277 99.158,614.35 	"/>
	<polygon points="99.666,613.153 99.779,613.079 99.779,612.185 99.666,612.138 99.613,611.857 99.449,611.857 99.343,612.141 
		99.218,612.254 98.271,612.768 98.271,613.274 98.587,613.693 99.384,613.693 99.486,613.434 99.666,613.271 	"/>
	<polygon points="100.369,613.079 99.89,613.265 99.896,613.371 99.779,613.371 99.779,614.033 100.023,614.033 99.986,613.611 
		100.177,613.68 100.177,613.979 100.375,613.962 	"/>
	<polygon points="104.402,617.091 104.271,616.556 103.783,616.138 103.746,615.341 103.423,614.789 103.134,614.775 
		103.017,615.775 102.462,615.733 102.308,615.641 102.289,615.244 102.582,615.305 102.83,615.063 102.304,614.746 
		101.685,614.746 101.242,615.377 101.06,615.377 101.06,615.178 100.529,615.218 99.687,616.177 99.24,616.184 98.744,616.526 
		98.707,618.012 98.408,618.302 98.408,618.564 99.857,618.065 101.031,618.02 101.464,618.977 102.798,619.021 104.085,617.813 	
		"/>
	<polygon points="101.64,619.711 102.111,619.763 102.494,619.554 102.5,619.266 102.083,619.222 	"/>
	<polygon points="102.474,613.462 102.169,613.471 102.193,613.154 101.902,612.982 101.492,613.395 101.767,613.733 
		102.365,613.819 102.699,613.996 102.708,614.158 102.49,614.158 102.5,614.494 103.224,614.448 103.488,614.168 103.767,614.141 
		103.767,614.657 104.257,614.657 104.257,614.448 104.013,614.448 103.968,613.819 102.798,613.289 	"/>
	<polygon points="93.78,611.958 93.895,612.267 94.307,612.112 94.352,611.688 94.02,611.621 	"/>
	<polygon points="88.944,615.545 88.383,615.472 88.383,615.907 88.583,616.143 88.43,616.377 88.201,616.641 88.201,617.12 
		88.51,617.42 88.792,616.968 89.343,616.16 89.606,614.893 89.271,614.893 	"/>
	<polygon points="100.488,614.207 100.306,614.207 100.306,614.305 100.447,614.35 	"/>
	<rect x="99.449" y="614.35" width="0.217" height="0.12"/>
	<polygon points="99.98,614.47 100.115,614.47 100.115,614.364 100.212,614.35 100.212,614.246 99.996,614.246 99.906,614.35 
		99.779,614.47 99.779,614.575 99.98,614.554 	"/>
	<polygon points="100.537,614.564 100.753,614.564 100.753,614.453 100.906,614.47 100.884,614.277 100.638,614.315 
		100.615,614.439 100.339,614.47 100.324,614.47 100.324,614.66 100.537,614.66 	"/>
	<polygon points="81.854,604.846 81.877,605.022 81.615,605.077 81.579,605.452 81.896,605.452 82.316,605.411 82.533,605.153 
		82.304,605.063 82.177,604.918 81.985,604.61 81.896,604.176 81.537,604.247 81.438,604.401 81.438,604.574 81.61,604.692 	"/>
	<polygon points="81.551,604.99 81.57,604.755 81.36,604.664 81.067,604.732 80.85,605.082 80.85,605.308 81.103,605.308 	"/>
	<path d="M96.583,611.872l1.289,1.236l0.068-0.218l-1.045-1.494l0.107-0.436l0.553,0.628l0.309,0.032l0.406-0.27l-0.066-0.407
		l-0.672-0.54l-0.027-0.487l0.191-0.259l0.34,0.109l-0.029,0.23l0.197,0.298l0.172-0.121l-0.096-0.353l0.951-0.341l0.416-0.349
		l-0.064-0.629l-0.828-0.869l-0.012-0.706h0.365l1.141,0.869l0.322-0.086l-0.213-0.28l-0.611-0.371l0.037-0.553l0.725,0.001
		l0.057-0.684l-0.275-0.364l0.164-0.175l0.352,0.353l0.113-0.149l-0.453-0.517l-1.127-0.135l-0.148-0.3l0.326-0.462l0.258,0.19
		l0.773,0.066l0.979-0.651l0.162,0.203l-0.217,0.34v0.34l0.896,0.734l0.285-0.149l-0.107-0.49l-0.639-0.596l0.842-0.056v-0.244
		l0.408-0.082l-0.313-0.215l0.014-0.165l0.855,0.139l0.162-0.139l-1.154-0.488l-4.209-0.217l-0.395-0.2l-0.627-0.094l-0.469-0.015
		l-0.426,0.431l-0.182-0.014l-0.566-0.422H94.18l-0.775-0.462l-1.551,0.098l-1.18,0.526l0.01,0.613l-0.363,0.108l-0.081-0.612
		l-0.135-0.212l-0.407-0.101l-0.096,0.367l0.122,0.299l-1.449-0.095l-0.69,0.32l-0.105-0.303l-0.174,0.045l-0.125,0.335
		l-0.361,0.283l-0.885-0.025l-0.04-0.194l0.925-0.041l0.189-0.162l-1.114-0.517l-1.358,0.042l-0.76,0.389l-0.286,0.509l-0.502,0.196
		l-0.212,0.231l0.049,0.268l0.259,0.035l0.156,0.392l0.446-0.181l0.075,0.523h-0.135l-0.368-0.055l-0.407,0.068l-0.394,0.556
		l-0.564,0.09l-0.081,0.481l0.238,0.056l-0.067,0.311l-0.561-0.111l-0.514,0.111l-0.108,0.286l0.089,0.6l0.301,0.14l0.505-0.002
		l0.342-0.031l0.104-0.271l0.532-0.692l0.352,0.07l0.346-0.313l0.065,0.245l0.85,0.574l-0.103,0.14l-0.384-0.021l0.147,0.209
		l0.236,0.053l0.276-0.116l-0.006-0.332l0.124-0.062l-0.101-0.105l-0.566-0.316l-0.149-0.421h0.472l0.15,0.149l0.407,0.351
		l0.017,0.423l0.422,0.448l0.155-0.614l0.293-0.159l0.054,0.503l0.286,0.313l0.858-0.014l0.255,0.19v0.448l-0.312,0.285h-0.871
		l-0.529-0.395l-0.558,0.055v0.34h-0.176l-0.189-0.136l-0.965-0.245v-0.625l-1.223,0.096l-0.381,0.203h-0.484l-0.238-0.024
		l-0.59,0.328v0.616l-1.204,0.869l0.101,0.371h0.243l-0.063,0.354l-0.171,0.063l-0.009,0.924l1.039,1.187h0.454l0.026-0.072h0.815
		l0.235-0.218h0.462l0.254,0.254l0.688,0.071l-0.09,0.916l0.766,1.349l-0.404,0.77l0.027,0.362l0.317,0.317v0.87l0.416,0.561v0.725
		h1.232l0.924-0.951l0.289-0.517l0.371-0.081v-0.435l0.245-0.29l0.516-0.706l-0.108-1.076l-0.227-0.4l1.017-0.971l1.12-1.601
		l-0.217-0.1l-1.163,0.244l-0.3-0.148l-1.223-2.303l0.086-0.1l1.213,1.472l0.029,0.455l0.279,0.281l0.569-0.037l1.192-0.863
		l0.374-0.243l-0.008-0.299l-0.397-0.052c0,0-1.396-0.657-1.396-0.688c0-0.028,0.009-0.563,0.009-0.563h0.309l0.045,0.389
		l0.647,0.371l0.738,0.036l1.603,0.263l0.375,0.235v0.367l-0.048,0.499l0.822,1.352l0.265,0.061l0.264-0.384l0.147-1.093
		l0.273-0.589l0.441-0.165l0.779,0.074l0.978,0.87V611.872z M85.316,603.274l-0.539,0.33v0.217l0.305,0.143l0.021,0.292
		l-0.431,0.642l-0.748-0.007l-0.047-0.155l0.468-0.237l0.003-0.887l0.796-0.554h0.173V603.274z M86.978,607.051l-0.704-0.03
		l-0.212,0.03v-0.481l0.158-0.178l0.171-0.054l0.374-0.043l0.08-0.127l0.154,0.075l0.021,0.438l0.409,0.169l0.035,0.2H86.978z
		 M89.684,607.395l-0.123,0.118l-0.285-0.022l-0.055-0.087l-0.448-0.031l0.032-0.145l0.235-0.205v-0.171l-0.452-0.331l-0.019-0.421
		l0.091-0.207l0.366-0.033l0.313,0.132l0.014,0.217l-0.443-0.024l-0.022,0.202l0.557,0.37v0.272l0.24,0.176V607.395z"/>
</g>
<g>
	<path d="M107.729,604.096l-0.294-0.045c0,0.018,0.022,0.331,0.045,0.331s0.203,0,0.203,0L107.729,604.096z"/>
	<path d="M116.071,605.419h-0.313v0.161h0.074c0,0,0.004,0.035,0.011,0.08l0.191-0.017l0.119-0.074l0.031-0.15l0.154-0.013
		l0.062-0.126l-0.143-0.03l-0.124,0.005L116.071,605.419z"/>
	<polygon points="115.317,605.704 115.546,605.685 115.567,605.526 115.432,605.419 115.33,605.547 	"/>
	<path d="M118.295,612.688l-0.958-0.008l-0.762-0.29l-0.036-0.542l-0.254-0.445l-0.688-0.009l-0.399-0.625l-0.353-0.172
		l-0.017,0.189l-0.645,0.039l-0.235-0.328l-0.67-0.137l-0.552,0.638l-0.87-0.146l-0.063-0.979l-0.634-0.108l0.254-0.48l-0.073-0.276
		l-0.832,0.558l-0.526-0.063l-0.187-0.411l0.115-0.422l0.289-0.532l0.665-0.338l1.286-0.001l-0.004,0.394l0.463,0.215l-0.038-0.67
		l0.333-0.335l0.672-0.442l0.046-0.311l0.67-0.696l0.713-0.395l-0.063-0.052l0.483-0.454l0.177,0.047l0.081,0.103l0.183-0.203
		l0.045-0.021l-0.201-0.027l-0.203-0.067v-0.197l0.108-0.089h0.238l0.109,0.049l0.094,0.188l0.115-0.017V604.8l0.034,0.011
		l0.333-0.052l0.047-0.163l0.19,0.049v0.176l-0.176,0.121l0.025,0.195l0.605,0.187c0,0,0.001,0.002,0.002,0.007l0.139-0.012
		l0.009-0.263l-0.479-0.218l-0.028-0.127l0.399-0.136l0.017-0.38l-0.416-0.253l-0.027-0.644l-0.571,0.281h-0.208l0.056-0.489
		l-0.777-0.184l-0.321,0.241v0.742l-0.577,0.183l-0.231,0.482l-0.251,0.04v-0.617l-0.543-0.075l-0.271-0.176l-0.109-0.4l0.972-0.569
		l0.477-0.145l0.046,0.318l0.266-0.014l0.021-0.16l0.276-0.04l0.004-0.056l-0.118-0.049l-0.026-0.17l0.341-0.028l0.204-0.214
		l0.013-0.016l0.001,0.001l0.064-0.064l0.715-0.091l0.316,0.27l-0.83,0.441l1.056,0.249l0.138-0.353h0.461l0.163-0.308l-0.325-0.082
		v-0.389l-1.023-0.454l-0.706,0.082l-0.399,0.208l0.027,0.507l-0.416-0.063l-0.064-0.279l0.398-0.363l-0.724-0.036l-0.208,0.063
		l-0.092,0.245l0.272,0.045l-0.054,0.272l-0.463,0.027l-0.072,0.181l-0.67,0.018c0,0-0.019-0.38-0.044-0.38
		c-0.028,0,0.523-0.01,0.523-0.01l0.398-0.389l-0.217-0.108l-0.29,0.28l-0.479-0.025l-0.29-0.4h-0.615l-0.645,0.48h0.59l0.055,0.172
		l-0.155,0.146l0.652,0.018l0.1,0.236l-0.733-0.028l-0.035-0.181l-0.463-0.1l-0.245-0.136l-1.085,0.01l-0.336,0.326l-0.227-0.02
		l-0.253-0.146l-0.752-0.226h-1.376l-0.798,0.543l-0.533,0.083l-0.245,0.189l0.381,0.057v0.151h-0.815l-0.316,0.227l0.407,0.344
		l1.113,0.01l0.154-0.164h0.932l0.335,0.3l-0.017,0.461l0.28,0.264l-0.235,0.167l0.055,0.611l-0.843,1.023v0.96l0.453,0.217v0.862
		l0.434,0.74l0.354,0.054l0.046-0.254l-0.416-0.643l-0.082-0.623h0.244l0.104,0.643l0.603,0.877l-0.155,0.285l0.382,0.585
		l0.952,0.235v-0.154l0.379,0.054l-0.035,0.272l0.299,0.055l0.462,0.127l0.651,0.743l0.833,0.062l0.081,0.68l-0.57,0.398
		l-0.026,0.606l-0.082,0.372l0.823,1.033l0.063,0.353c0,0,0.3,0.08,0.337,0.08c0.035,0,0.67,0.479,0.67,0.479v1.866l0.227,0.063
		l-0.156,0.86l0.382,0.507l-0.071,0.854l0.503,0.883l0.646,0.563l0.648,0.013l0.063-0.208l-0.476-0.401l0.027-0.2l0.084-0.244
		l0.019-0.249l-0.321-0.009l-0.162-0.204l0.267-0.258l0.036-0.194l-0.299-0.086l0.019-0.181l0.426-0.064l0.647-0.313l0.217-0.397
		l0.68-0.869l-0.155-0.681l0.21-0.362l0.624,0.02l0.421-0.334l0.136-1.31l0.467-0.594l0.081-0.38l-0.425-0.136L118.295,612.688z
		 M113.374,605.995l-0.155,0.156h-0.348l0.055-0.236l0.163-0.015l0.034-0.081l0.251-0.035V605.995z M113.456,605.567l-0.163,0.105
		l-0.204,0.037c0,0,0-0.325,0-0.359h0.367V605.567z M113.765,605.316l0.168,0.103l-0.135,0.11l-0.131-0.11L113.765,605.316z
		 M113.544,605.588h0.027l0.414,0.122v0.211h-0.347l-0.095-0.137V605.588z M113.271,605.003l0.226,0.204l-0.226,0.055V605.003z
		 M112.322,605.037l0.312-0.129h0.428v0.129h0.095v0.225h-0.651l-0.244-0.068L112.322,605.037z M112.261,605.621l0.25-0.271h0.36
		l-0.461,0.645l-0.19-0.102L112.261,605.621z M111.928,604.087l0.258,0.061l-0.088,0.346l-0.278,0.09l-0.177-0.36L111.928,604.087z
		 M110.638,602.443v-0.021h0.237l0.021-0.081h0.389v0.17l-0.111,0.149h-0.536V602.443z M111.018,602.974
		c0,0,0.238-0.042,0.258-0.042c0.021,0,0,0.238,0,0.238l-0.536,0.035l-0.102-0.123L111.018,602.974z"/>
</g>
<g>
</g>
<g>
</g>
<g>
</g>
<g>
</g>
<g>
</g>
<g>
</g>
<g>
</g>
<g>
</g>
<g>
</g>
<g>
</g>
<g>
</g>
<g>
</g>
<g>
</g>
<g>
</g>
<g>
</g>
</svg>
