<?xml version="1.0" encoding="iso-8859-1"?>
<!-- Generator: Adobe Illustrator 16.0.0, SVG Export Plug-In . SVG Version: 6.00 Build 0)  -->
<!DOCTYPE svg PUBLIC "-//W3C//DTD SVG 1.1//EN" "http://www.w3.org/Graphics/SVG/1.1/DTD/svg11.dtd">
<svg version="1.1" id="Layer_1" xmlns="http://www.w3.org/2000/svg" xmlns:xlink="http://www.w3.org/1999/xlink" x="0px" y="0px"
	 width="49.312px" height="47.213px" viewBox="0 0 49.312 47.213" style="enable-background:new 0 0 49.312 47.213;"
	 xml:space="preserve">
<g>
	<path d="M195.601,609.513c-1.475,0.975-8.023,4.698-22.042,4.698c-13.954,0-21.055-3.738-22.683-4.724
		c-0.003,0.152-0.012,0.303-0.012,0.456c0,0.634,0.033,1.26,0.085,1.881c2.971,1.54,10.145,4.387,22.609,4.387
		c12.261,0,19.08-2.76,21.963-4.325c0.056-0.641,0.09-1.288,0.09-1.942C195.612,609.799,195.604,609.656,195.601,609.513z"/>
	<path d="M151.785,615.897l-0.082,0.097l0.001,0.002c0.28,0.995,0.625,1.963,1.034,2.896c3.175,1.751,9.835,4.43,20.875,4.43
		c10.32,0,16.665-2.339,19.967-4.079c0.449-0.979,0.83-1.995,1.136-3.044c-1.519,1.109-7.924,5.123-21.103,5.123
		C158.379,621.322,151.848,615.952,151.785,615.897z"/>
	<path d="M194.898,604.33c-0.177-0.681-0.385-1.348-0.622-2.002c-1.496,1.137-7.022,4.467-20.342,4.467
		c-13.318,0-19.87-3.397-21.706-4.546c-0.236,0.644-0.441,1.302-0.618,1.972c2.566,1.502,9.393,4.574,22.324,4.574
		C186.428,608.795,192.508,605.907,194.898,604.33z"/>
	<path d="M155.076,622.985c1.222,1.697,2.675,3.217,4.314,4.513c3.246,1.206,7.941,2.303,14.358,2.303
		c5.725,0,9.938-0.912,12.959-2.006c1.842-1.393,3.459-3.066,4.795-4.953c-0.675,0.649-5.623,4.959-17.754,4.959
		C161.572,627.801,155.883,623.632,155.076,622.985z"/>
	<path d="M193.028,624.146c0.016-0.017,0.041-0.043,0.047-0.05l-0.007-0.007C193.054,624.109,193.042,624.128,193.028,624.146z"/>
	<path d="M173.859,589.878c3.002-0.108,5.037-0.854,6.012-1.304c-1.359-0.423-2.775-0.717-4.231-0.873
		c-0.789-0.085-1.59-0.131-2.401-0.131c-0.789,0-1.567,0.042-2.336,0.122c-1.496,0.156-2.949,0.46-4.345,0.897
		c0.937,0.38,3.526,1.299,6.708,1.299C173.46,589.889,173.66,589.886,173.859,589.878z"/>
	<path d="M173.924,632.506c-1.032,0.033-2.008-0.051-2.885-0.188c-1.496,0.156-2.949,0.46-4.345,0.897
		c0.937,0.38,3.526,1.299,6.708,1.299c0.195,0,0.395-0.003,0.594-0.011c3.002-0.108,5.037-0.854,6.012-1.304
		c-1.359-0.423-2.775-0.717-4.231-0.873C175.211,632.411,174.606,632.481,173.924,632.506z"/>
	<path d="M186.979,592.306c-0.562-0.438-1.144-0.849-1.745-1.233c-1.737,1.112-5.305,2.688-11.621,2.688
		c-6.298,0-10.396-1.486-12.553-2.57c-0.624,0.406-1.227,0.842-1.805,1.307c2.09,1.222,6.718,3.264,14.357,3.264
		C181.173,595.76,185.197,593.636,186.979,592.306z"/>
	<path d="M191.973,597.734c-0.366-0.559-0.757-1.101-1.17-1.624c-1.783,1.341-6.838,4.25-17.194,4.25
		c-9.659,0-15.281-2.943-17.672-4.586c-0.426,0.519-0.828,1.058-1.207,1.613c2.622,1.839,8.588,4.973,18.879,4.973
		C184.346,602.36,189.831,599.329,191.973,597.734z"/>
</g>
<g>
</g>
<g>
</g>
<g>
</g>
<g>
</g>
<g>
</g>
<g>
</g>
<g>
</g>
<g>
</g>
<g>
</g>
<g>
</g>
<g>
</g>
<g>
</g>
<g>
</g>
<g>
</g>
<g>
</g>
</svg>
