<?xml version="1.0" encoding="iso-8859-1"?>
<!-- Generator: Adobe Illustrator 16.0.0, SVG Export Plug-In . SVG Version: 6.00 Build 0)  -->
<!DOCTYPE svg PUBLIC "-//W3C//DTD SVG 1.1//EN" "http://www.w3.org/Graphics/SVG/1.1/DTD/svg11.dtd">
<svg version="1.1" id="Layer_1" xmlns="http://www.w3.org/2000/svg" xmlns:xlink="http://www.w3.org/1999/xlink" x="0px" y="0px"
	 width="49.312px" height="47.213px" viewBox="0 0 49.312 47.213" style="enable-background:new 0 0 49.312 47.213;"
	 xml:space="preserve">
<g>
	<path d="M269.045,624.146c0.016-0.017,0.041-0.043,0.047-0.05l-0.007-0.007C269.072,624.109,269.059,624.128,269.045,624.146z"/>
	<path d="M271.166,609.794c-0.041-1.781-0.293-3.508-0.733-5.159c-2.678,1.616-8.754,4.16-20.48,4.16
		c-12.262,0-19.027-2.76-21.884-4.327c-0.462,1.678-0.729,3.436-0.778,5.249c2.199,1.232,9.251,4.494,22.287,4.494
		C262.497,614.211,269.06,611.053,271.166,609.794z"/>
	<path d="M227.344,612.013c0.109,1.4,0.353,2.763,0.712,4.076c1.296,0.943,7.942,5.233,21.574,5.233
		c12.124,0,18.503-3.392,20.631-4.799c0.42-1.417,0.713-2.888,0.839-4.408c-3.103,1.591-9.837,4.096-21.523,4.096
		C237.596,616.211,230.515,613.585,227.344,612.013z"/>
	<path d="M269.811,602.667c-0.603-1.622-1.381-3.158-2.329-4.573c-2.439,1.649-7.876,4.267-17.855,4.267
		c-9.703,0-15.558-2.785-18.394-4.645c-1.034,1.478-1.881,3.093-2.531,4.805c2.327,1.334,8.855,4.274,21.25,4.274
		C262.139,606.795,267.79,604.012,269.811,602.667z"/>
	<path d="M229.147,619.101c0.675,1.535,1.526,2.974,2.518,4.301c1.83,1.246,7.509,4.399,18.102,4.399
		c9.978,0,15.089-2.911,16.967-4.308c0.938-1.244,1.748-2.59,2.409-4.019c-3.413,1.709-9.64,3.848-19.512,3.848
		C239.015,623.322,232.458,620.848,229.147,619.101z"/>
	<path d="M235.805,627.636c3.706,2.881,8.359,4.599,13.421,4.599c4.856,0,9.333-1.587,12.964-4.259
		c-2.979,1.01-7.021,1.825-12.424,1.825C243.597,629.801,239.034,628.786,235.805,627.636z"/>
	<path d="M260.551,591.485c-1.786-1.079-3.729-1.926-5.801-2.463c-1.123,0.384-2.751,0.779-4.874,0.855
		c-0.199,0.008-0.398,0.011-0.594,0.011c-2.283,0-4.25-0.473-5.531-0.88c-2.123,0.545-4.111,1.414-5.936,2.526
		c2.296,1.029,6.163,2.225,11.814,2.225C255.197,593.76,258.625,592.537,260.551,591.485z"/>
	<path d="M266.287,596.485c-1.141-1.406-2.444-2.674-3.894-3.763c-2.017,1.314-5.951,3.037-12.763,3.037
		c-6.964,0-11.418-1.695-13.735-2.921c-1.259,0.964-2.407,2.063-3.431,3.272c2.632,1.677,8.132,4.249,17.162,4.249
		C259.105,600.36,264.133,597.927,266.287,596.485z"/>
</g>
<g>
</g>
<g>
</g>
<g>
</g>
<g>
</g>
<g>
</g>
<g>
</g>
<g>
</g>
<g>
</g>
<g>
</g>
<g>
</g>
<g>
</g>
<g>
</g>
<g>
</g>
<g>
</g>
<g>
</g>
</svg>
