<?xml version="1.0" encoding="iso-8859-1"?>
<!-- Generator: Adobe Illustrator 16.0.0, SVG Export Plug-In . SVG Version: 6.00 Build 0)  -->
<!DOCTYPE svg PUBLIC "-//W3C//DTD SVG 1.1//EN" "http://www.w3.org/Graphics/SVG/1.1/DTD/svg11.dtd">
<svg version="1.1" id="Layer_1" xmlns="http://www.w3.org/2000/svg" xmlns:xlink="http://www.w3.org/1999/xlink" x="0px" y="0px"
	 width="49.312px" height="47.213px" viewBox="0 0 49.312 47.213" style="enable-background:new 0 0 49.312 47.213;"
	 xml:space="preserve">
<g>
	<polygon style="fill:none;" points="312.963,600.757 313.103,600.21 312.696,600.113 312.246,600.328 312.524,600.896 	"/>
	<polygon style="fill:none;" points="314.184,602.106 313.617,602.106 313.22,602.534 313.156,602.962 313.457,603.124 	"/>
	<polygon style="fill:none;" points="314.632,601.967 314.632,601.613 314.484,601.613 314.484,601.409 313.81,601.409 
		313.317,601.613 313.22,601.859 313.605,601.967 	"/>
	<polygon style="fill:none;" points="314.815,601.56 314.815,601.967 315.169,601.882 	"/>
	<path style="fill:none;" d="M337.542,606.886c-0.022-0.098-0.046-0.195-0.068-0.293l-0.054,0.063L337.542,606.886z"/>
	<polygon style="fill:none;" points="311.682,597.63 311.682,597.362 311.068,597.362 311.036,597.491 310.661,597.491 
		310.661,597.523 310.661,597.866 311.506,597.866 	"/>
	<polygon style="fill:none;" points="315.94,603.006 315.94,602.674 315.288,602.48 315.245,602.48 315.245,602.79 315.393,603.006 
			"/>
	<path style="fill:none;" d="M335.428,603.862l-0.087-0.793l-0.459,0.251l-0.247,0.969l-0.664-0.707l-0.027-0.667l-0.641-0.553
		l-0.238-0.235h-0.742l0.234,0.663l0.895,0.499l0.156,0.165l-0.193,0.097l0.008,0.524l-0.437,0.183l-0.372-0.081l-0.232-0.33
		l0.604,0.031l0.164-0.219l-1.342-0.905l-0.103-0.386l-0.544,0.492l-0.554-0.113l-0.841,1.094l-0.164,0.428l-0.538,0.049
		l-0.796,0.005l-0.477-0.222l-0.139-0.945l0.171-0.45l0.809-0.177l0.884,0.177l0.107-0.489l-0.375-0.089l0.128-0.76l0.89-0.14
		l0.621-0.878l0.641-0.107l0.58,0.086h0.214l-0.117-0.824l-0.705,0.284l-0.247-0.617l-0.409-0.056l-0.076-0.423l0.333-0.363
		l0.793-0.31l0.204-0.365c-3.028-2.668-6.999-4.292-11.342-4.292c-3.771,0-7.258,1.224-10.094,3.29l0.866-0.008l0.386,0.215
		l0.728,0.157l0.057,0.285l1.157,0.042l-0.157-0.37l-1.028-0.029l0.243-0.228l-0.086-0.272H311.9l1.014-0.756h0.97l0.457,0.629
		l0.758,0.043l0.456-0.443l0.343,0.172l-0.628,0.613c0,0-0.87,0.015-0.827,0.015c0.042,0,0.071,0.599,0.071,0.599l1.056-0.028
		l0.114-0.285l0.728-0.043l0.086-0.428l-0.428-0.072l0.143-0.386l0.328-0.1l1.142,0.058l-0.629,0.571l0.102,0.442l0.656,0.099
		l-0.043-0.798l0.629-0.329l1.113-0.128l1.613,0.714v0.613l0.515,0.128l-0.258,0.486h-0.728l-0.216,0.557l-1.665-0.393l1.309-0.696
		l-0.499-0.425l-1.128,0.144l-0.099,0.102l-0.004-0.002l-0.018,0.025l-0.325,0.336l-0.536,0.046l0.043,0.268l0.188,0.077
		l-0.008,0.088l-0.438,0.063l-0.031,0.253l-0.418,0.022l-0.075-0.504l-0.749,0.229l-1.531,0.896l0.172,0.63l0.428,0.279l0.856,0.118
		v0.974l0.396-0.064l0.365-0.76l0.91-0.288v-1.168l0.507-0.383l1.224,0.29l-0.085,0.771h0.327l0.9-0.442l0.043,1.014l0.655,0.399
		l-0.027,0.601l-0.628,0.214l0.043,0.198l0.756,0.345l-0.015,0.413l-0.219,0.019c-0.002-0.007-0.003-0.011-0.003-0.011l-0.953-0.295
		l-0.041-0.306h-0.002l0.279-0.192v-0.278l-0.3-0.075l-0.074,0.258l-0.526,0.081l-0.053-0.019v0.027l-0.183,0.027l-0.148-0.3
		l-0.172-0.075h-0.375l-0.171,0.139v0.312l0.321,0.106l0.316,0.044l-0.071,0.031l-0.289,0.32l-0.127-0.16l-0.278-0.073l-0.761,0.716
		l0.099,0.082l-1.123,0.621l-1.057,1.099l-0.072,0.49l-1.06,0.696l-0.524,0.528l0.058,1.056l-0.729-0.339l0.006-0.618l-2.026,0.001
		l-1.049,0.531l-0.457,0.84l-0.18,0.666l0.295,0.646l0.826,0.101l1.314-0.879l0.115,0.436l-0.401,0.758l1,0.171l0.1,1.544
		l1.371,0.233l0.871-1.007l1.057,0.214l0.371,0.518l1.014-0.061l0.027-0.3l0.558,0.271l0.628,0.984l1.085,0.015l0.4,0.7l0.056,0.856
		l1.2,0.457l1.513,0.015l0.444,0.727l0.671,0.215l-0.13,0.601l-0.735,0.934l-0.214,2.067l-0.663,0.525l-0.985-0.03l-0.329,0.571
		l0.244,1.071l-1.071,1.371l-0.343,0.629l-1.021,0.49l-0.673,0.102l-0.026,0.285l0.471,0.135l-0.058,0.307l-0.421,0.407l0.256,0.322
		l0.508,0.014l-0.028,0.393l-0.136,0.386l-0.043,0.313l0.752,0.633l-0.101,0.329l-1.023-0.02l-1.017-0.889l-0.792-1.393l0.11-1.344
		l-0.6-0.801l0.242-1.355l-0.356-0.1v-2.941c0,0-0.999-0.758-1.056-0.758s-0.529-0.128-0.529-0.128l-0.1-0.556l-1.299-1.629
		l0.129-0.584l0.042-0.957l0.899-0.629l-0.129-1.07l-1.313-0.1l-1.027-1.172l-0.728-0.198l-0.472-0.087l0.057-0.428l-0.6-0.085
		v0.242l-1.499-0.372l-0.604-0.922l0.247-0.447l-0.951-1.386l-0.162-1.014h-0.385l0.128,0.985l0.656,1.014l-0.071,0.4l-0.557-0.086
		l-0.686-1.168v-1.359l-0.713-0.343v-0.978c-0.883,2.065-1.372,4.338-1.372,6.723c0,9.474,7.707,17.181,17.181,17.181
		c5.37,0,10.171-2.479,13.324-6.351h-0.567v-1.142l-0.655-0.883v-1.374l-0.501-0.499l-0.042-0.571l0.635-1.213l-1.206-2.129
		l0.143-1.441l-1.084-0.113l-0.4-0.4h-0.729l-0.37,0.344h-1.285l-0.043,0.113h-0.715l-1.641-1.869l0.014-1.457l0.271-0.1
		l0.101-0.558h-0.385l-0.158-0.585l1.899-1.37v-0.972l0.93-0.516l0.376,0.038h0.766l0.599-0.321l1.927-0.15v0.985l1.521,0.386
		l0.299,0.214h0.279v-0.536l0.878-0.086l0.835,0.622h1.371l0.096-0.088c-0.136-0.462-0.291-0.916-0.465-1.362l-0.895,0.016
		L335.428,603.862z M328.66,599.449l0.157-0.241l0.564-0.115l0.143,0.687l0.301,0.484l0.198,0.229l0.364,0.142l-0.342,0.407
		l-0.664,0.064h-0.5l0.057-0.592l0.415-0.086l-0.035-0.278l-0.387-0.243l-0.271-0.186V599.449z M327.733,600.521l0.343-0.549
		l0.462-0.107l0.33,0.144l-0.029,0.37l-0.706,0.5h-0.399V600.521z M318.398,602.634l-0.357,0.029l0.02-0.248l0.161-0.199
		l0.214,0.169L318.398,602.634z M319.653,602.194l-0.244,0.021l-0.05,0.237l-0.188,0.116l-0.303,0.025
		c-0.01-0.071-0.017-0.125-0.017-0.125h-0.117v-0.254h0.492l0.102-0.263l0.196-0.003l0.224,0.045L319.653,602.194z"/>
	<path style="fill:none;" d="M335.949,602.867v0.759l0.333-0.045l0.178,0.006c-0.126-0.284-0.261-0.564-0.402-0.842L335.949,602.867
		z"/>
	<path style="fill:none;" d="M311.668,598.669c0,0,0.031-0.374,0-0.374c-0.033,0-0.408,0.063-0.408,0.063l-0.6,0.172l0.161,0.192
		L311.668,598.669z"/>
	<polygon style="fill:none;" points="315.855,602.216 315.592,602.053 315.437,602.216 315.645,602.39 	"/>
	<path style="fill:none;" d="M314.527,602.674l0.32-0.06l0.258-0.166v-0.342h-0.578
		C314.527,602.159,314.527,602.674,314.527,602.674z"/>
	<path style="fill:none;" d="M338.164,603.626l-0.058-0.316l-0.102-0.042c0.05,0.118,0.095,0.239,0.142,0.358H338.164z"/>
	<polygon style="fill:none;" points="314.527,602.974 314.269,602.995 314.184,603.369 314.73,603.369 314.976,603.124 
		314.976,602.79 314.581,602.845 	"/>
	<path style="fill:none;" d="M306.247,601.359c-0.243,0.383-0.472,0.774-0.686,1.178l0.714-0.866L306.247,601.359z"/>
	<path style="fill:none;" d="M332.504,599.976l0.074,0.245l1.179,0.011l0.337-0.502c-0.271-0.332-0.555-0.652-0.849-0.965
		l-0.003,0.836L332.504,599.976z"/>
	<polygon points="329.318,600.15 329.353,600.429 328.938,600.515 328.881,601.106 329.381,601.106 330.045,601.042 
		330.387,600.635 330.023,600.493 329.825,600.264 329.524,599.779 329.381,599.093 328.817,599.208 328.66,599.449 328.66,599.722 
		328.931,599.907 	"/>
	<polygon points="328.838,600.378 328.868,600.008 328.538,599.864 328.076,599.972 327.733,600.521 327.733,600.878 
		328.132,600.878 	"/>
	<path d="M319.329,601.953l-0.102,0.263h-0.492v0.254h0.117c0,0,0.007,0.054,0.017,0.125l0.303-0.025l0.188-0.116l0.05-0.237
		l0.244-0.021l0.096-0.199l-0.224-0.045L319.329,601.953z"/>
	<polygon points="318.06,602.415 318.041,602.663 318.398,602.634 318.435,602.385 318.221,602.216 	"/>
	<path d="M339.471,610.35c-0.005-0.548-0.033-1.091-0.085-1.626c-0.173-1.785-0.601-3.494-1.24-5.098
		c-0.047-0.119-0.092-0.24-0.142-0.358c-0.852-2.012-2.048-3.843-3.51-5.424c-0.097-0.104-0.194-0.205-0.292-0.306
		c-0.277-0.287-0.56-0.567-0.855-0.836c-3.327-3.03-7.747-4.88-12.591-4.88c-4.887,0-9.338,1.883-12.675,4.959
		c-0.777,0.716-1.492,1.499-2.14,2.337c-2.445,3.163-3.906,7.126-3.906,11.424c0,10.322,8.398,18.721,18.721,18.721
		c7.261,0,13.564-4.158,16.667-10.215c0.664-1.295,1.181-2.677,1.53-4.123c0.088-0.366,0.163-0.736,0.23-1.11
		c0.188-1.063,0.292-2.155,0.292-3.272C339.476,610.478,339.472,610.414,339.471,610.35z M335.949,602.867l0.108-0.122
		c0.142,0.277,0.276,0.558,0.402,0.842l-0.178-0.006l-0.333,0.045V602.867z M333.243,599.601l0.003-0.836
		c0.294,0.313,0.578,0.633,0.849,0.965l-0.337,0.502l-1.179-0.011l-0.074-0.245L333.243,599.601z M310.661,597.523v-0.032h0.375
		l0.032-0.129h0.614v0.268l-0.176,0.236h-0.846V597.523z M311.26,598.357c0,0,0.375-0.063,0.408-0.063c0.031,0,0,0.374,0,0.374
		l-0.847,0.053l-0.161-0.192L311.26,598.357z M337.141,605.789h-1.371l-0.835-0.622l-0.878,0.086v0.536h-0.279l-0.299-0.214
		l-1.521-0.386v-0.985l-1.927,0.15l-0.599,0.321h-0.766l-0.376-0.038l-0.93,0.516v0.972l-1.899,1.37l0.158,0.585h0.385l-0.101,0.558
		l-0.271,0.1l-0.014,1.457l1.641,1.869h0.715l0.043-0.113h1.285l0.37-0.344h0.729l0.4,0.4l1.084,0.113l-0.143,1.441l1.206,2.129
		l-0.635,1.213l0.042,0.571l0.501,0.499v1.374l0.655,0.883v1.142h0.567c-3.153,3.872-7.954,6.351-13.324,6.351
		c-9.474,0-17.181-7.707-17.181-17.181c0-2.385,0.489-4.657,1.372-6.723v-0.536l0.613-0.746c0.214-0.403,0.442-0.795,0.686-1.178
		l0.028,0.312l-0.714,0.866c-0.221,0.418-0.427,0.845-0.613,1.282v0.978l0.713,0.343v1.359l0.686,1.168l0.557,0.086l0.071-0.4
		l-0.656-1.014l-0.128-0.985h0.385l0.162,1.014l0.951,1.386l-0.247,0.447l0.604,0.922l1.499,0.372v-0.242l0.6,0.085l-0.057,0.428
		l0.472,0.087l0.728,0.198l1.027,1.172l1.313,0.1l0.129,1.07l-0.899,0.629l-0.042,0.957l-0.129,0.584l1.299,1.629l0.1,0.556
		c0,0,0.473,0.128,0.529,0.128s1.056,0.758,1.056,0.758v2.941l0.356,0.1l-0.242,1.355l0.6,0.801l-0.11,1.344l0.792,1.393
		l1.017,0.889l1.023,0.02l0.101-0.329l-0.752-0.633l0.043-0.313l0.136-0.386l0.028-0.393l-0.508-0.014l-0.256-0.322l0.421-0.407
		l0.058-0.307l-0.471-0.135l0.026-0.285l0.673-0.102l1.021-0.49l0.343-0.629l1.071-1.371l-0.244-1.071l0.329-0.571l0.985,0.03
		l0.663-0.525l0.214-2.067l0.735-0.934l0.13-0.601l-0.671-0.215l-0.444-0.727l-1.513-0.015l-1.2-0.457l-0.056-0.856l-0.4-0.7
		l-1.085-0.015l-0.628-0.984l-0.558-0.271l-0.027,0.3l-1.014,0.061l-0.371-0.518l-1.057-0.214l-0.871,1.007l-1.371-0.233l-0.1-1.544
		l-1-0.171l0.401-0.758l-0.115-0.436l-1.314,0.879l-0.826-0.101l-0.295-0.646l0.18-0.666l0.457-0.84l1.049-0.531l2.026-0.001
		l-0.006,0.618l0.729,0.339l-0.058-1.056l0.524-0.528l1.06-0.696l0.072-0.49l1.057-1.099l1.123-0.621l-0.099-0.082l0.761-0.716
		l0.278,0.073l0.127,0.16l0.289-0.32l0.071-0.031l-0.316-0.044l-0.321-0.106v-0.312l0.171-0.139h0.375l0.172,0.075l0.148,0.3
		l0.183-0.027v-0.027l0.053,0.019l0.526-0.081l0.074-0.258l0.3,0.075v0.278l-0.279,0.192h0.002l0.041,0.306l0.953,0.295
		c0,0,0.001,0.004,0.003,0.011l0.219-0.019l0.015-0.413l-0.756-0.345l-0.043-0.198l0.628-0.214l0.027-0.601l-0.655-0.399
		l-0.043-1.014l-0.9,0.442h-0.327l0.085-0.771l-1.224-0.29l-0.507,0.383v1.168l-0.91,0.288l-0.365,0.76l-0.396,0.064v-0.974
		l-0.856-0.118l-0.428-0.279l-0.172-0.63l1.531-0.896l0.749-0.229l0.075,0.504l0.418-0.022l0.031-0.253l0.438-0.063l0.008-0.088
		l-0.188-0.077l-0.043-0.268l0.536-0.046l0.325-0.336l0.018-0.025l0.004,0.002l0.099-0.102l1.128-0.144l0.499,0.425l-1.309,0.696
		l1.665,0.393l0.216-0.557h0.728l0.258-0.486l-0.515-0.128v-0.613l-1.613-0.714l-1.113,0.128l-0.629,0.329l0.043,0.798l-0.656-0.099
		l-0.102-0.442l0.629-0.571l-1.142-0.058l-0.328,0.1l-0.143,0.386l0.428,0.072l-0.086,0.428l-0.728,0.043l-0.114,0.285l-1.056,0.028
		c0,0-0.029-0.599-0.071-0.599c-0.043,0,0.827-0.015,0.827-0.015l0.628-0.613l-0.343-0.172l-0.456,0.443l-0.758-0.043l-0.457-0.629
		h-0.97l-1.014,0.756h0.928l0.086,0.272l-0.243,0.228l1.028,0.029l0.157,0.37l-1.157-0.042l-0.057-0.285l-0.728-0.157l-0.386-0.215
		l-0.866,0.008c2.836-2.066,6.323-3.29,10.094-3.29c4.343,0,8.313,1.624,11.342,4.292l-0.204,0.365l-0.793,0.31l-0.333,0.363
		l0.076,0.423l0.409,0.056l0.247,0.617l0.705-0.284l0.117,0.824h-0.214l-0.58-0.086l-0.641,0.107l-0.621,0.878l-0.89,0.14
		l-0.128,0.76l0.375,0.089l-0.107,0.489l-0.884-0.177l-0.809,0.177l-0.171,0.45l0.139,0.945l0.477,0.222l0.796-0.005l0.538-0.049
		l0.164-0.428l0.841-1.094l0.554,0.113l0.544-0.492l0.103,0.386l1.342,0.905l-0.164,0.219l-0.604-0.031l0.232,0.33l0.372,0.081
		l0.437-0.183l-0.008-0.524l0.193-0.097l-0.156-0.165l-0.895-0.499l-0.234-0.663h0.742l0.238,0.235l0.641,0.553l0.027,0.667
		l0.664,0.707l0.247-0.969l0.459-0.251l0.087,0.793l0.449,0.492l0.895-0.016c0.174,0.446,0.329,0.9,0.465,1.362L337.141,605.789z
		 M312.246,600.328l0.45-0.215l0.407,0.097l-0.14,0.547l-0.439,0.14L312.246,600.328z M314.632,601.613v0.354h-1.027l-0.385-0.107
		l0.097-0.246l0.493-0.204h0.674v0.204H314.632z M315.105,602.106v0.342l-0.258,0.166l-0.32,0.06c0,0,0-0.515,0-0.567H315.105z
		 M314.815,601.967v-0.407l0.354,0.322L314.815,601.967z M314.976,602.79v0.334l-0.246,0.245h-0.546l0.085-0.374l0.258-0.021
		l0.054-0.129L314.976,602.79z M313.617,602.106h0.567l-0.728,1.018l-0.301-0.162l0.064-0.428L313.617,602.106z M315.94,602.674
		v0.332h-0.547l-0.148-0.216v-0.31h0.043L315.94,602.674z M315.437,602.216l0.155-0.163l0.263,0.163l-0.21,0.174L315.437,602.216z
		 M337.419,606.656l0.054-0.063c0.022,0.098,0.046,0.195,0.068,0.293L337.419,606.656z"/>
	<path d="M304.948,603.283v0.536c0.187-0.438,0.393-0.864,0.613-1.282L304.948,603.283z"/>
</g>
<path d="M340.271,590.617c0,0-0.002,0.001-0.004,0.001c-0.021-0.804-0.953-1.452-2.104-1.452c-1.164,0-2.107,0.662-2.107,1.479
	c-1.165,0-2.109,0.662-2.109,1.479c0,0.816,0.944,1.479,2.109,1.479c0.134,0,0.265-0.011,0.393-0.027h4.184v-0.026
	c0.992-0.121,1.748-0.723,1.748-1.452C342.38,591.278,341.436,590.617,340.271,590.617z M338.162,592.132
	c0-0.003,0.002-0.005,0.002-0.008c0.002,0,0.002,0,0.004,0c0,0.002,0.001,0.005,0.001,0.008H338.162z"/>
<path d="M340.954,627.331c0,0-0.002,0-0.004,0c-0.019-0.723-0.858-1.307-1.894-1.307c-1.048,0-1.897,0.596-1.897,1.331
	c-1.049,0-1.899,0.596-1.899,1.332c0,0.735,0.851,1.331,1.899,1.331c0.12,0,0.238-0.01,0.354-0.024h3.767v-0.024
	c0.894-0.108,1.573-0.65,1.573-1.307C342.852,627.926,342.002,627.331,340.954,627.331z M339.054,628.694
	c0-0.003,0.002-0.004,0.002-0.007c0.002,0,0.002,0,0.003,0c0,0.002,0.001,0.004,0.001,0.007H339.054z"/>
<path d="M306.97,629.072c0,0-0.003,0-0.007,0c-0.033-1.294-1.537-2.339-3.39-2.339c-1.876,0-3.396,1.066-3.396,2.383
	c-1.878,0-3.4,1.066-3.4,2.385c0,1.316,1.522,2.383,3.4,2.383c0.215,0,0.427-0.018,0.633-0.044h6.743v-0.044
	c1.599-0.194,2.815-1.164,2.815-2.339C310.369,630.137,308.848,629.072,306.97,629.072z M303.57,631.513
	c0-0.005,0.004-0.007,0.004-0.012c0.003,0,0.003,0,0.006,0c0,0.003,0.001,0.007,0.001,0.012H303.57z"/>
<path d="M311.559,588.733c0,0-0.002,0-0.003,0c-0.012-0.453-0.538-0.819-1.187-0.819c-0.657,0-1.189,0.374-1.189,0.835
	c-0.657,0-1.19,0.373-1.19,0.835c0,0.461,0.533,0.834,1.19,0.834c0.075,0,0.149-0.006,0.222-0.016h2.361v-0.016
	c0.56-0.067,0.985-0.407,0.985-0.818C312.749,589.105,312.216,588.733,311.559,588.733z M310.368,589.588
	c0-0.002,0.002-0.002,0.002-0.004c0.001,0,0.001,0,0.002,0c0,0.001,0,0.002,0,0.004H310.368z"/>
<path d="M341.662,620.89c0,0-0.002,0-0.003,0c-0.012-0.453-0.538-0.819-1.187-0.819c-0.657,0-1.189,0.374-1.189,0.835
	c-0.657,0-1.19,0.373-1.19,0.835c0,0.461,0.533,0.834,1.19,0.834c0.075,0,0.149-0.006,0.222-0.016h2.361v-0.016
	c0.56-0.067,0.985-0.407,0.985-0.818C342.851,621.262,342.319,620.89,341.662,620.89z M340.47,621.744
	c0-0.002,0.002-0.002,0.002-0.004c0.001,0,0.001,0,0.002,0c0,0.001,0,0.002,0,0.004H340.47z"/>
<path d="M342.804,600.927c0,0-0.002,0-0.003,0c-0.012-0.453-0.538-0.819-1.187-0.819c-0.657,0-1.189,0.374-1.189,0.835
	c-0.657,0-1.19,0.373-1.19,0.835c0,0.461,0.533,0.834,1.19,0.834c0.075,0,0.149-0.006,0.222-0.016h2.361v-0.016
	c0.56-0.067,0.985-0.407,0.985-0.818C343.994,601.299,343.461,600.927,342.804,600.927z M341.613,601.781
	c0-0.002,0.002-0.002,0.002-0.004c0.001,0,0.001,0,0.002,0c0,0.001,0,0.002,0,0.004H341.613z"/>
<path d="M333.694,631.802c0,0-0.002,0-0.003,0c-0.012-0.453-0.538-0.819-1.187-0.819c-0.657,0-1.189,0.374-1.189,0.835
	c-0.657,0-1.19,0.373-1.19,0.835c0,0.461,0.533,0.834,1.19,0.834c0.075,0,0.149-0.006,0.222-0.016h2.361v-0.016
	c0.56-0.067,0.985-0.407,0.985-0.818C334.883,632.174,334.351,631.802,333.694,631.802z M332.502,632.656
	c0-0.002,0.002-0.002,0.002-0.004c0.001,0,0.001,0,0.002,0c0,0.001,0,0.002,0,0.004H332.502z"/>
<path d="M303.225,620.89c0,0-0.002,0-0.003,0c-0.012-0.453-0.538-0.819-1.187-0.819c-0.657,0-1.189,0.374-1.189,0.835
	c-0.657,0-1.19,0.373-1.19,0.835c0,0.461,0.533,0.834,1.19,0.834c0.075,0,0.149-0.006,0.222-0.016h2.361v-0.016
	c0.56-0.067,0.985-0.407,0.985-0.818C304.415,621.262,303.882,620.89,303.225,620.89z M302.034,621.744
	c0-0.002,0.002-0.002,0.002-0.004c0.001,0,0.001,0,0.002,0c0,0.001,0,0.002,0,0.004H302.034z"/>
<path d="M303.035,598.146h-0.002c-0.01-0.381-0.452-0.688-0.997-0.688c-0.552,0-0.998,0.314-0.998,0.701c-0.552,0-1,0.313-1,0.701
	c0,0.387,0.448,0.7,1,0.7c0.063,0,0.125-0.005,0.186-0.013h1.983v-0.014c0.47-0.057,0.827-0.342,0.827-0.687
	C304.034,598.458,303.586,598.146,303.035,598.146z M302.035,598.862c0-0.001,0.001-0.001,0.001-0.003c0.001,0,0.001,0,0.002,0
	c0,0.001,0,0.002,0,0.003H302.035z"/>
<path d="M315.815,630.619h-0.002c-0.01-0.381-0.452-0.688-0.997-0.688c-0.552,0-0.998,0.314-0.998,0.701c-0.552,0-1,0.313-1,0.701
	c0,0.387,0.448,0.7,1,0.7c0.063,0,0.125-0.005,0.186-0.013h1.983v-0.014c0.47-0.057,0.827-0.342,0.827-0.687
	C316.814,630.932,316.367,630.619,315.815,630.619z M314.815,631.336c0-0.001,0.001-0.001,0.001-0.003c0.001,0,0.001,0,0.002,0
	c0,0.001,0,0.002,0,0.003H314.815z"/>
<path d="M338.236,596.179h-0.002c-0.01-0.381-0.452-0.688-0.997-0.688c-0.552,0-0.998,0.314-0.998,0.701c-0.552,0-1,0.313-1,0.701
	c0,0.387,0.448,0.7,1,0.7c0.063,0,0.125-0.005,0.186-0.013h1.983v-0.014c0.47-0.057,0.827-0.342,0.827-0.687
	C339.235,596.491,338.788,596.179,338.236,596.179z M337.236,596.896c0-0.001,0.001-0.001,0.001-0.003c0.001,0,0.001,0,0.002,0
	c0,0.001,0,0.002,0,0.003H337.236z"/>
<path d="M304.183,591.941c0,0-0.003,0-0.005,0c-0.021-0.818-0.972-1.479-2.143-1.479c-1.186,0-2.146,0.676-2.146,1.508
	c-1.187,0-2.149,0.673-2.149,1.507c0,0.832,0.963,1.506,2.149,1.506c0.136,0,0.27-0.011,0.399-0.028h4.263v-0.028
	c1.011-0.122,1.779-0.735,1.779-1.478C306.331,592.613,305.37,591.941,304.183,591.941z M302.033,593.483
	c0-0.003,0.003-0.003,0.003-0.007c0.002,0,0.002,0,0.004,0c0,0.002,0,0.004,0,0.007H302.033z"/>
<g>
</g>
<g>
</g>
<g>
</g>
<g>
</g>
<g>
</g>
<g>
</g>
<g>
</g>
<g>
</g>
<g>
</g>
<g>
</g>
<g>
</g>
<g>
</g>
<g>
</g>
<g>
</g>
<g>
</g>
</svg>
