<?xml version="1.0" encoding="iso-8859-1"?>
<!-- Generator: Adobe Illustrator 16.0.0, SVG Export Plug-In . SVG Version: 6.00 Build 0)  -->
<!DOCTYPE svg PUBLIC "-//W3C//DTD SVG 1.1//EN" "http://www.w3.org/Graphics/SVG/1.1/DTD/svg11.dtd">
<svg version="1.1" id="Layer_1" xmlns="http://www.w3.org/2000/svg" xmlns:xlink="http://www.w3.org/1999/xlink" x="0px" y="0px"
	 width="49.312px" height="47.213px" viewBox="0 0 49.312 47.213" style="enable-background:new 0 0 49.312 47.213;"
	 xml:space="preserve">
<g>
	<path d="M378.215,620.156c-1.244-2.008-2.152-5.082-2.152-8.371c0-9.855,8.018-17.873,17.873-17.873
		c2.029,0,3.974,0.355,5.793,0.982l-2.17-2.637c-1.177-0.217-2.385-0.346-3.623-0.346c-10.958,0-19.873,8.915-19.873,19.873
		c0,3.66,1.012,7.081,2.433,9.388L378.215,620.156z"/>
	<path d="M410.154,596.031c0.027-0.192,0.05-0.384,0.063-0.572c0.173-2.318-0.771-4.261-2.589-5.267
		c-2.086-1.154-5.587-0.325-7.495,1.311l3.986,2.159c0.699-0.6,1.038-0.266,1.572,0.029c0.47,0.261,0.64,0.848,0.505,1.748
		c-0.264,1.298-3.474,4.985-7.833,9.395c-0.001,0-0.005-0.002-0.005-0.002c-8.801,8.552-19.783,17.971-22.172,18.273
		c-0.907,0.068-1.48-0.145-1.705-0.633c-0.255-0.555-0.563-0.917,0.087-1.57l-1.857-4.135c-1.772,1.781-2.859,5.211-1.863,7.377
		c0.868,1.887,2.735,2.973,5.061,2.973c0.188,0,0.381-0.008,0.575-0.021c4.668-0.349,19.683-14.565,24.478-19.216
		C405.75,603.634,409.595,599.226,410.154,596.031z"/>
	<path d="M413.683,609.646l-0.042-0.04c-0.347-2.991-1.409-5.969-3.149-8.921l-1.307,1.769c1.782,3.226,2.591,6.148,2.591,9.26
		c0,1.715-0.23,3.414-0.674,5.007c-0.019,0.063-0.031,0.128-0.05,0.19c-0.095,0.325-0.215,0.635-0.328,0.949
		c-2.494,6.87-9.068,11.8-16.788,11.8c-4.185,0-8.028-1.455-11.072-3.875l-1.769,1.127c3.463,2.954,7.941,4.748,12.841,4.748
		c10.959,0,19.874-8.916,19.874-19.875C413.81,611.063,413.759,610.351,413.683,609.646z"/>
</g>
<g>
</g>
<g>
</g>
<g>
</g>
<g>
</g>
<g>
</g>
<g>
</g>
<g>
</g>
<g>
</g>
<g>
</g>
<g>
</g>
<g>
</g>
<g>
</g>
<g>
</g>
<g>
</g>
<g>
</g>
</svg>
