<?xml version="1.0" encoding="iso-8859-1"?>
<!-- Generator: Adobe Illustrator 16.0.0, SVG Export Plug-In . SVG Version: 6.00 Build 0)  -->
<!DOCTYPE svg PUBLIC "-//W3C//DTD SVG 1.1//EN" "http://www.w3.org/Graphics/SVG/1.1/DTD/svg11.dtd">
<svg version="1.1" id="Layer_1" xmlns="http://www.w3.org/2000/svg" xmlns:xlink="http://www.w3.org/1999/xlink" x="0px" y="0px"
	 width="48.748px" height="48.758px" viewBox="0 0 48.748 48.758" style="enable-background:new 0 0 48.748 48.758;"
	 xml:space="preserve">
<g>
	<path d="M539.477-503.908v0.722c0.253-0.59,0.531-1.164,0.829-1.727L539.477-503.908z"/>
	<polygon points="553.822,-505.567 553.614,-505.346 553.895,-505.113 554.178,-505.346 	"/>
	<path d="M541.268-506.081l-0.023-0.261l-0.014-0.159c-0.329,0.516-0.638,1.044-0.925,1.588l0.31-0.376L541.268-506.081z"/>
	<polygon points="548.555,-511.526 548.555,-511.887 547.727,-511.887 547.683,-511.713 547.178,-511.713 547.178,-511.67 
		547.178,-511.209 548.316,-511.209 	"/>
	<path d="M583.312-499.446l-0.073,0.085l0.164,0.308C583.374-499.185,583.343-499.316,583.312-499.446z"/>
	<path d="M552.388-504.729l0.433-0.081l0.346-0.223v-0.461h-0.778C552.388-505.422,552.388-504.729,552.388-504.729z"/>
	<path d="M581.945-503.498c-0.17-0.383-0.351-0.762-0.543-1.135l-0.145,0.165v1.022l0.449-0.061L581.945-503.498z"/>
	<path d="M548.535-510.126c0,0,0.043-0.505,0-0.505s-0.549,0.086-0.549,0.086l-0.809,0.231l0.217,0.26L548.535-510.126z"/>
	<path d="M578.304-508.02l0.454-0.677c-0.364-0.448-0.746-0.881-1.143-1.301l-0.004,1.128l-0.995,0.504l0.099,0.332L578.304-508.02z
		"/>
	<polygon points="550.469,-508.049 549.92,-508.18 549.314,-507.891 549.688,-507.125 550.279,-507.313 	"/>
	<polygon points="552.776,-506.231 552.776,-505.682 553.254,-505.797 	"/>
	<polygon points="551.42,-506.433 550.756,-506.159 550.627,-505.826 551.146,-505.682 552.53,-505.682 552.53,-506.159 
		552.33,-506.159 552.33,-506.433 	"/>
	<polygon points="550.539,-504.341 550.944,-504.124 551.926,-505.494 551.16,-505.494 550.627,-504.917 	"/>
	<polygon points="553.354,-504.989 553.354,-504.572 553.557,-504.282 554.293,-504.282 554.293,-504.729 553.412,-504.989 	"/>
	<polygon points="552.388,-504.326 552.041,-504.297 551.926,-503.792 552.662,-503.792 552.994,-504.124 552.994,-504.572 
		552.46,-504.499 	"/>
	<path d="M581.161-502.464l-0.606-0.664l-0.115-1.068l-0.619,0.338l-0.334,1.306l-0.895-0.953l-0.036-0.901l-0.864-0.744
		l-0.319-0.317h-1.003l0.318,0.894l1.205,0.672l0.209,0.223l-0.26,0.131l0.01,0.707l-0.588,0.245l-0.5-0.11l-0.314-0.445
		l0.814,0.045l0.221-0.297l-1.807-1.219l-0.137-0.521l-0.736,0.664l-0.744-0.153l-1.133,1.473l-0.223,0.578l-0.726,0.066
		l-1.072,0.006l-0.641-0.299l-0.188-1.274l0.23-0.606l1.092-0.24l1.189,0.24l0.145-0.659l-0.506-0.12l0.174-1.025l1.197-0.187
		l0.838-1.183l0.863-0.145l0.781,0.116h0.287l-0.157-1.111l-0.948,0.382l-0.334-0.83l-0.551-0.076l-0.104-0.57l0.45-0.489
		l1.067-0.418l0.275-0.491c-3.033-2.673-6.77-4.563-10.891-5.36c-0.094-0.017-0.186-0.034-0.279-0.05
		c-0.426-0.077-0.859-0.129-1.294-0.182c-0.927-0.114-1.864-0.193-2.822-0.193c-5.08,0-9.78,1.649-13.603,4.434l0.197-0.001
		l0.97-0.008l0.521,0.288l0.98,0.211l0.076,0.386l1.56,0.057l-0.212-0.5l-1.385-0.039l0.326-0.308l-0.114-0.365h-1.251l1.365-1.02
		h1.309l0.615,0.847l1.021,0.057l0.615-0.597l0.462,0.232l-0.847,0.827c0,0-1.173,0.019-1.116,0.019
		c0.059,0,0.098,0.808,0.098,0.808l1.422-0.039l0.154-0.384l0.981-0.059l0.115-0.576l-0.576-0.098l0.192-0.52l0.441-0.135
		l1.539,0.077l-0.848,0.77l0.137,0.596l0.885,0.135l-0.058-1.077l0.847-0.443l1.501-0.173l2.175,0.962v0.828l0.692,0.172
		l-0.347,0.654h-0.98l-0.291,0.75l-2.244-0.529l1.764-0.939l-0.672-0.571l-1.52,0.192l-0.135,0.138l-0.005-0.002l-0.024,0.033
		l-0.438,0.454l-0.723,0.062l0.058,0.361l0.253,0.104l-0.01,0.12l-0.589,0.084l-0.043,0.341l-0.563,0.029l-0.102-0.678l-1.011,0.307
		l-2.063,1.208l0.23,0.85l0.576,0.376l1.155,0.159v1.313l0.532-0.087l0.492-1.024l1.228-0.389v-1.574l0.683-0.515l1.65,0.39
		l-0.117,1.04h0.443l1.212-0.596l0.059,1.365l0.884,0.539l-0.037,0.809l-0.847,0.289l0.058,0.267l1.019,0.465l-0.019,0.557
		l-0.296,0.026c-0.001-0.009-0.003-0.016-0.003-0.016l-1.287-0.396l-0.055-0.414h-0.001l0.376-0.258v-0.376l-0.404-0.1l-0.1,0.347
		l-0.711,0.109l-0.07-0.024v0.036l-0.245,0.038l-0.2-0.405l-0.232-0.1h-0.505l-0.229,0.187v0.418l0.432,0.145l0.428,0.059
		l-0.096,0.043l-0.391,0.431l-0.17-0.216l-0.377-0.099l-1.025,0.965l0.135,0.11l-1.515,0.837l-1.425,1.482l-0.097,0.659
		l-1.427,0.938l-0.708,0.711l0.078,1.424l-0.981-0.458l0.007-0.833l-2.73,0.001l-1.415,0.716l-0.613,1.132l-0.244,0.897l0.398,0.871
		l1.113,0.135l1.771-1.184l0.154,0.587l-0.54,1.021l1.349,0.229l0.135,2.081l0.17,0.029l0.016,0.002l1.662,0.283l1.172-1.356
		l1.425,0.29l0.499,0.696l1.367-0.082l0.037-0.403l0.752,0.365l0.846,1.327l1.462,0.021l0.54,0.943l0.076,1.154l1.617,0.616
		l2.039,0.02l0.597,0.979l0.903,0.29l-0.172,0.809l-0.992,1.259l-0.289,2.786l-0.895,0.708l-1.326-0.041l-0.444,0.769l0.329,1.445
		l-1.443,1.847l-0.463,0.847l-1.376,0.662l-0.903,0.137l-0.039,0.384l0.636,0.182l-0.077,0.413l-0.568,0.548l0.346,0.435
		l0.684,0.019l-0.039,0.529l-0.182,0.52l-0.057,0.423l1.012,0.853l-0.136,0.443l-1.378-0.025l-1.371-1.198l-1.067-1.877l0.149-1.812
		l-0.809-1.078l0.327-1.827l-0.479-0.136v-3.963c0,0-1.348-1.021-1.424-1.021c-0.078,0-0.713-0.171-0.713-0.171l-0.134-0.75
		l-1.752-2.194l0.173-0.789l0.059-1.289l1.211-0.847l-0.172-1.443l-1.77-0.134l-1.387-1.578l-0.98-0.269l-0.635-0.117l0.076-0.576
		l-0.809-0.116v0.327l-2.02-0.5l-0.814-1.245l0.282-0.511l-0.334-0.003l-0.098-0.324l0.237-0.12l-1.035-1.511l-0.221-1.366h-0.52
		l0.174,1.327l0.885,1.366l-0.097,0.541L541.361-498l-0.922-1.574v-1.831l-0.963-0.463v-1.116v-0.202
		c-0.542,1.271-0.969,2.604-1.277,3.979l0.054-0.011l0.318-0.064l0.188,0.903l0.396,0.64l0.264,0.302l0.479,0.187l-0.451,0.537
		l-0.874,0.085h-0.659l0.074-0.781l0.547-0.113l-0.047-0.367l-0.453-0.286l-0.037-0.023c-0.236,1.324-0.367,2.684-0.367,4.073
		c0,0.041,0.003,0.082,0.003,0.123c0.067,12.711,10.425,23.031,23.15,23.031c7.237,0,13.708-3.341,17.957-8.559h-0.763v-1.539
		l-0.884-1.19v-1.852l-0.675-0.671l-0.058-0.771l0.854-1.635l-1.624-2.867l0.192-1.945l-1.461-0.152l-0.539-0.539h-0.982l-0.5,0.462
		h-1.73l-0.059,0.153h-0.963l-2.211-2.519l0.018-1.963l0.365-0.135l0.137-0.75h-0.52l-0.213-0.789l2.559-1.847v-1.308l1.253-0.696
		l0.507,0.051h1.031l0.807-0.433l2.598-0.203v1.328l2.05,0.52l0.403,0.288h0.377v-0.722l1.182-0.115l1.126,0.836h1.848l0.129-0.118
		c-0.183-0.623-0.392-1.234-0.626-1.835L581.161-502.464z"/>
</g>
<g>
</g>
<g>
</g>
<g>
</g>
<g>
</g>
<g>
</g>
<g>
</g>
<g>
</g>
<g>
</g>
<g>
</g>
<g>
</g>
<g>
</g>
<g>
</g>
<g>
</g>
<g>
</g>
<g>
</g>
</svg>
