<?xml version="1.0" encoding="iso-8859-1"?>
<!-- Generator: Adobe Illustrator 16.0.0, SVG Export Plug-In . SVG Version: 6.00 Build 0)  -->
<!DOCTYPE svg PUBLIC "-//W3C//DTD SVG 1.1//EN" "http://www.w3.org/Graphics/SVG/1.1/DTD/svg11.dtd">
<svg version="1.1" id="Layer_1" xmlns="http://www.w3.org/2000/svg" xmlns:xlink="http://www.w3.org/1999/xlink" x="0px" y="0px"
	 width="48.748px" height="48.758px" viewBox="0 0 48.748 48.758" style="enable-background:new 0 0 48.748 48.758;"
	 xml:space="preserve">
<g>
	<path d="M653.458-485.936l0.061-1.342l1.261-0.882l-0.18-1.502l-1.842-0.14l-1.443-1.644l-1.021-0.279l-0.66-0.122l0.08-0.601
		l-0.843-0.12v0.341l-2.104-0.521l-0.847-1.294l0.346-0.628l-1.333-1.944l-0.229-1.422h-0.541l0.182,1.382l0.919,1.422l-0.1,0.562
		l-0.78-0.12l-0.961-1.64v-1.906l-1.002-0.481v-2.123l1.862-2.264l-0.12-1.353l0.521-0.37l-0.621-0.581l0.039-1.022l-0.739-0.661
		h-2.064l-0.34,0.361l-2.465-0.02l-0.902-0.763l0.702-0.5h1.802v-0.336l-0.841-0.125l0.542-0.42l1.182-0.182l1.763-1.202h3.045
		l1.664,0.501l0.56,0.32l0.501,0.04l0.742-0.721l1.336-0.011c-4.219-4.152-10.005-6.716-16.392-6.716
		c-6.07,0-11.599,2.315-15.754,6.109l0.6,0.445l0.398,0.031l0.942-0.953l1.04,0.036l1.385,0.206l0.87,0.44l9.314,0.481l2.555,1.081
		l-0.359,0.306l-1.895-0.306l-0.029,0.366l0.691,0.476l-0.902,0.18v0.542l-1.861,0.121l1.411,1.322l0.241,1.082l-0.632,0.33
		l-1.984-1.621v-0.751l0.481-0.752l-0.359-0.451l-2.165,1.442l-1.713-0.151l-0.57-0.42l-0.721,1.022l0.33,0.66l2.493,0.301
		l1.002,1.142l-0.25,0.331l-0.781-0.782l-0.359,0.39l0.609,0.805l-0.13,1.513l-1.603-0.001l-0.08,1.221l1.353,0.821l0.47,0.62
		l-0.711,0.191L625-501.064h-0.812l0.031,1.563l1.832,1.922l0.14,1.393l-0.922,0.77l-2.102,0.752l0.209,0.781l-0.382,0.27
		l-0.429-0.66l0.061-0.511l-0.752-0.24l-0.422,0.57l0.061,1.082l1.481,1.192l0.149,0.901l-0.898,0.597l-0.681-0.071l-1.224-1.387
		l-0.24,0.962l2.314,3.306l-0.151,0.479l-2.854-2.733v-2.765l-2.163-1.922l-1.724-0.165l-0.978,0.365l-0.604,1.302l-0.323,2.418
		l-0.585,0.849l-0.587-0.136l-1.604-2.637c0.409,12.55,10.705,22.601,23.354,22.601c9.075,0,16.937-5.176,20.81-12.733l-1.728-2.166
		L653.458-485.936z M614.372-489.594l-0.911,0.339l-0.252-0.68l0.528-0.746l0.734,0.145L614.372-489.594z M631.181-487.671
		l0.64,0.38l-0.05,0.698l0.672-0.017l0.722-0.381l2.584,1.173l0.101,1.392h0.541v0.461h-1.083v-1.142l-0.62,0.061l-0.582,0.621
		l-1.604,0.101l-0.02-0.742h0.482l-0.021-0.361l-0.742-0.39l-1.321-0.19l-0.611-0.751L631.181-487.671z M628.332-484.446
		l0.048-0.278l0.549-0.081l0.045,0.426l-0.337-0.037v0.247h-0.481v0.211h-0.467v-0.421h0.031L628.332-484.446z M627.96-484.646
		l-0.315-0.098v-0.217h0.405L627.96-484.646z M627.787-487.458l0.015,1.952l-0.44,0.04v-0.662l-0.42-0.151l0.079,0.933h-0.54v-1.463
		h0.261l-0.013-0.238L627.787-487.458z M627.441-484.875v0.228l-0.218,0.034v0.234h-0.3v0.187l-0.443,0.046v-0.233l0.284-0.268
		l0.196-0.228H627.441z M623.145-488.147l2.096-1.137l0.277-0.247l0.232-0.625h0.362l0.12,0.617l0.248,0.104v1.978l-0.248,0.163
		v0.263l-0.399,0.361l-0.225,0.571h-1.765l-0.699-0.925V-488.147z M626.232-484.646v0.268h-0.482v-0.268H626.232z M621.345-485.248
		h0.56v-0.2l-0.421-0.141l-2.943-3.605l0.502-0.4l2.065,1.86l-0.023,0.303l0.439,0.581l1.604-0.02l0.06,0.741l-0.581,0.06
		l-0.239-0.101l0.06,0.802l1.483-0.04l1.2,0.762l-3.626-0.158L621.345-485.248z M632.485-473.133l-0.843,0.464l-1.043-0.114
		l0.982-1.086l0.919,0.101L632.485-473.133z M633.164-474.309l-2.952-0.103l-0.961-2.116l-2.599,0.104l-3.206,1.102v-0.582
		l0.662-0.641l0.08-3.285l1.101-0.76l0.989-0.013l1.862-2.123l1.176-0.089v0.44h0.401l0.982-1.394h1.367l1.163,0.699l-0.547,0.534
		l-0.647-0.132l0.043,0.877l0.342,0.206l1.224,0.091l0.261-2.212l0.641,0.03l0.712,1.22l0.082,1.764l1.079,0.924l0.29,1.184
		l-0.701,1.599L633.164-474.309z M640.127-474.687l-0.799,0.354l-0.749,0.491l-2.645,1.621l-1.088,0.167v-0.496l0.354-0.291
		l2.085-1.482l1.302-0.181l0.701-0.479l0.101-1.535l0.798-0.047l0.013,0.981l0.435-0.086l0.296,0.527L640.127-474.687z"/>
	<polygon points="655.381,-502.593 654.586,-502.593 654.029,-501.993 653.938,-501.392 654.359,-501.166 	"/>
	<polygon points="656.267,-502.789 656.764,-502.909 656.267,-503.361 	"/>
	<polygon points="655.688,-502.789 656.012,-502.789 656.012,-503.285 655.803,-503.285 655.803,-503.57 655.335,-503.57 
		654.855,-503.57 654.164,-503.285 654.029,-502.939 654.57,-502.789 	"/>
	<polygon points="653.669,-504.487 653.864,-505.253 653.293,-505.389 652.662,-505.088 653.052,-504.292 	"/>
	<path d="M657.454-502.214c-0.052-0.131-0.104-0.262-0.156-0.393l-0.158,0.168l0.291,0.243L657.454-502.214z"/>
	<path d="M657.587-501.874l-0.657-0.194h-0.06v0.435l0.209,0.303h0.691C657.709-501.512,657.652-501.695,657.587-501.874z"/>
	<polygon points="650.438,-509.024 650.438,-508.544 651.626,-508.544 651.871,-508.874 651.871,-508.875 651.871,-509.249 
		651.548,-509.249 651.011,-509.249 650.965,-509.069 650.438,-509.069 	"/>
	<path d="M655.862-502.361c0,0.237,0,0.564,0,0.564l0.207-0.038l0.243-0.044l0.362-0.233v-0.48h-0.813
		C655.862-502.569,655.862-502.475,655.862-502.361z"/>
	<polygon points="655.938,-501.557 655.862,-501.376 655.501,-501.346 655.381,-500.82 656.148,-500.82 656.354,-501.027 
		656.493,-501.166 656.493,-501.633 656.165,-501.588 	"/>
	<path d="M650.438-507.613l0.227,0.271l1.187-0.076c0,0,0.045-0.525,0-0.525s-0.57,0.09-0.57,0.09L650.438-507.613z"/>
</g>
<g>
</g>
<g>
</g>
<g>
</g>
<g>
</g>
<g>
</g>
<g>
</g>
<g>
</g>
<g>
</g>
<g>
</g>
<g>
</g>
<g>
</g>
<g>
</g>
<g>
</g>
<g>
</g>
<g>
</g>
</svg>
