<?xml version="1.0" encoding="iso-8859-1"?>
<!-- Generator: Adobe Illustrator 16.0.0, SVG Export Plug-In . SVG Version: 6.00 Build 0)  -->
<!DOCTYPE svg PUBLIC "-//W3C//DTD SVG 1.1//EN" "http://www.w3.org/Graphics/SVG/1.1/DTD/svg11.dtd">
<svg version="1.1" id="Layer_1" xmlns="http://www.w3.org/2000/svg" xmlns:xlink="http://www.w3.org/1999/xlink" x="0px" y="0px"
	 width="46.84px" height="49.441px" viewBox="0 0 46.84 49.441" style="enable-background:new 0 0 46.84 49.441;"
	 xml:space="preserve">
<g>
	<path d="M259.541-694.118c-0.147,0.288,0.2,0.981-2.768,1.233c-0.523,0.036-1.055-0.199-1.616-0.715
		c-0.357-0.329-0.701-0.754-1.03-1.245c-0.179-0.266-0.353-0.556-0.522-0.863c-0.019-0.034-0.037-0.067-0.056-0.102
		c-0.17-0.313-0.335-0.643-0.496-0.993h0c-1.046-2.287-1.872-5.286-2.384-8.323c-0.082-0.482-0.158-0.965-0.223-1.446l0,0
		c-0.105-0.772-0.188-1.54-0.249-2.292l4.055-0.241l-6.172-7.055l-4.291,7.677l1.184-0.07l0,0l1.477-0.088l0,0l0.755-0.045
		c0.072,0.884,0.18,1.818,0.316,2.774l0,0c0,0.002,0,0.004,0.001,0.007c0.38,2.669,1.006,5.524,1.898,8.072c0,0.001,0,0.002,0,0.002
		s0,0,0,0.001c0.286,0.815,0.6,1.595,0.939,2.33l0,0.001l0,0c0.778,1.686,1.697,3.123,2.765,4.105
		c1.089,1.002,2.274,1.51,3.546,1.51c0.109,0,0.219-0.004,0.329-0.011c4.57-0.388,5.774-3.598,5.772-5.14
		c0,0-0.911,0.422-1.505,0.609S259.541-694.118,259.541-694.118z"/>
	<path d="M250.798-731.653c0-0.017,0.033-1.701,3-1.953c0.525-0.039,1.055,0.198,1.616,0.715c0.515,0.474,1.001,1.137,1.457,1.933
		c0.169,0.295,0.333,0.61,0.492,0.941c0.012,0.026,0.025,0.052,0.037,0.078c0.158,0.332,0.311,0.678,0.459,1.04
		c0.959,2.346,1.703,5.28,2.151,8.203c0.074,0.485,0.14,0.969,0.198,1.451c0.065,0.544,0.123,1.086,0.166,1.618l-4.055,0.241
		l3.782,4.323l0,0l1.301,1.487l0,0l1.089,1.245l1.124-2.01l0.404-0.723l0,0l1.158-2.071l0.626-1.121v0l0.979-1.752l-1.218,0.072l0,0
		l-1.078,0.064l-1.121,0.067c-0.055-0.67-0.13-1.371-0.222-2.085l0,0c0-0.002,0-0.003,0-0.005c-0.124-0.964-0.281-1.957-0.471-2.959
		v0c0-0.002-0.001-0.004-0.001-0.006c-0.362-1.905-0.847-3.83-1.459-5.614h0c0-0.002-0.001-0.004-0.002-0.006
		c-0.214-0.624-0.446-1.225-0.691-1.807l0,0l0,0c-0.84-1.99-1.859-3.695-3.072-4.811c-1.183-1.088-2.478-1.589-3.875-1.499
		c-4.57,0.388-5.74,3.548-5.772,5.72c0,0,1.076-0.519,1.673-0.625S250.798-731.653,250.798-731.653z"/>
	<polygon points="254.813,-716.07 254.626,-716.284 254.626,-713.064 253.445,-713.064 255.759,-710.42 256.113,-710.015 
		256.113,-711.577 258.744,-711.577 257.443,-713.064 256.113,-713.064 256.113,-714.584 	"/>
	<path d="M242.653-702.22c0.928-0.607,1.999-1.145,3.178-1.604c-0.088-0.491-0.169-0.979-0.241-1.46
		c-1.419,0.538-2.703,1.188-3.814,1.93c-1.667-2.365-2.74-5.177-2.983-8.224h4.438l0.832-1.487h-5.324
		c0.032-3.499,1.158-6.736,3.038-9.404c1.126,0.752,2.429,1.411,3.87,1.953c-0.532,1.943-0.854,4.076-0.949,6.315l1.639-2.933
		l0.171-0.306c0.143-0.897,0.313-1.773,0.532-2.603c1.606,0.492,3.358,0.837,5.199,1.027l-0.111-0.127l4.073-0.242l1.965-0.117
		c-0.042-0.318-0.087-0.634-0.135-0.949c-0.628,0.056-1.267,0.093-1.917,0.109v-7.561c-0.52-1.323-1.089-2.398-1.671-3.104
		c-5.214,0.265-9.854,2.74-12.995,6.508c-0.305,0.366-0.594,0.746-0.87,1.135c-2.094,2.956-3.331,6.56-3.331,10.45
		s1.237,7.495,3.331,10.45c0.276,0.39,0.565,0.77,0.87,1.136c1.72,2.063,3.892,3.734,6.357,4.873
		c-0.251-0.663-0.485-1.343-0.7-2.039C245.412-699.469,243.905-700.733,242.653-702.22z M254.626-729.495v9.155
		c-2.587-0.063-5.023-0.453-7.175-1.098C248.946-725.943,251.577-729.077,254.626-729.495z M250.073-728.679
		c-1.667,1.607-3.05,3.956-4.004,6.775c-1.278-0.478-2.429-1.052-3.42-1.702C244.593-725.915,247.15-727.694,250.073-728.679z"/>
	<path d="M270.164-723.362c-0.276-0.39-0.564-0.77-0.87-1.136c-1.699-2.039-3.837-3.696-6.266-4.834
		c0.231,0.657,0.442,1.331,0.639,2.013c1.682,0.975,3.178,2.235,4.424,3.714c-0.941,0.617-2.031,1.161-3.231,1.623
		c0.082,0.496,0.154,0.986,0.219,1.47c1.447-0.543,2.755-1.202,3.885-1.957c0.5,0.709,0.942,1.462,1.33,2.247l0.016-0.001
		l-0.009,0.017c1.063,2.16,1.678,4.579,1.702,7.142h-5.694l-2.003,3.585c-0.15,1.284-0.374,2.519-0.678,3.676
		c-2.271-0.688-4.816-1.102-7.514-1.166h-1.487c-0.746,0.018-1.477,0.068-2.197,0.137c0.066,0.492,0.142,0.98,0.224,1.464
		c0.646-0.059,1.304-0.099,1.973-0.115v7.316c0.589,1.409,1.234,2.498,1.885,3.096c0.107,0.099,0.184,0.153,0.229,0.181
		c0.093-0.01,0.169,0.011,0.251,0.023c4.931-0.44,9.301-2.857,12.303-6.458c0.305-0.366,0.594-0.747,0.87-1.136
		c2.094-2.956,3.33-6.561,3.33-10.451S272.258-720.406,270.164-723.362z M256.113-696.34v-9.143
		c2.558,0.063,4.966,0.445,7.099,1.077C261.735-699.93,259.132-696.806,256.113-696.34z M260.535-697.1
		c1.692-1.613,3.099-3.988,4.061-6.847c1.307,0.482,2.481,1.065,3.492,1.727C266.113-699.875,263.512-698.075,260.535-697.1z
		 M268.966-703.353c-1.147-0.767-2.477-1.436-3.95-1.983c0.523-1.924,0.858-4.026,0.954-6.241h5.979
		C271.706-708.531,270.634-705.718,268.966-703.353z"/>
</g>
<g>
</g>
<g>
</g>
<g>
</g>
<g>
</g>
<g>
</g>
<g>
</g>
<g>
</g>
<g>
</g>
<g>
</g>
<g>
</g>
<g>
</g>
<g>
</g>
<g>
</g>
<g>
</g>
<g>
</g>
</svg>
