<?xml version="1.0" encoding="iso-8859-1"?>
<!-- Generator: Adobe Illustrator 16.0.0, SVG Export Plug-In . SVG Version: 6.00 Build 0)  -->
<!DOCTYPE svg PUBLIC "-//W3C//DTD SVG 1.1//EN" "http://www.w3.org/Graphics/SVG/1.1/DTD/svg11.dtd">
<svg version="1.1" id="Layer_1" xmlns="http://www.w3.org/2000/svg" xmlns:xlink="http://www.w3.org/1999/xlink" x="0px" y="0px"
	 width="46px" height="46.145px" viewBox="0 0 46 46.145" style="enable-background:new 0 0 46 46.145;" xml:space="preserve">
<path style="stroke:#FFFFFF;stroke-width:0.5;stroke-miterlimit:10;" d="M32.44,30.044l0.167,3.554l-7.526-6.842l6.773-7.731
	l0.299,4.183c5.167-0.703,10.352-1.436,13.579-2C44.782,9.477,34.968,0.25,22.991,0.25C11.098,0.25,1.333,9.349,0.27,20.965
	c2.979,0.585,8.94,1.432,14.89,2.242l0.299-4.183l6.773,7.731l-7.526,6.842l0.167-3.554C9.421,29.338,3.94,27.868,0.483,26.836
	c1.795,10.813,11.186,19.059,22.508,19.059c11.179,0,20.474-8.039,22.436-18.65C41.987,28.227,37.206,29.427,32.44,30.044z"/>
<g>
</g>
<g>
</g>
<g>
</g>
<g>
</g>
<g>
</g>
<g>
</g>
<g>
</g>
<g>
</g>
<g>
</g>
<g>
</g>
<g>
</g>
<g>
</g>
<g>
</g>
<g>
</g>
<g>
</g>
</svg>
