<?xml version="1.0" encoding="iso-8859-1"?>
<!-- Generator: Adobe Illustrator 16.0.0, SVG Export Plug-In . SVG Version: 6.00 Build 0)  -->
<!DOCTYPE svg PUBLIC "-//W3C//DTD SVG 1.1//EN" "http://www.w3.org/Graphics/SVG/1.1/DTD/svg11.dtd">
<svg version="1.1" id="Layer_1" xmlns="http://www.w3.org/2000/svg" xmlns:xlink="http://www.w3.org/1999/xlink" x="0px" y="0px"
	 width="46.84px" height="49.441px" viewBox="0 0 46.84 49.441" style="enable-background:new 0 0 46.84 49.441;"
	 xml:space="preserve">
<g>
	<polygon points="-44.063,-635.447 -44.004,-635.984 -44.423,-636.067 -44.725,-635.642 -44.582,-635.254 	"/>
	<polygon points="-51.017,-629.323 -50.321,-630.342 -49.989,-631.941 -50.412,-631.941 -50.824,-631.118 -51.532,-631.21 
		-51.532,-630.662 -51.281,-630.365 -51.474,-630.068 -51.76,-629.737 -51.76,-629.132 -51.371,-628.754 	"/>
	<polygon points="-59.766,-644.613 -59.738,-644.391 -60.07,-644.322 -60.115,-643.848 -59.715,-643.848 -59.184,-643.899 
		-58.911,-644.225 -59.201,-644.339 -59.361,-644.522 -59.601,-644.91 -59.715,-645.458 -60.167,-645.367 -60.292,-645.174 
		-60.292,-644.956 -60.075,-644.808 	"/>
	<polygon points="-60.149,-644.431 -60.126,-644.728 -60.39,-644.842 -60.76,-644.756 -61.034,-644.316 -61.034,-644.03 
		-60.715,-644.03 	"/>
	<path d="M-37.348-638.48c0-8.271-6.729-15-15-15s-15,6.729-15,15c0,8.271,6.729,15,15,15S-37.348-630.209-37.348-638.48z
		 M-66.114-638.48c0-7.591,6.175-13.766,13.766-13.766c3.732,0,7.119,1.494,9.601,3.914c0.162,0.158,0.316,0.322,0.47,0.487h-1.945
		l-0.978-0.583l-1.957,0.124l-1.486,0.665l0.012,0.771l-0.458,0.137l-0.103-0.771l-0.171-0.268l-0.514-0.126l-0.12,0.463
		l0.154,0.376l-1.828-0.12l-0.873,0.405l-0.132-0.382l-0.217,0.057l-0.16,0.423l-0.458,0.357l-1.114-0.032l-0.05-0.245l1.164-0.052
		l0.24-0.205l-1.404-0.651l-1.714,0.052l-0.959,0.491l-0.36,0.643l-0.634,0.249l-0.267,0.29l0.062,0.338l0.327,0.046l0.198,0.493
		l0.563-0.227l0.095,0.659h-0.171l-0.464-0.068l-0.513,0.085l-0.497,0.703l-0.712,0.111l-0.102,0.608l0.3,0.072l-0.085,0.391
		l-0.707-0.141l-0.648,0.141l-0.137,0.36l0.112,0.756l0.38,0.178l0.637-0.003l0.43-0.04l0.133-0.342l0.672-0.874l0.441,0.09
		l0.437-0.394l0.082,0.308l1.073,0.724l-0.131,0.177l-0.484-0.026l0.187,0.264l0.297,0.065l0.349-0.146l-0.007-0.42l0.155-0.078
		l-0.125-0.132l-0.715-0.399l-0.188-0.531h0.595l0.189,0.189l0.514,0.441l0.021,0.534l0.531,0.565l0.197-0.775l0.368-0.201
		l0.069,0.634l0.359,0.394l1.084-0.018l0.321,0.241v0.565l-0.395,0.36h-1.096l-0.667-0.498l-0.703,0.068v0.429h-0.223l-0.239-0.171
		l-1.217-0.309v-0.789l-1.542,0.12l-0.479,0.258h-0.612l-0.301-0.031l-0.744,0.413v0.777l-1.519,1.097l0.126,0.468h0.308
		l-0.081,0.445l-0.217,0.079l-0.011,1.166l1.313,1.496h0.572l0.034-0.091h1.028l0.297-0.274h0.583l0.319,0.319l0.868,0.091
		l-0.114,1.154l0.965,1.702l-0.508,0.971l0.034,0.457l0.4,0.399v1.099l0.525,0.706v0.914h1.554l1.165-1.199l0.365-0.651l0.468-0.104
		v-0.547l0.309-0.367l0.651-0.89l-0.137-1.358l-0.286-0.504l1.283-1.224l1.412-2.019l-0.274-0.126l-1.467,0.309l-0.378-0.188
		l-1.542-2.905l0.108-0.126l1.528,1.856l0.038,0.574l0.354,0.354l0.719-0.046l1.502-1.087l0.471-0.309l-0.009-0.376l-0.501-0.066
		c0,0-1.759-0.829-1.759-0.866s0.011-0.711,0.011-0.711h0.388l0.058,0.492l0.815,0.468l0.932,0.046l2.022,0.331l0.473,0.298v0.462
		l-0.061,0.629l1.036,1.705l0.335,0.077l0.334-0.484l0.184-1.379l0.346-0.742l0.558-0.208l0.982,0.093l1.233,1.097v1.576
		l1.628,1.559l0.085-0.273l-1.319-1.885l0.137-0.549l0.697,0.791l0.389,0.041l0.512-0.34l-0.085-0.514l-0.845-0.68l-0.034-0.617
		l0.241-0.325l0.428,0.137l-0.035,0.291l0.245,0.376l0.217-0.154l-0.119-0.445l0.465-0.167c0,0.008,0,0.016,0,0.023
		c0,7.59-6.175,13.766-13.766,13.766S-66.114-630.89-66.114-638.48z"/>
	<path d="M-52.348-659.285c6.39,0,12.095,2.968,15.825,7.592l-2.45,1.73l7.705,2.63l-0.8-7.505l-2.158,1.523
		c-4.243-5.343-10.785-8.781-18.122-8.781c-3.613,0-7.035,0.833-10.085,2.316l0.898,2.697
		C-58.772-658.488-55.652-659.285-52.348-659.285z"/>
	<path d="M-32.17-633.731c-0.707,3.017-2.109,5.917-4.239,8.442c-4.121,4.884-10.067,7.332-16.007,7.203l0.258-2.988l-6.978,4.193
		l6.252,4.227l0.227-2.632c6.819,0.201,13.666-2.583,18.396-8.191c2.33-2.762,3.898-5.915,4.732-9.202L-32.17-633.731z"/>
	<path d="M-72.039-630.676c-2.426-5.911-1.848-12.315,1.014-17.522l2.53,1.61l-0.493-8.126l-6.638,3.589l2.229,1.419
		c-3.332,5.953-4.028,13.312-1.241,20.098c1.372,3.344,3.443,6.192,5.972,8.451l2.154-1.856
		C-68.861-625.034-70.784-627.619-72.039-630.676z"/>
</g>
<g>
</g>
<g>
</g>
<g>
</g>
<g>
</g>
<g>
</g>
<g>
</g>
<g>
</g>
<g>
</g>
<g>
</g>
<g>
</g>
<g>
</g>
<g>
</g>
<g>
</g>
<g>
</g>
<g>
</g>
</svg>
