<?xml version="1.0" encoding="iso-8859-1"?>
<!-- Generator: Adobe Illustrator 16.0.0, SVG Export Plug-In . SVG Version: 6.00 Build 0)  -->
<!DOCTYPE svg PUBLIC "-//W3C//DTD SVG 1.1//EN" "http://www.w3.org/Graphics/SVG/1.1/DTD/svg11.dtd">
<svg version="1.1" id="Layer_1" xmlns="http://www.w3.org/2000/svg" xmlns:xlink="http://www.w3.org/1999/xlink" x="0px" y="0px"
	 width="46.84px" height="49.441px" viewBox="0 0 46.84 49.441" style="enable-background:new 0 0 46.84 49.441;"
	 xml:space="preserve">
<g>
	<path d="M197.394-718.096c0.391,1.641,0.396,1.921,0.531,3.5c0.293,0.084,2.786,0.939,2.375,3.816
		c-0.042,0.258-0.507,0.504-0.705,0.597c-4.218,1.99-18.071-0.084-23.709-2.376l1.35-3.853l-8.838,3.306l4.861,6.572
		c-0.011,0.002-0.022,0.004-0.033,0.006l0.244,0.33l0.012-0.035l0.128,0.173l1.246-3.556c4.401,1.705,12.711,3.354,19.166,3.354
		c2.825,0,5.292-0.316,6.915-1.082c1.782-0.841,2.324-2.062,2.468-2.965C204.083-715.061,199.181-717.507,197.394-718.096z"/>
	<path d="M192.642-704.4c-0.214,0.357-0.437,0.708-0.676,1.047c-0.622-0.416-1.301-0.799-2.023-1.154
		c-4.808-0.316-9.853-1.301-13.517-2.394c-0.201,0.013-0.405,0.018-0.603,0.035l-0.466,1.329l-0.075,0.215
		c0.767-0.08,1.545-0.141,2.345-0.161v9.155c-3.051-0.418-5.685-3.549-7.178-8.055c0.508-0.152,1.034-0.288,1.572-0.411
		l-0.159-0.215l-0.777-1.051c-0.353,0.092-0.712,0.177-1.052,0.281c-0.2-0.761-0.363-1.559-0.499-2.377l-1.778-2.404
		c0.143,1.852,0.443,3.62,0.89,5.254c-1.441,0.542-2.743,1.2-3.869,1.953c-1.667-2.365-2.74-5.177-2.983-8.224h5.211l-0.122-0.165
		l-0.978-1.322h-4.166c0.032-3.499,1.158-6.736,3.038-9.404c1.126,0.752,2.429,1.411,3.87,1.953
		c-0.486,1.776-0.803,3.708-0.927,5.738l0.07-0.026l1.464-0.547c0.138-1.652,0.402-3.231,0.787-4.69
		c2.289,0.701,4.861,1.123,7.588,1.188v0.369l2.608-0.975l-0.194,0.554c2.349-0.128,4.576-0.505,6.58-1.112
		c0.556,2.114,0.879,4.465,0.892,6.953h-7.19c2.604,0.641,5.773,1.201,8.807,1.487h5.82c-0.003,0.045,1.495-0.066,1.495-0.066
		s0.05-0.841,0.05-1.268c0-3.89-1.236-7.495-3.33-10.45c-0.276-0.39-0.564-0.77-0.87-1.136c-3.327-3.992-8.333-6.538-13.924-6.538
		c-0.009,0-0.018,0-0.026,0c-0.006,0-0.011,0-0.016,0c-0.021,0-0.042,0.002-0.063,0.002c-5.548,0.032-10.511,2.571-13.817,6.536
		c-0.305,0.366-0.594,0.746-0.87,1.135c-2.094,2.956-3.331,6.56-3.331,10.45s1.237,7.495,3.331,10.45
		c0.276,0.39,0.565,0.77,0.87,1.136c3.307,3.965,8.27,6.503,13.817,6.536c0.021,0,0.042,0.002,0.063,0.002c0.005,0,0.01,0,0.016,0
		c0.008,0,0.017,0,0.026,0c5.591,0,10.597-2.545,13.924-6.537c0.305-0.366,0.594-0.747,0.87-1.136
		c0.442-0.624,0.836-1.282,1.198-1.96c-0.448,0.018-0.907,0.03-1.387,0.03C192.866-704.391,192.751-704.399,192.642-704.4z
		 M195.002-713.064H189c-0.013-2.648-0.367-5.159-0.983-7.422c1.472-0.548,2.801-1.216,3.948-1.982
		C193.845-719.8,194.97-716.563,195.002-713.064z M191.091-723.604c-1.012,0.663-2.188,1.246-3.497,1.729
		c-0.963-2.858-2.367-5.235-4.059-6.848C186.512-727.749,189.116-725.95,191.091-723.604z M179.113-729.483
		c3.019,0.466,5.618,3.593,7.095,8.067c-2.131,0.631-4.538,1.014-7.095,1.076V-729.483z M177.626-729.495v9.155
		c-2.587-0.063-5.023-0.453-7.175-1.098C171.946-725.943,174.577-729.077,177.626-729.495z M173.073-728.679
		c-1.667,1.607-3.05,3.956-4.004,6.775c-1.278-0.478-2.429-1.052-3.42-1.702C167.593-725.915,170.15-727.694,173.073-728.679z
		 M165.653-702.22c0.991-0.648,2.139-1.222,3.415-1.699c0.954,2.82,2.339,5.167,4.005,6.774
		C170.15-698.129,167.598-699.911,165.653-702.22z M179.113-696.34v-9.143c2.558,0.063,4.966,0.445,7.099,1.077
		C184.735-699.93,182.132-696.806,179.113-696.34z M183.535-697.1c1.692-1.613,3.099-3.988,4.061-6.847
		c1.307,0.482,2.481,1.065,3.492,1.727C189.113-699.875,186.512-698.075,183.535-697.1z"/>
	<path d="M179.113-713.379v-2.879l-0.291,0.829l-0.628,1.792C178.48-713.55,178.803-713.465,179.113-713.379z"/>
</g>
<g>
</g>
<g>
</g>
<g>
</g>
<g>
</g>
<g>
</g>
<g>
</g>
<g>
</g>
<g>
</g>
<g>
</g>
<g>
</g>
<g>
</g>
<g>
</g>
<g>
</g>
<g>
</g>
<g>
</g>
</svg>
