<?xml version="1.0" encoding="iso-8859-1"?>
<!-- Generator: Adobe Illustrator 16.0.0, SVG Export Plug-In . SVG Version: 6.00 Build 0)  -->
<!DOCTYPE svg PUBLIC "-//W3C//DTD SVG 1.1//EN" "http://www.w3.org/Graphics/SVG/1.1/DTD/svg11.dtd">
<svg version="1.1" id="Layer_1" xmlns="http://www.w3.org/2000/svg" xmlns:xlink="http://www.w3.org/1999/xlink" x="0px" y="0px"
	 width="46.84px" height="49.441px" viewBox="0 0 46.84 49.441" style="enable-background:new 0 0 46.84 49.441;"
	 xml:space="preserve">
<g>
	<path d="M102.599-659.001c6.39,0,12.095,2.968,15.825,7.592l-2.45,1.73l7.705,2.63l-0.8-7.505l-2.158,1.523
		c-4.243-5.343-10.785-8.781-18.122-8.781c-3.613,0-7.035,0.833-10.085,2.316l0.898,2.697
		C96.174-658.204,99.294-659.001,102.599-659.001z"/>
	<path d="M122.776-633.448c-0.707,3.017-2.109,5.917-4.239,8.442c-4.121,4.884-10.067,7.332-16.007,7.203l0.258-2.988l-6.978,4.193
		l6.252,4.227l0.227-2.632c6.819,0.201,13.666-2.583,18.396-8.191c2.33-2.762,3.898-5.915,4.732-9.202L122.776-633.448z"/>
	<path d="M82.908-630.392c-2.426-5.911-1.848-12.315,1.014-17.522l2.53,1.61l-0.493-8.126l-6.638,3.589l2.229,1.419
		c-3.332,5.953-4.028,13.312-1.241,20.098c1.372,3.344,3.443,6.192,5.972,8.451l2.154-1.856
		C86.085-624.75,84.163-627.335,82.908-630.392z"/>
	<path d="M117.394-638.273c0-8.271-6.729-15-15-15c-9.265,0-15,7.786-15,15c0,8.271,6.729,15,15,15
		C110.665-623.273,117.394-630.002,117.394-638.273z M110.231-626.961c0.172-0.658,0.358-1.497,0.51-2.466
		c0.008,0,0.016,0.002,0.023,0.002c1.17,0,2.121-0.895,2.232-2.036c0.628-0.151,1.167-0.308,1.604-0.454
		C113.563-629.931,112.058-628.231,110.231-626.961z M116.163-638.273c0,1.676-0.302,3.281-0.852,4.768
		c-0.363,0.16-1.225,0.499-2.54,0.819c-0.333-0.661-0.977-1.129-1.743-1.22c-0.083-2.729-0.672-5.8-2.327-8.732
		c-0.332-0.587-0.676-1.135-1.028-1.654c0.397-0.323,0.688-0.771,0.793-1.292c2.921-0.297,5.131-0.005,5.634,0.073
		C115.406-643.407,116.163-640.927,116.163-638.273z M107.556-651.034c2.2,0.893,4.118,2.338,5.582,4.165
		c-1.082-0.099-2.771-0.163-4.779,0.038c-0.213-0.561-0.64-1.013-1.185-1.257C107.344-649.353,107.475-650.381,107.556-651.034z
		 M107.628-642.033c1.564,2.773,2.09,5.722,2.144,8.341c-0.638,0.315-1.104,0.918-1.224,1.644c-1.283,0.09-2.733,0.106-4.345,0.001
		c-0.021-0.539-0.23-1.025-0.564-1.402c1.125-2.554,2.099-5.17,2.431-7.187c0.172-1.047,0.335-2.094,0.487-3.104
		C106.925-643.208,107.285-642.642,107.628-642.033z M94.032-638.287c1.201-1.289,2.735-2.647,4.691-3.947
		c1.86-1.236,3.797-2.045,5.649-2.573c0.237,0.363,0.575,0.653,0.975,0.831c-0.153,1.021-0.317,2.079-0.492,3.139
		c-0.305,1.853-1.212,4.297-2.274,6.72c-0.199-0.058-0.405-0.098-0.623-0.098c-0.969,0-1.789,0.616-2.106,1.474
		c-2.244-0.682-4.167-1.863-5.743-3.169c0.19-0.331,0.307-0.709,0.307-1.117C94.416-637.494,94.274-637.927,94.032-638.287z
		 M102.393-652.042c1.382,0,2.715,0.207,3.975,0.587c-0.075,0.612-0.218,1.75-0.413,3.199c-0.441,0.06-0.838,0.245-1.16,0.521
		c-2.171-2.106-4.324-3.284-5.772-3.904C100.08-651.898,101.204-652.042,102.393-652.042z M97.118-651.02
		c0.688,0.198,3.839,1.242,6.987,4.353c-0.06,0.203-0.101,0.412-0.101,0.633c0,0.012,0.003,0.023,0.003,0.035
		c-1.945,0.562-3.987,1.424-5.967,2.74c-2.076,1.379-3.694,2.814-4.961,4.177c-0.281-0.125-0.59-0.199-0.917-0.199
		c-0.403,0-0.776,0.115-1.104,0.3c-1.043-1.267-1.709-2.329-1.962-2.759C90.156-645.671,92.974-649.311,97.118-651.02z
		 M88.625-638.273c0-0.57,0.042-1.144,0.118-1.717c0.362,0.536,0.851,1.198,1.439,1.91c-0.168,0.315-0.272,0.67-0.272,1.053
		c0,0.537,0.195,1.022,0.509,1.41c-0.441,0.714-0.782,1.357-1.023,1.878C88.898-635.16,88.625-636.685,88.625-638.273z
		 M90.073-632.135c0.144-0.418,0.546-1.434,1.366-2.768c0.229,0.078,0.468,0.129,0.723,0.129c0.373,0,0.719-0.099,1.028-0.259
		c1.767,1.483,3.959,2.842,6.575,3.575c0.128,0.562,0.463,1.044,0.924,1.358c-1.125,2.25-2.148,4.104-2.598,4.905
		C94.588-626.351,91.704-628.876,90.073-632.135z M101.881-629.716c0.026,0.001,0.051,0.008,0.077,0.008
		c0.83,0,1.547-0.454,1.938-1.122c0.893,0.065,1.745,0.099,2.542,0.099c0.799,0,1.544-0.03,2.247-0.081
		c0.174,0.417,0.469,0.768,0.842,1.013c-0.273,1.873-0.688,3.259-0.858,3.775c-1.883,0.969-4.016,1.519-6.275,1.519
		c-1.059,0-2.088-0.124-3.079-0.352C99.841-625.797,100.822-627.59,101.881-629.716z"/>
</g>
<g>
</g>
<g>
</g>
<g>
</g>
<g>
</g>
<g>
</g>
<g>
</g>
<g>
</g>
<g>
</g>
<g>
</g>
<g>
</g>
<g>
</g>
<g>
</g>
<g>
</g>
<g>
</g>
<g>
</g>
</svg>
