<?xml version="1.0" encoding="iso-8859-1"?>
<!-- Generator: Adobe Illustrator 16.0.0, SVG Export Plug-In . SVG Version: 6.00 Build 0)  -->
<!DOCTYPE svg PUBLIC "-//W3C//DTD SVG 1.1//EN" "http://www.w3.org/Graphics/SVG/1.1/DTD/svg11.dtd">
<svg version="1.1" id="Layer_1" xmlns="http://www.w3.org/2000/svg" xmlns:xlink="http://www.w3.org/1999/xlink" x="0px" y="0px"
	 width="46.84px" height="49.441px" viewBox="0 0 46.84 49.441" style="enable-background:new 0 0 46.84 49.441;"
	 xml:space="preserve">
<g>
	<path d="M25.338-654.48c-2.75,0.378-5.123,3.212-6.47,7.288c1.939,0.583,4.137,0.936,6.47,0.993V-654.48z"/>
	<path d="M25.338-624.48v-8.28c-2.335,0.057-4.533,0.41-6.474,0.995C20.21-627.69,22.586-624.858,25.338-624.48z"/>
	<path d="M25.338-638.273h-7.625c0.082,1.865,0.353,3.633,0.776,5.245c2.066-0.635,4.388-1.018,6.85-1.077V-638.273z"/>
	<path d="M25.338-644.854c-2.459-0.059-4.779-0.441-6.843-1.075c-0.504,1.918-0.798,4.052-0.81,6.312h7.652V-644.854z"/>
	<path d="M21.231-653.741c-2.635,0.891-4.942,2.5-6.695,4.589c0.895,0.588,1.932,1.107,3.084,1.539
		C18.48-650.164,19.728-652.288,21.231-653.741z"/>
	<path d="M17.238-646.358c-1.299-0.49-2.474-1.085-3.49-1.766c-1.696,2.413-2.711,5.341-2.74,8.506h5.336
		C16.356-642.024,16.678-644.304,17.238-646.358z"/>
	<path d="M17.619-631.346c-1.15,0.431-2.186,0.95-3.079,1.536c1.753,2.089,4.056,3.701,6.691,4.591
		C19.728-626.672,18.479-628.795,17.619-631.346z"/>
	<path d="M38.268-648.124c-1.034,0.693-2.232,1.297-3.56,1.792c0.556,2.047,0.875,4.318,0.887,6.713h5.413
		C40.979-642.783,39.964-645.711,38.268-648.124z"/>
	<path d="M16.371-638.273h-5.313c0.219,2.755,1.187,5.299,2.691,7.438c1.015-0.681,2.19-1.276,3.489-1.766
		C16.761-634.348,16.457-636.259,16.371-638.273z"/>
	<path d="M40.96-638.273h-5.393c-0.085,2.003-0.388,3.905-0.86,5.645c1.329,0.496,2.528,1.101,3.562,1.794
		C39.774-632.973,40.74-635.518,40.96-638.273z"/>
	<path d="M26.679-634.105c2.433,0.058,4.729,0.433,6.777,1.055c0.42-1.606,0.689-3.367,0.771-5.223h-7.548V-634.105z"/>
	<path d="M26.679-624.49c2.723-0.422,5.07-3.248,6.402-7.296c-1.923-0.572-4.096-0.918-6.402-0.974V-624.49z"/>
	<path d="M37.478-629.809c-0.911-0.598-1.971-1.125-3.149-1.562c-0.868,2.585-2.137,4.734-3.663,6.193
		C33.352-626.06,35.697-627.688,37.478-629.809z"/>
	<path d="M37.48-649.152c-1.781-2.121-4.129-3.748-6.814-4.63c1.526,1.459,2.792,3.609,3.661,6.194
		C35.507-648.025,36.568-648.553,37.48-649.152z"/>
	<path d="M26.679-654.47v8.271c2.306-0.056,4.477-0.402,6.399-0.973C31.745-651.22,29.401-654.048,26.679-654.47z"/>
	<path d="M26.679-639.618h7.575c-0.012-2.25-0.303-4.377-0.804-6.29c-2.046,0.621-4.34,0.995-6.771,1.053V-639.618z"/>
	<path d="M25.939-660.184c6.39,0,12.095,2.968,15.825,7.592l-2.45,1.73l7.705,2.63l-0.8-7.505l-2.158,1.523
		c-4.243-5.343-10.785-8.781-18.122-8.781c-3.613,0-7.035,0.833-10.085,2.316l0.898,2.697
		C19.515-659.386,22.635-660.184,25.939-660.184z"/>
	<path d="M46.117-634.63c-0.707,3.017-2.109,5.917-4.239,8.442c-4.121,4.884-10.067,7.332-16.007,7.203l0.258-2.988l-6.978,4.193
		l6.252,4.227l0.227-2.632c6.819,0.201,13.666-2.583,18.396-8.191c2.33-2.762,3.898-5.915,4.732-9.202L46.117-634.63z"/>
	<path d="M6.249-631.574c-2.426-5.911-1.848-12.315,1.014-17.522l2.53,1.61l-0.493-8.126l-6.638,3.589l2.229,1.419
		c-3.332,5.953-4.028,13.312-1.241,20.098c1.372,3.344,3.443,6.192,5.972,8.451l2.154-1.856
		C9.426-625.933,7.503-628.517,6.249-631.574z"/>
</g>
<g>
</g>
<g>
</g>
<g>
</g>
<g>
</g>
<g>
</g>
<g>
</g>
<g>
</g>
<g>
</g>
<g>
</g>
<g>
</g>
<g>
</g>
<g>
</g>
<g>
</g>
<g>
</g>
<g>
</g>
</svg>
