<?xml version="1.0" encoding="iso-8859-1"?>
<!-- Generator: Adobe Illustrator 16.0.0, SVG Export Plug-In . SVG Version: 6.00 Build 0)  -->
<!DOCTYPE svg PUBLIC "-//W3C//DTD SVG 1.1//EN" "http://www.w3.org/Graphics/SVG/1.1/DTD/svg11.dtd">
<svg version="1.1" id="Layer_1" xmlns="http://www.w3.org/2000/svg" xmlns:xlink="http://www.w3.org/1999/xlink" x="0px" y="0px"
	 width="46.84px" height="49.441px" viewBox="0 0 46.84 49.441" style="enable-background:new 0 0 46.84 49.441;"
	 xml:space="preserve">
<g>
	<path d="M430.537-701.346l-6.346-4.971l-0.618,2.554c-2.081-0.242-11.186-1.283-16.498-1.581c-0.743-0.042-1.652-0.082-2.677-0.126
		c-15.426-0.672-19.168-2.03-19.586-3.032c-0.097-0.601-0.035-1.026,0.184-1.262c0.402-0.433,1.397-0.5,1.813-0.465l0.293-2.985
		c-0.283-0.029-2.771-0.222-4.289,1.393c-0.613,0.652-1.277,1.841-0.962,3.797c0.624,3.873,8.359,4.938,22.416,5.551
		c1.011,0.044,1.907,0.083,2.64,0.124c4.965,0.278,13.352,1.223,15.954,1.524l-0.501,2.069L430.537-701.346z"/>
	<path d="M411.413-697.249c0.746-0.711,1.433-1.579,2.054-2.563c-0.54-0.052-1.082-0.103-1.618-0.151
		c-1.363,1.935-3.033,3.191-4.857,3.473v-3.85c-0.064-0.004-0.133-0.008-0.196-0.012c-0.386-0.022-0.82-0.043-1.291-0.064v3.938
		c-2.076-0.285-3.959-1.828-5.421-4.205c-0.579-0.033-1.158-0.066-1.711-0.103c0.747,1.375,1.613,2.56,2.578,3.491
		c-2.344-0.79-4.442-2.099-6.188-3.774c-0.795-0.073-1.559-0.152-2.288-0.238c3.307,3.867,8.202,6.335,13.668,6.367
		c0.021,0,0.042,0.002,0.063,0.002c0.006,0,0.011,0,0.017,0c0.009,0,0.017,0,0.026,0c4.517,0,8.651-1.663,11.828-4.406
		c-0.683-0.073-1.399-0.148-2.14-0.224C414.567-698.578,413.05-697.785,411.413-697.249z"/>
	<path d="M406.907-716.515c1.802,0.102,4.397,0.043,7.145-0.018c4.064-0.091,11.475-0.256,13.181,0.587
		c-0.25,1.422-1.425,1.697-1.446,1.705l-0.305,3.481c1.855-0.632,4.948-2.538,4.764-5.674c-0.193-3.296-6.011-3.328-16.26-3.099
		c-2.688,0.061-5.226,0.117-6.91,0.022c-8.275-0.464-17.719-3.18-18.043-5.19c-0.063-0.397,0.031-0.489,0.072-0.528
		c0.568-0.546,0.755-0.776,2.393-0.447l2.635-2.724c-0.834-0.17-5.096-0.92-7.104,1.006c-0.58,0.557-1.217,1.558-0.956,3.17
		C387.106-717.803,406.71-716.526,406.907-716.515z"/>
	<path d="M392.325-724.646c0.438,0.17,0.953,0.352,1.519,0.539c1.903-2.135,4.338-3.788,7.106-4.721
		c-1.455,1.403-2.694,3.373-3.621,5.728c0.464,0.118,0.938,0.233,1.43,0.345c1.54-3.871,3.967-6.508,6.745-6.89v8.004
		c0.497,0.048,0.993,0.089,1.487,0.12v-8.112c3.019,0.466,5.617,3.593,7.095,8.067c-0.042,0.012-0.087,0.021-0.129,0.033
		c1.548-0.035,2.896-0.061,4.145-0.073c0.616-0.315,1.2-0.651,1.74-1.012c0.229,0.326,0.447,0.662,0.654,1.004
		c0.562,0.001,1.138,0.008,1.721,0.021c-0.356-0.663-0.743-1.308-1.176-1.918c-0.276-0.39-0.563-0.77-0.87-1.136
		c-3.326-3.992-8.333-6.538-13.924-6.538c-0.01,0-0.018,0-0.026,0c-0.006,0-0.011,0-0.017,0c-0.021,0-0.041,0.002-0.063,0.002
		C400.595-731.15,395.631-728.612,392.325-724.646z M418.968-723.754c-1.012,0.663-2.188,1.246-3.496,1.729
		c-0.963-2.858-2.367-5.235-4.059-6.848C414.39-727.898,416.993-726.099,418.968-723.754z"/>
	<path d="M422.863-705.857c0.963-2.21,1.508-4.643,1.508-7.204c0-0.551-0.031-1.094-0.08-1.633
		c-0.408-0.005-0.927,0.004-1.494,0.018c0.047,0.482,0.078,0.969,0.083,1.463h-6.002c-0.002-0.464-0.028-0.918-0.051-1.373
		c-0.511,0.008-1.01,0.017-1.486,0.026c0.023,0.446,0.047,0.891,0.049,1.347h-8.398v-1.295c-0.064-0.003-0.135-0.006-0.197-0.009
		c-0.239-0.014-0.69-0.043-1.29-0.092v1.396h-8.485c0.005-0.885,0.062-1.744,0.141-2.59c-0.483-0.102-0.97-0.213-1.457-0.331
		c-0.098,0.953-0.166,1.922-0.17,2.92h-5.918c0.016-1.613,0.272-3.167,0.719-4.639c-0.474-0.202-0.929-0.419-1.368-0.646
		c-0.543,1.717-0.841,3.542-0.841,5.437c0,0.815,0.066,1.614,0.171,2.4l0.373,1.709c0.433,0.091,0.943,0.186,1.546,0.284
		c-0.271-0.987-0.461-2.007-0.545-3.059h5.892c0.056,1.288,0.2,2.531,0.407,3.729c0.482,0.042,0.988,0.083,1.52,0.123
		c-0.224-1.229-0.38-2.515-0.439-3.853h8.456v4.304c0.543,0.024,1.041,0.048,1.487,0.072v-4.376h8.369
		c-0.078,1.76-0.316,3.436-0.675,5c0.495,0.048,0.987,0.097,1.473,0.146c0.368-1.619,0.611-3.342,0.688-5.146h5.979
		c-0.161,2.023-0.695,3.939-1.52,5.694C421.896-705.967,422.423-705.907,422.863-705.857z"/>
</g>
<g>
</g>
<g>
</g>
<g>
</g>
<g>
</g>
<g>
</g>
<g>
</g>
<g>
</g>
<g>
</g>
<g>
</g>
<g>
</g>
<g>
</g>
<g>
</g>
<g>
</g>
<g>
</g>
<g>
</g>
</svg>
