<?xml version="1.0" encoding="iso-8859-1"?>
<!-- Generator: Adobe Illustrator 16.0.0, SVG Export Plug-In . SVG Version: 6.00 Build 0)  -->
<!DOCTYPE svg PUBLIC "-//W3C//DTD SVG 1.1//EN" "http://www.w3.org/Graphics/SVG/1.1/DTD/svg11.dtd">
<svg version="1.1" id="Layer_1" xmlns="http://www.w3.org/2000/svg" xmlns:xlink="http://www.w3.org/1999/xlink" x="0px" y="0px"
	 width="46.84px" height="49.441px" viewBox="0 0 46.84 49.441" style="enable-background:new 0 0 46.84 49.441;"
	 xml:space="preserve">
<g>
	<path d="M420.948-494.642l-0.082-0.033c-0.683-1.613-1.641-3.08-2.813-4.347c-0.077-0.083-0.155-0.164-0.234-0.245
		c-0.221-0.23-0.448-0.455-0.685-0.67c-2.666-2.428-6.208-3.91-10.089-3.91c-3.915,0-7.482,1.509-10.155,3.974
		c-0.624,0.574-1.196,1.201-1.715,1.873c-1.96,2.534-3.13,5.709-3.13,9.153c0,8.271,6.729,15,15,15
		c5.817,0,10.869-3.332,13.355-8.186c0.532-1.037,0.945-2.145,1.226-3.303c0.07-0.293,0.131-0.589,0.185-0.89
		c0.151-0.853,0.234-1.727,0.234-2.622c0-0.052-0.003-0.103-0.004-0.154c-0.004-0.438-0.027-0.874-0.068-1.303
		c-0.139-1.431-0.481-2.8-0.994-4.085h0.015L420.948-494.642z"/>
	<path d="M429.084-494.232c-2.497-9.948-11.495-17.347-22.208-17.347c-10.149,0-18.773,6.634-21.777,15.79l2.646,0.8
		c2.661-8.021,10.229-13.825,19.132-13.825c9.356,0,17.224,6.418,19.483,15.077l-2.643,0.478l5.416,5.191l2.248-6.58
		L429.084-494.232z"/>
	<path d="M406.943-468.506c-9.253,0-17.033-6.282-19.39-14.795l2.719-0.492l-5.416-5.192l-2.248,6.581l2.195-0.398
		c2.596,9.806,11.528,17.062,22.14,17.062c10.515,0,19.39-7.119,22.077-16.789l-2.666-0.807
		C424.012-474.803,416.211-468.506,406.943-468.506z"/>
</g>
<g>
</g>
<g>
</g>
<g>
</g>
<g>
</g>
<g>
</g>
<g>
</g>
<g>
</g>
<g>
</g>
<g>
</g>
<g>
</g>
<g>
</g>
<g>
</g>
<g>
</g>
<g>
</g>
<g>
</g>
</svg>
