<?xml version="1.0" encoding="iso-8859-1"?>
<!-- Generator: Adobe Illustrator 16.0.0, SVG Export Plug-In . SVG Version: 6.00 Build 0)  -->
<!DOCTYPE svg PUBLIC "-//W3C//DTD SVG 1.1//EN" "http://www.w3.org/Graphics/SVG/1.1/DTD/svg11.dtd">
<svg version="1.1" id="Layer_1" xmlns="http://www.w3.org/2000/svg" xmlns:xlink="http://www.w3.org/1999/xlink" x="0px" y="0px"
	 width="46.84px" height="49.441px" viewBox="0 0 46.84 49.441" style="enable-background:new 0 0 46.84 49.441;"
	 xml:space="preserve">
<path d="M23.42,8.514c-2.75,0.379-5.123,3.213-6.47,7.288c1.939,0.583,4.137,0.937,6.47,0.993V8.514z"/>
<path d="M23.42,38.514v-8.279c-2.335,0.057-4.533,0.41-6.474,0.994C18.292,35.305,20.668,38.136,23.42,38.514z"/>
<path d="M23.42,24.721h-7.625c0.082,1.865,0.353,3.633,0.776,5.245c2.066-0.636,4.388-1.018,6.85-1.077V24.721z"/>
<path d="M23.42,18.14c-2.459-0.06-4.779-0.44-6.843-1.075c-0.504,1.918-0.798,4.053-0.81,6.312h7.652V18.14z"/>
<path d="M19.313,9.253c-2.635,0.891-4.942,2.499-6.695,4.589c0.895,0.588,1.932,1.107,3.084,1.539
	C16.563,12.83,17.81,10.706,19.313,9.253z"/>
<path d="M15.32,16.636c-1.299-0.49-2.474-1.085-3.49-1.767c-1.696,2.414-2.711,5.342-2.74,8.507h5.336
	C14.438,20.97,14.76,18.689,15.32,16.636z"/>
<path d="M15.701,31.648c-1.15,0.432-2.186,0.949-3.079,1.536c1.753,2.089,4.056,3.7,6.691,4.591
	C17.81,36.322,16.561,34.199,15.701,31.648z"/>
<path d="M36.35,14.87c-1.034,0.692-2.232,1.298-3.56,1.792c0.556,2.047,0.875,4.318,0.887,6.714h5.413
	C39.062,20.211,38.046,17.283,36.35,14.87z"/>
<path d="M14.453,24.721H9.14c0.219,2.756,1.187,5.3,2.691,7.439c1.015-0.682,2.19-1.276,3.489-1.767
	C14.843,28.646,14.539,26.734,14.453,24.721z"/>
<path d="M39.042,24.721h-5.393c-0.085,2.004-0.388,3.905-0.86,5.646c1.329,0.495,2.528,1.101,3.562,1.794
	C37.856,30.021,38.822,27.477,39.042,24.721z"/>
<path d="M24.761,28.889c2.433,0.059,4.729,0.434,6.777,1.055c0.42-1.605,0.689-3.366,0.771-5.223h-7.548V28.889z"/>
<path d="M24.761,38.504c2.723-0.422,5.07-3.248,6.402-7.296c-1.923-0.572-4.096-0.918-6.402-0.974V38.504z"/>
<path d="M35.56,33.186c-0.911-0.599-1.971-1.125-3.149-1.563c-0.868,2.586-2.137,4.734-3.663,6.193
	C31.434,36.934,33.779,35.307,35.56,33.186z"/>
<path d="M35.563,13.842c-1.781-2.121-4.129-3.748-6.814-4.63c1.526,1.459,2.792,3.609,3.661,6.194
	C33.589,14.969,34.65,14.441,35.563,13.842z"/>
<path d="M24.761,8.524v8.271c2.306-0.057,4.477-0.402,6.399-0.973C29.827,11.774,27.483,8.946,24.761,8.524z"/>
<path d="M24.761,23.376h7.575c-0.012-2.251-0.303-4.377-0.804-6.29c-2.046,0.621-4.34,0.995-6.771,1.054V23.376z"/>
<path d="M24.021,2.811c6.39,0,12.095,2.969,15.825,7.592l-2.45,1.73l7.705,2.63l-0.8-7.505l-2.158,1.523
	C37.9,3.438,31.358,0,24.021,0c-3.613,0-7.035,0.834-10.085,2.316l0.898,2.696C17.597,3.607,20.717,2.811,24.021,2.811z"/>
<path d="M44.199,28.364c-0.707,3.017-2.109,5.917-4.239,8.442c-4.121,4.885-10.067,7.332-16.007,7.203l0.258-2.988l-6.978,4.193
	l6.252,4.227l0.227-2.631c6.819,0.201,13.666-2.584,18.396-8.191c2.33-2.763,3.898-5.915,4.732-9.203L44.199,28.364z"/>
<path d="M4.331,31.42c-2.426-5.911-1.848-12.315,1.014-17.522l2.53,1.61L7.381,7.381l-6.638,3.59l2.229,1.418
	c-3.332,5.953-4.028,13.313-1.241,20.099c1.372,3.345,3.443,6.192,5.972,8.451l2.154-1.856C7.508,37.062,5.585,34.477,4.331,31.42z"
	/>
<g>
</g>
<g>
</g>
<g>
</g>
<g>
</g>
<g>
</g>
<g>
</g>
<g>
</g>
<g>
</g>
<g>
</g>
<g>
</g>
<g>
</g>
<g>
</g>
<g>
</g>
<g>
</g>
<g>
</g>
</svg>
