<?xml version="1.0" encoding="iso-8859-1"?>
<!-- Generator: Adobe Illustrator 16.0.0, SVG Export Plug-In . SVG Version: 6.00 Build 0)  -->
<!DOCTYPE svg PUBLIC "-//W3C//DTD SVG 1.1//EN" "http://www.w3.org/Graphics/SVG/1.1/DTD/svg11.dtd">
<svg version="1.1" id="Layer_1" xmlns="http://www.w3.org/2000/svg" xmlns:xlink="http://www.w3.org/1999/xlink" x="0px" y="0px"
	 width="46.84px" height="49.441px" viewBox="0 0 46.84 49.441" style="enable-background:new 0 0 46.84 49.441;"
	 xml:space="preserve">
<g>
	<path d="M129.343-710.271c-1.029-2.223-4.032-2.727-5.534-2.836l-0.439,2.967c1.741,0.145,2.987,0.559,3.251,1.129
		c0.181,0.393-0.167,1.052-0.39,1.41c-0.938,1.503-8.958-0.295-16.832-3.775l-1.213,2.744c3.673,1.625,10.913,4.516,15.897,4.516
		c2.125,0,3.84-0.525,4.695-1.898C129.979-707.945,129.749-709.394,129.343-710.271z"/>
	<path d="M92.345-714.411c0.385,0.121,0.764,0.237,1.135,0.349c0.038,0.012,0.075,0.023,0.113,0.035
		c0.361,0.107,0.716,0.213,1.059,0.313l-0.688,0.979l-0.823,1.172l9.252-0.545l-4.438-6.307l-1.474,2.097
		c-9.674-2.718-15.902-5.714-16.492-7.732c-0.161-0.638,0.236-1.141,0.628-1.318c0.522-0.239,1.903,0.26,2.523,0.649l1.44-2.469
		c-0.289-0.185-2.957-1.922-5.19-0.918c-0.881,0.395-2.006,1.338-2.365,3.582c-0.677,4.236,8.316,7.914,15.312,10.112
		C92.341-714.412,92.343-714.412,92.345-714.411z"/>
	<path d="M85.365-722.482c0.437-0.885,0.936-1.734,1.5-2.535c1.271,0.85,2.739,1.59,4.364,2.201
		c-0.223,0.814-0.403,1.666-0.563,2.533c0.511,0.186,1.042,0.373,1.595,0.561c0.15-0.877,0.323-1.738,0.539-2.559
		c1.473,0.451,3.06,0.787,4.714,1.016l0.441-0.627l0.526,0.748c0.94,0.102,1.894,0.18,2.874,0.203v3.881l1.677,2.383v-6.264
		c3.04-0.072,5.908-0.538,8.466-1.313c0.626,2.385,0.991,5.035,1.005,7.841h-9.285l0.811,1.153l0.369,0.523h3.415l0.565-1.278
		l1.829,0.809c0.372,0.165,0.738,0.315,1.105,0.47h1.156c-0.007,0.157-0.023,0.309-0.032,0.464c0.552,0.222,1.096,0.433,1.632,0.631
		c0.027-0.364,0.061-0.725,0.077-1.095h6.742c-0.083,1.043-0.263,2.059-0.511,3.046c0.592,0.142,1.144,0.258,1.653,0.351
		c0.389-1.57,0.6-3.211,0.6-4.9c0-4.387-1.394-8.451-3.755-11.784c-0.311-0.439-0.636-0.868-0.981-1.28
		c-3.752-4.502-9.396-7.373-15.701-7.373c-0.011,0-0.02,0.002-0.03,0.002c-0.007,0-0.012-0.002-0.018-0.002
		c-0.024,0-0.046,0.004-0.07,0.004c-5.906,0.033-11.37,2.703-14.936,6.637c-1.466,1.598-2.748,3.564-3.185,4.879
		C84.557-722.85,84.935-722.688,85.365-722.482z M120.949-714.413h-6.769c-0.014-2.986-0.413-5.817-1.108-8.369
		c1.66-0.617,3.158-1.37,4.451-2.234C119.644-722.007,120.913-718.358,120.949-714.413z M116.538-726.297
		c-1.141,0.747-2.467,1.405-3.942,1.949c-1.085-3.222-2.669-5.902-4.577-7.722C111.375-730.97,114.312-728.942,116.538-726.297z
		 M103.032-732.927c3.404,0.526,6.334,4.052,8,9.098c-2.403,0.712-5.117,1.143-8,1.213V-732.927z M101.355-732.94v10.323
		c-2.917-0.07-5.665-0.511-8.09-1.238C94.95-728.935,97.917-732.468,101.355-732.94z M96.221-732.019
		c-1.879,1.812-3.439,4.461-4.515,7.64c-1.441-0.538-2.738-1.187-3.857-1.919C90.042-728.903,92.926-730.909,96.221-732.019z"/>
	<path d="M106.279-707.29c-1.059-0.128-2.136-0.224-3.247-0.25v-2.604l-0.521,0.03l-1.156,0.068v2.505
		c-3.078,0.073-5.98,0.55-8.564,1.343c-0.276-1.051-0.498-2.158-0.664-3.305l-1.667,0.098c0.188,1.298,0.442,2.551,0.767,3.739
		c-1.625,0.611-3.094,1.354-4.363,2.202c-1.88-2.667-3.09-5.838-3.364-9.273h6.643c0.026,0.602,0.069,1.194,0.126,1.779l1.156-1.645
		c-1.886-0.595-3.588-1.199-5.146-1.812h-2.84c0.004-0.397,0.029-0.789,0.057-1.181c-0.567-0.262-1.102-0.525-1.612-0.791
		c-0.074,0.707-0.126,1.419-0.126,2.145c0,4.387,1.395,8.451,3.756,11.783c0.311,0.439,0.637,0.867,0.981,1.28
		c3.729,4.472,9.324,7.334,15.58,7.37c0.024,0,0.046,0.002,0.07,0.002c0.006,0,0.011,0,0.018,0c0.01,0,0.02,0,0.03,0
		c6.304,0,11.949-2.87,15.701-7.371c0.344-0.412,0.67-0.842,0.981-1.281c0.07-0.098,0.13-0.203,0.198-0.303
		c-4.316-0.961-8.884-2.801-11.696-4.045L106.279-707.29z M87.854-702.185c1.118-0.73,2.413-1.377,3.85-1.915
		c1.076,3.18,2.638,5.827,4.517,7.638C92.926-697.572,90.047-699.581,87.854-702.185z M101.355-695.541
		c-3.439-0.473-6.41-4.002-8.094-9.082c2.426-0.729,5.175-1.17,8.094-1.241V-695.541z M116.535-702.184
		c-2.226,2.644-5.159,4.674-8.517,5.773c1.908-1.819,3.495-4.497,4.58-7.72C114.071-703.587,115.396-702.93,116.535-702.184z
		 M103.032-695.554v-10.31c2.884,0.071,5.6,0.502,8.005,1.214C109.371-699.602,106.437-696.08,103.032-695.554z"/>
</g>
<g>
</g>
<g>
</g>
<g>
</g>
<g>
</g>
<g>
</g>
<g>
</g>
<g>
</g>
<g>
</g>
<g>
</g>
<g>
</g>
<g>
</g>
<g>
</g>
<g>
</g>
<g>
</g>
<g>
</g>
</svg>
