<?xml version="1.0" encoding="iso-8859-1"?>
<!-- Generator: Adobe Illustrator 16.0.0, SVG Export Plug-In . SVG Version: 6.00 Build 0)  -->
<!DOCTYPE svg PUBLIC "-//W3C//DTD SVG 1.1//EN" "http://www.w3.org/Graphics/SVG/1.1/DTD/svg11.dtd">
<svg version="1.1" id="Layer_1" xmlns="http://www.w3.org/2000/svg" xmlns:xlink="http://www.w3.org/1999/xlink" x="0px" y="0px"
	 width="46.84px" height="49.441px" viewBox="0 0 46.84 49.441" style="enable-background:new 0 0 46.84 49.441;"
	 xml:space="preserve">
<g>
	<path d="M101.236-413.91c5.376,0,9.75-4.374,9.75-9.75s-4.374-9.75-9.75-9.75s-9.75,4.374-9.75,9.75S95.86-413.91,101.236-413.91z
		 M101.236-431.41c4.273,0,7.75,3.477,7.75,7.75s-3.477,7.75-7.75,7.75s-7.75-3.477-7.75-7.75S96.962-431.41,101.236-431.41z"/>
	<circle cx="82.515" cy="-415.712" r="7"/>
	<circle cx="110.673" cy="-405.212" r="5.5"/>
	<circle cx="95.074" cy="-404.962" r="6.25"/>
	<circle cx="118.798" cy="-416.712" r="4.5"/>
	<circle cx="118.486" cy="-427.66" r="3.5"/>
	<circle cx="113.673" cy="-434.785" r="2.5"/>
	<circle cx="106.298" cy="-438.785" r="2.5"/>
	<circle cx="98.945" cy="-439.285" r="2"/>
	<circle cx="93.574" cy="-436.785" r="1.5"/>
	<circle cx="89.515" cy="-432.785" r="1"/>
	<circle cx="87.655" cy="-428.91" r="0.5"/>
</g>
<g>
</g>
<g>
</g>
<g>
</g>
<g>
</g>
<g>
</g>
<g>
</g>
<g>
</g>
<g>
</g>
<g>
</g>
<g>
</g>
<g>
</g>
<g>
</g>
<g>
</g>
<g>
</g>
<g>
</g>
</svg>
