<?xml version="1.0" encoding="iso-8859-1"?>
<!-- Generator: Adobe Illustrator 16.0.0, SVG Export Plug-In . SVG Version: 6.00 Build 0)  -->
<!DOCTYPE svg PUBLIC "-//W3C//DTD SVG 1.1//EN" "http://www.w3.org/Graphics/SVG/1.1/DTD/svg11.dtd">
<svg version="1.1" id="Layer_1" xmlns="http://www.w3.org/2000/svg" xmlns:xlink="http://www.w3.org/1999/xlink" x="0px" y="0px"
	 width="47.365px" height="50.572px" viewBox="0 0 47.365 50.572" style="enable-background:new 0 0 47.365 50.572;"
	 xml:space="preserve">
<g>
	<path d="M-47.775-68.133v-4.688h-9.765v4.738c-9.984,2.277-17.459,11.222-17.459,21.886c0,12.38,10.072,22.451,22.452,22.451
		s22.451-10.071,22.451-22.451C-30.096-56.939-37.681-65.938-47.775-68.133z M-52.547-27.499c-10.311,0-18.698-8.389-18.698-18.698
		s8.387-18.698,18.698-18.698c10.31,0,18.697,8.389,18.697,18.698S-42.237-27.499-52.547-27.499z"/>
	<path d="M-43.719-47.314c-0.15-1.65-0.774-3.156-1.708-4.421l3.965-7.065l-6.783,4.579c-1.044-0.585-2.207-0.981-3.457-1.099
		l-0.974-5.945l-0.979,5.982c-4.198,0.532-7.48,4.01-7.715,8.291l-5.935,0.973l6.042,0.989c0.194,1.155,0.627,2.224,1.224,3.181
		l-4.632,8.256l7.756-5.235c1.03,0.591,2.18,0.996,3.417,1.132l0.963,5.873l0.961-5.873c4.058-0.44,7.294-3.633,7.816-7.666
		l5.969-0.979L-43.719-47.314z M-59.484-46.443c0-3.83,3.106-6.936,6.937-6.936c0.846,0,1.651,0.162,2.399,0.44l-5.808,3.919
		l-0.127,0.118l-2.863,5.104C-59.286-44.613-59.484-45.504-59.484-46.443z M-55.328-48.277l11.032-7.447l-6.51,11.606l-11.033,7.447
		L-55.328-48.277z M-52.547-39.508c-0.92,0-1.792-0.191-2.596-0.518l4.959-3.348l0.13-0.118l3.548-6.323
		c0.56,1.001,0.894,2.145,0.894,3.371C-45.611-42.612-48.717-39.508-52.547-39.508z"/>
	<circle cx="-52.9" cy="-46.443" r="1.528"/>
</g>
<g>
</g>
<g>
</g>
<g>
</g>
<g>
</g>
<g>
</g>
<g>
</g>
<g>
</g>
<g>
</g>
<g>
</g>
<g>
</g>
<g>
</g>
<g>
</g>
<g>
</g>
<g>
</g>
<g>
</g>
</svg>
