<?xml version="1.0" encoding="iso-8859-1"?>
<!-- Generator: Adobe Illustrator 16.0.0, SVG Export Plug-In . SVG Version: 6.00 Build 0)  -->
<!DOCTYPE svg PUBLIC "-//W3C//DTD SVG 1.1//EN" "http://www.w3.org/Graphics/SVG/1.1/DTD/svg11.dtd">
<svg version="1.1" id="Layer_1" xmlns="http://www.w3.org/2000/svg" xmlns:xlink="http://www.w3.org/1999/xlink" x="0px" y="0px"
	 width="47.365px" height="50.572px" viewBox="0 0 47.365 50.572" style="enable-background:new 0 0 47.365 50.572;"
	 xml:space="preserve">
<g>
	<path d="M122.987-49.78l-4.287-0.635c-0.193-3.89-1.81-7.405-4.356-10.029l4.039-4.038l-0.28-0.28l-4.037,4.036
		c-2.712-2.656-6.391-4.318-10.453-4.422l-0.568-3.837l0,3.825h0v-3.825l-0.571,3.854c-3.899,0.186-7.424,1.804-10.054,4.355
		l-4.03-3.986l-0.301,0.301l4.028,3.985c-2.621,2.685-4.267,6.312-4.399,10.319l-3.701,0.548l3.705,0.549
		c0.147,3.952,1.769,7.529,4.342,10.192l-3.975,3.953l0.301,0.301l3.972-3.949c2.674,2.621,6.29,4.271,10.286,4.418l0.568,3.84
		l0-3.812h0v3.812l0.568-3.841c3.976-0.145,7.574-1.78,10.244-4.379l4.054,4.054l0.301-0.302l-4.053-4.053
		c2.615-2.688,4.257-6.314,4.385-10.321L122.987-49.78z M99.337-51.878l-4.201,0.622c0.285-1.426,0.94-2.709,1.856-3.768
		L99.337-51.878z M97.898-55.921c0.987-0.837,2.166-1.439,3.469-1.74l-0.565,3.815L97.898-55.921z M101.503-58.58
		c-0.213,0.04-0.425,0.086-0.632,0.142l-0.298-1.691c0.388-0.098,0.788-0.16,1.191-0.212L101.503-58.58z M100.664-58.386
		c-0.647,0.188-1.265,0.444-1.845,0.765l-0.822-1.502c0.74-0.409,1.537-0.726,2.37-0.953L100.664-58.386z M98.637-57.512
		c-0.525,0.307-1.003,0.679-1.455,1.079l-1.43-1.021c0.623-0.596,1.312-1.123,2.063-1.558L98.637-57.512z M96.469-55.725
		c-0.427,0.473-0.819,0.979-1.142,1.534l-1.368-1.04c0.417-0.688,0.917-1.313,1.47-1.89L96.469-55.725z M95.217-54.007
		c-0.324,0.592-0.578,1.228-0.766,1.89l-1.657-0.421c0.246-0.889,0.602-1.729,1.055-2.509L95.217-54.007z M94.399-51.91
		c-0.067,0.258-0.111,0.521-0.155,0.786l-1.77,0.262c0.059-0.5,0.144-0.991,0.266-1.469L94.399-51.91z M100.266-51.584l1.117,0.776
		l0.001,0.024c-0.126,0.229-0.215,0.479-0.257,0.746H89.822L100.266-51.584z M96.835-44.451c-0.819-1.003-1.4-2.194-1.675-3.508
		l3.782,0.561L96.835-44.451z M100.912-45.864l0.634,4.282c-1.46-0.304-2.771-0.99-3.838-1.952L100.912-45.864z M94.255-48.093
		c0.048,0.297,0.105,0.591,0.185,0.877l-1.692,0.288c-0.12-0.464-0.202-0.942-0.264-1.427L94.255-48.093z M94.493-47.009
		c0.213,0.703,0.514,1.365,0.881,1.986l-1.553,0.738c-0.436-0.76-0.778-1.576-1.021-2.437L94.493-47.009z M95.484-44.839
		c0.247,0.395,0.532,0.761,0.833,1.111l-1.017,1.422c-0.512-0.552-0.979-1.146-1.369-1.795L95.484-44.839z M96.993-43.016
		c0.482,0.453,1.008,0.861,1.581,1.202l-0.948,1.424c-0.744-0.451-1.428-0.991-2.041-1.602L96.993-43.016z M98.756-41.702
		c0.611,0.345,1.267,0.618,1.955,0.815l-0.44,1.651c-0.871-0.245-1.695-0.598-2.462-1.043L98.756-41.702z M100.917-40.833
		c0.249,0.064,0.505,0.106,0.761,0.151l0.262,1.771c-0.498-0.062-0.988-0.147-1.463-0.271L100.917-40.833z M101.246-46.521
		l0.082-0.161l0.688-0.99l0.308-0.018c0.146,0.076,0.303,0.135,0.465,0.18l-0.001,11.399L101.246-46.521z M101.945-49.696
		c0-0.781,0.637-1.417,1.42-1.417c0.781,0,1.417,0.636,1.417,1.417c0,0.783-0.636,1.419-1.417,1.419
		C102.582-48.277,101.945-48.913,101.945-49.696z M107.279-47.454l4.022-0.596c-0.272,1.379-0.884,2.632-1.751,3.672L107.279-47.454
		z M108.626-43.422c-0.901,0.784-1.968,1.381-3.148,1.718l-0.033,0.007l0.001,0.002c-0.182,0.051-0.375,0.076-0.562,0.114
		l0.613-4.142l0.05,0.1L108.626-43.422z M105.378-53.21l-0.671-4.536c1.523,0.281,2.889,0.985,3.996,1.979L105.378-53.21z
		 M109.465-54.986c0.842,0.983,1.45,2.161,1.756,3.463l-3.827-0.566L109.465-54.986z M112.135-51.388
		c-0.027-0.136-0.043-0.275-0.076-0.41l1.683-0.324c0.077,0.326,0.129,0.661,0.173,0.998L112.135-51.388z M112.006-52.005
		c-0.205-0.756-0.497-1.473-0.878-2.137l1.525-0.783c0.453,0.807,0.8,1.678,1.034,2.596L112.006-52.005z M111.019-54.324
		c-0.299-0.496-0.657-0.95-1.041-1.379l1.02-1.427c0.589,0.611,1.112,1.286,1.545,2.023L111.019-54.324z M109.397-56.301
		c-0.484-0.451-1.009-0.858-1.583-1.196l0.976-1.408c0.722,0.437,1.382,0.961,1.981,1.548L109.397-56.301z M107.631-57.608
		c-0.578-0.321-1.195-0.581-1.843-0.771l0.569-1.619c0.793,0.241,1.545,0.576,2.249,0.982L107.631-57.608z M105.582-58.434
		c-0.327-0.088-0.665-0.146-1.005-0.199l-0.261-1.765c0.627,0.066,1.243,0.177,1.835,0.344L105.582-58.434z M105.017-52.734
		l-0.687,0.987c-0.264-0.124-0.555-0.195-0.86-0.208l0.001-11.224L105.017-52.734z M104.751-40.68
		c0.287-0.047,0.571-0.102,0.849-0.178l0.313,1.686c-0.462,0.119-0.94,0.201-1.423,0.261L104.751-40.68z M105.807-40.909
		c0.696-0.208,1.354-0.5,1.97-0.857l0.759,1.541c-0.756,0.428-1.563,0.763-2.416,1.001L105.807-40.909z M107.96-41.877
		c0.491-0.302,0.94-0.66,1.364-1.046l1.43,1.022c-0.613,0.598-1.296,1.124-2.038,1.564L107.96-41.877z M110.065-43.681
		c0.343-0.395,0.666-0.808,0.938-1.258l1.39,1.007c-0.373,0.597-0.814,1.143-1.292,1.654L110.065-43.681z M111.116-45.121
		c0.388-0.676,0.689-1.407,0.895-2.177l1.632,0.522c-0.261,0.946-0.646,1.837-1.138,2.661L111.116-45.121z M112.064-47.505
		c0.053-0.221,0.087-0.449,0.125-0.677l1.751-0.259c-0.054,0.495-0.126,0.985-0.246,1.458L112.064-47.505z M106.737-47.807
		l-1.116-0.775l-0.039-0.657c0.008-0.038,0.021-0.075,0.026-0.113h11.413c0,0.008-0.001,0.016-0.001,0.024L106.737-47.807z
		 M116.984-50.67l-2.63-0.39c-0.315-2.485-1.436-4.719-3.102-6.426l0.386-0.539l-0.518,0.398c-1.8-1.781-4.201-2.952-6.867-3.199
		l-0.386-2.607C110.842-63.105,116.471-57.596,116.984-50.67z M103.044-63.457l0,3.405L103.044-63.457L103.044-63.457z
		 M102.219-63.415l-0.391,2.638c-0.45,0.053-0.896,0.12-1.33,0.228l-0.001-0.008l-0.21,0.037l0.005,0.024
		c-1.869,0.504-3.542,1.482-4.894,2.789l-0.872-0.623l0.634,0.851c-1.723,1.766-2.864,4.096-3.13,6.684l-2.599,0.385
		C89.815-57.343,95.317-62.92,102.219-63.415z M89.436-48.807l2.619,0.388c0.175,1.588,0.664,3.082,1.43,4.402l0.051,0.104
		l0.012-0.005c0.424,0.714,0.931,1.37,1.496,1.972l-0.517,0.723l0.711-0.517c1.77,1.789,4.133,2.979,6.768,3.265l0.386,2.611
		C95.433-36.275,89.855-41.848,89.436-48.807z M103.215-35.821l0-3.418L103.215-35.821L103.215-35.821z M104.038-35.863l0.388-2.618
		c2.591-0.28,4.921-1.432,6.68-3.168l0.972,0.694l-0.714-0.968c1.664-1.756,2.764-4.043,3.021-6.584l2.613-0.387
		C116.619-41.895,111.026-36.278,104.038-35.863z"/>
	<polygon points="102.401,-72.198 102.412,-72.198 103.841,-70.29 105.316,-70.29 105.316,-73.696 104.028,-73.696 104.028,-71.808 
		104.014,-71.808 102.649,-73.696 101.114,-73.696 101.114,-70.29 102.401,-70.29 	"/>
	<path d="M104.065-27.136l-1.607-0.238c-0.066-0.009-0.113-0.028-0.138-0.06c-0.025-0.03-0.039-0.069-0.039-0.116
		c0-0.073,0.04-0.132,0.119-0.178c0.079-0.044,0.22-0.066,0.42-0.066c0.073,0,0.147,0.006,0.22,0.018
		c0.073,0.011,0.141,0.029,0.199,0.055c0.065,0.025,0.115,0.06,0.152,0.103c0.035,0.042,0.055,0.099,0.055,0.169h1.563
		c-0.012-0.182-0.062-0.342-0.149-0.479c-0.088-0.139-0.22-0.255-0.396-0.348c-0.177-0.094-0.399-0.167-0.67-0.215
		c-0.271-0.05-0.595-0.074-0.974-0.074c-0.277,0-0.535,0.017-0.775,0.05s-0.448,0.093-0.625,0.18
		c-0.176,0.086-0.314,0.2-0.417,0.345c-0.102,0.146-0.152,0.327-0.152,0.547c0,0.121,0.018,0.234,0.053,0.339
		c0.034,0.105,0.089,0.198,0.164,0.281c0.075,0.082,0.172,0.153,0.288,0.213c0.117,0.059,0.259,0.101,0.426,0.126l1.535,0.229
		c0.093,0.017,0.156,0.046,0.191,0.088c0.035,0.043,0.053,0.092,0.053,0.142c0,0.082-0.037,0.149-0.11,0.2s-0.215,0.076-0.425,0.076
		c-0.207,0-0.358-0.023-0.457-0.071c-0.093-0.051-0.14-0.132-0.144-0.243h-1.621c0,0.251,0.063,0.451,0.192,0.602
		c0.129,0.148,0.297,0.265,0.506,0.345c0.207,0.082,0.44,0.136,0.698,0.16c0.258,0.025,0.516,0.038,0.773,0.038
		c0.757,0,1.311-0.099,1.662-0.298c0.352-0.198,0.526-0.506,0.526-0.924c0-0.289-0.096-0.514-0.29-0.675
		S104.409-27.084,104.065-27.136z"/>
	<polygon points="81.238,-49.268 81.228,-49.268 80.731,-51.347 79.658,-51.347 79.157,-49.268 79.148,-49.268 78.708,-51.347 
		77.408,-51.347 78.399,-47.94 79.72,-47.94 80.188,-49.829 80.197,-49.829 80.661,-47.94 81.981,-47.94 82.978,-51.347 
		81.676,-51.347 	"/>
	<polygon points="127.386,-50.731 127.386,-51.562 123.766,-51.562 123.766,-48.155 127.386,-48.155 127.386,-48.985 
		125.112,-48.985 125.112,-49.443 127.224,-49.443 127.224,-50.273 125.112,-50.273 125.112,-50.731 	"/>
</g>
<g>
</g>
<g>
</g>
<g>
</g>
<g>
</g>
<g>
</g>
<g>
</g>
<g>
</g>
<g>
</g>
<g>
</g>
<g>
</g>
<g>
</g>
<g>
</g>
<g>
</g>
<g>
</g>
<g>
</g>
</svg>
