<?xml version="1.0" encoding="iso-8859-1"?>
<!-- Generator: Adobe Illustrator 16.0.0, SVG Export Plug-In . SVG Version: 6.00 Build 0)  -->
<!DOCTYPE svg PUBLIC "-//W3C//DTD SVG 1.1//EN" "http://www.w3.org/Graphics/SVG/1.1/DTD/svg11.dtd">
<svg version="1.1" id="Layer_1" xmlns="http://www.w3.org/2000/svg" xmlns:xlink="http://www.w3.org/1999/xlink" x="0px" y="0px"
	 width="47.365px" height="50.572px" viewBox="0 0 47.365 50.572" style="enable-background:new 0 0 47.365 50.572;"
	 xml:space="preserve">
<g>
	<path d="M-104.954-49.997h-2.162c-0.675-11.019-9.575-19.852-20.625-20.409v-2.543h-2.688v2.578
		c-10.833,0.779-19.494,9.511-20.159,20.374h-2.589v2.688h2.589c0.67,10.941,9.451,19.722,20.392,20.392v2.59h2.688v-2.59
		c10.941-0.67,19.722-9.451,20.392-20.392h2.162V-49.997z M-128.852-28.872c-10.907,0-19.781-8.874-19.781-19.781
		s8.874-19.781,19.781-19.781c10.908,0,19.782,8.874,19.782,19.781S-117.944-28.872-128.852-28.872z"/>
	<polygon points="-130.664,-64.119 -130.653,-64.119 -128.973,-61.879 -127.242,-61.879 -127.242,-65.878 -128.754,-65.878 
		-128.754,-63.66 -128.771,-63.66 -130.373,-65.878 -132.176,-65.878 -132.176,-61.879 -130.664,-61.879 	"/>
	<path d="M-127.263-34.598l-1.888-0.28c-0.079-0.011-0.133-0.034-0.163-0.069c-0.03-0.036-0.044-0.082-0.044-0.138
		c0-0.086,0.046-0.155,0.14-0.207c0.093-0.053,0.258-0.079,0.493-0.079c0.086,0,0.171,0.007,0.257,0.021
		c0.086,0.013,0.165,0.034,0.235,0.063c0.075,0.03,0.134,0.07,0.177,0.121c0.042,0.05,0.064,0.116,0.064,0.198h1.837
		c-0.015-0.213-0.074-0.4-0.176-0.563c-0.103-0.162-0.258-0.299-0.465-0.409c-0.208-0.109-0.47-0.194-0.787-0.252
		s-0.698-0.087-1.143-0.087c-0.325,0-0.628,0.02-0.91,0.059c-0.282,0.04-0.527,0.109-0.734,0.211
		c-0.208,0.101-0.371,0.235-0.49,0.405s-0.179,0.384-0.179,0.642c0,0.143,0.021,0.274,0.062,0.397
		c0.041,0.124,0.105,0.233,0.193,0.331c0.088,0.097,0.201,0.18,0.339,0.249s0.304,0.118,0.499,0.148l1.804,0.269
		c0.108,0.02,0.183,0.054,0.224,0.104c0.041,0.051,0.062,0.106,0.062,0.166c0,0.097-0.043,0.175-0.129,0.235
		c-0.086,0.06-0.252,0.089-0.499,0.089c-0.243,0-0.422-0.027-0.538-0.084c-0.108-0.06-0.165-0.154-0.168-0.285h-1.905
		c0,0.295,0.076,0.53,0.227,0.706c0.151,0.175,0.349,0.311,0.594,0.405c0.245,0.096,0.518,0.158,0.82,0.188
		c0.303,0.029,0.605,0.044,0.908,0.044c0.889,0,1.54-0.116,1.952-0.35s0.619-0.595,0.619-1.084c0-0.34-0.114-0.604-0.341-0.793
		C-126.544-34.414-126.86-34.538-127.263-34.598z"/>
	<polygon points="-143.007,-47.967 -143.019,-47.967 -143.601,-50.408 -144.861,-50.408 -145.449,-47.967 -145.46,-47.967 
		-145.976,-50.408 -147.505,-50.408 -146.34,-46.409 -144.789,-46.409 -144.24,-48.627 -144.229,-48.627 -143.685,-46.409 
		-142.133,-46.409 -140.963,-50.408 -142.492,-50.408 	"/>
	<polygon points="-115.239,-47.31 -110.988,-47.31 -110.988,-48.284 -113.659,-48.284 -113.659,-48.822 -111.178,-48.822 
		-111.178,-49.797 -113.659,-49.797 -113.659,-50.334 -110.988,-50.334 -110.988,-51.309 -115.239,-51.309 	"/>
	<path d="M-138.718-37.623l13.664-7.01l5.603-13.998l-13.664,7.011L-138.718-37.623z M-128.818-50.26
		c1.178,0,2.134,0.955,2.134,2.133c0,1.179-0.956,2.134-2.134,2.134c-1.178,0-2.133-0.955-2.133-2.134
		C-130.952-49.305-129.996-50.26-128.818-50.26z"/>
</g>
<g>
</g>
<g>
</g>
<g>
</g>
<g>
</g>
<g>
</g>
<g>
</g>
<g>
</g>
<g>
</g>
<g>
</g>
<g>
</g>
<g>
</g>
<g>
</g>
<g>
</g>
<g>
</g>
<g>
</g>
</svg>
