<?xml version="1.0" encoding="iso-8859-1"?>
<!-- Generator: Adobe Illustrator 16.0.0, SVG Export Plug-In . SVG Version: 6.00 Build 0)  -->
<!DOCTYPE svg PUBLIC "-//W3C//DTD SVG 1.1//EN" "http://www.w3.org/Graphics/SVG/1.1/DTD/svg11.dtd">
<svg version="1.1" id="Layer_1" xmlns="http://www.w3.org/2000/svg" xmlns:xlink="http://www.w3.org/1999/xlink" x="0px" y="0px"
	 width="44.901px" height="49.765px" viewBox="0 0 44.901 49.765" style="enable-background:new 0 0 44.901 49.765;"
	 xml:space="preserve">
<g>
	<path d="M241.76-63.21v39.15h26.097l0.002-39.15H241.76z M255.359-26.024c-0.695,0-1.258-0.564-1.258-1.259
		s0.563-1.257,1.258-1.257s1.258,0.563,1.258,1.257S256.055-26.024,255.359-26.024z M264.086-30.552h-18.553v-28.885h18.553V-30.552
		z"/>
	<path d="M249.049-40.082c1.369,1.641,3.422,2.69,5.717,2.704c0.009,0,0.017,0.001,0.026,0.001c0.001,0,0.004-0.001,0.006-0.001
		c0.003,0,0.007,0.001,0.011,0.001c2.313,0,4.385-1.053,5.761-2.705c0.126-0.151,0.246-0.309,0.359-0.471
		c0.867-1.223,1.378-2.714,1.378-4.323s-0.511-3.101-1.378-4.323c-0.114-0.162-0.233-0.319-0.359-0.471
		c-1.376-1.652-3.448-2.705-5.761-2.705c-0.004,0-0.008,0-0.011,0c-0.002,0-0.005,0-0.006,0c-0.009,0-0.017,0.001-0.026,0.001
		c-2.295,0.013-4.349,1.063-5.717,2.704c-0.126,0.151-0.246,0.309-0.36,0.471c-0.867,1.223-1.378,2.714-1.378,4.323
		s0.512,3.101,1.378,4.323C248.803-40.391,248.923-40.233,249.049-40.082z M256.946-38.333c0.7-0.668,1.283-1.65,1.681-2.833
		c0.541,0.199,1.027,0.44,1.445,0.714C259.254-39.482,258.178-38.737,256.946-38.333z M260.435-40.921
		c-0.475-0.317-1.025-0.594-1.634-0.821c0.217-0.796,0.355-1.666,0.394-2.582h2.475C261.568-43.063,261.125-41.898,260.435-40.921z
		 M261.691-44.938h-2.483c-0.006-1.097-0.152-2.136-0.407-3.071c0.609-0.228,1.159-0.503,1.633-0.82
		C261.212-47.727,261.678-46.387,261.691-44.938z M260.073-49.301c-0.418,0.274-0.905,0.516-1.446,0.715
		c-0.399-1.182-0.98-2.165-1.68-2.833C258.178-51.016,259.256-50.271,260.073-49.301z M255.117-51.733
		c1.249,0.193,2.324,1.486,2.936,3.339c-0.882,0.261-1.878,0.419-2.936,0.445V-51.733z M255.117-47.334
		c1.115-0.027,2.167-0.198,3.106-0.482c0.229,0.875,0.363,1.848,0.369,2.878h-3.475V-47.334z M255.117-44.324h3.462
		c-0.037,0.85-0.161,1.655-0.354,2.389c-0.939-0.284-1.993-0.455-3.109-0.482V-44.324z M255.117-41.803
		c1.058,0.026,2.055,0.185,2.937,0.445c-0.611,1.854-1.688,3.146-2.937,3.338V-41.803z M249.547-40.452
		c0.41-0.269,0.885-0.506,1.413-0.703c0.395,1.167,0.968,2.138,1.658,2.803C251.409-38.76,250.352-39.496,249.547-40.452z
		 M254.501-38.015c-1.262-0.173-2.352-1.468-2.97-3.333c0.89-0.267,1.899-0.429,2.97-0.455V-38.015z M254.501-42.418
		c-1.129,0.027-2.194,0.203-3.142,0.493c-0.194-0.737-0.319-1.546-0.356-2.399h3.498V-42.418z M254.501-44.938h-3.51
		c0.005-1.034,0.14-2.011,0.371-2.888c0.947,0.289,2.011,0.465,3.139,0.492V-44.938z M254.501-51.737v3.788
		c-1.07-0.026-2.078-0.188-2.968-0.455C252.151-50.269,253.24-51.564,254.501-51.737z M252.618-51.399
		c-0.689,0.664-1.262,1.636-1.657,2.803c-0.529-0.197-1.005-0.435-1.415-0.704C250.351-50.256,251.409-50.992,252.618-51.399z
		 M249.185-48.83c0.466,0.311,1.005,0.583,1.601,0.808c-0.257,0.939-0.405,1.982-0.41,3.084h-2.448
		C247.941-46.387,248.407-47.727,249.185-48.83z M250.388-44.324c0.04,0.922,0.18,1.795,0.398,2.595
		c-0.596,0.225-1.135,0.497-1.601,0.808c-0.689-0.978-1.134-2.141-1.235-3.402H250.388z"/>
</g>
<g>
</g>
<g>
</g>
<g>
</g>
<g>
</g>
<g>
</g>
<g>
</g>
<g>
</g>
<g>
</g>
<g>
</g>
<g>
</g>
<g>
</g>
<g>
</g>
<g>
</g>
<g>
</g>
<g>
</g>
</svg>
