<?xml version="1.0" encoding="iso-8859-1"?>
<!-- Generator: Adobe Illustrator 16.0.0, SVG Export Plug-In . SVG Version: 6.00 Build 0)  -->
<!DOCTYPE svg PUBLIC "-//W3C//DTD SVG 1.1//EN" "http://www.w3.org/Graphics/SVG/1.1/DTD/svg11.dtd">
<svg version="1.1" id="Layer_1" xmlns="http://www.w3.org/2000/svg" xmlns:xlink="http://www.w3.org/1999/xlink" x="0px" y="0px"
	 width="44.867px" height="40.873px" viewBox="0 0 44.867 40.873" style="enable-background:new 0 0 44.867 40.873;"
	 xml:space="preserve">
<g>
	<g>
		<path d="M-366.673-125.718c2.807-1.113,5.703-2.732,8.485-4.823l-7.634-9.66C-368.691-137.216-368.855-131.717-366.673-125.718z"
			/>
		<path d="M-338.167-105.205l-7.634-9.66c-2.678,2.226-4.925,4.67-6.656,7.146C-347.125-104.208-341.734-103.103-338.167-105.205z"
			/>
		<path d="M-354.06-108.844c1.832-2.651,4.195-5.244,7.021-7.589l-3.843-4.862l-8.922,7.05
			C-357.989-112.145-356.042-110.333-354.06-108.844z"/>
		<path d="M-361.075-115.789l8.953-7.075l-4.827-6.108c-2.932,2.205-5.997,3.904-8.997,5.073
			C-364.767-121.196-363.144-118.435-361.075-115.789z"/>
		<path d="M-369.946-135.542c-2.263,3.476-3.478,7.485-3.604,11.543c1.589-0.141,3.281-0.494,5.028-1.056
			C-369.865-128.826-370.365-132.458-369.946-135.542z"/>
		<path d="M-367.812-123.238c-1.972,0.629-3.895,1.021-5.711,1.166c0.24,4.383,1.752,8.738,4.637,12.457l6.242-4.933
			C-364.848-117.367-366.574-120.324-367.812-123.238z"/>
		<path d="M-355.713-101.438c3.978,0.815,8.157,0.567,12.062-0.831c-3.099-0.306-6.518-1.629-9.875-3.808
			C-354.474-104.511-355.208-102.949-355.713-101.438z"/>
		<path d="M-340.121-132.348l6.334-5.005c-2.951-3.665-6.838-6.142-11.047-7.389c-0.571,1.765-1.416,3.578-2.513,5.382
			C-344.809-137.485-342.342-135.131-340.121-132.348z"/>
		<path d="M-361.373-113.004l-6.217,4.912c2.797,3.012,6.274,5.084,10.006,6.189c0.56-1.732,1.385-3.513,2.453-5.287
			C-357.298-108.787-359.416-110.735-361.373-113.004z"/>
		<path d="M-334.714-123.373c2.011-0.65,3.972-1.054,5.82-1.201c-0.211-3.886-1.426-7.748-3.709-11.165l-6.31,4.985
			C-337.167-128.337-335.767-125.839-334.714-123.373z"/>
		<path d="M-340.482-129.513l-8.83,6.979l3.842,4.862c2.9-2.182,5.932-3.868,8.9-5.036
			C-337.558-124.97-338.866-127.272-340.482-129.513z"/>
		<path d="M-344.23-116.104l7.623,9.647c2.797-3.009,2.938-8.475,0.765-14.43C-338.62-119.775-341.48-118.17-344.23-116.104z"/>
		<path d="M-332.576-110.945c2.328-3.511,3.572-7.58,3.701-11.7c-1.618,0.145-3.344,0.509-5.124,1.089
			C-332.63-117.737-332.135-114.058-332.576-110.945z"/>
		<path d="M-346.703-145.212c-4.039-0.828-8.287-0.555-12.241,0.899c3.13,0.291,6.595,1.628,9.993,3.841
			C-347.972-142.073-347.218-143.669-346.703-145.212z"/>
		<path d="M-364.243-141.429l7.624,9.647c2.646-2.197,4.867-4.608,6.59-7.051C-355.32-142.322-360.669-143.454-364.243-141.429z"/>
	</g>
	<g>
		<path d="M-345.658-132.86c-0.448-0.292-0.885-0.437-1.311-0.437c-0.65,0-1.117,0.343-1.401,1.031h2.544l-0.414,0.997h-2.309
			c-0.008,0.038-0.012,0.075-0.012,0.112c0,0.037,0,0.078,0,0.123c0,0.052,0,0.101,0,0.146c0,0.037,0.004,0.075,0.012,0.112h2.117
			l-0.414,0.997h-1.502c0.276,0.672,0.77,1.009,1.479,1.009c0.471,0,0.99-0.187,1.559-0.561v2.084
			c-0.516,0.231-1.133,0.347-1.85,0.347c-0.896,0-1.658-0.258-2.285-0.773c-0.621-0.53-1.047-1.233-1.277-2.107h-0.875l0.415-0.997
			h0.313c-0.008-0.03-0.011-0.063-0.011-0.101c0-0.044,0-0.093,0-0.146s0-0.097,0-0.134c0-0.045,0.003-0.082,0.011-0.112h-0.75
			l0.414-0.997h0.482c0.238-0.896,0.672-1.603,1.299-2.118c0.643-0.53,1.412-0.796,2.309-0.796c0.71,0,1.461,0.209,2.252,0.627
			L-345.658-132.86z"/>
	</g>
</g>
<g>
</g>
<g>
</g>
<g>
</g>
<g>
</g>
<g>
</g>
<g>
</g>
<g>
</g>
<g>
</g>
<g>
</g>
<g>
</g>
<g>
</g>
<g>
</g>
<g>
</g>
<g>
</g>
<g>
</g>
</svg>
