<?xml version="1.0" encoding="iso-8859-1"?>
<!-- Generator: Adobe Illustrator 16.0.0, SVG Export Plug-In . SVG Version: 6.00 Build 0)  -->
<!DOCTYPE svg PUBLIC "-//W3C//DTD SVG 1.1//EN" "http://www.w3.org/Graphics/SVG/1.1/DTD/svg11.dtd">
<svg version="1.1" id="Layer_1" xmlns="http://www.w3.org/2000/svg" xmlns:xlink="http://www.w3.org/1999/xlink" x="0px" y="0px"
	 width="44.901px" height="49.765px" viewBox="0 0 44.901 49.765" style="enable-background:new 0 0 44.901 49.765;"
	 xml:space="preserve">
<path d="M505.674-118.805c-0.007-0.712-0.043-1.417-0.11-2.112c-0.225-2.317-0.779-4.538-1.61-6.62
	c-0.062-0.154-0.119-0.312-0.184-0.465c-1.106-2.613-2.66-4.991-4.56-7.045c-0.125-0.135-0.252-0.266-0.379-0.396
	c-0.359-0.373-0.727-0.737-1.11-1.086c-4.321-3.936-10.062-6.338-16.353-6.338c-6.346,0-12.127,2.445-16.461,6.44
	c-1.01,0.931-1.938,1.947-2.779,3.035c-3.176,4.108-5.072,9.255-5.072,14.837c0,6.709,2.741,12.783,7.151,17.186v7.915l0.966-0.299
	c0.046-0.013,4.604-1.402,8.403-1.402c3.165,0,6.327,0.969,7.283,1.287l0.62,0.222l0.682-0.203c1.111-0.315,4.854-1.306,8.066-1.306
	c3.769,0,7.544,1.376,7.583,1.391l1.003,0.37v-8.287c1.667-1.723,3.099-3.674,4.201-5.827c0.862-1.682,1.533-3.476,1.986-5.354
	c0.114-0.476,0.213-0.956,0.3-1.442c0.245-1.381,0.38-2.799,0.38-4.25C505.681-118.639,505.675-118.721,505.674-118.805z
	 M501.099-128.522l0.141-0.158c0.185,0.359,0.359,0.724,0.523,1.094l-0.23-0.009l-0.434,0.059V-128.522z M497.585-132.765
	l0.004-1.086c0.382,0.405,0.75,0.821,1.102,1.254l-0.438,0.651l-1.531-0.014l-0.096-0.319L497.585-132.765z M468.257-135.463v-0.041
	h0.486l0.043-0.168h0.797v0.348l-0.229,0.307h-1.098V-135.463z M469.036-134.379c0,0,0.486-0.082,0.529-0.082
	c0.041,0,0,0.486,0,0.486l-1.1,0.068l-0.209-0.25L469.036-134.379z M464.603-118.509l-0.396,0.235v13.925
	c-3.205-3.863-5.151-8.806-5.151-14.206c0-3.097,0.635-6.049,1.781-8.731v-0.696l0.797-0.969c0.277-0.523,0.574-1.032,0.891-1.529
	l0.036,0.404l-0.927,1.125c-0.287,0.543-0.555,1.097-0.797,1.665v1.27l0.927,0.446v1.765l0.89,1.517l0.723,0.111l0.093-0.52
	l-0.853-1.316l-0.166-1.279h0.5l0.211,1.316l1.234,1.799l-0.32,0.581l0.784,1.198l1.946,0.482v-0.314l0.779,0.11l-0.047,0.349
	C465.791-119.2,464.684-118.557,464.603-118.509z M480.644-95.652c-1.437-0.436-4.216-1.147-7.067-1.147
	c-2.962,0-6.256,0.768-7.852,1.192v-21.668c1.002-0.506,3.81-1.745,7.234-1.745c3.447,0,6.573,1.265,7.685,1.77V-95.652z
	 M497.296-95.652c-1.437-0.436-4.216-1.147-7.068-1.147c-2.962,0-6.255,0.768-7.852,1.192v-21.668
	c1.003-0.506,3.811-1.745,7.235-1.745c3.446,0,6.574,1.265,7.685,1.77V-95.652z M502.647-124.728h-1.78l-1.085-0.808l-1.14,0.111
	v0.696h-0.362l-0.389-0.278l-1.976-0.5v-1.28l-2.503,0.195l-0.777,0.417h-0.994l-0.488-0.049l-1.207,0.67v1.262l-2.467,1.779
	l0.205,0.76h0.5l-0.131,0.724l-0.352,0.13l-0.003,0.359c-3.104,0.366-5.463,1.498-6.202,1.895c-0.933-0.449-4.474-2.021-8.538-2.021
	c-1.093,0-2.12,0.116-3.06,0.291l-0.572-0.098l0.521-0.983l-0.15-0.566l-1.706,1.142l-1.073-0.131l-0.384-0.839l0.234-0.865
	l0.593-1.091l1.362-0.69l2.632-0.001l-0.008,0.803l0.946,0.44l-0.075-1.371l0.682-0.687l1.376-0.903l0.094-0.637l1.372-1.428
	l1.459-0.807l-0.129-0.106l0.988-0.93l0.362,0.096l0.165,0.208l0.375-0.416l0.092-0.041l-0.41-0.057l-0.417-0.139v-0.404l0.222-0.18
	h0.486l0.224,0.098l0.193,0.389l0.236-0.035v-0.035l0.068,0.023l0.684-0.105l0.097-0.334l0.39,0.098v0.361l-0.362,0.25h0.002
	l0.053,0.396l1.238,0.383c0,0,0.002,0.006,0.004,0.015l0.284-0.024l0.019-0.537l-0.981-0.447l-0.056-0.258l0.815-0.277l0.036-0.78
	l-0.852-0.519l-0.056-1.316l-1.169,0.574h-0.426l0.111-1.001l-1.59-0.376l-0.658,0.497v1.517l-1.183,0.374l-0.474,0.987
	l-0.514,0.084v-1.265l-1.112-0.153l-0.556-0.363l-0.224-0.818l1.989-1.164l0.973-0.297l0.098,0.654l0.543-0.029l0.041-0.328
	l0.568-0.082l0.01-0.114l-0.244-0.101l-0.056-0.348l0.696-0.059l0.422-0.438l0.023-0.032l0.005,0.002l0.128-0.132l1.465-0.186
	l0.648,0.551l-1.699,0.904l2.162,0.51l0.28-0.723h0.945l0.334-0.631l-0.668-0.166v-0.797l-2.095-0.928l-1.446,0.166l-0.816,0.428
	l0.056,1.037l-0.853-0.129l-0.132-0.574l0.817-0.742l-1.483-0.074l-0.426,0.129l-0.186,0.501l0.556,0.094l-0.111,0.556l-0.945,0.056
	l-0.148,0.37l-1.371,0.037c0,0-0.038-0.777-0.093-0.777c-0.056,0,1.074-0.02,1.074-0.02l0.816-0.797l-0.445-0.223l-0.593,0.575
	l-0.983-0.056l-0.594-0.816h-1.26l-1.316,0.982h1.205l0.111,0.354l-0.315,0.296l1.335,0.037l0.204,0.481l-1.503-0.055l-0.073-0.371
	l-0.945-0.204l-0.501-0.278l-1.125,0.01c3.684-2.684,8.213-4.273,13.109-4.273c5.641,0,10.797,2.109,14.73,5.574l-0.266,0.475
	l-1.029,0.402l-0.433,0.472l0.099,0.549l0.531,0.073l0.321,0.801l0.915-0.369l0.152,1.07h-0.277l-0.753-0.111l-0.833,0.14
	l-0.807,1.14l-1.154,0.182l-0.167,0.987l0.487,0.115l-0.14,0.635l-1.147-0.229l-1.051,0.229l-0.222,0.585l0.181,1.228l0.618,0.288
	l1.034-0.006l0.698-0.063l0.214-0.556l1.092-1.42l0.719,0.146l0.707-0.639l0.133,0.5l1.742,1.176l-0.213,0.285l-0.785-0.042
	l0.303,0.429l0.482,0.105l0.566-0.236l-0.01-0.682l0.251-0.125l-0.202-0.215l-1.162-0.648l-0.305-0.86h0.965l0.309,0.306
	l0.832,0.717l0.035,0.867l0.862,0.918l0.321-1.258l0.597-0.326l0.112,1.029l0.583,0.64l1.163-0.02
	c0.225,0.579,0.427,1.168,0.604,1.769L502.647-124.728z M470.315-131.82l0.584-0.278l0.529,0.126l-0.182,0.709l-0.57,0.182
	L470.315-131.82z M473.415-130.15v0.459h-1.334l-0.5-0.14l0.125-0.319l0.641-0.266h0.875v0.266H473.415z M474.028-129.511v0.444
	l-0.334,0.215l-0.416,0.078c0,0,0-0.668,0-0.737H474.028z M473.652-129.691v-0.529l0.46,0.418L473.652-129.691z M473.861-128.623
	v0.434l-0.319,0.319h-0.709l0.11-0.486l0.335-0.028l0.069-0.167L473.861-128.623z M472.096-129.511h0.737l-0.945,1.321l-0.391-0.21
	l0.084-0.556L472.096-129.511z M475.113-128.773v0.432h-0.71l-0.193-0.281v-0.401h0.056L475.113-128.773z M474.46-129.368
	l0.201-0.212l0.342,0.212l-0.273,0.226L474.46-129.368z M503.009-123.602l0.07-0.082c0.029,0.127,0.06,0.253,0.088,0.381
	L503.009-123.602z"/>
<g>
</g>
<g>
</g>
<g>
</g>
<g>
</g>
<g>
</g>
<g>
</g>
<g>
</g>
<g>
</g>
<g>
</g>
<g>
</g>
<g>
</g>
<g>
</g>
<g>
</g>
<g>
</g>
<g>
</g>
</svg>
