<?xml version="1.0" encoding="iso-8859-1"?>
<!-- Generator: Adobe Illustrator 16.0.0, SVG Export Plug-In . SVG Version: 6.00 Build 0)  -->
<!DOCTYPE svg PUBLIC "-//W3C//DTD SVG 1.1//EN" "http://www.w3.org/Graphics/SVG/1.1/DTD/svg11.dtd">
<svg version="1.1" id="Layer_1" xmlns="http://www.w3.org/2000/svg" xmlns:xlink="http://www.w3.org/1999/xlink" x="0px" y="0px"
	 width="44.901px" height="49.765px" viewBox="0 0 44.901 49.765" style="enable-background:new 0 0 44.901 49.765;"
	 xml:space="preserve">
<path d="M576.771,101.362c-0.033-2.078-0.346-4.088-0.904-5.997c-0.206-0.704-0.446-1.394-0.717-2.068
	c-0.55-1.369-1.23-2.673-2.025-3.895c-0.361-0.555-0.746-1.091-1.152-1.61c-1.115-1.425-2.396-2.711-3.813-3.833
	c-0.486-0.384-0.986-0.751-1.502-1.095c-3.587-2.388-7.887-3.783-12.51-3.783c-0.039,0-0.1,0-0.535,0l-0.008,0.101l-7.247,0.15
	l-3.126,2.77c0,0,0.066,3.106,0.095,4.659c-0.921,0.454-1.799,0.979-2.62,1.566c-1.243-0.662-3.739-1.988-3.739-1.988l-4.098,0.817
	l-4.313,8.08l-0.168,0.558l0.984,3.54c0,0,2.894,1.536,4.342,2.307c0.007,0.986,0.101,1.947,0.288,2.891
	c-1.192,0.891-3.576,2.682-3.576,2.682l-0.251,4.167l5.484,7.327c0,0,3.41,0.614,3.6,0.525c0.191-0.093,0.572-0.273,0.572-0.273
	s2.267-1.696,3.401-2.546c0.886,0.46,1.813,0.862,2.784,1.188c0.038,1.23,0.115,3.694,0.115,3.694l2.769,3.125l4.645-0.145
	l0.009,0.086l0.519-0.026c0.025,0,0.05,0.003,0.074,0.003c7.479,0,14.118-3.647,18.241-9.255c0.72-0.98,1.361-2.021,1.919-3.113
	c1.25-2.446,2.073-5.147,2.357-8.005c0.073-0.741,0.112-1.495,0.112-2.256C576.778,101.594,576.772,101.479,576.771,101.362z
	 M573.791,94.962c-0.715,0.757-1.531,1.469-2.427,2.13c-0.373-1.521-0.898-2.979-1.52-4.357c0.748-0.568,1.436-1.175,2.043-1.823
	C572.662,92.179,573.301,93.536,573.791,94.962z M563.478,94.038c-0.457-1.851-1.018-3.601-1.617-5.2
	c0.964-0.374,1.851-0.828,2.663-1.342c1.028,1.376,2.059,2.94,2.948,4.648C566.278,92.888,564.938,93.526,563.478,94.038z
	 M568.269,93.805c0.612,1.394,1.109,2.865,1.435,4.393c-1.555,0.938-3.299,1.739-5.194,2.369c-0.104-1.613-0.323-3.193-0.626-4.719
	C565.476,95.301,566.946,94.61,568.269,93.805z M563.754,110.289c1.835-0.446,3.579-1.017,5.223-1.698
	c-0.916,2.694-2.271,5.113-3.644,7.121c-1.095,0.288-2.228,0.527-3.382,0.726C562.624,114.637,563.272,112.57,563.754,110.289z
	 M564.12,108.31c0.294-1.844,0.458-3.8,0.448-5.827c1.966-0.62,3.793-1.415,5.445-2.352c0.055,0.521,0.095,1.043,0.104,1.572
	c0.026,1.596-0.167,3.145-0.505,4.63C567.917,107.129,566.072,107.792,564.12,108.31z M567.035,85.436
	c1.429,1.133,2.707,2.447,3.795,3.912c-0.527,0.605-1.136,1.174-1.809,1.709c-0.908-1.719-1.938-3.288-2.974-4.671
	C566.401,86.083,566.733,85.767,567.035,85.436z M565.549,84.358c-0.193,0.203-0.416,0.394-0.635,0.584
	c-0.563-0.688-1.111-1.312-1.627-1.869C564.067,83.457,564.827,83.882,565.549,84.358z M559.06,81.535
	c0.493,0.43,2.31,2.062,4.33,4.52c-0.672,0.408-1.407,0.771-2.204,1.074c-1.006-2.422-2.039-4.401-2.8-5.745
	C558.61,81.432,558.836,81.48,559.06,81.535z M555.32,80.981c0.233,0.014,0.467,0.028,0.698,0.049
	c0.624,1.021,2.013,3.427,3.366,6.654c-1.375,0.347-2.86,0.544-4.42,0.544c-0.003,0-0.004,0-0.006,0
	C555.101,84.853,555.244,82.282,555.32,80.981z M554.883,90.084c0.027,0,0.055,0.002,0.082,0.002c1.803,0,3.521-0.244,5.108-0.672
	c0.601,1.59,1.162,3.332,1.613,5.17c-2.081,0.547-4.346,0.854-6.722,0.854c-0.088,0-0.174-0.006-0.262-0.007
	C554.758,93.529,554.819,91.731,554.883,90.084z M554.577,101.024c0.021-1.274,0.047-2.522,0.077-3.736
	c0.104,0.001,0.207,0.007,0.311,0.007c2.509,0,4.905-0.324,7.121-0.906c0.301,1.53,0.515,3.111,0.597,4.719
	c-2.521,0.662-5.258,1.035-8.12,1.061C554.566,101.787,554.57,101.405,554.577,101.024z M542.462,101.196
	c0.306-5.078,4.668-8.946,9.743-8.642c0.252,0.016,0.5,0.045,0.746,0.082c-0.104,2.579-0.175,4.568-0.153,4.57
	c-0.029,1.229-0.057,2.494-0.077,3.787c-0.004,0.23,0.086,5.414,0.178,9.854c-0.586,0.083-1.184,0.129-1.799,0.093
	C546.023,110.635,542.158,106.272,542.462,101.196z M554.554,104.025c2.863-0.023,5.609-0.383,8.164-1.021
	c-0.024,2.01-0.239,3.945-0.572,5.77c-2.383,0.492-4.907,0.768-7.521,0.791C554.58,107.775,554.554,105.912,554.554,104.025z
	 M554.676,111.413c2.443-0.023,4.804-0.271,7.063-0.692c-0.533,2.263-1.225,4.301-1.916,6.027c-1.598,0.19-3.234,0.3-4.91,0.309
	C554.824,115.365,554.741,113.457,554.676,111.413z M557.151,122.239c-0.629,0.093-1.267,0.153-1.912,0.187
	c-0.063-0.894-0.144-2.089-0.226-3.514c1.346-0.009,2.67-0.081,3.97-0.206C558.186,120.448,557.486,121.68,557.151,122.239z
	 M560.459,121.485c-0.291,0.094-0.59,0.174-0.887,0.255c0.453-0.848,1.008-1.963,1.581-3.299c0.837-0.123,1.664-0.262,2.474-0.43
	C562.211,119.776,560.979,120.994,560.459,121.485z M564.874,119.462c0.536-0.651,1.097-1.378,1.663-2.175
	c0.682-0.194,1.354-0.4,2.011-0.627C567.438,117.729,566.199,118.658,564.874,119.462z M571.127,113.656
	c-0.96,0.441-1.971,0.833-3.007,1.195c1.267-2.134,2.41-4.599,3.118-7.304c1.168-0.595,2.288-1.232,3.311-1.94
	C573.987,108.559,572.798,111.288,571.127,113.656z M574.87,103.098c-0.958,0.771-2.014,1.484-3.149,2.139
	c0.179-1.156,0.274-2.345,0.254-3.563c-0.015-0.89-0.097-1.762-0.225-2.619c0.948-0.648,1.828-1.347,2.618-2.092
	c0.357,1.526,0.555,3.113,0.555,4.747C574.923,102.177,574.901,102.639,574.87,103.098z"/>
<g>
</g>
<g>
</g>
<g>
</g>
<g>
</g>
<g>
</g>
<g>
</g>
<g>
</g>
<g>
</g>
<g>
</g>
<g>
</g>
<g>
</g>
<g>
</g>
<g>
</g>
<g>
</g>
<g>
</g>
</svg>
