<?xml version="1.0" encoding="iso-8859-1"?>
<!-- Generator: Adobe Illustrator 16.0.0, SVG Export Plug-In . SVG Version: 6.00 Build 0)  -->
<!DOCTYPE svg PUBLIC "-//W3C//DTD SVG 1.1//EN" "http://www.w3.org/Graphics/SVG/1.1/DTD/svg11.dtd">
<svg version="1.1" id="Layer_1" xmlns="http://www.w3.org/2000/svg" xmlns:xlink="http://www.w3.org/1999/xlink" x="0px" y="0px"
	 width="44.901px" height="49.765px" viewBox="0 0 44.901 49.765" style="enable-background:new 0 0 44.901 49.765;"
	 xml:space="preserve">
<g>
	<path d="M240.738-118.571c0-2.66,0.771-5.135,2.084-7.236c-0.551-0.942-1.237-1.879-2.067-2.587
		c-2.561-2.181-4.124,7.171-4.124,7.171l-3.137,0.251l-0.943-11.791l18.012-1.44l0.196,2.454c0.528-0.146,1.07-0.259,1.622-0.342
		l-0.303-3.794c-0.02-0.24-0.23-0.422-0.473-0.402l-20.779,1.661c-0.244,0.02-0.423,0.232-0.404,0.473l1.438,17.979
		c0.02,0.242,0.231,0.425,0.474,0.405l8.584-0.687C240.811-117.147,240.738-117.851,240.738-118.571z"/>
	<path d="M250.038-107.926c-0.127-0.049-0.257-0.093-0.382-0.146c-0.202-0.231-0.878-1.075-1.539-2.63
		c0.583,0.152,1.228,0.285,1.921,0.396v-1.047c-0.886-0.152-1.684-0.342-2.375-0.555c-0.339-1.028-0.633-2.279-0.81-3.758
		c0.923,0.212,1.988,0.394,3.185,0.528v-1.037c-1.252-0.147-2.356-0.347-3.287-0.576c-0.043-0.593-0.074-1.207-0.074-1.867
		c0-0.45,0.012-0.884,0.032-1.303c1.082-0.277,2.386-0.523,3.922-0.684c-0.03,0.618-0.052,1.256-0.052,1.934
		c0,0.863,0.03,1.667,0.078,2.427h1.032c-0.051-0.759-0.084-1.559-0.084-2.427c0-0.714,0.025-1.381,0.06-2.026
		c0.829-0.06,1.712-0.097,2.664-0.097c0.733,0,1.413,0.025,2.068,0.063c0.042,0.704,0.071,1.436,0.071,2.224
		c0,0.214-0.008,0.412-0.011,0.618h1.027c0.003-0.206,0.01-0.405,0.01-0.618c0-0.76-0.026-1.468-0.064-2.153
		c1.663,0.146,3.055,0.394,4.19,0.682c0.018,0.401,0.03,0.813,0.03,1.244c0,0.291-0.008,0.57-0.018,0.846h0.11v1.646h1.646
		c0.959-0.334,1.668-0.671,2.138-0.933c-0.04,0.315-0.095,0.626-0.16,0.933h1.046c0.15-0.773,0.235-1.57,0.235-2.388
		c0-4.97-2.917-9.271-7.128-11.284c-0.024-0.026-0.043-0.048-0.051-0.055l-0.022,0.021c-1.61-0.757-3.406-1.183-5.3-1.183
		c-0.278,0-0.553,0.013-0.826,0.03l0-0.001l0,0.001c-6.508,0.428-11.672,5.855-11.672,12.47c0,5.452,3.514,10.088,8.392,11.792
		V-107.926z M250.691-121.643c-1.504,0.146-2.807,0.372-3.904,0.635c0.147-1.604,0.43-2.953,0.765-4.063
		c1.027-0.318,2.275-0.593,3.751-0.753C251.04-124.644,250.817-123.263,250.691-121.643z M254.328-121.819
		c-0.925,0-1.783,0.036-2.596,0.091c0.138-1.636,0.375-3.028,0.65-4.187c0.547-0.035,1.112-0.06,1.717-0.06
		c0.541,0,1.052,0.019,1.547,0.047c0.282,1.145,0.526,2.531,0.673,4.16C255.688-121.8,255.027-121.819,254.328-121.819z
		 M257.359-121.7c-0.135-1.607-0.364-2.981-0.632-4.146c1.631,0.164,2.988,0.47,4.098,0.819c0.317,1.087,0.583,2.4,0.72,3.966
		C260.384-121.336,258.997-121.568,257.359-121.7z M262.624-117.08c0.03-0.53,0.051-1.076,0.051-1.654
		c0-0.329-0.013-0.639-0.023-0.952c1.591,0.496,2.533,1.021,2.925,1.271C265.347-118.254,264.411-117.653,262.624-117.08z
		 M265.576-119.609c-0.623-0.337-1.599-0.777-2.982-1.178c-0.106-1.461-0.317-2.73-0.587-3.815c1.76,0.712,2.622,1.444,2.719,1.531
		C265.181-121.991,265.473-120.826,265.576-119.609z M263.713-124.955c-0.546-0.289-1.23-0.598-2.059-0.886
		c-0.278-0.856-0.582-1.566-0.875-2.144C261.934-127.163,262.93-126.137,263.713-124.955z M258.887-129.076
		c0.286,0.353,0.941,1.27,1.543,2.857c-1.116-0.303-2.435-0.549-3.969-0.678c-0.407-1.457-0.854-2.495-1.19-3.153
		C256.549-129.924,257.765-129.587,258.887-129.076z M253.906-130.1c0.054,0,0.108-0.003,0.163-0.004
		c0.25,0.421,0.788,1.444,1.293,3.134c-0.409-0.018-0.826-0.03-1.262-0.03c-0.499,0-0.979,0.013-1.441,0.035
		C253.119-128.553,253.618-129.583,253.906-130.1z M249.526-129.131c0.993-0.438,2.058-0.739,3.173-0.88
		c-0.337,0.689-0.757,1.722-1.137,3.128c-1.377,0.126-2.576,0.346-3.601,0.617C248.619-127.957,249.316-128.879,249.526-129.131z
		 M247.635-128.072c-0.301,0.58-0.618,1.305-0.911,2.186c-0.869,0.3-1.579,0.621-2.141,0.924
		C245.394-126.184,246.432-127.239,247.635-128.072z M243.57-123.081l0.019,0.019c0.016-0.016,0.879-0.821,2.767-1.581
		c-0.284,1.106-0.505,2.413-0.619,3.911c-1.405,0.406-2.4,0.848-3.024,1.173C242.813-120.799,243.106-121.983,243.57-123.081z
		 M242.679-118.36c0.369-0.226,1.351-0.758,2.997-1.269c-0.012,0.332-0.024,0.662-0.024,1.012c0,0.551,0.019,1.073,0.048,1.58
		c-1.557-0.467-2.546-0.959-3.019-1.229C242.68-118.298,242.679-118.329,242.679-118.36z M242.783-117.048
		c0.663,0.327,1.65,0.737,3.001,1.114c0.141,1.379,0.383,2.571,0.672,3.6c-1.588-0.632-2.469-1.289-2.733-1.507
		C243.262-114.842,242.94-115.918,242.783-117.048z M244.848-111.92c0.545,0.278,1.214,0.567,2.013,0.839
		c0.283,0.778,0.583,1.429,0.869,1.959C246.613-109.879,245.638-110.828,244.848-111.92z"/>
	<g>
		<path d="M252.384-114.407l-0.146,17.438h25.637l0.146-17.438H252.384z M261.523-98.59c-3.83,0-6.934-3.104-6.934-6.936
			c0-3.832,3.104-6.935,6.934-6.935c3.831,0,6.935,3.103,6.935,6.935C268.458-101.694,265.354-98.59,261.523-98.59z M275.09-110.784
			h-2.226c-0.664,0-1.202-0.538-1.202-1.198c0-0.665,0.538-1.202,1.202-1.202h2.226c0.661,0,1.2,0.537,1.2,1.202
			C276.291-111.322,275.751-110.784,275.09-110.784z"/>
		<rect x="254.81" y="-116.21" width="5.257" height="1.908"/>
		<path d="M266.221-105.527c0,2.64-2.136,4.771-4.77,4.771c-2.636,0-4.77-2.132-4.77-4.771c0-2.634,2.134-4.77,4.77-4.77
			C264.084-110.297,266.221-108.161,266.221-105.527z"/>
	</g>
	<path d="M235.671-129.261c0.082,0,0.161-0.007,0.238-0.017h2.534v-0.016c0.601-0.073,1.058-0.438,1.058-0.88
		c0-0.495-0.572-0.896-1.277-0.896c0,0-0.001,0-0.002,0c-0.013-0.486-0.577-0.879-1.274-0.879c-0.705,0-1.276,0.401-1.276,0.896
		c-0.705,0-1.277,0.401-1.277,0.896S234.966-129.261,235.671-129.261z M236.947-130.156c0.001,0,0.001,0,0.002,0
		c0,0.002,0,0.003,0,0.005h-0.004C236.946-130.153,236.947-130.154,236.947-130.156z"/>
	<path d="M243.36-129.261c0.082,0,0.161-0.007,0.238-0.017h2.534v-0.016c0.601-0.073,1.058-0.438,1.058-0.88
		c0-0.495-0.572-0.896-1.277-0.896c0,0-0.001,0-0.001,0c-0.014-0.486-0.578-0.879-1.275-0.879c-0.705,0-1.276,0.401-1.276,0.896
		c-0.705,0-1.277,0.401-1.277,0.896S242.655-129.261,243.36-129.261z M244.637-130.156c0.001,0,0.001,0,0.002,0
		c0,0.002,0,0.003,0,0.005h-0.004C244.636-130.153,244.637-130.154,244.637-130.156z"/>
	<path d="M242.896-104.093c-0.6-0.478-1.071-0.979-1.41-1.473l2.528,0.022c0,0-4.546-7.651-4.583-9.332
		c-0.036-1.679-5.398,9.245-5.398,9.245l3.072,0.026c0.433,1.648,1.544,3.242,3.3,4.641c2.48,1.974,6.286,3.52,10.735,3.993v-4.026
		C247.75-101.41,244.828-102.555,242.896-104.093z"/>
	<path d="M272.798-116.648c-0.497-2.453-2.336-3.921-4.736-3.919l0.058,4c0.355-0.013,0.612-0.009,0.758,0.713
		c0.006,0.031,0.006,0.07,0.012,0.104h4.027C272.894-116.059,272.857-116.359,272.798-116.648z"/>
	<path style="fill-rule:evenodd;clip-rule:evenodd;" d="M279.27-130.848c-1.528-1.562-4.218-2.888-6.563-2.307
		c-0.688,0.073-1.507,0.039-2.051-0.088c-1.344-0.313,1.626-1.265,1.886-1.331c0.585-0.15,1.17-0.107,1.719,0.026
		c0.424,0.099,0.46-0.308,0.018-0.311c-0.538-0.001-0.997,0.016-1.553,0.157c-0.447,0.109-0.944,0.28-1.417,0.444
		c-0.564,0.19-0.415,0.055-0.862,0.276c0.206-0.451,0.083-0.332,0.265-0.917c0.144-0.464,0.293-0.948,0.387-1.384
		c0.124-0.559,0.126-1.018,0.11-1.557c-0.017-0.442-0.423-0.392-0.309,0.026c0.148,0.544,0.207,1.128,0.075,1.718
		c-0.057,0.262-0.921,3.26-1.274,1.926c-0.142-0.54-0.2-1.359-0.152-2.05c0.514-2.358-0.892-5.009-2.5-6.487
		c-0.622-0.576-1.386-0.927-1.386-0.927s-2.256,5.718-1.95,5.861c-0.197,0.759,1.326,3.021,1.326,3.021
		c-0.636,0.065-1.53-0.069-2.389,0.296c-0.516,0.223-1.02,0.627-1.45,1.372c-0.182,0.318-0.323,0.589-0.396,0.861
		c-0.053,0.204-0.206,1.237,0.312,1.62c0.518,0.385,1.707,1.432,2.739,1.148c1.029-0.284,2.348-0.753,2.348-0.753
		s-0.428,0.598-0.904,0.932c-0.344,0.243-1.221,1.178-0.867,1.49c0.353,0.317,1.233-0.56,1.465-0.912
		c0.318-0.488,0.904-0.932,0.904-0.932s-0.429,1.335-0.683,2.37c-0.252,1.038,0.608,2.245,1.228,2.704
		c0.619,0.458,1.431,0.32,1.63,0.26c0.272-0.079,0.539-0.229,0.849-0.42c0.73-0.45,1.121-0.97,1.327-1.489
		c0.346-0.872,0.179-1.761,0.222-2.397c0,0,2.311,1.453,3.061,1.235c0.155,0.3,5.803-2.129,5.803-2.129
		S279.86-130.243,279.27-130.848z"/>
</g>
<g>
</g>
<g>
</g>
<g>
</g>
<g>
</g>
<g>
</g>
<g>
</g>
<g>
</g>
<g>
</g>
<g>
</g>
<g>
</g>
<g>
</g>
<g>
</g>
<g>
</g>
<g>
</g>
<g>
</g>
</svg>
