<?xml version="1.0" encoding="iso-8859-1"?>
<!-- Generator: Adobe Illustrator 16.0.0, SVG Export Plug-In . SVG Version: 6.00 Build 0)  -->
<!DOCTYPE svg PUBLIC "-//W3C//DTD SVG 1.1//EN" "http://www.w3.org/Graphics/SVG/1.1/DTD/svg11.dtd">
<svg version="1.1" id="Layer_1" xmlns="http://www.w3.org/2000/svg" xmlns:xlink="http://www.w3.org/1999/xlink" x="0px" y="0px"
	 width="44.901px" height="49.765px" viewBox="0 0 44.901 49.765" style="enable-background:new 0 0 44.901 49.765;"
	 xml:space="preserve">
<path style="fill:none;stroke:#000000;stroke-width:2;stroke-miterlimit:10;" d="M427.451-120.784
	c-0.008-3.042-2.131-5.662-5.204-6.917c0.649-3.143-0.272-6.262-2.678-7.987c-2.323-1.666-5.437-1.6-8.141-0.129
	c-1.06-3.621-3.921-6.22-7.296-6.22c-3.57,0-6.568,2.91-7.463,6.86c-3.272-1.587-6.98-1.274-9.253,1.087
	c-1.92,1.995-2.338,4.956-1.395,7.764c-2.531,1.391-4.201,3.776-4.194,6.486c0.009,2.988,2.055,5.571,5.038,6.853
	c-1.377,3.132-1.034,6.597,1.183,8.791c2.361,2.339,6.143,2.534,9.41,0.795c0.855,4.017,3.879,6.99,7.488,6.99
	c3.255,0,6.036-2.418,7.18-5.837c3.137,1.307,6.57,0.91,8.723-1.325c2.417-2.511,2.465-6.554,0.394-9.895
	C424.865-114.535,427.462-117.406,427.451-120.784z M404.641-110.266c-4.902,0-8.875-3.972-8.875-8.875
	c0-4.9,3.973-8.874,8.875-8.874c4.9,0,8.874,3.974,8.874,8.874C413.515-114.237,409.541-110.266,404.641-110.266z"/>
<g>
	<path d="M407.74-122.67c-0.192-0.785-0.433-1.529-0.688-2.208c-0.677,0.183-1.41,0.287-2.179,0.287
		c-0.012,0-0.022-0.001-0.035-0.001c-0.027,0.704-0.054,1.472-0.076,2.284c0.037,0,0.073,0.002,0.111,0.002
		C405.886-122.306,406.853-122.437,407.74-122.67z"/>
	<path d="M406.759-125.616c-0.578-1.378-1.17-2.405-1.437-2.841c-0.1-0.01-0.198-0.016-0.298-0.021
		c-0.032,0.556-0.093,1.653-0.153,3.095c0,0,0.001,0,0.002,0C405.538-125.384,406.172-125.469,406.759-125.616z"/>
	<path d="M408.467-126.312c-0.862-1.05-1.637-1.747-1.848-1.931c-0.095-0.023-0.191-0.044-0.287-0.064
		c0.324,0.573,0.765,1.419,1.194,2.454C407.866-125.982,408.18-126.138,408.467-126.312z"/>
	<path d="M413.149-121.655c-0.337,0.319-0.712,0.617-1.116,0.894c0.054,0.367,0.089,0.739,0.096,1.118
		c0.009,0.521-0.032,1.028-0.108,1.522c0.484-0.279,0.935-0.585,1.343-0.914c0.014-0.195,0.022-0.393,0.022-0.592
		C413.386-120.324,413.303-121.004,413.149-121.655z"/>
	<path d="M409.101-112.047c0.564-0.344,1.093-0.74,1.566-1.197c-0.28,0.098-0.567,0.186-0.858,0.269
		C409.567-112.636,409.328-112.326,409.101-112.047z"/>
	<path d="M407.91-121.899c-0.944,0.249-1.968,0.387-3.037,0.387c-0.045,0-0.088-0.002-0.133-0.003
		c-0.013,0.519-0.023,1.052-0.032,1.596c-0.003,0.162-0.005,0.325-0.007,0.488c1.222-0.011,2.389-0.17,3.464-0.452
		C408.131-120.571,408.039-121.246,407.91-121.899z"/>
	<path d="M410.484-114.016c0.442-0.154,0.873-0.322,1.282-0.51c0.713-1.012,1.221-2.178,1.46-3.438
		c-0.437,0.303-0.914,0.574-1.412,0.829C411.513-115.979,411.024-114.927,410.484-114.016z"/>
	<path d="M408.18-119.075c-1.089,0.273-2.261,0.427-3.482,0.437c0,0.806,0.012,1.602,0.03,2.365
		c1.115-0.011,2.191-0.128,3.209-0.338C408.078-117.39,408.17-118.217,408.18-119.075z"/>
	<path d="M409.388-127.037c-0.308-0.203-0.632-0.385-0.965-0.548c0.22,0.237,0.453,0.504,0.694,0.798
		C409.21-126.868,409.305-126.949,409.388-127.037z"/>
	<path d="M406.838-111.074c0.127-0.034,0.254-0.068,0.379-0.108c0.222-0.21,0.747-0.73,1.351-1.483
		c-0.345,0.071-0.698,0.13-1.056,0.183C407.269-111.913,407.031-111.437,406.838-111.074z"/>
	<path d="M409.295-113.648c0.587-0.857,1.164-1.891,1.555-3.041c-0.701,0.291-1.445,0.535-2.228,0.726
		c-0.206,0.975-0.482,1.856-0.77,2.625C408.346-113.423,408.829-113.525,409.295-113.648z"/>
	<path d="M404.99-110.781c0.275-0.015,0.547-0.04,0.815-0.08c0.143-0.239,0.44-0.765,0.781-1.509
		c-0.555,0.054-1.119,0.085-1.693,0.089C404.929-111.674,404.963-111.163,404.99-110.781z"/>
	<path d="M407.814-125.124c0.255,0.683,0.494,1.431,0.689,2.221c0.623-0.219,1.195-0.491,1.704-0.809
		c-0.38-0.729-0.819-1.397-1.258-1.984C408.604-125.478,408.226-125.283,407.814-125.124z"/>
	<path d="M407.763-115.779c-0.964,0.18-1.971,0.285-3.013,0.295c0.028,0.873,0.063,1.688,0.101,2.41
		c0.715-0.004,1.412-0.051,2.095-0.132C407.24-113.943,407.534-114.813,407.763-115.779z"/>
	<path d="M411.641-124.906c-0.465-0.625-1.01-1.187-1.619-1.67c-0.129,0.141-0.271,0.276-0.422,0.405
		c0.442,0.591,0.882,1.261,1.269,1.994C411.155-124.405,411.415-124.647,411.641-124.906z"/>
	<path d="M411.868-121.599c0.383-0.283,0.73-0.586,1.034-0.91c-0.208-0.608-0.481-1.188-0.811-1.729
		c-0.26,0.276-0.553,0.536-0.872,0.778C411.485-122.871,411.709-122.249,411.868-121.599z"/>
	<path d="M411.159-121.127c-0.138-0.652-0.351-1.28-0.611-1.876c-0.564,0.345-1.192,0.639-1.871,0.872
		c0.129,0.651,0.223,1.326,0.267,2.016C409.752-120.385,410.496-120.727,411.159-121.127z"/>
	<path d="M411.337-119.63c-0.004-0.226-0.021-0.449-0.045-0.671c-0.705,0.399-1.483,0.738-2.323,1.004
		c0.005,0.865-0.065,1.7-0.19,2.487c0.832-0.221,1.619-0.504,2.343-0.843C411.266-118.287,411.348-118.949,411.337-119.63z"/>
	<path d="M398.105-113.523c0.646,0.679,1.397,1.254,2.227,1.703c-0.306-0.358-0.639-0.782-0.973-1.262
		C398.931-113.215,398.51-113.361,398.105-113.523z"/>
	<path d="M397.446-117.068c-0.586-0.292-1.135-0.615-1.637-0.972c0.208,1.146,0.637,2.216,1.24,3.164
		c0.514,0.273,1.061,0.519,1.635,0.735C398.185-115.005,397.734-115.992,397.446-117.068z"/>
	<path d="M398.161-123.755c-0.34-0.294-0.643-0.609-0.898-0.944c-0.453,0.649-0.822,1.36-1.091,2.119
		c0.343,0.375,0.741,0.724,1.187,1.044C397.544-122.318,397.826-123.062,398.161-123.755z"/>
	<path d="M401.327-113.401c-0.277-0.749-0.542-1.602-0.741-2.54c-0.762-0.182-1.489-0.415-2.174-0.692
		c0.374,1.085,0.912,2.062,1.465,2.885C400.346-113.613,400.831-113.498,401.327-113.401z"/>
	<path d="M397.114-119.644c0.006-0.357,0.037-0.711,0.086-1.058c-0.47-0.314-0.901-0.658-1.282-1.027
		c-0.163,0.675-0.253,1.377-0.253,2.102c0,0.171,0.006,0.341,0.016,0.51c0.464,0.384,0.985,0.735,1.551,1.053
		C397.149-118.575,397.105-119.103,397.114-119.644z"/>
	<path d="M402.6-112.406c0.362,0.796,0.681,1.35,0.817,1.576c0.257,0.032,0.517,0.054,0.78,0.063
		c-0.027-0.394-0.063-0.912-0.098-1.527C403.592-112.313,403.092-112.35,402.6-112.406z"/>
	<path d="M400.61-112.744c0.76,0.959,1.409,1.559,1.513,1.652c0.091,0.024,0.182,0.048,0.272,0.072
		c-0.205-0.38-0.46-0.893-0.728-1.518C401.311-112.597,400.956-112.665,400.61-112.744z"/>
	<path d="M402.506-125.757c0.488,0.161,1.015,0.277,1.573,0.333c0.061-1.412,0.119-2.494,0.152-3.063
		c-0.113,0.004-0.228,0.006-0.34,0.015C403.639-128.061,403.071-127.079,402.506-125.757z"/>
	<path d="M404.057-113.093c-0.037-0.72-0.071-1.53-0.1-2.396c-0.863-0.03-1.703-0.121-2.511-0.27
		c0.222,0.938,0.508,1.785,0.794,2.506C402.832-113.169,403.438-113.115,404.057-113.093z"/>
	<path d="M397.906-119.63c-0.012,0.698,0.074,1.375,0.225,2.022c0.712,0.328,1.481,0.601,2.297,0.813
		c-0.126-0.786-0.196-1.62-0.193-2.483c-0.824-0.257-1.592-0.585-2.289-0.971C397.925-120.044,397.909-119.838,397.906-119.63z"/>
	<path d="M400.967-127.743c-0.29,0.128-0.574,0.268-0.848,0.426c0.069,0.09,0.153,0.174,0.233,0.26
		C400.566-127.31,400.773-127.539,400.967-127.743z"/>
	<path d="M401.499-122.815c0.764,0.243,1.596,0.404,2.471,0.473c0.023-0.814,0.05-1.582,0.077-2.288
		c-0.651-0.062-1.27-0.198-1.838-0.393C401.947-124.347,401.7-123.604,401.499-122.815z"/>
	<path d="M403.905-118.65c-1.005-0.044-1.971-0.187-2.882-0.41c0.012,0.858,0.104,1.685,0.246,2.464
		c0.852,0.172,1.744,0.28,2.666,0.313C403.917-117.048,403.905-117.845,403.905-118.65z"/>
	<path d="M403.909-119.443c0.002-0.163,0.004-0.327,0.007-0.489c0.009-0.553,0.021-1.092,0.033-1.617
		c-0.927-0.069-1.812-0.239-2.628-0.497c-0.145,0.704-0.246,1.436-0.284,2.178C401.939-119.637,402.902-119.488,403.909-119.443z"/>
	<path d="M400.952-126.523c0.242,0.175,0.519,0.327,0.81,0.468c0.412-0.964,0.824-1.75,1.13-2.287
		c-0.073,0.015-0.146,0.028-0.218,0.044l0.006,0.008C402.661-128.275,401.879-127.616,400.952-126.523z"/>
	<path d="M399.851-126.443c-0.144-0.146-0.275-0.296-0.393-0.453c-0.63,0.441-1.2,0.962-1.696,1.548
		c0.214,0.311,0.474,0.604,0.771,0.878C398.942-125.202,399.4-125.866,399.851-126.443z"/>
	<path d="M398.071-121.072c0.657,0.388,1.391,0.719,2.187,0.979c0.048-0.764,0.157-1.509,0.309-2.226
		c-0.644-0.259-1.232-0.574-1.756-0.936C398.489-122.569,398.229-121.837,398.071-121.072z"/>
	<path d="M399.168-123.958c0.466,0.332,0.996,0.623,1.578,0.864c0.206-0.798,0.456-1.547,0.72-2.23
		c-0.364-0.173-0.701-0.371-1.004-0.594C400.018-125.344,399.566-124.684,399.168-123.958z"/>
</g>
<g>
</g>
<g>
</g>
<g>
</g>
<g>
</g>
<g>
</g>
<g>
</g>
<g>
</g>
<g>
</g>
<g>
</g>
<g>
</g>
<g>
</g>
<g>
</g>
<g>
</g>
<g>
</g>
<g>
</g>
</svg>
