<?xml version="1.0" encoding="iso-8859-1"?>
<!-- Generator: Adobe Illustrator 16.0.0, SVG Export Plug-In . SVG Version: 6.00 Build 0)  -->
<!DOCTYPE svg PUBLIC "-//W3C//DTD SVG 1.1//EN" "http://www.w3.org/Graphics/SVG/1.1/DTD/svg11.dtd">
<svg version="1.1" id="Layer_1" xmlns="http://www.w3.org/2000/svg" xmlns:xlink="http://www.w3.org/1999/xlink" x="0px" y="0px"
	 width="44.867px" height="40.873px" viewBox="0 0 44.867 40.873" style="enable-background:new 0 0 44.867 40.873;"
	 xml:space="preserve">
<g>
	<path d="M85.052,14.271l-5.133-7.015c-2.103,2.032-2.361,5.907-0.979,10.196C80.949,16.741,83.034,15.673,85.052,14.271z"/>
	<path d="M98.519,32.67l-5.135-7.015c-1.947,1.5-3.597,3.167-4.883,4.868C92.172,33.139,95.946,34.06,98.519,32.67z"/>
	<path d="M83.487,25.727c1.227,1.528,2.553,2.858,3.912,3.96c1.361-1.823,3.097-3.59,5.15-5.171l-2.583-3.531L83.487,25.727z"/>
	<path d="M79.405,18.754c0.762,1.939,1.835,3.93,3.226,5.85l6.502-4.758l-3.247-4.436C83.761,16.889,81.553,18.008,79.405,18.754z"
		/>
	<path d="M76.887,10.435c-1.687,2.394-2.648,5.19-2.843,8.052c1.123-0.059,2.328-0.264,3.574-0.615
		C76.769,15.176,76.511,12.6,76.887,10.435z"/>
	<path d="M81.491,25.438c-1.481-2.045-2.622-4.177-3.42-6.266c-1.407,0.393-2.774,0.619-4.059,0.674
		c0.055,3.099,1.008,6.211,2.945,8.91L81.491,25.438z"/>
	<path d="M94.571,34.598c-2.179-0.297-4.557-1.319-6.868-2.945c-0.71,1.081-1.268,2.163-1.663,3.216
		C88.825,35.549,91.78,35.482,94.571,34.598z"/>
	<path d="M97.848,13.467l4.6-3.366c-1.987-2.663-4.664-4.512-7.601-5.501c-0.449,1.23-1.094,2.487-1.914,3.732
		C94.674,9.72,96.353,11.445,97.848,13.467z"/>
	<path d="M84.731,34.493c0.44-1.208,1.069-2.442,1.87-3.666c-1.489-1.184-2.932-2.614-4.254-4.266l-4.515,3.304
		C79.729,32.063,82.128,33.616,84.731,34.493z"/>
	<path d="M103.24,11.271l-4.581,3.353c1.169,1.75,2.09,3.549,2.769,5.316c1.437-0.406,2.829-0.639,4.139-0.695
		C105.519,16.499,104.763,13.742,103.24,11.271z"/>
	<path d="M100.103,20.362c-0.64-1.622-1.502-3.281-2.584-4.904l-6.412,4.693l2.584,3.531
		C95.794,22.219,97.977,21.108,100.103,20.362z"/>
	<path d="M100.567,21.666c-1.988,0.711-4.049,1.769-6.043,3.155l5.127,7.006C101.702,29.777,101.944,25.924,100.567,21.666z"/>
	<path d="M105.529,20.606c-1.146,0.06-2.372,0.272-3.644,0.635c0.865,2.729,1.119,5.339,0.727,7.523
		C104.348,26.348,105.331,23.51,105.529,20.606z"/>
	<path d="M93.539,4.219c-2.828-0.69-5.833-0.607-8.66,0.314c2.2,0.288,4.61,1.321,6.95,2.971C92.562,6.4,93.136,5.293,93.539,4.219z
		"/>
	<path d="M91.026,8.634c-3.643-2.601-7.387-3.539-9.961-2.203l5.127,7.005C88.116,11.956,89.746,10.313,91.026,8.634z"/>
	<path d="M92.126,9.474c-1.354,1.798-3.071,3.542-5.1,5.102l3.246,4.436l6.436-4.71C95.304,12.402,93.737,10.782,92.126,9.474z"/>
	<path d="M113.532,14.009l-4.695,5.267l2.975,0.169c-0.553,3.308-5.857,18.706-20.791,18.734c-0.074,0-0.148,0-0.223,0
		c-11.327,0-14.801-4.216-15.863-6.741l-1.844,0.775c1.255,2.983,5.224,7.965,17.707,7.965c0.076,0,0.153,0,0.23,0
		c16.724-0.032,22.261-17.046,22.787-20.621l2.818,0.16L113.532,14.009z"/>
	<path d="M118.032,1.092c-0.583-1.245-1.514-1.064-1.999-0.923c-0.485,0.143-4.126,1.209-4.126,1.209s-3.377-6.24-4.199-6.714
		c-0.822-0.475-1.757,0.017-1.757,0.017l2.73,7.821l-4.034,1.812l-1.982-1.773l-1.649,0.176c0,0,2.003,2.311,2.2,3.186
		c0.197,0.874-0.148,3.299-0.148,3.299l1.52-0.06l0.759-3.048l4.042-0.933l2.393,7.904c0,0,1.352,0.076,1.578-0.854
		s-0.914-7.527-0.914-7.527s4.338-1.45,4.696-1.698C117.499,2.739,118.614,2.336,118.032,1.092z"/>
</g>
<g>
</g>
<g>
</g>
<g>
</g>
<g>
</g>
<g>
</g>
<g>
</g>
<g>
</g>
<g>
</g>
<g>
</g>
<g>
</g>
<g>
</g>
<g>
</g>
<g>
</g>
<g>
</g>
<g>
</g>
</svg>
