<?xml version="1.0" encoding="iso-8859-1"?>
<!-- Generator: Adobe Illustrator 16.0.0, SVG Export Plug-In . SVG Version: 6.00 Build 0)  -->
<!DOCTYPE svg PUBLIC "-//W3C//DTD SVG 1.1//EN" "http://www.w3.org/Graphics/SVG/1.1/DTD/svg11.dtd">
<svg version="1.1" id="Layer_1" xmlns="http://www.w3.org/2000/svg" xmlns:xlink="http://www.w3.org/1999/xlink" x="0px" y="0px"
	 width="44.867px" height="40.873px" viewBox="0 0 44.867 40.873" style="enable-background:new 0 0 44.867 40.873;"
	 xml:space="preserve">
<g>
	<path d="M118.852,827.564c0-13.438-10.934-24.373-24.373-24.374l0,0h-0.001h-0.001c-13.439,0-24.373,10.935-24.373,24.374
		c0,0.056,0.004,0.109,0.005,0.165c-0.001,0.028-0.005,0.057-0.005,0.086c0,0.093,0.01,0.184,0.014,0.275
		c0.281,13.184,11.075,23.824,24.32,23.846c0.014,0,0.027,0.002,0.041,0.002s0.028-0.002,0.043-0.002
		c13.244-0.024,24.035-10.664,24.317-23.846c0.003-0.092,0.013-0.183,0.013-0.275c0-0.029-0.004-0.058-0.004-0.086
		C118.848,827.673,118.852,827.62,118.852,827.564z M116.184,822.14c-2.325-2.302-6.041-4.162-10.627-5.317
		c-1.135-4.684-2.998-8.488-5.316-10.876C108.066,808.035,114.215,814.267,116.184,822.14z M95.479,805.302
		c3.303,0.729,6.203,5.023,7.851,11.029c-2.44-0.467-5.079-0.744-7.851-0.798V805.302z M93.479,805.302v10.231
		c-2.772,0.054-5.41,0.331-7.851,0.797C87.275,810.325,90.176,806.032,93.479,805.302z M88.717,805.946
		c-2.318,2.388-4.182,6.192-5.316,10.877c-4.587,1.155-8.303,3.015-10.629,5.317C74.74,814.266,80.891,808.033,88.717,805.946z
		 M82.93,819.05c-0.455,2.492-0.711,5.188-0.738,8.015H72.174C72.727,823.717,76.939,820.755,82.93,819.05z M82.209,829.065
		c0.078,2.663,0.363,5.195,0.824,7.543c-5.744-1.615-9.874-4.383-10.75-7.543H82.209z M72.959,833.676
		c2.36,2.239,6.053,4.044,10.579,5.165c1.144,4.438,2.949,8.044,5.178,10.34C81.119,847.155,75.106,841.223,72.959,833.676z
		 M93.479,849.826c-3.205-0.707-6.029-4.771-7.7-10.498c2.397,0.449,4.985,0.715,7.7,0.768V849.826z M93.479,838.096
		c-2.92-0.063-5.713-0.398-8.264-0.95c-0.561-2.489-0.91-5.222-1.002-8.081l-0.021-2c0.031-3.022,0.355-5.918,0.912-8.559
		c2.58-0.566,5.412-0.91,8.375-0.974h2c2.963,0.063,5.795,0.408,8.375,0.974c0.557,2.641,0.881,5.536,0.912,8.559l-0.021,2
		c-0.092,2.858-0.441,5.592-1.002,8.081c-2.551,0.552-5.344,0.887-8.264,0.95H93.479z M95.479,849.826v-9.73
		c2.715-0.053,5.303-0.319,7.7-0.768C101.508,845.054,98.684,849.118,95.479,849.826z M100.241,849.18
		c2.229-2.296,4.034-5.902,5.178-10.339c4.526-1.122,8.218-2.926,10.577-5.165C113.85,841.222,107.837,847.154,100.241,849.18z
		 M105.924,836.608c0.461-2.348,0.746-4.881,0.824-7.543h9.924C115.797,832.224,111.668,834.993,105.924,836.608z M106.766,827.065
		c-0.027-2.826-0.283-5.521-0.738-8.015c5.99,1.705,10.201,4.667,10.756,8.015H106.766z"/>
</g>
<g>
	<path d="M94.008,834.683c-0.898,0-1.664-0.122-2.296-0.367c-0.632-0.244-1.15-0.568-1.554-0.973
		c-0.404-0.404-0.703-0.868-0.896-1.392s-0.302-1.064-0.324-1.622h3.653c0,0.148,0.015,0.313,0.043,0.495
		c0.028,0.183,0.091,0.355,0.188,0.521s0.236,0.308,0.419,0.427c0.182,0.12,0.438,0.191,0.768,0.214v-2.407
		c-0.228-0.068-0.464-0.134-0.708-0.196c-0.245-0.063-0.498-0.14-0.76-0.23c-0.467-0.16-0.894-0.327-1.28-0.504
		c-0.388-0.177-0.718-0.387-0.991-0.632c-0.272-0.245-0.483-0.535-0.631-0.871c-0.148-0.335-0.223-0.748-0.223-1.237
		c0-0.694,0.14-1.295,0.419-1.802c0.278-0.506,0.637-0.922,1.075-1.246s0.931-0.563,1.477-0.717
		c0.547-0.154,1.087-0.231,1.622-0.231v-1.365h0.889v1.365c0.591,0,1.16,0.077,1.707,0.231c0.546,0.153,1.027,0.393,1.442,0.717
		c0.416,0.324,0.746,0.737,0.99,1.237c0.245,0.501,0.367,1.099,0.367,1.793h-3.261c-0.023-0.216-0.06-0.398-0.111-0.546
		c-0.051-0.148-0.125-0.268-0.222-0.358c-0.097-0.092-0.22-0.165-0.367-0.223c-0.148-0.057-0.33-0.107-0.546-0.153v1.912
		c1.104,0.239,1.982,0.504,2.638,0.794c0.654,0.29,1.155,0.609,1.502,0.956c0.348,0.348,0.572,0.726,0.675,1.136
		c0.103,0.409,0.153,0.854,0.153,1.332c0,0.467-0.088,0.933-0.265,1.399s-0.464,0.888-0.862,1.264s-0.913,0.683-1.545,0.922
		s-1.397,0.358-2.296,0.358v1.69h-0.889V834.683z M94.008,824.61c-0.307,0-0.586,0.046-0.836,0.137
		c-0.251,0.091-0.376,0.307-0.376,0.648c0,0.455,0.404,0.763,1.212,0.922V824.61z M94.896,831.986
		c0.397-0.034,0.733-0.134,1.007-0.299s0.41-0.412,0.41-0.743c0-0.296-0.126-0.521-0.376-0.674c-0.25-0.154-0.598-0.305-1.041-0.453
		V831.986z"/>
</g>
<g>
</g>
<g>
</g>
<g>
</g>
<g>
</g>
<g>
</g>
<g>
</g>
<g>
</g>
<g>
</g>
<g>
</g>
<g>
</g>
<g>
</g>
<g>
</g>
<g>
</g>
<g>
</g>
<g>
</g>
</svg>
