<?xml version="1.0" encoding="iso-8859-1"?>
<!-- Generator: Adobe Illustrator 16.0.0, SVG Export Plug-In . SVG Version: 6.00 Build 0)  -->
<!DOCTYPE svg PUBLIC "-//W3C//DTD SVG 1.1//EN" "http://www.w3.org/Graphics/SVG/1.1/DTD/svg11.dtd">
<svg version="1.1" id="Layer_1" xmlns="http://www.w3.org/2000/svg" xmlns:xlink="http://www.w3.org/1999/xlink" x="0px" y="0px"
	 width="44.901px" height="49.765px" viewBox="0 0 44.901 49.765" style="enable-background:new 0 0 44.901 49.765;"
	 xml:space="preserve">
<g>
	<path d="M321.661-58.854v30.709h18.256v-30.709H321.661z M331.195-57.582c0.243,0,0.44,0.197,0.44,0.44s-0.197,0.441-0.44,0.441
		c-0.244,0-0.441-0.198-0.441-0.441S330.951-57.582,331.195-57.582z M328.569-56.108h5.251v0.423h-5.251V-56.108z M331.022-29.471
		c-0.582,0-1.053-0.472-1.053-1.053s0.471-1.053,1.053-1.053c0.58,0,1.052,0.472,1.052,1.053S331.603-29.471,331.022-29.471z
		 M336.988-33.087c-4.742,0.025-10.047,0.045-12.398,0.024v-21.113l12.398-0.004V-33.087z"/>
	<path d="M326.669-40.071c0.979,1.173,2.447,1.924,4.088,1.934c0.006,0,0.012,0.001,0.019,0.001c0.001,0,0.003-0.001,0.004-0.001
		c0.002,0,0.005,0.001,0.008,0.001c1.654,0,3.135-0.753,4.12-1.935c0.09-0.108,0.176-0.221,0.257-0.337
		c0.62-0.874,0.986-1.94,0.986-3.091c0-1.151-0.366-2.218-0.986-3.092c-0.081-0.116-0.167-0.229-0.257-0.337
		c-0.984-1.182-2.466-1.934-4.12-1.934c-0.003,0-0.006,0-0.008,0c-0.001,0-0.003,0-0.004,0c-0.007,0-0.012,0-0.019,0
		c-1.642,0.01-3.11,0.761-4.088,1.934c-0.09,0.108-0.176,0.221-0.257,0.337c-0.62,0.874-0.986,1.94-0.986,3.092
		c0,1.15,0.366,2.217,0.986,3.091C326.493-40.292,326.579-40.18,326.669-40.071z M332.317-38.82c0.5-0.478,0.917-1.181,1.202-2.025
		c0.387,0.142,0.734,0.314,1.033,0.51C333.967-39.643,333.198-39.109,332.317-38.82z M334.812-40.671
		c-0.339-0.228-0.733-0.425-1.168-0.587c0.155-0.569,0.254-1.191,0.282-1.847h1.77C335.622-42.202,335.305-41.37,334.812-40.671z
		 M335.71-43.544h-1.776c-0.004-0.784-0.108-1.527-0.291-2.196c0.436-0.163,0.829-0.359,1.168-0.587
		C335.368-45.538,335.701-44.58,335.71-43.544z M334.553-46.663c-0.299,0.196-0.647,0.368-1.035,0.511
		c-0.285-0.845-0.701-1.548-1.201-2.025C333.198-47.89,333.968-47.357,334.553-46.663z M331.009-48.403
		c0.893,0.139,1.662,1.063,2.099,2.388c-0.63,0.187-1.343,0.3-2.099,0.318V-48.403z M331.009-45.257
		c0.797-0.02,1.55-0.142,2.222-0.345c0.164,0.625,0.26,1.32,0.263,2.058h-2.485V-45.257z M331.009-43.104h2.476
		c-0.026,0.607-0.115,1.184-0.253,1.708c-0.672-0.203-1.425-0.325-2.223-0.345V-43.104z M331.009-41.302
		c0.757,0.019,1.469,0.132,2.1,0.318c-0.437,1.325-1.207,2.25-2.1,2.388V-41.302z M327.026-40.336
		c0.293-0.191,0.633-0.361,1.01-0.503c0.282,0.835,0.692,1.529,1.185,2.005C328.357-39.125,327.601-39.652,327.026-40.336z
		 M330.568-38.593c-0.902-0.124-1.682-1.05-2.124-2.384c0.637-0.19,1.358-0.307,2.124-0.325V-38.593z M330.568-41.741
		c-0.808,0.02-1.569,0.145-2.247,0.353c-0.139-0.527-0.228-1.105-0.255-1.716h2.501V-41.741z M330.568-43.544h-2.51
		c0.004-0.739,0.101-1.438,0.266-2.065c0.677,0.207,1.438,0.333,2.245,0.353V-43.544z M330.568-48.406v2.709
		c-0.765-0.019-1.486-0.135-2.123-0.325C328.888-47.355,329.667-48.282,330.568-48.406z M329.221-48.164
		c-0.493,0.475-0.902,1.17-1.185,2.004c-0.378-0.141-0.719-0.311-1.012-0.503C327.6-47.347,328.357-47.873,329.221-48.164z
		 M326.767-46.327c0.333,0.223,0.719,0.417,1.145,0.578c-0.184,0.672-0.289,1.417-0.293,2.205h-1.75
		C325.877-44.58,326.21-45.538,326.767-46.327z M327.627-43.104c0.028,0.659,0.128,1.283,0.284,1.855
		c-0.426,0.16-0.812,0.355-1.145,0.577c-0.493-0.699-0.811-1.53-0.883-2.433H327.627z"/>
</g>
<g>
</g>
<g>
</g>
<g>
</g>
<g>
</g>
<g>
</g>
<g>
</g>
<g>
</g>
<g>
</g>
<g>
</g>
<g>
</g>
<g>
</g>
<g>
</g>
<g>
</g>
<g>
</g>
<g>
</g>
</svg>
