<?xml version="1.0" encoding="iso-8859-1"?>
<!-- Generator: Adobe Illustrator 16.0.0, SVG Export Plug-In . SVG Version: 6.00 Build 0)  -->
<!DOCTYPE svg PUBLIC "-//W3C//DTD SVG 1.1//EN" "http://www.w3.org/Graphics/SVG/1.1/DTD/svg11.dtd">
<svg version="1.1" id="Layer_1" xmlns="http://www.w3.org/2000/svg" xmlns:xlink="http://www.w3.org/1999/xlink" x="0px" y="0px"
	 width="49.312px" height="47.213px" viewBox="0 0 49.312 47.213" style="enable-background:new 0 0 49.312 47.213;"
	 xml:space="preserve">
<g>
	<path d="M125.071,23.463c0-13.438-10.934-24.373-24.373-24.374h-0.001h0h0c-13.439,0-24.373,10.935-24.373,24.374
		c0,0.056,0.004,0.109,0.004,0.165c0,0.028-0.004,0.057-0.004,0.086c0,0.093,0.01,0.184,0.013,0.275
		c0.282,13.184,11.075,23.824,24.32,23.846c0.014,0,0.027,0.002,0.041,0.002c0.015,0,0.029-0.002,0.043-0.002
		c13.244-0.024,24.035-10.664,24.317-23.846c0.003-0.092,0.013-0.183,0.013-0.275c0-0.029-0.004-0.058-0.004-0.086
		C125.067,23.572,125.071,23.519,125.071,23.463z M122.403,18.039c-2.325-2.302-6.041-4.162-10.627-5.317
		c-1.134-4.684-2.997-8.488-5.315-10.876C114.286,3.934,120.435,10.166,122.403,18.039z M101.698,1.201
		c3.303,0.729,6.203,5.023,7.851,11.029c-2.44-0.467-5.079-0.744-7.851-0.798V1.201z M99.698,1.201v10.231
		c-2.772,0.054-5.41,0.331-7.851,0.797C93.495,6.224,96.395,1.931,99.698,1.201z M94.936,1.845
		c-2.319,2.388-4.182,6.192-5.316,10.877c-4.587,1.155-8.303,3.015-10.629,5.317C80.96,10.165,87.109,3.932,94.936,1.845z
		 M89.148,14.949c-0.455,2.492-0.71,5.188-0.738,8.015H78.393C78.946,19.616,83.158,16.654,89.148,14.949z M88.429,24.964
		c0.078,2.663,0.363,5.195,0.824,7.543c-5.744-1.615-9.874-4.383-10.75-7.543H88.429z M79.179,29.575
		c2.36,2.239,6.052,4.044,10.579,5.165c1.143,4.438,2.949,8.044,5.178,10.34C87.339,43.054,81.326,37.122,79.179,29.575z
		 M99.698,45.725c-3.205-0.707-6.029-4.771-7.7-10.498c2.398,0.449,4.985,0.715,7.7,0.768V45.725z M99.698,33.995
		c-2.92-0.063-5.713-0.398-8.264-0.95c-0.561-2.489-0.91-5.222-1.002-8.081l-0.021-2c0.032-3.022,0.356-5.918,0.912-8.559
		c2.58-0.566,5.413-0.91,8.375-0.974h2c2.962,0.063,5.795,0.408,8.375,0.974c0.556,2.641,0.88,5.536,0.912,8.559l-0.021,2
		c-0.092,2.858-0.441,5.592-1.002,8.081c-2.551,0.552-5.344,0.887-8.264,0.95H99.698z M101.698,45.725v-9.73
		c2.715-0.053,5.302-0.319,7.7-0.768C107.727,40.953,104.902,45.017,101.698,45.725z M106.46,45.079
		c2.229-2.296,4.035-5.902,5.178-10.339c4.526-1.122,8.218-2.926,10.577-5.165C120.068,37.121,114.056,43.053,106.46,45.079z
		 M112.143,32.507c0.46-2.348,0.746-4.881,0.824-7.543h9.925C122.016,28.123,117.887,30.892,112.143,32.507z M112.985,22.964
		c-0.027-2.826-0.283-5.521-0.738-8.015c5.99,1.705,10.201,4.667,10.755,8.015H112.985z"/>
	<polygon points="102.34,25.389 100.865,28.369 102.314,30.725 102.34,29.733 105.144,29.715 106.972,26.523 102.358,26.536 	"/>
	<path d="M101.435,26.411h-5.091l-0.06,0.006c-0.046,0.008-1.14,0.215-1.14,2.091c0,1.01,0.342,1.668,1.04,1.962
		c0.159,0.135,0.535,0.135,1.297,0.135c1.352,0,3.564-0.067,3.587-0.068l0.579-0.019l-1.229-2.192L101.435,26.411z M100.465,29.849
		c-0.75,0.019-2.068,0.051-2.983,0.051c-0.588,0-0.811-0.014-0.891-0.021c-0.029-0.016-0.062-0.03-0.098-0.044
		c-0.176-0.063-0.644-0.232-0.644-1.326c0-1.133,0.45-1.358,0.539-1.392h3.875l-0.646,1.219L100.465,29.849z"/>
	<polygon points="98.169,24.4 96.37,21.604 93.604,21.639 94.44,22.168 93.017,24.585 94.816,27.793 97.175,23.827 	"/>
	<path d="M97.756,23.099l2.615-4.369l0.026-0.054c0.017-0.044,0.401-1.087-1.209-2.052c-0.47-0.281-0.91-0.424-1.307-0.424
		c-0.488,0-0.794,0.214-0.949,0.338c-0.226,0.112-0.633,0.731-2.526,4.127l-0.282,0.508l2.512,0.073L97.756,23.099z M97.265,17.168
		c0.037-0.022,0.068-0.047,0.093-0.068c0.09-0.072,0.239-0.195,0.523-0.195c0.268,0,0.585,0.11,0.945,0.325
		c0.974,0.582,0.935,1.083,0.918,1.177l-1.991,3.324l-0.713-1.18l-1.735-0.048C96.069,19.143,97.022,17.488,97.265,17.168z"/>
	<polygon points="101.207,21.019 104.523,20.778 105.818,18.334 104.953,18.814 103.513,16.407 99.834,16.45 102.186,20.42 	"/>
	<path d="M102.547,21.279l2.583,4.388l0.034,0.049c0.032,0.038,0.335,0.376,0.968,0.376c0.425,0,0.901-0.152,1.412-0.455
		c0.891-0.523,1.28-1.168,1.156-1.941c0.02-0.18-0.147-0.604-2.413-4.191l-0.31-0.49l-1.268,2.17L102.547,21.279z M106.001,20.372
		c0.832,1.327,1.833,2.968,1.99,3.322c0.001,0.033,0.004,0.069,0.012,0.108c0.035,0.184,0.126,0.672-0.817,1.228
		c-0.402,0.236-0.757,0.356-1.055,0.356c-0.249,0-0.381-0.088-0.418-0.116l-1.965-3.339l1.376-0.06L106.001,20.372z"/>
</g>
<g>
</g>
<g>
</g>
<g>
</g>
<g>
</g>
<g>
</g>
<g>
</g>
<g>
</g>
<g>
</g>
<g>
</g>
<g>
</g>
<g>
</g>
<g>
</g>
<g>
</g>
<g>
</g>
<g>
</g>
</svg>
