<?xml version="1.0" encoding="iso-8859-1"?>
<!-- Generator: Adobe Illustrator 16.0.0, SVG Export Plug-In . SVG Version: 6.00 Build 0)  -->
<!DOCTYPE svg PUBLIC "-//W3C//DTD SVG 1.1//EN" "http://www.w3.org/Graphics/SVG/1.1/DTD/svg11.dtd">
<svg version="1.1" id="Layer_1" xmlns="http://www.w3.org/2000/svg" xmlns:xlink="http://www.w3.org/1999/xlink" x="0px" y="0px"
	 width="43.736px" height="43.736px" viewBox="0 0 43.736 43.736" style="enable-background:new 0 0 43.736 43.736;"
	 xml:space="preserve">
<g>
	<path d="M15.398-360.937c-3.93,1.324-7.369,3.716-9.984,6.823c1.334,0.873,2.881,1.646,4.6,2.288
		C11.296-355.617,13.157-358.775,15.398-360.937z"/>
	<path d="M9.444-349.959c-1.938-0.729-3.689-1.614-5.204-2.627c-2.529,3.588-4.043,7.942-4.086,12.648h7.957
		C8.128-343.516,8.608-346.905,9.444-349.959z"/>
	<path d="M5.419-325.354c2.615,3.105,6.049,5.501,9.979,6.825c-2.241-2.161-4.104-5.318-5.387-9.11
		C8.296-326.997,6.752-326.227,5.419-325.354z"/>
	<path d="M36.818-339.938h8.072c-0.043-4.706-1.557-9.059-4.086-12.646c-1.542,1.029-3.329,1.928-5.309,2.664
		C36.325-346.876,36.8-343.5,36.818-339.938z"/>
	<path d="M8.15-337.938H0.227c0.327,4.097,1.771,7.879,4.013,11.059c1.514-1.012,3.266-1.896,5.203-2.625
		C8.733-332.103,8.279-334.943,8.15-337.938z"/>
	<path d="M35.495-329.545c1.981,0.736,3.77,1.637,5.312,2.668c2.243-3.181,3.685-6.964,4.012-11.061h-8.041
		C36.649-334.959,36.199-332.133,35.495-329.545z"/>
	<path d="M29.468-318.468c4.004-1.312,7.502-3.732,10.157-6.886c-1.358-0.89-2.938-1.673-4.695-2.322
		C33.636-323.831,31.744-320.638,29.468-318.468z"/>
	<path d="M39.629-354.113c-2.655-3.153-6.157-5.572-10.161-6.884c2.275,2.169,4.164,5.366,5.459,9.21
		C36.687-352.438,38.269-353.222,39.629-354.113z"/>
	<circle cx="22.007" cy="-340.695" r="4.05"/>
	<path d="M28.071-331.359c1.948,0.269,3.817,0.66,5.556,1.187c0.626-2.388,1.028-5.005,1.149-7.765h-2.094
		C32.018-335.279,30.389-332.895,28.071-331.359z"/>
	<path d="M33.619-349.289c-1.227,0.371-2.528,0.665-3.864,0.911c1.873,1.853,3.094,4.367,3.256,7.183
		c0.024,0.422,0.012,0.841-0.013,1.258h1.82C34.8-343.283,34.366-346.445,33.619-349.289z"/>
	<path d="M33.064-351.17c-1.987-6.018-5.482-10.223-9.542-10.85v10.558c1.463,0.203,2.835,0.692,4.061,1.414
		C29.513-350.296,31.36-350.665,33.064-351.17z"/>
	<path d="M16.608-350.151c1.419-0.803,3.031-1.312,4.767-1.412c0.049-0.003,0.098-0.002,0.147-0.004v-10.468
		c-4.102,0.563-7.64,4.777-9.648,10.836C13.358-350.754,14.946-350.403,16.608-350.151z"/>
	<path d="M11.318-349.322c-0.752,2.853-1.19,6.025-1.207,9.385h0.892c-0.189-3.358,1.157-6.452,3.424-8.607
		C13.358-348.768,12.312-349.018,11.318-349.322z"/>
	<path d="M11.308-330.14c1.523-0.467,3.141-0.84,4.83-1.11c-2.423-1.525-4.139-3.919-4.815-6.688h-1.171
		C10.273-335.166,10.677-332.537,11.308-330.14z"/>
	<path d="M20.168-326.62c-0.133-0.196-1.04-1.513-2.119-2.867c-2.188,0.246-4.273,0.652-6.18,1.225
		c2.008,6.06,5.551,10.27,9.653,10.832v-7.188l-0.376-0.556L20.168-326.62z"/>
	<path d="M23.522-327.59l0.127-0.229c0.01-0.017,0.462-0.829,1.055-1.856l0,0c0.584-1.012,1.305-2.23,1.875-3.104
		c2.895-1.705,4.628-4.934,4.434-8.3c-0.285-4.941-4.522-8.763-9.529-8.486c-4.966,0.288-8.773,4.562-8.486,9.528
		c0.195,3.355,2.192,6.276,5.233,7.676c0.773,0.841,1.56,1.836,2.2,2.688c0.102,0.135,0.199,0.266,0.293,0.393
		c0.034,0.046,0.067,0.091,0.1,0.136c0.062,0.084,0.122,0.166,0.179,0.244c0.031,0.043,0.062,0.086,0.092,0.127
		c0.067,0.094,0.131,0.183,0.19,0.266c0.01,0.014,0.021,0.029,0.031,0.043c0.075,0.106,0.145,0.204,0.205,0.29l0,0
		c0.188,0.267,0.299,0.43,0.303,0.437l0.978,1.445L23.522-327.59L23.522-327.59z M22.611-330.339
		c-0.764-1.045-1.871-2.484-2.961-3.646l-0.153-0.164l-0.205-0.088c-2.41-1.035-4-3.307-4.152-5.924
		c-0.219-3.787,2.683-7.046,6.469-7.265c0.135-0.008,0.271-0.012,0.405-0.012c3.637,0,6.649,2.847,6.859,6.481
		c0.152,2.637-1.246,5.16-3.562,6.432l-0.229,0.126l-0.146,0.218C24.233-333.13,23.285-331.515,22.611-330.339z"/>
	<path d="M26.916-329.497c-0.523,0.89-1.063,1.836-1.518,2.648l-0.847,1.524l-1.029,1.854v6.024c4.06-0.627,7.56-4.827,9.547-10.847
		C31.168-328.856,29.093-329.256,26.916-329.497z"/>
</g>
<g>
</g>
<g>
</g>
<g>
</g>
<g>
</g>
<g>
</g>
<g>
</g>
<g>
</g>
<g>
</g>
<g>
</g>
<g>
</g>
<g>
</g>
<g>
</g>
<g>
</g>
<g>
</g>
<g>
</g>
</svg>
