<?xml version="1.0" encoding="iso-8859-1"?>
<!-- Generator: Adobe Illustrator 16.0.0, SVG Export Plug-In . SVG Version: 6.00 Build 0)  -->
<!DOCTYPE svg PUBLIC "-//W3C//DTD SVG 1.1//EN" "http://www.w3.org/Graphics/SVG/1.1/DTD/svg11.dtd">
<svg version="1.1" id="Layer_1" xmlns="http://www.w3.org/2000/svg" xmlns:xlink="http://www.w3.org/1999/xlink" x="0px" y="0px"
	 width="44.867px" height="40.873px" viewBox="0 0 44.867 40.873" style="enable-background:new 0 0 44.867 40.873;"
	 xml:space="preserve">
<path d="M28.163,24.926c0,0,4.293,1.58,4.727,1.611c0.436,0.031,1.558,0.414,1.881-0.921c0.323-1.336-0.516-1.777-0.983-1.97
	c-0.468-0.191-3.976-1.635-3.976-1.635s1.265-6.982,0.92-7.866c-0.346-0.884-1.383-1.085-1.383-1.085l-2.758,7.812l-4.281-1.108
	L21.87,17.14l-1.396-0.894c-0.001,0,0.082,2.162-0.124,3.328c-0.039,0.22-0.089,0.405-0.151,0.533
	c-0.392,0.806-2.178,2.482-2.178,2.482l1.223,0.904l2.498-1.905l3.738,1.799l-3.074,7.664c0,0,1.008,0.905,1.766,0.321
	C24.93,30.789,28.163,24.926,28.163,24.926z"/>
<path d="M34.177,26.484c0.255-0.131,0.477-0.386,0.594-0.868c0.172-0.712,0.012-1.166-0.245-1.467
	C34.437,24.947,34.319,25.726,34.177,26.484z"/>
<path d="M21.741,21.589l0.731,0.352h1.12v0.539l1.676,0.807v-1.346h4.555c0.035-0.195,0.148-0.835,0.287-1.677h-3.305l-0.215,0.607
	l-2.998-0.776v0.169h-3.489c-0.294,0.486-0.925,1.171-1.423,1.677h2.6L21.741,21.589z"/>
<path d="M25.269,23.913l-1.972,4.917c0.1-0.003,0.195-0.014,0.296-0.017v2.756c0.195,0,0.395-0.054,0.578-0.196
	c0.213-0.164,0.623-0.749,1.098-1.496v-1.064c0.216,0.005,0.423,0.026,0.637,0.036c0.324-0.537,0.651-1.095,0.955-1.622
	c-0.526-0.037-1.053-0.077-1.592-0.09V23.913z"/>
<path d="M29.349,13.06l-0.119,0.339c0.24-0.035,0.48-0.067,0.717-0.106C29.63,13.117,29.349,13.06,29.349,13.06z"/>
<path d="M18.307,20.087C11.5,17.726-1.19,12.924,0.09,7.604C0.636,5.332,1.834,4.504,2.743,4.21c2.229-0.726,4.496,1.14,5.416,1.705
	L6.214,8.198c-1.17-0.771-2.125-1.272-2.548-1.134C3.477,7.126,3.204,7.485,3.007,8.305c-0.398,1.658,6.664,5.734,16.105,8.987
	c0,0,0.164,1.281-0.087,1.673S18.307,20.087,18.307,20.087z"/>
<g>
	<path d="M41.112,8.653c-0.311-0.439-0.637-0.868-0.98-1.281C36.38,2.871,30.735,0,24.431,0c-0.011,0-0.02,0.001-0.03,0.001
		C24.394,0.001,24.388,0,24.382,0c-0.023,0-0.046,0.003-0.07,0.003c-6.256,0.036-11.852,2.898-15.58,7.37
		c-0.344,0.413-0.67,0.841-0.98,1.28C7.515,8.987,7.295,9.334,7.078,9.682c0.427,0.27,0.91,0.557,1.449,0.859
		c0.186-0.297,0.372-0.595,0.574-0.881c1.271,0.849,2.739,1.59,4.364,2.202c-0.09,0.325-0.158,0.667-0.238,1
		c0.497,0.217,1.02,0.435,1.553,0.652c0.084-0.375,0.16-0.754,0.256-1.117c2.581,0.791,5.481,1.266,8.557,1.34v2.131l0.104,0.066
		l0.146,0.876l0.225,1.342l1.201,0.311v-4.727c0.595-0.014,1.176-0.056,1.756-0.099l0.439-1.244l0.169-0.48
		c-0.774,0.074-1.56,0.128-2.364,0.147V1.75c3.404,0.526,6.335,4.051,8.001,9.097c-0.806,0.239-1.659,0.433-2.53,0.605
		c0.57,0.286,1.135,0.729,1.537,1.356c0.492-0.122,0.986-0.242,1.459-0.385c0.626,2.384,0.99,5.035,1.005,7.84h-2.598
		c-0.028,0.17-0.054,0.33-0.083,0.509c1.017,0.418,2.227,0.916,2.49,1.024c0.777,0.321,1.357,0.803,1.745,1.392
		c0.033-0.414,0.069-0.826,0.088-1.248h6.742c-0.274,3.435-1.483,6.607-3.364,9.273c-1.293-0.864-2.791-1.619-4.453-2.237
		c0.091-0.332,0.166-0.676,0.246-1.017c-0.532,0.417-1.199,0.65-1.953,0.65c-0.33,0-0.609-0.042-0.795-0.069l-0.057-0.01
		c-0.24-0.017-0.59-0.044-3.377-1.04c-0.108-0.016-0.221-0.026-0.329-0.041c-0.33,0.583-0.632,1.106-0.904,1.569
		c1.816,0.203,3.548,0.536,5.136,1.006c-1.667,5.047-4.602,8.57-8.006,9.096v-6.086c-0.493,0.343-1.068,0.532-1.676,0.533v5.566
		c-3.439-0.472-6.41-4.002-8.094-9.083c1.715-0.516,3.599-0.878,5.584-1.076l0.696-1.737c-2.403,0.185-4.683,0.604-6.751,1.239
		c-0.529-2.009-0.867-4.214-0.971-6.538h1.73l0.44-0.413c-1.368-0.468-2.659-0.939-3.875-1.414c-0.001,0.05-0.005,0.099-0.005,0.149
		H5.677c0.009-1.039,0.109-2.056,0.283-3.048c-0.539-0.29-1.052-0.58-1.536-0.872c-0.271,1.324-0.429,2.689-0.429,4.093
		c0,4.387,1.395,8.451,3.756,11.784c0.311,0.439,0.637,0.868,0.98,1.28c3.729,4.472,9.324,7.334,15.58,7.37
		c0.024,0,0.047,0.003,0.07,0.003c0.006,0,0.012-0.001,0.019-0.001c0.011,0,0.02,0.001,0.03,0.001
		c6.305,0,11.949-2.871,15.701-7.371c0.344-0.413,0.67-0.842,0.98-1.281c2.361-3.333,3.755-7.397,3.755-11.784
		C44.867,16.05,43.474,11.986,41.112,8.653z M13.942,10.297c-1.441-0.538-2.738-1.186-3.856-1.919
		c2.192-2.604,5.077-4.61,8.372-5.72C16.579,4.469,15.019,7.118,13.942,10.297z M23.593,12.061c-2.918-0.071-5.665-0.511-8.09-1.239
		c1.684-5.08,4.65-8.613,8.09-9.085V12.061z M5.737,21.941h6.643c0.109,2.51,0.489,4.893,1.085,7.071
		c-1.625,0.611-3.094,1.354-4.363,2.202C7.222,28.547,6.012,25.376,5.737,21.941z M10.091,32.492
		c1.117-0.731,2.412-1.378,3.85-1.916c1.076,3.18,2.639,5.827,4.518,7.638C15.163,37.105,12.284,35.096,10.091,32.492z
		 M30.255,38.266c1.908-1.819,3.494-4.497,4.58-7.72c1.473,0.544,2.797,1.201,3.937,1.947
		C36.546,35.136,33.612,37.167,30.255,38.266z M30.255,2.607c3.357,1.1,6.293,3.128,8.52,5.772
		c-1.141,0.747-2.467,1.405-3.942,1.949C33.747,7.106,32.163,4.426,30.255,2.607z M36.417,20.264
		c-0.014-2.986-0.413-5.817-1.108-8.369c1.659-0.617,3.158-1.371,4.451-2.234c2.12,3.008,3.39,6.658,3.426,10.604H36.417z"/>
</g>
<g>
</g>
<g>
</g>
<g>
</g>
<g>
</g>
<g>
</g>
<g>
</g>
<g>
</g>
<g>
</g>
<g>
</g>
<g>
</g>
<g>
</g>
<g>
</g>
<g>
</g>
<g>
</g>
<g>
</g>
</svg>
