<?xml version="1.0" encoding="iso-8859-1"?>
<!-- Generator: Adobe Illustrator 16.0.0, SVG Export Plug-In . SVG Version: 6.00 Build 0)  -->
<!DOCTYPE svg PUBLIC "-//W3C//DTD SVG 1.1//EN" "http://www.w3.org/Graphics/SVG/1.1/DTD/svg11.dtd">
<svg version="1.1" id="Layer_1" xmlns="http://www.w3.org/2000/svg" xmlns:xlink="http://www.w3.org/1999/xlink" x="0px" y="0px"
	 width="44.901px" height="49.765px" viewBox="0 0 44.901 49.765" style="enable-background:new 0 0 44.901 49.765;"
	 xml:space="preserve">
<g>
	<path d="M40.646,23.938c0.005-0.286,0.06-0.533,0.167-0.741s0.252-0.382,0.437-0.52c0.185-0.135,0.397-0.235,0.638-0.302
		c0.24-0.067,0.497-0.101,0.77-0.101c0.351,0,0.646,0.045,0.883,0.135c0.238,0.091,0.43,0.2,0.575,0.329
		c0.146,0.13,0.25,0.267,0.312,0.409c0.063,0.144,0.094,0.266,0.094,0.367c0,0.254-0.034,0.449-0.101,0.586
		c-0.067,0.137-0.14,0.236-0.218,0.302c-0.079,0.064-0.151,0.104-0.218,0.117c-0.067,0.014-0.101,0.023-0.101,0.028v0.014
		c0,0.009,0.02,0.019,0.059,0.027c0.04,0.01,0.088,0.027,0.146,0.052c0.058,0.026,0.122,0.061,0.191,0.104s0.133,0.106,0.19,0.188
		c0.058,0.08,0.106,0.182,0.146,0.305c0.039,0.122,0.059,0.273,0.059,0.454c0,0.147-0.031,0.31-0.094,0.484
		c-0.063,0.176-0.171,0.34-0.326,0.492s-0.363,0.281-0.624,0.385c-0.261,0.104-0.588,0.156-0.981,0.156
		c-0.36,0-0.665-0.038-0.915-0.114s-0.454-0.175-0.613-0.295c-0.16-0.12-0.282-0.253-0.368-0.398s-0.147-0.289-0.187-0.43
		c-0.039-0.141-0.06-0.27-0.063-0.385c-0.002-0.115-0.001-0.203,0.004-0.264h1.316c-0.009,0.259,0.053,0.451,0.188,0.575
		c0.064,0.079,0.146,0.135,0.246,0.167c0.1,0.032,0.209,0.048,0.33,0.048c0.198,0,0.355-0.04,0.471-0.121
		c0.115-0.08,0.173-0.221,0.173-0.419c0-0.106-0.019-0.191-0.056-0.257c-0.037-0.064-0.085-0.115-0.146-0.152
		s-0.129-0.061-0.208-0.072s-0.157-0.018-0.235-0.018c-0.102,0-0.182,0.004-0.239,0.011c-0.058,0.007-0.112,0.015-0.163,0.023
		v-0.942c0.051,0.005,0.107,0.011,0.17,0.018s0.14,0.011,0.232,0.011c0.074,0,0.149-0.005,0.225-0.014
		c0.076-0.01,0.146-0.03,0.211-0.063c0.064-0.032,0.118-0.078,0.159-0.136s0.063-0.133,0.063-0.225c0-0.074-0.02-0.139-0.059-0.194
		c-0.039-0.056-0.089-0.1-0.149-0.132s-0.128-0.057-0.205-0.072c-0.076-0.017-0.149-0.024-0.218-0.024
		c-0.092,0-0.18,0.013-0.263,0.038s-0.155,0.063-0.215,0.114s-0.107,0.113-0.142,0.187c-0.035,0.074-0.05,0.162-0.045,0.264H40.646z
		"/>
</g>
<g>
	<path d="M28.857,3.7h-2.183V3.693c0.226-0.139,0.464-0.272,0.713-0.401c0.25-0.13,0.479-0.274,0.686-0.433
		c0.208-0.16,0.379-0.347,0.513-0.559c0.134-0.213,0.201-0.474,0.201-0.783c0-0.254-0.047-0.478-0.142-0.669
		s-0.229-0.35-0.402-0.475c-0.174-0.125-0.381-0.219-0.624-0.281C27.378,0.031,27.111,0,26.82,0c-0.324,0-0.616,0.047-0.877,0.139
		c-0.261,0.093-0.481,0.228-0.662,0.404c-0.18,0.178-0.314,0.396-0.402,0.656c-0.088,0.258-0.123,0.554-0.104,0.887h1.303
		c-0.009-0.295,0.041-0.535,0.149-0.718c0.108-0.182,0.301-0.273,0.579-0.273c0.162,0,0.299,0.043,0.413,0.128
		c0.113,0.086,0.169,0.239,0.169,0.462c0,0.087-0.021,0.166-0.065,0.234c-0.044,0.069-0.1,0.132-0.167,0.188
		s-0.139,0.106-0.215,0.152s-0.144,0.088-0.204,0.125c-0.153,0.093-0.31,0.187-0.471,0.28c-0.162,0.096-0.318,0.195-0.468,0.299
		c-0.15,0.104-0.291,0.215-0.422,0.336c-0.132,0.12-0.249,0.249-0.35,0.388c-0.12,0.161-0.212,0.343-0.274,0.54
		c-0.063,0.199-0.087,0.416-0.073,0.652h4.179V3.7z"/>
	<path d="M25.697,45.828c0.162,0,0.286,0.028,0.375,0.084c0.101,0.073,0.168,0.161,0.2,0.263h1.269
		c-0.079-0.476-0.27-0.819-0.575-1.028c-0.305-0.211-0.718-0.315-1.24-0.315c-0.265,0-0.496,0.045-0.711,0.112v1.371
		c0.029-0.058,0.05-0.12,0.087-0.171c0.069-0.095,0.152-0.171,0.249-0.228C25.447,45.857,25.563,45.828,25.697,45.828z"/>
	<path d="M27.131,46.861c-0.143-0.135-0.314-0.237-0.513-0.309s-0.413-0.107-0.644-0.107c-0.222,0-0.423,0.025-0.603,0.076
		c-0.124,0.035-0.242,0.102-0.357,0.182v1.025c0.031-0.064,0.068-0.125,0.122-0.178c0.125-0.122,0.282-0.184,0.471-0.184
		c0.217,0,0.389,0.063,0.516,0.19c0.127,0.127,0.191,0.276,0.191,0.447c0,0.185-0.066,0.341-0.198,0.471
		c-0.132,0.13-0.302,0.194-0.51,0.194c-0.194,0-0.353-0.063-0.475-0.188c-0.052-0.053-0.088-0.116-0.118-0.183v1.39
		c0.181,0.045,0.375,0.075,0.593,0.075c0.287,0,0.551-0.037,0.794-0.11c0.242-0.074,0.451-0.187,0.627-0.336
		c0.175-0.15,0.313-0.337,0.412-0.559c0.1-0.221,0.149-0.48,0.149-0.776c0-0.235-0.04-0.447-0.121-0.637
		S27.274,46.995,27.131,46.861z"/>
	<path d="M22.106,14.5h-0.633v0.325h0.151c0,0,0.009,0.07,0.022,0.161l0.387-0.032l0.243-0.149l0.063-0.305l0.314-0.027l0.123-0.256
		l-0.287-0.06l-0.252,0.005L22.106,14.5z"/>
	<polygon points="20.581,15.075 21.041,15.037 21.087,14.717 20.811,14.5 20.605,14.756 	"/>
	<path d="M24.23,36.257V29.05l-1.101-0.42l-0.073-1.1l-0.515-0.9l-1.394-0.02l-0.808-1.266l-0.716-0.349l-0.037,0.386l-1.303,0.077
		l-0.478-0.665l-1.358-0.275l-1.12,1.294l-1.763-0.299l-0.127-1.986l-1.286-0.22l0.514-0.974l-0.147-0.561l-1.69,1.13l-1.063-0.129
		l-0.379-0.831l0.232-0.856l0.586-1.08l1.35-0.684l2.606-0.001l-0.007,0.795l0.936,0.436l-0.075-1.357l0.675-0.68l1.362-0.894
		l0.093-0.631l1.358-1.413l1.445-0.799l-0.128-0.105l0.979-0.92l0.359,0.094l0.164,0.206l0.372-0.411l0.091-0.041l-0.408-0.056
		l-0.412-0.138v-0.4l0.218-0.178h0.483l0.221,0.097l0.191,0.385l0.234-0.035v-0.034l0.068,0.023l0.677-0.105l0.096-0.33l0.386,0.097
		v0.357l-0.359,0.248h0.001l0.052,0.393l0.999,0.308V13.52l-0.44-0.2l-0.055-0.255l0.495-0.169v-1.091l-0.495-0.301L23.68,10.2
		l-1.156,0.568H22.1l0.111-0.991l-1.575-0.372l-0.65,0.492v1.502l-1.171,0.37l-0.469,0.978l-0.508,0.083v-1.252l-1.101-0.152
		l-0.55-0.359l-0.221-0.811l1.969-1.152l0.964-0.294l0.097,0.648l0.537-0.029l0.042-0.325l0.561-0.081l0.01-0.113l-0.241-0.1
		l-0.055-0.344l0.69-0.058l0.417-0.434l0.022-0.032l0.006,0.002l0.128-0.13l1.45-0.184l0.641,0.545L21.52,9.071l2.14,0.504
		l0.277-0.715h0.293V7.145l-1.761-0.781l-1.432,0.165l-0.808,0.423l0.055,1.027l-0.844-0.128l-0.13-0.568l0.809-0.734l-1.469-0.074
		l-0.422,0.128l-0.183,0.496l0.55,0.093l-0.11,0.55l-0.936,0.056l-0.147,0.366l-1.357,0.037c0,0-0.037-0.77-0.093-0.77
		c-0.054,0,1.064-0.02,1.064-0.02l0.809-0.789L17.383,6.4L16.796,6.97l-0.975-0.055l-0.586-0.809h-1.249l-1.303,0.973h1.195
		l0.108,0.351l-0.311,0.293l1.321,0.036l0.202,0.477l-1.488-0.054l-0.073-0.367l-0.936-0.202l-0.496-0.276l-1.114,0.01
		c3.647-2.656,8.131-4.23,12.978-4.23c0.054,0,0.106,0.007,0.159,0.008v-1.98c-0.053,0-0.105-0.008-0.159-0.008
		c-6.281,0-12.006,2.421-16.297,6.377c-0.999,0.921-1.918,1.928-2.751,3.005C1.877,14.584,0,19.68,0,25.206
		c0,13.272,10.799,24.07,24.071,24.07c0.054,0,0.106-0.006,0.159-0.006v-1.979c-0.053,0.001-0.105,0.005-0.159,0.005
		c-12.181,0-22.091-9.909-22.091-22.09c0-3.066,0.63-5.989,1.764-8.646v-0.688l0.791-0.96c0.273-0.518,0.568-1.021,0.882-1.514
		l0.035,0.4l-0.917,1.113c-0.284,0.538-0.55,1.086-0.791,1.648v1.258l0.918,0.441v1.747l0.88,1.502l0.716,0.11l0.092-0.515
		l-0.844-1.304l-0.166-1.267h0.496l0.21,1.304l1.22,1.781l-0.315,0.575l0.775,1.186l1.928,0.478v-0.311l0.771,0.109l-0.072,0.55
		l0.605,0.112l0.936,0.255l1.323,1.507l1.688,0.127l0.165,1.377l-1.156,0.809l-0.054,1.229l-0.166,0.753l1.671,2.093l0.128,0.716
		c0,0,0.605,0.164,0.679,0.164c0.074,0,1.359,0.974,1.359,0.974v3.782l0.458,0.129l-0.313,1.743l0.771,1.028l-0.142,1.729
		l1.019,1.791l1.308,1.142l1.315,0.025l0.128-0.423l-0.965-0.813l0.055-0.403l0.173-0.496l0.037-0.505l-0.652-0.018l-0.33-0.415
		l0.543-0.522l0.073-0.395l-0.606-0.174l0.037-0.366l0.863-0.131l1.313-0.631l0.441-0.808l1.174-1.505l0.202-0.258l-0.202-0.889
		V36.257z M16.64,15.667l-0.316,0.315h-0.703l0.11-0.48l0.332-0.028l0.068-0.165l0.509-0.071V15.667z M16.806,14.799l-0.332,0.213
		l-0.412,0.077c0,0,0-0.661,0-0.73h0.743V14.799z M17.431,14.29l0.337,0.21l-0.27,0.223L17.231,14.5L17.431,14.29z M16.984,14.84
		h0.056l0.839,0.249v0.427h-0.702l-0.193-0.278V14.84z M16.433,13.656l0.455,0.413l-0.455,0.11V13.656z M14.505,13.726l0.634-0.264
		h0.869v0.264h0.191v0.454h-1.321l-0.496-0.139L14.505,13.726z M14.382,14.908l0.51-0.55h0.729l-0.936,1.309l-0.386-0.208
		L14.382,14.908z M13.708,11.797l0.522,0.124l-0.18,0.702l-0.564,0.18l-0.356-0.73L13.708,11.797z M11.091,8.466V8.425h0.482
		l0.042-0.166h0.79v0.344l-0.227,0.304h-1.087V8.466z M11.861,9.539c0,0,0.483-0.081,0.524-0.081c0.042,0,0,0.481,0,0.481
		l-1.087,0.067L11.091,9.76L11.861,9.539z"/>
	<path d="M25.801,24.774c-0.073-0.251-0.196-0.479-0.36-0.674L38.698,9.442L37.781,8.61l-13.43,14.852
		c-0.108-0.02-0.217-0.033-0.331-0.033c-1.029,0-1.863,0.834-1.863,1.863c0,1.028,0.834,1.862,1.863,1.862
		c0.773,0,1.437-0.472,1.718-1.143l11.46,0.031l-0.011-1.237L25.801,24.774z"/>
</g>
<g>
</g>
<g>
</g>
<g>
</g>
<g>
</g>
<g>
</g>
<g>
</g>
<g>
</g>
<g>
</g>
<g>
</g>
<g>
</g>
<g>
</g>
<g>
</g>
<g>
</g>
<g>
</g>
<g>
</g>
</svg>
