<?xml version="1.0" encoding="iso-8859-1"?>
<!-- Generator: Adobe Illustrator 16.0.0, SVG Export Plug-In . SVG Version: 6.00 Build 0)  -->
<!DOCTYPE svg PUBLIC "-//W3C//DTD SVG 1.1//EN" "http://www.w3.org/Graphics/SVG/1.1/DTD/svg11.dtd">
<svg version="1.1" id="Layer_1" xmlns="http://www.w3.org/2000/svg" xmlns:xlink="http://www.w3.org/1999/xlink" x="0px" y="0px"
	 width="47.365px" height="50.572px" viewBox="0 0 47.365 50.572" style="enable-background:new 0 0 47.365 50.572;"
	 xml:space="preserve">
<g>
	<path d="M-137.757,17.011l-2.052,2.627l1.357,1.06l1.535-1.965h9.712l1.41,2.714l1.528-0.794l-1.205-2.32l3.345-3.764l-1.287-1.144
		l-3.188,3.586h-4.904l-0.068-6.928c0.145,0.092,0.315,0.145,0.5,0.143c0.373-0.004,0.69-0.229,0.833-0.548
		c0.15,0.316,0.472,0.535,0.844,0.532c0.353-0.005,0.654-0.207,0.807-0.499c0.136,0.351,0.474,0.6,0.872,0.596
		c0.373-0.004,0.69-0.229,0.834-0.548c0.149,0.316,0.471,0.535,0.843,0.532c0.512-0.006,0.922-0.426,0.917-0.937
		c0-0.039-0.008-0.076-0.012-0.114c0.003,0,0.007,0,0.01,0c-0.022-2.243-3.17-4.644-6.931-4.606c-3.761,0.036-6.71,2.496-6.688,4.74
		c0.011,0,0.022,0,0.034-0.001c0.061,0.457,0.45,0.809,0.922,0.805c0.373-0.004,0.69-0.229,0.834-0.548
		c0.15,0.316,0.472,0.535,0.844,0.531c0.353-0.004,0.654-0.206,0.808-0.498c0.134,0.351,0.473,0.599,0.871,0.595
		c0.373-0.003,0.69-0.227,0.834-0.547c0.15,0.316,0.472,0.534,0.844,0.531c0.183-0.002,0.351-0.058,0.493-0.15l0.068,6.919H-137.757
		z"/>
	<path d="M-118.778,27.882l0.516,0.857c0.027-0.017,2.763-1.633,4.83-0.559c1.313,0.684,2.568,0.893,3.614,0.893
		c1.596,0,2.703-0.487,2.778-0.521l-0.412-0.912c-0.025,0.013-2.63,1.157-5.519-0.347C-115.53,25.964-118.646,27.804-118.778,27.882
		z"/>
	<path d="M-109.447,40.751c-1.716,1.157-4.558,0.577-4.585,0.572l-0.207,0.979c0.064,0.014,0.842,0.173,1.863,0.173
		c1.077,0,2.425-0.178,3.488-0.894c1.477-0.997,2.65,0.384,2.778,0.543l0.783-0.621C-105.955,40.707-107.625,39.529-109.447,40.751z
		"/>
	<path d="M-113.844,45.863l0.5,0.865c2.296-1.326,3.346-0.161,3.385-0.115l0.773-0.635
		C-109.249,45.902-110.778,44.095-113.844,45.863z"/>
	<path d="M-111.476,36.894l-0.215,0.977c0.246,0.054,0.464,0.077,0.66,0.077c0.586,0,0.976-0.202,1.305-0.373
		c0.525-0.272,0.94-0.488,2.4,0.242l0.447-0.895c-1.774-0.887-2.519-0.644-3.308-0.235
		C-110.572,36.886-110.851,37.032-111.476,36.894z"/>
	<path d="M-107.099,29.838c0.054-1.991-3.498,4.366-3.498,4.366h4.877C-105.719,34.204-107.152,31.829-107.099,29.838z"/>
	<path d="M-113.246,33.916c-0.492-2.425-2.271-3.919-4.654-3.919c-0.027,0-0.055,0-0.083,0l0.058,4
		c0.359-0.011,0.612-0.008,0.758,0.713c0.512,2.526-2.088,8.81-7.693,11.085c-6.864,2.762-11.919,1.575-14.953,0.094
		c-2.694-1.315-4.45-3.17-5.442-4.875l2.696-0.297c0,0-5.419-7.061-5.654-8.725c-0.234-1.663-4.268,9.818-4.268,9.818l2.997-0.33
		c1.34,3.26,4.211,6.193,7.916,8.003c2.667,1.302,5.621,1.953,8.714,1.953c3.076,0,6.29-0.645,9.493-1.933
		C-116.453,46.699-112.251,38.821-113.246,33.916z"/>
	<path d="M-150.391,9.717c-1.881,1.297-1.784,4.331-1.173,4.677c0.535,0.302,3.032-0.704,4.148-1.972l0.656,1.37l-0.496,0.158
		l0.796,1.665l-0.418,0.134l0.926,1.938l-0.401,0.128l1.017,2.128l-0.307,0.098l1.104,2.31l-0.58,0.185l1.282,2.685l-0.259,0.083
		l0.99,2.072c-0.729,1.585-1.148,3.342-1.148,5.198c0,6.893,5.607,12.5,12.5,12.5c6.893,0,12.5-5.607,12.5-12.5
		c0-1.779-0.379-3.471-1.053-5.005l1.149-1.522l-0.558-0.285l1.245-1.65l-0.381-0.192l1.071-1.42l-0.369-0.188l0.987-1.311
		l-0.263-0.134l0.898-1.19l-0.274-0.139l0.772-1.026l-0.131-0.065l0.18-0.238c0.263,1.156,1.067,2.098,1.482,2.137
		c0.551,0.049,1.747-2.024,0.856-3.46c0.774,0.674,1.829,1.459,2.043,0.959c0.187-0.433-0.102-1.582-0.714-2.312
		c0.693-0.303,1.074-0.684,0.525-1.131c-0.607-0.498-1.354-0.257-2.022,0.197c0.348-0.734,0.419-1.559-0.356-2.223
		c-0.655-0.563-0.993-0.219-1.156,0.462c-0.897-0.363-2.008-0.461-2.364-0.397c-0.556,0.098-0.288,0.877,0.818,1.784
		c-1.59-0.294-3.09,1.207-2.965,1.67c0.11,0.404,1.857,1.137,3.054,1.071l-0.375,0.976l-0.326-0.165l-0.457,1.185l-0.274-0.139
		l-0.53,1.377l-0.265-0.135l-0.583,1.516l-0.201-0.103l-0.634,1.644l-0.38-0.194l-0.735,1.909l-0.172-0.086l-0.101,0.263
		c-1.202-1.575-2.766-2.86-4.57-3.723c-0.024-0.026-0.043-0.048-0.051-0.055l-0.022,0.021c-1.61-0.757-3.406-1.183-5.3-1.183
		c-0.278,0-0.553,0.013-0.826,0.03l0-0.001l0,0.001c-3.369,0.222-6.369,1.789-8.488,4.161l-0.496-2.862l-0.579,0.186l-0.438-2.522
		l-0.563,0.179l-0.403-2.324l-0.4,0.128l-0.367-2.115l-0.417,0.134l-0.316-1.819l-0.199,0.064l-0.074-0.423
		c1.479,0.914,3.266,1.068,3.715,0.689c0.598-0.504-0.403-3.815-2.795-4.384c1.475-0.091,3.345-0.349,3.03-1.075
		c-0.273-0.629-1.768-1.509-3.141-1.639c0.368-1.003,0.342-1.773-0.671-1.68c-1.125,0.102-1.608,1.099-1.789,2.231
		c-0.431-1.099-1.227-2.008-2.694-1.908c-1.241,0.083-1.213,0.773-0.657,1.63c-1.271,0.53-2.469,1.546-2.755,1.968
		C-153.525,9.377-152.438,9.904-150.391,9.717z M-116.414,16.917l-0.071,0.184l-0.269-0.138
		C-116.634,16.956-116.52,16.944-116.414,16.917z M-142.329,28.122l0.019,0.019c0.016-0.016,0.879-0.821,2.767-1.581
		c-0.284,1.106-0.505,2.413-0.619,3.911c-1.405,0.406-2.4,0.848-3.024,1.173C-143.086,30.404-142.792,29.22-142.329,28.122z
		 M-143.22,32.843c0.369-0.226,1.351-0.758,2.997-1.269c-0.012,0.332-0.024,0.662-0.024,1.012c0,0.551,0.019,1.073,0.048,1.58
		c-1.557-0.467-2.546-0.959-3.019-1.229C-143.219,32.905-143.22,32.874-143.22,32.843z M-143.116,34.155
		c0.663,0.327,1.65,0.737,3.001,1.114c0.141,1.379,0.383,2.571,0.672,3.6c-1.588-0.632-2.469-1.289-2.733-1.507
		C-142.637,36.361-142.959,35.285-143.116,34.155z M-141.051,39.283c0.545,0.278,1.214,0.567,2.013,0.839
		c0.283,0.778,0.583,1.429,0.869,1.959C-139.286,41.324-140.261,40.375-141.051,39.283z M-135.208,29.561
		c-1.504,0.146-2.807,0.372-3.904,0.635c0.147-1.604,0.43-2.953,0.765-4.063c1.027-0.318,2.275-0.593,3.751-0.753
		C-134.859,26.56-135.082,27.94-135.208,29.561z M-134.493,40.047c-1.466-0.16-2.713-0.434-3.744-0.751
		c-0.339-1.028-0.633-2.279-0.81-3.758c1.104,0.253,2.398,0.469,3.896,0.604C-135,37.669-134.764,38.963-134.493,40.047z
		 M-135.269,30.6c-0.03,0.618-0.052,1.256-0.052,1.934c0,0.916,0.032,1.769,0.085,2.568c-1.521-0.149-2.828-0.381-3.914-0.648
		c-0.043-0.593-0.074-1.207-0.074-1.867c0-0.45,0.012-0.884,0.032-1.303C-138.108,31.006-136.805,30.76-135.269,30.6z
		 M-136.244,43.131c-0.202-0.231-0.878-1.075-1.539-2.63c1.025,0.268,2.22,0.484,3.585,0.608c0.419,1.367,0.871,2.303,1.193,2.867
		C-134.142,43.853-135.23,43.563-136.244,43.131z M-131.571,30.41c0.733,0,1.413,0.025,2.068,0.063
		c0.042,0.704,0.071,1.436,0.071,2.224c0,0.896-0.035,1.724-0.088,2.505c-0.698,0.042-1.427,0.071-2.215,0.071
		c-0.877,0-1.69-0.034-2.463-0.085c-0.06-0.822-0.097-1.701-0.097-2.654c0-0.714,0.025-1.381,0.06-2.026
		C-133.406,30.447-132.523,30.41-131.571,30.41z M-134.167,29.475c0.138-1.636,0.375-3.028,0.65-4.187
		c0.547-0.035,1.112-0.06,1.717-0.06c0.541,0,1.052,0.019,1.547,0.047c0.282,1.145,0.526,2.531,0.673,4.16
		c-0.631-0.032-1.292-0.052-1.992-0.052C-132.497,29.384-133.354,29.42-134.167,29.475z M-129.608,36.24
		c-0.158,1.554-0.404,2.856-0.685,3.924c-0.445,0.022-0.907,0.036-1.389,0.036c-0.603,0-1.167-0.025-1.713-0.061
		c-0.287-1.062-0.542-2.36-0.708-3.919c0.748,0.046,1.528,0.078,2.368,0.078C-130.986,36.299-130.28,36.277-129.608,36.24z
		 M-131.809,43.951c-0.156-0.221-0.72-1.095-1.273-2.76c0.45,0.021,0.916,0.034,1.4,0.034c0.376,0,0.733-0.013,1.088-0.026
		C-131.074,42.686-131.568,43.574-131.809,43.951z M-127.127,43.069c-1.092,0.483-2.273,0.803-3.512,0.922
		c0.326-0.597,0.757-1.53,1.153-2.858c1.46-0.115,2.732-0.335,3.809-0.614C-126.315,42.053-126.96,42.872-127.127,43.069z
		 M-129.203,40.084c0.266-1.091,0.496-2.391,0.64-3.917c1.617-0.137,2.987-0.371,4.132-0.646c-0.179,1.504-0.474,2.768-0.81,3.804
		C-126.319,39.653-127.631,39.935-129.203,40.084z M-128.471,30.543c1.663,0.146,3.055,0.394,4.19,0.682
		c0.018,0.401,0.03,0.813,0.03,1.244c0,0.693-0.032,1.338-0.078,1.958c-1.123,0.291-2.501,0.546-4.154,0.697
		c0.048-0.759,0.076-1.565,0.076-2.428C-128.406,31.937-128.433,31.229-128.471,30.543z M-128.54,29.503
		c-0.135-1.607-0.364-2.981-0.632-4.146c1.631,0.164,2.988,0.47,4.098,0.819c0.317,1.087,0.583,2.4,0.72,3.966
		C-125.515,29.867-126.902,29.635-128.54,29.503z M-125.226,42.002c0.264-0.508,0.541-1.124,0.804-1.862
		c0.758-0.259,1.402-0.534,1.929-0.802C-123.25,40.37-124.173,41.271-125.226,42.002z M-121.344,37.394
		c-0.286,0.241-1.146,0.89-2.689,1.506c0.289-1.042,0.533-2.252,0.674-3.664c1.41-0.417,2.385-0.874,2.984-1.208
		C-120.525,35.215-120.857,36.347-121.344,37.394z M-121.173,28.132c0.455,1.08,0.747,2.245,0.85,3.462
		c-0.623-0.337-1.599-0.777-2.982-1.178c-0.106-1.461-0.317-2.73-0.587-3.815C-122.132,27.313-121.271,28.045-121.173,28.132z
		 M-123.275,34.123c0.03-0.53,0.051-1.076,0.051-1.654c0-0.329-0.013-0.639-0.023-0.952c1.591,0.496,2.533,1.021,2.925,1.271
		C-120.552,32.949-121.488,33.55-123.275,34.123z M-122.252,26.157l-0.02,0.05c-0.533-0.277-1.183-0.57-1.973-0.845
		c-0.278-0.856-0.582-1.566-0.875-2.144C-123.996,24.019-123.026,25.015-122.252,26.157z M-127.012,22.127
		c0.286,0.353,0.941,1.27,1.543,2.857c-1.116-0.303-2.435-0.549-3.969-0.678c-0.407-1.457-0.854-2.495-1.19-3.153
		C-129.35,21.279-128.134,21.616-127.012,22.127z M-131.993,21.104c0.054,0,0.108-0.003,0.163-0.004
		c0.25,0.421,0.788,1.444,1.293,3.134c-0.409-0.018-0.826-0.03-1.262-0.03c-0.499,0-0.979,0.013-1.441,0.035
		C-132.78,22.65-132.281,21.62-131.993,21.104z M-136.373,22.072c0.993-0.438,2.058-0.739,3.173-0.88
		c-0.337,0.689-0.757,1.722-1.137,3.128c-1.377,0.126-2.576,0.346-3.601,0.617C-137.28,23.246-136.583,22.324-136.373,22.072z
		 M-138.264,23.131c-0.301,0.58-0.618,1.305-0.911,2.186c-0.869,0.3-1.579,0.621-2.141,0.924
		C-140.505,25.02-139.467,23.964-138.264,23.131z M-147.105,12.011l0.123,0.256l-0.411,0.132
		C-147.284,12.271-147.183,12.142-147.105,12.011z"/>
</g>
<g>
</g>
<g>
</g>
<g>
</g>
<g>
</g>
<g>
</g>
<g>
</g>
<g>
</g>
<g>
</g>
<g>
</g>
<g>
</g>
<g>
</g>
<g>
</g>
<g>
</g>
<g>
</g>
<g>
</g>
</svg>
