<?xml version="1.0" encoding="iso-8859-1"?>
<!-- Generator: Adobe Illustrator 16.0.0, SVG Export Plug-In . SVG Version: 6.00 Build 0)  -->
<!DOCTYPE svg PUBLIC "-//W3C//DTD SVG 1.1//EN" "http://www.w3.org/Graphics/SVG/1.1/DTD/svg11.dtd">
<svg version="1.1" id="Layer_1" xmlns="http://www.w3.org/2000/svg" xmlns:xlink="http://www.w3.org/1999/xlink" x="0px" y="0px"
	 width="43.736px" height="43.736px" viewBox="0 0 43.736 43.736" style="enable-background:new 0 0 43.736 43.736;"
	 xml:space="preserve">
<g>
	<polygon points="111.864,-550.584 111.417,-550.673 111.097,-550.22 111.249,-549.806 111.804,-550.012 	"/>
	<polygon points="103.591,-543.921 103.591,-543.275 104.007,-542.873 104.384,-543.479 105.126,-544.566 105.481,-546.272 
		105.03,-546.272 104.591,-545.394 103.835,-545.492 103.835,-544.907 104.104,-544.591 103.897,-544.274 	"/>
	<path d="M89.927-563.671c1.748,1.903,3.574,4.595,3.593,4.622l0.883,1.304l0,0l0.096,0.141l0.075-0.135l0,0l0.519-0.936v0
		l0.045-0.081l0,0l0.129-0.233l0.407-0.039l0.291-0.348l-0.309-0.121l-0.063-0.073c0.176-0.312,0.432-0.764,0.731-1.284v0
		c0.052-0.091,0.107-0.187,0.162-0.281c0.568-0.981,1.246-2.125,1.79-2.956c2.895-1.706,4.628-4.933,4.434-8.3
		c-0.285-4.941-4.521-8.763-9.529-8.486c-4.966,0.288-8.772,4.562-8.486,9.528C84.889-567.991,86.887-565.071,89.927-563.671z
		 M93.305-578.735c0.135-0.008,0.27-0.012,0.404-0.012c3.637,0,6.649,2.847,6.859,6.481c0.152,2.636-1.246,5.161-3.563,6.432
		l-0.229,0.126l-0.146,0.218c-0.703,1.051-1.65,2.666-2.324,3.842c-0.765-1.045-1.871-2.485-2.962-3.647l-0.153-0.163l-0.205-0.088
		c-2.409-1.036-4-3.307-4.151-5.925C86.616-575.258,89.518-578.516,93.305-578.735z"/>
	<path d="M104.358-569.177c-0.113,0.441-0.251,0.873-0.416,1.295c3.59,0.238,6.835,1.759,9.264,4.126
		c0.172,0.167,0.338,0.343,0.502,0.52h-2.074l-1.043-0.622l-2.088,0.132l-1.584,0.708l0.012,0.823l-0.488,0.146l-0.109-0.823
		l-0.182-0.286l-0.549-0.135l-0.129,0.494l0.164,0.401l-1.949-0.127l-0.93,0.432l-0.143-0.407l-0.23,0.061l-0.17,0.451l-0.486,0.381
		l-1.189-0.033l-0.055-0.262l1.244-0.055l0.254-0.219l-1.498-0.695l-0.469,0.014c-0.104,0.073-0.195,0.159-0.302,0.228
		c-0.095,0.15-0.194,0.31-0.294,0.472l0.055-0.038l-1.068,0.745l-0.005,1c-0.054,0.092-0.107,0.184-0.16,0.274l0.159-0.081
		l-0.629,0.319l0.063,0.21l1.006,0.009l-0.857-0.008c-0.354,0.615-0.662,1.16-0.859,1.512l-0.031,0.055v0l-0.289,0.522l0.287-0.259
		l0.088,0.328l1.143,0.772l-0.139,0.188l-0.516-0.028l0.197,0.282l0.318,0.069l0.371-0.155l-0.006-0.448l0.164-0.083l-0.131-0.141
		l-0.764-0.425l-0.201-0.566h0.635l0.203,0.202l0.547,0.47l0.023,0.57l0.564,0.603l0.211-0.827l0.395-0.214l0.072,0.676l0.383,0.42
		l1.156-0.019l0.342,0.256v0.603l-0.418,0.384h-1.17l-0.713-0.531l-0.75,0.073v0.458H98.86l-0.256-0.183l-1.299-0.329v-0.841
		l-1.283,0.1l-1.354,2.443l-1.204-1.778l-0.082,0.045v0.829l-1.619,1.169l0.133,0.5h0.33l-0.086,0.475l-0.232,0.084l-0.012,1.243
		l1.4,1.596h0.611l0.037-0.098h1.096l0.316-0.292h0.621l0.342,0.341l0.926,0.097l-0.123,1.231l1.031,1.815l-0.543,1.036l0.037,0.488
		l0.426,0.425v1.172l0.561,0.753v0.975h1.658l1.242-1.279l0.389-0.694l0.5-0.11v-0.584l0.328-0.391l0.695-0.95l-0.146-1.448
		l-0.305-0.538l1.367-1.306l1.508-2.154l-0.293-0.134l-1.564,0.329l-0.402-0.201l-1.645-3.098l0.115-0.134l1.631,1.979l0.039,0.613
		l0.377,0.378l0.768-0.05l1.604-1.16l0.502-0.329l-0.01-0.402l-0.535-0.07c0,0-1.877-0.885-1.877-0.923
		c0-0.04,0.012-0.759,0.012-0.759h0.414l0.063,0.524l0.869,0.5l0.994,0.049l2.156,0.353l0.504,0.317v0.494l-0.064,0.671l1.105,1.818
		l0.357,0.082l0.355-0.516l0.197-1.471l0.367-0.792l0.596-0.222l1.047,0.1l1.314,1.169v1.681l1.738,1.663l0.09-0.292l-1.406-2.01
		l0.146-0.585l0.742,0.843l0.416,0.044l0.545-0.363l-0.092-0.548l-0.9-0.725l-0.035-0.658l0.256-0.347l0.457,0.146l-0.037,0.311
		l0.26,0.401l0.232-0.164l-0.127-0.475l0.496-0.178c0,0.008,0.002,0.017,0.002,0.025c0,8.097-6.588,14.684-14.684,14.684
		c-8.098,0-14.684-6.587-14.684-14.684c0-2.566,0.666-4.979,1.827-7.081c-0.278-0.361-0.57-0.729-0.874-1.092
		c-1.432,2.396-2.27,5.185-2.27,8.173c0,8.822,7.178,16,16,16s16-7.178,16-16C118.966-561.599,112.53-568.467,104.358-569.177z
		 M98.983-561.459l0.021-0.013c-0.007,0.012-0.015,0.024-0.021,0.036V-561.459z"/>
	<rect x="95.074" y="-571.969" width="1.685" height="1.685"/>
	<path d="M89.761-567.709h7.812v-5.934h0.999l-4.905-4.156l-3.903,3.355h-0.002v0.003l-0.93,0.798h0.93V-567.709z M90.562-573.644
		h6.209v5.133h-3.104v-3.481h-2.035v3.481h-1.069V-573.644z"/>
</g>
<g>
</g>
<g>
</g>
<g>
</g>
<g>
</g>
<g>
</g>
<g>
</g>
<g>
</g>
<g>
</g>
<g>
</g>
<g>
</g>
<g>
</g>
<g>
</g>
<g>
</g>
<g>
</g>
<g>
</g>
</svg>
