<?xml version="1.0" encoding="iso-8859-1"?>
<!-- Generator: Adobe Illustrator 16.0.0, SVG Export Plug-In . SVG Version: 6.00 Build 0)  -->
<!DOCTYPE svg PUBLIC "-//W3C//DTD SVG 1.1//EN" "http://www.w3.org/Graphics/SVG/1.1/DTD/svg11.dtd">
<svg version="1.1" id="Layer_1" xmlns="http://www.w3.org/2000/svg" xmlns:xlink="http://www.w3.org/1999/xlink" x="0px" y="0px"
	 width="43.736px" height="43.736px" viewBox="0 0 43.736 43.736" style="enable-background:new 0 0 43.736 43.736;"
	 xml:space="preserve">
<g>
	<path d="M617.33,21.241c0,2.308,1.878,4.186,4.185,4.186c2.309,0,4.186-1.878,4.186-4.186s-1.877-4.185-4.186-4.185
		C619.208,17.057,617.33,18.934,617.33,21.241z"/>
	<path d="M627.231,21.753c-0.945,1.565-1.891,3.13-2.837,4.693h-5.759c-0.945-1.564-1.891-3.129-2.837-4.693
		c-0.649-1.078-2.469-0.279-1.811,0.808c1.144,1.89,2.285,3.779,3.428,5.67c0.19,0.314,0.479,0.466,0.777,0.5v5.688
		c0,0.005-0.002,0.009-0.002,0.015c0,3.498,0,6.999,0,10.499c0,1.801,2.793,1.801,2.793,0c0-2.791,0-5.581,0-8.371h1.282
		c0,2.79,0,5.58,0,8.371c0,1.801,2.793,1.801,2.793,0c0-2.791,0-5.581,0-8.371c0-0.709,0-1.419,0-2.128v-5.753
		c0.215-0.073,0.413-0.215,0.555-0.449c1.144-1.892,2.285-3.78,3.427-5.67C629.7,21.474,627.883,20.675,627.231,21.753z"/>
	<path d="M614.494,11.637c1.668,1.999,4.17,3.279,6.968,3.296c0.011,0,0.021,0.001,0.032,0.001c0.002,0,0.005-0.001,0.008-0.001
		c0.004,0,0.009,0.001,0.013,0.001c2.819,0,5.345-1.283,7.021-3.297c0.154-0.185,0.3-0.376,0.439-0.572
		c1.056-1.491,1.679-3.309,1.679-5.271c0-1.961-0.623-3.778-1.679-5.27c-0.14-0.196-0.285-0.388-0.439-0.572
		c-1.677-2.013-4.202-3.297-7.021-3.297c-0.004,0-0.009,0-0.013,0c-0.003,0-0.006,0-0.008,0c-0.011,0-0.021,0.001-0.032,0.001
		c-2.798,0.016-5.301,1.296-6.968,3.296c-0.153,0.185-0.3,0.376-0.438,0.573c-1.057,1.49-1.68,3.307-1.68,5.269
		c0,1.963,0.623,3.78,1.68,5.271C614.194,11.26,614.341,11.452,614.494,11.637z M624.12,13.768c0.853-0.813,1.563-2.011,2.048-3.453
		c0.658,0.244,1.251,0.538,1.761,0.871C626.933,12.368,625.621,13.275,624.12,13.768z M628.371,10.614
		c-0.578-0.387-1.249-0.725-1.991-1.001c0.264-0.97,0.433-2.03,0.48-3.146h3.016C629.753,8.003,629.212,9.422,628.371,10.614z
		 M629.902,5.716h-3.026c-0.007-1.335-0.185-2.601-0.496-3.742c0.742-0.276,1.412-0.613,1.991-0.999
		C629.319,2.32,629.887,3.952,629.902,5.716z M627.93,0.401c-0.51,0.334-1.104,0.628-1.763,0.872
		c-0.485-1.441-1.194-2.64-2.047-3.453C625.621-1.688,626.935-0.781,627.93,0.401z M621.891-2.563
		c1.522,0.235,2.832,1.812,3.578,4.068c-1.075,0.318-2.289,0.511-3.578,0.542V-2.563z M621.891,2.797
		c1.359-0.032,2.642-0.24,3.786-0.587c0.279,1.066,0.442,2.252,0.449,3.506h-4.235V2.797z M621.891,6.467h4.22
		c-0.046,1.034-0.196,2.016-0.431,2.912c-1.146-0.347-2.429-0.556-3.789-0.589V6.467z M621.891,9.54
		c1.289,0.031,2.504,0.225,3.579,0.543c-0.745,2.257-2.057,3.832-3.579,4.067V9.54z M615.103,11.186
		c0.499-0.327,1.078-0.616,1.722-0.856c0.48,1.422,1.179,2.605,2.02,3.416C617.37,13.248,616.083,12.351,615.103,11.186z
		 M621.141,14.157c-1.539-0.211-2.867-1.79-3.62-4.063c1.085-0.326,2.314-0.522,3.62-0.555V14.157z M621.141,8.79
		c-1.377,0.033-2.675,0.247-3.831,0.601c-0.236-0.898-0.388-1.884-0.434-2.924h4.265V8.79z M621.141,5.716h-4.279
		c0.007-1.259,0.171-2.448,0.453-3.518c1.153,0.354,2.45,0.566,3.826,0.599V5.716z M621.141-2.569v4.616
		c-1.306-0.031-2.534-0.228-3.618-0.553C618.276-0.778,619.602-2.358,621.141-2.569z M618.844-2.157
		c-0.841,0.81-1.538,1.994-2.019,3.417c-0.645-0.241-1.226-0.531-1.725-0.858C616.081-0.765,617.37-1.661,618.844-2.157z
		 M614.66,0.975c0.567,0.38,1.225,0.711,1.951,0.983c-0.313,1.146-0.493,2.417-0.5,3.758h-2.984
		C613.144,3.952,613.712,2.319,614.66,0.975z M616.126,6.467c0.049,1.122,0.219,2.188,0.485,3.162
		c-0.728,0.273-1.384,0.605-1.951,0.985c-0.841-1.193-1.382-2.611-1.505-4.147H616.126z"/>
</g>
<g>
</g>
<g>
</g>
<g>
</g>
<g>
</g>
<g>
</g>
<g>
</g>
<g>
</g>
<g>
</g>
<g>
</g>
<g>
</g>
<g>
</g>
<g>
</g>
<g>
</g>
<g>
</g>
<g>
</g>
</svg>
