<?xml version="1.0" encoding="iso-8859-1"?>
<!-- Generator: Adobe Illustrator 16.0.0, SVG Export Plug-In . SVG Version: 6.00 Build 0)  -->
<!DOCTYPE svg PUBLIC "-//W3C//DTD SVG 1.1//EN" "http://www.w3.org/Graphics/SVG/1.1/DTD/svg11.dtd">
<svg version="1.1" id="Layer_1" xmlns="http://www.w3.org/2000/svg" xmlns:xlink="http://www.w3.org/1999/xlink" x="0px" y="0px"
	 width="48.625px" height="49.661px" viewBox="0 0 48.625 49.661" style="enable-background:new 0 0 48.625 49.661;"
	 xml:space="preserve">
<g>
	<path d="M44.605-486.769v6.849c1.235-2.749,1.938-5.787,1.938-8.991c0-4.733-1.504-9.121-4.053-12.719
		c-0.336-0.475-0.688-0.938-1.06-1.383c-4.05-4.858-10.143-7.957-16.947-7.957c-0.012,0-0.022,0-0.032,0c-0.008,0-0.014,0-0.02,0
		c-0.026,0-0.051,0.003-0.076,0.003c-6.753,0.039-12.794,3.129-16.817,7.955c-0.371,0.445-0.724,0.907-1.06,1.382
		c-2.549,3.598-4.054,7.984-4.054,12.719c0,4.507,1.375,8.691,3.705,12.187l1.407-1.161c-1.796-2.749-2.956-5.948-3.231-9.4h7.171
		c0.049,1.15,0.162,2.27,0.313,3.363l2.003,1.165c-0.257-1.448-0.437-2.959-0.506-4.528h10.291v4.128l1.006,1.124l0.805-0.806
		v-4.446h10.186c-0.021,0.479-0.065,0.946-0.106,1.415l1.854-0.547c0.02-0.29,0.05-0.574,0.063-0.868h3.26l3.411-1.811h-6.634
		c-0.016-3.224-0.446-6.278-1.196-9.033c1.791-0.667,3.408-1.48,4.804-2.412c2.289,3.247,3.659,7.188,3.698,11.445l-0.065,1.811
		C44.648-487.112,44.624-486.941,44.605-486.769z M11.44-489.097H4.239c0.039-4.258,1.409-8.199,3.698-11.446
		c1.371,0.916,2.956,1.717,4.71,2.376C11.891-495.402,11.457-492.335,11.44-489.097z M9-501.927
		c2.366-2.811,5.479-4.976,9.036-6.174c-2.028,1.955-3.712,4.814-4.874,8.246C11.607-500.437,10.207-501.136,9-501.927z
		 M23.578-489.097H13.251c0.015-3.04,0.412-5.911,1.093-8.493c2.785,0.854,5.916,1.368,9.234,1.447V-489.097z M23.578-497.952
		c-3.148-0.076-6.114-0.552-8.732-1.337c1.818-5.483,5.021-9.296,8.732-9.806V-497.952z M25.389-509.081
		c3.674,0.567,6.837,4.372,8.636,9.819c-2.594,0.769-5.524,1.234-8.636,1.31V-509.081z M25.389-489.097v-7.046
		c3.28-0.079,6.377-0.581,9.138-1.418c0.676,2.574,1.069,5.436,1.085,8.464H25.389z M35.711-499.821
		c-1.172-3.479-2.882-6.371-4.94-8.334c3.623,1.186,6.793,3.376,9.196,6.229C38.735-501.118,37.304-500.409,35.711-499.821z"/>
	<rect x="8.693" y="-475.932" width="2.916" height="12.416"/>
	<rect x="13.36" y="-472.864" width="2.916" height="9.349"/>
	<rect x="18.193" y="-475.932" width="2.916" height="12.416"/>
	<rect x="22.86" y="-472.864" width="2.916" height="9.349"/>
	<rect x="27.693" y="-475.932" width="2.916" height="12.416"/>
	<rect x="32.36" y="-472.864" width="2.916" height="9.349"/>
	<rect x="37.193" y="-475.371" width="2.916" height="11.855"/>
	<path d="M37.911-483.138l-3.732,4.198l-4.97-3.437l-4.312,3.163l-5.725-4.006l-4.211,3.637c-4.214-2.535-4.244-2.535-4.728-2.535
		v1.629l-0.625,1.232c0.306,0.155,2.649,1.548,4.737,2.805l0.932,0.561l4.088-3.531l5.572,3.9l4.321-3.171l5.397,3.731l5.622-6.326
		l2.127,1.661l0.199-6.763l-5.945,2.274L37.911-483.138z"/>
</g>
<g>
</g>
<g>
</g>
<g>
</g>
<g>
</g>
<g>
</g>
<g>
</g>
<g>
</g>
<g>
</g>
<g>
</g>
<g>
</g>
<g>
</g>
<g>
</g>
<g>
</g>
<g>
</g>
<g>
</g>
</svg>
