<?xml version="1.0" encoding="iso-8859-1"?>
<!-- Generator: Adobe Illustrator 16.0.0, SVG Export Plug-In . SVG Version: 6.00 Build 0)  -->
<!DOCTYPE svg PUBLIC "-//W3C//DTD SVG 1.1//EN" "http://www.w3.org/Graphics/SVG/1.1/DTD/svg11.dtd">
<svg version="1.1" id="Layer_1" xmlns="http://www.w3.org/2000/svg" xmlns:xlink="http://www.w3.org/1999/xlink" x="0px" y="0px"
	 width="43.736px" height="43.736px" viewBox="0 0 43.736 43.736" style="enable-background:new 0 0 43.736 43.736;"
	 xml:space="preserve">
<g>
	<g>
		<polygon style="fill:none;" points="-65.739,-207.961 -65.594,-208.525 -66.015,-208.627 -66.48,-208.404 -66.193,-207.816 		"/>
		<polygon style="fill:none;" points="-64.475,-206.564 -65.062,-206.564 -65.472,-206.121 -65.539,-205.678 -65.228,-205.512 		"/>
		<polygon style="fill:none;" points="-64.01,-206.709 -64.01,-207.074 -64.165,-207.074 -64.165,-207.285 -64.862,-207.285 
			-65.373,-207.074 -65.472,-206.819 -65.073,-206.709 		"/>
		<polygon style="fill:none;" points="-63.821,-207.131 -63.821,-206.709 -63.456,-206.797 		"/>
		<path style="fill:none;" d="M-40.302-201.617c-0.022-0.102-0.046-0.202-0.07-0.303l-0.056,0.065L-40.302-201.617z"/>
		<polygon style="fill:none;" points="-67.064,-211.196 -67.064,-211.473 -67.699,-211.473 -67.733,-211.34 -68.121,-211.34 
			-68.121,-211.307 -68.121,-210.953 -67.246,-210.953 		"/>
		<polygon style="fill:none;" points="-62.657,-205.633 -62.657,-205.977 -63.333,-206.176 -63.377,-206.176 -63.377,-205.856 
			-63.223,-205.633 		"/>
		<path style="fill:none;" d="M-42.489-204.747l-0.089-0.819l-0.476,0.26l-0.255,1.002l-0.687-0.732l-0.028-0.69l-0.664-0.571
			l-0.245-0.243h-0.77l0.244,0.686l0.926,0.517l0.161,0.171l-0.201,0.101l0.009,0.543l-0.452,0.188l-0.385-0.084l-0.241-0.342
			l0.626,0.034l0.169-0.228l-1.388-0.938l-0.105-0.398l-0.564,0.51l-0.572-0.117l-0.87,1.131l-0.171,0.443l-0.557,0.051
			l-0.824,0.005l-0.492-0.229l-0.145-0.979l0.177-0.466l0.838-0.184l0.914,0.184l0.111-0.506l-0.389-0.092l0.133-0.788l0.92-0.143
			l0.643-0.909l0.664-0.111l0.6,0.089h0.221l-0.122-0.854l-0.729,0.295l-0.256-0.639l-0.423-0.059l-0.079-0.438l0.345-0.375
			l0.82-0.321l0.211-0.378c-3.134-2.761-7.243-4.441-11.738-4.441c-3.901,0-7.511,1.266-10.446,3.404l0.896-0.007l0.399,0.222
			l0.753,0.162l0.058,0.296l1.198,0.044l-0.163-0.384l-1.064-0.03l0.251-0.235l-0.088-0.281h-0.961l1.049-0.783h1.005l0.472,0.651
			l0.784,0.043l0.472-0.458l0.355,0.177l-0.651,0.637c0,0-0.9,0.015-0.856,0.015s0.074,0.62,0.074,0.62l1.093-0.029l0.118-0.295
			l0.753-0.045l0.089-0.443l-0.443-0.074l0.147-0.398l0.34-0.104l1.182,0.059l-0.651,0.592l0.105,0.457l0.679,0.104l-0.044-0.827
			l0.65-0.34l1.152-0.134l1.669,0.74v0.635l0.532,0.133l-0.266,0.502h-0.753l-0.223,0.576l-1.723-0.406l1.354-0.721l-0.516-0.438
			l-1.167,0.147l-0.102,0.105l-0.004-0.002l-0.018,0.025l-0.336,0.35l-0.555,0.047l0.044,0.276l0.194,0.081l-0.008,0.091
			l-0.452,0.064l-0.033,0.263l-0.433,0.021l-0.078-0.521l-0.775,0.236l-1.585,0.928l0.178,0.653l0.443,0.288l0.886,0.122v1.008
			l0.41-0.066l0.377-0.787l0.942-0.298v-1.208l0.524-0.396l1.267,0.3l-0.089,0.798h0.34l0.931-0.457l0.044,1.048l0.679,0.413
			l-0.029,0.621l-0.65,0.223l0.044,0.205l0.783,0.356l-0.016,0.428l-0.227,0.02c-0.001-0.007-0.002-0.012-0.002-0.012l-0.987-0.305
			l-0.042-0.317h-0.001l0.289-0.197v-0.289l-0.31-0.078l-0.077,0.267l-0.545,0.084l-0.054-0.019v0.027l-0.188,0.029l-0.154-0.311
			l-0.178-0.078h-0.388l-0.176,0.145v0.32l0.332,0.111l0.328,0.046l-0.073,0.032l-0.299,0.332l-0.132-0.166l-0.289-0.076
			l-0.787,0.74l0.103,0.084l-1.163,0.645l-1.093,1.138l-0.075,0.507l-1.097,0.72l-0.543,0.547l0.06,1.093l-0.753-0.352l0.006-0.639
			h-2.098l-1.086,0.551l-0.472,0.869l-0.187,0.689l0.306,0.668l0.855,0.104l1.36-0.909l0.119,0.451l-0.415,0.783l1.035,0.177
			l0.104,1.599l1.418,0.24l0.901-1.041l1.094,0.223l0.384,0.534l1.049-0.062l0.029-0.311l0.576,0.281l0.65,1.018l1.123,0.016
			l0.414,0.725l0.059,0.886l1.242,0.474l1.566,0.015l0.458,0.753l0.694,0.223l-0.133,0.62l-0.761,0.968l-0.222,2.139l-0.687,0.543
			l-1.02-0.03l-0.34,0.591l0.252,1.109l-1.108,1.418l-0.354,0.65l-1.057,0.508l-0.695,0.105l-0.029,0.295l0.488,0.141l-0.059,0.316
			l-0.437,0.422l0.265,0.333l0.526,0.015l-0.03,0.406l-0.14,0.398l-0.045,0.325l0.777,0.655l-0.104,0.34l-1.058-0.02l-1.052-0.92
			l-0.82-1.441l0.114-1.392l-0.621-0.827l0.251-1.403l-0.369-0.104v-3.043c0,0-1.035-0.784-1.093-0.784
			c-0.059,0-0.547-0.132-0.547-0.132l-0.103-0.576l-1.345-1.686l0.133-0.605l0.044-0.99l0.93-0.649l-0.132-1.108l-1.359-0.103
			l-1.064-1.212l-0.753-0.207l-0.488-0.089l0.059-0.443l-0.621-0.088v0.251l-1.552-0.385l-0.624-0.955l0.254-0.463l-0.983-1.434
			l-0.168-1.049h-0.399l0.133,1.02l0.679,1.049l-0.074,0.414l-0.577-0.088l-0.708-1.209v-1.406l-0.739-0.355v-1.012
			c-0.913,2.138-1.419,4.49-1.419,6.958c0,9.804,7.976,17.78,17.78,17.78c5.558,0,10.527-2.565,13.79-6.572h-0.587v-1.182
			l-0.678-0.914v-1.422l-0.518-0.516l-0.044-0.592l0.657-1.256l-1.248-2.202l0.147-1.493l-1.123-0.117l-0.414-0.413h-0.754
			l-0.383,0.354h-1.33l-0.044,0.117h-0.74l-1.698-1.934l0.014-1.508l0.28-0.104l0.104-0.576h-0.399l-0.163-0.605l1.965-1.418v-1.006
			l0.962-0.533l0.389,0.039h0.792l0.619-0.333l1.995-0.155v1.02l1.574,0.399l0.31,0.222h0.289v-0.555l0.908-0.089l0.864,0.644h1.419
			l0.1-0.092c-0.141-0.479-0.302-0.947-0.481-1.409l-0.927,0.016L-42.489-204.747z M-49.493-209.313l0.163-0.251l0.583-0.117
			l0.147,0.709l0.311,0.502l0.206,0.237l0.376,0.147l-0.354,0.422l-0.687,0.065h-0.518l0.059-0.612l0.43-0.09l-0.037-0.287
			l-0.4-0.252l-0.28-0.191V-209.313z M-50.453-208.205l0.354-0.568l0.479-0.111l0.341,0.148l-0.03,0.384l-0.731,0.518h-0.413
			V-208.205z M-60.113-206.018l-0.371,0.031l0.02-0.258l0.166-0.206l0.222,0.175L-60.113-206.018z M-58.815-206.473l-0.252,0.022
			l-0.051,0.245l-0.195,0.121l-0.312,0.025c-0.01-0.073-0.018-0.129-0.018-0.129h-0.121v-0.263h0.509l0.105-0.271l0.203-0.005
			l0.231,0.049L-58.815-206.473z"/>
		<path style="fill:none;" d="M-41.95-205.776v0.786l0.345-0.049l0.184,0.008c-0.131-0.295-0.27-0.585-0.417-0.871L-41.95-205.776z"
			/>
		<path style="fill:none;" d="M-67.079-210.121c0,0,0.033-0.389,0-0.389c-0.034,0-0.422,0.066-0.422,0.066l-0.621,0.178l0.167,0.199
			L-67.079-210.121z"/>
		<polygon style="fill:none;" points="-62.746,-206.45 -63.018,-206.619 -63.178,-206.45 -62.963,-206.271 		"/>
		<path style="fill:none;" d="M-64.12-205.977l0.332-0.062l0.267-0.171v-0.355h-0.598C-64.12-206.509-64.12-205.977-64.12-205.977z"
			/>
		<path style="fill:none;" d="M-39.658-204.99l-0.059-0.328l-0.104-0.043c0.051,0.121,0.097,0.247,0.146,0.371H-39.658z"/>
		<polygon style="fill:none;" points="-64.12,-205.667 -64.386,-205.645 -64.475,-205.257 -63.91,-205.257 -63.655,-205.512 
			-63.655,-205.856 -64.064,-205.8 		"/>
		<path style="fill:none;" d="M-72.688-207.337c-0.252,0.396-0.489,0.802-0.71,1.22l0.738-0.897L-72.688-207.337z"/>
		<path style="fill:none;" d="M-45.514-208.77l0.076,0.254l1.22,0.012l0.349-0.52c-0.28-0.344-0.574-0.676-0.878-0.999l-0.003,0.866
			L-45.514-208.77z"/>
		<polygon points="-48.813,-208.588 -48.776,-208.301 -49.206,-208.211 -49.264,-207.599 -48.747,-207.599 -48.06,-207.664 
			-47.706,-208.086 -48.082,-208.233 -48.288,-208.471 -48.599,-208.973 -48.747,-209.682 -49.33,-209.564 -49.493,-209.313 
			-49.493,-209.031 -49.213,-208.84 		"/>
		<polygon points="-49.309,-208.353 -49.278,-208.736 -49.62,-208.885 -50.098,-208.773 -50.453,-208.205 -50.453,-207.835 
			-50.04,-207.835 		"/>
		<path d="M-59.15-206.722l-0.105,0.271h-0.509v0.263h0.121c0,0,0.007,0.056,0.018,0.129l0.312-0.025l0.195-0.121l0.051-0.245
			l0.252-0.022l0.099-0.205l-0.231-0.049L-59.15-206.722z"/>
		<polygon points="-60.463,-206.244 -60.483,-205.986 -60.113,-206.018 -60.075,-206.275 -60.297,-206.45 		"/>
		<path d="M-38.304-198.033c-0.006-0.566-0.034-1.129-0.088-1.683c-0.179-1.847-0.621-3.616-1.283-5.274
			c-0.05-0.124-0.095-0.25-0.146-0.371c-0.882-2.082-2.12-3.978-3.634-5.614c-0.099-0.106-0.2-0.212-0.301-0.315
			c-0.287-0.297-0.58-0.588-0.885-0.865c-3.443-3.137-8.018-5.051-13.031-5.051c-5.056,0-9.664,1.949-13.117,5.132
			c-0.804,0.741-1.544,1.552-2.215,2.419c-2.531,3.273-4.042,7.375-4.042,11.823c0,10.683,8.691,19.374,19.374,19.374
			c7.514,0,14.039-4.303,17.25-10.572c0.687-1.34,1.222-2.77,1.582-4.266c0.092-0.379,0.17-0.762,0.24-1.149
			c0.194-1.101,0.302-2.231,0.302-3.387C-38.299-197.9-38.304-197.967-38.304-198.033z M-41.95-205.776l0.112-0.126
			c0.147,0.286,0.286,0.576,0.417,0.871l-0.184-0.008l-0.345,0.049V-205.776z M-44.75-209.156l0.003-0.866
			c0.304,0.323,0.598,0.655,0.878,0.999l-0.349,0.52l-1.22-0.012l-0.076-0.254L-44.75-209.156z M-68.121-211.307v-0.033h0.388
			l0.034-0.133h0.635v0.276l-0.182,0.243h-0.875V-211.307z M-67.5-210.443c0,0,0.388-0.066,0.422-0.066c0.033,0,0,0.389,0,0.389
			l-0.876,0.055l-0.167-0.199L-67.5-210.443z M-40.716-202.752h-1.419l-0.864-0.644l-0.908,0.089v0.555h-0.289l-0.31-0.222
			l-1.574-0.399v-1.02l-1.995,0.155l-0.619,0.333h-0.792l-0.389-0.039l-0.962,0.533v1.006l-1.965,1.418l0.163,0.605h0.399
			l-0.104,0.576l-0.28,0.104l-0.014,1.508l1.698,1.934h0.74l0.044-0.117h1.33l0.383-0.354h0.754l0.414,0.413l1.123,0.117
			l-0.147,1.493l1.248,2.202l-0.657,1.256l0.044,0.592l0.518,0.516v1.422l0.678,0.914v1.182h0.587
			c-3.263,4.007-8.232,6.572-13.79,6.572c-9.804,0-17.78-7.977-17.78-17.78c0-2.468,0.507-4.82,1.419-6.958v-0.555l0.636-0.771
			c0.221-0.418,0.458-0.823,0.71-1.22l0.028,0.322l-0.738,0.897c-0.229,0.432-0.442,0.873-0.636,1.326v1.012l0.739,0.355v1.406
			l0.708,1.209l0.577,0.088l0.074-0.414l-0.679-1.049l-0.133-1.02h0.399l0.168,1.049l0.983,1.434l-0.254,0.463l0.624,0.955
			l1.552,0.385v-0.251l0.621,0.088l-0.059,0.443l0.488,0.089l0.753,0.207l1.064,1.212l1.359,0.103l0.132,1.108l-0.93,0.649
			l-0.044,0.99l-0.133,0.605l1.345,1.686l0.103,0.576c0,0,0.488,0.132,0.547,0.132c0.059,0,1.093,0.784,1.093,0.784v3.043
			l0.369,0.104l-0.251,1.403l0.621,0.827l-0.114,1.392l0.82,1.441l1.052,0.92l1.058,0.02l0.104-0.34l-0.777-0.655l0.045-0.325
			l0.14-0.398l0.03-0.406l-0.526-0.015l-0.265-0.333l0.437-0.422l0.059-0.316l-0.488-0.141l0.029-0.295l0.695-0.105l1.057-0.508
			l0.354-0.65l1.108-1.418l-0.252-1.109l0.34-0.591l1.02,0.03l0.687-0.543l0.222-2.139l0.761-0.968l0.133-0.62l-0.694-0.223
			l-0.458-0.753l-1.566-0.015l-1.242-0.474l-0.059-0.886l-0.414-0.725l-1.123-0.016l-0.65-1.018l-0.576-0.281l-0.029,0.311
			l-1.049,0.062l-0.384-0.534l-1.094-0.223l-0.901,1.041l-1.418-0.24l-0.104-1.599l-1.035-0.177l0.415-0.783l-0.119-0.451
			l-1.36,0.909l-0.855-0.104l-0.306-0.668l0.187-0.689l0.472-0.869l1.086-0.551h2.098l-0.006,0.639l0.753,0.352l-0.06-1.093
			l0.543-0.547l1.097-0.72l0.075-0.507l1.093-1.138l1.163-0.645l-0.103-0.084l0.787-0.74l0.289,0.076l0.132,0.166l0.299-0.332
			l0.073-0.032l-0.328-0.046l-0.332-0.111v-0.32l0.176-0.145h0.388l0.178,0.078l0.154,0.311l0.188-0.029v-0.027l0.054,0.019
			l0.545-0.084l0.077-0.267l0.31,0.078v0.289l-0.289,0.197h0.001l0.042,0.317l0.987,0.305c0,0,0.001,0.005,0.002,0.012l0.227-0.02
			l0.016-0.428l-0.783-0.356l-0.044-0.205l0.65-0.223l0.029-0.621l-0.679-0.413l-0.044-1.048l-0.931,0.457h-0.34l0.089-0.798
			l-1.267-0.3l-0.524,0.396v1.208l-0.942,0.298l-0.377,0.787l-0.41,0.066v-1.008l-0.886-0.122l-0.443-0.288l-0.178-0.653
			l1.585-0.928l0.775-0.236l0.078,0.521l0.433-0.021l0.033-0.263l0.452-0.064l0.008-0.091l-0.194-0.081l-0.044-0.276l0.555-0.047
			l0.336-0.35l0.018-0.025l0.004,0.002l0.102-0.105l1.167-0.147l0.516,0.438l-1.354,0.721l1.723,0.406l0.223-0.576h0.753
			l0.266-0.502l-0.532-0.133v-0.635l-1.669-0.74l-1.152,0.134l-0.65,0.34l0.044,0.827l-0.679-0.104l-0.105-0.457l0.651-0.592
			l-1.182-0.059l-0.34,0.104l-0.147,0.398l0.443,0.074l-0.089,0.443l-0.753,0.045l-0.118,0.295l-1.093,0.029
			c0,0-0.03-0.62-0.074-0.62s0.856-0.015,0.856-0.015l0.651-0.637l-0.355-0.177l-0.472,0.458l-0.784-0.043l-0.472-0.651h-1.005
			l-1.049,0.783h0.961l0.088,0.281l-0.251,0.235l1.064,0.03l0.163,0.384l-1.198-0.044l-0.058-0.296l-0.753-0.162l-0.399-0.222
			l-0.896,0.007c2.936-2.139,6.545-3.404,10.446-3.404c4.496,0,8.604,1.681,11.738,4.441l-0.211,0.378l-0.82,0.321l-0.345,0.375
			l0.079,0.438l0.423,0.059l0.256,0.639l0.729-0.295l0.122,0.854h-0.221l-0.6-0.089l-0.664,0.111l-0.643,0.909l-0.92,0.143
			l-0.133,0.788l0.389,0.092l-0.111,0.506l-0.914-0.184l-0.838,0.184l-0.177,0.466l0.145,0.979l0.492,0.229l0.824-0.005l0.557-0.051
			l0.171-0.443l0.87-1.131l0.572,0.117l0.564-0.51l0.105,0.398l1.388,0.938l-0.169,0.228l-0.626-0.034l0.241,0.342l0.385,0.084
			l0.452-0.188l-0.009-0.543l0.201-0.101l-0.161-0.171l-0.926-0.517l-0.244-0.686h0.77l0.245,0.243l0.664,0.571l0.028,0.69
			l0.687,0.732l0.255-1.002l0.476-0.26l0.089,0.819l0.465,0.51l0.927-0.016c0.179,0.462,0.34,0.931,0.481,1.409L-40.716-202.752z
			 M-66.48-208.404l0.465-0.223l0.421,0.102l-0.145,0.564l-0.454,0.145L-66.48-208.404z M-64.01-207.074v0.365h-1.063l-0.399-0.11
			l0.099-0.255l0.511-0.211h0.698v0.211H-64.01z M-63.521-206.564v0.355l-0.267,0.171l-0.332,0.062c0,0,0-0.532,0-0.588H-63.521z
			 M-63.821-206.709v-0.422l0.366,0.334L-63.821-206.709z M-63.655-205.856v0.345l-0.255,0.255h-0.565l0.088-0.388l0.267-0.022
			l0.055-0.133L-63.655-205.856z M-65.062-206.564h0.587l-0.753,1.053l-0.311-0.166l0.067-0.443L-65.062-206.564z M-62.657-205.977
			v0.344h-0.565l-0.155-0.224v-0.319h0.044L-62.657-205.977z M-63.178-206.45l0.161-0.169l0.272,0.169l-0.218,0.179L-63.178-206.45z
			 M-40.428-201.854l0.056-0.065c0.024,0.101,0.048,0.201,0.07,0.303L-40.428-201.854z"/>
		<path d="M-74.034-205.346v0.555c0.193-0.453,0.407-0.895,0.636-1.326L-74.034-205.346z"/>
	</g>
	<polygon points="-37.351,-210.438 -39.351,-210.438 -39.351,-215.992 -45.549,-215.992 -45.549,-217.992 -37.351,-217.992 	"/>
	<polygon points="-76.312,-209.795 -78.312,-209.795 -78.312,-217.992 -70.756,-217.992 -70.756,-215.992 -76.312,-215.992 	"/>
	<polygon points="-70.118,-176.726 -78.315,-176.726 -78.315,-184.281 -76.315,-184.281 -76.315,-178.726 -70.118,-178.726 	"/>
	<polygon points="-37.408,-177.459 -44.963,-177.459 -44.963,-179.459 -39.408,-179.459 -39.408,-185.656 -37.408,-185.656 	"/>
</g>
<g>
</g>
<g>
</g>
<g>
</g>
<g>
</g>
<g>
</g>
<g>
</g>
<g>
</g>
<g>
</g>
<g>
</g>
<g>
</g>
<g>
</g>
<g>
</g>
<g>
</g>
<g>
</g>
<g>
</g>
</svg>
