<?xml version="1.0" encoding="iso-8859-1"?>
<!-- Generator: Adobe Illustrator 16.0.0, SVG Export Plug-In . SVG Version: 6.00 Build 0)  -->
<!DOCTYPE svg PUBLIC "-//W3C//DTD SVG 1.1//EN" "http://www.w3.org/Graphics/SVG/1.1/DTD/svg11.dtd">
<svg version="1.1" id="Layer_1" xmlns="http://www.w3.org/2000/svg" xmlns:xlink="http://www.w3.org/1999/xlink" x="0px" y="0px"
	 width="49.312px" height="47.213px" viewBox="0 0 49.312 47.213" style="enable-background:new 0 0 49.312 47.213;"
	 xml:space="preserve">
<g>
	<polygon points="15.412,15.19 12.974,20.116 15.369,24.011 15.412,22.374 20.048,22.342 23.07,17.066 15.443,17.087 	"/>
	<path d="M13.916,16.882H5.5L5.401,16.89c-0.077,0.013-1.884,0.355-1.884,3.458c0,1.669,0.565,2.755,1.72,3.243
		c0.263,0.223,0.884,0.223,2.144,0.223c0,0,0,0,0,0c2.234,0,5.891-0.113,5.929-0.115l0.958-0.029l-2.031-3.624L13.916,16.882z
		 M12.312,22.563c-1.24,0.032-3.417,0.085-4.932,0.085c-0.972,0-1.339-0.022-1.473-0.035c-0.048-0.026-0.103-0.052-0.162-0.073
		c-0.291-0.104-1.063-0.385-1.063-2.191c0-1.875,0.744-2.245,0.89-2.302h6.406L10.91,20.06L12.312,22.563z"/>
	<polygon points="8.518,13.557 5.543,8.936 0.971,8.99 2.353,9.866 0,13.861 2.975,19.164 6.875,12.609 	"/>
	<path d="M7.835,11.405l4.323-7.223l0.042-0.088c0.028-0.073,0.663-1.799-1.999-3.393C9.425,0.236,8.698,0,8.041,0
		C7.233,0,6.729,0.354,6.472,0.561C6.099,0.746,5.425,1.769,2.297,7.382L1.83,8.222l4.153,0.119L7.835,11.405z M7.022,1.601
		c0.062-0.037,0.112-0.078,0.154-0.112c0.148-0.12,0.396-0.323,0.865-0.323c0.443,0,0.968,0.182,1.562,0.537
		c1.61,0.963,1.545,1.791,1.518,1.945L7.83,9.144L6.652,7.192l-2.868-0.08C5.046,4.864,6.623,2.131,7.022,1.601z"/>
	<polygon points="13.54,7.966 19.021,7.568 21.162,3.527 19.731,4.321 17.351,0.343 11.271,0.414 15.158,6.978 	"/>
	<path d="M25.927,12.391c0.033-0.297-0.243-0.996-3.988-6.928L21.427,4.65l-2.095,3.589l-3.577,0.158l4.271,7.253l0.056,0.081
		c0.054,0.063,0.555,0.622,1.601,0.622c0.703,0,1.488-0.253,2.335-0.753C25.488,14.735,26.132,13.67,25.927,12.391z M23.425,14.597
		c-0.665,0.393-1.252,0.591-1.744,0.591c-0.412,0-0.629-0.145-0.691-0.192l-3.249-5.519l2.276-0.1l1.447-2.479
		c1.375,2.194,3.03,4.905,3.291,5.49c0.002,0.056,0.008,0.116,0.021,0.181C24.833,12.872,24.984,13.68,23.425,14.597z"/>
</g>
<path d="M15.562,33.995c-0.46-2.348-0.746-4.88-0.824-7.543H4.813C5.688,29.612,9.818,32.38,15.562,33.995z"/>
<path d="M38.557,16.438c0.455,2.493,0.71,5.188,0.738,8.015h10.017C48.758,21.104,44.546,18.143,38.557,16.438z"/>
<path d="M28.007,2.689v10.231c2.772,0.054,5.41,0.331,7.851,0.798C34.21,7.713,31.311,3.419,28.007,2.689z"/>
<path d="M36.383,15.894c-2.58-0.565-5.413-0.91-8.375-0.974v9.532h9.288C37.263,21.43,36.939,18.534,36.383,15.894z"/>
<path d="M17.743,34.533c2.551,0.552,5.344,0.888,8.264,0.95v-9.031h-9.266C16.833,29.312,17.183,32.044,17.743,34.533z"/>
<path d="M48.712,19.527C46.744,11.654,40.595,5.422,32.77,3.334c2.318,2.388,4.182,6.192,5.315,10.876
	C42.672,15.365,46.387,17.226,48.712,19.527z"/>
<path d="M5.488,31.063c2.147,7.547,8.16,13.479,15.756,15.505c-2.229-2.296-4.035-5.902-5.178-10.34
	C11.541,35.107,7.848,33.303,5.488,31.063z"/>
<path d="M26.007,47.213v-9.73c-2.715-0.053-5.302-0.318-7.7-0.768C19.978,42.441,22.803,46.506,26.007,47.213z"/>
<path d="M32.77,46.567c7.596-2.026,13.608-7.958,15.755-15.504c-2.359,2.239-6.051,4.043-10.577,5.165
	C36.805,40.665,34.999,44.271,32.77,46.567z"/>
<path d="M28.007,37.482v9.73c3.205-0.708,6.029-4.771,7.7-10.498C33.31,37.163,30.723,37.43,28.007,37.482z"/>
<path d="M37.273,26.452h-9.266v9.031c2.92-0.063,5.713-0.398,8.264-0.95C36.832,32.044,37.182,29.311,37.273,26.452z"/>
<path d="M38.453,33.995c5.744-1.615,9.873-4.384,10.749-7.543h-9.925C39.198,29.114,38.913,31.647,38.453,33.995z"/>
<g>
</g>
<g>
</g>
<g>
</g>
<g>
</g>
<g>
</g>
<g>
</g>
<g>
</g>
<g>
</g>
<g>
</g>
<g>
</g>
<g>
</g>
<g>
</g>
<g>
</g>
<g>
</g>
<g>
</g>
</svg>
