<?xml version="1.0" encoding="iso-8859-1"?>
<!-- Generator: Adobe Illustrator 16.0.0, SVG Export Plug-In . SVG Version: 6.00 Build 0)  -->
<!DOCTYPE svg PUBLIC "-//W3C//DTD SVG 1.1//EN" "http://www.w3.org/Graphics/SVG/1.1/DTD/svg11.dtd">
<svg version="1.1" id="Layer_1" xmlns="http://www.w3.org/2000/svg" xmlns:xlink="http://www.w3.org/1999/xlink" x="0px" y="0px"
	 width="44.867px" height="40.873px" viewBox="0 0 44.867 40.873" style="enable-background:new 0 0 44.867 40.873;"
	 xml:space="preserve">
<g>
	<path d="M-278.669-130.182l-5.134-7.015c-2.102,2.032-2.361,5.907-0.979,10.196C-282.772-127.711-280.687-128.779-278.669-130.182z
		"/>
	<path d="M-265.203-111.782l-5.134-7.015c-1.948,1.5-3.597,3.167-4.883,4.868C-271.549-111.313-267.775-110.392-265.203-111.782z"/>
	<path d="M-280.233-118.725c1.226,1.528,2.552,2.858,3.911,3.96c1.361-1.823,3.097-3.59,5.151-5.171l-2.583-3.531L-280.233-118.725z
		"/>
	<path d="M-284.315-125.698c0.761,1.939,1.834,3.93,3.225,5.85l6.502-4.758l-3.247-4.436
		C-279.961-127.563-282.168-126.444-284.315-125.698z"/>
	<path d="M-286.834-134.018c-1.687,2.394-2.648,5.19-2.843,8.052c1.124-0.059,2.328-0.264,3.575-0.615
		C-286.953-129.276-287.21-131.852-286.834-134.018z"/>
	<path d="M-282.23-119.014c-1.481-2.045-2.622-4.177-3.419-6.266c-1.408,0.393-2.775,0.619-4.06,0.674
		c0.055,3.099,1.008,6.211,2.945,8.91L-282.23-119.014z"/>
	<path d="M-269.15-109.854c-2.179-0.297-4.556-1.319-6.868-2.945c-0.71,1.081-1.268,2.163-1.664,3.216
		C-274.896-108.903-271.941-108.97-269.15-109.854z"/>
	<path d="M-265.874-130.985l4.6-3.366c-1.987-2.663-4.664-4.512-7.601-5.501c-0.449,1.23-1.093,2.487-1.914,3.732
		C-269.047-134.732-267.369-133.007-265.874-130.985z"/>
	<path d="M-278.99-109.959c0.44-1.208,1.069-2.442,1.87-3.666c-1.489-1.184-2.932-2.614-4.254-4.266l-4.514,3.304
		C-283.993-112.39-281.593-110.836-278.99-109.959z"/>
	<path d="M-262.293-124.512c1.436-0.406,2.83-0.639,4.139-0.695c-0.048-2.747-0.804-5.503-2.326-7.975l-4.582,3.353
		C-263.893-128.078-262.972-126.279-262.293-124.512z"/>
	<path d="M-263.619-124.09c-0.639-1.622-1.501-3.281-2.583-4.904l-6.412,4.693l2.584,3.531
		C-267.928-122.233-265.745-123.344-263.619-124.09z"/>
	<path d="M-263.154-122.787c-1.988,0.711-4.048,1.769-6.043,3.155l5.126,7.006C-262.019-114.675-261.776-118.528-263.154-122.787z"
		/>
	<path d="M-258.192-123.846c-1.146,0.06-2.373,0.272-3.644,0.635c0.866,2.729,1.119,5.339,0.727,7.523
		C-259.374-118.104-258.39-120.942-258.192-123.846z"/>
	<path d="M-270.182-140.233c-2.828-0.69-5.833-0.607-8.66,0.314c2.201,0.288,4.61,1.321,6.951,2.971
		C-271.16-138.052-270.586-139.159-270.182-140.233z"/>
	<path d="M-272.695-135.818c-3.642-2.601-7.387-3.539-9.961-2.203l5.127,7.005C-275.604-132.497-273.975-134.14-272.695-135.818z"/>
	<path d="M-271.596-134.979c-1.353,1.798-3.071,3.542-5.1,5.102l3.247,4.436l6.435-4.71
		C-268.418-132.05-269.984-133.67-271.596-134.979z"/>
	<path d="M-292.001-116.735c-0.568,0.374-1.088,0.561-1.559,0.561c-0.709,0-1.202-0.336-1.479-1.009h1.502l0.414-0.997h-2.117
		c-0.008-0.037-0.012-0.075-0.012-0.112c0-0.045,0-0.094,0-0.146c0-0.045,0-0.086,0-0.123c0-0.038,0.004-0.075,0.012-0.112h2.309
		l0.414-0.997h-2.544c0.284-0.688,0.751-1.031,1.401-1.031c0.426,0,0.862,0.146,1.311,0.437l0.795-1.692
		c-0.791-0.418-1.542-0.627-2.252-0.627c-0.896,0-1.666,0.266-2.309,0.796c-0.627,0.515-1.061,1.221-1.299,2.118h-0.482
		l-0.414,0.997h0.75c-0.008,0.03-0.011,0.067-0.011,0.112c0,0.037,0,0.082,0,0.134s0,0.101,0,0.146c0,0.038,0.003,0.071,0.011,0.101
		h-0.313l-0.415,0.997h0.875c0.23,0.874,0.656,1.577,1.277,2.107c0.627,0.515,1.389,0.773,2.285,0.773
		c0.717,0,1.334-0.116,1.85-0.347V-116.735z"/>
	<path d="M-249.494-119.092c-0.067-0.269-0.215-0.517-0.443-0.745c-0.228-0.228-0.557-0.437-0.986-0.627
		c-0.43-0.19-1.007-0.364-1.731-0.521v-1.255c0.142,0.03,0.262,0.063,0.359,0.101c0.097,0.038,0.177,0.086,0.241,0.146
		c0.063,0.06,0.112,0.139,0.146,0.235c0.034,0.097,0.058,0.217,0.073,0.359h2.141c0-0.456-0.081-0.848-0.241-1.177
		c-0.161-0.329-0.377-0.6-0.65-0.813c-0.272-0.213-0.588-0.37-0.947-0.47c-0.358-0.101-0.732-0.151-1.121-0.151v-0.896h-0.583v0.896
		c-0.351,0-0.706,0.05-1.064,0.151c-0.359,0.101-0.682,0.257-0.969,0.47s-0.523,0.486-0.706,0.818s-0.274,0.727-0.274,1.182
		c0,0.321,0.048,0.592,0.146,0.812c0.097,0.221,0.235,0.411,0.415,0.572s0.396,0.299,0.65,0.415s0.534,0.226,0.84,0.331
		c0.172,0.06,0.338,0.11,0.499,0.151c0.16,0.041,0.315,0.084,0.465,0.129v1.58c-0.217-0.015-0.385-0.062-0.504-0.14
		c-0.12-0.078-0.211-0.171-0.274-0.28s-0.104-0.222-0.123-0.342c-0.019-0.12-0.028-0.228-0.028-0.325h-2.398
		c0.015,0.366,0.086,0.721,0.213,1.064c0.127,0.344,0.323,0.648,0.588,0.914s0.605,0.478,1.02,0.639s0.917,0.241,1.507,0.241v1.109
		h0.583v-1.109c0.59,0,1.093-0.079,1.507-0.235s0.752-0.358,1.014-0.605c0.261-0.247,0.45-0.523,0.566-0.829
		c0.116-0.306,0.173-0.612,0.173-0.919C-249.393-118.531-249.427-118.823-249.494-119.092z M-253.236-121.12
		c-0.531-0.104-0.795-0.306-0.795-0.605c0-0.224,0.082-0.366,0.246-0.426c0.165-0.06,0.348-0.089,0.549-0.089V-121.12z
		 M-251.993-117.596c-0.179,0.108-0.399,0.173-0.661,0.196v-1.423c0.292,0.097,0.519,0.196,0.684,0.297
		c0.164,0.101,0.247,0.249,0.247,0.442C-251.724-117.867-251.813-117.704-251.993-117.596z"/>
	<path d="M-254.392-113.664l-5.957,4.206l2.977,0.757c-1.416,2.179-5.564,6.639-15.807,6.639
		c-11.776-0.028-16.129-7.352-17.453-10.5l-1.844,0.775c1.479,3.515,6.32,11.693,19.294,11.724c11.981,0,16.492-5.771,17.833-8.125
		l2.568,0.653L-254.392-113.664z"/>
</g>
<g>
</g>
<g>
</g>
<g>
</g>
<g>
</g>
<g>
</g>
<g>
</g>
<g>
</g>
<g>
</g>
<g>
</g>
<g>
</g>
<g>
</g>
<g>
</g>
<g>
</g>
<g>
</g>
<g>
</g>
</svg>
