<?xml version="1.0" encoding="iso-8859-1"?>
<!-- Generator: Adobe Illustrator 16.0.0, SVG Export Plug-In . SVG Version: 6.00 Build 0)  -->
<!DOCTYPE svg PUBLIC "-//W3C//DTD SVG 1.1//EN" "http://www.w3.org/Graphics/SVG/1.1/DTD/svg11.dtd">
<svg version="1.1" id="Layer_1" xmlns="http://www.w3.org/2000/svg" xmlns:xlink="http://www.w3.org/1999/xlink" x="0px" y="0px"
	 width="44.867px" height="40.873px" viewBox="0 0 44.867 40.873" style="enable-background:new 0 0 44.867 40.873;"
	 xml:space="preserve">
<g>
	<path d="M80.986,107.383c-1.244-2.008-2.152-5.083-2.152-8.371c0-9.856,8.018-17.874,17.873-17.874
		c2.029,0,3.974,0.356,5.793,0.982l-2.17-2.636c-1.177-0.218-2.385-0.347-3.623-0.347c-10.958,0-19.873,8.916-19.873,19.874
		c0,3.66,1.012,7.081,2.433,9.387L80.986,107.383z"/>
	<path d="M114.024,94.605c0.36,1.41,0.557,2.885,0.557,4.406c0,9.856-8.019,17.874-17.874,17.874c-4.185,0-8.028-1.454-11.072-3.875
		l-1.769,1.127c3.463,2.954,7.941,4.748,12.841,4.748c10.959,0,19.874-8.916,19.874-19.874c0-0.724-0.051-1.435-0.127-2.139
		L114.024,94.605z"/>
	<path d="M119.397,93.574c-0.248-1.183-5.137-8.079-5.137-8.079s4.154-4.012,4.428-4.489c0.273-0.477,1.325-1.542-0.015-2.644
		c-1.342-1.101-2.303-0.389-2.779,0.036c-0.476,0.427-4.044,3.623-4.044,3.623s-7.241-5.273-8.436-5.366
		c-1.196-0.093-1.993,0.975-1.993,0.975l7.366,7.426l-3.611,4.258l-3.224-0.941l-1.783,1.097c0,0,3.539,1.543,4.239,2.433
		c0.701,0.888,1.625,3.84,1.625,3.84l1.699-0.895l-0.793-3.885l4.098-3.263l7.025,7.705
		C118.063,95.406,119.646,94.757,119.397,93.574z"/>
	<path d="M102.857,93.077c-0.666-0.625-1.728-1.018-1.728-1.018c-8.801,8.551-19.783,17.97-22.172,18.273
		c-0.907,0.067-1.48-0.146-1.705-0.633c-0.255-0.555-0.563-0.917,0.087-1.57l-1.857-4.136c-1.772,1.782-2.859,5.211-1.863,7.377
		c0.868,1.887,2.735,2.973,5.061,2.973c0.188,0,0.381-0.007,0.575-0.021c4.727-0.352,20.071-14.933,24.662-19.394
		C103.917,94.928,103.523,93.702,102.857,93.077z"/>
</g>
<g>
</g>
<g>
</g>
<g>
</g>
<g>
</g>
<g>
</g>
<g>
</g>
<g>
</g>
<g>
</g>
<g>
</g>
<g>
</g>
<g>
</g>
<g>
</g>
<g>
</g>
<g>
</g>
<g>
</g>
</svg>
