<?xml version="1.0" encoding="iso-8859-1"?>
<!-- Generator: Adobe Illustrator 16.0.0, SVG Export Plug-In . SVG Version: 6.00 Build 0)  -->
<!DOCTYPE svg PUBLIC "-//W3C//DTD SVG 1.1//EN" "http://www.w3.org/Graphics/SVG/1.1/DTD/svg11.dtd">
<svg version="1.1" id="Layer_1" xmlns="http://www.w3.org/2000/svg" xmlns:xlink="http://www.w3.org/1999/xlink" x="0px" y="0px"
	 width="44.867px" height="40.873px" viewBox="0 0 44.867 40.873" style="enable-background:new 0 0 44.867 40.873;"
	 xml:space="preserve">
<g>
	<path d="M118.73,902.938c0-13.438-10.934-24.373-24.373-24.374l0,0h-0.001h-0.001c-13.439,0-24.373,10.935-24.373,24.374
		c0,0.056,0.004,0.109,0.005,0.165c-0.001,0.028-0.005,0.057-0.005,0.086c0,0.093,0.01,0.184,0.014,0.275
		c0.281,13.184,11.075,23.824,24.32,23.846c0.014,0,0.027,0.002,0.041,0.002s0.028-0.002,0.043-0.002
		c13.244-0.024,24.035-10.664,24.317-23.846c0.003-0.092,0.013-0.183,0.013-0.275c0-0.029-0.004-0.058-0.004-0.086
		C118.727,903.047,118.73,902.994,118.73,902.938z M116.063,897.514c-2.325-2.302-6.041-4.162-10.627-5.317
		c-1.135-4.684-2.998-8.488-5.316-10.876C107.945,883.409,114.094,889.641,116.063,897.514z M95.357,880.676
		c3.303,0.729,6.203,5.023,7.851,11.029c-2.44-0.467-5.079-0.744-7.851-0.798V880.676z M93.357,880.676v10.231
		c-2.772,0.054-5.41,0.331-7.851,0.797C87.154,885.699,90.055,881.406,93.357,880.676z M88.596,881.32
		c-2.318,2.388-4.182,6.192-5.316,10.877c-4.587,1.155-8.303,3.015-10.629,5.317C74.619,889.64,80.77,883.407,88.596,881.32z
		 M82.809,894.424c-0.455,2.492-0.711,5.188-0.738,8.015H72.053C72.605,899.091,76.818,896.129,82.809,894.424z M82.088,904.439
		c0.078,2.663,0.363,5.195,0.824,7.543c-5.744-1.615-9.874-4.383-10.75-7.543H82.088z M72.838,909.05
		c2.36,2.239,6.053,4.044,10.579,5.165c1.144,4.438,2.949,8.044,5.178,10.34C80.998,922.529,74.985,916.597,72.838,909.05z
		 M93.357,925.2c-3.205-0.707-6.029-4.771-7.7-10.498c2.397,0.449,4.985,0.715,7.7,0.768V925.2z M93.357,913.47
		c-2.92-0.063-5.713-0.398-8.264-0.95c-0.561-2.489-0.91-5.222-1.002-8.081l-0.021-2c0.031-3.022,0.355-5.918,0.912-8.559
		c2.58-0.566,5.412-0.91,8.375-0.974h2c2.963,0.063,5.795,0.408,8.375,0.974c0.557,2.641,0.881,5.536,0.912,8.559l-0.021,2
		c-0.092,2.858-0.441,5.592-1.002,8.081c-2.551,0.552-5.344,0.887-8.264,0.95H93.357z M95.357,925.2v-9.73
		c2.715-0.053,5.303-0.319,7.7-0.768C101.387,920.428,98.563,924.492,95.357,925.2z M100.12,924.554
		c2.229-2.296,4.034-5.902,5.178-10.339c4.526-1.122,8.218-2.926,10.577-5.165C113.729,916.596,107.716,922.528,100.12,924.554z
		 M105.803,911.982c0.461-2.348,0.746-4.881,0.824-7.543h9.924C115.676,907.598,111.547,910.367,105.803,911.982z M106.645,902.439
		c-0.027-2.826-0.283-5.521-0.738-8.015c5.99,1.705,10.201,4.667,10.756,8.015H106.645z"/>
</g>
<g>
	<path d="M98.531,900.974c-0.683-0.444-1.349-0.666-1.998-0.666c-0.99,0-1.701,0.523-2.134,1.571h3.876l-0.632,1.52h-3.518
		c-0.012,0.057-0.017,0.113-0.017,0.17c0,0.058,0,0.12,0,0.188c0,0.079,0,0.153,0,0.222c0,0.058,0.005,0.114,0.017,0.171h3.228
		l-0.632,1.52h-2.288c0.421,1.024,1.172,1.536,2.254,1.536c0.717,0,1.508-0.284,2.373-0.854v3.176
		c-0.785,0.353-1.725,0.529-2.817,0.529c-1.366,0-2.526-0.393-3.483-1.178c-0.944-0.809-1.593-1.878-1.946-3.21h-1.331l0.632-1.52
		h0.478c-0.012-0.046-0.017-0.097-0.017-0.153c0-0.068,0-0.143,0-0.223c0-0.079,0-0.147,0-0.205c0-0.067,0.005-0.125,0.017-0.17
		h-1.144l0.632-1.52h0.733c0.364-1.366,1.024-2.442,1.98-3.228c0.979-0.808,2.151-1.212,3.518-1.212
		c1.081,0,2.226,0.318,3.432,0.956L98.531,900.974z"/>
</g>
<g>
</g>
<g>
</g>
<g>
</g>
<g>
</g>
<g>
</g>
<g>
</g>
<g>
</g>
<g>
</g>
<g>
</g>
<g>
</g>
<g>
</g>
<g>
</g>
<g>
</g>
<g>
</g>
<g>
</g>
</svg>
