<?xml version="1.0" encoding="iso-8859-1"?>
<!-- Generator: Adobe Illustrator 16.0.0, SVG Export Plug-In . SVG Version: 6.00 Build 0)  -->
<!DOCTYPE svg PUBLIC "-//W3C//DTD SVG 1.1//EN" "http://www.w3.org/Graphics/SVG/1.1/DTD/svg11.dtd">
<svg version="1.1" id="Layer_1" xmlns="http://www.w3.org/2000/svg" xmlns:xlink="http://www.w3.org/1999/xlink" x="0px" y="0px"
	 width="48.625px" height="49.661px" viewBox="0 0 48.625 49.661" style="enable-background:new 0 0 48.625 49.661;"
	 xml:space="preserve">
<polygon style="fill:none;" points="14.932,11.871 15.113,11.162 14.586,11.036 14.002,11.314 14.362,12.053 "/>
<polygon style="fill:none;" points="16.518,13.624 15.781,13.624 15.267,14.18 15.183,14.735 15.572,14.945 "/>
<polygon style="fill:none;" points="17.102,13.443 17.102,12.984 16.908,12.984 16.908,12.719 16.031,12.719 15.391,12.984 
	15.267,13.304 15.768,13.443 "/>
<polygon style="fill:none;" points="17.338,12.914 17.338,13.443 17.797,13.332 "/>
<path style="fill:none;" d="M46.852,19.832c-0.027-0.128-0.058-0.254-0.088-0.381l-0.07,0.082L46.852,19.832z"/>
<polygon style="fill:none;" points="13.27,7.811 13.27,7.463 12.472,7.463 12.43,7.631 11.942,7.631 11.942,7.672 11.942,8.117 
	13.041,8.117 "/>
<polygon style="fill:none;" points="18.799,14.793 18.799,14.361 17.951,14.11 17.895,14.11 17.895,14.512 18.09,14.793 "/>
<path style="fill:none;" d="M35.318,10.174l0.205-0.314l0.732-0.148l0.185,0.891l0.39,0.63l0.26,0.298l0.472,0.184l-0.444,0.529
	l-0.861,0.084h-0.65l0.074-0.77l0.539-0.111l-0.046-0.361l-0.503-0.316l-0.352-0.24V10.174z M34.114,11.565l0.445-0.714l0.601-0.139
	l0.428,0.186l-0.037,0.481l-0.918,0.649h-0.519V11.565z M21.992,14.31l-0.465,0.038l0.025-0.322l0.207-0.259l0.279,0.219
	L21.992,14.31z M23.621,13.739l-0.317,0.027l-0.064,0.308l-0.245,0.151l-0.391,0.032c-0.014-0.092-0.022-0.162-0.022-0.162h-0.152
	v-0.329h0.64l0.132-0.341l0.255-0.005l0.29,0.06L23.621,13.739z"/>
<path style="fill:none;" d="M44.785,14.612v0.985l0.432-0.059l0.231,0.009c-0.165-0.37-0.339-0.734-0.522-1.094L44.785,14.612z"/>
<path style="fill:none;" d="M13.25,9.16c0,0,0.042-0.486,0-0.486c-0.041,0-0.529,0.082-0.529,0.082l-0.778,0.223l0.209,0.25
	L13.25,9.16z"/>
<polygon style="fill:none;" points="18.688,13.767 18.347,13.555 18.145,13.767 18.415,13.992 "/>
<path style="fill:none;" d="M16.964,14.361l0.416-0.078l0.335-0.215v-0.444h-0.751C16.964,13.693,16.964,14.361,16.964,14.361z"/>
<path style="fill:none;" d="M47.66,15.598l-0.073-0.41l-0.132-0.055c0.064,0.153,0.121,0.311,0.184,0.465H47.66z"/>
<polygon style="fill:none;" points="16.964,14.75 16.629,14.778 16.518,15.265 17.228,15.265 17.547,14.945 17.547,14.512 
	17.033,14.583 "/>
<path style="fill:none;" d="M6.211,12.654c-0.316,0.497-0.614,1.006-0.891,1.529l0.926-1.125L6.211,12.654z"/>
<path style="fill:none;" d="M40.313,10.856l0.096,0.319l1.53,0.014l0.438-0.651c-0.351-0.433-0.72-0.849-1.102-1.254l-0.004,1.086
	L40.313,10.856z"/>
<polygon points="36.173,11.084 36.219,11.445 35.68,11.557 35.605,12.326 36.256,12.326 37.117,12.242 37.562,11.713 37.09,11.529 
	36.83,11.231 36.44,10.602 36.256,9.711 35.523,9.859 35.318,10.174 35.318,10.527 35.67,10.768 "/>
<polygon points="35.551,11.38 35.588,10.898 35.16,10.713 34.56,10.852 34.114,11.565 34.114,12.029 34.633,12.029 "/>
<path d="M23.2,13.426l-0.132,0.341h-0.64v0.329h0.152c0,0,0.009,0.07,0.022,0.162l0.391-0.032l0.245-0.151l0.064-0.308l0.317-0.027
	l0.124-0.259l-0.29-0.06L23.2,13.426z"/>
<polygon points="21.553,14.025 21.527,14.348 21.992,14.31 22.039,13.985 21.76,13.767 "/>
<path d="M4.521,15.152v0.696c0.243-0.568,0.512-1.122,0.799-1.665L4.521,15.152z"/>
<g>
	<rect x="8.043" y="37.245" width="2.916" height="12.416"/>
	<rect x="12.71" y="40.313" width="2.916" height="9.349"/>
	<rect x="17.543" y="37.245" width="2.916" height="12.416"/>
	<rect x="22.21" y="40.313" width="2.916" height="9.349"/>
	<rect x="27.043" y="37.245" width="2.916" height="12.416"/>
	<rect x="31.71" y="40.313" width="2.916" height="9.349"/>
	<rect x="36.543" y="37.806" width="2.916" height="11.855"/>
	<path d="M41.955,26.788l-5.945,2.274l1.251,0.977l-3.732,4.198l-4.97-3.437l-4.312,3.163l-5.725-4.006l-4.211,3.637
		c-4.214-2.535-4.244-2.535-4.728-2.535v1.629l-0.625,1.232c0.306,0.155,2.649,1.548,4.737,2.805l0.932,0.561l4.088-3.531l5.572,3.9
		l4.321-3.171l5.397,3.731l5.622-6.326l2.127,1.661L41.955,26.788z"/>
	<path d="M48.619,24.063c-0.008-0.712-0.043-1.417-0.11-2.112c-0.225-2.317-0.779-4.538-1.61-6.62
		c-0.063-0.154-0.119-0.312-0.184-0.465c-1.106-2.613-2.66-4.991-4.561-7.045c-0.123-0.135-0.25-0.266-0.377-0.396
		c-0.361-0.373-0.729-0.737-1.111-1.086C36.345,2.402,30.604,0,24.313,0C17.969,0,12.186,2.445,7.852,6.44
		C6.843,7.371,5.914,8.388,5.072,9.476C1.896,13.584,0,18.73,0,24.313c0,6.371,2.467,12.174,6.49,16.514V37.72
		C3.673,33.984,2,29.341,2,24.313c0-3.097,0.637-6.049,1.781-8.731v-0.696l0.799-0.969c0.276-0.523,0.574-1.032,0.891-1.529
		l0.035,0.404L4.58,13.916c-0.287,0.543-0.556,1.097-0.799,1.665v1.27l0.928,0.446v1.765l0.889,1.517l0.724,0.111l0.093-0.52
		l-0.853-1.316l-0.167-1.279h0.501l0.212,1.316l1.232,1.799l-0.318,0.581l0.783,1.198l1.947,0.482v-0.314l0.778,0.11l-0.073,0.556
		l0.611,0.113l0.945,0.258l1.336,1.521l1.705,0.129l0.166,1.391l-1.168,0.816l-0.055,1.242l-0.167,0.76l1.189,1.49l3.98-3.533
		l4.858,3.791l3.345-2.371l-0.319-0.525l-1.966-0.02l-1.558-0.594l-0.074-1.111l-0.52-0.909l-1.408-0.02l-0.816-1.278l-0.723-0.353
		l-0.037,0.39l-1.316,0.078l-0.482-0.672l-1.372-0.278l-1.131,1.308l-1.78-0.303l-0.129-2.006l-1.299-0.222l0.52-0.983l-0.148-0.566
		l-1.707,1.142l-1.074-0.131L9.48,21.018l0.234-0.865l0.592-1.091l1.363-0.69l2.632-0.001l-0.007,0.803l0.945,0.44l-0.075-1.371
		l0.682-0.687l1.376-0.903l0.094-0.637l1.372-1.428l1.459-0.807l-0.129-0.106l0.988-0.93l0.362,0.096l0.166,0.208l0.375-0.416
		l0.092-0.041l-0.412-0.057l-0.416-0.139v-0.404l0.221-0.18h0.488l0.223,0.098l0.193,0.389l0.236-0.035v-0.035l0.068,0.023
		l0.684-0.105l0.097-0.334l0.39,0.098v0.361l-0.362,0.25h0.001l0.053,0.396l1.24,0.383c0,0,0.001,0.006,0.002,0.015l0.285-0.024
		l0.02-0.537l-0.982-0.447l-0.056-0.258l0.815-0.277l0.036-0.78l-0.852-0.519l-0.056-1.316L22.75,9.73h-0.428l0.112-1.001
		l-1.591-0.376l-0.657,0.497v1.517l-1.183,0.374l-0.474,0.987l-0.514,0.084v-1.265l-1.112-0.153l-0.556-0.363l-0.224-0.818
		l1.989-1.164l0.974-0.297l0.098,0.654l0.542-0.029l0.042-0.328l0.566-0.082l0.01-0.114l-0.243-0.101l-0.056-0.348l0.697-0.059
		l0.421-0.438l0.022-0.032l0.006,0.002l0.129-0.132l1.465-0.186l0.647,0.551l-1.698,0.904l2.161,0.51l0.28-0.723h0.945l0.334-0.631
		l-0.668-0.166V6.209l-2.095-0.928l-1.446,0.166l-0.816,0.428l0.056,1.037l-0.853-0.129l-0.132-0.574l0.817-0.742l-1.483-0.074
		L18.41,5.521l-0.185,0.501l0.556,0.094L18.67,6.672l-0.945,0.056l-0.148,0.37l-1.371,0.037c0,0-0.037-0.777-0.094-0.777
		c-0.055,0,1.075-0.02,1.075-0.02l0.817-0.797l-0.446-0.223l-0.593,0.575L15.98,5.838l-0.592-0.816h-1.262l-1.316,0.982h1.207
		l0.109,0.354l-0.314,0.296l1.335,0.037l0.204,0.481l-1.503-0.055l-0.073-0.371L12.83,6.542l-0.501-0.278l-1.125,0.01
		C14.888,3.59,19.417,2,24.313,2c5.643,0,10.798,2.109,14.73,5.574l-0.265,0.475L37.75,8.451l-0.434,0.472l0.1,0.549l0.53,0.073
		l0.321,0.801l0.914-0.369l0.152,1.07h-0.277l-0.752-0.111l-0.833,0.14l-0.808,1.14l-1.154,0.182l-0.166,0.987l0.487,0.115
		l-0.14,0.635l-1.146-0.229l-1.052,0.229l-0.222,0.585l0.182,1.228l0.617,0.288l1.033-0.006l0.699-0.063l0.215-0.556l1.092-1.42
		l0.717,0.146l0.709-0.639l0.132,0.5l1.742,1.176l-0.212,0.285l-0.786-0.042l0.302,0.429l0.484,0.105l0.566-0.236l-0.012-0.682
		l0.252-0.125l-0.201-0.215l-1.162-0.648l-0.307-0.86h0.967l0.307,0.306l0.834,0.717l0.035,0.867l0.861,0.918l0.32-1.258
		l0.598-0.326l0.112,1.029l0.583,0.64l1.163-0.02c0.226,0.579,0.427,1.168,0.604,1.769l-0.125,0.114h-1.78l-1.084-0.808
		l-1.141,0.111v0.696h-0.362l-0.389-0.278l-1.976-0.5v-1.28l-2.504,0.195l-0.777,0.417h-0.993l-0.488-0.049l-1.207,0.67v1.262
		l-2.466,1.779l0.204,0.76h0.501L31,21.839l-0.353,0.13L30.63,23.86l2.131,2.428h0.929l0.056-0.147h1.669l0.48-0.445h0.947
		l0.519,0.52l0.712,0.074l5.973-1.757l-0.68,9.749l-1.731,1.403l0.001,5.644c1.724-1.755,3.194-3.76,4.326-5.97
		c0.861-1.682,1.533-3.476,1.984-5.354c0.115-0.476,0.215-0.956,0.301-1.442c0.244-1.381,0.379-2.799,0.379-4.25
		C48.625,24.229,48.62,24.146,48.619,24.063z M16.807,14.678l-0.319,0.319h-0.71l0.111-0.486l0.335-0.028l0.069-0.167l0.514-0.071
		V14.678z M16.975,13.801l-0.335,0.215l-0.416,0.078c0,0,0-0.668,0-0.737h0.751V13.801z M17.606,13.287l0.341,0.212l-0.272,0.226
		l-0.271-0.226L17.606,13.287z M17.154,13.843h0.057l0.848,0.251v0.432H17.35l-0.195-0.281V13.843z M16.598,12.646l0.459,0.418
		l-0.459,0.111V12.646z M14.65,12.717l0.641-0.266h0.877v0.266h0.193v0.459h-1.334l-0.501-0.14L14.65,12.717z M14.526,13.912
		l0.515-0.556h0.736l-0.945,1.321l-0.39-0.21L14.526,13.912z M13.846,10.769l0.527,0.126l-0.182,0.709l-0.569,0.182l-0.36-0.738
		L13.846,10.769z M12.51,8.893l-1.099,0.068l-0.209-0.25l0.778-0.223c0,0,0.488-0.082,0.529-0.082
		C12.552,8.406,12.51,8.893,12.51,8.893z M11.689,7.363l0.042-0.168h0.798v0.348L12.301,7.85h-1.099V7.404V7.363H11.689z
		 M41.198,10.922l-1.53-0.014l-0.096-0.319l0.958-0.486l0.004-1.086c0.382,0.405,0.751,0.821,1.102,1.254L41.198,10.922z
		 M44.477,15.271l-0.432,0.059v-0.985l0.141-0.158c0.184,0.359,0.357,0.724,0.522,1.094L44.477,15.271z M45.953,19.266l0.07-0.082
		c0.03,0.127,0.061,0.253,0.088,0.381L45.953,19.266z"/>
</g>
<g>
</g>
<g>
</g>
<g>
</g>
<g>
</g>
<g>
</g>
<g>
</g>
<g>
</g>
<g>
</g>
<g>
</g>
<g>
</g>
<g>
</g>
<g>
</g>
<g>
</g>
<g>
</g>
<g>
</g>
</svg>
