<?xml version="1.0" encoding="iso-8859-1"?>
<!-- Generator: Adobe Illustrator 16.0.0, SVG Export Plug-In . SVG Version: 6.00 Build 0)  -->
<!DOCTYPE svg PUBLIC "-//W3C//DTD SVG 1.1//EN" "http://www.w3.org/Graphics/SVG/1.1/DTD/svg11.dtd">
<svg version="1.1" id="Layer_1" xmlns="http://www.w3.org/2000/svg" xmlns:xlink="http://www.w3.org/1999/xlink" x="0px" y="0px"
	 width="47.987px" height="42.418px" viewBox="0 0 47.987 42.418" style="enable-background:new 0 0 47.987 42.418;"
	 xml:space="preserve">
<path style="fill:none;" d="M11.084,19.579l-0.623,0.232l-0.171-0.465l0.361-0.51l0.502,0.1L11.084,19.579z M20.623,23.098
	l0.033-0.189l0.375-0.055l0.031,0.29l-0.23-0.026v0.17h-0.329v0.144h-0.319v-0.287h0.021L20.623,23.098z M20.369,22.961
	l-0.215-0.067v-0.148h0.277L20.369,22.961z M20.251,21.041l0.01,1.333l-0.3,0.027v-0.452l-0.288-0.103l0.055,0.637h-0.37v-0.999
	h0.179l-0.009-0.163L20.251,21.041z M20.015,22.804v0.157l-0.148,0.023v0.159h-0.206v0.129l-0.303,0.03v-0.159l0.195-0.183
	l0.133-0.157H20.015z M17.078,20.568l1.433-0.776l0.19-0.17l0.159-0.427h0.247l0.082,0.422l0.169,0.071v1.353l-0.169,0.11v0.18
	l-0.272,0.247l-0.154,0.39h-1.206l-0.478-0.632V20.568z M19.188,22.961v0.183h-0.329v-0.183H19.188z M15.848,22.55h0.383v-0.137
	l-0.288-0.096l-2.012-2.464l0.343-0.274l1.411,1.271l-0.016,0.207l0.301,0.397l1.095-0.014l0.041,0.506l-0.397,0.042l-0.164-0.069
	l0.041,0.548l1.014-0.027l0.82,0.521l-2.478-0.107L15.848,22.55z M26.348,27.104l-0.479,1.093l-1.943,1.828l-2.017-0.07
	l-0.658-1.446l-1.775,0.072l-2.19,0.753v-0.397l0.452-0.438l0.055-2.245l0.752-0.52l0.675-0.009l1.273-1.45l0.804-0.061v0.301h0.274
	l0.671-0.953h0.934l0.794,0.478l-0.373,0.365l-0.444-0.091l0.03,0.601l0.233,0.141l0.836,0.062l0.179-1.512l0.438,0.021l0.486,0.834
	l0.056,1.205l0.737,0.632L26.348,27.104z M25.759,23.11h0.37v0.316H25.39v-0.781l-0.424,0.042l-0.398,0.423l-1.095,0.069
	l-0.014-0.507h0.329l-0.014-0.247l-0.507-0.266l-0.903-0.13l-0.418-0.514l0.623-0.623l0.438,0.26l-0.034,0.479l0.458-0.012
	l0.494-0.261l1.765,0.801L25.759,23.11z"/>
<path style="fill:none;" d="M3.124,11.885l-0.357,0.309l-0.048,0.219l0.678,0.049l0.083,0.129l0.431,0.034l0.186-0.177v-0.288
	l-0.364-0.267v-0.41l-0.706-0.472c-0.063,0.137-0.125,0.272-0.185,0.409l0.281,0.205V11.885z"/>
<path style="fill:none;" d="M3.596,10.653l-0.021-0.329l-0.169-0.07c-0.067,0.125-0.131,0.251-0.194,0.378L3.596,10.653z"/>
<polygon points="17.601,22.44 16.587,22.468 16.546,21.92 16.71,21.989 17.107,21.947 17.066,21.441 15.971,21.455 15.67,21.058 
	15.686,20.851 14.275,19.579 13.932,19.854 15.943,22.317 16.231,22.413 16.231,22.55 15.848,22.55 15.943,22.854 18.421,22.961 "/>
<polygon points="18.762,21.968 18.916,21.578 19.188,21.331 19.188,21.151 19.357,21.041 19.357,19.688 19.188,19.617 
	19.106,19.195 18.859,19.195 18.701,19.622 18.511,19.792 17.078,20.568 17.078,21.336 17.556,21.968 "/>
<polygon points="19.357,21.484 19.357,22.483 19.728,22.483 19.672,21.847 19.96,21.949 19.96,22.401 20.261,22.374 20.251,21.041 
	19.527,21.321 19.536,21.484 "/>
<polygon points="10.29,19.347 10.461,19.812 11.084,19.579 11.152,18.937 10.65,18.837 "/>
<polygon points="20.153,22.894 20.369,22.961 20.43,22.745 20.153,22.745 "/>
<rect x="18.859" y="22.961" width="0.329" height="0.183"/>
<polygon points="19.553,22.961 19.357,23.144 19.357,23.303 19.661,23.272 19.661,23.144 19.866,23.144 19.866,22.984 
	20.015,22.961 20.015,22.804 19.686,22.804 "/>
<polygon points="20.184,23.144 20.184,23.431 20.502,23.431 20.502,23.287 20.831,23.287 20.831,23.117 21.062,23.144 
	21.031,22.854 20.656,22.908 20.623,23.098 20.205,23.144 "/>
<rect x="28.504" y="13.958" width="14.083" height="1"/>
<rect x="28.504" y="16.75" width="14.083" height="1"/>
<rect x="28.504" y="19.458" width="14.083" height="1"/>
<rect x="28.504" y="22.25" width="14.083" height="1"/>
<rect x="28.504" y="24.916" width="14.083" height="1"/>
<rect x="28.504" y="27.708" width="14.083" height="1"/>
<rect x="28.504" y="30.416" width="14.083" height="1"/>
<rect x="28.504" y="33.208" width="7.66" height="1"/>
<path d="M42.687,8.065H28.171c-2.922,0-5.3,2.378-5.3,5.301v23.751c0,2.923,2.378,5.301,5.3,5.301h14.515
	c2.922,0,5.3-2.378,5.3-5.301V13.366C47.987,10.443,45.609,8.065,42.687,8.065z M35.734,41.137c-0.708,0-1.281-0.573-1.281-1.281
	s0.574-1.281,1.281-1.281s1.281,0.573,1.281,1.281S36.441,41.137,35.734,41.137z M44.987,37.117H25.871V13.366
	c0-1.269,1.032-2.301,2.3-2.301h14.515c1.269,0,2.3,1.032,2.3,2.301V37.117z"/>
<g>
	<path d="M20.871,34.208c-0.941,0.168-1.904,0.271-2.892,0.271c-7.871,0-14.468-5.541-16.106-12.927l0.851-0.812l1.693-2.42
		l-0.328-0.151l-1.759,0.37l-0.453-0.226l-0.388-0.73c0.009-0.404,0.03-0.806,0.068-1.203l0.433,0.525l0.045,0.689l0.424,0.425
		l0.862-0.056l1.801-1.304l0.564-0.37l-0.011-0.451L5.075,15.76c0,0-2.108-0.993-2.108-1.036c0-0.045,0.013-0.854,0.013-0.854h0.465
		l0.069,0.59l0.978,0.562l1.117,0.055l2.424,0.396l0.567,0.356v0.555l-0.072,0.755l1.242,2.043l0.401,0.092l0.4-0.58l0.221-1.652
		l0.414-0.89l0.668-0.249l1.178,0.112l1.478,1.313v1.89l1.951,1.868l0.103-0.328l-1.581-2.259l0.164-0.658l0.836,0.947l0.466,0.05
		l0.613-0.407l-0.102-0.616l-1.012-0.814l-0.041-0.74l0.288-0.389l0.513,0.164l-0.041,0.349l0.293,0.452l0.261-0.186l-0.143-0.534
		l1.437-0.514l0.63-0.526l-0.096-0.951l-1.252-1.314l-0.021-1.067h0.555l1.725,1.314l0.486-0.13l-0.322-0.425l-0.924-0.561
		l0.055-0.835l1.095,0.002l0.089-1.034l-0.417-0.551l0.247-0.267l0.533,0.535l0.171-0.227L20.4,8.785L18.696,8.58L18.47,8.128
		l0.493-0.698l0.39,0.287l1.17,0.103l1.479-0.985l0.247,0.308l-0.329,0.515v0.513l0.646,0.528c0.203-0.243,0.425-0.468,0.658-0.684
		l-0.646-0.604l1.272-0.082v-0.37l0.616-0.123l-0.472-0.325l0.02-0.25l1.294,0.209l0.246-0.209L23.808,5.52l-6.365-0.328
		L16.847,4.89l-0.945-0.14l-0.711-0.024l-0.644,0.651l-0.272-0.021L13.417,4.72h-2.525L9.721,4.021L9.139,4.058
		c2.558-1.63,5.589-2.579,8.84-2.579c4.415,0,8.421,1.753,11.385,4.587h2.043C28.112,2.354,23.321,0,17.979,0
		C13.183,0,8.822,1.892,5.596,4.965H5.594v0.001C5.39,5.16,5.189,5.359,4.995,5.563c-2.4,2.509-4.081,5.708-4.713,9.267
		c-0.021,0.12-0.045,0.238-0.064,0.358C0.075,16.099,0,17.029,0,17.979c0,2.441,0.491,4.77,1.376,6.894
		c2.709,6.503,9.13,11.086,16.603,11.086c0.987,0,1.948-0.101,2.892-0.255V34.208z M3.405,10.254l0.169,0.07l0.021,0.329
		l-0.385-0.021C3.274,10.505,3.338,10.379,3.405,10.254z M2.767,12.193l0.357-0.309v-0.26L2.842,11.42
		c0.06-0.137,0.122-0.272,0.185-0.409l0.706,0.472v0.41l0.364,0.267v0.288L3.91,12.624L3.479,12.59l-0.083-0.129l-0.678-0.049
		L2.767,12.193z"/>
</g>
<g>
	<polygon points="20.871,24.246 20.493,24.274 19.22,25.725 18.544,25.733 17.792,26.253 17.737,28.498 17.285,28.937 
		17.285,29.334 19.476,28.581 20.871,28.524 	"/>
</g>
<g>
</g>
<g>
</g>
<g>
</g>
<g>
</g>
<g>
</g>
<g>
</g>
<g>
</g>
<g>
</g>
<g>
</g>
<g>
</g>
<g>
</g>
<g>
</g>
<g>
</g>
<g>
</g>
<g>
</g>
</svg>
