<?xml version="1.0" encoding="iso-8859-1"?>
<!-- Generator: Adobe Illustrator 16.0.0, SVG Export Plug-In . SVG Version: 6.00 Build 0)  -->
<!DOCTYPE svg PUBLIC "-//W3C//DTD SVG 1.1//EN" "http://www.w3.org/Graphics/SVG/1.1/DTD/svg11.dtd">
<svg version="1.1" id="Layer_1" xmlns="http://www.w3.org/2000/svg" xmlns:xlink="http://www.w3.org/1999/xlink" x="0px" y="0px"
	 width="33.715px" height="45.878px" viewBox="0 0 33.715 45.878" style="enable-background:new 0 0 33.715 45.878;"
	 xml:space="preserve">
<g>
	<path d="M257.926,608.839c-0.029-1.889-0.313-3.717-0.822-5.451c-0.187-0.64-0.403-1.266-0.649-1.88
		c-0.501-1.244-1.119-2.429-1.842-3.539c-0.328-0.503-0.677-0.991-1.047-1.464c-1.014-1.294-2.178-2.463-3.465-3.483
		c-0.442-0.348-0.896-0.682-1.365-0.994c-3.26-2.17-7.167-3.438-11.368-3.438c-3.719,0-7.206,0.997-10.219,2.73
		c-0.495,0.284-0.979,0.588-1.445,0.911c-1.323,0.915-2.536,1.98-3.611,3.173c-0.415,0.461-0.811,0.938-1.183,1.435
		c-1.03,1.373-1.891,2.879-2.554,4.486c-0.255,0.615-0.479,1.244-0.673,1.887c-0.522,1.726-0.819,3.546-0.866,5.428
		c-0.005,0.172-0.013,0.342-0.013,0.515c0,0.63,0.032,1.25,0.088,1.864c0.207,2.291,0.792,4.475,1.69,6.489
		c0.452,1.01,0.983,1.976,1.585,2.894c0,0,5.28,2.4,6.194,2.685c0.024,0.034,0.048,0.063,0.071,0.098l0.959-1.633
		c-2.966-3.609-4.151-10.916-4.126-12.401c0.007-0.442,0.039-0.882,0.083-1.317c0.697,0.387,7.17,3.371,13.771,3.359
		c6.88-0.012,13.898-3.036,14.665-3.471c0.05,0.473,0.087,0.947,0.094,1.429c0.024,1.449-1.537,10.167-4.319,12.687l1.144,1.452
		c0.593-0.17,5.302-2.069,5.302-2.069c0.629-0.865,1.193-1.779,1.684-2.739c1.136-2.224,1.884-4.679,2.142-7.275
		c0.068-0.674,0.103-1.357,0.103-2.05C257.933,609.049,257.927,608.945,257.926,608.839z M233.423,590.699
		c0.153-0.033,0.31-0.063,0.465-0.093c-0.651,1.144-1.531,2.814-2.407,4.866c-0.621-0.298-1.209-0.624-1.727-0.995
		c1.975-2.326,3.642-3.728,3.683-3.761L233.423,590.699z M229.785,591.88c-0.411,0.437-0.852,0.923-1.308,1.459
		c-0.171-0.182-0.351-0.361-0.497-0.553C228.562,592.452,229.167,592.154,229.785,591.88z M226.572,593.682
		c0.249,0.335,0.531,0.655,0.836,0.965c-0.959,1.229-1.934,2.641-2.807,4.199c-0.634-0.585-1.189-1.207-1.643-1.868
		C224.016,595.73,225.229,594.622,226.572,593.682z M218.524,610.24c-0.021-0.359-0.033-0.722-0.033-1.086
		c0-1.54,0.189-3.037,0.539-4.472c0.812,0.787,1.729,1.518,2.732,2.187c-0.105,0.738-0.173,1.489-0.185,2.252
		c-0.02,1.151,0.075,2.273,0.251,3.362C220.625,611.805,219.514,611.058,218.524,610.24z M224.925,620.833
		c-1.225-0.462-2.392-0.983-3.484-1.564c-1.287-2.02-2.198-4.296-2.641-6.735c1.068,0.759,2.237,1.448,3.484,2.067
		C222.899,616.892,223.857,618.994,224.925,620.833z M222.099,605.092c-0.949-0.683-1.799-1.425-2.528-2.223
		c0.572-1.615,1.358-3.129,2.325-4.51c0.544,0.714,1.188,1.384,1.912,2.01C223.095,601.845,222.495,603.426,222.099,605.092z
		 M228.276,608.161c-1.695-0.553-3.259-1.257-4.66-2.08c0.336-1.629,0.892-3.188,1.575-4.647c1.116,0.77,2.372,1.44,3.741,1.991
		C228.61,604.949,228.378,606.537,228.276,608.161z M225.954,599.937c0.849-1.544,1.811-2.949,2.757-4.172
		c0.645,0.475,1.361,0.896,2.139,1.265c-0.563,1.453-1.095,3.051-1.532,4.748C228.076,601.264,226.947,600.642,225.954,599.937z
		 M236.068,608.503c-0.005,0.348-0.01,0.695-0.013,1.043c-2.146-0.096-4.197-0.413-6.118-0.907c0.079-1.581,0.297-3.136,0.605-4.635
		c1.737,0.549,3.622,0.91,5.597,1.058C236.112,606.18,236.088,607.33,236.068,608.503z M236.185,603.375
		c-1.865-0.144-3.638-0.487-5.264-1.007c0.43-1.675,0.954-3.258,1.511-4.697c1.213,0.414,2.528,0.703,3.917,0.836
		C236.29,600.006,236.234,601.642,236.185,603.375z M236.417,596.818c-1.191-0.118-2.313-0.368-3.351-0.709
		c1.202-2.814,2.412-4.903,2.95-5.782c0.24-0.016,0.483-0.021,0.725-0.029C236.671,591.508,236.545,593.814,236.417,596.818z
		 M249.078,594.365c1.298,1.029,2.46,2.224,3.449,3.555c-0.479,0.55-1.032,1.067-1.644,1.553c-0.826-1.562-1.763-2.987-2.703-4.244
		C248.502,594.953,248.804,594.665,249.078,594.365z M247.728,593.384c-0.177,0.187-0.377,0.358-0.576,0.532
		c-0.513-0.625-1.012-1.192-1.479-1.699C246.382,592.567,247.071,592.953,247.728,593.384z M241.83,590.82
		c0.448,0.39,2.099,1.873,3.936,4.106c-0.61,0.372-1.278,0.702-2.004,0.978c-0.915-2.2-1.853-4-2.545-5.222
		C241.423,590.725,241.627,590.77,241.83,590.82z M238.431,590.316c0.213,0.013,0.425,0.026,0.636,0.045
		c0.566,0.928,1.828,3.114,3.06,6.048c-1.25,0.314-2.6,0.494-4.017,0.494c-0.003,0-0.005,0-0.007,0
		C238.232,593.834,238.361,591.499,238.431,590.316z M238.034,598.588c0.025,0,0.05,0.003,0.075,0.003
		c1.638,0,3.199-0.224,4.642-0.611c0.546,1.445,1.057,3.027,1.467,4.698c-1.893,0.497-3.95,0.776-6.108,0.776
		c-0.08,0-0.159-0.004-0.239-0.005C237.92,601.72,237.977,600.087,238.034,598.588z M237.743,609.572
		c0.003-0.347,0.008-0.694,0.013-1.04c0.02-1.158,0.044-2.292,0.071-3.396c0.094,0.001,0.187,0.006,0.282,0.006
		c2.278,0,4.457-0.294,6.471-0.823c0.274,1.391,0.469,2.827,0.542,4.289C242.831,609.208,240.345,609.548,237.743,609.572z
		 M244.375,597.457c0.876-0.34,1.682-0.753,2.42-1.22c0.936,1.25,1.871,2.673,2.681,4.226c-1.086,0.675-2.304,1.255-3.631,1.72
		C245.43,600.5,244.921,598.911,244.375,597.457z M246.782,608.116c-0.095-1.466-0.294-2.902-0.57-4.289
		c1.448-0.497,2.785-1.124,3.987-1.856c0.556,1.268,1.009,2.604,1.304,3.992C250.091,606.816,248.505,607.542,246.782,608.116z
		 M251.631,600.998c0.68-0.516,1.305-1.068,1.856-1.657c0.704,1.152,1.285,2.387,1.73,3.682c-0.649,0.689-1.392,1.335-2.205,1.937
		C252.674,603.576,252.196,602.25,251.631,600.998z M252.797,620.012c-0.872,0.399-1.79,0.757-2.733,1.085
		c1.15-1.938,2.19-4.179,2.835-6.637c1.061-0.541,2.079-1.12,3.009-1.764C255.396,615.378,254.315,617.86,252.797,620.012z
		 M256.198,610.416c-0.87,0.701-1.829,1.349-2.861,1.943c0.161-1.051,0.248-2.13,0.23-3.238c-0.014-0.808-0.089-1.6-0.205-2.38
		c0.863-0.59,1.663-1.224,2.38-1.901c0.326,1.387,0.503,2.83,0.503,4.314C256.245,609.579,256.227,609.999,256.198,610.416z"/>
	<path d="M233.775,620.498c1.451,0,2.701-0.817,3.356-2.006c0.654,1.188,1.905,2.006,3.356,2.006c2.121,0,3.846-1.726,3.846-3.847
		c0-2.12-1.725-3.846-3.846-3.846c-1.451,0-2.702,0.817-3.356,2.006c-0.655-1.188-1.905-2.006-3.356-2.006
		c-2.122,0-3.847,1.726-3.847,3.846C229.929,618.772,231.653,620.498,233.775,620.498z"/>
	<path d="M244.085,621.348c-0.139-0.324-0.388-0.443-0.644-0.429v-0.004h-5.716v0.007c-0.168,0.018-0.315,0.125-0.427,0.304
		c-0.144-0.225-0.353-0.319-0.57-0.307v-0.004h-5.716v0.007c-0.201,0.021-0.389,0.141-0.498,0.4
		c-0.676,1.596-1.351,3.189-2.025,4.784c-0.385,0.909,0.95,1.699,1.338,0.782c0.395-0.934,0.791-1.868,1.186-2.801v3.462
		c0,0.004-0.001,0.008-0.001,0.012c0,2.912,0,5.826,0,8.738c0,1.498,2.325,1.498,2.325,0c0-2.323,0-4.645,0-6.967h1.066
		c0,2.322,0,4.644,0,6.967c0,1.498,2.325,1.498,2.325,0c0-2.323,0-4.645,0-6.967c0-0.117,0-0.232,0-0.35
		c-1.068-0.897-3.643-3.213-3.643-4.696c0-1.258,1.022-2.281,2.28-2.281c0.762,0,1.454,0.376,1.873,0.985
		c0.419-0.609,1.11-0.985,1.873-0.985c1.258,0,2.281,1.023,2.281,2.281c0,1.503-2.616,3.839-3.669,4.718c0,2.432,0,4.863,0,7.295
		c0,1.498,2.325,1.498,2.325,0c0-2.323,0-4.645,0-6.967h1.066c0,2.322,0,4.644,0,6.967c0,1.498,2.325,1.498,2.325,0
		c0-2.323,0-4.645,0-6.967c0-0.591,0-1.182,0-1.771v-3.546c0.458,1.079,0.917,2.157,1.376,3.235
		c0.413,0.974,1.836,0.136,1.427-0.829C245.523,624.731,244.804,623.04,244.085,621.348z"/>
</g>
<g>
</g>
<g>
</g>
<g>
</g>
<g>
</g>
<g>
</g>
<g>
</g>
<g>
</g>
<g>
</g>
<g>
</g>
<g>
</g>
<g>
</g>
<g>
</g>
<g>
</g>
<g>
</g>
<g>
</g>
</svg>
