<?xml version="1.0" encoding="iso-8859-1"?>
<!-- Generator: Adobe Illustrator 16.0.0, SVG Export Plug-In . SVG Version: 6.00 Build 0)  -->
<!DOCTYPE svg PUBLIC "-//W3C//DTD SVG 1.1//EN" "http://www.w3.org/Graphics/SVG/1.1/DTD/svg11.dtd">
<svg version="1.1" id="Layer_1" xmlns="http://www.w3.org/2000/svg" xmlns:xlink="http://www.w3.org/1999/xlink" x="0px" y="0px"
	 width="48px" height="48px" viewBox="0 0 48 48" style="enable-background:new 0 0 48 48;" xml:space="preserve">
<g>
	<g>
		<path d="M3.009,21.716c0.074-0.671,0.122-0.999,0.235-1.64c0.363,0.069,0.544,0.104,0.907,0.174
			c0.102-0.574,0.161-0.856,0.293-1.405c-0.357-0.095-0.537-0.143-0.894-0.237c0.148-0.612,0.231-0.912,0.416-1.495
			c1.008,0.35,1.512,0.525,2.521,0.873c-0.161,0.51-0.235,0.771-0.365,1.308c-0.408-0.108-0.611-0.163-1.019-0.271
			c-0.128,0.53-0.186,0.802-0.284,1.356c0.414,0.079,0.621,0.118,1.035,0.197c-0.099,0.561-0.141,0.847-0.206,1.433
			C4.593,21.892,4.066,21.833,3.009,21.716z"/>
		<path d="M4.704,15.13c0.227-0.528,0.349-0.787,0.605-1.287c1.251-0.092,1.868-0.087,3.075,0.007
			c-0.27,0.432-0.397,0.655-0.639,1.115c-0.166-0.014-0.25-0.021-0.417-0.032c-0.242,0.471-0.356,0.715-0.568,1.214
			c0.109,0.134,0.165,0.199,0.276,0.331c-0.198,0.479-0.291,0.727-0.459,1.232C5.774,16.743,5.397,16.226,4.704,15.13z
			 M6.706,14.894c-0.36-0.016-0.541-0.021-0.904-0.022c-0.002,0.005-0.004,0.008-0.006,0.013c0.22,0.307,0.334,0.457,0.563,0.753
			C6.492,15.335,6.561,15.186,6.706,14.894z"/>
		<path d="M6.305,12.121c0.509-0.785,0.782-1.157,1.365-1.858C7.863,10.03,8.054,9.86,8.235,9.749
			c0.181-0.112,0.349-0.179,0.5-0.207C8.887,9.514,9.02,9.52,9.134,9.557C9.249,9.593,9.339,9.643,9.408,9.71
			c0.116,0.114,0.189,0.245,0.22,0.384c0.031,0.14,0.025,0.284-0.014,0.441s-0.107,0.323-0.207,0.493
			c-0.099,0.172-0.222,0.346-0.368,0.523c-0.187,0.228-0.278,0.342-0.457,0.579c0.257,0.198,0.385,0.297,0.642,0.495
			c-0.29,0.384-0.428,0.584-0.693,0.994C7.64,13.021,7.195,12.721,6.305,12.121z M8.077,11.737c0.121-0.16,0.181-0.237,0.306-0.394
			c0.051-0.064,0.102-0.127,0.15-0.193s0.087-0.131,0.114-0.192c0.027-0.061,0.039-0.117,0.036-0.174
			c-0.002-0.057-0.03-0.108-0.081-0.153c-0.045-0.04-0.093-0.059-0.141-0.056s-0.099,0.02-0.149,0.053
			c-0.05,0.033-0.101,0.079-0.152,0.136c-0.051,0.056-0.102,0.112-0.152,0.175c-0.148,0.184-0.219,0.277-0.362,0.467
			C7.818,11.539,7.904,11.604,8.077,11.737z"/>
		<path d="M9.072,8.749c0.644-0.625,0.983-0.916,1.686-1.457c0.232-0.179,0.45-0.302,0.648-0.369
			c0.197-0.068,0.374-0.095,0.526-0.09c0.153,0.006,0.281,0.038,0.385,0.099c0.104,0.06,0.184,0.127,0.237,0.206
			c0.091,0.135,0.139,0.275,0.142,0.415c0.003,0.141-0.032,0.28-0.1,0.423s-0.167,0.286-0.297,0.428
			c-0.129,0.143-0.282,0.279-0.458,0.417c-0.226,0.176-0.336,0.266-0.556,0.451c0.212,0.246,0.318,0.37,0.53,0.616
			c-0.355,0.301-0.529,0.457-0.865,0.784C10.198,9.903,9.823,9.519,9.072,8.749z M10.867,8.786c0.148-0.125,0.223-0.186,0.374-0.307
			c0.063-0.05,0.123-0.101,0.183-0.152s0.11-0.105,0.148-0.158c0.038-0.053,0.061-0.104,0.069-0.159
			c0.009-0.055-0.007-0.111-0.049-0.165c-0.037-0.048-0.079-0.074-0.126-0.082s-0.1-0.003-0.156,0.018
			c-0.055,0.021-0.113,0.051-0.174,0.093c-0.061,0.042-0.122,0.088-0.183,0.137c-0.179,0.143-0.268,0.214-0.443,0.362
			C10.654,8.538,10.724,8.62,10.867,8.786z"/>
		<path d="M14.112,7.106c-0.824-0.315-1.253-0.455-2.138-0.684c0.487-0.32,0.735-0.469,1.242-0.753
			c0.448,0.201,0.668,0.307,1.097,0.529c0.063-0.476,0.101-0.715,0.192-1.193c0.52-0.245,0.784-0.357,1.319-0.566
			c-0.309,0.845-0.437,1.271-0.64,2.115c0.178,0.352,0.267,0.527,0.445,0.879c-0.414,0.197-0.619,0.301-1.02,0.524
			C14.41,7.617,14.311,7.447,14.112,7.106z"/>
		<path d="M17.862,3.756c1.355-0.381,2.051-0.518,3.45-0.683c0.034,0.271,0.053,0.403,0.088,0.674
			c-0.85,0.101-1.274,0.172-2.11,0.354c0.03,0.129,0.045,0.194,0.076,0.323c0.747-0.163,1.125-0.229,1.884-0.326
			c0.035,0.251,0.051,0.378,0.086,0.629c-0.735,0.094-1.101,0.158-1.824,0.316c0.031,0.129,0.045,0.193,0.076,0.322
			c0.806-0.176,1.214-0.245,2.035-0.34c0.034,0.271,0.051,0.405,0.085,0.676c-1.247,0.144-1.866,0.265-3.073,0.604
			C18.324,5.286,18.17,4.776,17.862,3.756z"/>
		<path d="M23.161,2.931c0.512-0.019,0.769-0.021,1.281-0.012c0.597,1.074,0.856,1.623,1.297,2.729
			c-0.474-0.041-0.71-0.056-1.186-0.068c-0.058-0.153-0.089-0.231-0.149-0.385c-0.483-0.01-0.725-0.007-1.207,0.012
			c-0.062,0.154-0.091,0.231-0.149,0.387c-0.46,0.021-0.69,0.04-1.148,0.088C22.323,4.567,22.576,4.016,23.161,2.931z M24.175,4.624
			c-0.138-0.328-0.209-0.492-0.358-0.818c-0.004,0-0.006,0-0.011,0c-0.155,0.329-0.229,0.495-0.37,0.826
			C23.732,4.624,23.879,4.622,24.175,4.624z"/>
		<path d="M26.28,3.028c0.994,0.1,1.49,0.175,2.466,0.383c0.183,0.039,0.351,0.097,0.505,0.167c0.153,0.069,0.283,0.151,0.388,0.243
			c0.105,0.093,0.18,0.193,0.224,0.303s0.048,0.225,0.012,0.346c-0.02,0.066-0.052,0.133-0.096,0.192s-0.098,0.108-0.162,0.153
			s-0.139,0.082-0.226,0.108C29.306,4.95,29.106,4.96,29.106,4.96c-0.001,0.005,0.258,0.194,0.321,0.332s0.08,0.289,0.053,0.454
			c-0.006,0.032-0.014,0.072-0.025,0.124c-0.012,0.051-0.021,0.104-0.029,0.16c-0.008,0.057-0.012,0.109-0.013,0.162
			c-0.001,0.053,0.007,0.1,0.025,0.135c-0.44-0.126-0.663-0.184-1.11-0.283c-0.012-0.072-0.016-0.14-0.014-0.209
			c0.001-0.068,0.006-0.14,0.015-0.209c0.007-0.062,0.013-0.127,0.015-0.189c0.002-0.063-0.01-0.121-0.034-0.178
			s-0.065-0.105-0.125-0.148c-0.06-0.042-0.15-0.074-0.268-0.097c-0.251-0.048-0.377-0.07-0.63-0.11
			c-0.063,0.366-0.095,0.548-0.157,0.914c-0.453-0.071-0.68-0.102-1.136-0.146C26.107,4.613,26.164,4.086,26.28,3.028z
			 M27.383,4.343c0.256,0.041,0.384,0.063,0.639,0.11c0.055,0.011,0.115,0.019,0.181,0.026s0.125,0.011,0.181,0.003
			s0.106-0.026,0.149-0.054s0.07-0.068,0.084-0.126c0.019-0.082-0.009-0.155-0.085-0.219s-0.233-0.118-0.472-0.163
			c-0.234-0.044-0.352-0.063-0.587-0.1C27.437,4.03,27.419,4.134,27.383,4.343z"/>
		<path d="M31.207,4.806c-0.435-0.152-0.655-0.221-1.098-0.35c0.082-0.261,0.121-0.39,0.203-0.65
			c1.418,0.411,2.114,0.676,3.442,1.324c-0.126,0.244-0.189,0.364-0.315,0.608c-0.415-0.202-0.624-0.297-1.049-0.476
			c-0.325,0.726-0.487,1.089-0.811,1.814c-0.422-0.178-0.635-0.259-1.068-0.41C30.789,5.924,30.928,5.549,31.207,4.806z"/>
		<path d="M34.186,5.348c0.466,0.241,0.696,0.369,1.147,0.641c-0.199,0.315-0.297,0.474-0.496,0.788
			c0.404,0.243,0.604,0.371,0.993,0.639c0.216-0.304,0.323-0.454,0.54-0.758c0.435,0.299,0.649,0.454,1.065,0.783
			c-0.677,0.835-1.015,1.252-1.69,2.087c-0.364-0.288-0.55-0.425-0.93-0.687c0.246-0.347,0.369-0.519,0.615-0.865
			c-0.376-0.259-0.567-0.385-0.958-0.619c-0.226,0.359-0.339,0.542-0.564,0.901c-0.394-0.237-0.595-0.351-1.002-0.562
			C33.417,6.757,33.671,6.287,34.186,5.348z"/>
		<path d="M39.441,9.267c0.611,0.64,0.902,0.979,1.446,1.699c0.224,0.296,0.374,0.578,0.457,0.835
			c0.083,0.258,0.114,0.488,0.095,0.69s-0.08,0.375-0.179,0.521c-0.1,0.146-0.222,0.265-0.363,0.354
			c-0.174,0.11-0.353,0.171-0.538,0.188s-0.371-0.014-0.56-0.092c-0.189-0.078-0.379-0.204-0.577-0.377
			c-0.196-0.173-0.396-0.395-0.603-0.661c-0.426-0.548-0.65-0.807-1.121-1.3C38.275,10.381,38.663,10.01,39.441,9.267z
			 M38.813,11.564c0.124,0.149,0.185,0.226,0.305,0.379c0.119,0.151,0.229,0.259,0.336,0.325c0.107,0.066,0.205,0.106,0.297,0.117
			c0.091,0.012,0.176,0.003,0.251-0.025s0.138-0.059,0.188-0.096c0.034-0.025,0.075-0.066,0.123-0.123
			c0.047-0.056,0.08-0.137,0.096-0.235s0.002-0.218-0.041-0.358c-0.043-0.142-0.138-0.31-0.288-0.498
			c-0.105-0.133-0.158-0.199-0.266-0.328C39.414,11.059,39.213,11.228,38.813,11.564z"/>
		<path d="M42.932,14.325c0.246,0.511,0.36,0.774,0.575,1.313c-0.723,1.075-1.111,1.582-1.937,2.526
			c-0.163-0.532-0.252-0.789-0.447-1.293c0.115-0.125,0.172-0.189,0.286-0.317c-0.202-0.508-0.311-0.756-0.543-1.235
			c-0.169,0.003-0.253,0.005-0.421,0.011c-0.226-0.454-0.345-0.675-0.598-1.103C41.058,14.173,41.678,14.189,42.932,14.325z
			 M41.832,16.075c0.24-0.28,0.357-0.423,0.589-0.713c-0.002-0.005-0.003-0.005-0.005-0.01c-0.369-0.021-0.552-0.03-0.918-0.035
			C41.637,15.615,41.705,15.767,41.832,16.075z"/>
		<path d="M42.746,18.723c0.482-0.82,0.706-1.251,1.112-2.141c0.218,0.632,0.316,0.958,0.491,1.626
			c-0.292,0.436-0.441,0.648-0.751,1.061c0.455,0.241,0.682,0.373,1.132,0.656c0.128,0.699,0.181,1.057,0.262,1.791
			c-0.753-0.706-1.142-1.019-1.928-1.565c-0.384,0.078-0.576,0.117-0.959,0.195c-0.104-0.556-0.165-0.827-0.302-1.356
			C42.179,18.883,42.369,18.83,42.746,18.723z"/>
	</g>
</g>
<g>
	<g>
		<path d="M45.326,25.229c-0.023,0.727-0.045,1.083-0.114,1.776c-0.367-0.043-0.552-0.066-0.919-0.109
			c-0.062,0.621-0.102,0.926-0.201,1.521c0.363,0.07,0.546,0.107,0.91,0.178c-0.11,0.663-0.177,0.986-0.329,1.617
			c-1.029-0.284-1.543-0.428-2.572-0.712c0.133-0.551,0.19-0.835,0.287-1.415c0.415,0.08,0.622,0.12,1.037,0.201
			c0.095-0.574,0.134-0.868,0.193-1.469c-0.418-0.049-0.627-0.073-1.046-0.122c0.06-0.606,0.081-0.914,0.101-1.549
			C43.733,25.179,44.264,25.195,45.326,25.229z"/>
		<path d="M44.036,32.359c-0.203,0.572-0.314,0.851-0.552,1.392c-1.257,0.191-1.881,0.232-3.105,0.222
			c0.258-0.467,0.38-0.707,0.605-1.204c0.167,0.002,0.251,0.001,0.42,0c0.225-0.509,0.329-0.771,0.519-1.311
			c-0.116-0.132-0.175-0.199-0.293-0.328c0.176-0.52,0.256-0.784,0.397-1.332C42.883,30.751,43.288,31.267,44.036,32.359z
			 M42.033,32.762c0.364-0.011,0.544-0.02,0.91-0.046c0.002-0.005,0.004-0.008,0.006-0.013c-0.235-0.304-0.354-0.453-0.598-0.745
			C42.23,32.285,42.167,32.446,42.033,32.762z"/>
		<path d="M42.542,35.615c-0.489,0.851-0.757,1.254-1.333,2.014c-0.19,0.251-0.379,0.437-0.562,0.563
			c-0.182,0.126-0.353,0.207-0.506,0.245c-0.155,0.038-0.291,0.041-0.408,0.01c-0.118-0.03-0.213-0.08-0.284-0.145
			c-0.121-0.11-0.197-0.234-0.231-0.375c-0.035-0.141-0.032-0.293,0.004-0.457s0.105-0.337,0.202-0.519
			c0.097-0.183,0.216-0.368,0.36-0.561c0.185-0.246,0.274-0.369,0.449-0.626c-0.267-0.188-0.401-0.283-0.668-0.471
			c0.283-0.416,0.418-0.629,0.674-1.073C41.16,34.778,41.621,35.058,42.542,35.615z M40.758,36.134
			c-0.118,0.174-0.178,0.259-0.3,0.428c-0.05,0.069-0.1,0.14-0.148,0.211s-0.086,0.137-0.112,0.202
			c-0.025,0.064-0.036,0.124-0.032,0.182c0.003,0.059,0.032,0.109,0.086,0.152c0.047,0.038,0.096,0.056,0.145,0.05
			s0.099-0.027,0.15-0.064c0.05-0.037,0.102-0.084,0.153-0.146c0.051-0.061,0.101-0.126,0.15-0.193
			c0.146-0.199,0.217-0.3,0.356-0.505C41.027,36.324,40.938,36.26,40.758,36.134z"/>
		<path d="M39.811,39.267c-0.647,0.677-0.99,0.994-1.706,1.58c-0.237,0.194-0.459,0.329-0.663,0.407
			c-0.203,0.079-0.385,0.114-0.542,0.116c-0.159,0.002-0.291-0.026-0.399-0.083c-0.109-0.056-0.191-0.123-0.247-0.201
			c-0.096-0.132-0.146-0.268-0.15-0.409c-0.005-0.143,0.028-0.289,0.097-0.437s0.17-0.295,0.301-0.445
			c0.131-0.151,0.287-0.3,0.466-0.448c0.229-0.19,0.342-0.287,0.564-0.488c-0.222-0.239-0.332-0.36-0.553-0.6
			c0.36-0.325,0.535-0.493,0.873-0.847C38.636,38.153,39.028,38.524,39.811,39.267z M37.97,39.331
			c-0.15,0.136-0.226,0.201-0.379,0.332c-0.063,0.054-0.124,0.107-0.186,0.164s-0.112,0.111-0.151,0.167
			c-0.038,0.055-0.061,0.11-0.068,0.166c-0.008,0.056,0.009,0.109,0.053,0.162c0.038,0.047,0.083,0.075,0.131,0.081
			s0.102-0.004,0.159-0.027c0.056-0.023,0.116-0.058,0.178-0.104c0.062-0.046,0.124-0.095,0.186-0.147
			c0.182-0.154,0.272-0.232,0.45-0.393C38.194,39.571,38.119,39.492,37.97,39.331z"/>
		<path d="M34.643,41.188c0.856,0.286,1.301,0.407,2.217,0.599c-0.5,0.347-0.756,0.508-1.279,0.815
			c-0.465-0.185-0.693-0.283-1.139-0.491c-0.062,0.482-0.101,0.725-0.193,1.21c-0.539,0.266-0.813,0.39-1.37,0.616
			c0.318-0.858,0.448-1.291,0.654-2.15c-0.187-0.349-0.28-0.523-0.467-0.871c0.429-0.214,0.641-0.327,1.055-0.569
			C34.331,40.682,34.434,40.852,34.643,41.188z"/>
		<path d="M30.754,44.675c-1.416,0.413-2.146,0.562-3.613,0.74c-0.037-0.27-0.054-0.405-0.091-0.676
			c0.892-0.108,1.334-0.186,2.209-0.383c-0.032-0.129-0.047-0.193-0.08-0.322c-0.782,0.177-1.177,0.247-1.973,0.352
			c-0.037-0.251-0.056-0.375-0.092-0.626c0.771-0.101,1.154-0.169,1.911-0.34c-0.032-0.129-0.047-0.194-0.08-0.323
			c-0.843,0.19-1.272,0.263-2.132,0.365c-0.036-0.271-0.052-0.405-0.088-0.675c1.307-0.155,1.955-0.285,3.215-0.652
			C30.266,43.15,30.429,43.659,30.754,44.675z"/>
		<path d="M25.202,45.569c-0.538,0.021-0.807,0.022-1.345,0.012c-0.627-1.074-0.9-1.626-1.36-2.733
			c0.497,0.045,0.745,0.058,1.244,0.072c0.061,0.153,0.092,0.232,0.155,0.386c0.506,0.01,0.76,0.009,1.266-0.012
			c0.064-0.154,0.096-0.234,0.158-0.39c0.483-0.023,0.725-0.042,1.205-0.094C26.081,43.927,25.815,44.484,25.202,45.569z
			 M24.136,43.875c0.144,0.329,0.219,0.494,0.376,0.82c0.005,0,0.006,0,0.011,0c0.162-0.329,0.241-0.494,0.39-0.826
			C24.602,43.878,24.447,43.878,24.136,43.875z"/>
		<path d="M21.929,45.462c-1.042-0.107-1.563-0.191-2.584-0.416c-0.191-0.042-0.368-0.103-0.529-0.176
			c-0.161-0.072-0.296-0.153-0.405-0.247c-0.11-0.095-0.187-0.2-0.233-0.311c-0.046-0.111-0.05-0.231-0.012-0.352
			c0.021-0.066,0.056-0.128,0.102-0.187s0.099-0.106,0.166-0.149s0.147-0.077,0.238-0.103c0.09-0.024,0.298-0.031,0.298-0.031
			c0.001-0.005-0.271-0.2-0.336-0.34s-0.082-0.293-0.053-0.458c0.006-0.032,0.015-0.071,0.028-0.123
			c0.012-0.051,0.021-0.104,0.03-0.159c0.008-0.057,0.014-0.112,0.015-0.165c0.002-0.053-0.007-0.097-0.025-0.133
			c0.46,0.136,0.691,0.195,1.159,0.303c0.012,0.072,0.017,0.144,0.014,0.213c-0.001,0.069-0.007,0.138-0.017,0.207
			c-0.008,0.062-0.013,0.125-0.015,0.188c-0.002,0.063,0.01,0.124,0.036,0.181s0.069,0.107,0.131,0.151
			c0.063,0.043,0.155,0.076,0.278,0.101c0.264,0.052,0.396,0.078,0.661,0.121c0.066-0.366,0.1-0.55,0.166-0.915
			c0.474,0.077,0.712,0.111,1.19,0.16C22.109,43.877,22.05,44.407,21.929,45.462z M20.773,44.137
			c-0.268-0.044-0.402-0.067-0.669-0.119c-0.058-0.012-0.121-0.023-0.189-0.032s-0.131-0.011-0.189-0.004s-0.111,0.022-0.156,0.049
			s-0.076,0.07-0.09,0.128c-0.02,0.082,0.009,0.153,0.089,0.218s0.245,0.124,0.495,0.172c0.245,0.047,0.368,0.069,0.615,0.109
			C20.716,44.449,20.735,44.345,20.773,44.137z"/>
		<path d="M16.776,43.593c0.454,0.165,0.683,0.24,1.146,0.379c-0.086,0.26-0.129,0.389-0.214,0.648
			c-1.481-0.445-2.206-0.729-3.583-1.432c0.132-0.241,0.198-0.363,0.331-0.604c0.43,0.219,0.648,0.321,1.09,0.515
			c0.341-0.721,0.511-1.081,0.852-1.8c0.439,0.192,0.662,0.281,1.112,0.445C17.215,42.482,17.069,42.853,16.776,43.593z"/>
		<path d="M13.679,42.951c-0.482-0.261-0.72-0.398-1.185-0.692c0.208-0.311,0.311-0.466,0.519-0.776
			c-0.416-0.263-0.619-0.401-1.018-0.691c-0.227,0.298-0.34,0.448-0.566,0.746c-0.446-0.324-0.663-0.495-1.086-0.852
			c0.706-0.814,1.059-1.223,1.766-2.037c0.37,0.312,0.56,0.46,0.949,0.743c-0.258,0.34-0.387,0.51-0.646,0.85
			c0.386,0.28,0.582,0.416,0.984,0.67c0.237-0.354,0.356-0.534,0.594-0.889c0.406,0.257,0.613,0.378,1.034,0.606
			C14.485,41.557,14.216,42.023,13.679,42.951z"/>
		<path d="M8.316,38.709c-0.611-0.692-0.899-1.06-1.432-1.84c-0.219-0.32-0.364-0.62-0.44-0.892
			c-0.076-0.272-0.099-0.516-0.073-0.724s0.094-0.386,0.199-0.53c0.106-0.146,0.233-0.258,0.38-0.341
			c0.18-0.102,0.362-0.153,0.55-0.157s0.375,0.043,0.563,0.137c0.188,0.095,0.378,0.24,0.572,0.432
			c0.193,0.191,0.39,0.435,0.593,0.723c0.417,0.592,0.64,0.872,1.11,1.405C9.529,37.636,9.125,37.995,8.316,38.709z M9.008,36.388
			c-0.122-0.161-0.182-0.242-0.3-0.408c-0.116-0.164-0.227-0.284-0.333-0.359c-0.107-0.076-0.205-0.124-0.298-0.142
			C7.985,35.46,7.9,35.463,7.823,35.487s-0.142,0.054-0.194,0.088C7.593,35.599,7.55,35.639,7.5,35.694
			c-0.05,0.055-0.083,0.132-0.102,0.232s-0.01,0.229,0.03,0.377c0.04,0.149,0.132,0.33,0.279,0.534
			c0.103,0.144,0.156,0.214,0.262,0.354C8.385,36.87,8.592,36.709,9.008,36.388z"/>
		<path d="M4.935,33.229c-0.225-0.553-0.329-0.835-0.518-1.419c0.777-1.071,1.195-1.578,2.076-2.508
			c0.132,0.575,0.209,0.855,0.379,1.4C6.75,30.825,6.69,30.89,6.569,31.015c0.178,0.55,0.275,0.816,0.489,1.336
			c0.17,0.01,0.255,0.015,0.425,0.021c0.208,0.491,0.32,0.729,0.56,1.192C6.815,33.533,6.19,33.47,4.935,33.229z M6.121,31.481
			c-0.255,0.275-0.38,0.416-0.627,0.702c0.002,0.005,0.003,0.008,0.005,0.013c0.37,0.051,0.554,0.072,0.922,0.105
			C6.294,31.979,6.234,31.815,6.121,31.481z"/>
		<path d="M5.349,28.616c-0.533,0.829-0.781,1.265-1.235,2.169c-0.185-0.685-0.264-1.033-0.398-1.757
			c0.318-0.437,0.482-0.652,0.818-1.065c-0.439-0.296-0.657-0.452-1.087-0.794c-0.08-0.757-0.107-1.145-0.132-1.94
			c0.697,0.824,1.062,1.19,1.81,1.841c0.389-0.051,0.583-0.076,0.972-0.127c0.066,0.602,0.11,0.896,0.214,1.469
			C5.927,28.493,5.733,28.534,5.349,28.616z"/>
	</g>
</g>
<g>
	<path d="M24,0C10.767,0,0,10.767,0,24s10.767,24,24,24s24-10.767,24-24S37.233,0,24,0z M24,47C11.318,47,1,36.683,1,24
		S11.318,1,24,1s23,10.317,23,23S36.682,47,24,47z"/>
	<path d="M24.33,8.359c-8.772,0-15.909,7.136-15.909,15.907s7.137,15.908,15.909,15.908s15.908-7.137,15.908-15.908
		S33.102,8.359,24.33,8.359z M38.156,18.719l-0.093,0.002l-0.408-0.45l-0.079-0.721l-0.419,0.229l-0.224,0.882l-0.604-0.644
		l-0.024-0.609l-0.584-0.501l-0.215-0.213h-0.677l0.214,0.603l0.815,0.455l0.141,0.148l-0.177,0.089l0.008,0.477l-0.396,0.167
		l-0.339-0.074l-0.213-0.3l0.552,0.029l0.148-0.202l-1.221-0.824l-0.093-0.348l-0.497,0.447l-0.503-0.104L32.5,18.252l-0.15,0.39
		l-0.49,0.045l-0.726,0.004l-0.433-0.202l-0.125-0.861l0.155-0.409l0.736-0.163l0.805,0.163l0.098-0.444l-0.341-0.08L32.145,16
		l0.81-0.128l0.565-0.799l0.584-0.099l0.528,0.078h0.194l-0.107-0.75l-0.641,0.259l-0.226-0.561l-0.372-0.052l-0.071-0.385
		l0.305-0.33l0.423-0.166C35.886,14.602,37.274,16.529,38.156,18.719z M32.091,14.891l-0.352-0.22l-0.247-0.169v-0.249l0.143-0.219
		l0.514-0.104l0.129,0.624l0.274,0.442l0.181,0.207l0.331,0.131l-0.312,0.369l-0.604,0.06h-0.455l0.051-0.54l0.378-0.078
		L32.091,14.891z M31.681,14.762l-0.026,0.339l-0.644,0.455h-0.363V15.23l0.311-0.5l0.422-0.099L31.681,14.762z M16.128,11.831
		l0.116,0.063l0.664,0.144l0.05,0.261l1.055,0.038l-0.144-0.338l-0.935-0.026l0.22-0.208l-0.077-0.247h-0.433
		c0.413-0.25,0.837-0.479,1.274-0.688h0.12l0.417,0.571l0.688,0.039l0.417-0.402l0.312,0.156l-0.573,0.559
		c0,0-0.792,0.013-0.753,0.013s0.065,0.546,0.065,0.546l0.962-0.026l0.104-0.259l0.663-0.04l0.078-0.388l-0.39-0.068l0.13-0.349
		l0.299-0.091l1.04,0.051l-0.573,0.521l0.092,0.402l0.598,0.092l-0.038-0.728l0.572-0.3l1.014-0.115l1.469,0.648v0.559l0.468,0.117
		l-0.233,0.441H24.2l-0.196,0.507l-1.516-0.357l1.191-0.633l-0.454-0.389l-1.026,0.132l-0.091,0.092l-0.003-0.001l-0.017,0.022
		l-0.295,0.307L21.305,12.5l0.038,0.243l0.171,0.069l-0.007,0.082l-0.398,0.057l-0.029,0.231l-0.38,0.019l-0.068-0.458l-0.683,0.208
		l-1.395,0.816l0.157,0.574l0.389,0.255l0.78,0.106v0.887l0.361-0.059l0.332-0.692l0.828-0.263v-1.063l0.462-0.348l1.115,0.263
		l-0.079,0.704h0.299l0.819-0.403l0.04,0.922l0.597,0.363l-0.025,0.547l-0.572,0.195l0.039,0.181l0.688,0.313l-0.013,0.378
		l-0.199,0.017c-0.002-0.007-0.003-0.01-0.003-0.01L23.7,16.365l-0.037-0.277h-0.001l0.255-0.175v-0.255l-0.274-0.068l-0.068,0.234
		l-0.479,0.074l-0.048-0.017v0.024l-0.165,0.023l-0.136-0.271l-0.157-0.068H22.25l-0.155,0.127V16l0.292,0.096l0.289,0.041
		l-0.064,0.027l-0.264,0.294l-0.116-0.146l-0.254-0.067l-0.693,0.651l0.091,0.075l-1.023,0.565l-0.961,1.001l-0.066,0.446
		l-0.964,0.633l-0.479,0.481l0.054,0.961l-0.664-0.309l0.005-0.562h-1.845l-0.956,0.483l-0.415,0.766l-0.165,0.607l0.269,0.586
		l0.753,0.092l1.196-0.799l0.104,0.397l-0.364,0.688l0.91,0.155l0.092,1.407l1.246,0.211l0.794-0.916l0.961,0.196l0.339,0.47
		l0.923-0.054l0.026-0.274l0.506,0.246l0.572,0.897l0.989,0.014L23.575,26l0.052,0.779l1.092,0.415l1.378,0.015l0.403,0.662
		l0.612,0.195l-0.117,0.546l-0.67,0.851l-0.195,1.883l-0.604,0.479l-0.896-0.029l-0.3,0.521l0.222,0.975l-0.976,1.249l-0.311,0.572
		l-0.93,0.446l-0.611,0.093l-0.026,0.259l0.43,0.125l-0.052,0.277l-0.384,0.371l0.232,0.293l0.463,0.014l-0.026,0.358l-0.123,0.351
		l-0.039,0.285l0.683,0.575l-0.091,0.3l-0.931-0.018l-0.925-0.809l-0.721-1.269l0.1-1.226l-0.546-0.728l0.222-1.233l-0.325-0.091
		v-2.679c0,0-0.91-0.688-0.962-0.688c-0.052,0-0.481-0.119-0.481-0.119l-0.091-0.505l-1.183-1.482l0.117-0.533l0.039-0.873
		l0.818-0.568l-0.116-0.979l-1.196-0.089l-0.937-1.066l-0.663-0.182l-0.429-0.078l0.052-0.391l-0.545-0.078v0.221l-1.366-0.337
		l-0.549-0.84l0.224-0.408l-0.865-1.261l-0.148-0.923h-0.351l0.117,0.896l0.597,0.923l-0.065,0.364l-0.506-0.077l-0.625-1.064
		v-1.236l-0.263-0.127C11.379,16.227,13.445,13.605,16.128,11.831z M23.378,16.573l-0.087,0.18l-0.222,0.021l-0.045,0.214
		l-0.171,0.108l-0.275,0.021c-0.01-0.063-0.014-0.111-0.014-0.111h-0.109v-0.231h0.449l0.093-0.238l0.178-0.005L23.378,16.573z
		 M22.182,16.928l-0.032,0.227l-0.327,0.026l0.018-0.226l0.146-0.182L22.182,16.928z M35.911,33.636v-0.46l-0.597-0.805v-1.25
		l-0.456-0.454l-0.039-0.521l0.579-1.106L34.3,27.104l0.13-1.313l-0.988-0.104l-0.363-0.364h-0.665l-0.338,0.313h-1.168
		l-0.041,0.104h-0.651l-1.493-1.702l0.012-1.328l0.246-0.09l0.092-0.507h-0.351l-0.145-0.533l1.729-1.247v-0.884l0.846-0.47
		l0.344,0.034h0.696l0.545-0.292l1.756-0.138v0.898l1.384,0.351l0.272,0.193h0.254v-0.487l0.8-0.078l0.76,0.565h0.65
		c0.4,1.346,0.623,2.768,0.623,4.241C39.238,27.814,37.988,31.073,35.911,33.636z"/>
	<circle cx="4.333" cy="23.813" r="0.875"/>
	<circle cx="44.116" cy="23.148" r="0.875"/>
</g>
<g>
</g>
<g>
</g>
<g>
</g>
<g>
</g>
<g>
</g>
<g>
</g>
<g>
</g>
<g>
</g>
<g>
</g>
<g>
</g>
<g>
</g>
<g>
</g>
<g>
</g>
<g>
</g>
<g>
</g>
</svg>
