<?xml version="1.0" encoding="iso-8859-1"?>
<!-- Generator: Adobe Illustrator 16.0.0, SVG Export Plug-In . SVG Version: 6.00 Build 0)  -->
<!DOCTYPE svg PUBLIC "-//W3C//DTD SVG 1.1//EN" "http://www.w3.org/Graphics/SVG/1.1/DTD/svg11.dtd">
<svg version="1.1" id="Layer_1" xmlns="http://www.w3.org/2000/svg" xmlns:xlink="http://www.w3.org/1999/xlink" x="0px" y="0px"
	 width="43.736px" height="43.736px" viewBox="0 0 43.736 43.736" style="enable-background:new 0 0 43.736 43.736;"
	 xml:space="preserve">
<g>
	<path d="M573.809-44.538c0-13.438-10.934-24.373-24.373-24.374h-0.001h-0.001c-13.439,0-24.373,10.935-24.373,24.374
		c0,0.056,0.004,0.109,0.005,0.165c-0.001,0.028-0.005,0.057-0.005,0.086c0,0.093,0.01,0.184,0.014,0.275
		c0.281,13.184,11.075,23.824,24.32,23.846c0.014,0,0.027,0.002,0.041,0.002s0.028-0.002,0.043-0.002
		c13.244-0.024,24.035-10.664,24.317-23.846c0.003-0.092,0.013-0.183,0.013-0.275c0-0.029-0.004-0.058-0.004-0.086
		C573.805-44.429,573.809-44.482,573.809-44.538z M571.141-49.962c-2.325-2.302-6.041-4.162-10.627-5.317
		c-1.135-4.684-2.998-8.488-5.316-10.876C563.023-64.067,569.172-57.835,571.141-49.962z M550.436-66.8
		c3.303,0.729,6.203,5.023,7.851,11.029c-2.44-0.467-5.079-0.744-7.851-0.798V-66.8z M548.436-66.8v10.231
		c-2.772,0.054-5.41,0.331-7.851,0.797C542.232-61.777,545.133-66.07,548.436-66.8z M543.674-66.156
		c-2.318,2.388-4.182,6.192-5.316,10.877c-4.587,1.155-8.303,3.015-10.629,5.317C529.697-57.836,535.848-64.069,543.674-66.156z
		 M537.887-53.052c-0.455,2.492-0.711,5.188-0.738,8.015h-10.018C527.684-48.385,531.896-51.347,537.887-53.052z M537.166-43.037
		c0.078,2.663,0.363,5.195,0.824,7.543c-5.744-1.615-9.874-4.383-10.75-7.543H537.166z M527.916-38.426
		c2.36,2.239,6.053,4.044,10.579,5.165c1.144,4.438,2.949,8.044,5.178,10.34C536.076-24.947,530.063-30.879,527.916-38.426z
		 M550.436-22.276h-2c-6.968-1.359-9.174-17.901-9.266-20.761l-0.021-2c0.031-3.022,0.355-5.918,0.912-8.559
		c2.58-0.566,5.412-0.91,8.375-0.974h2c2.963,0.063,5.795,0.408,8.375,0.974c0.557,2.641,0.881,5.536,0.912,8.559l-0.021,2
		C559.609-40.179,557.197-23.56,550.436-22.276z M555.198-22.922c2.229-2.296,4.034-5.902,5.178-10.339
		c4.526-1.122,8.218-2.926,10.577-5.165C568.807-30.88,562.794-24.948,555.198-22.922z M560.881-35.494
		c0.461-2.348,0.746-4.881,0.824-7.543h9.924C570.754-39.878,566.625-37.109,560.881-35.494z M561.723-45.037
		c-0.027-2.826-0.283-5.521-0.738-8.015c5.99,1.705,10.201,4.667,10.756,8.015H561.723z"/>
	<path d="M549.665-44.258c2.355,0,4.271-1.915,4.271-4.271s-1.915-4.271-4.271-4.271c-2.354,0-4.271,1.915-4.271,4.271
		S547.311-44.258,549.665-44.258z"/>
	<path d="M553.75-43.193c-0.155-0.367-0.438-0.504-0.73-0.486v-0.006h-6.491v0.009c-0.229,0.024-0.441,0.16-0.567,0.456
		c-0.767,1.812-1.533,3.621-2.3,5.433c-0.438,1.033,1.078,1.932,1.52,0.89c0.449-1.063,0.898-2.123,1.348-3.183v3.933
		c0,0.005-0.002,0.009-0.002,0.014c0,3.309,0,6.617,0,9.926c0,1.703,2.641,1.703,2.641,0c0-2.637,0-5.275,0-7.913h1.212
		c0,2.638,0,5.276,0,7.913c0,1.703,2.641,1.703,2.641,0c0-2.637,0-5.275,0-7.913c0-0.671,0-1.342,0-2.013v-4.026
		c0.521,1.225,1.043,2.449,1.564,3.674c0.471,1.105,2.087,0.153,1.62-0.942C555.386-39.351,554.568-41.271,553.75-43.193z"/>
</g>
<g>
</g>
<g>
</g>
<g>
</g>
<g>
</g>
<g>
</g>
<g>
</g>
<g>
</g>
<g>
</g>
<g>
</g>
<g>
</g>
<g>
</g>
<g>
</g>
<g>
</g>
<g>
</g>
<g>
</g>
</svg>
