<?xml version="1.0" encoding="iso-8859-1"?>
<!-- Generator: Adobe Illustrator 16.0.0, SVG Export Plug-In . SVG Version: 6.00 Build 0)  -->
<!DOCTYPE svg PUBLIC "-//W3C//DTD SVG 1.1//EN" "http://www.w3.org/Graphics/SVG/1.1/DTD/svg11.dtd">
<svg version="1.1" id="Layer_1" xmlns="http://www.w3.org/2000/svg" xmlns:xlink="http://www.w3.org/1999/xlink" x="0px" y="0px"
	 width="44.901px" height="49.765px" viewBox="0 0 44.901 49.765" style="enable-background:new 0 0 44.901 49.765;"
	 xml:space="preserve">
<g>
	<path d="M578.55,24.744c0-13.438-10.934-24.373-24.373-24.374h-0.001h-0.001c-13.439,0-24.373,10.935-24.373,24.374
		c0,0.056,0.004,0.109,0.005,0.165c-0.001,0.028-0.005,0.057-0.005,0.086c0,0.093,0.01,0.184,0.014,0.275
		c0.281,13.184,11.075,23.824,24.32,23.846c0.014,0,0.027,0.002,0.041,0.002s0.028-0.002,0.043-0.002
		c13.244-0.024,24.035-10.664,24.317-23.846c0.003-0.092,0.013-0.183,0.013-0.275c0-0.029-0.004-0.058-0.004-0.086
		C578.546,24.854,578.55,24.8,578.55,24.744z M575.882,19.32c-2.325-2.302-6.041-4.162-10.627-5.317
		c-1.135-4.684-2.998-8.488-5.316-10.876C567.765,5.215,573.913,11.447,575.882,19.32z M555.177,2.482
		c3.303,0.729,6.203,5.023,7.851,11.029c-2.44-0.467-5.079-0.744-7.851-0.798V2.482z M553.177,2.482v10.231
		c-2.772,0.054-5.41,0.331-7.851,0.797C546.974,7.505,549.874,3.212,553.177,2.482z M548.415,3.126
		c-2.318,2.388-4.182,6.192-5.316,10.877c-4.587,1.155-8.303,3.015-10.629,5.317C534.438,11.446,540.589,5.213,548.415,3.126z
		 M542.628,16.23c-0.455,2.492-0.711,5.188-0.738,8.015h-10.018C532.425,20.897,536.638,17.936,542.628,16.23z M541.907,26.245
		c0.078,2.663,0.363,5.195,0.824,7.543c-5.744-1.615-9.874-4.383-10.75-7.543H541.907z M532.657,30.856
		c2.36,2.239,6.053,4.044,10.579,5.165c1.144,4.438,2.949,8.044,5.178,10.34C540.817,44.335,534.805,38.403,532.657,30.856z
		 M553.177,47.006c-3.205-0.707-6.029-4.771-7.7-10.498c2.397,0.449,4.985,0.715,7.7,0.768V47.006z M553.177,35.276
		c-2.92-0.063-5.713-0.398-8.264-0.95c-0.561-2.489-0.91-5.222-1.002-8.081l-0.021-2c0.031-3.022,0.355-5.918,0.912-8.559
		c2.58-0.566,5.412-0.91,8.375-0.974h2c2.963,0.063,5.795,0.408,8.375,0.974c0.557,2.641,0.881,5.536,0.912,8.559l-0.021,2
		c-0.092,2.858-0.441,5.592-1.002,8.081c-2.551,0.552-5.344,0.887-8.264,0.95H553.177z M555.177,47.006v-9.73
		c2.715-0.053,5.303-0.319,7.7-0.768C561.206,42.234,558.382,46.298,555.177,47.006z M559.939,46.36
		c2.229-2.296,4.034-5.902,5.178-10.339c4.526-1.122,8.218-2.926,10.577-5.165C573.548,38.402,567.535,44.334,559.939,46.36z
		 M565.622,33.788c0.461-2.348,0.746-4.881,0.824-7.543h9.924C575.495,29.404,571.366,32.173,565.622,33.788z M566.464,24.245
		c-0.027-2.826-0.283-5.521-0.738-8.015c5.99,1.705,10.201,4.667,10.756,8.015H566.464z"/>
	<g>
		<path d="M550.939,19.653V18.5h-3.363v1.153h-1.551l-0.094,11.15h16.396l0.093-11.15H550.939z M551.87,29.768
			c-2.448,0-4.434-1.985-4.434-4.436s1.985-4.434,4.434-4.434c2.45,0,4.435,1.983,4.435,4.434S554.32,29.768,551.87,29.768z
			 M560.546,21.97h-1.424c-0.424,0-0.768-0.345-0.768-0.767c0-0.425,0.344-0.769,0.768-0.769h1.424c0.423,0,0.768,0.344,0.768,0.769
			C561.313,21.625,560.969,21.97,560.546,21.97z"/>
		<circle cx="551.823" cy="25.332" r="3.051"/>
	</g>
</g>
<g>
</g>
<g>
</g>
<g>
</g>
<g>
</g>
<g>
</g>
<g>
</g>
<g>
</g>
<g>
</g>
<g>
</g>
<g>
</g>
<g>
</g>
<g>
</g>
<g>
</g>
<g>
</g>
<g>
</g>
</svg>
