<?xml version="1.0" encoding="iso-8859-1"?>
<!-- Generator: Adobe Illustrator 16.0.0, SVG Export Plug-In . SVG Version: 6.00 Build 0)  -->
<!DOCTYPE svg PUBLIC "-//W3C//DTD SVG 1.1//EN" "http://www.w3.org/Graphics/SVG/1.1/DTD/svg11.dtd">
<svg version="1.1" id="Layer_1" xmlns="http://www.w3.org/2000/svg" xmlns:xlink="http://www.w3.org/1999/xlink" x="0px" y="0px"
	 width="44.901px" height="49.765px" viewBox="0 0 44.901 49.765" style="enable-background:new 0 0 44.901 49.765;"
	 xml:space="preserve">
<g>
	<path d="M576.595-30.551V-60.77h-47.168v30.219h19.252v1.945h-10.063V-27h28.179v-1.605h-9.846v-1.945H576.595z M532.877-35.001
		v-22.318h40.267v22.318H532.877z"/>
	<path d="M560.11-51.975c-1.605-1.926-4.023-3.155-6.722-3.155c-0.005,0-0.009,0-0.013,0c-0.003,0-0.006,0-0.008,0
		c-0.01,0-0.02,0.001-0.03,0.001c-2.679,0.016-5.074,1.24-6.669,3.155c-0.147,0.177-0.288,0.359-0.421,0.548
		c-1.011,1.428-1.607,3.167-1.607,5.045s0.597,3.617,1.607,5.045c0.133,0.188,0.273,0.371,0.421,0.548
		c1.596,1.914,3.99,3.139,6.669,3.155c0.011,0,0.021,0.001,0.03,0.001c0.002,0,0.005-0.001,0.008-0.001
		c0.004,0,0.008,0.001,0.013,0.001c2.698,0,5.116-1.229,6.722-3.155c0.147-0.177,0.287-0.36,0.42-0.549
		c1.011-1.428,1.607-3.167,1.607-5.045s-0.597-3.617-1.607-5.045C560.397-51.614,560.258-51.798,560.11-51.975z M550.832-53.991
		c-0.805,0.774-1.473,1.908-1.934,3.271c-0.616-0.231-1.172-0.51-1.65-0.822C548.187-52.658,549.422-53.517,550.832-53.991z
		 M546.827-50.994c0.544,0.363,1.172,0.681,1.867,0.942c-0.301,1.096-0.472,2.313-0.479,3.597h-2.855
		C545.375-48.145,545.919-49.707,546.827-50.994z M545.386-45.737h2.845c0.046,1.075,0.209,2.095,0.464,3.027
		c-0.695,0.262-1.324,0.579-1.867,0.942C546.022-42.908,545.503-44.266,545.386-45.737z M547.25-41.221
		c0.479-0.313,1.032-0.589,1.648-0.82c0.46,1.362,1.129,2.495,1.934,3.271C549.422-39.245,548.188-40.105,547.25-41.221z
		 M553.029-38.376c-1.473-0.202-2.744-1.713-3.465-3.888c1.039-0.312,2.216-0.501,3.465-0.531V-38.376z M553.029-43.513
		c-1.317,0.032-2.56,0.236-3.665,0.575c-0.227-0.861-0.372-1.804-0.416-2.8h4.081V-43.513z M553.029-46.455h-4.095
		c0.005-1.205,0.162-2.345,0.433-3.367c1.104,0.337,2.347,0.541,3.662,0.573V-46.455z M553.029-49.967
		c-1.248-0.03-2.424-0.22-3.462-0.529c0.72-2.176,1.99-3.688,3.462-3.891V-49.967z M559.529-51.543
		c-0.488,0.32-1.056,0.602-1.688,0.835c-0.465-1.379-1.143-2.527-1.96-3.306C557.319-53.543,558.576-52.674,559.529-51.543z
		 M553.748-54.381c1.457,0.226,2.711,1.733,3.425,3.896c-1.029,0.304-2.19,0.488-3.425,0.519V-54.381z M553.748-49.249
		c1.301-0.031,2.529-0.23,3.624-0.563c0.268,1.021,0.424,2.155,0.431,3.356h-4.055V-49.249z M553.748-45.737h4.039
		c-0.043,0.99-0.188,1.931-0.412,2.787c-1.096-0.332-2.325-0.531-3.627-0.563V-45.737z M553.748-38.382v-4.413
		c1.234,0.03,2.397,0.215,3.427,0.52C556.462-40.114,555.205-38.606,553.748-38.382z M555.882-38.748
		c0.817-0.778,1.496-1.926,1.961-3.306c0.631,0.233,1.198,0.515,1.686,0.833C558.575-40.088,557.319-39.219,555.882-38.748z
		 M559.952-41.768c-0.554-0.369-1.195-0.691-1.906-0.957c0.253-0.929,0.414-1.943,0.46-3.013h2.887
		C561.275-44.266,560.758-42.907,559.952-41.768z M558.52-46.455c-0.005-1.277-0.177-2.49-0.474-3.582
		c0.711-0.266,1.352-0.588,1.905-0.957c0.908,1.287,1.452,2.85,1.467,4.539H558.52z"/>
</g>
<g>
</g>
<g>
</g>
<g>
</g>
<g>
</g>
<g>
</g>
<g>
</g>
<g>
</g>
<g>
</g>
<g>
</g>
<g>
</g>
<g>
</g>
<g>
</g>
<g>
</g>
<g>
</g>
<g>
</g>
</svg>
