<?xml version="1.0" encoding="iso-8859-1"?>
<!-- Generator: Adobe Illustrator 16.0.0, SVG Export Plug-In . SVG Version: 6.00 Build 0)  -->
<!DOCTYPE svg PUBLIC "-//W3C//DTD SVG 1.1//EN" "http://www.w3.org/Graphics/SVG/1.1/DTD/svg11.dtd">
<svg version="1.1" id="Layer_1" xmlns="http://www.w3.org/2000/svg" xmlns:xlink="http://www.w3.org/1999/xlink" x="0px" y="0px"
	 width="43.736px" height="43.736px" viewBox="0 0 43.736 43.736" style="enable-background:new 0 0 43.736 43.736;"
	 xml:space="preserve">
<g>
	<polygon style="fill:none;" points="13.172,-200.591 13.281,-201.02 12.962,-201.096 12.608,-200.928 12.827,-200.481 	"/>
	<polygon style="fill:none;" points="14.13,-199.532 13.685,-199.532 13.373,-199.196 13.322,-198.861 13.559,-198.734 	"/>
	<polygon style="fill:none;" points="14.481,-199.642 14.481,-199.919 14.364,-199.919 14.364,-200.078 13.836,-200.078 
		13.449,-199.919 13.373,-199.726 13.676,-199.642 	"/>
	<polygon style="fill:none;" points="14.625,-199.961 14.625,-199.642 14.902,-199.709 	"/>
	<path style="fill:none;" d="M32.455-195.782c-0.018-0.077-0.035-0.153-0.054-0.229l-0.042,0.05L32.455-195.782z"/>
	<polygon style="fill:none;" points="12.166,-203.044 12.166,-203.254 11.685,-203.254 11.659,-203.152 11.365,-203.152 
		11.365,-203.128 11.365,-202.859 12.028,-202.859 	"/>
	<polygon style="fill:none;" points="15.507,-198.826 15.507,-199.087 14.995,-199.238 14.962,-199.238 14.962,-198.996 
		15.078,-198.826 	"/>
	<path style="fill:none;" d="M30.797-198.154l-0.067-0.622l-0.36,0.197l-0.194,0.76l-0.521-0.555l-0.021-0.524l-0.503-0.433
		l-0.187-0.185H28.36l0.185,0.52l0.702,0.393l0.122,0.129l-0.152,0.076l0.006,0.412l-0.342,0.143l-0.291-0.064l-0.184-0.259
		l0.475,0.026l0.129-0.174l-1.053-0.709l-0.08-0.303l-0.427,0.387l-0.435-0.09l-0.659,0.857l-0.13,0.336l-0.422,0.039l-0.624,0.004
		l-0.374-0.174l-0.109-0.742l0.134-0.354l0.635-0.139l0.693,0.139l0.085-0.383l-0.295-0.07l0.102-0.597l0.697-0.109l0.487-0.688
		l0.503-0.084l0.455,0.066h0.167l-0.092-0.646l-0.553,0.223l-0.194-0.482l-0.32-0.045l-0.06-0.332l0.261-0.284l0.622-0.243
		l0.16-0.287c-2.376-2.093-5.491-3.367-8.898-3.367c-2.958,0-5.694,0.96-7.92,2.582l0.68-0.006l0.303,0.168l0.571,0.123l0.044,0.224
		l0.908,0.034l-0.123-0.291l-0.807-0.023l0.19-0.179l-0.067-0.213h-0.728l0.795-0.594h0.761l0.359,0.493l0.594,0.033l0.358-0.348
		l0.269,0.135l-0.493,0.482c0,0-0.683,0.011-0.649,0.011s0.057,0.47,0.057,0.47l0.828-0.021l0.09-0.225l0.571-0.033l0.067-0.336
		l-0.336-0.057l0.112-0.303l0.257-0.078l0.896,0.045l-0.494,0.449l0.08,0.346l0.515,0.079l-0.034-0.628l0.494-0.257l0.873-0.101
		l1.266,0.561v0.48l0.403,0.102l-0.201,0.381h-0.571l-0.17,0.436l-1.306-0.307l1.026-0.547l-0.392-0.333l-0.885,0.112l-0.077,0.08
		l-0.003-0.002l-0.015,0.02l-0.255,0.265l-0.421,0.035l0.034,0.21l0.147,0.061l-0.006,0.07l-0.344,0.049l-0.024,0.198l-0.328,0.017
		l-0.059-0.395l-0.588,0.18l-1.202,0.703l0.136,0.494l0.335,0.219l0.672,0.094v0.764l0.311-0.051l0.286-0.596l0.715-0.227v-0.916
		l0.397-0.301l0.961,0.228l-0.067,0.604h0.257l0.706-0.347l0.034,0.795l0.514,0.313l-0.021,0.471l-0.492,0.168l0.033,0.156
		l0.593,0.27l-0.011,0.324l-0.172,0.016c-0.001-0.006-0.003-0.01-0.003-0.01l-0.748-0.23l-0.031-0.24h-0.001l0.219-0.15v-0.219
		l-0.235-0.059l-0.059,0.201l-0.413,0.064l-0.041-0.014v0.021l-0.143,0.021l-0.117-0.235l-0.135-0.059h-0.294l-0.134,0.109v0.243
		l0.252,0.084l0.247,0.034l-0.056,0.025l-0.227,0.251l-0.1-0.126l-0.219-0.058l-0.597,0.562l0.078,0.064l-0.882,0.487l-0.829,0.862
		l-0.057,0.385l-0.831,0.546l-0.412,0.414l0.046,0.829l-0.571-0.267l0.004-0.485l-1.59,0.002l-0.822,0.416l-0.358,0.659
		l-0.142,0.522l0.231,0.508l0.648,0.078l1.031-0.689l0.091,0.342l-0.315,0.595l0.785,0.134l0.078,1.212l1.075,0.183l0.684-0.79
		l0.829,0.169l0.291,0.404l0.795-0.047l0.022-0.234l0.437,0.213l0.493,0.771l0.852,0.012l0.313,0.55l0.044,0.671l0.941,0.359
		l1.188,0.012l0.348,0.57l0.526,0.168l-0.102,0.471l-0.577,0.733l-0.167,1.622l-0.521,0.412l-0.772-0.023l-0.258,0.447l0.191,0.842
		l-0.841,1.074l-0.269,0.494l-0.801,0.385l-0.527,0.08l-0.021,0.223l0.369,0.106l-0.045,0.241l-0.33,0.318l0.2,0.253l0.399,0.011
		l-0.022,0.309l-0.106,0.303l-0.034,0.246l0.59,0.496l-0.079,0.258l-0.803-0.016l-0.797-0.696l-0.622-1.093l0.087-1.055
		l-0.471-0.628l0.19-1.063l-0.28-0.078v-2.309c0,0-0.783-0.594-0.828-0.594s-0.415-0.101-0.415-0.101l-0.078-0.437l-1.02-1.277
		l0.102-0.459l0.033-0.75l0.705-0.493l-0.101-0.841l-1.03-0.077l-0.807-0.919l-0.571-0.156l-0.37-0.068l0.045-0.336l-0.471-0.066
		v0.189l-1.176-0.291l-0.474-0.724l0.193-0.351l-0.745-1.088l-0.128-0.795H7.857l0.101,0.773l0.515,0.795l-0.056,0.314L7.98-195.17
		l-0.538-0.916v-1.066l-0.56-0.27v-0.766c-0.692,1.62-1.076,3.403-1.076,5.274c0,7.433,6.047,13.479,13.479,13.479
		c4.213,0,7.98-1.945,10.454-4.982h-0.445v-0.896l-0.515-0.692v-1.078l-0.393-0.392l-0.033-0.447l0.498-0.953l-0.946-1.669
		l0.112-1.132l-0.851-0.089l-0.314-0.313h-0.571l-0.291,0.27h-1.008l-0.034,0.089h-0.561l-1.287-1.467l0.011-1.144l0.213-0.078
		l0.078-0.437h-0.302l-0.124-0.459l1.49-1.075v-0.762l0.729-0.405l0.295,0.03h0.601l0.47-0.252l1.512-0.119v0.773l1.193,0.303
		l0.235,0.168h0.219v-0.42l0.688-0.067l0.655,0.487h1.075l0.076-0.068c-0.107-0.363-0.229-0.719-0.365-1.068l-0.702,0.012
		L30.797-198.154z M25.487-201.616l0.123-0.19l0.442-0.09l0.112,0.539l0.235,0.38l0.156,0.181l0.285,0.11l-0.268,0.319l-0.521,0.051
		h-0.392l0.044-0.465l0.326-0.067l-0.028-0.218l-0.303-0.191l-0.213-0.145V-201.616z M24.76-200.775l0.269-0.432l0.363-0.084
		l0.259,0.112l-0.023,0.291l-0.554,0.392H24.76V-200.775z M17.436-199.118l-0.28,0.023l0.015-0.194l0.127-0.156l0.168,0.131
		L17.436-199.118z M18.42-199.463l-0.191,0.018l-0.039,0.186l-0.147,0.092l-0.237,0.02c-0.007-0.057-0.013-0.099-0.013-0.099H17.7
		v-0.198h0.386l0.08-0.206l0.153-0.003l0.176,0.035L18.42-199.463z"/>
	<path style="fill:none;" d="M31.205-198.936v0.596l0.263-0.035l0.139,0.006c-0.099-0.225-0.205-0.444-0.316-0.662L31.205-198.936z"
		/>
	<path style="fill:none;" d="M12.155-202.229c0,0,0.025-0.295,0-0.295s-0.319,0.051-0.319,0.051l-0.471,0.135l0.126,0.15
		L12.155-202.229z"/>
	<polygon style="fill:none;" points="15.44,-199.445 15.234,-199.574 15.112,-199.445 15.275,-199.311 	"/>
	<path style="fill:none;" d="M14.398-199.087l0.252-0.047l0.201-0.13v-0.269h-0.453C14.398-199.49,14.398-199.087,14.398-199.087z"
		/>
	<path style="fill:none;" d="M32.943-198.34l-0.045-0.248l-0.079-0.032c0.038,0.093,0.073,0.187,0.11,0.28H32.943z"/>
	<polygon style="fill:none;" points="14.398,-198.852 14.196,-198.835 14.13,-198.541 14.558,-198.541 14.751,-198.734 
		14.751,-198.996 14.44,-198.953 	"/>
	<path style="fill:none;" d="M7.902-200.118c-0.191,0.301-0.371,0.608-0.538,0.925l0.56-0.68L7.902-200.118z"/>
	<path style="fill:none;" d="M28.503-201.204l0.059,0.192l0.925,0.01l0.265-0.395c-0.213-0.261-0.436-0.513-0.666-0.758
		l-0.002,0.656L28.503-201.204z"/>
	<polygon points="26.003,-201.066 26.031,-200.849 25.705,-200.781 25.661,-200.316 26.053,-200.316 26.574,-200.367 
		26.842,-200.687 26.557,-200.797 26.4,-200.978 26.165,-201.357 26.053,-201.896 25.61,-201.807 25.487,-201.616 25.487,-201.402 
		25.7,-201.258 	"/>
	<polygon points="25.627,-200.888 25.65,-201.179 25.392,-201.291 25.028,-201.207 24.76,-200.775 24.76,-200.496 25.073,-200.496 	
		"/>
	<path d="M18.166-199.651l-0.08,0.206H17.7v0.198h0.092c0,0,0.006,0.042,0.013,0.099l0.237-0.02l0.147-0.092l0.039-0.186
		l0.191-0.018l0.075-0.156l-0.176-0.035L18.166-199.651z"/>
	<polygon points="17.17,-199.289 17.155,-199.095 17.436,-199.118 17.465,-199.314 17.297,-199.445 	"/>
	<path d="M6.883-198.608v0.421c0.146-0.344,0.308-0.679,0.481-1.006L6.883-198.608z"/>
	<path d="M43.6-211.166c-0.13-2.244-1.126-4.304-2.806-5.799c-1.543-1.375-3.529-2.131-5.595-2.131c-2.4,0-4.692,1.027-6.288,2.818
		c-2.085,2.342-2.693,5.586-1.611,8.515c-0.033,0.784-0.116,1.628-0.214,2.411c-2.262-1.424-4.936-2.249-7.8-2.249
		c-3.834,0-7.326,1.478-9.944,3.891c-0.61,0.562-1.171,1.177-1.679,1.833c-1.919,2.482-3.064,5.592-3.064,8.964
		c0,0.031,0.004,0.062,0.005,0.092c-1.104-0.43-2.305-0.637-3.542-0.568c-2.245,0.13-4.305,1.126-5.8,2.806
		c-1.495,1.679-2.247,3.84-2.116,6.084c0.256,4.447,3.943,7.931,8.396,7.931c0.163,0,0.327-0.005,0.492-0.015
		c3.132-0.182,5.855-2.045,7.16-4.881c0.145-0.133,0.295-0.266,0.448-0.398c2.583,2.258,5.952,3.638,9.645,3.638
		c5.696,0,10.643-3.263,13.077-8.015c0.521-1.016,0.926-2.1,1.199-3.234c0.069-0.287,0.129-0.578,0.182-0.871
		c0.147-0.834,0.229-1.691,0.229-2.567c0-0.051-0.004-0.101-0.004-0.151c-0.005-0.43-0.026-0.855-0.067-1.275
		c-0.136-1.4-0.471-2.742-0.973-4c-0.037-0.094-0.072-0.188-0.11-0.28c-0.516-1.217-1.193-2.346-2.001-3.368
		c0.789-0.204,1.604-0.404,2.264-0.543c0.688,0.178,1.397,0.269,2.112,0.269c2.399,0,4.691-1.027,6.288-2.819
		C42.978-206.76,43.729-208.922,43.6-211.166z M11.365-203.128v-0.024h0.294l0.025-0.102h0.481v0.21l-0.138,0.185h-0.663V-203.128z
		 M11.836-202.473c0,0,0.294-0.051,0.319-0.051s0,0.295,0,0.295l-0.664,0.041l-0.126-0.15L11.836-202.473z M7.679-182.787
		l-0.151,0.143l-0.083,0.191c-0.966,2.247-3.084,3.731-5.526,3.873c-3.547,0.209-6.573-2.52-6.776-6.035
		c-0.099-1.711,0.474-3.359,1.614-4.639c1.14-1.28,2.71-2.039,4.421-2.139c0.126-0.008,0.251-0.012,0.376-0.012
		c2.34,0,4.495,1.278,5.624,3.336l0.118,0.213l0.203,0.137c0.98,0.655,2.487,1.539,3.584,2.168
		C10.107-184.838,8.763-183.805,7.679-182.787z M32.401-196.012c0.019,0.076,0.036,0.152,0.054,0.229l-0.096-0.18L32.401-196.012z
		 M31.205-198.936l0.085-0.096c0.111,0.218,0.218,0.438,0.316,0.662l-0.139-0.006l-0.263,0.035V-198.936z M31.852-197.779
		c0.136,0.35,0.258,0.705,0.365,1.068l-0.076,0.068h-1.075l-0.655-0.487l-0.688,0.067v0.42h-0.219l-0.235-0.168l-1.193-0.303v-0.773
		l-1.512,0.119l-0.47,0.252h-0.601l-0.295-0.03l-0.729,0.405v0.762l-1.49,1.075l0.124,0.459h0.302l-0.078,0.437l-0.213,0.078
		l-0.011,1.144l1.287,1.467h0.561l0.034-0.089h1.008l0.291-0.27h0.571l0.314,0.313l0.851,0.089l-0.112,1.132l0.946,1.669
		l-0.498,0.953l0.033,0.447l0.393,0.392v1.078l0.515,0.692v0.896h0.445c-2.474,3.037-6.241,4.982-10.454,4.982
		c-3.32,0-6.354-1.217-8.706-3.215c1.468-1.18,2.906-2.155,2.926-2.168l1.348-0.912l-1.422-0.791
		c-0.031-0.017-2.984-1.66-4.627-2.733c-0.733-1.245-1.766-2.243-2.966-2.956c-0.016-0.233-0.032-0.467-0.032-0.704
		c0-1.871,0.384-3.654,1.076-5.274v-0.421l0.481-0.585c0.167-0.316,0.347-0.624,0.538-0.925l0.021,0.245l-0.56,0.68
		c-0.174,0.327-0.335,0.662-0.481,1.006v0.766l0.56,0.27v1.066l0.538,0.916l0.437,0.068l0.056-0.314l-0.515-0.795l-0.101-0.773
		h0.302l0.128,0.795l0.745,1.088l-0.193,0.351l0.474,0.724l1.176,0.291v-0.189l0.471,0.066l-0.045,0.336l0.37,0.068l0.571,0.156
		l0.807,0.919l1.03,0.077l0.101,0.841l-0.705,0.493l-0.033,0.75l-0.102,0.459l1.02,1.277l0.078,0.437c0,0,0.37,0.101,0.415,0.101
		s0.828,0.594,0.828,0.594v2.309l0.28,0.078l-0.19,1.063l0.471,0.628l-0.087,1.055l0.622,1.093l0.797,0.696l0.803,0.016l0.079-0.258
		l-0.59-0.496l0.034-0.246l0.106-0.303l0.022-0.309l-0.399-0.011l-0.2-0.253l0.33-0.318l0.045-0.241l-0.369-0.106l0.021-0.223
		l0.527-0.08l0.801-0.385l0.269-0.494l0.841-1.074l-0.191-0.842l0.258-0.447l0.772,0.023l0.521-0.412l0.167-1.622l0.577-0.733
		l0.102-0.471l-0.526-0.168l-0.348-0.57l-1.188-0.012l-0.941-0.359l-0.044-0.671l-0.313-0.55l-0.852-0.012l-0.493-0.771
		l-0.437-0.213l-0.022,0.234l-0.795,0.047l-0.291-0.404l-0.829-0.169l-0.684,0.79l-1.075-0.183l-0.078-1.212l-0.785-0.134
		l0.315-0.595l-0.091-0.342l-1.031,0.689l-0.648-0.078l-0.231-0.508l0.142-0.522l0.358-0.659l0.822-0.416l1.59-0.002l-0.004,0.485
		l0.571,0.267l-0.046-0.829l0.412-0.414l0.831-0.546l0.057-0.385l0.829-0.862l0.882-0.487l-0.078-0.064l0.597-0.562l0.219,0.058
		l0.1,0.126l0.227-0.251l0.056-0.025l-0.247-0.034l-0.252-0.084v-0.243l0.134-0.109h0.294l0.135,0.059l0.117,0.235l0.143-0.021
		v-0.021l0.041,0.014l0.413-0.064l0.059-0.201l0.235,0.059v0.219l-0.219,0.15h0.001l0.031,0.24l0.748,0.23
		c0,0,0.002,0.004,0.003,0.01l0.172-0.016l0.011-0.324l-0.593-0.27l-0.033-0.156l0.492-0.168l0.021-0.471l-0.514-0.313l-0.034-0.795
		l-0.706,0.347h-0.257l0.067-0.604l-0.961-0.228l-0.397,0.301v0.916l-0.715,0.227l-0.286,0.596l-0.311,0.051v-0.764l-0.672-0.094
		l-0.335-0.219l-0.136-0.494l1.202-0.703l0.588-0.18l0.059,0.395l0.328-0.017l0.024-0.198l0.344-0.049l0.006-0.07l-0.147-0.061
		l-0.034-0.21l0.421-0.035l0.255-0.265l0.015-0.02l0.003,0.002l0.077-0.08l0.885-0.112l0.392,0.333l-1.026,0.547l1.306,0.307
		l0.17-0.436h0.571l0.201-0.381l-0.403-0.102v-0.48l-1.266-0.561l-0.873,0.101l-0.494,0.257l0.034,0.628l-0.515-0.079l-0.08-0.346
		l0.494-0.449l-0.896-0.045l-0.257,0.078l-0.112,0.303l0.336,0.057l-0.067,0.336l-0.571,0.033l-0.09,0.225l-0.828,0.021
		c0,0-0.023-0.47-0.057-0.47s0.649-0.011,0.649-0.011l0.493-0.482l-0.269-0.135l-0.358,0.348l-0.594-0.033l-0.359-0.493h-0.761
		l-0.795,0.594h0.728l0.067,0.213l-0.19,0.179l0.807,0.023l0.123,0.291l-0.908-0.034l-0.044-0.224l-0.571-0.123l-0.303-0.168
		l-0.68,0.006c2.226-1.622,4.962-2.582,7.92-2.582c2.827,0,5.445,0.887,7.615,2.381c-0.146,0.969-0.277,1.654-0.28,1.668
		l-0.309,1.598l1.564-0.446c0.007-0.002,0.17-0.048,0.429-0.12l0.055,0.385h-0.167l-0.455-0.066l-0.503,0.084l-0.487,0.688
		l-0.697,0.109l-0.102,0.597l0.295,0.07l-0.085,0.383l-0.693-0.139l-0.635,0.139l-0.134,0.354l0.109,0.742l0.374,0.174l0.624-0.004
		l0.422-0.039l0.13-0.336l0.659-0.857l0.435,0.09l0.427-0.387l0.08,0.303l1.053,0.709l-0.129,0.174l-0.475-0.026l0.184,0.259
		l0.291,0.064l0.342-0.143l-0.006-0.412l0.152-0.076l-0.122-0.129l-0.702-0.393l-0.185-0.52h0.583l0.187,0.185l0.503,0.433
		l0.021,0.524l0.521,0.555l0.194-0.76l0.36-0.197l0.067,0.622l0.353,0.387L31.852-197.779z M12.608-200.928l0.354-0.168l0.319,0.076
		l-0.109,0.429l-0.345,0.109L12.608-200.928z M14.481-199.919v0.277h-0.806l-0.303-0.084l0.076-0.193l0.387-0.159h0.528v0.159
		H14.481z M14.852-199.532v0.269l-0.201,0.13l-0.252,0.047c0,0,0-0.403,0-0.445H14.852z M14.625-199.642v-0.319l0.277,0.252
		L14.625-199.642z M14.751-198.996v0.262l-0.193,0.193H14.13l0.066-0.294l0.202-0.017l0.042-0.102L14.751-198.996z M13.685-199.532
		h0.445l-0.571,0.798l-0.236-0.127l0.051-0.335L13.685-199.532z M15.507-199.087v0.261h-0.429l-0.116-0.17v-0.242h0.033
		L15.507-199.087z M15.112-199.445l0.122-0.129l0.206,0.129l-0.165,0.135L15.112-199.445z M29.751-201.396l-0.265,0.395l-0.925-0.01
		l-0.059-0.192l0.58-0.294v-0.029c0.141-0.039,0.291-0.079,0.446-0.121C29.603-201.564,29.68-201.483,29.751-201.396z
		 M39.988-206.412c-1.623,1.821-4.259,2.571-6.593,1.894l-0.234-0.068l-0.239,0.048c-1.03,0.204-2.468,0.572-3.636,0.885
		c-0.041-0.038-0.079-0.08-0.121-0.117c-0.079-0.072-0.167-0.136-0.247-0.206c0.169-1.148,0.346-2.602,0.388-3.921l0.007-0.208
		l-0.077-0.193c-0.905-2.272-0.457-4.82,1.17-6.647c1.216-1.365,2.964-2.148,4.794-2.148c1.574,0,3.089,0.576,4.265,1.624
		c1.28,1.14,2.04,2.71,2.139,4.422C41.702-209.339,41.129-207.691,39.988-206.412z"/>
	<g>
		<path d="M1.609-184.281c1.563,0,2.833-1.169,2.881-2.62l0.043,0.021c0,0,0.188-0.41,0.085-0.992
			c-0.103-0.582-0.598-2.568-3.009-2.467c-2.36-0.064-1.859,0.882-2.406,1.019c-1.012,0.042-0.563,2.151-0.455,2.606
			C-1.104-185.353,0.113-184.281,1.609-184.281z M3.952-186.983c0,1.188-1.052,2.154-2.343,2.154c-1.271,0-2.304-0.937-2.337-2.099
			l2.248-1.355l2.412,1.123C3.938-187.102,3.952-187.045,3.952-186.983z"/>
		<path d="M4.369-184.417l-1.374,0.446l-1.118,0.943l-1.14-0.848l-1.545-0.542c0,0-0.95,4.025-0.062,4.025c0.888,0,4.555,0,5.457,0
			C5.491-180.392,4.369-184.417,4.369-184.417z"/>
	</g>
	<g>
		<path d="M34.97-209.578c1.563,0,2.833-1.168,2.881-2.619l0.043,0.021c0,0,0.188-0.411,0.085-0.992
			c-0.103-0.581-0.598-2.569-3.009-2.466c-2.36-0.064-1.859,0.881-2.406,1.018c-1.012,0.041-0.563,2.152-0.455,2.605
			C32.256-210.648,33.474-209.578,34.97-209.578z M37.313-212.279c0,1.188-1.052,2.154-2.343,2.154
			c-1.271,0-2.304-0.938-2.337-2.099l2.248-1.355l2.412,1.122C37.299-212.396,37.313-212.34,37.313-212.279z"/>
		<path d="M37.729-209.713l-1.374,0.447l-1.118,0.941l-1.14-0.847l-1.545-0.542c0,0-0.95,4.025-0.062,4.025c0.888,0,4.555,0,5.457,0
			C38.852-205.688,37.729-209.713,37.729-209.713z"/>
	</g>
</g>
<g>
</g>
<g>
</g>
<g>
</g>
<g>
</g>
<g>
</g>
<g>
</g>
<g>
</g>
<g>
</g>
<g>
</g>
<g>
</g>
<g>
</g>
<g>
</g>
<g>
</g>
<g>
</g>
<g>
</g>
</svg>
