<?xml version="1.0" encoding="iso-8859-1"?>
<!-- Generator: Adobe Illustrator 16.0.0, SVG Export Plug-In . SVG Version: 6.00 Build 0)  -->
<!DOCTYPE svg PUBLIC "-//W3C//DTD SVG 1.1//EN" "http://www.w3.org/Graphics/SVG/1.1/DTD/svg11.dtd">
<svg version="1.1" id="Layer_1" xmlns="http://www.w3.org/2000/svg" xmlns:xlink="http://www.w3.org/1999/xlink" x="0px" y="0px"
	 width="43.736px" height="43.736px" viewBox="0 0 43.736 43.736" style="enable-background:new 0 0 43.736 43.736;"
	 xml:space="preserve">
<path d="M269.748-58.634c-0.371-0.524-0.76-1.035-1.17-1.527c-4.446-5.333-11.121-8.747-18.582-8.79
	c-0.028,0-0.056-0.003-0.084-0.003c-0.007,0-0.014,0-0.021,0c-0.012,0-0.023,0-0.036,0c-0.353,0-0.701,0.015-1.05,0.029v46.684
	c-2.084-0.042-4.77-0.232-6.069-0.814c-0.774-0.385-1.333-0.693-1.744-0.945l1.196-1.159l0.147-8.559l-0.002-0.004
	c0,0-0.475-1.197-1.166-1.208l-0.003-0.006l-3.018,0.185c0,0-1.463-3.21-1.645-6.882c-0.182-3.671,1.886-8.666,1.886-8.666
	l3.009,0.471l1.202-1.161l0.148-8.559l-0.003-0.006c0,0-0.477-1.195-1.17-1.208l-0.001-0.004l-3.019,0.311
	c-1.967,0.162-8.137,3.577-8.218,18.409c-0.077,14.283,5.802,17.365,7.638,17.685c0.326,1.061,1.307,1.824,3.907,3.114
	c1.707,0.766,4.787,0.966,6.923,1.007v0.006c0.349,0.015,0.698,0.029,1.05,0.029c0.013,0,0.024-0.002,0.036-0.002
	c0.008,0,0.015,0.002,0.021,0.002c0.028,0,0.056-0.004,0.084-0.004c7.461-0.043,14.135-3.457,18.582-8.789
	c0.41-0.492,0.799-1.004,1.17-1.527c2.816-3.975,4.479-8.822,4.479-14.055C274.228-49.813,272.564-54.659,269.748-58.634z
	 M272.223-44.786h-7.957c-0.018-3.578-0.497-6.967-1.333-10.021c1.938-0.729,3.689-1.613,5.204-2.626
	C270.666-53.846,272.18-49.491,272.223-44.786z M266.963-58.962c-1.334,0.874-2.881,1.646-4.6,2.289
	c-1.283-3.792-3.144-6.951-5.385-9.111C260.908-64.46,264.348-62.068,266.963-58.962z M250.854-66.883
	c4.102,0.563,7.64,4.776,9.648,10.835c-2.893,0.867-6.169,1.393-9.648,1.477V-66.883z M250.854-52.571
	c3.667-0.088,7.126-0.656,10.204-1.599c0.752,2.853,1.19,6.024,1.207,9.384h-11.411V-52.571z M250.854-42.786h11.371
	c-0.122,2.772-0.526,5.401-1.157,7.799c-3.081-0.945-6.543-1.514-10.214-1.602V-42.786z M250.854-22.278V-34.59
	c3.481,0.085,6.76,0.61,9.653,1.479C258.5-27.051,254.957-22.841,250.854-22.278z M256.979-23.376
	c2.241-2.162,4.104-5.318,5.387-9.111c1.715,0.643,3.259,1.413,4.592,2.285C264.342-27.097,260.908-24.7,256.979-23.376z
	 M268.137-31.727c-1.514-1.012-3.266-1.897-5.203-2.626c0.71-2.598,1.164-5.439,1.293-8.434h7.923
	C271.822-38.688,270.379-34.907,268.137-31.727z"/>
<g>
</g>
<g>
</g>
<g>
</g>
<g>
</g>
<g>
</g>
<g>
</g>
<g>
</g>
<g>
</g>
<g>
</g>
<g>
</g>
<g>
</g>
<g>
</g>
<g>
</g>
<g>
</g>
<g>
</g>
</svg>
