<?xml version="1.0" encoding="iso-8859-1"?>
<!-- Generator: Adobe Illustrator 16.0.0, SVG Export Plug-In . SVG Version: 6.00 Build 0)  -->
<!DOCTYPE svg PUBLIC "-//W3C//DTD SVG 1.1//EN" "http://www.w3.org/Graphics/SVG/1.1/DTD/svg11.dtd">
<svg version="1.1" id="Layer_1" xmlns="http://www.w3.org/2000/svg" xmlns:xlink="http://www.w3.org/1999/xlink" x="0px" y="0px"
	 width="44.901px" height="49.765px" viewBox="0 0 44.901 49.765" style="enable-background:new 0 0 44.901 49.765;"
	 xml:space="preserve">
<g>
	<path d="M650.095-30.801V-61.02h-47.168v30.219h19.252v1.945h-10.063v1.605h28.179v-1.605h-9.846v-1.945H650.095z M606.377-35.251
		v-22.318h40.267v22.318H606.377z"/>
	<path d="M634.316-49.485l-0.228-0.249l-0.044-0.399l-0.231,0.127l-0.124,0.488l-0.336-0.356l-0.014-0.338l-0.324-0.278
		l-0.119-0.119h-0.376l0.119,0.335l0.451,0.252l0.079,0.084l-0.099,0.049l0.005,0.265l-0.22,0.092l-0.188-0.041l-0.118-0.167
		l0.307,0.018l0.082-0.111l-0.678-0.458l-0.052-0.194l-0.274,0.249l-0.279-0.058l-0.425,0.553l-0.084,0.216l-0.271,0.024
		l-0.403,0.003l-0.24-0.113l-0.07-0.477l0.087-0.228l0.408-0.09l0.446,0.09l0.055-0.247l-0.189-0.045l0.063-0.384l0.45-0.07
		l0.313-0.444l0.323-0.054l0.294,0.043h0.107l-0.06-0.416l-0.355,0.145l-0.124-0.312l-0.207-0.028l-0.038-0.215l0.168-0.183
		l0.399-0.157l0.104-0.183c-1.529-1.349-3.534-2.169-5.729-2.169c-1.904,0-3.666,0.617-5.099,1.661l0.438-0.003l0.195,0.108
		l0.367,0.079l0.028,0.145l0.586,0.021l-0.08-0.188l-0.52-0.015l0.122-0.115l-0.043-0.138h-0.468l0.511-0.382h0.491l0.229,0.317
		l0.383,0.021l0.231-0.223l0.173,0.086l-0.317,0.31c0,0-0.44,0.008-0.419,0.008s0.036,0.303,0.036,0.303l0.534-0.015l0.058-0.144
		l0.367-0.022l0.044-0.216l-0.217-0.037l0.072-0.194l0.165-0.05l0.578,0.029l-0.318,0.287l0.051,0.224l0.332,0.051l-0.021-0.404
		l0.317-0.165l0.563-0.064l0.815,0.359v0.311l0.26,0.065l-0.13,0.245h-0.368l-0.109,0.28l-0.841-0.197l0.661-0.353l-0.252-0.214
		l-0.569,0.072l-0.051,0.052l-0.002-0.001l-0.009,0.012l-0.164,0.171l-0.271,0.023l0.021,0.135l0.095,0.039l-0.003,0.044
		l-0.222,0.031l-0.016,0.128l-0.211,0.011l-0.038-0.253l-0.378,0.114l-0.774,0.453l0.087,0.319l0.216,0.141l0.433,0.06v0.491
		l0.199-0.032l0.185-0.383l0.461-0.146v-0.59l0.255-0.193l0.619,0.146l-0.044,0.39h0.166l0.454-0.224l0.022,0.512l0.331,0.201
		l-0.014,0.304l-0.317,0.108l0.021,0.101l0.382,0.174l-0.008,0.208l-0.11,0.01c-0.001-0.004-0.001-0.006-0.001-0.006l-0.482-0.147
		l-0.021-0.155h-0.001l0.142-0.097v-0.142l-0.152-0.038l-0.037,0.131l-0.266,0.041l-0.026-0.01v0.014l-0.092,0.014l-0.075-0.151
		l-0.087-0.038h-0.189l-0.086,0.07v0.157l0.161,0.054l0.16,0.023l-0.035,0.015l-0.146,0.162l-0.064-0.081l-0.141-0.037l-0.384,0.361
		l0.05,0.041l-0.567,0.314l-0.533,0.555l-0.037,0.248l-0.535,0.352l-0.265,0.267l0.029,0.533l-0.368-0.171l0.003-0.313h-1.023
		l-0.53,0.269l-0.23,0.425l-0.091,0.336l0.148,0.327l0.418,0.051l0.664-0.444l0.058,0.221l-0.202,0.383l0.505,0.086l0.051,0.78
		l0.692,0.117l0.439-0.509l0.534,0.108l0.187,0.262l0.513-0.031l0.014-0.151l0.281,0.138l0.317,0.497l0.549,0.007l0.201,0.354
		l0.028,0.433l0.606,0.23l0.765,0.007l0.224,0.367l0.338,0.108l-0.064,0.305l-0.371,0.471l-0.108,1.044l-0.335,0.266l-0.497-0.015
		l-0.167,0.287l0.123,0.542l-0.541,0.692l-0.173,0.317l-0.517,0.247l-0.339,0.053l-0.014,0.143l0.238,0.069l-0.029,0.154
		l-0.213,0.206l0.129,0.163l0.257,0.007l-0.014,0.197l-0.068,0.195l-0.021,0.158l0.379,0.32l-0.051,0.166l-0.517-0.01l-0.514-0.449
		l-0.4-0.703l0.056-0.68l-0.302-0.404l0.123-0.684l-0.181-0.051v-1.486c0,0-0.505-0.382-0.534-0.382s-0.268-0.064-0.268-0.064
		l-0.049-0.281l-0.657-0.822l0.064-0.296l0.022-0.483l0.454-0.316l-0.064-0.542l-0.664-0.049l-0.519-0.593l-0.368-0.101
		l-0.237-0.044l0.028-0.215l-0.303-0.043v0.122l-0.757-0.188l-0.306-0.467l0.125-0.227l-0.48-0.699l-0.082-0.512h-0.194l0.064,0.497
		l0.331,0.513l-0.036,0.201l-0.28-0.043l-0.347-0.59v-0.686l-0.36-0.174v-0.494c-0.445,1.044-0.692,2.191-0.692,3.396
		c0,4.785,3.893,8.678,8.678,8.678c2.712,0,5.138-1.253,6.729-3.208h-0.286v-0.576l-0.33-0.447v-0.692l-0.254-0.253l-0.021-0.288
		l0.321-0.613l-0.609-1.074l0.071-0.729l-0.547-0.057l-0.202-0.202h-0.368l-0.188,0.173h-0.648l-0.022,0.058h-0.36l-0.829-0.943
		l0.007-0.736l0.137-0.05l0.052-0.282h-0.195l-0.079-0.295l0.959-0.692v-0.49l0.47-0.261l0.19,0.019h0.386l0.303-0.162l0.974-0.076
		v0.499l0.768,0.194l0.151,0.108h0.141v-0.271l0.444-0.043l0.421,0.314h0.692l0.049-0.045c-0.069-0.233-0.146-0.463-0.234-0.688
		L634.316-49.485z M630.671-51.963l0.079-0.122l0.286-0.058l0.07,0.347l0.152,0.244l0.101,0.116l0.184,0.072l-0.173,0.205
		l-0.334,0.032h-0.254l0.029-0.299l0.209-0.044l-0.018-0.141l-0.195-0.121l-0.137-0.094V-51.963z M630.202-51.421l0.174-0.278
		l0.233-0.055l0.167,0.074l-0.015,0.187l-0.357,0.252h-0.202V-51.421z M625.488-50.354l-0.182,0.016l0.01-0.126l0.081-0.101
		l0.108,0.085L625.488-50.354z M626.122-50.576l-0.124,0.011l-0.025,0.119l-0.095,0.06l-0.152,0.013
		c-0.005-0.036-0.009-0.063-0.009-0.063h-0.06v-0.128h0.25l0.051-0.132l0.1-0.002l0.111,0.023L626.122-50.576z"/>
</g>
<g>
</g>
<g>
</g>
<g>
</g>
<g>
</g>
<g>
</g>
<g>
</g>
<g>
</g>
<g>
</g>
<g>
</g>
<g>
</g>
<g>
</g>
<g>
</g>
<g>
</g>
<g>
</g>
<g>
</g>
</svg>
