<?xml version="1.0" encoding="iso-8859-1"?>
<!-- Generator: Adobe Illustrator 16.0.0, SVG Export Plug-In . SVG Version: 6.00 Build 0)  -->
<!DOCTYPE svg PUBLIC "-//W3C//DTD SVG 1.1//EN" "http://www.w3.org/Graphics/SVG/1.1/DTD/svg11.dtd">
<svg version="1.1" id="Layer_1" xmlns="http://www.w3.org/2000/svg" xmlns:xlink="http://www.w3.org/1999/xlink" x="0px" y="0px"
	 width="43.736px" height="43.736px" viewBox="0 0 43.736 43.736" style="enable-background:new 0 0 43.736 43.736;"
	 xml:space="preserve">
<g>
	<path d="M467.79-30.913c2.69,0,4.879-2.188,4.879-4.879s-2.188-4.879-4.879-4.879s-4.879,2.188-4.879,4.879
		S465.1-30.913,467.79-30.913z"/>
	<path d="M478.534-28.861c2.69,0,4.879-2.188,4.879-4.88c0-2.689-2.188-4.878-4.879-4.878s-4.879,2.188-4.879,4.878
		C473.655-31.05,475.844-28.861,478.534-28.861z"/>
	<path d="M488.772-30.913c2.69,0,4.879-2.188,4.879-4.879s-2.188-4.879-4.879-4.879s-4.879,2.188-4.879,4.879
		S486.082-30.913,488.772-30.913z"/>
	<path d="M485.907-21.115c-0.016-0.075-0.039-0.152-0.072-0.231c-0.189-0.442-0.377-0.886-0.566-1.33
		c-0.334-0.785-0.668-1.57-1.003-2.355c-0.279-0.658-0.56-1.316-0.84-1.975v0.001c-0.11-0.26-0.22-0.519-0.33-0.777
		c-0.174-0.41-0.49-0.563-0.816-0.543v-0.007h-7.249v0.01c-0.256,0.028-0.493,0.179-0.633,0.509
		c-0.363,0.859-0.728,1.719-1.091,2.578c-0.209,0.492-0.418,0.985-0.626,1.478c-0.283,0.671-0.568,1.342-0.852,2.012
		c-0.488,1.154,1.204,2.157,1.696,0.992c0.148-0.35,0.296-0.699,0.445-1.05c0.213-0.503,0.426-1.006,0.639-1.51
		c0.141-0.33,0.281-0.662,0.421-0.993v0.768v1.135v2.488c0,0.006-0.002,0.011-0.002,0.017c0,0.126,0,0.25,0,0.376h7.251
		c0-0.126,0-0.251,0-0.376v-2.751v-1.647v-0.1c0.008,0.017,0.014,0.032,0.021,0.05c0.125,0.296,0.251,0.591,0.377,0.886
		c0.449,1.057,0.899,2.113,1.348,3.168c0.252,0.593,0.799,0.653,1.242,0.423c0,0.001,0,0.001,0,0.001
		c0.004-0.001,0.008-0.005,0.011-0.006c0.048-0.025,0.093-0.055,0.137-0.086c0.012-0.008,0.024-0.016,0.035-0.024
		c0.042-0.032,0.081-0.067,0.119-0.104c0.012-0.012,0.024-0.022,0.035-0.034c0.035-0.037,0.065-0.077,0.096-0.118
		c0.012-0.015,0.024-0.029,0.035-0.045c0.026-0.04,0.049-0.082,0.07-0.125c0.01-0.021,0.022-0.039,0.031-0.061
		c0.018-0.041,0.03-0.085,0.044-0.129c0.007-0.024,0.016-0.047,0.021-0.071c0.01-0.046,0.013-0.092,0.018-0.14
		c0.002-0.024,0.007-0.049,0.008-0.074c0-0.053-0.007-0.105-0.015-0.158C485.911-21.07,485.912-21.092,485.907-21.115z"/>
	<path d="M493.334-29.834c-0.174-0.411-0.49-0.563-0.815-0.544v-0.005h-7.25v0.009c-0.256,0.027-0.493,0.179-0.633,0.509
		c-0.132,0.312-0.264,0.624-0.396,0.936c0.118,0.161,0.22,0.338,0.302,0.531l1.38,3.24l1.36,3.195
		c0.346,0.811,0.272,1.691-0.182,2.438h1.115c0-0.061,0-0.12,0-0.181h1.354c0,0.061,0,0.12,0,0.181h2.949c0-0.061,0-0.12,0-0.181
		c0-0.749,0-1.498,0-2.247v-4.497c0.582,1.368,1.164,2.736,1.746,4.104c0.525,1.234,2.33,0.171,1.809-1.052
		C495.16-25.544,494.248-27.688,493.334-29.834z"/>
	<path d="M472.95-28.428c-0.2-0.47-0.398-0.938-0.598-1.406c-0.175-0.411-0.491-0.563-0.816-0.544v-0.005h-7.249v0.009
		c-0.256,0.027-0.493,0.179-0.634,0.509c-0.855,2.022-1.712,4.045-2.568,6.067c-0.488,1.153,1.205,2.156,1.698,0.992
		c0.5-1.185,1.002-2.37,1.504-3.554v4.393c0,0.005-0.002,0.01-0.002,0.015c0,0.81,0,1.618,0,2.428h2.948c0-0.061,0-0.12,0-0.181
		h1.354c0,0.061,0,0.12,0,0.181h2.328c-0.108-0.113-0.218-0.225-0.306-0.357c-0.495-0.748-0.579-1.651-0.229-2.479l1.155-2.728
		v-1.361c0.096,0.227,0.192,0.453,0.289,0.68L472.95-28.428z"/>
	<path d="M497.205-58.788c-0.352-0.497-0.72-0.982-1.109-1.449c-4.245-5.093-10.633-8.341-17.766-8.341c-0.012,0-0.023,0-0.034,0
		c-0.008,0-0.014,0-0.021,0c-0.026,0-0.053,0.003-0.08,0.003c-7.078,0.041-13.41,3.279-17.629,8.339
		c-0.389,0.467-0.758,0.952-1.109,1.449c-2.672,3.771-4.25,8.369-4.25,13.332c0,4.964,1.578,9.563,4.25,13.334
		c0.352,0.496,0.721,0.982,1.109,1.449c0.314,0.377,0.645,0.74,0.982,1.097l0.425-1.003c0.123-0.292,0.288-0.551,0.487-0.773v-0.066
		c-0.118-0.133-0.242-0.26-0.356-0.396c0.071-0.047-0.736-0.434-1.119-1.446c-2.127-3.018-3.496-6.604-3.807-10.492h7.517
		c0.001,0.016,0.003,0.031,0.003,0.047c0.029,0.643,0.076,1.278,0.135,1.905c0.577-0.285,1.199-0.488,1.855-0.598
		c-0.035-0.434-0.07-0.866-0.092-1.308c0-0.016-0.002-0.031-0.003-0.047h10.788v0.047v3.365c0.375-0.065,0.759-0.105,1.152-0.105
		c0.254,0,0.497,0.039,0.744,0.066v-3.326v-0.047h10.678c-0.001,0.016-0.003,0.031-0.003,0.047c-0.021,0.44-0.057,0.873-0.092,1.306
		c0.655,0.107,1.278,0.31,1.855,0.594c0.06-0.625,0.104-1.259,0.134-1.899c0-0.016,0.002-0.031,0.003-0.047h7.629
		c-0.311,3.888-3.048,9.581-3.806,10.493s-1.188,1.4-1.12,1.445c-0.068,0.081-0.144,0.156-0.213,0.236v0.064
		c0.28,0.26,0.51,0.585,0.67,0.964l0.317,0.747c0.262-0.284,0.518-0.573,0.765-0.869c0.389-0.467,0.758-0.953,1.109-1.45
		c2.672-3.771,4.249-8.37,4.249-13.334C501.454-50.417,499.877-55.017,497.205-58.788z M477.382-66.613v11.681
		c-3.302-0.08-6.41-0.578-9.154-1.401C470.134-62.082,473.49-66.078,477.382-66.613z M471.571-65.57
		c-2.126,2.049-3.891,5.046-5.108,8.644c-1.631-0.609-3.099-1.343-4.364-2.172C464.58-62.046,467.843-64.314,471.571-65.57z
		 M464.658-45.649h-7.549c0.04-4.464,1.477-8.595,3.876-11.999c1.438,0.961,3.1,1.8,4.938,2.491
		C465.13-52.259,464.675-49.044,464.658-45.649z M466.556-45.649c0.016-3.188,0.432-6.196,1.145-8.902
		c2.921,0.894,6.202,1.433,9.682,1.517v7.386H466.556z M494.561-59.098c-1.291,0.846-2.792,1.59-4.461,2.206
		c-1.229-3.646-3.021-6.679-5.18-8.736C488.719-64.385,492.041-62.089,494.561-59.098z M479.278-66.599
		c3.852,0.595,7.168,4.584,9.053,10.294c-2.719,0.805-5.79,1.293-9.053,1.372V-66.599z M479.278-45.649v-7.386
		c3.439-0.083,6.686-0.61,9.579-1.486c0.709,2.698,1.121,5.697,1.138,8.872H479.278z M491.893-45.649
		c-0.017-3.379-0.468-6.582-1.254-9.47c1.878-0.698,3.573-1.551,5.036-2.528c2.399,3.403,3.836,7.534,3.876,11.998H491.893z"/>
</g>
<g>
</g>
<g>
</g>
<g>
</g>
<g>
</g>
<g>
</g>
<g>
</g>
<g>
</g>
<g>
</g>
<g>
</g>
<g>
</g>
<g>
</g>
<g>
</g>
<g>
</g>
<g>
</g>
<g>
</g>
</svg>
