<?xml version="1.0" encoding="iso-8859-1"?>
<!-- Generator: Adobe Illustrator 16.0.0, SVG Export Plug-In . SVG Version: 6.00 Build 0)  -->
<!DOCTYPE svg PUBLIC "-//W3C//DTD SVG 1.1//EN" "http://www.w3.org/Graphics/SVG/1.1/DTD/svg11.dtd">
<svg version="1.1" id="Layer_1" xmlns="http://www.w3.org/2000/svg" xmlns:xlink="http://www.w3.org/1999/xlink" x="0px" y="0px"
	 width="43.736px" height="43.736px" viewBox="0 0 43.736 43.736" style="enable-background:new 0 0 43.736 43.736;"
	 xml:space="preserve">
<g>
	<path d="M-67.831-565.055c2.225,0.669,4.746,1.075,7.423,1.14v-9.501C-63.563-572.981-66.285-569.73-67.831-565.055z"/>
	<path d="M-60.407-538.997v-9.5c-2.679,0.065-5.201,0.471-7.427,1.141C-66.29-542.679-63.563-539.431-60.407-538.997z"/>
	<path d="M-68.266-548.804c2.371-0.729,5.034-1.167,7.858-1.235v-4.782h-8.749C-69.063-552.682-68.751-550.653-68.266-548.804z"/>
	<path d="M-69.187-556.365h8.779v-6.008c-2.822-0.067-5.482-0.506-7.851-1.233C-68.836-561.405-69.174-558.957-69.187-556.365z"/>
	<path d="M-65.119-572.568c-3.023,1.021-5.67,2.868-7.682,5.264c1.026,0.674,2.216,1.271,3.539,1.767
		C-68.275-568.463-66.843-570.901-65.119-572.568z"/>
	<path d="M-69.7-564.098c-1.491-0.562-2.839-1.245-4.004-2.026c-1.946,2.768-3.11,6.128-3.144,9.759h6.122
		C-70.712-559.125-70.344-561.741-69.7-564.098z"/>
	<path d="M-72.796-545.111c2.012,2.396,4.654,4.246,7.677,5.267c-1.724-1.667-3.157-4.104-4.145-7.03
		C-70.583-546.378-71.771-545.784-72.796-545.111z"/>
	<path d="M-70.695-554.821h-6.096c0.251,3.161,1.362,6.08,3.087,8.534c1.165-0.781,2.513-1.463,4.003-2.026
		C-70.247-550.318-70.596-552.511-70.695-554.821z"/>
	<path d="M-49.656-548.345c1.523,0.568,2.9,1.263,4.086,2.059c1.726-2.454,2.835-5.374,3.087-8.535h-6.187
		C-48.769-552.523-49.115-550.341-49.656-548.345z"/>
	<path d="M-50.209-554.821h-8.66v4.782c2.792,0.067,5.426,0.496,7.775,1.209C-50.612-550.672-50.302-552.691-50.209-554.821z"/>
	<path d="M-58.869-548.497v9.488c3.124-0.484,5.816-3.726,7.346-8.371C-53.73-548.035-56.222-548.432-58.869-548.497z"/>
	<path d="M-54.293-539.797c3.081-1.012,5.772-2.88,7.815-5.313c-1.045-0.686-2.261-1.291-3.613-1.792
		C-51.087-543.936-52.542-541.471-54.293-539.797z"/>
	<path d="M-58.869-573.404v9.489c2.646-0.064,5.137-0.461,7.342-1.116C-53.056-569.676-55.745-572.92-58.869-573.404z"/>
	<path d="M-51.1-563.581c-2.347,0.713-4.979,1.141-7.769,1.208v6.008h8.691C-50.191-558.946-50.525-561.386-51.1-563.581z"/>
	<path d="M-38.357-578.666c-1.862-1.606-5.667-0.05-6.833,0.487c0-0.955,0-1.59,0-1.708c0-1.463-2.488-1.642-2.488,0
		c0,0.474,0,18.52,0,18.52h2.488c0,0,0-1.732,0-4.134c0-0.867,0-1.819,0-2.813c1.097-0.369,4.989-1.544,6.833-0.298
		c2.159,1.458,6.94,0.684,6.94,0.684v-9.765C-31.417-577.693-36.143-576.756-38.357-578.666z"/>
	<polygon points="-49.654,-564.068 -49.656,-564.067 -49.654,-564.06 	"/>
	<path d="M-43.613-561.78v2.294h-2.295h-1.452h-1.465c0.106,1.017,0.18,2.054,0.185,3.121h6.211c-0.02-2.15-0.444-4.201-1.185-6.094
		V-561.78z"/>
	<path d="M-49.654-565.698v-4.544c-1.405-1.011-2.962-1.823-4.639-2.374c1.751,1.674,3.204,4.141,4.2,7.106
		C-49.939-565.566-49.805-565.638-49.654-565.698z"/>
</g>
<g>
</g>
<g>
</g>
<g>
</g>
<g>
</g>
<g>
</g>
<g>
</g>
<g>
</g>
<g>
</g>
<g>
</g>
<g>
</g>
<g>
</g>
<g>
</g>
<g>
</g>
<g>
</g>
<g>
</g>
</svg>
