<?xml version="1.0" encoding="iso-8859-1"?>
<!-- Generator: Adobe Illustrator 16.0.0, SVG Export Plug-In . SVG Version: 6.00 Build 0)  -->
<!DOCTYPE svg PUBLIC "-//W3C//DTD SVG 1.1//EN" "http://www.w3.org/Graphics/SVG/1.1/DTD/svg11.dtd">
<svg version="1.1" id="Layer_1" xmlns="http://www.w3.org/2000/svg" xmlns:xlink="http://www.w3.org/1999/xlink" x="0px" y="0px"
	 width="43.736px" height="43.736px" viewBox="0 0 43.736 43.736" style="enable-background:new 0 0 43.736 43.736;"
	 xml:space="preserve">
<g>
	<circle cx="23.591" cy="-574.403" r="4.049"/>
	<path d="M24.097-540.886c-2.306,0-4.493-0.223-6.493-0.627c1.066,3.229,2.674,5.665,4.527,6.694c0.645,0.08,1.3,0.126,1.966,0.126
		c0.667,0,1.322-0.046,1.967-0.126c1.853-1.03,3.462-3.465,4.527-6.694C28.59-541.109,26.403-540.886,24.097-540.886z"/>
	<path d="M15.64-543.429c-0.486-2.162-0.756-4.559-0.756-7.1c0-2.186,0.2-4.266,0.565-6.182c-3.466,1.08-6.078,2.772-7.117,4.732
		c-0.043,0.479-0.068,0.961-0.068,1.45c0,0.867,0.072,1.717,0.206,2.546C9.609-546.087,12.222-544.461,15.64-543.429z"/>
	<path d="M39.863-551.979c-1.039-1.96-3.65-3.652-7.116-4.731c0.365,1.915,0.564,3.996,0.564,6.181c0,2.541-0.27,4.938-0.756,7.1
		c3.418-1.033,6.031-2.659,7.171-4.554c0.134-0.829,0.206-1.679,0.206-2.546C39.932-551.018,39.907-551.5,39.863-551.979z"/>
	<path d="M28.912-535.44c4.669-1.489,8.398-5.084,10.069-9.669c-1.669,1.378-4.019,2.495-6.824,3.233
		C31.386-539.219,30.27-537.002,28.912-535.44z"/>
	<path d="M9.215-545.11c1.67,4.586,5.399,8.181,10.069,9.669c-1.358-1.562-2.476-3.778-3.245-6.436
		C13.234-542.614,10.884-543.732,9.215-545.11z"/>
	<path d="M19.816-566.07c1.748,1.903,3.574,4.595,3.593,4.622l0.978,1.445l0.847-1.525c0.019-0.033,1.781-3.2,2.931-4.96
		c2.895-1.706,4.628-4.933,4.434-8.3c-0.285-4.941-4.522-8.763-9.529-8.486c-4.966,0.288-8.773,4.562-8.486,9.528
		C14.778-570.39,16.775-567.47,19.816-566.07z M23.193-581.134c0.135-0.008,0.271-0.012,0.405-0.012
		c3.637,0,6.649,2.847,6.859,6.481c0.152,2.636-1.246,5.161-3.562,6.432l-0.229,0.126l-0.146,0.218
		c-0.703,1.051-1.651,2.666-2.325,3.842c-0.764-1.045-1.871-2.485-2.961-3.647l-0.153-0.163l-0.205-0.088
		c-2.41-1.036-4-3.307-4.152-5.925C16.505-577.657,19.407-580.915,23.193-581.134z"/>
	<path d="M19.339-563.328c-0.805,1.291-1.495,2.88-2.014,4.698c1.551-0.33,3.219-0.548,4.97-0.638l-0.66-0.977
		C21.622-560.264,20.564-561.812,19.339-563.328z"/>
	<path d="M27.108-560.486l-0.7,1.258c1.563,0.104,3.063,0.302,4.462,0.599c-0.533-1.864-1.246-3.486-2.077-4.791
		C27.928-561.96,27.12-560.507,27.108-560.486z"/>
	<path d="M29.709-564.925c-0.038,0.06-0.078,0.124-0.116,0.186c1.197,1.676,2.167,3.891,2.814,6.482
		c2.909,0.797,5.311,2.006,6.946,3.49c-1.316-4.75-4.802-8.576-9.313-10.409C29.927-565.095,29.825-565.001,29.709-564.925z"/>
	<path d="M18.372-564.403c-0.301-0.159-0.587-0.335-0.869-0.518c-4.198,1.926-7.408,5.631-8.662,10.154
		c1.635-1.483,4.038-2.692,6.946-3.49C16.393-560.68,17.282-562.771,18.372-564.403z"/>
	<path d="M16.239-550.529c0,2.689,0.336,5.247,0.923,7.508c2.117,0.498,4.472,0.779,6.935,0.779c2.462,0,4.818-0.281,6.936-0.779
		c0.587-2.261,0.923-4.82,0.923-7.508c0-2.333-0.255-4.568-0.705-6.597c-1.718-0.419-3.602-0.689-5.574-0.787l-1.112,2l-1.366-2.02
		c-2.219,0.062-4.341,0.339-6.255,0.806C16.494-555.097,16.239-552.861,16.239-550.529z"/>
</g>
<g>
</g>
<g>
</g>
<g>
</g>
<g>
</g>
<g>
</g>
<g>
</g>
<g>
</g>
<g>
</g>
<g>
</g>
<g>
</g>
<g>
</g>
<g>
</g>
<g>
</g>
<g>
</g>
<g>
</g>
</svg>
