<?xml version="1.0" encoding="iso-8859-1"?>
<!-- Generator: Adobe Illustrator 16.0.0, SVG Export Plug-In . SVG Version: 6.00 Build 0)  -->
<!DOCTYPE svg PUBLIC "-//W3C//DTD SVG 1.1//EN" "http://www.w3.org/Graphics/SVG/1.1/DTD/svg11.dtd">
<svg version="1.1" id="Layer_1" xmlns="http://www.w3.org/2000/svg" xmlns:xlink="http://www.w3.org/1999/xlink" x="0px" y="0px"
	 width="43.736px" height="43.736px" viewBox="0 0 43.736 43.736" style="enable-background:new 0 0 43.736 43.736;"
	 xml:space="preserve">
<g>
	<path d="M422.676-56.78c-0.352-0.497-0.72-0.982-1.109-1.449c-0.018-0.021-1.575,1.092-1.535,1.14
		c-1.413,1.166-6.241,2.757-6.229,2.793c-2.719,0.805-5.79,1.293-9.053,1.372h-1.896c-6.078,0.001-14.018-3.337-15.283-4.166
		c0.018-0.021-1.517-1.156-1.532-1.138c-0.389,0.467-0.758,0.952-1.109,1.449c-2.672,3.771-4.25,8.369-4.25,13.332
		c0,4.964,1.578,9.563,4.25,13.334c0.352,0.496,0.721,0.982,1.109,1.449c4.22,5.059,10.551,8.297,17.629,8.338
		c0.027,0,0.054,0.004,0.08,0.004c0.007,0,0.013-0.002,0.021-0.002c0.011,0,0.022,0.002,0.034,0.002
		c7.133,0,13.521-3.248,17.766-8.341c0.389-0.467,0.758-0.953,1.109-1.45c2.672-3.771,4.249-8.37,4.249-13.334
		C426.925-48.409,425.348-53.009,422.676-56.78z M386.456-55.641c1.438,0.961,3.1,1.8,4.938,2.491
		c-0.793,2.898-1.248,6.113-1.265,9.508h-7.549C382.62-48.105,384.057-52.236,386.456-55.641z M382.649-41.744h7.517
		c0.122,2.841,0.553,5.536,1.227,8.001c-1.838,0.691-3.5,1.531-4.937,2.491C384.329-34.27,382.96-37.856,382.649-41.744z
		 M387.575-29.806c1.265-0.827,2.729-1.559,4.356-2.168c1.218,3.599,2.984,6.593,5.11,8.644
		C393.313-24.586,390.057-26.859,387.575-29.806z M402.853-22.288c-3.893-0.534-7.254-4.528-9.159-10.276
		c2.746-0.825,5.855-1.323,9.159-1.404V-22.288z M402.853-35.865c-3.483,0.084-6.768,0.623-9.69,1.52
		c-0.599-2.274-0.982-4.769-1.098-7.398h10.788V-35.865z M402.853-43.642h-10.826c0.016-3.188,0.432-6.196,1.145-8.902
		c2.921,0.894,6.202,1.433,9.682,1.517V-43.642z M421.146-55.64c2.399,3.403,3.836,7.534,3.876,11.998h-7.658
		c-0.017-3.379-0.468-6.582-1.254-9.47C417.987-53.81,419.683-54.662,421.146-55.64z M404.749-51.027
		c3.439-0.083,6.686-0.61,9.579-1.486c0.709,2.698,1.121,5.697,1.138,8.872h-10.717V-51.027z M404.749-41.744h10.678
		c-0.114,2.618-0.496,5.101-1.09,7.367c-2.897-0.878-6.146-1.406-9.588-1.488V-41.744z M404.749-22.303v-11.666
		c3.264,0.08,6.337,0.568,9.058,1.374C411.921-26.884,408.601-22.897,404.749-22.303z M410.391-23.272
		c2.159-2.059,3.954-5.088,5.182-8.735c1.667,0.616,3.166,1.359,4.455,2.202C417.508-26.813,414.189-24.518,410.391-23.272z
		 M421.147-31.251c-1.463-0.979-3.159-1.832-5.039-2.531c0.668-2.454,1.095-5.137,1.216-7.962h7.629
		C424.643-37.856,423.275-34.268,421.147-31.251z"/>
	<path d="M390.853-56.856l0.005,0.003l6.841-0.14l0.926-0.963l-0.384-2.405c0,0,3.987-1.666,6.922-1.529
		c2.937,0.138,5.506,1.298,5.506,1.298l-0.141,2.414l0.005,0.002c0.01,0.554,0.97,0.928,0.97,0.928l0.003,0.002l6.841-0.14
		l0.927-0.961l-0.299-2.405c-0.259-1.465-2.733-6.161-14.157-6.063c-11.854,0.102-14.57,5.042-14.694,6.615l-0.24,2.412l0.003,0.002
		C389.896-57.233,390.853-56.856,390.853-56.856z"/>
</g>
<g>
</g>
<g>
</g>
<g>
</g>
<g>
</g>
<g>
</g>
<g>
</g>
<g>
</g>
<g>
</g>
<g>
</g>
<g>
</g>
<g>
</g>
<g>
</g>
<g>
</g>
<g>
</g>
<g>
</g>
</svg>
