<?xml version="1.0" encoding="iso-8859-1"?>
<!-- Generator: Adobe Illustrator 16.0.0, SVG Export Plug-In . SVG Version: 6.00 Build 0)  -->
<!DOCTYPE svg PUBLIC "-//W3C//DTD SVG 1.1//EN" "http://www.w3.org/Graphics/SVG/1.1/DTD/svg11.dtd">
<svg version="1.1" id="Layer_1" xmlns="http://www.w3.org/2000/svg" xmlns:xlink="http://www.w3.org/1999/xlink" x="0px" y="0px"
	 width="44.901px" height="49.765px" viewBox="0 0 44.901 49.765" style="enable-background:new 0 0 44.901 49.765;"
	 xml:space="preserve">
<g>
	<path d="M124.892-43.885c0-13.438-10.934-24.373-24.373-24.374h-0.001h-0.001c-13.439,0-24.373,10.935-24.373,24.374
		c0,0.056,0.004,0.109,0.005,0.165c-0.001,0.028-0.005,0.057-0.005,0.086c0,0.093,0.01,0.184,0.014,0.275
		c0.281,13.184,11.075,23.824,24.32,23.846c0.014,0,0.027,0.002,0.041,0.002s0.028-0.002,0.043-0.002
		c13.244-0.024,24.035-10.664,24.317-23.846c0.003-0.092,0.013-0.183,0.013-0.275c0-0.029-0.004-0.058-0.004-0.086
		C124.888-43.775,124.892-43.829,124.892-43.885z M122.224-49.309c-2.325-2.302-6.041-4.162-10.627-5.317
		c-1.135-4.684-2.998-8.488-5.316-10.876C114.107-63.414,120.255-57.182,122.224-49.309z M101.519-66.146
		c3.303,0.729,6.203,5.023,7.851,11.029c-2.44-0.467-5.079-0.744-7.851-0.798V-66.146z M99.519-66.146v10.231
		c-2.772,0.054-5.41,0.331-7.851,0.797C93.316-61.124,96.216-65.417,99.519-66.146z M94.757-65.503
		c-2.318,2.388-4.182,6.192-5.316,10.877c-4.587,1.155-8.303,3.015-10.629,5.317C80.781-57.183,86.931-63.416,94.757-65.503z
		 M88.97-52.398c-0.455,2.492-0.711,5.188-0.738,8.015H78.214C78.767-47.731,82.98-50.693,88.97-52.398z M88.25-42.384
		c0.078,2.663,0.363,5.195,0.824,7.543c-5.744-1.615-9.874-4.383-10.75-7.543H88.25z M79-37.772
		c2.36,2.239,6.053,4.044,10.579,5.165c1.144,4.438,2.949,8.044,5.178,10.34C87.16-24.294,81.147-30.226,79-37.772z M99.519-21.623
		c-3.205-0.707-6.029-4.771-7.7-10.498c2.397,0.449,4.985,0.715,7.7,0.768V-21.623z M99.519-33.353
		c-2.92-0.063-5.713-0.398-8.264-0.95c-0.561-2.489-0.91-5.222-1.002-8.081l-0.021-2c0.031-3.022,0.355-5.918,0.912-8.559
		c2.58-0.566,5.412-0.91,8.375-0.974h2c2.963,0.063,5.795,0.408,8.375,0.974c0.557,2.641,0.881,5.536,0.912,8.559l-0.021,2
		c-0.092,2.858-0.441,5.592-1.002,8.081c-2.551,0.552-5.344,0.887-8.264,0.95H99.519z M101.519-21.623v-9.73
		c2.715-0.053,5.303-0.319,7.7-0.768C107.548-26.395,104.724-22.331,101.519-21.623z M106.282-22.269
		c2.229-2.296,4.034-5.902,5.178-10.339c4.526-1.122,8.218-2.926,10.577-5.165C119.89-30.227,113.877-24.295,106.282-22.269z
		 M111.964-34.841c0.461-2.348,0.746-4.881,0.824-7.543h9.924C121.837-39.225,117.708-36.456,111.964-34.841z M112.806-44.384
		c-0.027-2.826-0.283-5.521-0.738-8.015c5.99,1.705,10.201,4.667,10.756,8.015H112.806z"/>
	<path d="M105.934-51.989h-9.846v16.563h9.846V-51.989z M101.229-51.304c0.131,0,0.238,0.106,0.238,0.238s-0.106,0.238-0.238,0.238
		s-0.238-0.106-0.238-0.238S101.098-51.304,101.229-51.304z M99.813-50.509h2.832v0.229h-2.832V-50.509z M101.136-36.141
		c-0.313,0-0.568-0.255-0.568-0.568s0.254-0.567,0.568-0.567c0.313,0,0.567,0.254,0.567,0.567S101.449-36.141,101.136-36.141z
		 M104.354-38.091c-2.558,0.014-5.419,0.023-6.687,0.012v-11.388l6.687-0.001V-38.091z"/>
</g>
<g>
</g>
<g>
</g>
<g>
</g>
<g>
</g>
<g>
</g>
<g>
</g>
<g>
</g>
<g>
</g>
<g>
</g>
<g>
</g>
<g>
</g>
<g>
</g>
<g>
</g>
<g>
</g>
<g>
</g>
</svg>
