<?xml version="1.0" encoding="iso-8859-1"?>
<!-- Generator: Adobe Illustrator 16.0.0, SVG Export Plug-In . SVG Version: 6.00 Build 0)  -->
<!DOCTYPE svg PUBLIC "-//W3C//DTD SVG 1.1//EN" "http://www.w3.org/Graphics/SVG/1.1/DTD/svg11.dtd">
<svg version="1.1" id="Layer_1" xmlns="http://www.w3.org/2000/svg" xmlns:xlink="http://www.w3.org/1999/xlink" x="0px" y="0px"
	 width="44.867px" height="40.873px" viewBox="0 0 44.867 40.873" style="enable-background:new 0 0 44.867 40.873;"
	 xml:space="preserve">
<g>
	<g>
		<path d="M-443.789-126.001c2.807-1.113,5.703-2.732,8.486-4.823l-7.634-9.66C-445.805-137.5-445.969-132-443.789-126.001z"/>
		<path d="M-415.281-105.488l-7.633-9.66c-2.679,2.226-4.925,4.67-6.657,7.146C-424.239-104.492-418.849-103.386-415.281-105.488z"
			/>
		<path d="M-431.175-109.127c1.832-2.651,4.195-5.244,7.021-7.589l-3.842-4.862l-8.922,7.05
			C-435.104-112.428-433.156-110.616-431.175-109.127z"/>
		<path d="M-438.189-116.072l8.953-7.075l-4.827-6.108c-2.931,2.205-5.997,3.904-8.997,5.073
			C-441.882-121.479-440.259-118.718-438.189-116.072z"/>
		<path d="M-447.061-135.826c-2.262,3.476-3.478,7.485-3.604,11.543c1.589-0.141,3.281-0.494,5.028-1.056
			C-446.98-129.109-447.479-132.741-447.061-135.826z"/>
		<path d="M-444.926-123.521c-1.972,0.629-3.895,1.021-5.711,1.166c0.24,4.383,1.752,8.738,4.636,12.457l6.243-4.933
			C-441.963-117.65-443.688-120.607-444.926-123.521z"/>
		<path d="M-432.828-101.721c3.978,0.815,8.157,0.567,12.061-0.831c-3.098-0.306-6.517-1.629-9.875-3.808
			C-431.589-104.794-432.323-103.232-432.828-101.721z"/>
		<path d="M-417.235-132.631l6.333-5.005c-2.951-3.665-6.837-6.142-11.046-7.389c-0.571,1.765-1.417,3.578-2.513,5.382
			C-421.924-137.769-419.457-135.414-417.235-132.631z"/>
		<path d="M-438.488-113.287l-6.216,4.912c2.797,3.012,6.274,5.084,10.005,6.189c0.56-1.732,1.386-3.513,2.454-5.287
			C-434.413-109.07-436.53-111.018-438.488-113.287z"/>
		<path d="M-411.83-123.656c2.011-0.65,3.972-1.054,5.821-1.201c-0.211-3.886-1.426-7.748-3.709-11.165l-6.309,4.985
			C-414.281-128.62-412.881-126.123-411.83-123.656z"/>
		<path d="M-417.597-129.796l-8.831,6.979l3.842,4.862c2.9-2.182,5.932-3.868,8.901-5.036
			C-414.673-125.253-415.98-127.556-417.597-129.796z"/>
		<path d="M-421.345-116.387l7.624,9.647c2.796-3.009,2.938-8.475,0.765-14.43C-415.734-120.059-418.595-118.454-421.345-116.387z"
			/>
		<path d="M-409.69-111.229c2.328-3.511,3.572-7.58,3.701-11.7c-1.618,0.145-3.343,0.509-5.124,1.089
			C-409.745-118.021-409.25-114.341-409.69-111.229z"/>
		<path d="M-423.818-145.496c-4.039-0.828-8.286-0.555-12.241,0.899c3.13,0.291,6.594,1.628,9.993,3.841
			C-425.087-142.356-424.333-143.953-423.818-145.496z"/>
		<path d="M-441.357-141.712l7.624,9.647c2.646-2.197,4.867-4.608,6.589-7.051C-432.435-142.605-437.784-143.737-441.357-141.712z"
			/>
	</g>
	<g>
		<path d="M-425.82-127.183c-0.59,0-1.093-0.08-1.507-0.241s-0.754-0.374-1.02-0.639s-0.461-0.57-0.588-0.914
			c-0.127-0.343-0.198-0.698-0.213-1.064h2.398c0,0.097,0.009,0.206,0.028,0.325c0.019,0.12,0.06,0.233,0.123,0.342
			s0.155,0.202,0.274,0.28c0.12,0.079,0.288,0.125,0.504,0.14v-1.58c-0.149-0.045-0.305-0.088-0.465-0.129
			c-0.161-0.041-0.327-0.092-0.499-0.151c-0.306-0.104-0.586-0.215-0.84-0.331s-0.471-0.254-0.65-0.415s-0.317-0.351-0.415-0.572
			c-0.097-0.22-0.146-0.491-0.146-0.812c0-0.456,0.091-0.85,0.274-1.182s0.418-0.605,0.706-0.818s0.61-0.37,0.969-0.47
			c0.358-0.101,0.713-0.151,1.064-0.151v-0.896h0.583v0.896c0.389,0,0.762,0.05,1.121,0.151c0.358,0.101,0.674,0.257,0.947,0.47
			c0.273,0.213,0.489,0.484,0.65,0.813c0.161,0.329,0.241,0.721,0.241,1.177h-2.141c-0.015-0.142-0.039-0.262-0.073-0.359
			c-0.034-0.097-0.082-0.175-0.146-0.235c-0.063-0.06-0.144-0.108-0.241-0.146c-0.097-0.037-0.217-0.071-0.359-0.101v1.255
			c0.725,0.157,1.302,0.331,1.731,0.521c0.429,0.19,0.758,0.4,0.986,0.627c0.228,0.228,0.375,0.476,0.443,0.745
			c0.067,0.269,0.101,0.561,0.101,0.874c0,0.307-0.058,0.613-0.173,0.919c-0.116,0.306-0.305,0.583-0.566,0.829
			c-0.262,0.247-0.6,0.448-1.014,0.605s-0.917,0.235-1.507,0.235v1.109h-0.583V-127.183z M-425.82-133.793
			c-0.202,0-0.385,0.03-0.549,0.089c-0.164,0.06-0.246,0.202-0.246,0.426c0,0.299,0.265,0.5,0.795,0.605V-133.793z
			 M-425.238-128.953c0.262-0.022,0.482-0.087,0.661-0.196s0.269-0.271,0.269-0.488c0-0.194-0.083-0.341-0.247-0.442
			c-0.165-0.101-0.392-0.2-0.684-0.297V-128.953z"/>
	</g>
</g>
<g>
</g>
<g>
</g>
<g>
</g>
<g>
</g>
<g>
</g>
<g>
</g>
<g>
</g>
<g>
</g>
<g>
</g>
<g>
</g>
<g>
</g>
<g>
</g>
<g>
</g>
<g>
</g>
<g>
</g>
</svg>
