<?xml version="1.0" encoding="iso-8859-1"?>
<!-- Generator: Adobe Illustrator 16.0.0, SVG Export Plug-In . SVG Version: 6.00 Build 0)  -->
<!DOCTYPE svg PUBLIC "-//W3C//DTD SVG 1.1//EN" "http://www.w3.org/Graphics/SVG/1.1/DTD/svg11.dtd">
<svg version="1.1" id="Layer_1" xmlns="http://www.w3.org/2000/svg" xmlns:xlink="http://www.w3.org/1999/xlink" x="0px" y="0px"
	 width="43.736px" height="43.736px" viewBox="0 0 43.736 43.736" style="enable-background:new 0 0 43.736 43.736;"
	 xml:space="preserve">
<g>
	<rect x="407.274" y="-559.111" width="2.86" height="2.86"/>
	<path d="M405.706-569.006l-6.623,5.693h-0.005v0.005l-1.576,1.355h1.576v10.07h13.257v-10.07h1.696L405.706-569.006z
		 M410.976-553.242h-5.269v-5.907h-3.454v5.907h-1.814v-8.71h10.537V-553.242z"/>
</g>
<path d="M429.828-559.944c0-13.438-10.934-24.373-24.373-24.374l0,0h-0.001h-0.001c-13.439,0-24.373,10.935-24.373,24.374
	c0,0.056,0.004,0.109,0.005,0.165c-0.001,0.028-0.005,0.057-0.005,0.086c0,0.093,0.01,0.184,0.014,0.275
	c0.281,13.184,11.075,23.824,24.32,23.846c0.014,0,0.027,0.002,0.041,0.002s0.028-0.002,0.043-0.002
	c13.244-0.024,24.035-10.664,24.317-23.846c0.003-0.092,0.013-0.183,0.013-0.275c0-0.029-0.004-0.058-0.004-0.086
	C429.824-559.835,429.828-559.889,429.828-559.944z M427.16-565.368c-2.325-2.302-6.041-4.162-10.627-5.317
	c-1.135-4.684-2.998-8.488-5.316-10.876C419.043-579.474,425.191-573.241,427.16-565.368z M406.455-582.206
	c3.303,0.729,6.203,5.023,7.851,11.029c-2.44-0.467-5.079-0.744-7.851-0.798V-582.206z M404.455-582.206v10.231
	c-2.772,0.054-5.41,0.331-7.851,0.797C398.252-577.184,401.152-581.477,404.455-582.206z M399.693-581.563
	c-2.318,2.388-4.182,6.192-5.316,10.877c-4.587,1.155-8.303,3.015-10.629,5.317C385.717-573.242,391.867-579.476,399.693-581.563z
	 M393.906-568.458c-0.455,2.492-0.711,5.188-0.738,8.015H383.15C383.703-563.791,387.916-566.753,393.906-568.458z M393.186-558.443
	c0.078,2.663,0.363,5.195,0.824,7.543c-5.744-1.615-9.874-4.383-10.75-7.543H393.186z M383.936-553.832
	c2.36,2.239,6.053,4.044,10.579,5.165c1.144,4.438,2.949,8.044,5.178,10.34C392.096-540.354,386.083-546.285,383.936-553.832z
	 M404.455-537.683c-3.205-0.707-6.029-4.771-7.7-10.498c2.397,0.449,4.985,0.715,7.7,0.768V-537.683z M404.455-549.412
	c-2.92-0.063-5.713-0.398-8.264-0.95c-0.561-2.489-0.91-5.222-1.002-8.081l-0.021-2c0.031-3.022,0.355-5.918,0.912-8.559
	c2.58-0.566,5.412-0.91,8.375-0.974h2c2.963,0.063,5.795,0.408,8.375,0.974c0.557,2.641,0.881,5.536,0.912,8.559l-0.021,2
	c-0.092,2.858-0.441,5.592-1.002,8.081c-2.551,0.552-5.344,0.887-8.264,0.95H404.455z M406.455-537.683v-9.73
	c2.715-0.053,5.303-0.319,7.7-0.768C412.484-542.454,409.66-538.391,406.455-537.683z M411.218-538.328
	c2.229-2.296,4.034-5.902,5.178-10.339c4.526-1.122,8.218-2.926,10.577-5.165C424.826-546.286,418.813-540.354,411.218-538.328z
	 M416.9-550.9c0.461-2.348,0.746-4.881,0.824-7.543h9.924C426.773-555.284,422.645-552.516,416.9-550.9z M417.742-560.443
	c-0.027-2.826-0.283-5.521-0.738-8.015c5.99,1.705,10.201,4.667,10.756,8.015H417.742z"/>
<g>
</g>
<g>
</g>
<g>
</g>
<g>
</g>
<g>
</g>
<g>
</g>
<g>
</g>
<g>
</g>
<g>
</g>
<g>
</g>
<g>
</g>
<g>
</g>
<g>
</g>
<g>
</g>
<g>
</g>
</svg>
