<?xml version="1.0" encoding="iso-8859-1"?>
<!-- Generator: Adobe Illustrator 16.0.0, SVG Export Plug-In . SVG Version: 6.00 Build 0)  -->
<!DOCTYPE svg PUBLIC "-//W3C//DTD SVG 1.1//EN" "http://www.w3.org/Graphics/SVG/1.1/DTD/svg11.dtd">
<svg version="1.1" id="Layer_1" xmlns="http://www.w3.org/2000/svg" xmlns:xlink="http://www.w3.org/1999/xlink" x="0px" y="0px"
	 width="44.901px" height="49.765px" viewBox="0 0 44.901 49.765" style="enable-background:new 0 0 44.901 49.765;"
	 xml:space="preserve">
<g>
	<path d="M504.068,99.655c-0.034-2.177-0.36-4.282-0.946-6.281c-0.216-0.737-0.466-1.459-0.75-2.165
		c-0.576-1.434-1.288-2.799-2.122-4.078c-0.378-0.581-0.779-1.143-1.206-1.687c-1.167-1.492-2.508-2.839-3.993-4.015
		c-0.508-0.4-1.032-0.785-1.571-1.146c-3.756-2.501-8.26-3.962-13.1-3.962c-0.041,0-0.867-0.075-1.322-0.075l-0.132,47.491
		l1.376-0.028c0.026,0,0.053,0.003,0.078,0.003c7.831,0,14.783-3.819,19.1-9.689c0.755-1.027,1.427-2.117,2.011-3.261
		c1.311-2.563,2.171-5.391,2.468-8.384c0.078-0.775,0.119-1.564,0.119-2.36C504.077,99.896,504.069,99.775,504.068,99.655z
		 M500.948,92.952c-0.748,0.793-1.603,1.537-2.541,2.231c-0.391-1.594-0.94-3.12-1.592-4.564c0.783-0.595,1.504-1.23,2.14-1.908
		C499.766,90.038,500.435,91.459,500.948,92.952z M490.148,91.984c-0.479-1.938-1.064-3.77-1.694-5.445
		c1.01-0.392,1.938-0.867,2.789-1.404c1.078,1.44,2.156,3.078,3.089,4.867C493.081,90.78,491.678,91.449,490.148,91.984z
		 M495.165,91.74c0.641,1.459,1.162,3.002,1.503,4.6c-1.628,0.983-3.455,1.821-5.44,2.481c-0.108-1.689-0.338-3.345-0.656-4.941
		C492.239,93.307,493.781,92.584,495.165,91.74z M490.438,109.003c1.921-0.468,3.748-1.065,5.469-1.778
		c-0.961,2.82-2.377,5.353-3.815,7.457c-1.147,0.302-2.333,0.552-3.542,0.76C489.256,113.555,489.933,111.392,490.438,109.003z
		 M490.822,106.93c0.306-1.931,0.479-3.979,0.469-6.102c2.06-0.65,3.972-1.482,5.701-2.463c0.059,0.545,0.101,1.092,0.109,1.646
		c0.028,1.671-0.173,3.292-0.528,4.848C494.797,105.692,492.866,106.388,490.822,106.93z M493.874,82.977
		c1.496,1.188,2.835,2.563,3.975,4.097c-0.553,0.634-1.19,1.229-1.895,1.788c-0.951-1.799-2.031-3.442-3.115-4.89
		C493.21,83.654,493.558,83.323,493.874,82.977z M492.317,81.848c-0.202,0.213-0.436,0.412-0.664,0.612
		c-0.591-0.72-1.165-1.374-1.704-1.958C490.767,80.905,491.562,81.35,492.317,81.848z M485.522,78.892
		c0.517,0.45,2.418,2.158,4.535,4.733c-0.704,0.428-1.475,0.809-2.309,1.125c-1.055-2.535-2.136-4.609-2.934-6.017
		C485.052,78.783,485.287,78.835,485.522,78.892z M481.605,78.313c0.246,0.014,0.489,0.028,0.732,0.051
		c0.653,1.069,2.107,3.588,3.524,6.969c-1.439,0.361-2.994,0.569-4.628,0.569c-0.003,0-0.005,0-0.007,0
		C481.378,82.366,481.526,79.675,481.605,78.313z M481.148,87.844c0.029,0,0.058,0.002,0.086,0.002c1.888,0,3.687-0.256,5.349-0.703
		c0.629,1.666,1.218,3.489,1.69,5.413c-2.18,0.573-4.552,0.896-7.039,0.896c-0.092,0-0.182-0.005-0.274-0.006
		C481.017,91.453,481.082,89.569,481.148,87.844z M480.829,99.3c0.021-1.334,0.049-2.641,0.08-3.911
		c0.108,0.001,0.216,0.008,0.325,0.008c2.627,0,5.137-0.341,7.457-0.95c0.314,1.602,0.539,3.259,0.625,4.942
		c-2.642,0.692-5.507,1.084-8.503,1.11C480.817,100.099,480.822,99.699,480.829,99.3z M480.804,102.443
		c2.998-0.025,5.873-0.4,8.55-1.07c-0.026,2.104-0.251,4.133-0.6,6.043c-2.496,0.514-5.139,0.802-7.876,0.827
		C480.831,106.369,480.804,104.418,480.804,102.443z M480.932,110.18c2.558-0.025,5.03-0.283,7.396-0.726
		c-0.56,2.369-1.283,4.504-2.008,6.312c-1.673,0.2-3.387,0.314-5.142,0.322C481.088,114.317,481.001,112.319,480.932,110.18z
		 M483.523,121.516c-0.658,0.097-1.326,0.161-2.002,0.196c-0.066-0.936-0.149-2.188-0.236-3.681
		c1.409-0.008,2.796-0.084,4.156-0.215C484.607,119.641,483.874,120.93,483.523,121.516z M486.988,120.727
		c-0.307,0.099-0.618,0.183-0.93,0.268c0.475-0.889,1.056-2.056,1.655-3.455c0.877-0.129,1.744-0.272,2.591-0.449
		C488.822,118.938,487.533,120.213,486.988,120.727z M491.611,118.607c0.561-0.682,1.148-1.441,1.741-2.276
		c0.714-0.204,1.419-0.42,2.106-0.657C494.296,116.793,492.998,117.766,491.611,118.607z M498.159,112.528
		c-1.005,0.462-2.063,0.872-3.149,1.251c1.326-2.234,2.523-4.815,3.266-7.646c1.223-0.625,2.396-1.291,3.468-2.033
		C501.153,107.189,499.908,110.049,498.159,112.528z M502.078,101.472c-1.003,0.807-2.108,1.554-3.298,2.239
		c0.188-1.211,0.287-2.455,0.266-3.731c-0.015-0.931-0.102-1.844-0.234-2.742c0.993-0.68,1.914-1.409,2.741-2.191
		c0.375,1.598,0.58,3.262,0.58,4.973C502.133,100.507,502.111,100.99,502.078,101.472z"/>
	<g>
		<path d="M465.699,83.956c-0.402-0.262-0.794-0.392-1.177-0.392c-0.585,0-1.003,0.309-1.258,0.925h2.284l-0.372,0.896h-2.073
			c-0.008,0.033-0.011,0.067-0.011,0.101s0,0.07,0,0.11c0,0.047,0,0.091,0,0.132c0,0.033,0.003,0.066,0.011,0.1h1.902l-0.372,0.896
			h-1.35c0.248,0.604,0.691,0.905,1.329,0.905c0.422,0,0.888-0.168,1.398-0.502v1.871c-0.463,0.208-1.017,0.312-1.66,0.312
			c-0.806,0-1.49-0.231-2.054-0.694c-0.557-0.476-0.938-1.105-1.147-1.892h-0.784l0.373-0.896h0.28
			c-0.006-0.027-0.009-0.057-0.009-0.091c0-0.04,0-0.083,0-0.13s0-0.088,0-0.121c0-0.04,0.003-0.074,0.009-0.101h-0.674l0.373-0.896
			h0.432c0.215-0.805,0.604-1.438,1.167-1.901c0.578-0.477,1.269-0.714,2.074-0.714c0.637,0,1.312,0.187,2.022,0.563L465.699,83.956
			z"/>
	</g>
	<g>
		<path d="M462.085,117.217c-0.529,0-0.98-0.071-1.353-0.217c-0.373-0.144-0.679-0.334-0.916-0.572
			c-0.239-0.238-0.415-0.512-0.528-0.82c-0.114-0.309-0.179-0.628-0.191-0.956h2.153c0,0.087,0.008,0.185,0.025,0.292
			c0.016,0.107,0.054,0.21,0.11,0.307c0.057,0.098,0.139,0.182,0.247,0.251c0.106,0.071,0.257,0.113,0.452,0.127v-1.42
			c-0.135-0.04-0.273-0.078-0.418-0.115c-0.144-0.036-0.293-0.082-0.447-0.136c-0.274-0.094-0.527-0.193-0.754-0.297
			c-0.229-0.104-0.423-0.228-0.584-0.373c-0.162-0.144-0.285-0.314-0.373-0.513c-0.087-0.198-0.131-0.44-0.131-0.729
			c0-0.409,0.082-0.764,0.247-1.062c0.164-0.298,0.375-0.544,0.634-0.735c0.259-0.19,0.548-0.331,0.87-0.422
			s0.641-0.136,0.956-0.136v-0.805h0.523v0.805c0.349,0,0.684,0.045,1.006,0.136s0.605,0.231,0.851,0.422
			c0.245,0.191,0.44,0.436,0.584,0.729c0.144,0.296,0.217,0.648,0.217,1.058h-1.923c-0.013-0.127-0.035-0.235-0.064-0.322
			c-0.031-0.087-0.074-0.158-0.132-0.212c-0.057-0.054-0.13-0.097-0.216-0.13c-0.088-0.034-0.194-0.063-0.322-0.091v1.127
			c0.65,0.141,1.168,0.297,1.555,0.468c0.386,0.171,0.682,0.359,0.886,0.564c0.205,0.204,0.338,0.428,0.397,0.669
			c0.061,0.241,0.091,0.503,0.091,0.784c0,0.275-0.052,0.55-0.156,0.825c-0.104,0.275-0.273,0.523-0.509,0.745
			c-0.234,0.221-0.538,0.402-0.91,0.543c-0.372,0.142-0.824,0.211-1.354,0.211v0.997h-0.523V117.217z M462.085,111.28
			c-0.181,0-0.346,0.027-0.492,0.081c-0.148,0.053-0.222,0.181-0.222,0.382c0,0.269,0.238,0.448,0.714,0.543V111.28z
			 M462.608,115.628c0.234-0.021,0.433-0.079,0.594-0.177c0.161-0.097,0.242-0.242,0.242-0.438c0-0.173-0.074-0.306-0.222-0.396
			c-0.148-0.092-0.353-0.18-0.614-0.267V115.628z"/>
	</g>
	<g>
		<path d="M470.104,89.987v-0.681h-1.981v0.681h-0.914l-0.056,6.571h9.664l0.055-6.571H470.104z M470.652,95.948
			c-1.442,0-2.612-1.17-2.612-2.614s1.17-2.613,2.612-2.613c1.444,0,2.614,1.169,2.614,2.613S472.097,95.948,470.652,95.948z
			 M475.766,91.352h-0.839c-0.249,0-0.452-0.202-0.452-0.45c0-0.252,0.203-0.454,0.452-0.454h0.839c0.25,0,0.453,0.202,0.453,0.454
			C476.219,91.149,476.016,91.352,475.766,91.352z"/>
		<circle cx="470.625" cy="93.334" r="1.798"/>
	</g>
	<g>
		<path d="M472.901,112.143c1.486,0,2.694-1.209,2.694-2.694c0-1.484-1.208-2.693-2.694-2.693c-1.485,0-2.693,1.209-2.693,2.693
			C470.208,110.934,471.416,112.143,472.901,112.143z"/>
		<path d="M476.932,116.29c-0.504-1.184-1.007-2.368-1.512-3.554c-0.096-0.226-0.271-0.31-0.451-0.3v-0.003h-4.002v0.006
			c-0.141,0.015-0.272,0.099-0.349,0.281c-0.473,1.115-0.945,2.231-1.418,3.349c-0.27,0.637,0.665,1.191,0.938,0.548
			c0.276-0.654,0.553-1.308,0.829-1.962v2.425c0,0.003-0.001,0.006-0.001,0.009c0,2.039,0,4.078,0,6.119
			c0,1.049,1.628,1.049,1.628,0c0-1.626,0-3.252,0-4.879h0.748c0,1.627,0,3.253,0,4.879c0,1.049,1.627,1.049,1.627,0
			c0-1.626,0-3.252,0-4.879c0-0.413,0-0.827,0-1.24v-2.483c0.322,0.756,0.644,1.511,0.964,2.266
			C476.224,117.552,477.22,116.965,476.932,116.29z"/>
	</g>
	<path d="M471.625,106.042v-5.729h-8.945v5.729h3.65v0.37h-1.908v0.305h5.345v-0.305h-1.868v-0.37H471.625z M463.334,105.199v-4.233
		h7.636v4.233H463.334z"/>
	<path d="M471.593,77.19v9.367h5.569V77.19H471.593z M474.501,77.577c0.074,0,0.134,0.061,0.134,0.135
		c0,0.075-0.06,0.135-0.134,0.135s-0.135-0.06-0.135-0.135C474.366,77.638,474.427,77.577,474.501,77.577z M473.7,78.027h1.602v0.13
		H473.7V78.027z M474.448,86.153c-0.178,0-0.321-0.145-0.321-0.321s0.144-0.32,0.321-0.32s0.321,0.144,0.321,0.32
		S474.626,86.153,474.448,86.153z M476.268,85.05c-1.446,0.008-3.064,0.014-3.781,0.008v-6.44l3.781-0.002V85.05z"/>
	<g>
		<path d="M459.649,92.371v-0.896h-1.863v0.905c-1.903,0.433-3.331,2.142-3.331,4.175c0,2.362,1.922,4.284,4.284,4.284
			c2.361,0,4.282-1.922,4.282-4.284C463.021,94.507,461.575,92.79,459.649,92.371z M458.739,100.124
			c-1.968,0-3.567-1.601-3.567-3.568c0-1.966,1.6-3.566,3.567-3.566c1.967,0,3.567,1.601,3.567,3.566
			C462.307,98.523,460.706,100.124,458.739,100.124z"/>
		<path d="M460.423,96.343c-0.028-0.314-0.147-0.603-0.325-0.843l0.756-1.348l-1.294,0.873c-0.199-0.111-0.421-0.188-0.659-0.21
			l-0.186-1.134l-0.188,1.14c-0.802,0.103-1.427,0.767-1.472,1.583l-1.133,0.186l1.152,0.189c0.039,0.221,0.121,0.425,0.233,0.606
			l-0.884,1.575l1.48-0.998c0.197,0.111,0.415,0.189,0.651,0.215l0.185,1.12l0.183-1.12c0.775-0.084,1.393-0.693,1.491-1.462
			l1.141-0.187L460.423,96.343z M457.416,96.509c0-0.731,0.592-1.323,1.323-1.323c0.161,0,0.315,0.031,0.457,0.084l-1.108,0.748
			l-0.023,0.023l-0.547,0.975C457.454,96.857,457.416,96.689,457.416,96.509z M458.208,96.159l2.105-1.421l-1.242,2.215l-2.105,1.42
			L458.208,96.159z M458.739,97.832c-0.176,0-0.342-0.036-0.495-0.099l0.945-0.639l0.025-0.022l0.676-1.206
			c0.107,0.19,0.171,0.409,0.171,0.643C460.062,97.24,459.47,97.832,458.739,97.832z"/>
		<circle cx="458.672" cy="96.509" r="0.292"/>
	</g>
</g>
<g>
</g>
<g>
</g>
<g>
</g>
<g>
</g>
<g>
</g>
<g>
</g>
<g>
</g>
<g>
</g>
<g>
</g>
<g>
</g>
<g>
</g>
<g>
</g>
<g>
</g>
<g>
</g>
<g>
</g>
</svg>
