<?xml version="1.0" encoding="iso-8859-1"?>
<!-- Generator: Adobe Illustrator 16.0.0, SVG Export Plug-In . SVG Version: 6.00 Build 0)  -->
<!DOCTYPE svg PUBLIC "-//W3C//DTD SVG 1.1//EN" "http://www.w3.org/Graphics/SVG/1.1/DTD/svg11.dtd">
<svg version="1.1" id="Layer_1" xmlns="http://www.w3.org/2000/svg" xmlns:xlink="http://www.w3.org/1999/xlink" x="0px" y="0px"
	 width="44.901px" height="49.765px" viewBox="0 0 44.901 49.765" style="enable-background:new 0 0 44.901 49.765;"
	 xml:space="preserve">
<g>
	<path d="M499.051-60.218h-37.816v24.936h37.816V-60.218z M495.217-39.114h-30.148v-17.271h30.148V-39.114z"/>
	<path d="M499.045-34.124h-18.367h-1.076h-18.367l-5.15,6.882h48.111L499.045-34.124z M461.625-28.51l3.265-4.351h14.819h0.868
		h14.818l2.761,4.351H461.625z"/>
	<polygon points="485.344,-26.742 485.344,-25.9 475.031,-25.9 475.031,-26.742 455.791,-26.742 455.791,-25.104 504.488,-25.104 
		504.488,-26.742 	"/>
</g>
<g>
	<polygon style="fill:none;" points="477.402,-51.19 477.452,-51.382 477.31,-51.416 477.151,-51.341 477.249,-51.141 	"/>
	<polygon style="fill:none;" points="477.832,-50.715 477.633,-50.715 477.493,-50.564 477.472,-50.414 477.576,-50.357 	"/>
	<polygon style="fill:none;" points="477.991,-50.765 477.991,-50.889 477.938,-50.889 477.938,-50.961 477.701,-50.961 
		477.527,-50.889 477.493,-50.802 477.629,-50.765 	"/>
	<polygon style="fill:none;" points="478.055,-50.907 478.055,-50.765 478.18,-50.794 	"/>
	<path style="fill:none;" d="M486.044-49.035c-0.008-0.035-0.017-0.068-0.024-0.104L486-49.115L486.044-49.035z"/>
	<polygon style="fill:none;" points="476.953,-52.289 476.953,-52.383 476.737,-52.383 476.727,-52.338 476.594,-52.338 
		476.594,-52.326 476.594,-52.206 476.892,-52.206 	"/>
	<polygon style="fill:none;" points="478.449,-50.399 478.449,-50.516 478.22,-50.584 478.205,-50.584 478.205,-50.476 
		478.258,-50.399 	"/>
	<path style="fill:none;" d="M485.301-50.099l-0.03-0.277l-0.162,0.088l-0.086,0.34l-0.233-0.248l-0.01-0.235l-0.226-0.193
		l-0.083-0.083h-0.263l0.083,0.232l0.315,0.176l0.055,0.06l-0.067,0.032l0.002,0.186l-0.153,0.063l-0.131-0.029l-0.082-0.115
		l0.213,0.012l0.058-0.078l-0.472-0.318l-0.036-0.135l-0.191,0.173l-0.193-0.04l-0.296,0.385l-0.059,0.15l-0.189,0.018h-0.279
		l-0.167-0.077l-0.049-0.332l0.06-0.158l0.285-0.063l0.311,0.063l0.037-0.172l-0.132-0.031l0.045-0.267l0.313-0.049l0.219-0.309
		l0.226-0.039l0.203,0.03h0.074l-0.04-0.289l-0.248,0.1l-0.086-0.217l-0.145-0.02l-0.026-0.149l0.117-0.127l0.278-0.109l0.071-0.128
		c-1.064-0.938-2.46-1.509-3.987-1.509c-1.325,0-2.551,0.431-3.548,1.157l0.305-0.003l0.136,0.074l0.256,0.056l0.02,0.101
		l0.406,0.015l-0.055-0.13l-0.362-0.01l0.086-0.081l-0.029-0.096h-0.327l0.356-0.267h0.342l0.16,0.222l0.266,0.016l0.161-0.156
		l0.121,0.061l-0.222,0.216c0,0-0.306,0.005-0.291,0.005c0.016,0,0.024,0.21,0.024,0.21l0.373-0.009l0.039-0.101l0.257-0.015
		l0.029-0.151l-0.15-0.025l0.05-0.135l0.116-0.035l0.4,0.021l-0.22,0.2l0.035,0.155l0.23,0.035l-0.016-0.28l0.222-0.116l0.391-0.044
		l0.567,0.25v0.216l0.181,0.045l-0.09,0.171h-0.256l-0.077,0.195l-0.584-0.139l0.46-0.244l-0.176-0.148l-0.396,0.05l-0.036,0.035
		h-0.001l-0.006,0.009l-0.114,0.119l-0.188,0.016l0.015,0.094l0.066,0.026l-0.003,0.032l-0.154,0.021l-0.011,0.089l-0.146,0.008
		l-0.026-0.177l-0.264,0.08l-0.538,0.315l0.06,0.222l0.151,0.098l0.301,0.042v0.343l0.14-0.023l0.128-0.268l0.32-0.102v-0.41
		l0.178-0.134l0.43,0.101l-0.029,0.271h0.115l0.316-0.155l0.015,0.356l0.23,0.14l-0.01,0.212l-0.221,0.076l0.016,0.069l0.266,0.121
		l-0.006,0.145l-0.077,0.007c0-0.002,0-0.004,0-0.004l-0.336-0.104l-0.014-0.107h-0.001l0.099-0.068v-0.098l-0.105-0.025
		l-0.026,0.09l-0.185,0.028l-0.019-0.007v0.01l-0.063,0.011l-0.053-0.106l-0.062-0.025h-0.132l-0.06,0.048v0.11l0.113,0.037
		l0.11,0.016l-0.023,0.011l-0.103,0.112l-0.044-0.057l-0.099-0.025l-0.268,0.252l0.034,0.029l-0.395,0.217l-0.37,0.387l-0.026,0.173
		l-0.372,0.245l-0.186,0.186l0.021,0.371l-0.255-0.119l0.002-0.219l-0.713,0.001l-0.369,0.188l-0.16,0.295l-0.063,0.234l0.104,0.228
		l0.29,0.035l0.462-0.31l0.04,0.153l-0.141,0.267l0.352,0.06l0.035,0.543l0.481,0.082l0.307-0.354l0.371,0.075l0.131,0.183
		l0.356-0.021l0.01-0.106l0.196,0.096l0.221,0.346l0.381,0.005l0.141,0.247l0.021,0.301l0.421,0.16l0.533,0.005l0.154,0.257
		l0.236,0.075l-0.045,0.21l-0.259,0.329l-0.075,0.727l-0.233,0.185l-0.347-0.01l-0.115,0.2l0.086,0.377l-0.377,0.481l-0.12,0.222
		l-0.359,0.173l-0.236,0.035l-0.01,0.101l0.165,0.047l-0.02,0.107l-0.148,0.144l0.09,0.114l0.18,0.004l-0.011,0.138l-0.047,0.136
		l-0.015,0.11l0.264,0.222l-0.035,0.116l-0.36-0.007l-0.357-0.313l-0.279-0.489l0.039-0.473l-0.21-0.281l0.086-0.476l-0.125-0.036
		v-1.034c0,0-0.353-0.266-0.373-0.266c-0.02,0-0.185-0.045-0.185-0.045l-0.036-0.196l-0.457-0.572l0.046-0.206l0.015-0.336
		l0.316-0.221l-0.045-0.376l-0.461-0.035l-0.362-0.411l-0.256-0.07l-0.165-0.031l0.02-0.15l-0.211-0.029v0.085l-0.526-0.131
		l-0.213-0.324l0.087-0.157l-0.334-0.487l-0.057-0.355h-0.136l0.045,0.346l0.23,0.356l-0.024,0.141l-0.197-0.03l-0.239-0.41v-0.478
		l-0.251-0.121v-0.344c-0.31,0.727-0.483,1.525-0.483,2.363c0,3.33,2.71,6.039,6.04,6.039c1.888,0,3.576-0.87,4.685-2.23h-0.199
		v-0.402l-0.23-0.311v-0.482l-0.177-0.176l-0.015-0.201l0.224-0.427l-0.424-0.748l0.05-0.506l-0.381-0.041l-0.141-0.14h-0.257
		l-0.13,0.12h-0.451l-0.016,0.041h-0.251l-0.577-0.658l0.005-0.512l0.096-0.036l0.036-0.195h-0.137l-0.056-0.205l0.668-0.482v-0.341
		l0.327-0.182l0.132,0.013h0.269l0.211-0.113l0.678-0.052v0.346l0.535,0.136l0.105,0.076h0.097v-0.189l0.309-0.03l0.294,0.22h0.482
		l0.033-0.032c-0.047-0.162-0.103-0.321-0.163-0.479l-0.314,0.005L485.301-50.099z M482.922-51.649l0.056-0.085l0.198-0.041
		l0.049,0.242l0.106,0.17l0.07,0.081l0.127,0.05l-0.12,0.143l-0.232,0.023H483l0.019-0.209l0.146-0.03l-0.012-0.098l-0.137-0.085
		l-0.095-0.065V-51.649z M482.596-51.272l0.121-0.193l0.161-0.037l0.116,0.05l-0.01,0.13l-0.248,0.176h-0.141V-51.272z
		 M479.314-50.529l-0.127,0.01l0.008-0.088l0.057-0.069l0.075,0.06L479.314-50.529z M479.755-50.685l-0.085,0.008l-0.019,0.083
		l-0.065,0.041l-0.106,0.009c-0.003-0.024-0.006-0.044-0.006-0.044h-0.042v-0.089h0.174l0.036-0.093l0.068-0.001l0.079,0.017
		L479.755-50.685z"/>
	<path style="fill:none;" d="M485.484-50.447v0.266l0.117-0.016l0.062,0.002c-0.044-0.1-0.091-0.198-0.141-0.295L485.484-50.447z"/>
	<path style="fill:none;" d="M476.947-51.924c0,0,0.012-0.132,0-0.132c-0.011,0-0.144,0.022-0.144,0.022l-0.21,0.061l0.057,0.068
		L476.947-51.924z"/>
	<polygon style="fill:none;" points="478.42,-50.677 478.327,-50.734 478.272,-50.677 478.346,-50.616 	"/>
	<path style="fill:none;" d="M477.954-50.516l0.111-0.021l0.091-0.058v-0.12h-0.202C477.954-50.697,477.954-50.516,477.954-50.516z"
		/>
	<path style="fill:none;" d="M486.263-50.182l-0.021-0.111l-0.036-0.014c0.019,0.041,0.033,0.084,0.051,0.125H486.263z"/>
	<polygon style="fill:none;" points="477.954,-50.411 477.862,-50.403 477.832,-50.271 478.024,-50.271 478.111,-50.357 
		478.111,-50.476 477.972,-50.456 	"/>
	<path style="fill:none;" d="M475.043-50.979c-0.086,0.135-0.167,0.273-0.242,0.414l0.252-0.305L475.043-50.979z"/>
	<path style="fill:none;" d="M484.272-51.465l0.027,0.086l0.414,0.005l0.117-0.177c-0.095-0.117-0.193-0.23-0.297-0.34l-0.001,0.295
		L484.272-51.465z"/>
	<polygon points="483.153,-51.403 483.165,-51.306 483.019,-51.275 483,-51.066 483.176,-51.066 483.408,-51.09 483.528,-51.232 
		483.401,-51.282 483.331,-51.363 483.225,-51.533 483.176,-51.775 482.978,-51.734 482.922,-51.649 482.922,-51.554 
		483.017,-51.488 	"/>
	<polygon points="482.984,-51.323 482.994,-51.453 482.878,-51.503 482.717,-51.466 482.596,-51.272 482.596,-51.147 
		482.736,-51.147 	"/>
	<path d="M479.642-50.77l-0.036,0.093h-0.174v0.089h0.042c0,0,0.003,0.02,0.006,0.044l0.106-0.009l0.065-0.041l0.019-0.083
		l0.085-0.008l0.034-0.069l-0.079-0.017L479.642-50.77z"/>
	<polygon points="479.195,-50.607 479.188,-50.52 479.314,-50.529 479.327,-50.617 479.252,-50.677 	"/>
	<path d="M486.722-47.818c-0.001-0.191-0.011-0.383-0.029-0.57c-0.062-0.628-0.21-1.229-0.436-1.793
		c-0.018-0.041-0.032-0.084-0.051-0.125c-0.299-0.708-0.72-1.352-1.233-1.907c-0.033-0.036-0.068-0.071-0.103-0.107
		c-0.098-0.102-0.197-0.199-0.301-0.294c-1.17-1.065-2.724-1.716-4.427-1.716c-1.718,0-3.282,0.662-4.456,1.744
		c-0.272,0.251-0.523,0.527-0.752,0.821c-0.859,1.111-1.373,2.505-1.373,4.016c0,3.629,2.953,6.581,6.581,6.581
		c2.554,0,4.77-1.462,5.86-3.591c0.232-0.455,0.415-0.941,0.538-1.449c0.03-0.129,0.057-0.258,0.08-0.39
		c0.066-0.375,0.103-0.758,0.103-1.151C486.724-47.771,486.722-47.795,486.722-47.818z M485.484-50.447l0.038-0.043
		c0.05,0.097,0.097,0.195,0.141,0.295l-0.062-0.002l-0.117,0.016V-50.447z M484.533-51.596l0.001-0.295
		c0.104,0.109,0.202,0.223,0.297,0.34l-0.117,0.177l-0.414-0.005l-0.027-0.086L484.533-51.596z M476.594-52.326v-0.012h0.133
		l0.011-0.045h0.216v0.094l-0.062,0.083h-0.298V-52.326z M476.804-52.033c0,0,0.133-0.022,0.144-0.022c0.012,0,0,0.132,0,0.132
		l-0.297,0.02l-0.057-0.068L476.804-52.033z M485.903-49.42h-0.482l-0.294-0.22l-0.309,0.03v0.189h-0.097l-0.105-0.076l-0.535-0.136
		v-0.346l-0.678,0.052l-0.211,0.113h-0.269l-0.132-0.013l-0.327,0.182v0.341l-0.668,0.482l0.056,0.205h0.137l-0.036,0.195
		l-0.096,0.036l-0.005,0.512l0.577,0.658h0.251l0.016-0.041h0.451l0.13-0.12h0.257l0.141,0.14l0.381,0.041l-0.05,0.506l0.424,0.748
		l-0.224,0.427l0.015,0.201l0.177,0.176v0.482l0.23,0.311v0.402h0.199c-1.108,1.36-2.797,2.23-4.685,2.23
		c-3.33,0-6.04-2.709-6.04-6.039c0-0.838,0.174-1.637,0.483-2.363v-0.188l0.215-0.263c0.075-0.141,0.156-0.279,0.242-0.414
		l0.01,0.109l-0.252,0.305c-0.077,0.147-0.15,0.297-0.215,0.451v0.344l0.251,0.121v0.478l0.239,0.41l0.197,0.03l0.024-0.141
		l-0.23-0.356l-0.045-0.346h0.136l0.057,0.355l0.334,0.487l-0.087,0.157l0.213,0.324l0.526,0.131v-0.085l0.211,0.029l-0.02,0.15
		l0.165,0.031l0.256,0.07l0.362,0.411l0.461,0.035l0.045,0.376l-0.316,0.221l-0.015,0.336l-0.046,0.206l0.457,0.572l0.036,0.196
		c0,0,0.165,0.045,0.185,0.045c0.021,0,0.373,0.266,0.373,0.266v1.034l0.125,0.036l-0.086,0.476l0.21,0.281l-0.039,0.473
		l0.279,0.489l0.357,0.313l0.36,0.007l0.035-0.116l-0.264-0.222l0.015-0.11l0.047-0.136l0.011-0.138l-0.18-0.004l-0.09-0.114
		l0.148-0.144l0.02-0.107l-0.165-0.047l0.01-0.101l0.236-0.035l0.359-0.173l0.12-0.222l0.377-0.481l-0.086-0.377l0.115-0.2
		l0.347,0.01l0.233-0.185l0.075-0.727l0.259-0.329l0.045-0.21l-0.236-0.075l-0.154-0.257l-0.533-0.005l-0.421-0.16l-0.021-0.301
		l-0.141-0.247l-0.381-0.005l-0.221-0.346l-0.196-0.096l-0.01,0.106l-0.356,0.021l-0.131-0.183l-0.371-0.075l-0.307,0.354
		l-0.481-0.082l-0.035-0.543l-0.352-0.06l0.141-0.267l-0.04-0.153l-0.462,0.31l-0.29-0.035l-0.104-0.228l0.063-0.234l0.16-0.295
		l0.369-0.188l0.713-0.001l-0.002,0.219l0.255,0.119l-0.021-0.371l0.186-0.186l0.372-0.245l0.026-0.173l0.37-0.387l0.395-0.217
		l-0.034-0.029l0.268-0.252l0.099,0.025l0.044,0.057l0.103-0.112l0.023-0.011l-0.11-0.016l-0.113-0.037v-0.11l0.06-0.048h0.132
		l0.062,0.025l0.053,0.106l0.063-0.011v-0.01l0.019,0.007l0.185-0.028l0.026-0.09l0.105,0.025v0.098l-0.099,0.068h0.001l0.014,0.107
		l0.336,0.104c0,0,0,0.002,0,0.004l0.077-0.007l0.006-0.145l-0.266-0.121l-0.016-0.069l0.221-0.076l0.01-0.212l-0.23-0.14
		l-0.015-0.356l-0.316,0.155h-0.115l0.029-0.271l-0.43-0.101l-0.178,0.134v0.41l-0.32,0.102l-0.128,0.268l-0.14,0.023v-0.343
		l-0.301-0.042l-0.151-0.098l-0.06-0.222l0.538-0.315l0.264-0.08l0.026,0.177l0.146-0.008l0.011-0.089l0.154-0.021l0.003-0.032
		l-0.066-0.026l-0.015-0.094l0.188-0.016l0.114-0.119l0.006-0.009h0.001l0.036-0.035l0.396-0.05l0.176,0.148l-0.46,0.244
		l0.584,0.139l0.077-0.195h0.256l0.09-0.171l-0.181-0.045v-0.216l-0.567-0.25l-0.391,0.044l-0.222,0.116l0.016,0.28l-0.23-0.035
		l-0.035-0.155l0.22-0.2l-0.4-0.021l-0.116,0.035l-0.05,0.135l0.15,0.025l-0.029,0.151l-0.257,0.015l-0.039,0.101l-0.373,0.009
		c0,0-0.009-0.21-0.024-0.21c-0.015,0,0.291-0.005,0.291-0.005l0.222-0.216l-0.121-0.061l-0.161,0.156l-0.266-0.016l-0.16-0.222
		h-0.342l-0.356,0.267h0.327l0.029,0.096l-0.086,0.081l0.362,0.01l0.055,0.13l-0.406-0.015l-0.02-0.101l-0.256-0.056l-0.136-0.074
		l-0.305,0.003c0.997-0.727,2.223-1.157,3.548-1.157c1.527,0,2.923,0.571,3.987,1.509l-0.071,0.128l-0.278,0.109l-0.117,0.127
		l0.026,0.149l0.145,0.02l0.086,0.217l0.248-0.1l0.04,0.289h-0.074l-0.203-0.03l-0.226,0.039l-0.219,0.309l-0.313,0.049
		l-0.045,0.267l0.132,0.031l-0.037,0.172l-0.311-0.063l-0.285,0.063l-0.06,0.158l0.049,0.332l0.167,0.077h0.279l0.189-0.018
		l0.059-0.15l0.296-0.385l0.193,0.04l0.191-0.173l0.036,0.135l0.472,0.318l-0.058,0.078l-0.213-0.012l0.082,0.115l0.131,0.029
		l0.153-0.063l-0.002-0.186l0.067-0.032l-0.055-0.06l-0.315-0.176l-0.083-0.232h0.263l0.083,0.083l0.226,0.193l0.01,0.235
		l0.233,0.248l0.086-0.34l0.162-0.088l0.03,0.277l0.158,0.173l0.314-0.005c0.061,0.157,0.116,0.316,0.163,0.479L485.903-49.42z
		 M477.151-51.341l0.158-0.075l0.143,0.034l-0.05,0.191l-0.153,0.05L477.151-51.341z M477.991-50.889v0.124h-0.362l-0.136-0.037
		l0.034-0.087l0.174-0.072h0.237v0.072H477.991z M478.156-50.715v0.12l-0.091,0.058l-0.111,0.021c0,0,0-0.182,0-0.199H478.156z
		 M478.055-50.765v-0.143l0.125,0.113L478.055-50.765z M478.111-50.476v0.118l-0.087,0.086h-0.192l0.03-0.132l0.092-0.008
		l0.018-0.045L478.111-50.476z M477.633-50.715h0.199l-0.256,0.357l-0.104-0.057l0.021-0.15L477.633-50.715z M478.449-50.516v0.116
		h-0.191l-0.053-0.076v-0.108h0.015L478.449-50.516z M478.272-50.677l0.055-0.058l0.093,0.058l-0.074,0.061L478.272-50.677z
		 M486-49.115l0.02-0.023c0.008,0.035,0.017,0.068,0.024,0.104L486-49.115z"/>
	<path d="M474.586-50.302v0.188c0.064-0.154,0.138-0.304,0.215-0.451L474.586-50.302z"/>
</g>
<g>
</g>
<g>
</g>
<g>
</g>
<g>
</g>
<g>
</g>
<g>
</g>
<g>
</g>
<g>
</g>
<g>
</g>
<g>
</g>
<g>
</g>
<g>
</g>
<g>
</g>
<g>
</g>
<g>
</g>
</svg>
