<?xml version="1.0" encoding="iso-8859-1"?>
<!-- Generator: Adobe Illustrator 16.0.0, SVG Export Plug-In . SVG Version: 6.00 Build 0)  -->
<!DOCTYPE svg PUBLIC "-//W3C//DTD SVG 1.1//EN" "http://www.w3.org/Graphics/SVG/1.1/DTD/svg11.dtd">
<svg version="1.1" id="Layer_1" xmlns="http://www.w3.org/2000/svg" xmlns:xlink="http://www.w3.org/1999/xlink" x="0px" y="0px"
	 width="44.901px" height="49.765px" viewBox="0 0 44.901 49.765" style="enable-background:new 0 0 44.901 49.765;"
	 xml:space="preserve">
<g>
	<path d="M575.53-133.975c-0.222-0.115-5.512-2.853-11.708-2.853c-5.386,0-9.647,2.063-10.829,2.696
		c-1.244-0.6-5.971-2.696-11.395-2.696c-6.223,0-10.954,2.761-11.152,2.878l-0.527,0.313v33.123l1.289-0.399
		c0.062-0.017,6.145-1.871,11.215-1.871c4.224,0,8.443,1.293,9.72,1.718l0.827,0.296l0.91-0.271
		c1.482-0.421,6.479-1.742,10.765-1.742c5.029,0,10.067,1.836,10.12,1.855l1.338,0.494v-33.241L575.53-133.975z M551.854-103.446
		c-1.918-0.582-5.627-1.532-9.432-1.532c-3.953,0-8.35,1.025-10.479,1.592v-28.917c1.337-0.675,5.084-2.329,9.654-2.329
		c4.601,0,8.772,1.688,10.256,2.362V-103.446z M574.077-103.446c-1.917-0.582-5.626-1.532-9.433-1.532
		c-3.953,0-8.348,1.025-10.479,1.592v-28.917c1.339-0.675,5.085-2.329,9.656-2.329c4.599,0,8.773,1.688,10.255,2.362V-103.446z"/>
	<path d="M560.115-125.506l0.195,0.105l0.367,0.077l0.028,0.142l0.585,0.021l-0.08-0.184l-0.519-0.015l0.122-0.111l-0.043-0.134
		h-0.469l0.512-0.376h0.49l0.23,0.312l0.383,0.021l0.23-0.219l0.173,0.085l-0.317,0.304c0,0-0.439,0.008-0.417,0.008
		c0.02,0,0.035,0.296,0.035,0.296l0.533-0.015l0.058-0.141l0.368-0.021l0.042-0.211l-0.216-0.036l0.073-0.19l0.164-0.05l0.578,0.028
		l-0.318,0.283l0.051,0.218l0.332,0.049l-0.021-0.395l0.318-0.163l0.562-0.063l0.815,0.354v0.303l0.259,0.063l-0.13,0.24h-0.367
		l-0.109,0.276l-0.841-0.194l0.66-0.345l-0.251-0.211l-0.569,0.071l-0.051,0.051l-0.002-0.001l-0.009,0.012l-0.164,0.167
		l-0.271,0.023l0.021,0.132l0.096,0.038l-0.004,0.044l-0.221,0.03l-0.017,0.126l-0.21,0.01l-0.039-0.248l-0.378,0.112l-0.773,0.443
		l0.088,0.313l0.215,0.138l0.433,0.058v0.481l0.2-0.031l0.185-0.377l0.46-0.142v-0.578l0.256-0.188l0.618,0.142l-0.044,0.383h0.166
		l0.455-0.219l0.021,0.501l0.331,0.197l-0.014,0.297l-0.317,0.105l0.021,0.099l0.383,0.17l-0.008,0.206l-0.11,0.009
		c-0.001-0.003-0.002-0.006-0.002-0.006l-0.482-0.146l-0.02-0.151l0.141-0.095v-0.138l-0.151-0.038l-0.038,0.128l-0.267,0.04
		l-0.026-0.009v0.014l-0.092,0.013l-0.075-0.147l-0.086-0.038h-0.19l-0.086,0.069v0.153l0.163,0.054l0.159,0.021l-0.035,0.016
		l-0.146,0.159l-0.064-0.08l-0.141-0.037l-0.384,0.354l0.05,0.04l-0.566,0.309l-0.535,0.544l-0.035,0.241l-0.536,0.345l-0.265,0.262
		l0.029,0.522l-0.367-0.169l0.002-0.305h-1.023l-0.529,0.264l-0.23,0.415l-0.092,0.33l0.149,0.319l0.417,0.05l0.664-0.436
		l0.059,0.216l-0.202,0.375l0.504,0.084l0.051,0.765l0.692,0.115l0.439-0.498l0.533,0.106l0.188,0.255l0.513-0.029l0.015-0.148
		l0.281,0.134l0.316,0.488l0.549,0.007l0.201,0.346l0.029,0.424l0.604,0.227l0.766,0.007l0.224,0.359l0.339,0.106l-0.065,0.297
		l-0.371,0.462l-0.109,1.023l-0.335,0.26l-0.496-0.014l-0.167,0.281l0.122,0.53l-0.54,0.679l-0.174,0.311l-0.516,0.242l-0.338,0.05
		l-0.015,0.142l0.238,0.066l-0.029,0.152l-0.213,0.201l0.129,0.16l0.258,0.007l-0.015,0.194l-0.068,0.19l-0.021,0.155l0.378,0.313
		l-0.05,0.162l-0.517-0.01l-0.513-0.439l-0.4-0.688l0.056-0.666l-0.303-0.396l0.122-0.671l-0.179-0.05v-1.454
		c0,0-0.506-0.375-0.534-0.375c-0.03,0-0.268-0.063-0.268-0.063l-0.05-0.274l-0.657-0.806l0.065-0.29l0.021-0.474l0.455-0.311
		l-0.065-0.53l-0.663-0.049l-0.52-0.579l-0.367-0.099l-0.238-0.043l0.029-0.212l-0.304-0.043v0.121l-0.757-0.184l-0.305-0.457
		l0.125-0.221l-0.48-0.687l-0.082-0.5h-0.194l0.064,0.486l0.332,0.502l-0.036,0.198l-0.281-0.043l-0.346-0.577v-0.672l-0.361-0.171
		v-0.483c-0.444,1.022-0.692,2.146-0.692,3.326c0,4.687,3.893,8.5,8.676,8.5c2.713,0,5.138-1.228,6.729-3.142h-0.285v-0.566
		l-0.333-0.437v-0.679l-0.251-0.247l-0.022-0.282l0.321-0.601l-0.609-1.053l0.071-0.715l-0.547-0.055l-0.202-0.198h-0.368
		l-0.188,0.169h-0.647l-0.023,0.057h-0.36l-0.828-0.924l0.008-0.722l0.136-0.05l0.052-0.274h-0.195l-0.08-0.29l0.959-0.678v-0.48
		l0.47-0.255l0.189,0.019h0.387l0.303-0.16l0.974-0.073v0.487l0.768,0.19l0.15,0.106h0.142v-0.266l0.443-0.042l0.423,0.308h0.69
		l0.05-0.044c-0.069-0.229-0.147-0.453-0.235-0.674l-0.452,0.007l-0.227-0.242l-0.044-0.393l-0.231,0.125l-0.125,0.479l-0.336-0.35
		l-0.013-0.331l-0.323-0.272l-0.12-0.116h-0.376l0.119,0.327l0.452,0.248l0.077,0.08l-0.097,0.049l0.004,0.26l-0.221,0.09
		l-0.188-0.04l-0.118-0.164l0.306,0.017l0.083-0.109l-0.678-0.447l-0.052-0.191l-0.275,0.244l-0.278-0.056l-0.425,0.54l-0.083,0.212
		l-0.272,0.024l-0.401,0.003l-0.241-0.11l-0.069-0.467l0.086-0.224l0.409-0.088l0.445,0.088l0.055-0.241l-0.189-0.044l0.064-0.377
		l0.448-0.068l0.314-0.435l0.323-0.054l0.293,0.043h0.108l-0.06-0.408l-0.354,0.142l-0.126-0.305l-0.207-0.029l-0.038-0.209
		l0.168-0.179l0.401-0.154l0.102-0.18c-1.529-1.319-3.533-2.124-5.728-2.124c-1.903,0-3.664,0.605-5.097,1.628L560.115-125.506z
		 M563.584-122.544l-0.181,0.016l0.01-0.124l0.081-0.098l0.109,0.083L563.584-122.544z M564.218-122.761l-0.124,0.011l-0.024,0.116
		l-0.094,0.058l-0.153,0.014c-0.005-0.035-0.009-0.063-0.009-0.063h-0.06v-0.125h0.249l0.052-0.131l0.099-0.002l0.112,0.023
		L564.218-122.761z M568.767-124.119l0.078-0.121l0.286-0.056l0.071,0.34l0.152,0.24l0.101,0.112l0.183,0.07l-0.172,0.202
		l-0.335,0.031h-0.253l0.028-0.293l0.21-0.042l-0.018-0.138l-0.195-0.12l-0.137-0.092V-124.119z M568.298-123.588l0.174-0.273
		l0.233-0.052l0.166,0.069l-0.015,0.185l-0.356,0.247h-0.202V-123.588z"/>
	<path d="M536.229-124.748l0.144,0.012l0.342-0.347l0.377,0.014l0.501,0.074l0.315,0.16l3.374,0.175l0.926,0.394l-0.13,0.111
		l-0.687-0.111l-0.011,0.133l0.251,0.173l-0.327,0.065v0.197l-0.675,0.044l0.512,0.48l0.087,0.394L541-122.66l-0.719-0.59v-0.273
		l0.174-0.273l-0.13-0.164l-0.784,0.525l-0.62-0.056l-0.207-0.152l-0.261,0.372l0.119,0.239l0.903,0.109l0.363,0.415l-0.091,0.121
		l-0.283-0.285l-0.13,0.143l0.221,0.293l-0.047,0.55l-0.581-0.001l-0.028,0.444l0.489,0.299l0.171,0.226l-0.258,0.069l-0.914-0.699
		h-0.294l0.011,0.568l0.664,0.699l0.051,0.507l-0.334,0.279l-0.762,0.273l0.076,0.284l-0.139,0.099l-0.155-0.24l0.021-0.186
		l-0.272-0.088l-0.152,0.207l0.021,0.395l0.537,0.433l0.054,0.328l-0.325,0.217l-0.246-0.026l-0.443-0.504l-0.087,0.35l0.838,1.202
		l-0.055,0.175l-1.034-0.994v-1.006l-0.783-0.698l-0.625-0.061l-0.354,0.133l-0.22,0.474l-0.116,0.879l-0.212,0.309l-0.213-0.049
		l-0.581-0.959c0.148,4.564,3.878,8.219,8.46,8.219c3.288,0,6.136-1.882,7.538-4.631l-0.625-0.787l0.064-0.299l0.022-0.487
		l0.456-0.321l-0.064-0.546l-0.668-0.051l-0.522-0.598l-0.37-0.102l-0.239-0.044l0.029-0.219l-0.306-0.044v0.124l-0.762-0.189
		l-0.307-0.471l0.125-0.229l-0.482-0.707l-0.083-0.517h-0.196l0.066,0.502l0.333,0.518l-0.036,0.204l-0.283-0.044l-0.348-0.597
		v-0.692l-0.363-0.176v-0.771l0.675-0.823l-0.044-0.492l0.188-0.135l-0.225-0.211l0.014-0.372l-0.268-0.24h-0.748l-0.123,0.132
		l-0.893-0.008l-0.327-0.277l0.255-0.182h0.652v-0.122l-0.305-0.046l0.196-0.152l0.429-0.066l0.638-0.437h1.104l0.603,0.183
		l0.203,0.116l0.182,0.015l0.269-0.263l0.484-0.004c-1.528-1.51-3.625-2.442-5.938-2.442c-2.199,0-4.202,0.842-5.707,2.222
		L536.229-124.748z M534.537-117.178l-0.33,0.123l-0.091-0.247l0.191-0.271l0.266,0.053L534.537-117.178z M539.595-115.306
		l0.017-0.101l0.199-0.029l0.017,0.154l-0.122-0.014v0.09h-0.175v0.077h-0.169v-0.153h0.012L539.595-115.306z M539.46-115.379
		l-0.114-0.035v-0.079h0.146L539.46-115.379z M539.397-116.4l0.005,0.709l-0.159,0.016v-0.241l-0.152-0.055l0.028,0.339h-0.195
		v-0.531h0.095l-0.005-0.087L539.397-116.4z M539.271-115.462v0.083l-0.079,0.013v0.085h-0.108v0.068l-0.16,0.016v-0.084
		l0.103-0.098l0.071-0.083H539.271z M537.715-116.651l0.76-0.414l0.101-0.09l0.084-0.227h0.131l0.044,0.224l0.09,0.038v0.72
		l-0.09,0.059v0.096l-0.145,0.132l-0.082,0.207h-0.639l-0.254-0.336V-116.651z M538.834-115.379v0.098h-0.175v-0.098H538.834z
		 M537.063-115.598h0.202v-0.072l-0.152-0.051l-1.066-1.312l0.183-0.146l0.748,0.676l-0.009,0.11l0.159,0.212l0.581-0.008
		l0.021,0.27l-0.211,0.022l-0.086-0.037l0.021,0.292l0.537-0.015l0.435,0.276l-1.313-0.057L537.063-115.598z M541.099-111.191
		l-0.305,0.168l-0.378-0.041l0.355-0.395l0.333,0.036L541.099-111.191z M543.31-111.689l0.254-0.175l0.036-0.558l0.289-0.018
		l0.005,0.356l0.157-0.031l0.107,0.191l-0.291,0.166l-0.289,0.129l-0.271,0.179l-0.958,0.59l-0.395,0.061v-0.181l0.128-0.105
		l0.756-0.539L543.31-111.689z M542.629-113.173l-0.254,0.581l-1.03,0.973l-1.069-0.037l-0.348-0.77l-0.941,0.038l-1.162,0.4v-0.212
		l0.24-0.232l0.029-1.194l0.398-0.277l0.358-0.004l0.675-0.772l0.426-0.032v0.16h0.146l0.355-0.507h0.495l0.422,0.254l-0.198,0.194
		l-0.234-0.048l0.016,0.318l0.123,0.075l0.443,0.033l0.095-0.805l0.232,0.011l0.258,0.443l0.029,0.642l0.392,0.337L542.629-113.173z
		 M542.317-115.299h0.196v0.168h-0.393v-0.415l-0.225,0.021l-0.211,0.226l-0.581,0.037l-0.007-0.27h0.175l-0.008-0.132l-0.269-0.142
		l-0.479-0.069l-0.222-0.273l0.33-0.331l0.232,0.139l-0.019,0.254l0.243-0.007l0.262-0.139l0.937,0.427L542.317-115.299z"/>
	<polygon points="549.394,-121.905 549.105,-121.905 548.903,-121.687 548.87,-121.469 549.023,-121.386 	"/>
	<polygon points="549.714,-122.185 549.714,-121.977 549.894,-122.02 	"/>
	<polygon points="549.504,-121.977 549.622,-121.977 549.622,-122.156 549.546,-122.156 549.546,-122.26 549.376,-122.26 
		549.203,-122.26 548.952,-122.156 548.903,-122.031 549.1,-121.977 	"/>
	<polygon points="548.772,-122.594 548.844,-122.872 548.637,-122.922 548.408,-122.813 548.55,-122.522 	"/>
	<path d="M550.145-121.768c-0.02-0.047-0.038-0.095-0.057-0.143l-0.058,0.062l0.105,0.089L550.145-121.768z"/>
	<path d="M550.259-121.445c-0.022-0.066-0.043-0.133-0.066-0.198l-0.238-0.07h-0.021v0.158l0.076,0.11H550.259z"/>
	<polygon points="547.603,-124.244 547.603,-124.068 548.033,-124.068 548.122,-124.188 548.122,-124.189 548.122,-124.325 
		548.005,-124.325 547.81,-124.325 547.793,-124.26 547.603,-124.26 	"/>
	<path d="M549.567-121.82c0,0.086,0,0.205,0,0.205l0.075-0.015l0.088-0.016l0.132-0.085v-0.175h-0.295
		C549.567-121.896,549.567-121.861,549.567-121.82z"/>
	<polygon points="549.595,-121.528 549.567,-121.463 549.437,-121.451 549.394,-121.26 549.671,-121.26 549.746,-121.336 
		549.796,-121.386 549.796,-121.556 549.677,-121.539 	"/>
	<path d="M547.603-123.73l0.082,0.099l0.43-0.027c0,0,0.017-0.19,0-0.19s-0.207,0.032-0.207,0.032L547.603-123.73z"/>
</g>
<g>
</g>
<g>
</g>
<g>
</g>
<g>
</g>
<g>
</g>
<g>
</g>
<g>
</g>
<g>
</g>
<g>
</g>
<g>
</g>
<g>
</g>
<g>
</g>
<g>
</g>
<g>
</g>
<g>
</g>
</svg>
