<?xml version="1.0" encoding="iso-8859-1"?>
<!-- Generator: Adobe Illustrator 16.0.0, SVG Export Plug-In . SVG Version: 6.00 Build 0)  -->
<!DOCTYPE svg PUBLIC "-//W3C//DTD SVG 1.1//EN" "http://www.w3.org/Graphics/SVG/1.1/DTD/svg11.dtd">
<svg version="1.1" id="Layer_1" xmlns="http://www.w3.org/2000/svg" xmlns:xlink="http://www.w3.org/1999/xlink" x="0px" y="0px"
	 width="44.901px" height="49.765px" viewBox="0 0 44.901 49.765" style="enable-background:new 0 0 44.901 49.765;"
	 xml:space="preserve">
<g>
	<path d="M201.651-44.135c0-13.438-10.934-24.373-24.373-24.374h-0.001h-0.001c-13.439,0-24.373,10.935-24.373,24.374
		c0,0.056,0.004,0.109,0.005,0.165c-0.001,0.028-0.005,0.057-0.005,0.086c0,0.093,0.01,0.184,0.014,0.275
		c0.281,13.184,11.075,23.824,24.32,23.846c0.014,0,0.027,0.002,0.041,0.002s0.028-0.002,0.043-0.002
		c13.244-0.024,24.035-10.664,24.317-23.846c0.003-0.092,0.013-0.183,0.013-0.275c0-0.029-0.004-0.058-0.004-0.086
		C201.647-44.025,201.651-44.079,201.651-44.135z M198.983-49.559c-2.325-2.302-6.041-4.162-10.627-5.317
		c-1.135-4.684-2.998-8.488-5.316-10.876C190.866-63.664,197.014-57.432,198.983-49.559z M178.278-66.396
		c3.303,0.729,6.203,5.023,7.851,11.029c-2.44-0.467-5.079-0.744-7.851-0.798V-66.396z M176.278-66.396v10.231
		c-2.772,0.054-5.41,0.331-7.851,0.797C170.075-61.374,172.975-65.667,176.278-66.396z M171.516-65.753
		c-2.318,2.388-4.182,6.192-5.316,10.877c-4.587,1.155-8.303,3.015-10.629,5.317C157.54-57.433,163.69-63.666,171.516-65.753z
		 M165.729-52.648c-0.455,2.492-0.711,5.188-0.738,8.015h-10.018C155.526-47.981,159.739-50.943,165.729-52.648z M165.008-42.634
		c0.078,2.663,0.363,5.195,0.824,7.543c-5.744-1.615-9.874-4.383-10.75-7.543H165.008z M155.758-38.022
		c2.36,2.239,6.053,4.044,10.579,5.165c1.144,4.438,2.949,8.044,5.178,10.34C163.918-24.544,157.906-30.476,155.758-38.022z
		 M176.278-21.873c-3.205-0.707-6.029-4.771-7.7-10.498c2.397,0.449,4.985,0.715,7.7,0.768V-21.873z M176.278-33.603
		c-2.92-0.063-5.713-0.398-8.264-0.95c-0.561-2.489-0.91-5.222-1.002-8.081l-0.021-2c0.031-3.022,0.355-5.918,0.912-8.559
		c2.58-0.566,5.412-0.91,8.375-0.974h2c2.963,0.063,5.795,0.408,8.375,0.974c0.557,2.641,0.881,5.536,0.912,8.559l-0.021,2
		c-0.092,2.858-0.441,5.592-1.002,8.081c-2.551,0.552-5.344,0.887-8.264,0.95H176.278z M178.278-21.873v-9.73
		c2.715-0.053,5.303-0.319,7.7-0.768C184.307-26.645,181.483-22.581,178.278-21.873z M183.041-22.519
		c2.229-2.296,4.034-5.902,5.178-10.339c4.526-1.122,8.218-2.926,10.577-5.165C196.649-30.477,190.636-24.545,183.041-22.519z
		 M188.723-35.091c0.461-2.348,0.746-4.881,0.824-7.543h9.924C198.596-39.475,194.467-36.706,188.723-35.091z M189.565-44.634
		c-0.027-2.826-0.283-5.521-0.738-8.015c5.99,1.705,10.201,4.667,10.756,8.015H189.565z"/>
	<path d="M182.359-38.26h-3.463v-0.685h6.911v-10.63h-16.593v10.63h6.772v0.685h-3.54v0.564h9.913V-38.26z M170.428-40.51v-7.852
		h14.165v7.852H170.428z"/>
</g>
<g>
</g>
<g>
</g>
<g>
</g>
<g>
</g>
<g>
</g>
<g>
</g>
<g>
</g>
<g>
</g>
<g>
</g>
<g>
</g>
<g>
</g>
<g>
</g>
<g>
</g>
<g>
</g>
<g>
</g>
</svg>
