<?xml version="1.0" encoding="iso-8859-1"?>
<!-- Generator: Adobe Illustrator 16.0.0, SVG Export Plug-In . SVG Version: 6.00 Build 0)  -->
<!DOCTYPE svg PUBLIC "-//W3C//DTD SVG 1.1//EN" "http://www.w3.org/Graphics/SVG/1.1/DTD/svg11.dtd">
<svg version="1.1" id="Layer_1" xmlns="http://www.w3.org/2000/svg" xmlns:xlink="http://www.w3.org/1999/xlink" x="0px" y="0px"
	 width="43.736px" height="43.736px" viewBox="0 0 43.736 43.736" style="enable-background:new 0 0 43.736 43.736;"
	 xml:space="preserve">
<g>
	<polygon points="263.774,-561.463 264.202,-561.463 264.769,-561.518 265.062,-561.866 264.751,-561.987 264.581,-562.184 
		264.324,-562.598 264.202,-563.184 263.721,-563.086 263.585,-562.879 263.585,-562.647 263.817,-562.488 264.147,-562.28 
		264.177,-562.042 263.823,-561.969 	"/>
	<polygon points="263.086,-562.433 262.793,-561.963 262.793,-561.659 263.134,-561.659 263.738,-562.085 263.763,-562.403 
		263.48,-562.525 	"/>
	<path d="M255.523-560.515h-0.421v0.216h0.102c0,0,0.005,0.046,0.014,0.106l0.257-0.021l0.162-0.1l0.042-0.202l0.209-0.018
		l0.082-0.17l-0.191-0.039l-0.167,0.003L255.523-560.515z"/>
	<polygon points="254.509,-560.132 254.814,-560.158 254.847,-560.371 254.662,-560.515 254.526,-560.344 	"/>
	<path d="M272.826-553.563c-0.005-0.468-0.029-0.932-0.073-1.39c-0.147-1.525-0.513-2.987-1.06-4.357
		c-0.041-0.102-0.079-0.206-0.121-0.305c-0.729-1.721-1.751-3.286-3.001-4.637c-0.082-0.089-0.165-0.175-0.249-0.261
		c-0.237-0.245-0.478-0.485-0.731-0.714c-2.844-2.59-6.622-4.17-10.762-4.17c-0.585,0-1.16,0.039-1.729,0.101
		c-0.123,0.472-0.276,0.934-0.459,1.384c0.715-0.107,1.444-0.169,2.188-0.169c3.712,0,7.106,1.388,9.694,3.668l-0.174,0.312
		l-0.678,0.265l-0.284,0.31l0.065,0.362l0.349,0.048l0.212,0.526l0.602-0.243l0.1,0.705h-0.182l-0.496-0.073l-0.548,0.092
		l-0.531,0.75l-0.759,0.12l-0.11,0.65l0.32,0.076l-0.092,0.418l-0.755-0.152l-0.692,0.152l-0.146,0.384l0.119,0.809l0.406,0.189
		l0.681-0.004l0.459-0.042l0.142-0.366l0.717-0.935l0.474,0.097l0.466-0.421l0.086,0.329l1.147,0.773l-0.14,0.188l-0.517-0.028
		l0.199,0.282l0.318,0.07l0.373-0.155l-0.007-0.449l0.166-0.083l-0.133-0.141l-0.764-0.427l-0.202-0.566h0.636l0.202,0.201
		l0.548,0.472l0.023,0.57l0.567,0.604l0.211-0.828l0.393-0.214l0.073,0.677l0.384,0.422l0.765-0.014
		c0.148,0.381,0.281,0.769,0.397,1.164l-0.082,0.075h-1.171l-0.714-0.531l-0.75,0.073v0.458h-0.239l-0.255-0.183l-1.3-0.33v-0.842
		l-1.647,0.129l-0.512,0.274h-0.654l-0.321-0.032l-0.794,0.441v0.83l-1.622,1.172l0.134,0.5h0.33l-0.087,0.476l-0.231,0.085
		l-0.012,1.245l1.403,1.598H263l0.038-0.098h1.098l0.316-0.292h0.624l0.341,0.341l0.927,0.098l-0.123,1.233l1.031,1.818
		l-0.542,1.037l0.037,0.488l0.428,0.426v1.174l0.56,0.755v0.976h0.485c-2.695,3.309-6.799,5.428-11.389,5.428
		c-8.097,0-14.684-6.587-14.684-14.685c0-1.526,0.235-2.999,0.669-4.384l-0.201-0.298c-0.067-0.099-0.334-0.487-0.719-1.019
		c-0.681,1.773-1.065,3.691-1.065,5.701c0,8.823,7.178,16,16,16c6.206,0,11.594-3.554,14.246-8.731
		c0.567-1.107,1.009-2.288,1.307-3.523c0.076-0.313,0.14-0.629,0.197-0.949c0.162-0.909,0.25-1.842,0.25-2.797
		C272.83-553.454,272.827-553.508,272.826-553.563z M267.942-562.21l-1.007-0.009l-0.063-0.21l0.631-0.321l0.003-0.714
		c0.251,0.266,0.494,0.541,0.725,0.826L267.942-562.21z M270.1-559.349l-0.285,0.039v-0.648l0.092-0.104
		c0.122,0.236,0.236,0.477,0.344,0.72L270.1-559.349z M271.071-556.719l0.046-0.055c0.02,0.083,0.04,0.166,0.059,0.25
		L271.071-556.719z"/>
	<path d="M253.116-565.008l-0.209,0.012c-0.698,0.847-1.508,1.605-2.441,2.216c-0.104,0.164-0.212,0.339-0.321,0.517l0.145,0.035
		l-0.121,0.467l-0.375,0.118l-0.011-0.023c-0.799,1.332-1.625,2.796-1.939,3.358l-0.847,1.525l-1.126,2.029l0.094,0.144l1.282,0.317
		v-0.207l0.512,0.073l-0.049,0.366l0.403,0.074l0.622,0.17l0.878,1.001l1.123,0.084l0.11,0.916l-0.768,0.537l-0.036,0.817l-0.11,0.5
		l1.11,1.391l0.085,0.476c0,0,0.403,0.11,0.452,0.11c0.048,0,0.903,0.646,0.903,0.646v2.513l0.305,0.086l-0.208,1.159l0.512,0.684
		l-0.094,1.149l0.677,1.191l0.87,0.758l0.874,0.017l0.085-0.281l-0.643-0.541l0.038-0.268l0.115-0.33l0.024-0.335l-0.434-0.012
		l-0.219-0.276l0.361-0.348l0.048-0.262l-0.402-0.116l0.024-0.243l0.574-0.087l0.873-0.42l0.293-0.537l0.916-1.17l-0.208-0.917
		l0.282-0.488l0.842,0.025l0.567-0.448l0.183-1.767l0.629-0.799l0.109-0.513l-0.573-0.184l-0.379-0.621l-1.293-0.013l-1.025-0.391
		l-0.048-0.732l-0.342-0.599l-0.927-0.013l-0.538-0.841l-0.476-0.232l-0.024,0.257l-0.866,0.051l-0.317-0.442l-0.903-0.183
		l-0.745,0.861l-1.171-0.199l-0.086-1.32l-0.854-0.146l0.342-0.647l-0.098-0.373l-1.123,0.751l-0.707-0.086l-0.251-0.552l0.155-0.57
		l0.389-0.717l0.896-0.455l1.732,0l-0.005,0.528l0.623,0.29l-0.05-0.902l0.449-0.451l0.906-0.595l0.062-0.419l0.903-0.94l0.96-0.532
		l-0.084-0.069l0.65-0.612l0.238,0.063l0.109,0.137l0.247-0.273l0.06-0.027l-0.271-0.039l-0.274-0.09v-0.266l0.146-0.12h0.322
		l0.146,0.064l0.127,0.257l0.155-0.024v-0.022l0.045,0.015l0.45-0.069l0.063-0.221l0.256,0.064v0.238l-0.238,0.164h0.001
		l0.034,0.262l0.816,0.252c0,0,0,0.003,0.001,0.009l0.188-0.016l0.013-0.353l-0.647-0.295l-0.036-0.169l0.537-0.183l0.023-0.513
		l-0.561-0.341l-0.037-0.866l-0.769,0.377h-0.281l0.074-0.659l-1.047-0.248l-0.433,0.326v0.998l-0.778,0.247l-0.312,0.65
		l-0.338,0.055v-0.832l-0.732-0.102l-0.365-0.238l-0.148-0.539l1.31-0.766l0.64-0.196l0.064,0.431l0.357-0.019l0.028-0.216
		l0.373-0.054l0.006-0.076l-0.16-0.066l-0.037-0.228l0.458-0.039l0.277-0.289l0.015-0.021l0.003,0.001l0.084-0.087l0.964-0.122
		l0.427,0.362l-1.118,0.595l1.422,0.336l0.184-0.476h0.623l0.22-0.415l-0.439-0.11v-0.524l-1.379-0.61l-0.952,0.11l-0.536,0.281
		l0.037,0.684l-0.561-0.086l-0.087-0.378l0.538-0.488l-0.648-0.032c-0.113,0.167-0.247,0.318-0.369,0.479L253.116-565.008z
		 M250.591-559.74l-0.256-0.137l0.055-0.366l0.338-0.365h0.485L250.591-559.74z M251.89-559.74l-0.21,0.211h-0.467l0.072-0.32
		l0.22-0.019l0.046-0.11l0.338-0.046V-559.74z M252-560.316l-0.22,0.142l-0.274,0.051c0,0,0-0.439,0-0.484H252V-560.316z
		 M252.417-560.655l0.225,0.14l-0.18,0.148l-0.177-0.148L252.417-560.655z M252.119-560.289h0.037l0.558,0.166v0.284h-0.467
		l-0.127-0.185V-560.289z M251.752-561.077l0.303,0.276l-0.303,0.072V-561.077z M251.469-561.204v0.174h0.127v0.301h-0.877
		l-0.329-0.091l0.081-0.21l0.422-0.174H251.469z"/>
	<path d="M244.986-557.478l0.847-1.525c0.019-0.033,1.781-3.2,2.931-4.96c2.895-1.706,4.628-4.933,4.434-8.3
		c-0.285-4.941-4.522-8.763-9.529-8.486c-4.966,0.288-8.773,4.562-8.486,9.528c0.195,3.356,2.192,6.277,5.233,7.676
		c1.748,1.903,3.574,4.595,3.593,4.622L244.986-557.478z M241.68-565.332l-0.205-0.088c-2.41-1.036-4-3.307-4.152-5.925
		c-0.219-3.787,2.683-7.045,6.469-7.264c0.135-0.008,0.271-0.012,0.405-0.012c3.637,0,6.649,2.847,6.859,6.481
		c0.152,2.636-1.246,5.161-3.562,6.432l-0.229,0.126l-0.146,0.218c-0.703,1.051-1.651,2.666-2.325,3.842
		c-0.764-1.045-1.871-2.485-2.961-3.647L241.68-565.332z"/>
	<circle cx="244.189" cy="-571.871" r="3.549"/>
</g>
<g>
</g>
<g>
</g>
<g>
</g>
<g>
</g>
<g>
</g>
<g>
</g>
<g>
</g>
<g>
</g>
<g>
</g>
<g>
</g>
<g>
</g>
<g>
</g>
<g>
</g>
<g>
</g>
<g>
</g>
</svg>
