<?xml version="1.0" encoding="iso-8859-1"?>
<!-- Generator: Adobe Illustrator 16.0.0, SVG Export Plug-In . SVG Version: 6.00 Build 0)  -->
<!DOCTYPE svg PUBLIC "-//W3C//DTD SVG 1.1//EN" "http://www.w3.org/Graphics/SVG/1.1/DTD/svg11.dtd">
<svg version="1.1" id="Layer_1" xmlns="http://www.w3.org/2000/svg" xmlns:xlink="http://www.w3.org/1999/xlink" x="0px" y="0px"
	 width="33.715px" height="45.878px" viewBox="0 0 33.715 45.878" style="enable-background:new 0 0 33.715 45.878;"
	 xml:space="preserve">
<g>
	<path d="M116.953,535.836c0-13.438-10.934-24.373-24.373-24.374h-0.001h-0.001c-13.439,0-24.373,10.935-24.373,24.374
		c0,0.056,0.004,0.109,0.005,0.165c-0.001,0.028-0.005,0.057-0.005,0.086c0,0.093,0.01,0.184,0.014,0.275
		c0.281,13.184,11.075,23.824,24.32,23.846c0.014,0,0.027,0.002,0.041,0.002s0.028-0.002,0.043-0.002
		c13.244-0.024,24.035-10.664,24.317-23.846c0.003-0.092,0.013-0.183,0.013-0.275c0-0.029-0.004-0.058-0.004-0.086
		C116.949,535.946,116.953,535.892,116.953,535.836z M114.285,530.413c-2.325-2.302-6.041-4.162-10.627-5.317
		c-1.135-4.684-2.998-8.488-5.316-10.876C106.168,516.307,112.316,522.54,114.285,530.413z M93.58,513.575
		c3.303,0.729,6.203,5.023,7.851,11.029c-2.44-0.467-5.079-0.744-7.851-0.798V513.575z M91.58,513.575v10.231
		c-2.772,0.054-5.41,0.331-7.851,0.797C85.377,518.597,88.277,514.304,91.58,513.575z M86.818,514.218
		c-2.318,2.388-4.182,6.192-5.316,10.877c-4.587,1.155-8.303,3.015-10.629,5.317C72.842,522.539,78.992,516.305,86.818,514.218z
		 M81.031,527.323c-0.455,2.492-0.711,5.188-0.738,8.015H70.275C70.828,531.99,75.041,529.028,81.031,527.323z M80.311,537.337
		c0.078,2.663,0.363,5.195,0.824,7.543c-5.744-1.615-9.874-4.383-10.75-7.543H80.311z M71.061,541.949
		c2.36,2.239,6.053,4.044,10.579,5.165c1.144,4.438,2.949,8.044,5.178,10.34C79.221,555.427,73.208,549.496,71.061,541.949z
		 M91.58,558.098c-3.205-0.707-6.029-4.771-7.7-10.498c2.397,0.449,4.985,0.715,7.7,0.768V558.098z M91.58,546.369
		c-2.92-0.063-5.713-0.398-8.264-0.95c-0.561-2.489-0.91-5.222-1.002-8.081l-0.021-2c0.031-3.022,0.355-5.918,0.912-8.559
		c2.58-0.566,5.412-0.91,8.375-0.974h2c2.963,0.063,5.795,0.408,8.375,0.974c0.557,2.641,0.881,5.536,0.912,8.559l-0.021,2
		c-0.092,2.858-0.441,5.592-1.002,8.081c-2.551,0.552-5.344,0.887-8.264,0.95H91.58z M93.58,558.098v-9.73
		c2.715-0.053,5.303-0.319,7.7-0.768C99.609,553.327,96.785,557.39,93.58,558.098z M98.343,557.453
		c2.229-2.296,4.034-5.902,5.178-10.339c4.526-1.122,8.218-2.926,10.577-5.165C111.951,549.495,105.938,555.426,98.343,557.453z
		 M104.025,544.88c0.461-2.348,0.746-4.881,0.824-7.543h9.924C113.898,540.497,109.77,543.265,104.025,544.88z M104.867,535.337
		c-0.027-2.826-0.283-5.521-0.738-8.015c5.99,1.705,10.201,4.667,10.756,8.015H104.867z"/>
	<path d="M100.273,534.354c0-2.416-1.965-4.382-4.381-4.382c-1.464,0-2.793,0.719-3.598,1.891c-0.806-1.172-2.136-1.891-3.599-1.891
		c-2.416,0-4.381,1.966-4.381,4.382c0,3.112,5.907,8.139,7.493,9.432l0.488,0.452l0.483-0.452
		C94.365,542.498,100.273,537.485,100.273,534.354z M92.295,541.975c-3.104-2.686-6.32-6.128-6.32-7.621
		c0-1.501,1.221-2.722,2.722-2.722c1.458,0,2.678,1.188,2.718,2.646l0.014,0.486h1.732l0.014-0.486
		c0.041-1.459,1.261-2.646,2.719-2.646c1.501,0,2.722,1.221,2.722,2.722C98.614,535.841,95.398,539.286,92.295,541.975z"/>
</g>
<g>
</g>
<g>
</g>
<g>
</g>
<g>
</g>
<g>
</g>
<g>
</g>
<g>
</g>
<g>
</g>
<g>
</g>
<g>
</g>
<g>
</g>
<g>
</g>
<g>
</g>
<g>
</g>
<g>
</g>
</svg>
