<?xml version="1.0" encoding="iso-8859-1"?>
<!-- Generator: Adobe Illustrator 16.0.0, SVG Export Plug-In . SVG Version: 6.00 Build 0)  -->
<!DOCTYPE svg PUBLIC "-//W3C//DTD SVG 1.1//EN" "http://www.w3.org/Graphics/SVG/1.1/DTD/svg11.dtd">
<svg version="1.1" id="Layer_1" xmlns="http://www.w3.org/2000/svg" xmlns:xlink="http://www.w3.org/1999/xlink" x="0px" y="0px"
	 width="44.901px" height="49.765px" viewBox="0 0 44.901 49.765" style="enable-background:new 0 0 44.901 49.765;"
	 xml:space="preserve">
<g>
	<path d="M393.725-36.142l-0.038-0.067l0.038-0.467v-0.941l-0.518-0.69l0.238-1.326l-0.349-0.099v-2.878
		c0,0-0.979-0.741-1.034-0.741c-0.057,0-0.518-0.125-0.518-0.125l-0.098-0.545l-1.271-1.593l0.125-0.572l0.042-0.938l0.881-0.613
		l-0.126-1.049l-1.285-0.097l-1.006-1.146l-0.713-0.195l-0.461-0.084l0.056-0.419l-0.587-0.084v0.237l-1.467-0.362l-0.591-0.904
		l0.241-0.438l-0.93-1.355l-0.159-0.992h-0.377l0.125,0.964l0.643,0.992l-0.07,0.392l-0.545-0.084l-0.67-1.143v-1.33l-0.699-0.336
		v-0.957c-0.862,2.022-1.342,4.246-1.342,6.58c0,7.765,5.299,14.298,12.464,16.223V-36.142z"/>
	<path d="M387.995-51.3l1.286-0.86l0.112,0.427l-0.392,0.74l0.978,0.168l0.099,1.512l1.341,0.227l0.853-0.984l1.034,0.21
		l0.363,0.506l0.056-0.003v-3.88h9.937l0.877-0.633v-0.95l0.909-0.505l0.369,0.037h0.748l0.587-0.315l1.886-0.146v0.965l1.489,0.377
		l0.292,0.21h0.273v-0.525l0.859-0.083l0.816,0.608h1.342l0.095-0.087c-0.134-0.452-0.286-0.896-0.456-1.332l-0.876,0.014
		l-0.438-0.481l-0.085-0.775l-0.45,0.245l-0.241,0.948l-0.65-0.691l-0.026-0.654l-0.627-0.539l-0.232-0.23h-0.728l0.23,0.648
		l0.876,0.488l0.151,0.161l-0.189,0.096l0.009,0.513l-0.428,0.179l-0.363-0.08l-0.229-0.322l0.592,0.031l0.16-0.216l-1.313-0.886
		l-0.1-0.377l-0.533,0.482l-0.541-0.11l-0.823,1.069l-0.161,0.419l-0.526,0.048l-0.78,0.005l-0.465-0.218l-0.136-0.926l0.167-0.439
		l0.792-0.174l0.864,0.174l0.105-0.479l-0.367-0.087l0.125-0.745l0.87-0.136l0.607-0.859l0.628-0.104l0.567,0.083h0.209
		l-0.115-0.807l-0.688,0.278l-0.242-0.603l-0.4-0.056l-0.074-0.414l0.326-0.354l0.775-0.304l0.199-0.356
		c-2.964-2.611-6.849-4.201-11.1-4.201c-3.689,0-7.103,1.197-9.878,3.22l0.848-0.007l0.378,0.209l0.712,0.153l0.056,0.28
		l1.133,0.042l-0.154-0.363l-1.006-0.028l0.236-0.223l-0.082-0.266h-0.909l0.991-0.741h0.95l0.447,0.615l0.741,0.042l0.446-0.434
		l0.336,0.168l-0.615,0.601c0,0-0.852,0.015-0.81,0.015c0.041,0,0.069,0.587,0.069,0.587l1.034-0.029l0.111-0.278l0.713-0.042
		l0.084-0.419l-0.419-0.071l0.139-0.377l0.321-0.097l1.118,0.056l-0.615,0.559l0.099,0.433l0.643,0.098l-0.042-0.782l0.615-0.321
		l1.09-0.126l1.579,0.699v0.601l0.502,0.126l-0.251,0.475h-0.713l-0.211,0.545l-1.629-0.385l1.28-0.681l-0.488-0.416l-1.104,0.14
		l-0.097,0.101l-0.005-0.001l-0.017,0.023l-0.317,0.33l-0.525,0.044l0.042,0.262l0.184,0.075l-0.007,0.088l-0.429,0.061
		l-0.031,0.247l-0.408,0.021l-0.073-0.492l-0.733,0.224l-1.499,0.877l0.169,0.617l0.418,0.273l0.838,0.116v0.952l0.388-0.063
		l0.357-0.744l0.891-0.283v-1.142l0.496-0.374l1.197,0.282l-0.084,0.756h0.321l0.881-0.434l0.042,0.991l0.642,0.392l-0.026,0.587
		l-0.615,0.21l0.042,0.194l0.74,0.336l-0.015,0.406l-0.214,0.018c-0.002-0.007-0.003-0.011-0.003-0.011l-0.934-0.288l-0.04-0.3
		h-0.001l0.273-0.188v-0.273l-0.294-0.073l-0.073,0.252l-0.515,0.079l-0.052-0.017v0.025l-0.178,0.027l-0.146-0.294l-0.169-0.073
		h-0.366l-0.167,0.137v0.303l0.313,0.105l0.31,0.043l-0.068,0.03l-0.283,0.313l-0.124-0.156l-0.273-0.072l-0.745,0.7l0.098,0.08
		l-1.1,0.608l-1.033,1.076l-0.071,0.479l-1.037,0.682l-0.514,0.517l0.057,1.034l-0.712-0.332l0.005-0.605l-1.983,0.001l-1.027,0.521
		l-0.445,0.822l-0.177,0.652l0.288,0.631L387.995-51.3z M405.81-60.404l0.153-0.237l0.553-0.111l0.139,0.672l0.295,0.475
		l0.194,0.224l0.355,0.14l-0.334,0.398l-0.649,0.063h-0.49l0.057-0.58l0.405-0.084l-0.034-0.272l-0.379-0.237l-0.265-0.182V-60.404z
		 M404.902-59.354l0.336-0.539l0.452-0.104l0.322,0.14l-0.028,0.363l-0.691,0.488h-0.391V-59.354z M396.096-57.696h0.483
		l0.099-0.257l0.192-0.004l0.218,0.046l-0.093,0.193l-0.239,0.021l-0.049,0.231l-0.184,0.114l-0.296,0.024
		c-0.01-0.069-0.016-0.122-0.016-0.122h-0.116V-57.696z M395.437-57.502l0.156-0.194l0.211,0.165l-0.036,0.244l-0.351,0.029
		L395.437-57.502z"/>
	<path d="M394.891-30.951h31.798v-20.967h-31.798V-30.951z M398.114-48.696h25.35v14.522h-25.35V-48.696z"/>
	<path d="M411.239-29.978h-0.904h-15.444l-4.331,5.787h40.455l-4.331-5.787H411.239z M395.219-25.258l2.745-3.657h12.462h0.729
		h12.46l2.321,3.657H395.219z"/>
	<polygon points="415.163,-23.771 415.163,-23.063 406.491,-23.063 406.491,-23.771 390.313,-23.771 390.313,-22.394 
		431.261,-22.394 431.261,-23.771 	"/>
</g>
<g>
</g>
<g>
</g>
<g>
</g>
<g>
</g>
<g>
</g>
<g>
</g>
<g>
</g>
<g>
</g>
<g>
</g>
<g>
</g>
<g>
</g>
<g>
</g>
<g>
</g>
<g>
</g>
<g>
</g>
</svg>
