<?xml version="1.0" encoding="iso-8859-1"?>
<!-- Generator: Adobe Illustrator 16.0.0, SVG Export Plug-In . SVG Version: 6.00 Build 0)  -->
<!DOCTYPE svg PUBLIC "-//W3C//DTD SVG 1.1//EN" "http://www.w3.org/Graphics/SVG/1.1/DTD/svg11.dtd">
<svg version="1.1" id="Layer_1" xmlns="http://www.w3.org/2000/svg" xmlns:xlink="http://www.w3.org/1999/xlink" x="0px" y="0px"
	 width="47.365px" height="50.572px" viewBox="0 0 47.365 50.572" style="enable-background:new 0 0 47.365 50.572;"
	 xml:space="preserve">
<path style="fill:none;stroke:#000000;stroke-width:4;stroke-miterlimit:10;" d="M37.315,31.342
	c5.656-0.081,2.531,12.125-6.16,15.653C18.322,52.157,4.829,43.583,6.162,36.666"/>
<path d="M6.569,28.563c-0.036-1.679-5.398,9.245-5.398,9.245l9.981,0.087C11.152,37.895,6.606,30.243,6.569,28.563z"/>
<g>
	<polygon points="25.421,0.387 25.421,15.367 38.179,14.893 	"/>
	<polygon points="23.12,15.37 23.12,3.14 13.002,15.721 	"/>
	<polygon points="23.876,15.431 24.656,15.374 24.656,0 23.954,0 	"/>
</g>
<path d="M39.274,15.367c-2.223,0.082-28.521,1.042-29.815,1.089c-1.083,0.039,2.813,3.443,3.907,5.345
	c2.495-2.582,5.987-4.193,9.86-4.193c3.706,0,7.062,1.476,9.53,3.863C33.864,19.578,41.344,15.294,39.274,15.367z"/>
<path d="M28.378,19.888c-0.024-0.026-0.043-0.048-0.051-0.055l-0.022,0.021c-1.61-0.757-3.406-1.183-5.3-1.183
	c-0.278,0-0.553,0.013-0.826,0.03l0-0.001l0,0.001c-6.508,0.428-11.672,5.855-11.672,12.47c0,6.893,5.607,12.5,12.5,12.5
	c6.893,0,12.5-5.607,12.5-12.5C35.506,26.202,32.589,21.9,28.378,19.888z M33.415,35.993c-0.286,0.241-1.146,0.89-2.689,1.506
	c0.289-1.042,0.533-2.252,0.674-3.664c1.41-0.417,2.385-0.874,2.984-1.208C34.234,33.814,33.901,34.946,33.415,35.993z
	 M11.643,32.755c0.663,0.327,1.65,0.737,3.001,1.114c0.141,1.379,0.383,2.571,0.672,3.6c-1.588-0.632-2.469-1.289-2.733-1.507
	C12.122,34.961,11.8,33.885,11.643,32.755z M12.449,26.74c0.016-0.016,0.879-0.821,2.767-1.581
	c-0.284,1.106-0.505,2.413-0.619,3.911c-1.405,0.406-2.4,0.848-3.024,1.173c0.1-1.239,0.394-2.424,0.857-3.521L12.449,26.74z
	 M34.436,30.193c-0.623-0.337-1.599-0.777-2.982-1.178c-0.106-1.461-0.317-2.73-0.587-3.815c1.76,0.712,2.622,1.444,2.719,1.531
	C34.041,27.812,34.333,28.977,34.436,30.193z M22.95,42.551c-0.156-0.221-0.72-1.095-1.273-2.76c0.45,0.021,0.916,0.034,1.4,0.034
	c0.376,0,0.733-0.013,1.088-0.026C23.685,41.285,23.19,42.174,22.95,42.551z M23.077,38.8c-0.603,0-1.167-0.025-1.713-0.061
	c-0.287-1.062-0.542-2.36-0.708-3.919c0.748,0.046,1.528,0.078,2.368,0.078c0.749,0,1.455-0.021,2.126-0.059
	c-0.158,1.554-0.404,2.856-0.685,3.924C24.021,38.786,23.559,38.8,23.077,38.8z M23.024,33.872c-0.877,0-1.69-0.034-2.463-0.085
	c-0.06-0.822-0.097-1.701-0.097-2.654c0-0.714,0.025-1.381,0.06-2.026c0.829-0.06,1.712-0.097,2.664-0.097
	c0.733,0,1.413,0.025,2.068,0.063c0.042,0.704,0.071,1.436,0.071,2.224c0,0.896-0.035,1.724-0.088,2.505
	C24.541,33.843,23.812,33.872,23.024,33.872z M11.539,31.442c0.369-0.226,1.351-0.758,2.997-1.269
	c-0.012,0.332-0.024,0.662-0.024,1.012c0,0.551,0.019,1.073,0.048,1.58c-1.557-0.467-2.546-0.959-3.019-1.229
	C11.54,31.505,11.539,31.474,11.539,31.442z M15.537,31.186c0-0.45,0.012-0.884,0.032-1.303c1.082-0.277,2.386-0.523,3.922-0.684
	c-0.03,0.618-0.052,1.256-0.052,1.934c0,0.916,0.032,1.769,0.085,2.568c-1.521-0.149-2.828-0.381-3.914-0.648
	C15.567,32.46,15.537,31.846,15.537,31.186z M26.288,29.143c1.663,0.146,3.055,0.394,4.19,0.682c0.018,0.401,0.03,0.813,0.03,1.244
	c0,0.693-0.032,1.338-0.078,1.958c-1.123,0.291-2.501,0.546-4.154,0.697c0.048-0.759,0.076-1.565,0.076-2.428
	C26.353,30.536,26.326,29.828,26.288,29.143z M31.511,30.116c1.591,0.496,2.533,1.021,2.925,1.271
	c-0.23,0.162-1.166,0.763-2.953,1.336c0.03-0.53,0.051-1.076,0.051-1.654C31.534,30.739,31.521,30.43,31.511,30.116z M30.404,28.741
	c-1.16-0.274-2.547-0.507-4.185-0.639c-0.135-1.607-0.364-2.981-0.632-4.146c1.631,0.164,2.988,0.47,4.098,0.819
	C30.002,25.862,30.267,27.176,30.404,28.741z M25.321,22.906c-0.407-1.457-0.854-2.495-1.19-3.153
	c1.278,0.126,2.494,0.463,3.616,0.974c0.286,0.353,0.941,1.27,1.543,2.857C28.174,23.281,26.855,23.035,25.321,22.906z
	 M22.928,19.699c0.25,0.421,0.788,1.444,1.293,3.134c-0.409-0.018-0.826-0.03-1.262-0.03c-0.499,0-0.979,0.013-1.441,0.035
	c0.46-1.588,0.959-2.618,1.248-3.135C22.82,19.703,22.874,19.7,22.928,19.699z M22.959,23.828c0.541,0,1.052,0.019,1.547,0.047
	c0.282,1.145,0.526,2.531,0.673,4.16c-0.631-0.032-1.292-0.052-1.992-0.052c-0.925,0-1.783,0.036-2.596,0.091
	c0.138-1.636,0.375-3.028,0.65-4.187C21.79,23.853,22.354,23.828,22.959,23.828z M19.551,28.16
	c-1.504,0.146-2.807,0.372-3.904,0.635c0.147-1.604,0.43-2.953,0.765-4.063c1.027-0.318,2.275-0.593,3.751-0.753
	C19.9,25.159,19.677,26.54,19.551,28.16z M15.712,34.138c1.104,0.253,2.398,0.469,3.896,0.604c0.15,1.526,0.387,2.82,0.658,3.904
	c-1.466-0.16-2.713-0.434-3.744-0.751C16.183,36.867,15.89,35.616,15.712,34.138z M20.562,39.709
	c0.419,1.367,0.871,2.303,1.193,2.867c-1.138-0.124-2.226-0.413-3.239-0.846c-0.202-0.231-0.878-1.075-1.539-2.63
	C18.001,39.368,19.196,39.585,20.562,39.709z M25.273,39.732c1.46-0.115,2.732-0.335,3.809-0.614
	c-0.638,1.534-1.283,2.354-1.45,2.551c-1.092,0.483-2.273,0.803-3.512,0.922C24.446,41.994,24.876,41.061,25.273,39.732z
	 M25.556,38.684c0.266-1.091,0.496-2.391,0.64-3.917c1.617-0.137,2.987-0.371,4.132-0.646c-0.179,1.504-0.474,2.768-0.81,3.804
	C28.44,38.253,27.128,38.534,25.556,38.684z M32.573,24.848c-0.546-0.289-1.23-0.598-2.059-0.886
	c-0.278-0.856-0.582-1.566-0.875-2.144C30.793,22.64,31.79,23.666,32.573,24.848z M20.422,22.92
	c-1.377,0.126-2.576,0.346-3.601,0.617c0.657-1.691,1.354-2.613,1.564-2.865c0.993-0.438,2.058-0.739,3.173-0.88
	C21.223,20.481,20.803,21.514,20.422,22.92z M16.495,21.73c-0.301,0.58-0.618,1.305-0.911,2.186c-0.869,0.3-1.579,0.621-2.141,0.924
	C14.254,23.619,15.292,22.563,16.495,21.73z M13.708,37.883c0.545,0.278,1.214,0.567,2.013,0.839
	c0.283,0.778,0.583,1.429,0.869,1.959C15.473,39.924,14.498,38.975,13.708,37.883z M29.533,40.602
	c0.264-0.508,0.541-1.124,0.804-1.862c0.758-0.259,1.402-0.534,1.929-0.802C31.509,38.97,30.585,39.871,29.533,40.602z"/>
<path style="fill:none;stroke:#000000;stroke-miterlimit:10;" d="M35.506,23.457c0,0,2.357-2.679,5.822-0.916s5.75,0.157,5.75,0.157
	"/>
<path style="fill:none;stroke:#000000;stroke-miterlimit:10;" d="M0.375,23.457c0,0,2.357-2.679,5.822-0.916s5.75,0.157,5.75,0.157"
	/>
<g>
</g>
<g>
</g>
<g>
</g>
<g>
</g>
<g>
</g>
<g>
</g>
<g>
</g>
<g>
</g>
<g>
</g>
<g>
</g>
<g>
</g>
<g>
</g>
<g>
</g>
<g>
</g>
<g>
</g>
</svg>
