<?xml version="1.0" encoding="iso-8859-1"?>
<!-- Generator: Adobe Illustrator 16.0.0, SVG Export Plug-In . SVG Version: 6.00 Build 0)  -->
<!DOCTYPE svg PUBLIC "-//W3C//DTD SVG 1.1//EN" "http://www.w3.org/Graphics/SVG/1.1/DTD/svg11.dtd">
<svg version="1.1" id="Layer_1" xmlns="http://www.w3.org/2000/svg" xmlns:xlink="http://www.w3.org/1999/xlink" x="0px" y="0px"
	 width="44.901px" height="49.765px" viewBox="0 0 44.901 49.765" style="enable-background:new 0 0 44.901 49.765;"
	 xml:space="preserve">
<g>
	<path d="M322.84-122.611v0.279c0.1-0.228,0.208-0.45,0.325-0.669L322.84-122.611z"/>
	<polygon points="328.458,-123.254 328.376,-123.167 328.486,-123.078 328.597,-123.167 	"/>
	<path d="M323.542-123.452l-0.01-0.102l-0.005-0.062c-0.129,0.2-0.25,0.404-0.363,0.614l0.122-0.145L323.542-123.452z"/>
	<polygon points="326.395,-125.561 326.395,-125.699 326.071,-125.699 326.054,-125.633 325.856,-125.633 325.856,-125.616 
		325.856,-125.438 326.302,-125.438 	"/>
	<path d="M340.005-120.885l-0.028,0.033l0.064,0.119C340.03-120.783,340.018-120.834,340.005-120.885z"/>
	<path d="M327.896-122.929l0.169-0.032l0.136-0.086v-0.18h-0.305C327.896-123.197,327.896-122.929,327.896-122.929z"/>
	<path d="M339.471-122.453c-0.066-0.148-0.138-0.295-0.212-0.438l-0.056,0.063v0.397l0.176-0.024L339.471-122.453z"/>
	<path d="M326.388-125.019c0,0,0.017-0.195,0-0.195c-0.018,0-0.215,0.033-0.215,0.033l-0.317,0.089l0.084,0.101L326.388-125.019z"/>
	<path d="M338.045-124.203l0.177-0.263c-0.142-0.173-0.292-0.341-0.447-0.504l-0.001,0.438l-0.39,0.195l0.039,0.128L338.045-124.203
		z"/>
	<polygon points="327.145,-124.215 326.929,-124.265 326.693,-124.153 326.839,-123.856 327.07,-123.929 	"/>
	<polygon points="328.048,-123.511 328.048,-123.298 328.235,-123.343 	"/>
	<polygon points="327.517,-123.589 327.257,-123.483 327.207,-123.354 327.41,-123.298 327.952,-123.298 327.952,-123.483 
		327.873,-123.483 327.873,-123.589 	"/>
	<polygon points="327.172,-122.779 327.331,-122.695 327.715,-123.227 327.416,-123.227 327.207,-123.002 	"/>
	<polygon points="328.275,-123.03 328.275,-122.869 328.354,-122.756 328.642,-122.756 328.642,-122.929 328.297,-123.03 	"/>
	<polygon points="327.896,-122.773 327.76,-122.762 327.715,-122.567 328.004,-122.567 328.134,-122.695 328.134,-122.869 
		327.924,-122.84 	"/>
	<path d="M339.164-122.054l-0.238-0.257l-0.044-0.412l-0.243,0.131l-0.131,0.505l-0.351-0.367l-0.014-0.35l-0.339-0.287
		l-0.125-0.124h-0.394l0.125,0.346l0.472,0.261l0.082,0.086l-0.102,0.051l0.003,0.274l-0.229,0.094l-0.196-0.042l-0.124-0.173
		l0.319,0.018l0.086-0.115l-0.707-0.472l-0.054-0.201l-0.288,0.257l-0.292-0.06l-0.443,0.57l-0.087,0.224l-0.284,0.026l-0.42,0.002
		l-0.25-0.116l-0.074-0.493l0.091-0.234l0.427-0.093l0.465,0.093l0.057-0.254l-0.198-0.048l0.067-0.397l0.47-0.07l0.328-0.459
		l0.338-0.056l0.305,0.044h0.112l-0.061-0.43l-0.372,0.147l-0.13-0.32l-0.216-0.03l-0.041-0.22l0.176-0.19l0.418-0.161l0.107-0.191
		c-1.187-1.034-2.65-1.766-4.265-2.074c-0.036-0.006-0.072-0.013-0.108-0.02c-0.167-0.029-0.336-0.049-0.507-0.069
		c-0.362-0.044-0.729-0.075-1.104-0.075c-1.989,0-3.83,0.639-5.327,1.717l0.077-0.001l0.38-0.003l0.204,0.111l0.384,0.082
		l0.03,0.149l0.61,0.021l-0.083-0.192l-0.542-0.016l0.127-0.119L327-126.179h-0.489l0.533-0.395h0.512l0.241,0.328l0.4,0.022
		l0.241-0.231l0.181,0.089l-0.332,0.32c0,0-0.459,0.008-0.438,0.008c0.022,0,0.038,0.313,0.038,0.313l0.557-0.015l0.061-0.149
		l0.384-0.022l0.045-0.224l-0.226-0.037l0.076-0.201l0.172-0.052l0.603,0.029l-0.331,0.298l0.053,0.231l0.347,0.052l-0.023-0.416
		l0.332-0.172l0.587-0.067l0.852,0.372v0.322l0.271,0.065l-0.136,0.253h-0.384l-0.114,0.291l-0.878-0.205l0.69-0.363l-0.263-0.221
		l-0.595,0.074l-0.053,0.054l-0.001-0.001l-0.01,0.013l-0.171,0.175l-0.283,0.024l0.023,0.14l0.099,0.04l-0.003,0.047l-0.23,0.032
		l-0.017,0.132l-0.221,0.012l-0.04-0.263l-0.396,0.119l-0.808,0.468l0.091,0.328l0.225,0.146l0.453,0.062v0.508l0.209-0.033
		l0.192-0.396l0.48-0.15v-0.609l0.267-0.199l0.646,0.15l-0.046,0.402h0.174l0.474-0.23l0.023,0.528l0.346,0.208l-0.014,0.313
		l-0.332,0.112l0.023,0.104l0.398,0.18l-0.007,0.216l-0.116,0.01c0-0.003,0-0.006,0-0.006l-0.504-0.153l-0.021-0.16l0,0l0.147-0.099
		v-0.146l-0.159-0.039l-0.039,0.135l-0.279,0.042l-0.027-0.009v0.013l-0.095,0.015l-0.08-0.156l-0.09-0.039h-0.198l-0.09,0.072
		v0.161l0.169,0.056l0.167,0.025l-0.037,0.015l-0.153,0.168l-0.067-0.084l-0.147-0.039l-0.401,0.374l0.052,0.043l-0.592,0.324
		l-0.558,0.573l-0.038,0.255l-0.559,0.364l-0.277,0.274l0.031,0.552l-0.384-0.178l0.002-0.322h-1.07l-0.553,0.277l-0.241,0.438
		l-0.096,0.347l0.156,0.338l0.436,0.052l0.694-0.458l0.061,0.228l-0.212,0.396l0.529,0.088l0.052,0.806l0.067,0.011l0.006,0.001
		l0.651,0.11l0.458-0.525l0.559,0.111l0.195,0.271l0.536-0.031l0.015-0.156l0.294,0.14l0.331,0.515l0.572,0.007l0.212,0.366
		l0.029,0.446l0.633,0.239l0.799,0.007l0.233,0.379l0.354,0.112l-0.067,0.313l-0.388,0.487l-0.113,1.078l-0.351,0.274l-0.519-0.016
		l-0.174,0.298l0.129,0.558l-0.565,0.717l-0.181,0.326l-0.539,0.256l-0.354,0.055l-0.015,0.147l0.249,0.07l-0.03,0.161l-0.223,0.212
		l0.135,0.168l0.268,0.007l-0.015,0.205l-0.072,0.201l-0.022,0.164l0.396,0.33l-0.053,0.172l-0.54-0.011l-0.537-0.463l-0.418-0.728
		l0.059-0.701l-0.317-0.416l0.128-0.708l-0.188-0.053v-1.534c0,0-0.528-0.395-0.558-0.395c-0.031,0-0.279-0.066-0.279-0.066
		l-0.053-0.291l-0.686-0.849l0.067-0.306l0.023-0.498l0.474-0.328l-0.067-0.56l-0.693-0.051l-0.543-0.611l-0.384-0.104l-0.249-0.045
		l0.03-0.224l-0.316-0.044v0.127l-0.791-0.193l-0.318-0.482l0.111-0.198l-0.132-0.001l-0.038-0.126l0.093-0.046l-0.405-0.584
		l-0.087-0.529h-0.204l0.068,0.514l0.346,0.528l-0.038,0.209l-0.294-0.045l-0.362-0.609v-0.708l-0.377-0.18v-0.432v-0.078
		c-0.212,0.492-0.379,1.008-0.5,1.54l0.021-0.004l0.125-0.025l0.073,0.35l0.155,0.248l0.103,0.117l0.188,0.071l-0.177,0.209
		l-0.342,0.032h-0.259l0.029-0.303l0.214-0.043l-0.018-0.142l-0.177-0.111l-0.015-0.01c-0.093,0.513-0.144,1.04-0.144,1.577
		c0,0.017,0,0.032,0,0.048c0.027,4.92,4.083,8.915,9.066,8.915c2.834,0,5.368-1.294,7.032-3.313h-0.298v-0.596l-0.346-0.462v-0.716
		l-0.264-0.26l-0.023-0.299l0.335-0.633l-0.636-1.109l0.075-0.753l-0.572-0.059l-0.21-0.209h-0.386l-0.195,0.18h-0.677l-0.023,0.059
		h-0.377l-0.866-0.975l0.006-0.761l0.144-0.052l0.054-0.29h-0.203l-0.084-0.306l1.002-0.715v-0.506l0.491-0.271l0.199,0.021h0.404
		l0.316-0.169l1.017-0.078v0.515l0.803,0.201l0.158,0.112h0.147v-0.279l0.463-0.045l0.441,0.324h0.723l0.051-0.047
		c-0.072-0.241-0.154-0.478-0.246-0.71L339.164-122.054z"/>
</g>
<path style="fill:none;stroke:#000000;stroke-width:2;stroke-miterlimit:10;" d="M353.97-120.784
	c-0.009-3.042-2.132-5.662-5.205-6.917c0.65-3.143-0.273-6.262-2.678-7.987c-2.323-1.666-5.437-1.6-8.141-0.129
	c-1.059-3.621-3.921-6.22-7.296-6.22c-3.57,0-6.567,2.91-7.462,6.86c-3.273-1.587-6.98-1.274-9.253,1.087
	c-1.92,1.995-2.338,4.956-1.394,7.764c-2.531,1.391-4.202,3.776-4.195,6.486c0.008,2.988,2.055,5.571,5.038,6.853
	c-1.376,3.132-1.034,6.597,1.183,8.791c2.361,2.339,6.143,2.534,9.41,0.795c0.856,4.017,3.879,6.99,7.489,6.99
	c3.255,0,6.036-2.418,7.18-5.837c3.137,1.307,6.571,0.91,8.722-1.325c2.417-2.511,2.465-6.554,0.394-9.895
	C351.384-114.535,353.98-117.406,353.97-120.784z M331.159-110.266c-4.901,0-8.875-3.972-8.875-8.875c0-4.9,3.974-8.874,8.875-8.874
	s8.875,3.974,8.875,8.874C340.033-114.237,336.06-110.266,331.159-110.266z"/>
<g>
</g>
<g>
</g>
<g>
</g>
<g>
</g>
<g>
</g>
<g>
</g>
<g>
</g>
<g>
</g>
<g>
</g>
<g>
</g>
<g>
</g>
<g>
</g>
<g>
</g>
<g>
</g>
<g>
</g>
</svg>
