<?xml version="1.0" encoding="iso-8859-1"?>
<!-- Generator: Adobe Illustrator 16.0.0, SVG Export Plug-In . SVG Version: 6.00 Build 0)  -->
<!DOCTYPE svg PUBLIC "-//W3C//DTD SVG 1.1//EN" "http://www.w3.org/Graphics/SVG/1.1/DTD/svg11.dtd">
<svg version="1.1" id="Layer_1" xmlns="http://www.w3.org/2000/svg" xmlns:xlink="http://www.w3.org/1999/xlink" x="0px" y="0px"
	 width="46.84px" height="49.441px" viewBox="0 0 46.84 49.441" style="enable-background:new 0 0 46.84 49.441;"
	 xml:space="preserve">
<g>
	<path d="M647.319-930.856c0.072-0.677,0.112-1.363,0.112-2.059c0-0.573-0.037-1.136-0.086-1.696
		c3.076-2.773,4.707-5.47,3.795-7.578c-0.701-1.618-2.84-2.474-6.186-2.474c-0.469,0-0.964,0.022-1.472,0.054
		c-3.552-4.691-9.162-7.741-15.486-7.741c-6.354,0-11.988,3.079-15.536,7.808c-0.386-0.017-0.783-0.044-1.149-0.044
		c-3.754,0-6.105,0.928-6.799,2.683c-0.782,1.978,0.645,4.558,4.125,7.493c-0.037,0.495-0.075,0.99-0.075,1.494
		c0,1.04,0.105,2.053,0.264,3.049c-3.496,3.104-4.888,5.777-4.029,7.757c0.701,1.618,2.84,2.474,6.185,2.474
		c0.842,0,1.755-0.058,2.719-0.162c3.555,3.871,8.64,6.316,14.297,6.316c6.095,0,11.537-2.825,15.103-7.229
		c0.541,0.032,1.08,0.061,1.584,0.061c3.754,0,6.104-0.928,6.798-2.683C652.267-925.317,650.828-927.908,647.319-930.856z
		 M615.052-921.278c-2.132-2.37-3.624-5.316-4.204-8.583c0.618-0.5,1.277-1,1.976-1.5c3.451,2.214,7.669,4.34,12.245,6.149
		c0.604,0.239,1.203,0.456,1.804,0.678C622.629-922.941,618.529-921.806,615.052-921.278z M611.672-932.132
		c-0.353,0.258-0.698,0.515-1.03,0.773c-0.046-0.513-0.079-1.03-0.079-1.555C610.921-932.652,611.291-932.392,611.672-932.132z
		 M610.642-934.475c0.287-3.221,1.459-6.183,3.263-8.663c3.652,0.349,8.094,1.375,12.699,2.929
		c-0.601,0.244-1.202,0.493-1.804,0.753c-4.498,1.949-8.629,4.201-12,6.517C612.036-933.448,611.313-933.961,610.642-934.475z
		 M625.547-926.421c-4.303-1.702-8.266-3.683-11.559-5.747c3.217-2.161,7.1-4.262,11.329-6.095c1.06-0.459,2.115-0.883,3.167-1.287
		c0.653,0.239,1.307,0.477,1.961,0.736c4.601,1.819,8.823,3.957,12.24,6.175c-3.164,2.214-7.246,4.515-12.069,6.604
		c-0.635,0.275-1.268,0.527-1.9,0.783C627.662-925.618,626.605-926.002,625.547-926.421z M630.349-940.239
		c4.28-1.521,8.34-2.531,11.723-2.923c1.779,2.438,2.956,5.342,3.271,8.502c-0.479,0.397-0.995,0.799-1.541,1.207
		c-3.564-2.364-8.013-4.646-12.878-6.569C630.731-940.099,630.541-940.165,630.349-940.239z M631.134-924.842
		c4.593-1.99,9.117-4.459,12.722-7.007c0.501,0.347,0.978,0.696,1.436,1.045c-0.395,3.248-1.683,6.217-3.614,8.664
		c-3.247-0.349-7.07-1.2-11.072-2.478C630.78-924.693,630.957-924.766,631.134-924.842z M645.432-932.915
		c0,0.194-0.022,0.381-0.029,0.574c-0.147-0.107-0.282-0.216-0.434-0.323c0.153-0.116,0.309-0.231,0.458-0.347
		C645.427-932.979,645.432-932.948,645.432-932.915z M644.955-943.363c2.747,0,4.521,0.601,4.992,1.69
		c0.522,1.205-0.518,3.152-2.824,5.414c-0.448-2.568-1.396-4.96-2.75-7.078C644.563-943.342,644.772-943.363,644.955-943.363z
		 M627.997-950.349c5.231,0,9.92,2.327,13.118,5.987c-3.7,0.52-8.094,1.707-12.637,3.42c-4.908-1.768-9.624-2.94-13.612-3.406
		C618.064-948.016,622.759-950.349,627.997-950.349z M605.722-941.424c0.468-1.183,2.505-1.861,5.59-1.861
		c0.086,0,0.185,0.01,0.271,0.011c-1.381,2.179-2.332,4.647-2.755,7.294C606.386-938.197,605.229-940.176,605.722-941.424z
		 M610.981-920.936c-2.746,0-4.52-0.6-4.991-1.69c-0.55-1.268,0.612-3.364,3.131-5.744c0.656,2.721,1.88,5.216,3.548,7.358
		C612.084-920.968,611.513-920.936,610.981-920.936z M627.997-915.481c-4.569,0-8.72-1.781-11.832-4.667
		c3.77-0.661,8.139-1.944,12.599-3.714c4.253,1.455,8.335,2.464,11.87,2.923C637.454-917.586,632.972-915.481,627.997-915.481z
		 M650.272-923.81c-0.468,1.183-2.505,1.861-5.589,1.861c-0.201,0-0.429-0.02-0.638-0.025c1.488-2.176,2.536-4.669,3.04-7.354
		C649.586-927.081,650.771-925.072,650.272-923.81z"/>
	<polygon points="645.884,-915.451 648.48,-917.331 647.924,-914.067 650.547,-912.353 646.914,-912.056 645.28,-908.717 
		644.511,-912.004 641.221,-911.962 644.146,-913.988 642.632,-917.435 	"/>
	<polygon points="608.717,-951.208 609.956,-952.105 609.689,-950.549 610.941,-949.731 609.208,-949.589 608.429,-947.997 
		608.062,-949.565 606.492,-949.545 607.888,-950.511 607.165,-952.155 	"/>
	<polygon points="646.718,-950.207 647.957,-951.104 647.69,-949.547 648.942,-948.729 647.209,-948.587 646.43,-946.995 
		646.063,-948.563 644.493,-948.543 645.889,-949.509 645.166,-951.153 	"/>
</g>
<g>
</g>
<g>
</g>
<g>
</g>
<g>
</g>
<g>
</g>
<g>
</g>
<g>
</g>
<g>
</g>
<g>
</g>
<g>
</g>
<g>
</g>
<g>
</g>
<g>
</g>
<g>
</g>
<g>
</g>
</svg>
