<?xml version="1.0" encoding="iso-8859-1"?>
<!-- Generator: Adobe Illustrator 16.0.0, SVG Export Plug-In . SVG Version: 6.00 Build 0)  -->
<!DOCTYPE svg PUBLIC "-//W3C//DTD SVG 1.1//EN" "http://www.w3.org/Graphics/SVG/1.1/DTD/svg11.dtd">
<svg version="1.1" id="Layer_1" xmlns="http://www.w3.org/2000/svg" xmlns:xlink="http://www.w3.org/1999/xlink" x="0px" y="0px"
	 width="43.736px" height="43.736px" viewBox="0 0 43.736 43.736" style="enable-background:new 0 0 43.736 43.736;"
	 xml:space="preserve">
<path d="M427.814-120.396c0-13.438-10.934-24.373-24.373-24.374l0,0h-0.001h-0.001c-13.439,0-24.373,10.935-24.373,24.374
	c0,0.056,0.004,0.109,0.005,0.165c-0.001,0.028-0.005,0.057-0.005,0.086c0,0.093,0.01,0.184,0.014,0.275
	c0.281,13.184,11.075,23.824,24.32,23.846c0.014,0,0.027,0.002,0.041,0.002s0.028-0.002,0.043-0.002
	c13.244-0.024,24.035-10.664,24.317-23.846c0.003-0.092,0.013-0.183,0.013-0.275c0-0.029-0.004-0.058-0.004-0.086
	C427.811-120.287,427.814-120.341,427.814-120.396z M425.146-125.82c-2.325-2.302-6.041-4.162-10.627-5.317
	c-1.135-4.684-2.998-8.488-5.316-10.876C417.029-139.926,423.178-133.693,425.146-125.82z M404.441-142.658
	c3.303,0.729,6.203,5.023,7.851,11.029c-2.44-0.467-5.079-0.744-7.851-0.798V-142.658z M402.441-142.658v10.231
	c-2.772,0.054-5.41,0.331-7.851,0.797C396.238-137.636,399.139-141.929,402.441-142.658z M397.68-142.015
	c-2.318,2.388-4.182,6.192-5.316,10.877c-4.587,1.155-8.303,3.015-10.629,5.317C383.703-133.694,389.854-139.928,397.68-142.015z
	 M391.893-128.91c-0.455,2.492-0.711,5.188-0.738,8.015h-10.018C381.689-124.243,385.902-127.205,391.893-128.91z M391.172-118.896
	c0.078,2.663,0.363,5.195,0.824,7.543c-5.744-1.615-9.874-4.383-10.75-7.543H391.172z M381.922-114.284
	c2.36,2.239,6.053,4.044,10.579,5.165c1.144,4.438,2.949,8.044,5.178,10.34C390.082-100.806,384.069-106.737,381.922-114.284z
	 M402.441-98.135c-3.205-0.707-6.029-4.771-7.7-10.498c2.397,0.449,4.985,0.715,7.7,0.768V-98.135z M402.441-109.864
	c-2.92-0.063-5.713-0.398-8.264-0.95c-0.561-2.489-0.91-5.222-1.002-8.081l-0.021-2c0.031-3.022,0.355-5.918,0.912-8.559
	c2.58-0.566,5.412-0.91,8.375-0.974h2c2.963,0.063,5.795,0.408,8.375,0.974c0.557,2.641,0.881,5.536,0.912,8.559l-0.021,2
	c-0.092,2.858-0.441,5.592-1.002,8.081c-2.551,0.552-5.344,0.887-8.264,0.95H402.441z M404.441-98.135v-9.73
	c2.715-0.053,5.303-0.319,7.7-0.768C410.471-102.906,407.646-98.843,404.441-98.135z M409.204-98.78
	c2.229-2.296,4.034-5.902,5.178-10.339c4.526-1.122,8.218-2.926,10.577-5.165C422.813-106.738,416.8-100.807,409.204-98.78z
	 M414.887-111.353c0.461-2.348,0.746-4.881,0.824-7.543h9.924C424.76-115.736,420.631-112.968,414.887-111.353z M415.729-120.896
	c-0.027-2.826-0.283-5.521-0.738-8.015c5.99,1.705,10.201,4.667,10.756,8.015H415.729z"/>
<g>
	<path d="M403.382-118.468c2.777,0,5.036-2.076,5.12-4.655l0.077,0.036c0,0,0.334-0.731,0.151-1.764
		c-0.183-1.033-1.063-4.566-5.349-4.383c-4.195-0.114-3.305,1.566-4.276,1.809c-1.799,0.073-1.002,3.825-0.81,4.631
		C398.559-120.37,400.723-118.468,403.382-118.468z M407.546-123.27c0,2.111-1.869,3.829-4.164,3.829
		c-2.26,0-4.095-1.666-4.153-3.729l3.995-2.41l4.288,1.995C407.521-123.478,407.546-123.377,407.546-123.27z"/>
	<path d="M408.287-118.707l-2.441,0.794l-1.988,1.674l-2.026-1.505l-2.745-0.963c0,0-1.688,7.154-0.109,7.154c1.578,0,8.096,0,9.7,0
		S408.287-118.707,408.287-118.707z"/>
</g>
<g>
</g>
<g>
</g>
<g>
</g>
<g>
</g>
<g>
</g>
<g>
</g>
<g>
</g>
<g>
</g>
<g>
</g>
<g>
</g>
<g>
</g>
<g>
</g>
<g>
</g>
<g>
</g>
<g>
</g>
</svg>
