<?xml version="1.0" encoding="iso-8859-1"?>
<!-- Generator: Adobe Illustrator 16.0.0, SVG Export Plug-In . SVG Version: 6.00 Build 0)  -->
<!DOCTYPE svg PUBLIC "-//W3C//DTD SVG 1.1//EN" "http://www.w3.org/Graphics/SVG/1.1/DTD/svg11.dtd">
<svg version="1.1" id="Layer_1" xmlns="http://www.w3.org/2000/svg" xmlns:xlink="http://www.w3.org/1999/xlink" x="0px" y="0px"
	 width="33.715px" height="45.878px" viewBox="0 0 33.715 45.878" style="enable-background:new 0 0 33.715 45.878;"
	 xml:space="preserve">
<path d="M256.119,815.937c-2.695,0-5.214,1.323-6.736,3.54l-0.849,1.234l-0.85-1.234c-1.523-2.217-4.042-3.54-6.737-3.54
	c-1.969,0-3.777,0.698-5.193,1.857c-2.058-1.186-4.434-1.879-6.975-1.879c-0.007,0-0.014,0-0.021,0c-0.005,0-0.009,0-0.013,0
	c-0.017,0-0.032,0.002-0.048,0.002c-4.298,0.024-8.143,1.991-10.704,5.063c-0.236,0.283-0.46,0.577-0.674,0.879
	c-1.622,2.29-2.58,5.082-2.58,8.095c0,3.015,0.958,5.807,2.58,8.097c0.214,0.301,0.438,0.596,0.674,0.879
	c2.562,3.072,6.406,5.038,10.704,5.063c0.016,0,0.031,0.002,0.048,0.002c0.004,0,0.008-0.001,0.013-0.001
	c0.007,0,0.014,0.001,0.021,0.001c4.331,0,8.209-1.973,10.786-5.064c0.236-0.283,0.461-0.578,0.674-0.88
	c0.281-0.396,0.534-0.813,0.774-1.239c2.242,2.239,4.719,4.444,7.146,6.423l0.374,0.346l0.32-0.3
	c7.488-6.088,15.473-14.301,15.473-19.134C264.326,819.62,260.645,815.937,256.119,815.937z M224.676,817.742
	c-1.291,1.244-2.362,3.063-3.102,5.248c-0.99-0.37-1.881-0.815-2.649-1.318C220.431,819.881,222.412,818.504,224.676,817.742z
	 M218.248,822.551c0.873,0.584,1.882,1.094,2.998,1.513c-0.481,1.76-0.758,3.712-0.768,5.772h-4.584
	C215.92,827.126,216.792,824.619,218.248,822.551z M215.937,830.989h4.564c0.074,1.725,0.336,3.361,0.744,4.858
	c-1.115,0.419-2.125,0.93-2.997,1.513C216.957,835.528,216.126,833.349,215.937,830.989z M218.928,838.238
	c0.769-0.503,1.657-0.946,2.646-1.316c0.739,2.185,1.812,4.003,3.103,5.248C222.412,841.407,220.435,840.027,218.928,838.238z
	 M228.203,842.802c-2.363-0.324-4.403-2.749-5.561-6.24c1.667-0.5,3.556-0.803,5.561-0.852V842.802z M228.203,834.559
	c-2.114,0.05-4.108,0.378-5.883,0.922c-0.364-1.381-0.597-2.896-0.667-4.492h6.55V834.559z M228.203,829.836h-6.573
	c0.01-1.935,0.263-3.762,0.695-5.405c1.773,0.543,3.766,0.87,5.878,0.921V829.836z M228.203,824.201
	c-2.004-0.049-3.892-0.352-5.558-0.851c1.157-3.49,3.195-5.917,5.558-6.241V824.201z M234.852,823.368
	c-0.208,0.062-0.429,0.11-0.643,0.166c0.039-0.43,0.12-0.847,0.235-1.25C234.589,822.633,234.728,822.992,234.852,823.368z
	 M235.171,824.45c0.306,1.165,0.516,2.425,0.618,3.747c-0.828-1.285-1.4-2.485-1.562-3.498
	C234.546,824.62,234.865,824.542,235.171,824.45z M240.879,834.376c-1.051-1.098-2.09-2.246-3.026-3.388h3.77
	C241.527,832.17,241.272,833.307,240.879,834.376z M237.015,829.836c-0.011-2.051-0.284-3.996-0.762-5.749
	c1.14-0.424,2.169-0.941,3.058-1.535c1.457,2.066,2.329,4.574,2.354,7.284H237.015z M235.925,823.011
	c-0.257-0.765-0.568-1.464-0.903-2.131c0.303-0.547,0.679-1.047,1.115-1.488c0.928,0.649,1.77,1.415,2.497,2.279
	C237.851,822.185,236.938,822.637,235.925,823.011z M234.891,818.625c-0.244,0.268-0.475,0.549-0.683,0.847
	c-0.44-0.664-0.911-1.271-1.428-1.765C233.517,817.948,234.22,818.26,234.891,818.625z M229.355,817.118
	c1.631,0.252,3.095,1.521,4.225,3.432c-0.492,1.004-0.784,2.12-0.827,3.302c-1.079,0.194-2.214,0.321-3.397,0.35V817.118z
	 M229.355,825.352c1.202-0.028,2.359-0.156,3.466-0.354c0.24,1.418,1.048,3.069,2.239,4.838h-5.705V825.352z M229.355,830.989h6.483
	c-0.07,1.59-0.302,3.098-0.662,4.474c-1.76-0.533-3.731-0.854-5.821-0.903V830.989z M229.355,842.792v-7.082
	c1.981,0.048,3.847,0.345,5.499,0.834C233.71,840.012,231.694,842.432,229.355,842.792z M232.78,842.205
	c1.311-1.25,2.401-3.09,3.146-5.304c1.012,0.374,1.922,0.825,2.705,1.337C237.102,840.054,235.087,841.449,232.78,842.205z
	 M239.312,837.36c-0.889-0.594-1.918-1.112-3.06-1.537c0.301-1.105,0.521-2.288,0.645-3.526c0.979,1.204,2.082,2.434,3.274,3.663
	C239.913,836.445,239.627,836.914,239.312,837.36z M249.209,840.994l-0.675,0.583l-0.674-0.583c-0.949-0.82-3.472-3.045-6.096-5.706
	c0.679-1.645,1.055-3.445,1.055-5.333c0-3.013-0.957-5.805-2.58-8.095c-0.213-0.303-0.437-0.597-0.674-0.88
	c-0.738-0.887-1.595-1.667-2.526-2.35c1.105-0.785,2.452-1.252,3.908-1.252c3.038,0,5.745,2.103,6.532,5.036h2.106
	c0.789-2.934,3.496-5.036,6.533-5.036c3.731,0,6.769,3.036,6.769,6.769C262.888,828.898,251.493,839.014,249.209,840.994z"/>
<g>
</g>
<g>
</g>
<g>
</g>
<g>
</g>
<g>
</g>
<g>
</g>
<g>
</g>
<g>
</g>
<g>
</g>
<g>
</g>
<g>
</g>
<g>
</g>
<g>
</g>
<g>
</g>
<g>
</g>
</svg>
