<?xml version="1.0" encoding="iso-8859-1"?>
<!-- Generator: Adobe Illustrator 16.0.0, SVG Export Plug-In . SVG Version: 6.00 Build 0)  -->
<!DOCTYPE svg PUBLIC "-//W3C//DTD SVG 1.1//EN" "http://www.w3.org/Graphics/SVG/1.1/DTD/svg11.dtd">
<svg version="1.1" id="Layer_1" xmlns="http://www.w3.org/2000/svg" xmlns:xlink="http://www.w3.org/1999/xlink" x="0px" y="0px"
	 width="43.736px" height="43.736px" viewBox="0 0 43.736 43.736" style="enable-background:new 0 0 43.736 43.736;"
	 xml:space="preserve">
<g>
	<path d="M175.686-537.898v-8.855c-2.504,0.061-4.862,0.438-6.944,1.063C170.186-541.331,172.734-538.303,175.686-537.898z"/>
	<path d="M168.339-547.041c2.216-0.68,4.706-1.088,7.347-1.151v-4.458h-8.179C167.594-550.655,167.885-548.765,168.339-547.041z"/>
	<path d="M164.103-543.598c1.881,2.234,4.351,3.958,7.178,4.91c-1.612-1.554-2.952-3.825-3.875-6.553
		C166.172-544.78,165.062-544.225,164.103-543.598z"/>
	<path d="M186.688-554.088h5.806c-0.031-3.385-1.12-6.516-2.939-9.097c-1.109,0.741-2.395,1.388-3.818,1.917
		C186.333-559.079,186.675-556.65,186.688-554.088z"/>
	<path d="M166.067-552.65h-5.699c0.235,2.947,1.273,5.668,2.886,7.956c1.089-0.728,2.349-1.365,3.743-1.889
		C166.486-548.452,166.16-550.496,166.067-552.65z"/>
	<path d="M185.736-546.613c1.425,0.53,2.712,1.177,3.821,1.919c1.614-2.288,2.65-5.009,2.886-7.956h-5.784
		C186.566-550.507,186.243-548.474,185.736-546.613z"/>
	<path d="M185.22-552.65h-8.096v4.458c2.61,0.062,5.072,0.462,7.269,1.127C184.843-548.782,185.133-550.665,185.22-552.65z"/>
	<path d="M177.124-546.754v8.844c2.92-0.451,5.438-3.473,6.867-7.803C181.928-546.324,179.598-546.694,177.124-546.754z"/>
	<path d="M181.401-538.645c2.88-0.943,5.396-2.685,7.306-4.953c-0.977-0.64-2.114-1.203-3.377-1.67
		C184.399-542.502,183.038-540.205,181.401-538.645z"/>
	<path d="M188.71-564.284c-1.91-2.269-4.429-4.008-7.309-4.952c1.637,1.56,2.995,3.86,3.927,6.624
		C186.594-563.079,187.732-563.643,188.71-564.284z"/>
	<path d="M177.124-569.971v8.845c2.474-0.06,4.802-0.43,6.864-1.041C182.558-566.496,180.044-569.52,177.124-569.971z"/>
	<path d="M184.387-560.814c-2.194,0.664-4.655,1.064-7.263,1.126v5.6h8.125C185.237-556.495,184.924-558.769,184.387-560.814z"/>
	<path d="M166.547-581.665c-4.966,0.288-8.773,4.562-8.486,9.528c0.195,3.356,2.192,6.277,5.233,7.676
		c0.697,0.759,1.404,1.641,2.006,2.431h0c0.467,0.613,0.867,1.165,1.149,1.563c0.022,0.031,0.043,0.061,0.063,0.09
		c0.059,0.083,0.11,0.156,0.156,0.222c0.135,0.193,0.215,0.311,0.219,0.316l0.959,1.418c0,0,0,0,0,0l0.018,0.026l0.847-1.525
		c0.01-0.018,0.523-0.938,1.172-2.058c0.126-0.218,0.257-0.442,0.391-0.669c0.009-0.015,0.018-0.029,0.026-0.044
		c0.145-0.247,0.293-0.496,0.44-0.741c0.008-0.014,0.017-0.027,0.025-0.042c0.148-0.245,0.295-0.486,0.438-0.716
		c0.006-0.011,0.013-0.021,0.019-0.031c0.146-0.233,0.287-0.457,0.419-0.66c0.317-0.187,0.615-0.398,0.902-0.621
		c0.087-0.067,0.171-0.135,0.256-0.205c0.214-0.178,0.418-0.366,0.614-0.562c0.125-0.125,0.245-0.255,0.362-0.387
		c0.145-0.164,0.287-0.331,0.419-0.505c0.125-0.164,0.243-0.332,0.357-0.503c0.052-0.079,0.101-0.161,0.151-0.242
		c0.403-0.648,0.723-1.342,0.953-2.073c0,0,0,0,0-0.001l0,0c0.321-1.022,0.482-2.101,0.419-3.201
		C175.791-578.12,171.554-581.941,166.547-581.665z M172.35-568.28C172.349-568.279,172.349-568.279,172.35-568.28
		c-0.229,0.277-0.479,0.533-0.748,0.772c-0.375,0.333-0.778,0.639-1.228,0.885l-0.229,0.126l-0.146,0.218
		c-0.703,1.051-1.651,2.666-2.325,3.842c-0.764-1.045-1.871-2.485-2.961-3.647l-0.153-0.163l-0.205-0.088
		c-2.41-1.036-4-3.307-4.152-5.925c-0.219-3.787,2.683-7.045,6.469-7.264c0.135-0.008,0.271-0.012,0.405-0.012
		c3.637,0,6.649,2.847,6.859,6.481C174.037-571.297,173.438-569.599,172.35-568.28z"/>
	<path d="M173.082-563.419c-0.368,0.582-0.781,1.272-1.175,1.944c1.208,0.194,2.472,0.317,3.779,0.349v-4.717
		C174.954-564.911,174.09-564.078,173.082-563.419z"/>
	<path d="M166.236-557.231l-0.028-0.042l-0.978-1.446c-0.153-0.225-1.331-1.937-2.618-3.481c-1.431,2.376-2.27,5.146-2.296,8.111
		h5.724C166.044-555.165,166.12-556.21,166.236-557.231z"/>
	<path d="M170.46-558.947l-0.847,1.525l-1.581,2.847l-0.51-0.754c-0.02,0.412-0.043,0.821-0.045,1.241h8.208v-5.6
		c-1.577-0.038-3.091-0.212-4.534-0.48C170.851-559.644,170.602-559.2,170.46-558.947z"/>
	<circle cx="167.068" cy="-572.785" r="3.549"/>
</g>
<g>
</g>
<g>
</g>
<g>
</g>
<g>
</g>
<g>
</g>
<g>
</g>
<g>
</g>
<g>
</g>
<g>
</g>
<g>
</g>
<g>
</g>
<g>
</g>
<g>
</g>
<g>
</g>
<g>
</g>
</svg>
