<?xml version="1.0" encoding="iso-8859-1"?>
<!-- Generator: Adobe Illustrator 16.0.0, SVG Export Plug-In . SVG Version: 6.00 Build 0)  -->
<!DOCTYPE svg PUBLIC "-//W3C//DTD SVG 1.1//EN" "http://www.w3.org/Graphics/SVG/1.1/DTD/svg11.dtd">
<svg version="1.1" id="Layer_1" xmlns="http://www.w3.org/2000/svg" xmlns:xlink="http://www.w3.org/1999/xlink" x="0px" y="0px"
	 width="43.736px" height="43.736px" viewBox="0 0 43.736 43.736" style="enable-background:new 0 0 43.736 43.736;"
	 xml:space="preserve">
<g>
	<path d="M348.857-57.453c-0.371-0.524-0.758-1.035-1.17-1.527c-4.475-5.368-11.207-8.792-18.725-8.792c-0.014,0-0.025,0-0.037,0
		c-0.008,0-0.014,0-0.021,0c-0.027,0-0.055,0.003-0.084,0.003c-7.461,0.043-14.135,3.457-18.582,8.79
		c-0.41,0.492-0.799,1.003-1.17,1.527c-2.816,3.975-4.479,8.821-4.479,14.053c0,5.232,1.662,10.08,4.479,14.055
		c0.371,0.523,0.76,1.035,1.17,1.527c4.447,5.332,11.121,8.746,18.582,8.789c0.029,0,0.057,0.004,0.084,0.004
		c0.008,0,0.014-0.002,0.021-0.002c0.012,0,0.023,0.002,0.037,0.002c7.518,0,14.25-3.424,18.725-8.792
		c0.41-0.492,0.799-1.004,1.17-1.528c2.816-3.975,4.479-8.822,4.479-14.055C353.335-48.63,351.673-53.478,348.857-57.453z
		 M351.33-43.604h-8.072c-0.018-3.562-0.492-6.938-1.322-9.981c1.98-0.736,3.768-1.635,5.309-2.665
		C349.773-52.663,351.287-48.31,351.33-43.604z M346.07-57.779c-1.361,0.892-2.943,1.676-4.703,2.325
		c-1.295-3.844-3.184-7.04-5.459-9.209C339.912-63.353,343.414-60.933,346.07-57.779z M321.837-64.603
		c-2.24,2.16-4.102,5.319-5.385,9.111c-1.719-0.643-3.266-1.415-4.6-2.289C314.468-60.887,317.908-63.278,321.837-64.603z
		 M310.679-56.252c1.516,1.013,3.268,1.897,5.205,2.626c-0.836,3.055-1.316,6.443-1.334,10.021h-7.957
		C306.636-48.31,308.15-52.664,310.679-56.252z M306.667-41.604h7.922c0.129,2.994,0.584,5.836,1.293,8.434
		c-1.938,0.729-3.689,1.614-5.203,2.626C308.437-33.726,306.994-37.507,306.667-41.604z M311.859-29.021
		c1.334-0.872,2.877-1.643,4.592-2.285c1.283,3.793,3.146,6.949,5.387,9.111C317.908-23.519,314.474-25.915,311.859-29.021z
		 M329.962-21.112l-2,0.016c-2.109-0.289-6.155-3.235-8.505-8.092c-2.222-4.59-2.808-11.069-2.866-12.416l-0.041-2
		c0.018-3.359,0.455-6.531,1.207-9.384c0.05,0.016,0.615-1.86,0.557-1.878c1.997-6.026,5.51-10.223,9.583-10.822
		c0.022-0.003,0.044-0.01,0.065-0.013v0.013l2,0.003c2.172,0.336,5.102,2.78,7.161,6.081c1.788,2.866,2.86,6.671,2.935,6.648
		c0.748,2.844,1.182,6.006,1.199,9.352l-0.041,2c-0.058,1.312-0.481,7.101-2.609,11.583
		C336.257-25.07,332.092-21.441,329.962-21.112z M335.908-22.134c2.275-2.17,4.168-5.363,5.463-9.208
		c1.756,0.649,3.336,1.433,4.695,2.321C343.41-25.866,339.912-23.446,335.908-22.134z M347.246-30.544
		c-1.541-1.031-3.33-1.931-5.311-2.668c0.703-2.587,1.154-5.414,1.281-8.393h8.041C350.931-37.507,349.49-33.724,347.246-30.544z"/>
	<path d="M332.577-36.955l-2.622,0.41c0,0-1.803-4.354-1.645-7.553c0.159-3.2,1.434-5.997,1.434-5.997l2.63,0.161l0.003-0.006
		c0.603-0.009,1.016-1.053,1.016-1.053l0.002-0.003l-0.129-7.459l-1.046-1.014l-2.622,0.317c-1.599,0.276-6.727,2.959-6.659,15.413
		c0.07,12.926,5.447,15.902,7.162,16.043l2.63,0.271l0.001-0.003c0.604-0.011,1.019-1.053,1.019-1.053l0.004-0.005l-0.13-7.459
		L332.577-36.955z"/>
</g>
<g>
</g>
<g>
</g>
<g>
</g>
<g>
</g>
<g>
</g>
<g>
</g>
<g>
</g>
<g>
</g>
<g>
</g>
<g>
</g>
<g>
</g>
<g>
</g>
<g>
</g>
<g>
</g>
<g>
</g>
</svg>
