<?xml version="1.0" encoding="iso-8859-1"?>
<!-- Generator: Adobe Illustrator 16.0.0, SVG Export Plug-In . SVG Version: 6.00 Build 0)  -->
<!DOCTYPE svg PUBLIC "-//W3C//DTD SVG 1.1//EN" "http://www.w3.org/Graphics/SVG/1.1/DTD/svg11.dtd">
<svg version="1.1" id="Layer_1" xmlns="http://www.w3.org/2000/svg" xmlns:xlink="http://www.w3.org/1999/xlink" x="0px" y="0px"
	 width="33.715px" height="45.878px" viewBox="0 0 33.715 45.878" style="enable-background:new 0 0 33.715 45.878;"
	 xml:space="preserve">
<g>
	<path d="M235.135,536.555c1.298,0,2.416-0.731,3.002-1.794c0.585,1.063,1.704,1.794,3.002,1.794c1.896,0,3.439-1.543,3.439-3.44
		c0-1.896-1.543-3.438-3.439-3.438c-1.298,0-2.417,0.73-3.002,1.793c-0.586-1.063-1.704-1.793-3.002-1.793
		c-1.897,0-3.439,1.543-3.439,3.438C231.695,535.012,233.237,536.555,235.135,536.555z M241.139,530.785
		c1.284,0,2.331,1.045,2.331,2.33c0,1.287-1.047,2.332-2.331,2.332c-1.286,0-2.331-1.045-2.331-2.332
		C238.808,531.83,239.853,530.785,241.139,530.785z M235.135,530.785c1.285,0,2.331,1.045,2.331,2.33
		c0,1.287-1.046,2.332-2.331,2.332c-1.286,0-2.331-1.045-2.331-2.332C232.804,531.83,233.849,530.785,235.135,530.785z"/>
	<path d="M246.286,541.854c-0.645-1.513-1.288-3.025-1.931-4.538c-0.124-0.29-0.347-0.396-0.576-0.384v-0.003h-5.111v0.006
		c-0.15,0.016-0.282,0.111-0.382,0.271c-0.128-0.201-0.315-0.285-0.51-0.274v-0.003h-5.112v0.006
		c-0.18,0.02-0.347,0.126-0.445,0.358c-0.604,1.427-1.208,2.852-1.811,4.278c-0.345,0.813,0.85,1.52,1.196,0.699
		c0.353-0.835,0.707-1.671,1.06-2.505v3.097c0,0.003,0,0.007,0,0.01c0,2.604,0,5.211,0,7.815c0,1.34,2.079,1.34,2.079,0
		c0-2.078,0-4.154,0-6.23h0.953c0,2.076,0,4.152,0,6.23c0,1.34,2.08,1.34,2.08,0c0-2.078,0-4.154,0-6.23c0-0.105,0-0.208,0-0.313
		c-0.956-0.803-3.258-2.874-3.258-4.2c0-1.125,0.914-2.04,2.039-2.04c0.682,0,1.301,0.336,1.676,0.881
		c0.374-0.545,0.992-0.881,1.675-0.881c1.125,0,2.04,0.915,2.04,2.04c0,1.344-2.34,3.433-3.281,4.219c0,2.175,0,4.35,0,6.524
		c0,1.34,2.079,1.34,2.079,0c0-2.078,0-4.154,0-6.23h0.954c0,2.076,0,4.152,0,6.23c0,1.34,2.079,1.34,2.079,0
		c0-2.078,0-4.154,0-6.23c0-0.528,0-1.057,0-1.585v-3.171c0.41,0.965,0.82,1.93,1.23,2.894
		C245.38,543.466,246.652,542.716,246.286,541.854z"/>
</g>
<path d="M262.724,536.361c0-13.438-10.934-24.373-24.373-24.374h-0.001h-0.001c-13.439,0-24.373,10.935-24.373,24.374
	c0,0.056,0.004,0.109,0.005,0.165c-0.001,0.028-0.005,0.057-0.005,0.086c0,0.093,0.01,0.184,0.014,0.275
	c0.281,13.184,11.075,23.824,24.32,23.846c0.014,0,0.027,0.002,0.041,0.002s0.028-0.002,0.043-0.002
	c13.244-0.024,24.035-10.664,24.317-23.846c0.003-0.092,0.013-0.183,0.013-0.275c0-0.029-0.004-0.058-0.004-0.086
	C262.72,536.47,262.724,536.417,262.724,536.361z M260.056,530.937c-2.325-2.302-6.041-4.162-10.627-5.317
	c-1.135-4.684-2.998-8.488-5.316-10.876C251.938,516.832,258.087,523.064,260.056,530.937z M239.351,514.099
	c3.303,0.729,6.203,5.023,7.851,11.029c-2.44-0.467-5.079-0.744-7.851-0.798V514.099z M237.351,514.099v10.231
	c-2.772,0.054-5.41,0.331-7.851,0.797C231.147,519.122,234.048,514.829,237.351,514.099z M232.589,514.743
	c-2.318,2.388-4.182,6.192-5.316,10.877c-4.587,1.155-8.303,3.015-10.629,5.317C218.612,523.063,224.763,516.83,232.589,514.743z
	 M226.802,527.847c-0.455,2.492-0.711,5.188-0.738,8.015h-10.018C216.599,532.514,220.812,529.552,226.802,527.847z
	 M226.081,537.862c0.078,2.663,0.363,5.195,0.824,7.543c-5.744-1.615-9.874-4.383-10.75-7.543H226.081z M216.831,542.473
	c2.36,2.239,6.053,4.044,10.579,5.165c1.144,4.438,2.949,8.044,5.178,10.34C224.991,555.952,218.979,550.02,216.831,542.473z
	 M239.351,558.623h-2c-6.968-1.359-9.174-17.901-9.266-20.761l-0.021-2c0.031-3.022,0.355-5.918,0.912-8.559
	c2.58-0.566,5.412-0.91,8.375-0.974h2c2.963,0.063,5.795,0.408,8.375,0.974c0.557,2.641,0.881,5.536,0.912,8.559l-0.021,2
	C248.524,540.72,246.112,557.339,239.351,558.623z M244.113,557.977c2.229-2.296,4.034-5.902,5.178-10.339
	c4.526-1.122,8.218-2.926,10.577-5.165C257.722,550.019,251.709,555.951,244.113,557.977z M249.796,545.405
	c0.461-2.348,0.746-4.881,0.824-7.543h9.924C259.669,541.021,255.54,543.79,249.796,545.405z M250.638,535.862
	c-0.027-2.826-0.283-5.521-0.738-8.015c5.99,1.705,10.201,4.667,10.756,8.015H250.638z"/>
<g>
</g>
<g>
</g>
<g>
</g>
<g>
</g>
<g>
</g>
<g>
</g>
<g>
</g>
<g>
</g>
<g>
</g>
<g>
</g>
<g>
</g>
<g>
</g>
<g>
</g>
<g>
</g>
<g>
</g>
</svg>
