<?xml version="1.0" encoding="iso-8859-1"?>
<!-- Generator: Adobe Illustrator 16.0.0, SVG Export Plug-In . SVG Version: 6.00 Build 0)  -->
<!DOCTYPE svg PUBLIC "-//W3C//DTD SVG 1.1//EN" "http://www.w3.org/Graphics/SVG/1.1/DTD/svg11.dtd">
<svg version="1.1" id="Layer_1" xmlns="http://www.w3.org/2000/svg" xmlns:xlink="http://www.w3.org/1999/xlink" x="0px" y="0px"
	 width="46.84px" height="49.441px" viewBox="0 0 46.84 49.441" style="enable-background:new 0 0 46.84 49.441;"
	 xml:space="preserve">
<g>
	<path d="M278.297,168.415c0-3.513-4.426-6.066-10.494-7.562c2.078-5.377,2.441-10.031-0.244-12.021
		c-0.736-0.545-1.643-0.821-2.693-0.821c-3.135,0-7.463,2.515-11.92,6.696c-4.504-4.464-8.873-7.16-11.988-7.16
		c-0.953,0-1.781,0.247-2.461,0.734c-2.111,1.514-2.42,4.939-0.895,9.905c0.299,0.974,0.676,1.99,1.098,3.027
		c-5.363,1.529-9.148,3.954-9.148,7.201c0,3.2,3.674,5.601,8.914,7.134c-2.223,5.557-2.688,10.406,0.068,12.449
		c0.736,0.545,1.643,0.82,2.693,0.82c3.133,0,7.453-2.51,11.904-6.683c4.264,4.069,8.354,6.493,11.314,6.493
		c0.951,0,1.779-0.247,2.461-0.734c2.605-1.869,2.26-6.434,0.256-11.769C273.557,174.655,278.297,172.051,278.297,168.415z
		 M264.866,150.011c0.613,0,1.117,0.144,1.502,0.429c1.588,1.176,1.41,4.945-0.553,9.975c-2.709-0.539-5.658-0.884-8.637-1.029
		c-0.939-1.15-1.885-2.229-2.832-3.238C258.676,152.105,262.553,150.011,264.866,150.011z M245.508,173.246
		c0.467,0.652,0.941,1.286,1.42,1.908c-2.074-0.229-3.982-0.557-5.703-0.953c0.609-1.318,1.318-2.695,2.146-4.125
		C244.047,171.135,244.754,172.194,245.508,173.246z M241.477,162.576c1.568-0.353,3.287-0.646,5.145-0.86
		c-0.316,0.408-0.633,0.816-0.945,1.237c-0.795,1.072-1.557,2.178-2.285,3.299C242.684,165.008,242.043,163.778,241.477,162.576z
		 M244.528,168.167c0.83-1.315,1.746-2.661,2.756-4.022c0.699-0.945,1.402-1.832,2.105-2.685c1.449-0.1,2.961-0.156,4.535-0.156
		c0.768,0,1.52,0.015,2.26,0.04c0.693,0.874,1.391,1.783,2.084,2.751c1.176,1.64,2.213,3.246,3.145,4.81
		c-0.791,1.238-1.656,2.502-2.604,3.781c-0.727,0.981-1.457,1.902-2.186,2.783c-0.881,0.035-1.777,0.058-2.699,0.058
		c-1.475,0-2.891-0.054-4.26-0.142c-0.842-1.037-1.688-2.129-2.531-3.305C246.202,170.781,245.333,169.471,244.528,168.167z
		 M260.417,173.877c0.73-0.986,1.43-2.002,2.105-3.029c0.719,1.318,1.346,2.588,1.881,3.801c-1.57,0.279-3.268,0.5-5.074,0.65
		C259.694,174.832,260.057,174.361,260.417,173.877z M259.893,162.929c-0.352-0.491-0.709-0.97-1.066-1.443
		c2.236,0.167,4.313,0.442,6.195,0.804c-0.674,1.492-1.479,3.063-2.438,4.699C261.737,165.609,260.838,164.246,259.893,162.929z
		 M254.506,159.309c-0.193-0.002-0.389-0.005-0.582-0.005c-0.91,0-1.826,0.021-2.738,0.06c0.58-0.645,1.156-1.244,1.727-1.822
		C253.44,158.103,253.971,158.689,254.506,159.309z M239.663,149.906c0.332-0.238,0.768-0.359,1.295-0.359
		c2.281,0,6.18,2.238,10.557,6.56c-1.047,1.062-2.096,2.204-3.131,3.429c-2.703,0.229-5.332,0.623-7.73,1.177
		c-0.445-1.07-0.832-2.114-1.139-3.112C238.317,153.707,238.374,150.831,239.663,149.906z M231.551,168.415
		c0-1.911,2.973-3.945,7.955-5.347c0.766,1.66,1.668,3.367,2.688,5.094c-1.111,1.848-2.104,3.712-2.934,5.531
		C234.426,172.295,231.551,170.295,231.551,168.415z M241.227,186.818c-0.613,0-1.119-0.144-1.502-0.428
		c-1.623-1.204-1.4-5.123,0.695-10.327c2.541,0.602,5.352,1.021,8.24,1.252c1.012,1.214,2.031,2.354,3.047,3.403
		C247.395,184.736,243.534,186.818,241.227,186.818z M251.436,177.479c0.83,0.031,1.66,0.048,2.488,0.048
		c0.311,0,0.623-0.003,0.934-0.008c-0.574,0.636-1.145,1.23-1.711,1.802C252.583,178.74,252.012,178.126,251.436,177.479z
		 M265.741,186.27c-1.701,1.22-6.061-0.703-11.168-5.541c1.012-1.025,2.023-2.127,3.025-3.307c2.607-0.145,5.182-0.441,7.586-0.887
		C267.084,181.504,267.264,185.176,265.741,186.27z M266.405,174.246c-0.752-1.735-1.658-3.525-2.672-5.312
		c1.264-2.073,2.387-4.175,3.291-6.208c5.771,1.396,9.273,3.614,9.273,5.688C276.297,170.563,272.542,172.861,266.405,174.246z"/>
	<path d="M253.278,173.089c1.903,0,3.555-1.09,4.368-2.677c0.174-0.34,0.309-0.701,0.4-1.08c0.023-0.097,0.043-0.193,0.061-0.291
		c0.049-0.279,0.077-0.565,0.077-0.858c0-0.017-0.001-0.033-0.001-0.05c-0.001-0.144-0.008-0.286-0.022-0.427
		c-0.045-0.468-0.157-0.915-0.325-1.336h0.004l-0.015-0.082l-0.027-0.012c-0.223-0.527-0.537-1.007-0.92-1.421
		c-0.025-0.027-0.051-0.054-0.076-0.08c-0.073-0.075-0.147-0.148-0.224-0.22c-0.872-0.794-2.03-1.278-3.3-1.278
		c-1.28,0-2.447,0.493-3.321,1.3c-0.204,0.188-0.391,0.393-0.561,0.612c-0.641,0.829-1.023,1.867-1.023,2.993
		C248.373,170.888,250.573,173.089,253.278,173.089z M256.551,165.315l0-0.219c0.077,0.082,0.151,0.166,0.222,0.253l-0.088,0.132
		l-0.309-0.003l-0.019-0.064L256.551,165.315z M250.633,164.771v-0.009h0.098l0.009-0.033h0.161v0.069l-0.046,0.063h-0.222V164.771z
		 M250.79,164.99c0,0,0.098-0.017,0.107-0.017c0.008,0,0,0.098,0,0.098l-0.222,0.014l-0.042-0.05L250.79,164.99z M249.136,166.421
		v-0.141l0.161-0.195c0.056-0.105,0.116-0.208,0.18-0.309l0.007,0.082l-0.187,0.227
		C249.239,166.194,249.185,166.307,249.136,166.421v0.257l0.187,0.09v0.355l0.179,0.307l0.146,0.022l0.019-0.104l-0.172-0.266
		l-0.034-0.259h0.101l0.042,0.266l0.249,0.363l-0.064,0.117l0.158,0.241l0.393,0.098v-0.063l0.157,0.022l-0.015,0.112l0.124,0.022
		l0.19,0.052l0.27,0.308l0.344,0.025l0.034,0.281l-0.236,0.164l-0.011,0.251l-0.034,0.153l0.341,0.427l0.026,0.146
		c0,0,0.124,0.033,0.139,0.033c0.015,0,0.277,0.199,0.277,0.199v0.771l0.093,0.026l-0.063,0.355l0.157,0.209l-0.029,0.353
		l0.208,0.365l0.266,0.232l0.268,0.005l0.026-0.086l-0.197-0.166l0.011-0.082l0.036-0.101l0.007-0.104l-0.133-0.003l-0.067-0.085
		l0.11-0.106l0.015-0.08l-0.124-0.036l0.007-0.074l0.176-0.026l0.268-0.129l0.09-0.164l0.281-0.359l-0.064-0.281l0.086-0.149
		l0.258,0.008l0.174-0.138l0.056-0.542l0.192-0.245l0.034-0.157l-0.176-0.056l-0.116-0.19l-0.397-0.004l-0.314-0.12l-0.015-0.225
		l-0.105-0.183l-0.284-0.005l-0.165-0.258l-0.146-0.07l-0.007,0.078l-0.266,0.016l-0.097-0.136l-0.277-0.056l-0.229,0.264
		l-0.359-0.061l-0.026-0.405l-0.262-0.045l0.105-0.198l-0.03-0.114l-0.344,0.23l-0.217-0.026l-0.077-0.169l0.047-0.175l0.12-0.221
		l0.275-0.139h0.531l-0.001,0.161l0.191,0.089l-0.015-0.276l0.137-0.139l0.278-0.182l0.019-0.129l0.277-0.288l0.294-0.163
		l-0.026-0.021l0.2-0.188l0.073,0.02l0.033,0.042l0.076-0.084l0.019-0.008l-0.083-0.012l-0.084-0.028v-0.081l0.044-0.036h0.099
		l0.045,0.02l0.039,0.078l0.047-0.007v-0.008l0.014,0.005l0.138-0.021l0.02-0.067l0.079,0.02v0.073l-0.073,0.05h0l0.011,0.08
		l0.25,0.077c0,0,0,0.001,0,0.003l0.058-0.005l0.004-0.108l-0.198-0.09l-0.011-0.052l0.165-0.057l0.007-0.157l-0.172-0.104
		l-0.011-0.266l-0.236,0.115h-0.086l0.022-0.201l-0.321-0.076l-0.133,0.101v0.306l-0.239,0.075l-0.096,0.199l-0.104,0.018v-0.256
		l-0.225-0.03l-0.112-0.074l-0.045-0.164l0.401-0.235l0.197-0.06l0.02,0.132l0.109-0.006l0.008-0.066l0.115-0.017l0.002-0.023
		l-0.049-0.02l-0.011-0.07l0.141-0.012l0.085-0.089l0.005-0.006h0.001l0.026-0.026l0.295-0.037l0.131,0.11l-0.343,0.183l0.436,0.103
		l0.057-0.146h0.191l0.067-0.127l-0.135-0.033v-0.161l-0.423-0.188l-0.292,0.033l-0.165,0.087l0.011,0.209l-0.172-0.025
		l-0.027-0.116l0.165-0.149l-0.299-0.016l-0.086,0.026l-0.038,0.101l0.112,0.02l-0.022,0.111l-0.191,0.012l-0.03,0.074l-0.277,0.008
		c0,0-0.007-0.156-0.019-0.156s0.217-0.005,0.217-0.005l0.165-0.16l-0.09-0.045l-0.12,0.116l-0.198-0.012l-0.12-0.165h-0.254
		l-0.266,0.198h0.243l0.022,0.072l-0.063,0.06l0.269,0.007l0.042,0.098l-0.303-0.012l-0.015-0.074l-0.19-0.041l-0.101-0.057
		l-0.227,0.002c0.743-0.541,1.657-0.862,2.645-0.862c1.138,0,2.179,0.426,2.972,1.125l-0.053,0.096l-0.208,0.081l-0.087,0.096
		l0.02,0.11l0.107,0.015l0.065,0.162l0.185-0.075l0.031,0.216h-0.056l-0.152-0.022l-0.168,0.028l-0.163,0.23l-0.233,0.036
		l-0.034,0.199l0.099,0.023l-0.028,0.128l-0.231-0.046l-0.212,0.046l-0.045,0.118l0.037,0.248l0.125,0.058l0.208-0.001l0.141-0.013
		l0.043-0.112l0.22-0.286l0.145,0.029l0.143-0.129l0.027,0.101l0.352,0.237l-0.043,0.058l-0.159-0.009l0.061,0.087l0.098,0.021
		l0.114-0.048l-0.002-0.138l0.05-0.025l-0.041-0.043l-0.234-0.131l-0.062-0.174h0.195l0.062,0.062l0.168,0.145l0.007,0.176
		l0.174,0.185l0.064-0.253l0.121-0.066l0.022,0.208l0.118,0.129l0.235-0.004c0.045,0.116,0.086,0.235,0.122,0.356l-0.025,0.023
		h-0.359l-0.219-0.163l-0.23,0.022v0.141h-0.073l-0.079-0.057l-0.398-0.101v-0.258l-0.505,0.039l-0.157,0.084h-0.2l-0.099-0.01
		l-0.244,0.135v0.255l-0.498,0.359l0.041,0.153h0.101l-0.026,0.146l-0.071,0.026l-0.004,0.382l0.43,0.49h0.188l0.011-0.03h0.336
		l0.097-0.09h0.191l0.105,0.104l0.284,0.03l-0.038,0.378l0.316,0.558l-0.166,0.317l0.011,0.15l0.131,0.131v0.359l0.172,0.231v0.3
		h0.148c-0.826,1.014-2.084,1.664-3.492,1.664c-2.482,0-4.502-2.02-4.502-4.503C248.776,167.559,248.904,166.963,249.136,166.421z
		 M251.048,165.506l0.118-0.056l0.107,0.025l-0.037,0.143l-0.115,0.037L251.048,165.506z M251.674,165.844v0.092h-0.269
		l-0.101-0.027l0.025-0.064l0.129-0.055h0.177v0.055H251.674z M251.797,165.973v0.089l-0.067,0.044l-0.084,0.016
		c0,0,0-0.135,0-0.148H251.797z M251.722,165.936v-0.106l0.093,0.084L251.722,165.936z M251.764,166.151v0.088l-0.064,0.064h-0.143
		l0.022-0.099l0.067-0.006l0.014-0.033L251.764,166.151z M251.407,165.973h0.149l-0.191,0.267l-0.079-0.043l0.017-0.112
		L251.407,165.973z M252.016,166.121v0.087h-0.143l-0.039-0.057v-0.081h0.011L252.016,166.121z M251.884,166.001l0.041-0.043
		l0.069,0.043l-0.055,0.046L251.884,166.001z"/>
</g>
<g>
</g>
<g>
</g>
<g>
</g>
<g>
</g>
<g>
</g>
<g>
</g>
<g>
</g>
<g>
</g>
<g>
</g>
<g>
</g>
<g>
</g>
<g>
</g>
<g>
</g>
<g>
</g>
<g>
</g>
</svg>
