<?xml version="1.0" encoding="iso-8859-1"?>
<!-- Generator: Adobe Illustrator 16.0.0, SVG Export Plug-In . SVG Version: 6.00 Build 0)  -->
<!DOCTYPE svg PUBLIC "-//W3C//DTD SVG 1.1//EN" "http://www.w3.org/Graphics/SVG/1.1/DTD/svg11.dtd">
<svg version="1.1" id="Layer_1" xmlns="http://www.w3.org/2000/svg" xmlns:xlink="http://www.w3.org/1999/xlink" x="0px" y="0px"
	 width="43.736px" height="43.736px" viewBox="0 0 43.736 43.736" style="enable-background:new 0 0 43.736 43.736;"
	 xml:space="preserve">
<g>
	<path d="M326.705-558.981l0.978,1.445l0.847-1.525c0.019-0.033,1.781-3.2,2.931-4.96c2.895-1.706,4.628-4.933,4.434-8.3
		c-0.285-4.941-4.522-8.763-9.529-8.486c-4.966,0.288-8.773,4.562-8.486,9.528c0.195,3.356,2.192,6.277,5.233,7.676
		C324.859-561.7,326.686-559.009,326.705-558.981z M320.02-571.403c-0.219-3.787,2.683-7.045,6.469-7.264
		c0.135-0.008,0.271-0.012,0.405-0.012c3.637,0,6.649,2.847,6.859,6.481c0.152,2.636-1.246,5.161-3.562,6.432l-0.229,0.126
		l-0.146,0.218c-0.703,1.051-1.651,2.666-2.325,3.842c-0.764-1.045-1.871-2.485-2.961-3.647l-0.153-0.163l-0.205-0.088
		C321.762-566.514,320.171-568.785,320.02-571.403z"/>
	<path d="M349.595-562.404c-0.244-0.344-0.498-0.68-0.768-1.003c-2.733-3.28-6.758-5.429-11.28-5.714
		c-0.335,1.308-0.896,2.549-1.668,3.652v5.732c-1.535-0.038-3.001-0.215-4.38-0.494c-0.249,0.429-0.481,0.833-0.683,1.188
		c1.583,0.358,3.285,0.575,5.063,0.618v5.111h-7.491c0.002-0.497,0.023-0.984,0.053-1.468l-0.59,1.063l-0.721-1.066
		c-0.029,0.485-0.052,0.974-0.055,1.471h-5.224c0.022-2.398,0.631-4.653,1.677-6.646c-0.277-0.363-0.577-0.744-0.886-1.122
		c-1.334,2.333-2.107,5.027-2.107,7.902c0,3.435,1.092,6.617,2.94,9.226c0.244,0.344,0.499,0.679,0.768,1.002
		c2.919,3.5,7.3,5.742,12.198,5.77c0.019,0,0.037,0.002,0.055,0.002c0.004,0,0.009,0,0.014,0c0.008,0,0.015,0,0.023,0
		c4.936,0,9.355-2.247,12.292-5.771c0.27-0.323,0.524-0.659,0.768-1.003c1.849-2.609,2.939-5.792,2.939-9.226
		C352.534-556.613,351.443-559.795,349.595-562.404z M321.899-552.001h5.201c0.085,1.966,0.383,3.831,0.849,5.536
		c-1.272,0.479-2.422,1.06-3.416,1.724C323.061-546.829,322.114-549.311,321.899-552.001z M325.308-543.74
		c0.875-0.572,1.888-1.079,3.014-1.5c0.842,2.489,2.065,4.562,3.536,5.98C329.278-540.128,327.024-541.701,325.308-543.74z
		 M335.878-538.539c-2.693-0.37-5.019-3.133-6.337-7.111c1.899-0.571,4.051-0.915,6.337-0.971V-538.539z M335.878-547.933
		c-2.41,0.058-4.683,0.431-6.705,1.051c-0.414-1.573-0.679-3.299-0.76-5.119h7.465V-547.933z M351.218-553.313h-5.299
		c-0.012-2.338-0.324-4.555-0.868-6.552c1.299-0.483,2.473-1.073,3.485-1.75C350.196-559.26,351.19-556.402,351.218-553.313z
		 M347.765-562.619c-0.893,0.585-1.932,1.1-3.087,1.526c-0.85-2.523-2.09-4.621-3.583-6.045
		C343.723-566.277,346.021-564.689,347.765-562.619z M337.191-567.809c2.665,0.412,4.959,3.172,6.264,7.122
		c-1.881,0.558-4.007,0.895-6.264,0.95V-567.809z M337.191-558.424c2.379-0.057,4.625-0.421,6.628-1.028
		c0.49,1.867,0.775,3.942,0.787,6.139h-7.415V-558.424z M337.191-552.001h7.388c-0.08,1.812-0.344,3.53-0.754,5.098
		c-2.005-0.607-4.252-0.973-6.634-1.029V-552.001z M337.191-538.549v-8.072c2.258,0.055,4.384,0.393,6.267,0.951
		C342.153-541.718,339.855-538.96,337.191-538.549z M341.094-539.22c1.494-1.424,2.736-3.521,3.585-6.044
		c1.153,0.426,2.19,0.94,3.082,1.524C346.019-541.67,343.723-540.081,341.094-539.22z M348.537-544.74
		c-1.012-0.677-2.186-1.268-3.487-1.751c0.462-1.699,0.758-3.554,0.842-5.51h5.279C350.956-549.311,350.01-546.828,348.537-544.74z"
		/>
	<circle cx="326.886" cy="-571.929" r="3.549"/>
</g>
<g>
</g>
<g>
</g>
<g>
</g>
<g>
</g>
<g>
</g>
<g>
</g>
<g>
</g>
<g>
</g>
<g>
</g>
<g>
</g>
<g>
</g>
<g>
</g>
<g>
</g>
<g>
</g>
<g>
</g>
</svg>
