<?xml version="1.0" encoding="iso-8859-1"?>
<!-- Generator: Adobe Illustrator 16.0.0, SVG Export Plug-In . SVG Version: 6.00 Build 0)  -->
<!DOCTYPE svg PUBLIC "-//W3C//DTD SVG 1.1//EN" "http://www.w3.org/Graphics/SVG/1.1/DTD/svg11.dtd">
<svg version="1.1" id="Layer_1" xmlns="http://www.w3.org/2000/svg" xmlns:xlink="http://www.w3.org/1999/xlink" x="0px" y="0px"
	 width="44.867px" height="40.873px" viewBox="0 0 44.867 40.873" style="enable-background:new 0 0 44.867 40.873;"
	 xml:space="preserve">
<g>
	<path d="M115.429-127.941c0-10.475-8.521-18.997-18.997-18.997c-0.401,0-0.798,0.017-1.192,0.041v2.406
		c0.395-0.028,0.789-0.061,1.192-0.061c9.159,0,16.61,7.452,16.61,16.611c0,9.159-7.451,16.61-16.61,16.61
		c-0.269,0-0.53-0.027-0.795-0.04v0.897v1.509v4.722h-5.899v3.182h13.389v-3.182h-5.103v-4.774
		C107.756-109.828,115.429-118.002,115.429-127.941z"/>
	<g>
		<path d="M90.327-113.741c1.744-1.034,4.81-3.055,7.853-6.071c-0.512-0.688-1.042-1.409-1.58-2.145
			c-0.233,0.002-0.466,0.004-0.7,0.004c-0.008,0-0.016,0-0.022,0c-0.564,0-1.121-0.014-1.669-0.04
			c-0.376,0.892-1.258,1.518-2.286,1.518c-0.263,0-0.511-0.052-0.747-0.127c-1.473,2.406-2.598,4.428-3.245,5.626
			C88.686-114.496,89.487-114.082,90.327-113.741z"/>
		<path d="M109.673-133.719c-0.641,1.103-1.392,2.361-2.238,3.712c1.34,0.372,2.507,0.768,3.468,1.127
			C110.763-130.59,110.337-132.219,109.673-133.719z"/>
		<path d="M104.402-136.338c0.071,0.231,0.12,0.471,0.12,0.726c0,0.73-0.322,1.381-0.825,1.835c0.232,0.369,0.47,0.738,0.716,1.102
			c0.529,0.785,1.08,1.558,1.639,2.31c0.026,0.007,0.054,0.013,0.08,0.02c1.123-1.777,2.085-3.405,2.848-4.74
			c-0.605-1.059-1.337-2.035-2.174-2.912C106.102-137.547,105.286-136.995,104.402-136.338z"/>
		<path d="M101.54-125.433c0.4,0,0.773,0.104,1.108,0.272c0.971-1.353,1.884-2.703,2.723-3.996
			c-0.013-0.016-0.023-0.032-0.036-0.047c-2.22-0.515-4.783-0.916-7.523-0.981c-0.393,0.466-0.777,0.947-1.153,1.448
			c-0.577,0.769-1.136,1.543-1.675,2.313c0.723,1.038,1.488,2.11,2.262,3.176c0.623-0.01,1.24-0.026,1.851-0.048
			C99.265-124.502,100.289-125.433,101.54-125.433z"/>
		<path d="M99.655-121.361c-0.166-0.197-0.309-0.414-0.408-0.656c-0.356,0.013-0.717,0.024-1.078,0.034
			c0.308,0.418,0.614,0.833,0.918,1.241C99.276-120.945,99.466-121.151,99.655-121.361z"/>
		<path d="M91.922-125.433c0.26,0,0.505,0.051,0.74,0.125c0.248-0.371,0.502-0.745,0.761-1.12c-0.199-0.289-0.398-0.579-0.588-0.859
			c-0.556-0.825-1.082-1.749-1.576-2.723c-4.428,0.269-8.225,0.766-10.246,1.064c-0.037,0.429-0.061,0.861-0.061,1.3
			c0,0.441,0.023,0.876,0.061,1.308c1.652,0.696,4.74,1.84,8.591,2.528C89.954-124.756,90.854-125.433,91.922-125.433z"/>
		<path d="M96.157-130.19c-1.185,0.013-2.354,0.05-3.494,0.104c0.393,0.738,0.805,1.44,1.236,2.081
			c0.101,0.149,0.204,0.301,0.307,0.453c0.463-0.652,0.938-1.306,1.426-1.956C95.805-129.738,95.979-129.966,96.157-130.19z"/>
		<path d="M94.369-123.272c0.429,0.02,0.862,0.031,1.301,0.034c-0.497-0.69-0.986-1.379-1.465-2.062
			c-0.155,0.228-0.308,0.454-0.459,0.68C94.081-124.254,94.302-123.789,94.369-123.272z"/>
		<path d="M90.093-121.292c-0.307-0.338-0.523-0.758-0.606-1.227c-3.542-0.616-6.442-1.608-8.271-2.34
			c0.697,3.714,2.762,6.944,5.653,9.148C87.537-116.944,88.649-118.935,90.093-121.292z"/>
		<path d="M90.657-131.257c-1.438-3.12-2.534-6.523-3.164-8.774c-3.262,2.232-5.594,5.718-6.307,9.764
			C83.22-130.561,86.663-130.996,90.657-131.257z"/>
		<path d="M92.034-131.339c1.609-0.085,3.286-0.138,4.982-0.139c0.007,0,0.015,0,0.021,0c0.063,0,0.123,0.001,0.184,0.002
			c0.896-1.032,1.814-1.974,2.724-2.828c-0.238-0.381-0.382-0.827-0.382-1.309c0-0.652,0.258-1.241,0.67-1.684
			c-1.063-2.076-1.873-3.954-2.359-5.223c-0.629-0.081-1.27-0.126-1.92-0.126c-2.659,0-5.156,0.695-7.322,1.909
			C89.242-138.518,90.427-134.71,92.034-131.339z"/>
		<path d="M99.946-117.456c-0.311-0.409-0.644-0.854-0.987-1.312c-2.611,2.574-5.212,4.421-7.038,5.569
			c1.283,0.358,2.636,0.553,4.033,0.553c2.335,0,4.545-0.533,6.516-1.485C101.874-114.906,101.07-115.969,99.946-117.456z"/>
		<path d="M103.92-122.294c-0.29,1.047-1.24,1.819-2.38,1.819c-0.288,0-0.562-0.059-0.818-0.15c-0.283,0.319-0.567,0.63-0.853,0.931
			c1.485,1.984,2.833,3.742,3.757,4.938c3.077-1.834,5.439-4.738,6.578-8.198C108.534-122.736,106.368-122.489,103.92-122.294z"/>
		<path d="M98.907-131.427c1.871,0.099,3.643,0.338,5.268,0.652c-0.293-0.407-0.57-0.804-0.826-1.184
			c-0.272-0.405-0.536-0.816-0.795-1.229c-0.165,0.035-0.336,0.054-0.511,0.054c-0.415,0-0.8-0.112-1.144-0.292
			C100.235-132.807,99.566-132.14,98.907-131.427z"/>
		<path d="M101.327-137.974c0.228-0.07,0.465-0.118,0.716-0.118c0.644,0,1.224,0.251,1.665,0.653
			c0.773-0.572,1.493-1.063,2.137-1.48c-1.824-1.603-4.042-2.768-6.49-3.335C99.815-141.133,100.483-139.631,101.327-137.974z"/>
		<path d="M110.952-127.476c-0.955-0.371-2.178-0.801-3.611-1.21c1.166,1.48,2.309,2.826,3.326,3.977
			C110.845-125.605,110.942-126.53,110.952-127.476z"/>
		<path d="M109.438-124.149c-1.05-1.215-2.174-2.578-3.235-3.932c-0.805,1.229-1.67,2.501-2.587,3.775
			c0.144,0.219,0.247,0.465,0.315,0.725C106.024-123.75,107.907-123.958,109.438-124.149z"/>
	</g>
</g>
<g>
</g>
<g>
</g>
<g>
</g>
<g>
</g>
<g>
</g>
<g>
</g>
<g>
</g>
<g>
</g>
<g>
</g>
<g>
</g>
<g>
</g>
<g>
</g>
<g>
</g>
<g>
</g>
<g>
</g>
</svg>
