<?xml version="1.0" encoding="iso-8859-1"?>
<!-- Generator: Adobe Illustrator 16.0.0, SVG Export Plug-In . SVG Version: 6.00 Build 0)  -->
<!DOCTYPE svg PUBLIC "-//W3C//DTD SVG 1.1//EN" "http://www.w3.org/Graphics/SVG/1.1/DTD/svg11.dtd">
<svg version="1.1" id="Layer_1" xmlns="http://www.w3.org/2000/svg" xmlns:xlink="http://www.w3.org/1999/xlink" x="0px" y="0px"
	 width="44.867px" height="40.873px" viewBox="0 0 44.867 40.873" style="enable-background:new 0 0 44.867 40.873;"
	 xml:space="preserve">
<g>
	<path d="M117.314-52.913c0-10.475-8.521-18.997-18.997-18.997c-0.401,0-0.798,0.017-1.192,0.041v2.406
		c0.395-0.028,0.789-0.061,1.192-0.061c9.159,0,16.61,7.452,16.61,16.611c0,9.159-7.451,16.61-16.61,16.61
		c-0.269,0-0.53-0.027-0.795-0.04v0.897v1.509v4.722h-5.899v3.182h13.389v-3.182h-5.103v-4.774
		C109.642-34.799,117.314-42.974,117.314-52.913z"/>
	<path d="M97.119-38.048c0.004,0,0.009,0,0.013,0c0.008,0,0.015,0,0.022,0c4.627,0,8.771-2.107,11.524-5.41
		c0.252-0.303,0.491-0.618,0.72-0.94c1.733-2.446,2.757-5.43,2.757-8.649c0-3.219-1.023-6.203-2.757-8.649
		c-0.229-0.323-0.467-0.637-0.72-0.94c-2.754-3.304-6.897-5.411-11.524-5.411c-0.008,0-0.015,0-0.022,0c-0.004,0-0.009,0-0.013,0
		c-0.018,0-0.034,0.002-0.052,0.002c-4.592,0.027-8.699,2.127-11.436,5.41c-0.253,0.303-0.492,0.617-0.721,0.939
		c-1.732,2.446-2.756,5.429-2.756,8.649s1.023,6.203,2.756,8.649c0.229,0.323,0.468,0.637,0.721,0.94
		c2.736,3.282,6.844,5.382,11.436,5.409C97.085-38.05,97.102-38.048,97.119-38.048z M101.43-39.962
		c1.4-1.335,2.564-3.301,3.361-5.667c1.081,0.399,2.054,0.881,2.89,1.429C106.046-42.259,103.894-40.769,101.43-39.962z
		 M108.407-45.137c-0.949-0.635-2.05-1.188-3.27-1.642c0.434-1.592,0.711-3.332,0.789-5.165h4.949
		C110.675-49.423,109.787-47.094,108.407-45.137z M110.92-53.175h-4.968c-0.011-2.192-0.303-4.27-0.813-6.143
		c1.218-0.453,2.318-1.006,3.267-1.64C109.962-58.75,110.894-56.071,110.92-53.175z M107.683-61.898
		c-0.837,0.548-1.811,1.031-2.894,1.431c-0.797-2.365-1.959-4.333-3.359-5.667C103.894-65.328,106.049-63.839,107.683-61.898z
		 M97.77-66.764c2.499,0.386,4.649,2.973,5.873,6.677c-1.765,0.522-3.757,0.839-5.873,0.891V-66.764z M97.77-57.966
		c2.231-0.053,4.337-0.395,6.214-0.963c0.46,1.75,0.728,3.696,0.738,5.755H97.77V-57.966z M97.77-51.944h6.927
		c-0.074,1.698-0.322,3.309-0.707,4.779c-1.88-0.569-3.986-0.912-6.22-0.965V-51.944z M97.77-46.9
		c2.117,0.052,4.11,0.368,5.876,0.891c-1.224,3.705-3.377,6.29-5.876,6.676V-46.9z M92.771-66.098
		c-1.38,1.33-2.524,3.274-3.314,5.607c-1.058-0.396-2.01-0.871-2.83-1.409C88.235-63.811,90.352-65.283,92.771-66.098z
		 M85.903-60.958c0.932,0.623,2.01,1.167,3.203,1.616c-0.515,1.88-0.811,3.966-0.821,6.167h-4.896
		C83.415-56.071,84.347-58.75,85.903-60.958z M83.434-51.944h4.876c0.079,1.842,0.358,3.591,0.796,5.19
		c-1.192,0.449-2.271,0.993-3.202,1.616C84.523-47.095,83.635-49.423,83.434-51.944z M86.629-44.2
		c0.82-0.537,1.771-1.011,2.826-1.406c0.79,2.334,1.936,4.277,3.315,5.607C90.352-40.814,88.238-42.288,86.629-44.2z M96.539-39.323
		c-2.524-0.347-4.705-2.937-5.94-6.667c1.78-0.535,3.798-0.858,5.94-0.91V-39.323z M96.539-48.13
		c-2.259,0.054-4.39,0.404-6.286,0.985c-0.388-1.475-0.637-3.093-0.712-4.799h6.998V-48.13z M96.539-53.175h-7.022
		c0.01-2.067,0.28-4.02,0.742-5.775c1.895,0.58,4.023,0.93,6.28,0.983V-53.175z M96.539-59.196
		c-2.142-0.052-4.157-0.375-5.938-0.909c1.236-3.729,3.413-6.321,5.938-6.668V-59.196z"/>
</g>
<g>
</g>
<g>
</g>
<g>
</g>
<g>
</g>
<g>
</g>
<g>
</g>
<g>
</g>
<g>
</g>
<g>
</g>
<g>
</g>
<g>
</g>
<g>
</g>
<g>
</g>
<g>
</g>
<g>
</g>
</svg>
