<?xml version="1.0" encoding="iso-8859-1"?>
<!-- Generator: Adobe Illustrator 16.0.0, SVG Export Plug-In . SVG Version: 6.00 Build 0)  -->
<!DOCTYPE svg PUBLIC "-//W3C//DTD SVG 1.1//EN" "http://www.w3.org/Graphics/SVG/1.1/DTD/svg11.dtd">
<svg version="1.1" id="Layer_1" xmlns="http://www.w3.org/2000/svg" xmlns:xlink="http://www.w3.org/1999/xlink" x="0px" y="0px"
	 width="43.736px" height="43.736px" viewBox="0 0 43.736 43.736" style="enable-background:new 0 0 43.736 43.736;"
	 xml:space="preserve">
<path style="fill:none;" d="M32.784,30.594c-0.838-0.549-1.815-1.031-2.9-1.436c-0.8,2.377-1.97,4.349-3.375,5.691
	C28.982,34.037,31.144,32.543,32.784,30.594z"/>
<path style="fill:none;" d="M33.512,13.771c-0.953,0.638-2.056,1.192-3.279,1.646c0.406,1.49,0.667,3.113,0.767,4.816
	c1.89,0.194,3.559,0.435,5.004,0.686C35.852,18.269,34.954,15.817,33.512,13.771z"/>
<path style="fill:none;" d="M22.836,35.479c2.507-0.388,4.67-2.982,5.897-6.701c-1.772-0.525-3.772-0.842-5.897-0.895V35.479z"/>
<path style="fill:none;" d="M34.114,28.716c-0.978-0.16-2.073-0.314-3.281-0.45c0.978,0.405,1.892,0.859,2.68,1.388
	C33.727,29.351,33.925,29.036,34.114,28.716z"/>
<path style="fill:none;" d="M22.836,19.801c2.527,0.017,4.846,0.134,6.925,0.314c-0.1-1.524-0.336-2.974-0.688-4.308
	c-1.885,0.571-3.999,0.913-6.237,0.967V19.801z"/>
<path style="fill:none;" d="M9.928,13.029c0.229-0.324,0.469-0.639,0.723-0.943c2.747-3.296,6.87-5.403,11.479-5.431
	c0.018,0,0.035-0.001,0.052-0.001c0.004,0,0.009,0,0.014,0c0.007,0,0.015,0,0.022,0c4.645,0,8.804,2.114,11.568,5.43
	c0.254,0.306,0.493,0.62,0.723,0.945c1.638,2.311,2.632,5.104,2.744,8.118c1.275,0.247,2.333,0.491,3.145,0.7
	c-0.011-10.209-8.319-18.511-18.53-18.511c-10.052,0-18.242,8.049-18.506,18.038c0.875-0.167,2.172-0.392,3.836-0.618
	C7.379,17.892,8.361,15.24,9.928,13.029z"/>
<path style="fill:none;" d="M32.786,12.827c-1.64-1.946-3.804-3.443-6.277-4.254c1.405,1.342,2.573,3.315,3.373,5.689
	C30.968,13.861,31.947,13.378,32.786,12.827z"/>
<path style="fill:none;" d="M22.836,7.942v7.596c2.124-0.051,4.124-0.369,5.895-0.893C27.502,10.927,25.343,8.33,22.836,7.942z"/>
<path style="fill:none;" d="M17.817,34.812c-1.384-1.336-2.535-3.285-3.329-5.628c-1.059,0.396-2.013,0.872-2.836,1.41
	C13.267,32.514,15.389,33.992,17.817,34.812z"/>
<path style="fill:none;" d="M21.6,7.934c-2.534,0.348-4.72,2.95-5.961,6.693c1.787,0.535,3.812,0.86,5.961,0.911V7.934z"/>
<path style="fill:none;" d="M34.509,30.394c-0.23,0.325-0.469,0.641-0.723,0.944c-2.764,3.317-6.924,5.432-11.568,5.432
	c-0.008,0-0.015-0.002-0.022-0.002c-0.004,0-0.009,0.002-0.014,0.002c-0.017,0-0.034-0.002-0.052-0.002
	c-4.609-0.026-8.732-2.136-11.479-5.43c-0.253-0.305-0.494-0.621-0.723-0.944c-0.4-0.565-0.758-1.162-1.08-1.78
	c-1.79,0.23-3.141,0.462-3.977,0.62c2.855,6.563,9.395,11.166,16.996,11.166c7.432,0,13.839-4.408,16.789-10.738
	c-0.737-0.194-1.833-0.455-3.25-0.72C35.132,29.441,34.838,29.93,34.509,30.394z"/>
<path style="fill:none;" d="M8.446,20.597c1.428-0.175,3.075-0.342,4.923-0.479c0.105-1.671,0.369-3.262,0.77-4.725
	c-1.197-0.449-2.28-0.998-3.215-1.623C9.539,15.733,8.651,18.069,8.446,20.597z"/>
<path style="fill:none;" d="M21.6,16.774c-2.266-0.054-4.403-0.404-6.304-0.987c-0.347,1.315-0.585,2.742-0.688,4.245
	c2.107-0.133,4.446-0.221,6.993-0.233V16.774z"/>
<path style="fill:none;" d="M17.817,8.61c-2.428,0.819-4.552,2.297-6.169,4.216c0.824,0.54,1.78,1.019,2.842,1.414
	C15.283,11.897,16.433,9.947,17.817,8.61z"/>
<path style="fill:none;" d="M13.986,28.097c-1.401,0.104-2.679,0.227-3.813,0.355c0.232,0.412,0.479,0.815,0.75,1.2
	C11.816,29.056,12.852,28.535,13.986,28.097z"/>
<path style="fill:none;" d="M21.6,35.488v-7.604c-2.151,0.053-4.176,0.378-5.964,0.914C16.876,32.541,19.065,35.143,21.6,35.488z"/>
<g>
	<path d="M29.457,24.332l-1.684-0.107l-0.05,0.781l1.684,0.107c0.195,0.014,0.332-0.016,0.409-0.084
		c0.077-0.07,0.119-0.162,0.126-0.273c0.007-0.107-0.023-0.201-0.09-0.283C29.784,24.391,29.652,24.344,29.457,24.332z"/>
	<path d="M21.868,0C9.81,0,0,9.81,0,21.868s9.81,21.868,21.868,21.868c12.058,0,21.868-9.81,21.868-21.868S33.926,0,21.868,0z
		 M21.868,3.337c10.211,0,18.519,8.302,18.53,18.511c-0.812-0.209-1.87-0.453-3.145-0.7c-0.112-3.014-1.106-5.808-2.744-8.118
		c-0.23-0.325-0.469-0.64-0.723-0.945c-2.764-3.315-6.924-5.43-11.568-5.43c-0.008,0-0.015,0-0.022,0c-0.004,0-0.009,0-0.014,0
		c-0.017,0-0.034,0.001-0.052,0.001c-4.609,0.027-8.732,2.135-11.479,5.431c-0.253,0.305-0.494,0.619-0.723,0.943
		c-1.567,2.211-2.549,4.862-2.73,7.728c-1.664,0.227-2.96,0.451-3.836,0.618C3.626,11.386,11.816,3.337,21.868,3.337z
		 M15.639,14.627c1.242-3.743,3.427-6.346,5.961-6.693v7.604C19.451,15.487,17.426,15.162,15.639,14.627z M21.6,16.774v3.024
		c-2.546,0.013-4.886,0.101-6.993,0.233c0.103-1.503,0.342-2.93,0.688-4.245C17.197,16.37,19.334,16.721,21.6,16.774z M14.49,14.24
		c-1.062-0.396-2.018-0.874-2.842-1.414c1.617-1.919,3.741-3.396,6.169-4.216C16.433,9.947,15.283,11.897,14.49,14.24z
		 M14.139,15.394c-0.401,1.463-0.665,3.054-0.77,4.725c-1.848,0.137-3.495,0.304-4.923,0.479c0.205-2.527,1.093-4.863,2.477-6.826
		C11.859,14.396,12.941,14.944,14.139,15.394z M14.287,21.359l0.266,3.645l3.051-0.223l0.098,1.34l-5.02,0.366l-0.363-4.984
		L14.287,21.359z M13.986,28.097c-1.134,0.438-2.169,0.959-3.063,1.556c-0.271-0.385-0.518-0.788-0.75-1.2
		C11.307,28.323,12.585,28.201,13.986,28.097z M14.488,29.184c0.793,2.343,1.944,4.292,3.329,5.628
		c-2.428-0.819-4.55-2.298-6.165-4.218C12.475,30.056,13.429,29.58,14.488,29.184z M15.636,28.798
		c1.788-0.536,3.813-0.861,5.964-0.914v7.604C19.065,35.143,16.876,32.541,15.636,28.798z M21.45,26.222
		c-0.201,0-0.423-0.006-0.668-0.018c-0.245-0.012-0.495-0.044-0.749-0.098s-0.501-0.137-0.742-0.249
		c-0.241-0.111-0.453-0.267-0.637-0.465s-0.333-0.447-0.448-0.746c-0.115-0.298-0.172-0.665-0.172-1.099
		c0-0.43,0.057-0.795,0.172-1.096c0.114-0.301,0.263-0.551,0.448-0.749s0.396-0.354,0.637-0.465c0.24-0.112,0.487-0.195,0.742-0.249
		s0.504-0.086,0.749-0.098c0.245-0.012,0.468-0.018,0.668-0.018s0.424,0.006,0.668,0.018c0.245,0.012,0.495,0.044,0.749,0.098
		s0.502,0.137,0.742,0.249c0.24,0.111,0.453,0.267,0.637,0.465c0.184,0.198,0.333,0.448,0.448,0.749s0.171,0.666,0.171,1.096
		s-0.057,0.795-0.171,1.096s-0.264,0.551-0.448,0.749c-0.185,0.198-0.397,0.354-0.637,0.465c-0.24,0.112-0.488,0.195-0.742,0.249
		s-0.504,0.086-0.749,0.098C21.874,26.216,21.65,26.222,21.45,26.222z M28.73,14.646c-1.771,0.523-3.771,0.842-5.895,0.893V7.942
		C25.343,8.33,27.502,10.927,28.73,14.646z M26.509,8.573c2.474,0.811,4.638,2.308,6.277,4.254
		c-0.839,0.551-1.818,1.034-2.905,1.436C29.082,11.889,27.914,9.915,26.509,8.573z M29.073,15.808
		c0.351,1.334,0.588,2.783,0.688,4.308c-2.079-0.181-4.398-0.298-6.925-0.314v-3.026C25.075,16.721,27.188,16.379,29.073,15.808z
		 M22.836,27.884c2.125,0.053,4.125,0.369,5.897,0.895c-1.228,3.719-3.39,6.313-5.897,6.701V27.884z M29.884,29.158
		c1.084,0.404,2.062,0.887,2.9,1.436c-1.64,1.949-3.801,3.443-6.275,4.256C27.914,33.507,29.084,31.535,29.884,29.158z
		 M30.833,28.266c1.208,0.136,2.303,0.29,3.281,0.45c-0.189,0.32-0.387,0.635-0.601,0.938
		C32.725,29.125,31.811,28.671,30.833,28.266z M31.898,25.537c-0.078,0.193-0.199,0.355-0.361,0.488
		c-0.163,0.133-0.371,0.229-0.625,0.291c-0.254,0.061-0.563,0.078-0.927,0.055L25.717,26.1l0.319-4.988l4.485,0.287
		c0.517,0.033,0.885,0.162,1.104,0.389c0.219,0.229,0.316,0.543,0.29,0.949c-0.015,0.223-0.077,0.42-0.188,0.586
		c-0.112,0.17-0.267,0.285-0.468,0.346l0,0.016c0.155,0.053,0.285,0.125,0.389,0.221c0.104,0.096,0.186,0.201,0.246,0.314
		c0.061,0.113,0.102,0.229,0.122,0.344c0.021,0.115,0.028,0.219,0.022,0.313C32.022,25.123,31.975,25.344,31.898,25.537z M31,20.233
		c-0.1-1.703-0.361-3.326-0.767-4.816c1.223-0.453,2.327-1.008,3.279-1.646c1.442,2.046,2.34,4.497,2.492,7.147
		C34.559,20.668,32.89,20.428,31,20.233z M4.821,24.124c0.05-0.285,0.139-0.539,0.266-0.762c0.128-0.222,0.285-0.413,0.474-0.572
		c0.189-0.16,0.397-0.297,0.627-0.408c0.229-0.111,0.469-0.202,0.72-0.272s0.501-0.124,0.751-0.161
		c0.545-0.081,1.024-0.114,1.439-0.098s0.771,0.08,1.068,0.191c0.298,0.112,0.539,0.273,0.724,0.487
		c0.186,0.214,0.319,0.476,0.404,0.79l-2.202,0.326c-0.047-0.125-0.109-0.223-0.188-0.294c-0.078-0.07-0.168-0.122-0.268-0.155
		c-0.099-0.032-0.205-0.048-0.318-0.048s-0.234,0.011-0.364,0.029c-0.202,0.03-0.38,0.082-0.531,0.157
		c-0.152,0.074-0.276,0.176-0.372,0.306c-0.097,0.131-0.161,0.289-0.194,0.476c-0.034,0.187-0.032,0.404,0.005,0.653
		c0.138,0.932,0.692,1.327,1.661,1.183c0.318-0.047,0.555-0.138,0.709-0.274c0.155-0.137,0.252-0.306,0.293-0.511L8.72,25.286
		l-0.167-1.121l2.777-0.412l0.418,2.817l-0.838,0.124l-0.288-0.417c-0.108,0.13-0.23,0.246-0.366,0.349s-0.29,0.19-0.462,0.267
		c-0.173,0.074-0.37,0.141-0.591,0.197c-0.221,0.056-0.472,0.104-0.753,0.146c-0.226,0.034-0.466,0.058-0.718,0.072
		c-0.253,0.014-0.504,0.004-0.755-0.03c-0.25-0.033-0.493-0.095-0.728-0.183c-0.234-0.086-0.447-0.217-0.638-0.385
		c-0.19-0.171-0.354-0.388-0.493-0.649c-0.138-0.263-0.235-0.586-0.292-0.968C4.773,24.733,4.771,24.41,4.821,24.124z
		 M21.868,40.399c-7.602,0-14.141-4.604-16.996-11.166c0.835-0.158,2.187-0.39,3.977-0.62c0.321,0.618,0.679,1.215,1.08,1.78
		c0.229,0.323,0.469,0.64,0.723,0.944c2.747,3.294,6.87,5.403,11.479,5.43c0.018,0,0.035,0.002,0.052,0.002
		c0.004,0,0.009-0.002,0.014-0.002c0.007,0,0.015,0.002,0.022,0.002c4.645,0,8.804-2.114,11.568-5.432
		c0.254-0.304,0.493-0.619,0.723-0.944c0.329-0.464,0.623-0.952,0.898-1.452c1.417,0.265,2.513,0.525,3.25,0.72
		C35.707,35.991,29.3,40.399,21.868,40.399z M38.757,23.721l-3.314-0.409l-0.083,0.667l3.078,0.38l-0.149,1.21l-3.078-0.38
		l-0.083,0.667l3.314,0.409l-0.149,1.208l-5.273-0.651l0.613-4.96l5.273,0.651L38.757,23.721z"/>
	<path d="M29.733,23.123c0.067-0.057,0.104-0.135,0.11-0.232c0.006-0.094-0.021-0.17-0.08-0.232s-0.189-0.1-0.389-0.113
		l-1.488-0.096l-0.041,0.643l1.488,0.096C29.533,23.201,29.667,23.178,29.733,23.123z"/>
	<path d="M22.675,24.195c0.061-0.18,0.091-0.396,0.091-0.647s-0.031-0.468-0.091-0.647s-0.148-0.326-0.262-0.441
		c-0.115-0.114-0.253-0.196-0.417-0.248c-0.164-0.052-0.346-0.077-0.546-0.077c-0.205,0-0.388,0.025-0.549,0.077
		s-0.299,0.134-0.413,0.248c-0.114,0.115-0.202,0.262-0.262,0.441c-0.061,0.18-0.091,0.396-0.091,0.647s0.03,0.468,0.091,0.647
		c0.061,0.18,0.148,0.327,0.262,0.441s0.252,0.197,0.413,0.248c0.161,0.052,0.344,0.077,0.549,0.077
		c0.201,0,0.383-0.025,0.546-0.077c0.163-0.051,0.302-0.134,0.417-0.248C22.527,24.522,22.614,24.375,22.675,24.195z"/>
</g>
<g>
</g>
<g>
</g>
<g>
</g>
<g>
</g>
<g>
</g>
<g>
</g>
<g>
</g>
<g>
</g>
<g>
</g>
<g>
</g>
<g>
</g>
<g>
</g>
<g>
</g>
<g>
</g>
<g>
</g>
</svg>
