<?xml version="1.0" encoding="iso-8859-1"?>
<!-- Generator: Adobe Illustrator 16.0.0, SVG Export Plug-In . SVG Version: 6.00 Build 0)  -->
<!DOCTYPE svg PUBLIC "-//W3C//DTD SVG 1.1//EN" "http://www.w3.org/Graphics/SVG/1.1/DTD/svg11.dtd">
<svg version="1.1" id="Layer_1" xmlns="http://www.w3.org/2000/svg" xmlns:xlink="http://www.w3.org/1999/xlink" x="0px" y="0px"
	 width="44.867px" height="40.873px" viewBox="0 0 44.867 40.873" style="enable-background:new 0 0 44.867 40.873;"
	 xml:space="preserve">
<g>
	<path d="M-179.359-126.651c0-10.475-8.521-18.997-18.997-18.997c-0.401,0-0.798,0.017-1.192,0.041v2.406
		c0.395-0.028,0.789-0.061,1.192-0.061c9.159,0,16.61,7.452,16.61,16.611c0,9.159-7.451,16.61-16.61,16.61
		c-0.269,0-0.53-0.027-0.795-0.04v0.897v1.509v4.722h-5.899v3.182h13.389v-3.182h-5.103v-4.774
		C-187.032-108.538-179.359-116.712-179.359-126.651z"/>
	<path d="M-201.31-111.415c0.61,0.076,1.231,0.119,1.862,0.119c0.631,0,1.252-0.043,1.863-0.12c1.755-0.975,3.279-3.282,4.289-6.341
		c-1.896,0.383-3.968,0.594-6.152,0.594c-2.184,0-4.255-0.211-6.151-0.594C-204.59-114.697-203.066-112.39-201.31-111.415z"/>
	<path d="M-207.459-119.57c-0.46-2.048-0.716-4.318-0.716-6.726c0-2.071,0.189-4.042,0.535-5.856
		c-3.284,1.022-5.758,2.625-6.742,4.483c-0.041,0.453-0.065,0.91-0.065,1.374c0,0.821,0.069,1.626,0.195,2.412
		C-213.172-122.089-210.698-120.549-207.459-119.57z"/>
	<path d="M-199.448-134.617c2.286,0,4.45,0.23,6.416,0.647c-0.997-3.485-2.636-6.141-4.553-7.206
		c-0.611-0.076-1.232-0.12-1.863-0.12c-0.631,0-1.251,0.043-1.862,0.119c-1.917,1.065-3.557,3.721-4.553,7.207
		C-203.897-134.387-201.734-134.617-199.448-134.617z"/>
	<path d="M-192.878-119.184c0.556-2.142,0.875-4.566,0.875-7.112c0-2.21-0.241-4.327-0.667-6.249
		c-2.059-0.503-4.363-0.79-6.777-0.79s-4.718,0.287-6.776,0.789c-0.427,1.922-0.668,4.039-0.668,6.249
		c0,2.547,0.319,4.971,0.875,7.112c2.005,0.472,4.236,0.738,6.569,0.738S-194.883-118.712-192.878-119.184z"/>
	<path d="M-184.448-126.295c0-0.463-0.024-0.921-0.065-1.374c-0.984-1.857-3.458-3.46-6.742-4.482
		c0.346,1.814,0.535,3.785,0.535,5.855c0,2.407-0.256,4.678-0.716,6.726c3.238-0.979,5.713-2.519,6.792-4.313
		C-184.517-124.669-184.448-125.474-184.448-126.295z"/>
	<path d="M-185.35-121.163c-1.58,1.305-3.807,2.363-6.464,3.063c-0.729,2.517-1.788,4.617-3.074,6.096
		C-190.464-113.414-186.932-116.819-185.35-121.163z"/>
	<path d="M-207.082-118.099c-2.657-0.7-4.884-1.758-6.464-3.063c1.582,4.344,5.115,7.75,9.539,9.159
		C-205.294-113.482-206.353-115.583-207.082-118.099z"/>
	<path d="M-194.887-140.587c1.433,1.648,2.585,4.063,3.311,6.971c2.756,0.755,5.031,1.901,6.581,3.306
		C-186.347-135.183-190.092-139.058-194.887-140.587z"/>
	<path d="M-204.008-140.587c-4.795,1.529-8.541,5.404-9.892,10.276c1.549-1.405,3.825-2.551,6.581-3.306
		C-206.593-136.524-205.441-138.94-204.008-140.587z"/>
</g>
<g>
</g>
<g>
</g>
<g>
</g>
<g>
</g>
<g>
</g>
<g>
</g>
<g>
</g>
<g>
</g>
<g>
</g>
<g>
</g>
<g>
</g>
<g>
</g>
<g>
</g>
<g>
</g>
<g>
</g>
</svg>
