<?xml version="1.0" encoding="iso-8859-1"?>
<!-- Generator: Adobe Illustrator 16.0.0, SVG Export Plug-In . SVG Version: 6.00 Build 0)  -->
<!DOCTYPE svg PUBLIC "-//W3C//DTD SVG 1.1//EN" "http://www.w3.org/Graphics/SVG/1.1/DTD/svg11.dtd">
<svg version="1.1" id="Layer_1" xmlns="http://www.w3.org/2000/svg" xmlns:xlink="http://www.w3.org/1999/xlink" x="0px" y="0px"
	 width="47.987px" height="42.418px" viewBox="0 0 47.987 42.418" style="enable-background:new 0 0 47.987 42.418;"
	 xml:space="preserve">
<g>
	<path d="M35.551-57.544c0-2.371-0.753-4.567-2.03-6.37c-0.168-0.237-0.344-0.47-0.53-0.692c-2.028-2.434-5.08-3.985-8.488-3.985
		c-0.005,0-0.011,0-0.016,0c-0.003,0-0.006,0-0.01,0c-0.013,0-0.025,0.001-0.038,0.001c-3.382,0.021-6.408,1.567-8.423,3.984
		c-0.186,0.224-0.361,0.455-0.53,0.692c-1.276,1.803-2.03,3.998-2.03,6.37c0,2.371,0.754,4.569,2.03,6.371
		c0.168,0.237,0.344,0.468,0.53,0.692c2.016,2.417,5.041,3.964,8.423,3.983c0.013,0,0.024,0.002,0.038,0.002
		c0.003,0,0.006-0.002,0.01-0.002c0.005,0,0.011,0.002,0.016,0.002c3.408,0,6.46-1.552,8.488-3.985
		c0.186-0.224,0.362-0.455,0.53-0.692C34.798-52.975,35.551-55.173,35.551-57.544z M21.274-67.155
		c-1.016,0.98-1.859,2.412-2.441,4.13c-0.779-0.291-1.48-0.642-2.084-1.037C17.934-65.472,19.493-66.554,21.274-67.155z
		 M16.217-63.37c0.686,0.46,1.48,0.861,2.359,1.191c-0.379,1.384-0.597,2.92-0.605,4.542h-3.606
		C14.384-59.77,15.07-61.744,16.217-63.37z M14.398-56.73h3.591c0.059,1.357,0.265,2.646,0.586,3.823
		c-0.878,0.33-1.673,0.73-2.358,1.189C15.2-53.16,14.546-54.873,14.398-56.73z M16.751-51.026c0.604-0.396,1.304-0.744,2.081-1.036
		c0.582,1.72,1.426,3.15,2.442,4.13C19.493-48.532,17.937-49.619,16.751-51.026z M24.05-47.436
		c-1.859-0.255-3.465-2.162-4.375-4.909c1.312-0.395,2.798-0.632,4.375-0.671V-47.436z M24.05-53.922
		c-1.664,0.04-3.233,0.298-4.63,0.727c-0.286-1.087-0.469-2.278-0.524-3.535h5.154V-53.922z M24.05-57.637h-5.172
		c0.007-1.524,0.207-2.962,0.547-4.254c1.396,0.428,2.963,0.685,4.625,0.725V-57.637z M24.05-62.073
		c-1.577-0.037-3.063-0.275-4.373-0.669c0.911-2.745,2.515-4.655,4.373-4.911V-62.073z M34.643-57.637h-3.659
		c-0.008-1.615-0.224-3.145-0.6-4.524c0.897-0.334,1.707-0.741,2.407-1.209C33.936-61.743,34.623-59.77,34.643-57.637z
		 M32.258-64.063c-0.617,0.404-1.333,0.76-2.131,1.055c-0.587-1.742-1.443-3.191-2.475-4.175
		C29.467-66.589,31.054-65.491,32.258-64.063z M24.957-67.646c1.84,0.284,3.424,2.189,4.325,4.917
		c-1.299,0.386-2.767,0.619-4.325,0.655V-67.646z M24.957-61.166c1.642-0.039,3.193-0.292,4.577-0.711
		c0.338,1.29,0.535,2.724,0.543,4.24h-5.12V-61.166z M24.957-56.73h5.101c-0.055,1.251-0.238,2.437-0.521,3.52
		c-1.384-0.42-2.937-0.672-4.58-0.711V-56.73z M24.957-47.442v-5.573c1.559,0.039,3.027,0.271,4.327,0.656
		C28.383-49.63,26.797-47.727,24.957-47.442z M27.652-47.905c1.032-0.982,1.889-2.431,2.476-4.173
		c0.797,0.293,1.513,0.648,2.128,1.052C31.052-49.597,29.467-48.5,27.652-47.905z M32.791-51.717
		c-0.699-0.467-1.509-0.876-2.408-1.209c0.319-1.174,0.523-2.454,0.581-3.805h3.645C34.461-54.873,33.808-53.158,32.791-51.717z"/>
	<path d="M35.92-44.364l-0.491,0.496l1.067,1.056c0.124,0.123,0.232,0.183,0.324,0.181c0.092-0.001,0.174-0.038,0.245-0.108
		c0.067-0.068,0.101-0.149,0.104-0.243c0.003-0.094-0.058-0.202-0.182-0.324L35.92-44.364z"/>
	<path d="M38.171-44.253c-0.003-0.076-0.068-0.177-0.195-0.303l-0.943-0.934l-0.403,0.408l0.943,0.934
		c0.127,0.125,0.229,0.188,0.307,0.189s0.147-0.03,0.208-0.092C38.147-44.108,38.175-44.176,38.171-44.253z"/>
	<path d="M37.616-50.784c1.018-1.997,1.604-4.251,1.604-6.643c0-8.103-6.592-14.695-14.695-14.695c-2.206,0-4.292,0.503-6.171,1.377
		L6.934-82.002l-7.575,7.684L10.91-62.931c-0.69,1.702-1.08,3.558-1.08,5.504c0,8.103,6.592,14.694,14.695,14.694
		c1.752,0,3.426-0.324,4.985-0.889l11.753,11.586l7.575-7.686L37.616-50.784z M7.168-71.398l0.143-0.428
		c-0.15-0.008-0.297-0.033-0.442-0.074c-0.147-0.043-0.291-0.104-0.437-0.188c-0.146-0.082-0.298-0.188-0.456-0.314
		c-0.158-0.127-0.327-0.279-0.507-0.457c-0.145-0.145-0.29-0.301-0.434-0.475c-0.145-0.172-0.273-0.355-0.382-0.553
		c-0.109-0.195-0.195-0.4-0.258-0.615c-0.063-0.213-0.084-0.434-0.065-0.66s0.085-0.457,0.199-0.695
		c0.113-0.24,0.291-0.48,0.534-0.727c0.228-0.23,0.456-0.404,0.686-0.521s0.458-0.189,0.683-0.217
		c0.227-0.027,0.447-0.018,0.662,0.031c0.214,0.049,0.423,0.125,0.625,0.229s0.395,0.225,0.58,0.367
		c0.184,0.141,0.355,0.291,0.515,0.447c0.349,0.346,0.627,0.67,0.838,0.975c0.209,0.305,0.354,0.592,0.434,0.861
		c0.079,0.271,0.092,0.531,0.039,0.775c-0.053,0.246-0.168,0.482-0.346,0.709L8.368-74.32c0.064-0.1,0.1-0.197,0.108-0.291
		c0.008-0.094-0.002-0.186-0.033-0.273c-0.029-0.088-0.074-0.172-0.135-0.252s-0.132-0.162-0.215-0.244
		c-0.13-0.127-0.261-0.227-0.396-0.295c-0.134-0.068-0.272-0.102-0.416-0.102c-0.144,0.002-0.292,0.039-0.442,0.115
		c-0.152,0.076-0.305,0.193-0.463,0.354c-0.59,0.596-0.575,1.201,0.045,1.814c0.204,0.201,0.395,0.32,0.574,0.357
		c0.181,0.037,0.353,0.016,0.52-0.064l-0.514-0.508l0.709-0.719l1.776,1.758l-1.783,1.803L7.168-71.398z M8.274-70.303l3.127-3.162
		l1.249,1.234l-2.286,2.313l1.936,1.914l-0.841,0.85L8.274-70.303z M24.525-44.732c-7,0-12.695-5.694-12.695-12.694
		s5.695-12.695,12.695-12.695s12.695,5.695,12.695,12.695S31.525-44.732,24.525-44.732z M36.806-41.127
		c-0.206-0.107-0.425-0.275-0.655-0.503l-2.705-2.677l3.128-3.161l2.843,2.812c0.327,0.324,0.499,0.627,0.513,0.907
		c0.015,0.28-0.104,0.55-0.358,0.807c-0.14,0.142-0.297,0.235-0.47,0.283s-0.345,0.035-0.516-0.041l-0.009,0.009
		c0.074,0.126,0.118,0.251,0.132,0.376c0.014,0.125,0.007,0.243-0.019,0.355c-0.025,0.111-0.065,0.212-0.119,0.302
		c-0.054,0.09-0.109,0.165-0.167,0.224c-0.155,0.156-0.316,0.276-0.481,0.361s-0.341,0.123-0.528,0.117
		C37.208-40.963,37.011-41.02,36.806-41.127z M43.028-38.717l-0.762,0.771l-1.961-1.939l-0.42,0.425l2.112,2.089l-0.762,0.771
		l-3.361-3.324l3.128-3.162l3.361,3.324L43.6-38.993l-2.112-2.089l-0.421,0.426L43.028-38.717z"/>
</g>
<g>
</g>
<g>
</g>
<g>
</g>
<g>
</g>
<g>
</g>
<g>
</g>
<g>
</g>
<g>
</g>
<g>
</g>
<g>
</g>
<g>
</g>
<g>
</g>
<g>
</g>
<g>
</g>
<g>
</g>
</svg>
