<?xml version="1.0" encoding="iso-8859-1"?>
<!-- Generator: Adobe Illustrator 16.0.0, SVG Export Plug-In . SVG Version: 6.00 Build 0)  -->
<!DOCTYPE svg PUBLIC "-//W3C//DTD SVG 1.1//EN" "http://www.w3.org/Graphics/SVG/1.1/DTD/svg11.dtd">
<svg version="1.1" id="Layer_1" xmlns="http://www.w3.org/2000/svg" xmlns:xlink="http://www.w3.org/1999/xlink" x="0px" y="0px"
	 width="43.736px" height="43.736px" viewBox="0 0 43.736 43.736" style="enable-background:new 0 0 43.736 43.736;"
	 xml:space="preserve">
<g>
	<path d="M110.553,18.398c-0.207-0.292-0.421-0.575-0.65-0.85c-2.485-2.981-6.225-4.882-10.4-4.882c-0.007,0-0.014,0-0.02,0
		c-0.004,0-0.008,0-0.012,0c-0.016,0-0.031,0.001-0.047,0.001c-4.144,0.024-7.851,1.919-10.32,4.882
		c-0.228,0.274-0.444,0.558-0.649,0.849c-1.564,2.207-2.488,4.899-2.488,7.806c0,2.905,0.924,5.597,2.488,7.806
		c0.206,0.29,0.422,0.574,0.649,0.849c2.47,2.961,6.176,4.857,10.32,4.881c0.016,0,0.031,0.002,0.047,0.002
		c0.004,0,0.008-0.002,0.012-0.002c0.006,0,0.013,0.002,0.02,0.002c4.176,0,7.916-1.9,10.4-4.883
		c0.229-0.273,0.443-0.558,0.65-0.849c1.564-2.209,2.488-4.9,2.488-7.806S112.117,20.605,110.553,18.398z M95.546,14.426
		c-1.245,1.201-2.278,2.955-2.991,5.062c-0.954-0.356-1.814-0.786-2.555-1.271C91.454,16.491,93.363,15.163,95.546,14.426z
		 M89.349,19.065c0.841,0.562,1.814,1.055,2.891,1.458c-0.464,1.696-0.731,3.579-0.741,5.566h-4.419
		C87.103,23.477,87.944,21.058,89.349,19.065z M87.12,27.2h4.401c0.071,1.663,0.323,3.241,0.718,4.685
		c-1.076,0.404-2.05,0.896-2.89,1.458C88.103,31.576,87.302,29.477,87.12,27.2z M90.004,34.189c0.74-0.484,1.598-0.911,2.55-1.269
		c0.713,2.106,1.748,3.859,2.992,5.061C93.363,37.245,91.456,35.915,90.004,34.189z M98.947,38.59
		c-2.279-0.312-4.247-2.65-5.362-6.016c1.607-0.481,3.428-0.774,5.362-0.821V38.59z M98.947,30.643
		c-2.039,0.048-3.961,0.364-5.673,0.889c-0.351-1.33-0.575-2.792-0.643-4.331h6.316V30.643z M98.947,26.09h-6.338
		c0.009-1.866,0.253-3.629,0.67-5.212c1.709,0.523,3.631,0.839,5.667,0.888V26.09z M98.947,20.654
		c-1.932-0.046-3.752-0.339-5.359-0.819c1.116-3.365,3.081-5.705,5.359-6.018V20.654z M111.926,26.09h-4.483
		c-0.01-1.979-0.274-3.854-0.734-5.545c1.1-0.407,2.092-0.906,2.948-1.479C111.062,21.059,111.902,23.477,111.926,26.09z
		 M109.004,18.217c-0.755,0.495-1.634,0.93-2.611,1.291c-0.719-2.135-1.769-3.909-3.032-5.115
		C105.584,15.121,107.53,16.467,109.004,18.217z M100.058,13.825c2.254,0.349,4.196,2.684,5.299,6.026
		c-1.592,0.471-3.39,0.757-5.299,0.803V13.825z M100.058,21.766c2.013-0.049,3.914-0.356,5.608-0.869
		c0.415,1.578,0.656,3.335,0.666,5.193h-6.274V21.766z M100.058,27.2h6.251c-0.067,1.534-0.291,2.986-0.639,4.313
		c-1.696-0.513-3.597-0.823-5.612-0.87V27.2z M100.058,38.582v-6.829c1.911,0.047,3.709,0.332,5.302,0.804
		C104.257,35.9,102.313,38.233,100.058,38.582z M103.36,38.015c1.264-1.206,2.315-2.979,3.034-5.115
		c0.975,0.362,1.854,0.796,2.607,1.29C107.527,35.941,105.584,37.285,103.36,38.015z M109.658,33.344
		c-0.856-0.574-1.85-1.072-2.95-1.482c0.391-1.437,0.641-3.007,0.712-4.661h4.466C111.705,29.477,110.903,31.577,109.658,33.344z"/>
	<path d="M112.188,11.635V5.279h2.208l-4.195-7.745l-4.196,7.745h2.209v3.618c-1.933-1.004-4.053-1.687-6.293-2V2.436h2.208
		l-4.195-7.744l-4.196,7.744h2.209v4.312c-2.696,0.17-5.243,0.88-7.538,2.032v-3.5h2.208l-4.195-7.745l-4.196,7.745h2.209v6.132
		c-4.219,3.608-6.907,8.959-6.907,14.934c0,10.841,8.819,19.66,19.66,19.66c10.84,0,19.66-8.819,19.66-19.66
		C118.848,20.49,116.262,15.239,112.188,11.635z M99.188,43.005c-9.187,0-16.66-7.474-16.66-16.66s7.474-16.66,16.66-16.66
		c9.186,0,16.66,7.474,16.66,16.66S108.375,43.005,99.188,43.005z"/>
</g>
<g>
</g>
<g>
</g>
<g>
</g>
<g>
</g>
<g>
</g>
<g>
</g>
<g>
</g>
<g>
</g>
<g>
</g>
<g>
</g>
<g>
</g>
<g>
</g>
<g>
</g>
<g>
</g>
<g>
</g>
</svg>
