<?xml version="1.0" encoding="iso-8859-1"?>
<!-- Generator: Adobe Illustrator 16.0.0, SVG Export Plug-In . SVG Version: 6.00 Build 0)  -->
<!DOCTYPE svg PUBLIC "-//W3C//DTD SVG 1.1//EN" "http://www.w3.org/Graphics/SVG/1.1/DTD/svg11.dtd">
<svg version="1.1" id="Layer_1" xmlns="http://www.w3.org/2000/svg" xmlns:xlink="http://www.w3.org/1999/xlink" x="0px" y="0px"
	 width="44.867px" height="40.873px" viewBox="0 0 44.867 40.873" style="enable-background:new 0 0 44.867 40.873;"
	 xml:space="preserve">
<g>
	<path d="M41.706-51.985c0-10.475-8.521-18.997-18.997-18.997c-0.401,0-0.798,0.017-1.192,0.041v2.406
		c0.395-0.028,0.789-0.061,1.192-0.061c9.159,0,16.61,7.452,16.61,16.611c0,9.159-7.451,16.61-16.61,16.61
		c-0.269,0-0.53-0.027-0.795-0.04v0.897v1.509v4.722h-5.899v3.182h13.389v-3.182h-5.103v-4.774
		C34.033-33.872,41.706-42.047,41.706-51.985z"/>
	<g>
		<path style="fill:none;" d="M7.466-58.106v0.468c0.166-0.382,0.349-0.754,0.543-1.119L7.466-58.106z"/>
		<path style="fill:none;" d="M6.495-54.408c-0.154,0.858-0.24,1.739-0.24,2.639c0,0.026,0.002,0.053,0.002,0.08
			c0.006-0.923,0.097-1.826,0.263-2.704L6.495-54.408z"/>
		<path style="fill:none;" d="M7.466-57.508v-0.131c-0.355,0.824-0.635,1.687-0.837,2.578l0.035-0.007
			C6.864-55.91,7.131-56.727,7.466-57.508z"/>
		<path style="fill:none;" d="M8.624-59.683l-0.009-0.103c-0.216,0.334-0.418,0.677-0.606,1.029l0.203-0.244
			C8.344-59.232,8.481-59.459,8.624-59.683z"/>
		<path style="fill:none;" d="M23.279-66.644c-0.607-0.074-1.222-0.125-1.85-0.125c-3.329,0-6.41,1.069-8.915,2.873l0.129-0.001
			c2.515-1.787,5.597-2.843,8.93-2.843C22.151-66.739,22.72-66.705,23.279-66.644z"/>
		<polygon points="16.868,-59.181 16.731,-59.038 16.915,-58.887 17.101,-59.038 		"/>
		<path d="M8.64-59.514l-0.016-0.169c-0.143,0.224-0.28,0.451-0.412,0.682L8.64-59.514z"/>
		<polygon points="13.416,-63.042 13.416,-63.276 12.873,-63.276 12.844,-63.163 12.513,-63.163 12.513,-63.135 12.513,-62.836 
			13.26,-62.836 		"/>
		<path d="M36.147-55.161l0.107,0.199c-0.019-0.085-0.039-0.17-0.06-0.254L36.147-55.161z"/>
		<path d="M15.928-58.638l0.283-0.053l0.227-0.144v-0.299h-0.51C15.928-59.087,15.928-58.638,15.928-58.638z"/>
		<path d="M35.3-57.841c-0.111-0.248-0.229-0.494-0.355-0.735L34.85-58.47v0.663l0.294-0.04L35.3-57.841z"/>
		<path d="M13.403-62.135c0,0,0.027-0.328,0-0.328c-0.028,0-0.36,0.056-0.36,0.056l-0.53,0.15l0.143,0.168L13.403-62.135z"/>
		<path d="M32.913-60.77l0.298-0.439c-0.239-0.29-0.489-0.571-0.749-0.843l-0.002,0.73l-0.652,0.327l0.064,0.215L32.913-60.77z"/>
		<polygon points="14.67,-60.789 14.311,-60.874 13.913,-60.687 14.158,-60.19 14.546,-60.312 		"/>
		<polygon points="16.183,-59.612 16.183,-59.256 16.495,-59.33 		"/>
		<polygon points="15.294,-59.742 14.858,-59.564 14.773,-59.349 15.114,-59.256 16.021,-59.256 16.021,-59.564 15.89,-59.564 
			15.89,-59.742 		"/>
		<path d="M34.786-57.171l-0.397-0.431l-0.075-0.691l-0.406,0.219l-0.219,0.846l-0.586-0.617l-0.024-0.584l-0.566-0.481
			l-0.209-0.206h-0.657l0.208,0.579l0.79,0.435l0.137,0.145l-0.17,0.085l0.007,0.458l-0.386,0.159l-0.327-0.072l-0.206-0.288
			l0.533,0.029l0.145-0.192l-1.184-0.79l-0.09-0.337l-0.482,0.43l-0.488-0.099L29.39-57.62l-0.146,0.375l-0.476,0.042l-0.703,0.004
			l-0.42-0.194l-0.123-0.826l0.15-0.392l0.716-0.156l0.779,0.156l0.095-0.427l-0.331-0.078l0.114-0.664l0.784-0.121l0.549-0.767
			l0.566-0.094l0.512,0.075h0.188l-0.104-0.72l-0.621,0.248l-0.219-0.538l-0.361-0.049l-0.067-0.369l0.295-0.317l0.699-0.271
			l0.181-0.318c-1.988-1.732-4.437-2.957-7.138-3.473c-0.062-0.011-0.122-0.022-0.184-0.033c-0.278-0.05-0.563-0.083-0.848-0.118
			c-0.56-0.061-1.128-0.096-1.706-0.096c-3.333,0-6.415,1.056-8.93,2.843l0.636-0.005l0.341,0.187l0.643,0.136l0.051,0.25
			l1.021,0.037l-0.139-0.324l-0.907-0.025l0.214-0.2l-0.075-0.236h-0.82l0.896-0.661h0.857l0.403,0.549l0.669,0.037l0.402-0.387
			l0.303,0.15l-0.555,0.536c0,0-0.769,0.012-0.731,0.012c0.038,0,0.064,0.523,0.064,0.523l0.932-0.025l0.101-0.249l0.644-0.038
			l0.075-0.373l-0.377-0.063l0.126-0.336l0.289-0.087l1.009,0.05l-0.556,0.499l0.09,0.386l0.58,0.087l-0.038-0.697l0.555-0.287
			l0.984-0.112l1.425,0.624v0.536l0.454,0.112l-0.228,0.424h-0.643l-0.19,0.486l-1.471-0.342l1.155-0.608l-0.44-0.37l-0.995,0.124
			l-0.089,0.089l-0.003-0.001l-0.016,0.021l-0.287,0.294l-0.474,0.04l0.038,0.234l0.165,0.067l-0.006,0.078l-0.386,0.054
			l-0.028,0.221l-0.369,0.019l-0.066-0.439l-0.662,0.199l-1.352,0.783l0.15,0.551l0.378,0.244l0.757,0.103v0.85l0.35-0.056
			l0.322-0.664l0.805-0.252v-1.02l0.447-0.333l1.081,0.252l-0.076,0.673h0.29l0.795-0.386l0.038,0.884l0.579,0.349L21.754-60.2
			l-0.555,0.187l0.038,0.173l0.667,0.301l-0.012,0.361l-0.194,0.017c0-0.006-0.002-0.01-0.002-0.01l-0.844-0.257l-0.035-0.268
			h-0.001l0.246-0.167v-0.244l-0.265-0.065l-0.065,0.225l-0.466,0.071l-0.046-0.016v0.023l-0.161,0.024l-0.131-0.262l-0.152-0.065
			h-0.331l-0.15,0.121v0.271l0.283,0.093l0.28,0.039l-0.063,0.028l-0.256,0.279l-0.111-0.14l-0.248-0.064l-0.672,0.625l0.089,0.071
			l-0.993,0.542l-0.934,0.96l-0.063,0.427l-0.935,0.608l-0.465,0.461l0.052,0.922l-0.644-0.296l0.005-0.54l-1.79,0l-0.927,0.464
			l-0.402,0.733l-0.16,0.582l0.261,0.564l0.73,0.087l1.161-0.767l0.101,0.38l-0.354,0.662l0.884,0.148l0.088,1.348l0.111,0.019
			c-0.001-0.001-0.001-0.002-0.001-0.002l0.012,0.004l1.089,0.183l0.769-0.879l0.934,0.188l0.327,0.451l0.896-0.053l0.024-0.261
			l0.493,0.236l0.555,0.859l0.958,0.014l0.354,0.611l0.05,0.747l1.061,0.399l1.336,0.013l0.392,0.634l0.592,0.188l-0.112,0.524
			l-0.65,0.815l-0.189,1.805l-0.587,0.459l-0.869-0.026l-0.291,0.498l0.216,0.936l-0.946,1.196l-0.304,0.549l-0.901,0.429
			l-0.592,0.089l-0.025,0.249l0.416,0.118l-0.05,0.268l-0.373,0.355l0.227,0.281l0.448,0.013l-0.025,0.343l-0.119,0.336
			l-0.037,0.274l0.663,0.552l-0.089,0.287l-0.903-0.017l-0.898-0.776l-0.7-1.216l0.099-1.174l-0.53-0.698l0.214-1.183l-0.313-0.088
			v-2.567c0,0-0.884-0.662-0.934-0.662c-0.051,0-0.467-0.111-0.467-0.111l-0.088-0.486l-1.148-1.421l0.113-0.511l0.038-0.835
			l0.794-0.549l-0.112-0.935l-1.16-0.086l-0.908-1.022l-0.644-0.174l-0.416-0.076l0.051-0.374l-0.53-0.075v0.212l-1.324-0.324
			l-0.533-0.806l0.185-0.331l-0.219-0.002l-0.063-0.21l0.155-0.078l-0.679-0.979l-0.145-0.885H8.563l0.114,0.86l0.58,0.885
			l-0.063,0.35l-0.492-0.075l-0.604-1.02v-1.186l-0.631-0.3v-0.723c-0.335,0.781-0.602,1.598-0.802,2.439l0.208-0.042l0.123,0.585
			l0.26,0.415l0.173,0.196l0.313,0.121l-0.296,0.348L6.872-53.39H6.44l0.049-0.506l0.358-0.074l-0.031-0.237L6.52-54.393
			c-0.166,0.877-0.257,1.78-0.263,2.704c0.044,8.235,6.832,14.92,15.173,14.92c4.743,0,8.984-2.165,11.769-5.544h-0.499v-0.997
			l-0.58-0.771v-1.2l-0.441-0.435l-0.038-0.499l0.56-1.06l-1.064-1.857l0.127-1.26l-0.958-0.098l-0.354-0.349h-0.644l-0.328,0.299
			h-1.134l-0.038,0.1h-0.632l-1.448-1.632l0.011-1.272l0.24-0.087l0.089-0.486h-0.34l-0.14-0.511l1.677-1.196v-0.848l0.821-0.451
			l0.332,0.033h0.676l0.528-0.28l1.703-0.132v0.86l1.343,0.337l0.265,0.187h0.247v-0.467l0.774-0.074l0.738,0.542h1.211l0.084-0.076
			c-0.119-0.404-0.256-0.8-0.41-1.189L34.786-57.171z M12.835-51.277l-0.288,0.039v-0.648l0.093-0.104
			c0.123,0.236,0.239,0.476,0.349,0.719L12.835-51.277z M13.816-48.65l0.047-0.054c0.02,0.083,0.04,0.166,0.06,0.25L13.816-48.65z"
			/>
		<polygon points="14.716,-58.387 14.981,-58.246 15.625,-59.134 15.123,-59.134 14.773,-58.76 		"/>
		<polygon points="16.562,-58.807 16.562,-58.537 16.694,-58.349 17.177,-58.349 17.177,-58.638 16.6,-58.807 		"/>
		<polygon points="15.928,-58.377 15.7,-58.358 15.625,-58.031 16.107,-58.031 16.325,-58.246 16.325,-58.537 15.976,-58.489 		"/>
		<path style="fill:#FFFFFF;" d="M13.816-48.65l0.106,0.196c-0.02-0.084-0.04-0.167-0.06-0.25L13.816-48.65z"/>
		<path style="fill:#FFFFFF;" d="M12.547-51.887v0.648l0.288-0.039l0.153,0.005c-0.109-0.243-0.226-0.482-0.349-0.719L12.547-51.887
			z"/>
		<polygon style="fill:#FFFFFF;" points="14.324,-51.542 14.335,-51.54 14.323,-51.544 		"/>
		<polygon style="fill:#FFFFFF;" points="9.635,-54.147 9.854,-54.145 9.887,-54.204 9.727,-54.435 9.571,-54.357 		"/>
		<path style="fill:#FFFFFF;" d="M6.816-54.207l0.031,0.237l-0.358,0.074L6.44-53.39h0.432l0.573-0.055l0.296-0.348l-0.313-0.121
			L7.255-54.11l-0.26-0.415L6.872-55.11l-0.208,0.042l-0.035,0.007c-0.05,0.216-0.094,0.434-0.134,0.653l0.024,0.015L6.816-54.207z"
			/>
	</g>
</g>
<g>
</g>
<g>
</g>
<g>
</g>
<g>
</g>
<g>
</g>
<g>
</g>
<g>
</g>
<g>
</g>
<g>
</g>
<g>
</g>
<g>
</g>
<g>
</g>
<g>
</g>
<g>
</g>
<g>
</g>
</svg>
