<?xml version="1.0" encoding="iso-8859-1"?>
<!-- Generator: Adobe Illustrator 16.0.0, SVG Export Plug-In . SVG Version: 6.00 Build 0)  -->
<!DOCTYPE svg PUBLIC "-//W3C//DTD SVG 1.1//EN" "http://www.w3.org/Graphics/SVG/1.1/DTD/svg11.dtd">
<svg version="1.1" id="Layer_1" xmlns="http://www.w3.org/2000/svg" xmlns:xlink="http://www.w3.org/1999/xlink" x="0px" y="0px"
	 width="44.867px" height="40.873px" viewBox="0 0 44.867 40.873" style="enable-background:new 0 0 44.867 40.873;"
	 xml:space="preserve">
<g>
	<path d="M-30.445-50.718c0-10.475-8.521-18.997-18.998-18.997c-0.4,0-0.797,0.017-1.191,0.041v2.406
		c0.395-0.028,0.789-0.061,1.191-0.061c9.16,0,16.611,7.452,16.611,16.611c0,9.159-7.451,16.61-16.611,16.61
		c-0.268,0-0.529-0.027-0.795-0.04v0.897v1.509v4.722h-5.898v3.182h13.389v-3.182h-5.104v-4.774
		C-38.119-32.605-30.445-40.78-30.445-50.718z"/>
	<path d="M-35.728-50.697c0-8.271-6.729-15-15.001-15c-9.265,0-14.999,7.786-14.999,15c0,8.271,6.729,15,14.999,15
		C-42.457-35.697-35.728-42.426-35.728-50.697z M-42.891-39.385c0.172-0.658,0.358-1.497,0.51-2.466
		c0.008,0,0.016,0.002,0.023,0.002c1.17,0,2.121-0.895,2.231-2.036c0.629-0.151,1.167-0.308,1.605-0.454
		C-39.559-42.355-41.063-40.655-42.891-39.385z M-36.959-50.697c0,1.676-0.302,3.281-0.853,4.768
		c-0.362,0.16-1.225,0.499-2.539,0.819c-0.333-0.661-0.977-1.129-1.743-1.22c-0.082-2.729-0.673-5.8-2.327-8.732
		c-0.332-0.587-0.676-1.135-1.029-1.654c0.398-0.323,0.689-0.771,0.794-1.292c2.922-0.297,5.132-0.005,5.635,0.073
		C-37.716-55.831-36.959-53.351-36.959-50.697z M-45.565-63.458c2.2,0.893,4.117,2.338,5.582,4.165
		c-1.083-0.099-2.771-0.163-4.779,0.038c-0.214-0.561-0.641-1.013-1.185-1.257C-45.778-61.777-45.646-62.805-45.565-63.458z
		 M-45.493-54.457c1.564,2.773,2.091,5.722,2.144,8.341c-0.638,0.315-1.104,0.918-1.224,1.644c-1.283,0.09-2.733,0.106-4.346,0.001
		c-0.021-0.539-0.229-1.025-0.564-1.402c1.126-2.554,2.1-5.17,2.432-7.187c0.172-1.047,0.335-2.094,0.486-3.104
		C-46.196-55.631-45.837-55.065-45.493-54.457z M-59.09-50.71c1.201-1.289,2.735-2.647,4.691-3.947
		c1.86-1.236,3.797-2.045,5.647-2.573c0.237,0.363,0.576,0.653,0.976,0.831c-0.152,1.021-0.316,2.079-0.491,3.139
		c-0.305,1.853-1.212,4.297-2.274,6.72c-0.198-0.058-0.405-0.098-0.622-0.098c-0.97,0-1.789,0.615-2.106,1.474
		c-2.244-0.682-4.167-1.863-5.743-3.169c0.19-0.331,0.308-0.709,0.308-1.117C-58.705-49.917-58.847-50.351-59.09-50.71z
		 M-50.729-64.466c1.382,0,2.716,0.207,3.975,0.587c-0.075,0.612-0.218,1.75-0.413,3.199c-0.441,0.06-0.838,0.245-1.159,0.521
		c-2.171-2.106-4.325-3.284-5.772-3.904C-53.042-64.322-51.918-64.466-50.729-64.466z M-56.003-63.443
		c0.688,0.198,3.839,1.242,6.986,4.353c-0.059,0.203-0.101,0.412-0.101,0.633c0,0.012,0.003,0.023,0.004,0.035
		c-1.945,0.562-3.987,1.424-5.967,2.74c-2.076,1.379-3.694,2.814-4.962,4.177c-0.28-0.125-0.59-0.199-0.917-0.199
		c-0.403,0-0.776,0.115-1.104,0.301c-1.042-1.267-1.708-2.329-1.962-2.759C-62.965-58.095-60.147-61.735-56.003-63.443z
		 M-64.497-50.697c0-0.57,0.041-1.144,0.118-1.717c0.362,0.536,0.851,1.198,1.438,1.91c-0.168,0.315-0.271,0.67-0.271,1.053
		c0,0.537,0.195,1.022,0.508,1.41c-0.441,0.714-0.781,1.357-1.021,1.878C-64.224-47.583-64.497-49.108-64.497-50.697z
		 M-63.048-44.559c0.144-0.418,0.545-1.434,1.365-2.768c0.229,0.078,0.469,0.129,0.724,0.129c0.372,0,0.719-0.099,1.028-0.259
		c1.767,1.483,3.96,2.842,6.575,3.575c0.128,0.562,0.463,1.044,0.924,1.358c-1.124,2.25-2.148,4.104-2.598,4.905
		C-58.533-38.775-61.418-41.3-63.048-44.559z M-51.241-42.14c0.026,0.001,0.051,0.008,0.078,0.008c0.83,0,1.547-0.454,1.938-1.122
		c0.894,0.065,1.745,0.099,2.543,0.099c0.799,0,1.544-0.03,2.246-0.081c0.174,0.417,0.47,0.768,0.842,1.013
		c-0.273,1.873-0.688,3.259-0.858,3.775c-1.884,0.969-4.016,1.519-6.275,1.519c-1.059,0-2.088-0.124-3.079-0.352
		C-53.28-38.221-52.3-40.014-51.241-42.14z"/>
</g>
<g>
</g>
<g>
</g>
<g>
</g>
<g>
</g>
<g>
</g>
<g>
</g>
<g>
</g>
<g>
</g>
<g>
</g>
<g>
</g>
<g>
</g>
<g>
</g>
<g>
</g>
<g>
</g>
<g>
</g>
</svg>
