<?xml version="1.0" encoding="iso-8859-1"?>
<!-- Generator: Adobe Illustrator 16.0.0, SVG Export Plug-In . SVG Version: 6.00 Build 0)  -->
<!DOCTYPE svg PUBLIC "-//W3C//DTD SVG 1.1//EN" "http://www.w3.org/Graphics/SVG/1.1/DTD/svg11.dtd">
<svg version="1.1" id="Layer_1" xmlns="http://www.w3.org/2000/svg" xmlns:xlink="http://www.w3.org/1999/xlink" x="0px" y="0px"
	 width="33.715px" height="45.878px" viewBox="0 0 33.715 45.878" style="enable-background:new 0 0 33.715 45.878;"
	 xml:space="preserve">
<g>
	<path d="M7.652,11.644c1.889,0.566,4.027,0.909,6.3,0.964V4.569C11.273,4.937,8.964,7.688,7.652,11.644z"/>
	<path d="M13.952,33.693v-8.039c-2.273,0.056-4.414,0.398-6.304,0.966C8.96,30.577,11.273,33.326,13.952,33.693z"/>
	<path d="M7.283,25.395c2.012-0.617,4.271-0.988,6.669-1.045v-4.046H6.527C6.607,22.113,6.871,23.83,7.283,25.395z"/>
	<path d="M6.501,18.997h7.451v-5.083c-2.395-0.057-4.653-0.428-6.663-1.043C6.799,14.732,6.512,16.804,6.501,18.997z"/>
	<path d="M9.953,5.287C7.388,6.151,5.143,7.713,3.435,9.741c0.87,0.571,1.881,1.075,3.003,1.495C7.275,8.76,8.49,6.697,9.953,5.287z
		"/>
	<path d="M6.066,12.454c-1.266-0.476-2.41-1.054-3.398-1.714C1.017,13.082,0.027,15.925,0,18.997h5.195
		C5.207,16.661,5.52,14.448,6.066,12.454z"/>
	<path d="M3.438,28.519c1.709,2.028,3.95,3.593,6.516,4.457c-1.463-1.411-2.68-3.473-3.518-5.949
		C5.316,27.447,4.309,27.95,3.438,28.519z"/>
	<path d="M23.939,18.997h5.271c-0.028-3.072-1.017-5.915-2.668-8.257c-1.007,0.672-2.174,1.259-3.466,1.74
		C23.617,14.467,23.928,16.672,23.939,18.997z"/>
	<path d="M5.221,20.303H0.048c0.214,2.675,1.155,5.145,2.62,7.221c0.988-0.661,2.133-1.239,3.397-1.714
		C5.602,24.113,5.305,22.258,5.221,20.303z"/>
	<path d="M23.075,25.783c1.294,0.48,2.462,1.068,3.468,1.742c1.465-2.077,2.406-4.547,2.619-7.222h-5.25
		C23.829,22.248,23.535,24.093,23.075,25.783z"/>
	<path d="M22.606,20.303h-7.349v4.046c2.369,0.057,4.604,0.42,6.598,1.024C22.265,23.813,22.527,22.104,22.606,20.303z"/>
	<path d="M15.258,25.654v8.029c2.65-0.41,4.936-3.153,6.233-7.083C19.619,26.045,17.504,25.709,15.258,25.654z"/>
	<path d="M19.141,33.016c2.614-0.856,4.898-2.437,6.632-4.496c-0.888-0.581-1.919-1.092-3.065-1.516
		C21.861,29.514,20.626,31.599,19.141,33.016z"/>
	<path d="M25.775,9.742c-1.734-2.059-4.021-3.638-6.635-4.495c1.485,1.417,2.719,3.504,3.564,6.014
		C23.854,10.836,24.887,10.324,25.775,9.742z"/>
	<path d="M15.258,4.58v8.029c2.245-0.055,4.359-0.391,6.23-0.945C20.19,7.734,17.908,4.989,15.258,4.58z"/>
	<path d="M21.85,12.892c-1.991,0.603-4.225,0.965-6.592,1.022v5.083h7.375C22.621,16.813,22.338,14.748,21.85,12.892z"/>
</g>
<path d="M33.715,18.997C33.715,8.522,25.193,0,14.718,0c-0.401,0-0.798,0.017-1.192,0.041v2.406
	c0.395-0.028,0.789-0.061,1.192-0.061c9.159,0,16.61,7.452,16.61,16.611c0,9.159-7.451,16.61-16.61,16.61
	c-0.269,0-0.53-0.027-0.795-0.04v0.897v1.509v4.722H8.023v3.182h13.389v-3.182H16.31v-4.774
	C26.042,37.11,33.715,28.936,33.715,18.997z"/>
<g>
</g>
<g>
</g>
<g>
</g>
<g>
</g>
<g>
</g>
<g>
</g>
<g>
</g>
<g>
</g>
<g>
</g>
<g>
</g>
<g>
</g>
<g>
</g>
<g>
</g>
<g>
</g>
<g>
</g>
</svg>
