<?xml version="1.0" encoding="iso-8859-1"?>
<!-- Generator: Adobe Illustrator 16.0.0, SVG Export Plug-In . SVG Version: 6.00 Build 0)  -->
<!DOCTYPE svg PUBLIC "-//W3C//DTD SVG 1.1//EN" "http://www.w3.org/Graphics/SVG/1.1/DTD/svg11.dtd">
<svg version="1.1" id="Layer_1" xmlns="http://www.w3.org/2000/svg" xmlns:xlink="http://www.w3.org/1999/xlink" x="0px" y="0px"
	 width="33.715px" height="45.878px" viewBox="0 0 33.715 45.878" style="enable-background:new 0 0 33.715 45.878;"
	 xml:space="preserve">
<g>
	<path d="M113.484,19.476c0-10.475-8.521-18.997-18.997-18.997c-0.401,0-0.798,0.017-1.192,0.041v2.406
		c0.395-0.028,0.789-0.061,1.192-0.061c9.159,0,16.61,7.452,16.61,16.611c0,9.159-7.451,16.61-16.61,16.61
		c-0.269,0-0.53-0.027-0.795-0.04v0.897v1.509v4.722h-5.899v3.182h13.389v-3.182h-5.103V38.4
		C105.812,37.589,113.484,29.414,113.484,19.476z"/>
	<g>
		<path style="fill:none;" d="M90.317,5.145c0.019,0.008,0.044,0.02,0.063,0.029c0.892-0.231,1.822-0.382,2.789-0.443
			C92.175,4.782,91.223,4.923,90.317,5.145z"/>
		<path style="fill:none;" d="M88.362,5.855c-0.042-0.013-0.087-0.026-0.12-0.036c-4.516,1.861-7.584,5.827-8.738,10.111
			c0.021,0.036,0.051,0.084,0.078,0.129C80.745,11.653,83.925,7.727,88.362,5.855z"/>
		<path style="fill:none;" d="M80.568,26.391c0.706,1.412,1.636,2.69,2.73,3.807c-1.092-1.137-2.01-2.441-2.706-3.876
			C80.586,26.344,80.576,26.372,80.568,26.391z"/>
		<path style="fill:none;" d="M79.21,17.967c-0.029-0.043-0.063-0.091-0.091-0.132c-0.084,0.624-0.13,1.249-0.13,1.871
			c0,1.729,0.3,3.392,0.841,4.938c0.014-0.028,0.031-0.062,0.045-0.092c-0.505-1.506-0.783-3.117-0.783-4.793
			C79.092,19.16,79.135,18.562,79.21,17.967z"/>
		<path d="M97.869,8.831c0.212-1.58,0.367-2.819,0.449-3.485c-1.371-0.415-2.824-0.64-4.33-0.64c-0.275,0-0.547,0.011-0.818,0.025
			c-0.967,0.062-1.897,0.212-2.789,0.443c1.576,0.681,3.889,1.958,6.225,4.224C96.955,9.096,97.387,8.895,97.869,8.831z"/>
		<path d="M92.133,28.609c-0.501-0.343-0.866-0.868-1.006-1.48c-2.85-0.796-5.238-2.278-7.163-3.894
			c-0.337,0.174-0.714,0.283-1.12,0.283c-0.277,0-0.539-0.056-0.787-0.142c-0.855,1.39-1.289,2.457-1.464,2.945
			c0.696,1.435,1.614,2.739,2.706,3.876c1.658,1.689,3.705,2.996,6.004,3.754C89.793,33.08,90.908,31.06,92.133,28.609z"/>
		<path d="M82.844,18.608c0.357,0,0.693,0.08,1,0.216c1.381-1.484,3.143-3.048,5.404-4.55c2.156-1.435,4.381-2.373,6.499-2.986
			c-0.001-0.012-0.003-0.024-0.003-0.037c0-0.241,0.045-0.47,0.109-0.69c-3.278-3.24-6.553-4.419-7.491-4.707
			c-4.438,1.872-7.617,5.797-8.78,10.204c0.318,0.528,1.013,1.603,2.059,2.877C81.998,18.733,82.404,18.608,82.844,18.608z"/>
		<path d="M80.39,21.063c0-0.417,0.114-0.803,0.297-1.146c-0.595-0.722-1.091-1.389-1.477-1.95
			c-0.075,0.595-0.118,1.193-0.118,1.792c0,1.676,0.278,3.287,0.783,4.793c0.258-0.552,0.613-1.215,1.068-1.954
			C80.602,22.177,80.39,21.647,80.39,21.063z"/>
		<path d="M100.486,10.383c2.188-0.219,4.028-0.15,5.207-0.042c-1.596-1.989-3.685-3.563-6.08-4.537
			c-0.09,0.712-0.231,1.832-0.417,3.209C99.79,9.278,100.255,9.771,100.486,10.383z"/>
		<path d="M98.523,13.75c-0.164,1.101-0.342,2.242-0.53,3.381c-0.36,2.196-1.421,5.047-2.647,7.829
			c0.363,0.411,0.592,0.94,0.615,1.528c1.756,0.113,3.334,0.097,4.732-0.001c0.132-0.791,0.639-1.448,1.333-1.791
			c-0.058-2.853-0.63-6.066-2.335-9.086C99.317,14.946,98.926,14.33,98.523,13.75z"/>
		<path d="M106.741,11.82c-0.548-0.084-2.955-0.402-6.138-0.079c-0.115,0.567-0.432,1.055-0.865,1.407
			c0.385,0.566,0.76,1.163,1.121,1.802c1.803,3.194,2.445,6.541,2.536,9.513c0.833,0.098,1.536,0.609,1.897,1.329
			c1.433-0.348,2.373-0.718,2.768-0.893c0.599-1.619,0.929-3.369,0.929-5.193C108.989,16.814,108.164,14.112,106.741,11.82z"/>
		<path d="M103.108,29.344c-0.009,0-0.018-0.002-0.026-0.002c-0.165,1.056-0.367,1.97-0.555,2.687c1.99-1.383,3.63-3.235,4.76-5.395
			c-0.477,0.159-1.064,0.329-1.748,0.494C105.418,28.369,104.382,29.344,103.108,29.344z"/>
		<path d="M100.844,27.834c-0.766,0.055-1.577,0.089-2.449,0.089c-0.868,0-1.796-0.038-2.77-0.108
			c-0.424,0.727-1.206,1.221-2.109,1.221c-0.029,0-0.057-0.008-0.084-0.009c-1.154,2.316-2.222,4.269-2.797,5.295
			c1.08,0.248,2.201,0.383,3.354,0.383c2.463,0,4.785-0.6,6.837-1.655c0.185-0.562,0.636-2.071,0.935-4.112
			C101.354,28.67,101.032,28.288,100.844,27.834z"/>
		<path d="M94.193,24.232c1.156-2.638,2.145-5.301,2.477-7.319c0.191-1.155,0.369-2.308,0.536-3.419
			c-0.437-0.194-0.804-0.51-1.062-0.904c-2.018,0.573-4.128,1.455-6.154,2.801c-2.129,1.415-3.802,2.895-5.109,4.3
			c0.264,0.391,0.42,0.864,0.42,1.372c0,0.445-0.129,0.856-0.336,1.217c1.717,1.424,3.811,2.709,6.255,3.453
			c0.347-0.935,1.239-1.606,2.296-1.606C93.752,24.126,93.977,24.17,94.193,24.232z"/>
	</g>
</g>
<g>
</g>
<g>
</g>
<g>
</g>
<g>
</g>
<g>
</g>
<g>
</g>
<g>
</g>
<g>
</g>
<g>
</g>
<g>
</g>
<g>
</g>
<g>
</g>
<g>
</g>
<g>
</g>
<g>
</g>
</svg>
