<?xml version="1.0" encoding="iso-8859-1"?>
<!-- Generator: Adobe Illustrator 16.0.0, SVG Export Plug-In . SVG Version: 6.00 Build 0)  -->
<!DOCTYPE svg PUBLIC "-//W3C//DTD SVG 1.1//EN" "http://www.w3.org/Graphics/SVG/1.1/DTD/svg11.dtd">
<svg version="1.1" id="Layer_1" xmlns="http://www.w3.org/2000/svg" xmlns:xlink="http://www.w3.org/1999/xlink" x="0px" y="0px"
	 width="43.736px" height="43.736px" viewBox="0 0 43.736 43.736" style="enable-background:new 0 0 43.736 43.736;"
	 xml:space="preserve">
<path d="M265.869,0.92c-4.292,0-8.302,2.107-10.726,5.637l-0.886,1.291l-0.888-1.291c-2.426-3.529-6.437-5.637-10.729-5.637
	c-7.204,0-13.066,5.863-13.066,13.069c0,7.529,12.29,20.232,23.792,29.611l0.892,0.825l0.83-0.776
	c11.559-9.396,23.848-22.083,23.848-29.66C278.935,6.783,273.073,0.92,265.869,0.92z M254.961,39.404l-0.705,0.609l-0.705-0.609
	c-9.583-8.29-20.774-19.92-20.774-25.415c0-5.438,4.424-9.862,9.862-9.862c4.643,0,8.614,3.319,9.611,7.71h4.006
	c1-4.391,4.971-7.71,9.612-7.71c5.438,0,9.862,4.424,9.862,9.862C275.731,19.463,264.543,31.101,254.961,39.404z"/>
<g>
	<polygon style="fill:none;" points="249.919,18.291 249.996,17.994 249.774,17.941 249.529,18.058 249.681,18.368 	"/>
	<polygon style="fill:none;" points="250.585,19.026 250.275,19.026 250.06,19.259 250.025,19.493 250.188,19.58 	"/>
	<polygon style="fill:none;" points="250.829,18.95 250.829,18.758 250.748,18.758 250.748,18.646 250.38,18.646 250.112,18.758 
		250.06,18.893 250.27,18.95 	"/>
	<polygon style="fill:none;" points="250.928,18.729 250.928,18.95 251.121,18.903 	"/>
	<path style="fill:none;" d="M263.301,21.629c-0.011-0.054-0.024-0.106-0.037-0.16l-0.029,0.035L263.301,21.629z"/>
	<polygon style="fill:none;" points="249.222,16.59 249.222,16.444 248.888,16.444 248.871,16.515 248.666,16.515 248.666,16.531 
		248.666,16.718 249.126,16.718 	"/>
	<polygon style="fill:none;" points="251.541,19.517 251.541,19.336 251.185,19.231 251.162,19.231 251.162,19.398 251.243,19.517 	
		"/>
	<path style="fill:none;" d="M262.151,19.981l-0.047-0.431l-0.25,0.137l-0.134,0.526l-0.361-0.384l-0.015-0.363l-0.35-0.301
		l-0.128-0.128h-0.406l0.128,0.36l0.487,0.271l0.084,0.091l-0.105,0.052l0.005,0.286l-0.237,0.1l-0.203-0.044l-0.126-0.181
		l0.329,0.018l0.089-0.12l-0.73-0.493l-0.056-0.208l-0.297,0.268l-0.301-0.062l-0.458,0.596l-0.089,0.233l-0.293,0.025l-0.434,0.003
		l-0.259-0.121l-0.076-0.515l0.092-0.245l0.441-0.096l0.481,0.096l0.059-0.267l-0.205-0.048l0.07-0.414l0.484-0.077l0.338-0.478
		l0.35-0.058l0.315,0.046h0.115l-0.063-0.449l-0.384,0.156l-0.135-0.336l-0.222-0.031l-0.042-0.229l0.182-0.198l0.431-0.168
		l0.112-0.2c-1.649-1.452-3.811-2.335-6.176-2.335c-2.053,0-3.951,0.664-5.496,1.791l0.472-0.005l0.21,0.117l0.396,0.085l0.03,0.156
		l0.63,0.023l-0.085-0.203l-0.56-0.016l0.131-0.123l-0.046-0.148h-0.506l0.552-0.413h0.529l0.249,0.343l0.412,0.023l0.249-0.24
		l0.187,0.092l-0.343,0.335c0,0-0.474,0.009-0.45,0.009c0.023,0,0.039,0.325,0.039,0.325l0.575-0.016l0.063-0.155l0.396-0.023
		l0.046-0.232l-0.232-0.039l0.078-0.21l0.179-0.056l0.622,0.032l-0.343,0.312l0.055,0.24l0.357,0.055l-0.023-0.436l0.342-0.179
		l0.606-0.07l0.878,0.39v0.333l0.28,0.071l-0.141,0.264h-0.396l-0.118,0.303l-0.906-0.214l0.711-0.379l-0.271-0.23l-0.614,0.077
		l-0.054,0.056l-0.002-0.001l-0.009,0.013l-0.177,0.185l-0.292,0.024l0.023,0.145l0.103,0.044l-0.004,0.047l-0.238,0.035
		l-0.018,0.137l-0.228,0.014l-0.041-0.276l-0.408,0.126l-0.834,0.487l0.094,0.343l0.233,0.152l0.466,0.065v0.53l0.216-0.035
		l0.198-0.414l0.496-0.157v-0.637l0.276-0.208l0.667,0.158l-0.046,0.419h0.179l0.49-0.24l0.023,0.552l0.357,0.218l-0.015,0.327
		l-0.342,0.116l0.023,0.107l0.412,0.188L254.447,19l-0.12,0.009c0-0.003,0-0.006,0-0.006l-0.52-0.16l-0.022-0.166h0l0.152-0.106
		v-0.15l-0.164-0.04l-0.041,0.139l-0.287,0.045l-0.028-0.011v0.016l-0.099,0.015l-0.081-0.163l-0.094-0.04h-0.205l-0.093,0.075
		v0.169l0.175,0.058l0.172,0.024l-0.038,0.017l-0.158,0.175l-0.069-0.088l-0.152-0.039l-0.415,0.39l0.054,0.045l-0.612,0.339
		l-0.575,0.598l-0.04,0.266l-0.577,0.38l-0.285,0.288l0.031,0.574l-0.397-0.186l0.003-0.336l-1.103,0.001l-0.571,0.289l-0.249,0.458
		l-0.098,0.362l0.16,0.352l0.45,0.055l0.716-0.479l0.063,0.238l-0.218,0.412l0.545,0.093l0.054,0.841l0.746,0.127l0.475-0.547
		l0.575,0.115l0.202,0.282l0.552-0.033l0.016-0.163l0.303,0.147l0.342,0.537l0.59,0.007l0.218,0.382l0.031,0.466l0.653,0.249
		l0.824,0.008l0.242,0.396l0.365,0.116l-0.07,0.327l-0.4,0.509L255.26,27.8l-0.362,0.287l-0.536-0.018l-0.179,0.311l0.133,0.585
		l-0.583,0.746l-0.187,0.342l-0.556,0.267l-0.366,0.057l-0.015,0.154l0.256,0.073l-0.031,0.167l-0.23,0.221l0.14,0.176l0.277,0.008
		l-0.016,0.215l-0.073,0.209l-0.023,0.171l0.409,0.346l-0.054,0.178l-0.557-0.011l-0.554-0.483l-0.431-0.757l0.06-0.733
		l-0.327-0.435l0.132-0.738l-0.194-0.056v-1.601c0,0-0.544-0.413-0.575-0.413s-0.288-0.068-0.288-0.068l-0.054-0.304l-0.708-0.886
		l0.07-0.318l0.023-0.522l0.489-0.342l-0.07-0.582l-0.714-0.055l-0.56-0.638l-0.396-0.107l-0.257-0.048l0.031-0.232l-0.327-0.047
		v0.132l-0.816-0.203l-0.329-0.501l0.134-0.244l-0.518-0.753l-0.088-0.554h-0.209l0.07,0.537l0.357,0.552l-0.038,0.218l-0.304-0.047
		l-0.373-0.636v-0.74l-0.389-0.187v-0.533c-0.479,1.125-0.747,2.363-0.747,3.661c0,5.158,4.196,9.354,9.354,9.354
		c2.924,0,5.538-1.35,7.255-3.458h-0.309v-0.622l-0.356-0.479v-0.749l-0.273-0.271l-0.023-0.312l0.345-0.66l-0.656-1.159
		l0.078-0.785l-0.59-0.062l-0.218-0.218h-0.397l-0.202,0.187h-0.699l-0.023,0.063h-0.389l-0.894-1.018l0.008-0.794l0.147-0.054
		l0.055-0.303h-0.21l-0.086-0.32l1.035-0.745v-0.529l0.506-0.28l0.204,0.02h0.417l0.326-0.175l1.049-0.081v0.536l0.828,0.21
		l0.163,0.116h0.152v-0.292l0.478-0.047l0.455,0.339h0.746l0.053-0.047c-0.075-0.253-0.159-0.499-0.254-0.742l-0.487,0.008
		L262.151,19.981z M258.466,17.58l0.086-0.132l0.307-0.063l0.078,0.374l0.164,0.264l0.108,0.124l0.198,0.078l-0.186,0.222
		l-0.361,0.035h-0.272l0.03-0.323l0.227-0.046l-0.02-0.152l-0.21-0.132l-0.148-0.101V17.58z M257.961,18.163l0.187-0.299
		l0.252-0.059l0.18,0.079l-0.017,0.201l-0.384,0.272h-0.217V18.163z M252.879,19.313l-0.195,0.017l0.011-0.135l0.088-0.109
		l0.116,0.092L252.879,19.313z M253.562,19.075l-0.133,0.011l-0.027,0.13l-0.103,0.063l-0.164,0.014
		c-0.006-0.039-0.009-0.068-0.009-0.068h-0.064v-0.138h0.268l0.056-0.143l0.106-0.003l0.122,0.025L253.562,19.075z"/>
	<path style="fill:none;" d="M262.435,19.44v0.413l0.181-0.023l0.097,0.002c-0.069-0.154-0.142-0.308-0.219-0.457L262.435,19.44z"/>
	<path style="fill:none;" d="M249.214,17.155c0,0,0.018-0.203,0-0.203s-0.222,0.034-0.222,0.034l-0.327,0.092l0.088,0.106
		L249.214,17.155z"/>
	<polygon style="fill:none;" points="251.495,19.086 251.351,18.997 251.267,19.086 251.379,19.182 	"/>
	<path style="fill:none;" d="M250.771,19.336l0.175-0.033l0.14-0.091v-0.186h-0.315C250.771,19.056,250.771,19.336,250.771,19.336z"
		/>
	<path style="fill:none;" d="M263.641,19.854l-0.031-0.172l-0.056-0.022c0.027,0.064,0.051,0.131,0.077,0.194H263.641z"/>
	<polygon style="fill:none;" points="250.771,19.499 250.631,19.511 250.585,19.714 250.882,19.714 251.016,19.58 251.016,19.398 
		250.801,19.428 	"/>
	<path style="fill:none;" d="M246.263,18.62c-0.132,0.208-0.257,0.421-0.374,0.642l0.388-0.473L246.263,18.62z"/>
	<path style="fill:none;" d="M260.559,17.866l0.04,0.134l0.642,0.006l0.184-0.273c-0.147-0.181-0.303-0.356-0.462-0.525
		l-0.001,0.456L260.559,17.866z"/>
	<polygon points="258.824,17.961 258.844,18.113 258.617,18.159 258.587,18.482 258.859,18.482 259.22,18.447 259.406,18.226 
		259.208,18.147 259.1,18.023 258.937,17.76 258.859,17.386 258.552,17.448 258.466,17.58 258.466,17.729 258.614,17.829 	"/>
	<polygon points="258.563,18.086 258.58,17.885 258.4,17.806 258.148,17.864 257.961,18.163 257.961,18.358 258.179,18.358 	"/>
	<path d="M253.386,18.943l-0.056,0.143h-0.268v0.138h0.064c0,0,0.003,0.029,0.009,0.068l0.164-0.014l0.103-0.063l0.027-0.13
		l0.133-0.011l0.052-0.109l-0.122-0.025L253.386,18.943z"/>
	<polygon points="252.695,19.195 252.684,19.33 252.879,19.313 252.899,19.178 252.783,19.086 	"/>
	<path d="M264.352,23.516c-0.003-0.3-0.018-0.595-0.046-0.887c-0.094-0.972-0.327-1.901-0.675-2.775
		c-0.026-0.063-0.05-0.13-0.077-0.194c-0.463-1.096-1.115-2.092-1.912-2.953c-0.052-0.057-0.105-0.111-0.159-0.167
		c-0.151-0.156-0.305-0.309-0.465-0.455c-1.812-1.65-4.219-2.657-6.856-2.657c-2.66,0-5.084,1.025-6.9,2.7
		c-0.423,0.39-0.813,0.815-1.166,1.273c-1.331,1.721-2.126,3.879-2.126,6.219c0,5.62,4.573,10.192,10.192,10.192
		c3.953,0,7.386-2.264,9.075-5.562c0.362-0.705,0.643-1.457,0.833-2.244c0.048-0.2,0.089-0.401,0.125-0.604
		c0.103-0.58,0.159-1.174,0.159-1.782C264.355,23.584,264.353,23.55,264.352,23.516z M262.435,19.44l0.059-0.065
		c0.078,0.149,0.15,0.303,0.219,0.457l-0.097-0.002l-0.181,0.023V19.44z M260.961,17.663l0.001-0.456
		c0.16,0.169,0.315,0.345,0.462,0.525l-0.184,0.273L260.599,18l-0.04-0.134L260.961,17.663z M248.666,16.531v-0.017h0.205
		l0.018-0.07h0.334v0.146l-0.096,0.128h-0.46V16.531z M248.993,16.986c0,0,0.204-0.034,0.222-0.034s0,0.203,0,0.203l-0.46,0.029
		l-0.088-0.106L248.993,16.986z M263.083,21.031h-0.746l-0.455-0.339l-0.478,0.047v0.292h-0.152l-0.163-0.116l-0.828-0.21v-0.536
		l-1.049,0.081l-0.326,0.175h-0.417l-0.204-0.02l-0.506,0.28v0.529l-1.035,0.745l0.086,0.32h0.21l-0.055,0.303l-0.147,0.054
		l-0.008,0.794l0.894,1.018h0.389l0.023-0.063h0.699l0.202-0.187h0.397l0.218,0.218l0.59,0.062l-0.078,0.785l0.656,1.159
		l-0.345,0.66l0.023,0.312l0.273,0.271v0.749l0.356,0.479v0.622h0.309c-1.717,2.108-4.331,3.458-7.255,3.458
		c-5.158,0-9.354-4.196-9.354-9.354c0-1.298,0.267-2.536,0.747-3.661v-0.291l0.334-0.405c0.116-0.221,0.241-0.434,0.374-0.642
		l0.015,0.169l-0.388,0.473c-0.12,0.227-0.232,0.458-0.334,0.696v0.533l0.389,0.187v0.74l0.373,0.636l0.304,0.047l0.038-0.218
		l-0.357-0.552l-0.07-0.537h0.209l0.088,0.554l0.518,0.753l-0.134,0.244l0.329,0.501l0.816,0.203v-0.132l0.327,0.047l-0.031,0.232
		l0.257,0.048l0.396,0.107l0.56,0.638l0.714,0.055l0.07,0.582l-0.489,0.342l-0.023,0.522l-0.07,0.318l0.708,0.886l0.054,0.304
		c0,0,0.256,0.068,0.288,0.068s0.575,0.413,0.575,0.413v1.601l0.194,0.056l-0.132,0.738l0.327,0.435l-0.06,0.733l0.431,0.757
		l0.554,0.483l0.557,0.011l0.054-0.178l-0.409-0.346l0.023-0.171l0.073-0.209l0.016-0.215l-0.277-0.008l-0.14-0.176l0.23-0.221
		l0.031-0.167l-0.256-0.073l0.015-0.154l0.366-0.057l0.556-0.267l0.187-0.342l0.583-0.746l-0.133-0.585l0.179-0.311l0.536,0.018
		l0.362-0.287l0.116-1.125l0.4-0.509l0.07-0.327l-0.365-0.116l-0.242-0.396l-0.824-0.008l-0.653-0.249l-0.031-0.466l-0.218-0.382
		l-0.59-0.007l-0.342-0.537l-0.303-0.147l-0.016,0.163l-0.552,0.033l-0.202-0.282l-0.575-0.115l-0.475,0.547l-0.746-0.127
		l-0.054-0.841l-0.545-0.093l0.218-0.412l-0.063-0.238l-0.716,0.479l-0.45-0.055l-0.16-0.352l0.098-0.362l0.249-0.458l0.571-0.289
		l1.103-0.001l-0.003,0.336l0.397,0.186l-0.031-0.574l0.285-0.288l0.577-0.38l0.04-0.266l0.575-0.598l0.612-0.339l-0.054-0.045
		l0.415-0.39l0.152,0.039l0.069,0.088l0.158-0.175l0.038-0.017l-0.172-0.024l-0.175-0.058v-0.169l0.093-0.075h0.205l0.094,0.04
		l0.081,0.163l0.099-0.015v-0.016l0.028,0.011l0.287-0.045l0.041-0.139l0.164,0.04v0.15l-0.152,0.106h0l0.022,0.166l0.52,0.16
		c0,0,0,0.003,0,0.006l0.12-0.009l0.008-0.227l-0.412-0.188l-0.023-0.107l0.342-0.116l0.015-0.327l-0.357-0.218l-0.023-0.552
		l-0.49,0.24h-0.179l0.046-0.419l-0.667-0.158l-0.276,0.208v0.637l-0.496,0.157l-0.198,0.414l-0.216,0.035v-0.53l-0.466-0.065
		l-0.233-0.152l-0.094-0.343l0.834-0.487l0.408-0.126l0.041,0.276l0.228-0.014l0.018-0.137l0.238-0.035l0.004-0.047l-0.103-0.044
		l-0.023-0.145l0.292-0.024l0.177-0.185l0.009-0.013l0.002,0.001l0.054-0.056l0.614-0.077l0.271,0.23l-0.711,0.379l0.906,0.214
		l0.118-0.303h0.396l0.141-0.264l-0.28-0.071V16.03l-0.878-0.39l-0.606,0.07l-0.342,0.179l0.023,0.436l-0.357-0.055l-0.055-0.24
		l0.343-0.312l-0.622-0.032l-0.179,0.056l-0.078,0.21l0.232,0.039l-0.046,0.232l-0.396,0.023l-0.063,0.155l-0.575,0.016
		c0,0-0.016-0.325-0.039-0.325c-0.023,0,0.45-0.009,0.45-0.009l0.343-0.335l-0.187-0.092l-0.249,0.24l-0.412-0.023l-0.249-0.343
		h-0.529l-0.552,0.413h0.506l0.046,0.148l-0.131,0.123l0.56,0.016l0.085,0.203l-0.63-0.023l-0.03-0.156l-0.396-0.085l-0.21-0.117
		l-0.472,0.005c1.545-1.127,3.443-1.791,5.496-1.791c2.365,0,4.527,0.883,6.176,2.335l-0.112,0.2l-0.431,0.168l-0.182,0.198
		l0.042,0.229l0.222,0.031l0.135,0.336l0.384-0.156l0.063,0.449h-0.115l-0.315-0.046l-0.35,0.058l-0.338,0.478l-0.484,0.077
		l-0.07,0.414l0.205,0.048l-0.059,0.267l-0.481-0.096l-0.441,0.096l-0.092,0.245l0.076,0.515l0.259,0.121l0.434-0.003l0.293-0.025
		l0.089-0.233l0.458-0.596l0.301,0.062l0.297-0.268l0.056,0.208l0.73,0.493l-0.089,0.12l-0.329-0.018l0.126,0.181l0.203,0.044
		l0.237-0.1l-0.005-0.286l0.105-0.052l-0.084-0.091l-0.487-0.271l-0.128-0.36h0.406l0.128,0.128l0.35,0.301l0.015,0.363l0.361,0.384
		l0.134-0.526l0.25-0.137l0.047,0.431l0.245,0.269l0.487-0.008c0.095,0.243,0.179,0.489,0.254,0.742L263.083,21.031z
		 M249.529,18.058l0.245-0.116l0.221,0.053l-0.076,0.297l-0.239,0.077L249.529,18.058z M250.829,18.758v0.192h-0.56l-0.21-0.058
		l0.053-0.135l0.268-0.111h0.367v0.111H250.829z M251.086,19.026v0.186l-0.14,0.091l-0.175,0.033c0,0,0-0.28,0-0.31H251.086z
		 M250.928,18.95v-0.222l0.192,0.175L250.928,18.95z M251.016,19.398v0.182l-0.134,0.134h-0.297l0.046-0.203l0.14-0.012l0.03-0.071
		L251.016,19.398z M250.275,19.026h0.31l-0.397,0.554l-0.163-0.087l0.035-0.234L250.275,19.026z M251.541,19.336v0.181h-0.298
		l-0.081-0.118v-0.167h0.023L251.541,19.336z M251.267,19.086l0.084-0.089l0.144,0.089l-0.115,0.096L251.267,19.086z
		 M263.235,21.504l0.029-0.035c0.013,0.054,0.025,0.106,0.037,0.16L263.235,21.504z"/>
	<path d="M245.555,19.667v0.291c0.102-0.238,0.214-0.47,0.334-0.696L245.555,19.667z"/>
</g>
<g>
</g>
<g>
</g>
<g>
</g>
<g>
</g>
<g>
</g>
<g>
</g>
<g>
</g>
<g>
</g>
<g>
</g>
<g>
</g>
<g>
</g>
<g>
</g>
<g>
</g>
<g>
</g>
<g>
</g>
</svg>
