<?xml version="1.0" encoding="iso-8859-1"?>
<!-- Generator: Adobe Illustrator 16.0.0, SVG Export Plug-In . SVG Version: 6.00 Build 0)  -->
<!DOCTYPE svg PUBLIC "-//W3C//DTD SVG 1.1//EN" "http://www.w3.org/Graphics/SVG/1.1/DTD/svg11.dtd">
<svg version="1.1" id="Layer_1" xmlns="http://www.w3.org/2000/svg" xmlns:xlink="http://www.w3.org/1999/xlink" x="0px" y="0px"
	 width="43.736px" height="43.736px" viewBox="0 0 43.736 43.736" style="enable-background:new 0 0 43.736 43.736;"
	 xml:space="preserve">
<path d="M186.155-0.329c-4.424,0-8.557,2.172-11.056,5.809l-0.964,1.405l-0.966-1.405c-2.502-3.638-6.636-5.809-11.058-5.809
	c-7.426,0-13.466,6.042-13.466,13.469c0,7.774,12.71,20.906,24.58,30.583l0.909,0.842l0.794-0.746
	c11.937-9.703,24.69-22.858,24.69-30.679C199.62,5.713,193.58-0.329,186.155-0.329z M152.28,10.208h5.016
	c-0.697,2.272-1.173,4.93-1.173,7.994c0,0.994,0.032,1.907,0.087,2.758h-0.73c-2.235-3.096-3.631-5.84-3.631-7.82
	C151.848,12.121,152.002,11.138,152.28,10.208z M172.363,12.857l0.014,0.486h0.733v7.616h-7.309c0.339-4.75,1.91-8.339,3.398-10.752
	h2.723C172.178,11.054,172.337,11.939,172.363,12.857z M175.9,12.855c0.026-0.918,0.186-1.803,0.442-2.647h3.905
	c1.593,2.36,3.227,5.919,3.5,10.752h-8.638v-7.618h0.775L175.9,12.855z M186.358,2.887c0.889,0.938,2.189,2.653,3.18,5.321h-8.236
	c-0.845-1.121-1.639-1.945-2.206-2.47c1.851-1.768,4.345-2.862,7.06-2.862C186.223,2.876,186.29,2.885,186.358,2.887z
	 M196.417,13.14c0,1.977-1.399,4.721-3.639,7.82h-0.065c0.141-1.281,0.228-2.697,0.228-4.293c0-2.474-0.287-4.604-0.726-6.459h3.771
	C196.263,11.138,196.417,12.121,196.417,13.14z M185.749,20.96c-0.238-4.619-1.603-8.182-3.117-10.752h7.533
	c0.466,1.807,0.776,3.939,0.776,6.459c0,1.623-0.095,3.033-0.241,4.293H185.749z M158.217,20.96
	c-0.057-0.842-0.095-1.744-0.095-2.758c0-3.105,0.54-5.765,1.296-7.994h7.439c-1.428,2.602-2.762,6.178-3.058,10.752H158.217z
	 M175.11,22.96h8.668c-0.102,4.184-1.221,7.623-2.533,10.236h-6.135V22.96z M173.11,33.196h-5.138
	c-1.208-2.588-2.217-6-2.235-10.236h7.373V33.196z M191.65,8.208c-0.68-2.034-1.535-3.636-2.36-4.838
	c2.514,0.809,4.607,2.56,5.861,4.838H191.65z M178.704,8.208h-1.518c0.182-0.328,0.379-0.646,0.596-0.952
	C178.04,7.5,178.352,7.815,178.704,8.208z M170.586,8.208c0.102-0.128,0.191-0.233,0.285-0.347c0.07,0.115,0.143,0.229,0.208,0.347
	H170.586z M168.085,8.208h-7.892c1.096-2.458,2.391-4.212,3.268-5.23c2.413,0.327,4.576,1.511,6.168,3.237
	C169.186,6.716,168.652,7.386,168.085,8.208z M158.003,8.208h-4.888c1.563-2.84,4.432-4.859,7.792-5.255
	C159.967,4.226,158.898,5.982,158.003,8.208z M158.405,22.96h5.332c0.014,3.565,0.66,6.592,1.56,9.078
	c-2.324-2.293-4.544-4.632-6.487-6.891C158.655,24.512,158.516,23.791,158.405,22.96z M169.024,35.196h4.086v4.065
	c-1.146-0.995-2.313-2.033-3.479-3.104C169.43,35.859,169.229,35.54,169.024,35.196z M175.11,35.196h4.563
	c-1.526,1.425-3.063,2.804-4.563,4.107V35.196z M185.779,22.96h4.623c-0.101,0.521-0.211,1.003-0.329,1.451
	c-1.653,1.969-3.535,4.011-5.527,6.041C185.241,28.283,185.717,25.781,185.779,22.96z"/>
<g>
</g>
<g>
</g>
<g>
</g>
<g>
</g>
<g>
</g>
<g>
</g>
<g>
</g>
<g>
</g>
<g>
</g>
<g>
</g>
<g>
</g>
<g>
</g>
<g>
</g>
<g>
</g>
<g>
</g>
</svg>
