<?xml version="1.0" encoding="iso-8859-1"?>
<!-- Generator: Adobe Illustrator 16.0.0, SVG Export Plug-In . SVG Version: 6.00 Build 0)  -->
<!DOCTYPE svg PUBLIC "-//W3C//DTD SVG 1.1//EN" "http://www.w3.org/Graphics/SVG/1.1/DTD/svg11.dtd">
<svg version="1.1" id="Layer_1" xmlns="http://www.w3.org/2000/svg" xmlns:xlink="http://www.w3.org/1999/xlink" x="0px" y="0px"
	 width="43.736px" height="43.736px" viewBox="0 0 43.736 43.736" style="enable-background:new 0 0 43.736 43.736;"
	 xml:space="preserve">
<g>
	<path d="M414.433,4.777c-3.988,0-7.714,1.958-9.966,5.237l-0.823,1.199l-0.825-1.199c-2.254-3.279-5.98-5.237-9.969-5.237
		c-6.693,0-12.14,5.447-12.14,12.143c0,6.996,11.419,18.799,22.105,27.513l0.829,0.767l0.771-0.722
		c10.739-8.729,22.157-20.518,22.157-27.558C426.572,10.225,421.126,4.777,414.433,4.777z M414.433,7.757
		c2.586,0,4.921,1.081,6.589,2.811l-1.715,0.108l-2.227,0.995l0.021,1.155l-0.688,0.205l-0.152-1.156l-0.256-0.4l-0.77-0.188
		l-0.18,0.691l0.232,0.565l-2.738-0.18l-1.306,0.604l-0.197-0.571l-0.325,0.086l-0.239,0.633l-0.683,0.533l-1.67-0.047l-0.075-0.368
		l1.745-0.075l0.357-0.308l-2.103-0.976l-1.256,0.038C408.448,9.42,411.271,7.757,414.433,7.757z M413.141,19.363l-0.033-0.795
		l0.172-0.393l0.689-0.059l0.591,0.244l0.025,0.412l-0.837-0.047l-0.042,0.38l1.051,0.702v0.514l0.454,0.333v0.358l-0.233,0.223
		l-0.536-0.043l-0.104-0.162l-0.847-0.061l0.061-0.273l0.446-0.386v-0.324L413.141,19.363z M411.023,20.363h-0.923l-1.329-0.056
		l-0.4,0.056v-0.908l0.299-0.335l0.323-0.101l0.706-0.082l0.153-0.24l0.289,0.143l0.041,0.827l0.771,0.319L411.023,20.363z
		 M406.522,14.536l0.039,0.551l-0.814,1.212l-0.439-0.004c0.075-1.085,0.334-2.123,0.762-3.074l0.568-0.396h0.327v0.409l-1.02,0.624
		v0.409L406.522,14.536z M384.604,18.52v0.424h-0.501c-0.083-0.229-0.151-0.451-0.21-0.668h0.534v0.244H384.604z M386.169,19.789
		v0.399h-0.654l-0.179-0.259v-0.372h0.052L386.169,19.789z M385.567,19.241l0.185-0.195l0.315,0.195l-0.251,0.207L385.567,19.241z
		 M384.543,19.994l0.472-0.064v0.398l-0.205,0.205C384.715,20.351,384.627,20.171,384.543,19.994z M385.17,19.11v0.41l-0.309,0.198
		l-0.385,0.07c0,0,0-0.615,0-0.679H385.17z M384.821,18.943v-0.488l0.425,0.386L384.821,18.943z M404.298,40.533l-0.654,0.566
		l-0.655-0.566c-6.669-5.769-14.175-13.278-17.523-18.83l0.021-0.142l1.267-1.315l1.344-0.745l-0.118-0.098l0.91-0.857l0.335,0.09
		l0.152,0.19l0.345-0.383l0.085-0.04l-0.378-0.051l-0.384-0.127v-0.373l0.204-0.168h0.448l0.207,0.091l0.178,0.359l0.218-0.033
		V18.07l0.063,0.021l0.629-0.099l0.09-0.309l0.357,0.091v0.335l-0.332,0.229l0.051,0.366l1.142,0.353c0,0,0.002,0.004,0.003,0.013
		l0.263-0.022l0.019-0.495l-0.905-0.411l-0.053-0.239l0.752-0.256l0.032-0.718l-0.784-0.479l-0.052-1.214l-1.078,0.53h-0.394
		l0.104-0.924l-1.466-0.347l-0.607,0.457v1.399l-1.09,0.345l-0.438,0.912l-0.474,0.074V16.52l-1.026-0.142l-0.511-0.333
		l-0.207-0.755l1.835-1.075l0.897-0.272l0.088,0.603l0.502-0.027l0.038-0.303l0.523-0.074l0.007-0.106l-0.224-0.092l-0.05-0.32
		l0.642-0.054l0.388-0.404l0.022-0.029l0.004,0.001l0.121-0.122l1.35-0.17l0.597,0.508l-1.565,0.834l1.993,0.47l0.258-0.666h0.871
		l0.307-0.582l-0.614-0.153V12.52l-1.932-0.855l-1.333,0.152l-0.754,0.394l0.051,0.958l-0.784-0.119l-0.122-0.529l0.754-0.685
		l-1.368-0.068l-0.394,0.118l-0.17,0.463l0.513,0.086l-0.103,0.513l-0.873,0.053l-0.136,0.341l-1.266,0.033
		c0,0-0.002-0.045-0.006-0.112c0.091-0.208,0.189-0.412,0.295-0.611c0.281-0.005,0.616-0.011,0.616-0.011l0.754-0.736l-0.412-0.205
		l-0.547,0.531l-0.161-0.009c1.604-2.668,4.518-4.463,7.851-4.463c4.911,0,9.017,3.997,9.151,8.91l0.006,0.203l-0.44,0.621
		l-1.065,0.168l-0.152,0.909l0.448,0.106l-0.127,0.585l-1.058-0.211l-0.971,0.211l-0.205,0.54l0.168,1.132l0.569,0.265l0.953-0.004
		l0.645-0.06l0.199-0.513l1.005-1.309l0.662,0.136l0.653-0.591l0.123,0.463l1.604,1.083l-0.196,0.265l-0.723-0.04l0.278,0.394
		l0.444,0.1l0.523-0.218l-0.01-0.628l0.233-0.115l-0.188-0.199l-1.07-0.597l-0.282-0.795h0.89l0.283,0.281l0.768,0.66l0.033,0.802
		l0.795,0.846l0.295-1.16l0.553-0.301l0.103,0.95l0.539,0.59l1.621-0.026l0.481,0.359v0.846l-0.59,0.539h-1.643l-1-0.745
		l-1.051,0.104v0.642h-0.334l-0.358-0.257l-1.821-0.463v-1.178l-2.309,0.18l-0.718,0.383h-0.915l-0.45-0.045l-1.114,0.618v1.164
		l-2.272,1.642l0.188,0.7h0.461l-0.12,0.667l-0.324,0.119l-0.017,1.745l1.965,2.238h0.855l0.051-0.136h1.539l0.443-0.41h0.873
		l0.479,0.478l1.297,0.135l-0.17,1.729l1.444,2.549l-0.762,1.451l0.053,0.686l0.599,0.598v1.645l0.459,0.617
		C404.851,40.053,404.573,40.294,404.298,40.533z M411.795,33.588l-0.219-0.385l1.921-1.832l2.113-3.023l-0.41-0.189l-2.194,0.462
		l-0.566-0.279l-2.308-4.349l0.162-0.188l2.289,2.778l0.055,0.86l0.529,0.53l1.076-0.069l2.248-1.629l0.707-0.46l-0.013-0.566
		l-0.753-0.097c0,0-2.633-1.24-2.633-1.295c0-0.056,0.017-1.065,0.017-1.065h0.58l0.088,0.736l1.22,0.699l1.394,0.068l2.638,0.431
		C417.616,27.521,414.813,30.592,411.795,33.588z"/>
	<polygon points="398.628,16.2 398.67,16.535 398.176,16.638 398.107,17.346 398.706,17.346 399.5,17.27 399.91,16.782 
		399.474,16.61 399.237,16.337 398.875,15.757 398.706,14.935 398.029,15.07 397.84,15.36 397.84,15.688 398.165,15.912 	"/>
	<polygon points="398.055,16.475 398.091,16.029 397.696,15.859 397.141,15.986 396.73,16.645 396.73,17.073 397.209,17.073 	"/>
</g>
<g>
</g>
<g>
</g>
<g>
</g>
<g>
</g>
<g>
</g>
<g>
</g>
<g>
</g>
<g>
</g>
<g>
</g>
<g>
</g>
<g>
</g>
<g>
</g>
<g>
</g>
<g>
</g>
<g>
</g>
</svg>
