<?xml version="1.0" encoding="iso-8859-1"?>
<!-- Generator: Adobe Illustrator 16.0.0, SVG Export Plug-In . SVG Version: 6.00 Build 0)  -->
<!DOCTYPE svg PUBLIC "-//W3C//DTD SVG 1.1//EN" "http://www.w3.org/Graphics/SVG/1.1/DTD/svg11.dtd">
<svg version="1.1" id="Layer_1" xmlns="http://www.w3.org/2000/svg" xmlns:xlink="http://www.w3.org/1999/xlink" x="0px" y="0px"
	 width="43.736px" height="43.736px" viewBox="0 0 43.736 43.736" style="enable-background:new 0 0 43.736 43.736;"
	 xml:space="preserve">
<g>
	<path d="M323.304,13.855l-0.068,0.706h0.886l0.908-0.087l0.699-0.832l-0.704-0.277l-0.172-0.195l-0.339-0.542l-0.21-1.021
		l-1.023,0.205l-0.287,0.44v0.341l-0.606,0.139l-0.503,0.808v0.75h0.808L323.304,13.855z M323.719,13.319l0.004-0.054l0.061,0.04
		L323.719,13.319z M324.451,13.466l0.236,0.273l0.211,0.114l-0.121,0.143l-0.68,0.065h-0.312l0.024-0.251l0.539-0.111l-0.062-0.492
		L324.451,13.466z M323.493,12.4l0.092-0.14l0.33-0.066l0.118,0.579l0.073,0.145l-0.613-0.396V12.4z M322.384,13.789v-0.107
		l0.317-0.509l0.375-0.086l0.154,0.066l-0.012,0.15l-0.686,0.485H322.384z"/>
	<path d="M340.41,16.641l-1.025-0.685l0.87,0.049l-0.052-0.849l-0.792-0.327l-0.897,0.076l-0.255,0.582l0.04,0.973l0.852,0.62v0.083
		l-0.423,0.365l-0.141,0.637l1.011,0.072l0.104,0.161l0.771,0.062l0.392-0.373v-0.593l-0.454-0.333V16.641z M340.364,17.872
		l-0.075,0.072l-0.301-0.024l-0.105-0.163l-0.604-0.043l0.372-0.322v-0.565l-0.861-0.628l-0.026-0.617l0.089-0.203l0.481-0.041
		l0.321,0.133l-0.726-0.04l-0.085,0.766l1.066,0.713v0.507l0.454,0.333V17.872z"/>
	<polygon points="308.216,14.655 308.48,13.618 307.659,13.427 306.813,13.829 307.352,14.93 	"/>
	<path d="M350.856,8.579c-0.118-0.172-0.248-0.334-0.374-0.5c-2.37-3.121-6.107-5.149-10.318-5.149
		c-4.261,0-8.238,2.091-10.644,5.592l-1.376,2.005l-1.378-2.005c-2.408-3.501-6.387-5.592-10.646-5.592
		c-4.737,0-8.878,2.563-11.141,6.368c-0.1,0.167-0.204,0.33-0.296,0.502c-0.974,1.819-1.529,3.895-1.529,6.099
		c0,1.509,0.505,3.234,1.396,5.101c0.07,0.147,0.14,0.295,0.215,0.444c0.294,0.584,0.626,1.181,0.99,1.789
		c0.085,0.143,0.173,0.285,0.262,0.428c0.06,0.096,0.121,0.192,0.182,0.289c0.167,0.264,0.34,0.529,0.518,0.797
		c0.172,0.256,0.346,0.514,0.527,0.772c0.593,0.848,1.237,1.711,1.929,2.586c2.263,2.858,5.018,5.831,8.002,8.751
		c0.219,0.214,0.438,0.428,0.659,0.642c3.118,3.007,6.46,5.942,9.741,8.617l0.567,0.525l0.48-0.45
		c7.243-5.889,14.772-13.027,19.542-19.437c0.267-0.357,0.524-0.714,0.772-1.066c0.743-1.056,1.407-2.088,1.973-3.087
		c0.091-0.16,0.175-0.318,0.261-0.478c1.241-2.297,1.958-4.412,1.958-6.224C353.129,13.184,352.287,10.664,350.856,8.579z
		 M340.164,5.135c2.403,0,4.617,0.802,6.41,2.138l-1.88,0.12l-2.464,1.083l0.021,1.131l-0.225,0.067l-0.114-0.865l-0.348-0.587
		l-1.105-0.271l-0.263,1.011l0.111,0.272l-2.401-0.158l-1.112,0.516l-0.184-0.529l-0.674,0.178l-0.153,0.405l-2.273-1.056
		l-1.221,0.037C334.266,6.489,337.075,5.135,340.164,5.135z M330.782,12.663l0.007-1.695l0.31-0.216v0.64l0.588,0.274l0.022,0.318
		l-0.691,1.029l-0.906-0.009L330.782,12.663z M330.287,11.684l-0.003,0.673l-0.324,0.164
		C330.056,12.235,330.168,11.958,330.287,11.684z M329.19,15.601l0.297,0.835l-0.452-0.305l-0.141-0.53H329.19z M329.976,17.368
		L329,17.314l0.633,0.895l0.615,0.139l0.754-0.313l-0.011-0.64l0.166-0.082l0.003,0.068l1.171,1.245l0.381-1.496l0.129-0.069
		l0.07,0.66l0.671,0.733l1.648-0.027l0.313,0.233v0.61l-0.437,0.399h-1.463l-1.011-0.753l-1.373,0.135v0.618l-0.297-0.21
		l-1.717-0.454v-1.254l-2.578,0.201l-0.201,0.083l0.127-0.326l0.888-1.156l0.634,0.13l0.442-0.401l0.042,0.158L329.976,17.368z
		 M329.787,15.784h0.433l0.908,0.811l0.014,0.346l-0.175-0.186l-1.048-0.599L329.787,15.784z M326.805,14.736
		c0.031,0.286,0.06,0.574,0.067,0.866l1.694-0.001l-0.6,0.541l-0.69-0.142l-1.101,1.433l-0.178,0.431l-0.469,0.044l-0.897,0.004
		l-0.396-0.185l-0.139-0.935l0.134-0.352l0.787-0.172l1.248,0.249l0.23-1.064l-0.459-0.109l0.084-0.501L326.805,14.736z
		 M305.357,15.898c0-1.286,0.238-2.516,0.654-3.66l0.675-0.044l0.019-0.214c0.043-0.497,0.007-0.563-0.061-0.637l-0.078-0.083h-0.11
		c-0.006,0-0.017,0.001-0.034,0.003c0.026-0.056,0.052-0.111,0.079-0.166c0.073-0.145,0.144-0.291,0.223-0.433
		c0.103-0.183,0.213-0.359,0.325-0.535l-0.005-0.001l0.014-0.013c0,0,0.001-0.002,0.002-0.003h0.001l-0.003,0.003
		c-0.003,0.005-0.006,0.009-0.009,0.014l0.362,0.06l0.072,0.375l1.976,0.073l-0.402-0.954l-0.834-0.022l-0.193-0.614h-0.203
		c0.117-0.142,0.246-0.271,0.37-0.407h0.788l0.541,0.747l0.189,0.011c-0.19,0.031-0.189,0.094-0.188,0.227l0.004,0.248h0.049
		c0.014,0.13,0.027,0.317,0.034,0.479l0.012,0.244l1.675-0.044l0.139-0.346l0.906-0.055l0.191-0.955l-0.47-0.078l0.022-0.063
		l0.232-0.069l0.724,0.036l-0.416,0.378l0.193,0.838l0.635,0.097l-0.338,0.028l0.087,0.559l-0.28,0.04l-0.035,0.285l-0.065,0.004
		l-0.098-0.664l-1.229,0.38l-2.001,1.172l0.283,1.031l0.59,0.385l0.913,0.15v1.239l0.893-0.14l0.447-0.933l1.161-0.367v-1.458
		l0.414-0.312l1.136,0.269l-0.111,0.981h0.674l0.845-0.387l0.041,0.964l0.771,0.472l-0.018,0.399l-0.446,0.151v-0.036l-0.78-0.198
		l-0.112,0.388l-0.411,0.064l-0.197-0.048l-0.101-0.204l-0.29-0.127l-0.639-0.021l-0.364,0.3v0.558l-1.193,1.124l0.055,0.044
		l-1.023,0.567l-0.212,0.204v-0.629l-0.292-0.087l0.368-0.304l-0.785-0.486l-0.101,0.107l-1.038-0.942v0.135h-0.954l-0.217,0.084
		l-0.279,0.108l-0.08,0.207H308.2h-0.425v0.219l-0.407-0.318l-0.394,0.494l-0.053,0.666l0.922-0.077l0.025-0.18h0.08l0.025,0.168
		l0.226-0.019l-0.121,0.13l-0.111,0.765l0.705,0.38l0.957-1.336v0.604l-0.261,0.022l-0.213,0.931h1.071l0.44-0.441v-0.165
		l0.119,0.172h0.836l-0.97,1.008l-0.082,0.556l-1.215,0.804l-0.707,0.712l0.053,0.959l-0.348-0.162l0.007-0.833l-1.559,0.002
		C305.9,18.756,305.357,17.201,305.357,15.898z M311.944,9.604l-0.014,0.07l-0.84,0.051l-0.133,0.336l-0.857,0.022
		c-0.004-0.079-0.009-0.151-0.015-0.217c0.29-0.005,0.687-0.012,0.687-0.012l0.1-0.002l0.609-0.596l-0.093,0.253L311.944,9.604z
		 M318.023,10.538l-0.087,0.167h-0.892l-0.241,0.623l-1.136-0.268l1.305-0.695l-0.961-0.817l-1.545,0.194l-0.088,0.089l-0.022-0.005
		l-0.293,0.332l-0.045-0.835l0.57-0.298l1.22-0.14l1.721,0.763v0.767L318.023,10.538z M317.034,11.896l-1.195,0.588h-0.055
		l0.097-0.859L317.034,11.896z M314.164,10.775l0.537-0.559l1.154-0.146l0.232,0.198l-1.815,0.967l-0.187-0.044l-0.176,0.133
		l0.031-0.488l-0.087-0.035L314.164,10.775z M313.909,11.325l-0.624,0.47v1.341l-1.019,0.322l-0.428,0.892l-0.055,0.009v-1.091
		l-1.187-0.164l-0.385-0.25l-0.131-0.479l1.615-0.954l0.62-0.188l0.078,0.541l0.938-0.051l0.041-0.32L313.909,11.325z
		 M313.182,9.572l0.334-0.303l0.03,0.571l-0.313-0.048L313.182,9.572z M317.729,15.678l-0.004,0.093l-0.94-0.291l-0.008-0.056
		l0.156-0.107L317.729,15.678z M315.213,15.118l-0.305-0.037l-0.212-0.07v-0.074l0.044-0.036h0.306l0.076,0.033L315.213,15.118z
		 M309.58,15.491v0.168h-0.199l0.08-0.168H309.58z M308.983,16.326l-0.461,0.644l-0.01-0.005l0.039-0.265l0.347-0.374H308.983z
		 M319.261,35.444c-2.969-2.908-6.213-6.309-8.821-9.61l0.919,0.187l0.47,0.65l1.565-0.092l0.02-0.213l0.277,0.136l0.788,1.233
		l1.289,0.017l0.381,0.666l0.076,1.128l1.587,0.603l1.757,0.032l0.508,0.833l0.677,0.217l-0.094,0.44l-0.89,1.13l-0.254,2.442
		L319.261,35.444z M329.237,42.623l-1.093,0.946l-1.095-0.946c-1.231-1.064-4.135-3.621-7.428-6.826l0.368-0.292l0.262-2.509
		l0.836-1.063l0.247-1.041l-0.929-0.299l-0.555-0.911l-1.904-0.018l-1.246-0.473l-0.059-0.865l-0.582-1.071l-1.307-0.017
		l-0.718-1.126l-1.057-0.513l-0.045,0.504l-0.862,0.051l-0.423-0.586l-1.502-0.306l-0.078,0.091
		c-1.173-1.517-2.204-3.005-2.998-4.406l0.786-0.001l-0.005,0.651l1.395,0.648l-0.086-1.569l0.511-0.521l1.362-0.895l0.09-0.619
		l1.186-1.23l1.631-0.904l-0.182-0.151l0.603-0.567l0.121,0.033l0.284,0.355l0.509-0.563l0.72-0.34l0.252-0.039l0.087,0.629
		l1.139,0.352l0.01,0.091l0.726-0.062l0.033-0.884l-0.807-0.366l0.587-0.2l0.047-1.036l-0.797-0.485l-0.063-1.464l-0.069,0.034
		l0.247-0.639h0.851l0.526-0.997l-0.734-0.184V9.322l-2.143-0.948l-1.4,0.16l-0.331,0.153l0.118-0.106l-2.013-0.101l-0.555,0.167
		l-0.011,0.027l-0.632-0.314l-0.596,0.578L309.791,8.9L309.24,8.14h-0.561c1.936-1.856,4.555-3.005,7.441-3.005
		c5.308,0,9.803,3.977,10.614,9.106l-1.048,0.165l-0.221,1.317l0.438,0.104l-0.023,0.105l-0.867-0.173l-1.154,0.25l-0.276,0.729
		l0.197,1.329l0.632,0.294l-1.172,0.649v1.184l-2.309,1.668l0.283,1.052h0.354l-0.042,0.231l-0.352,0.13l-0.02,2.013l2.103,2.396
		h1.143l0.051-0.136h1.463l0.443-0.41h0.672l0.47,0.467l1.137,0.118l-0.153,1.561l1.416,2.499l-0.731,1.394l0.065,0.85l0.591,0.59
		v1.624l0.785,1.057v1.536h2.682l1.819-1.872l0.529-0.929l0.127-0.028v0.443l0.109,0.106
		C332.913,39.401,330.37,41.643,329.237,42.623z M337.935,34.43l-0.228,0.334c-0.488,0.484-0.968,0.952-1.441,1.41v-0.282
		l0.16-0.035v-0.514l0.229-0.267l0.391-0.602l-0.125-0.146l-0.314-0.368v-0.048v-0.399l0.266,0.034l0.565,0.073l0.125,0.017
		l0.296-0.593l0.013-0.026l0.316-0.633h0.173L337.935,34.43z M338.533,33.937l0.442-2.052h-1.097l-0.102,0.203l-0.12-1.188
		l-0.364-0.685l1.813-1.734l2.284-3.269l-0.757-0.35l-0.776,0.163l2.175-1.575l0.823-0.536l-0.021-0.921l-0.927-0.119
		c-1.007-0.475-2.112-1.007-2.452-1.189c0.002-0.172,0.007-0.467,0.011-0.678h0.112l0.076,0.641l1.329,0.762l1.478,0.099
		l2.978,0.485l0.549,0.346l0.001,0.532l-0.099,1.024l0.635,1.044C344.232,27.961,341.332,31.116,338.533,33.937z M346.847,24.508
		l-0.443-0.729l0.084-0.883v-0.832l-0.824-0.521l-3.149-0.532l-1.334-0.065l-1.059-0.606l-0.1-0.832h-1.048l-0.004,0.246
		c0,0-0.017,1.014-0.017,1.069c0,0.205,0,0.213,2.776,1.521l0.614,0.091l0.005,0.212l-0.601,0.392l-2.189,1.586l-0.892,0.058
		l-0.383-0.384l-0.054-0.847l-2.529-3.069l-0.467,0.543l2.426,4.57l0.716,0.354l2.198-0.463l0.063,0.029l-1.91,2.741l-2.062,1.967
		l0.499,0.879l0.189,1.883l-0.147,0.202l-1.101-0.143v1.199l0.165,0.193l-0.346,0.408v0.412l-0.16,0.186v0.148l-0.453,0.101
		l-0.585,1.044l-1.648,1.696h-1.971V37.13l-0.785-1.057v-1.665l-0.606-0.605l-0.04-0.521l0.792-1.509l-1.473-2.599l0.187-1.896
		l-1.456-0.151l-0.49-0.488h-1.074l-0.443,0.41h-1.615l-0.051,0.136h-0.568l-1.827-2.081l0.014-1.478l0.297-0.108l0.198-1.103
		h-0.568l-0.094-0.349l2.236-1.615v-1.145l0.918-0.509l0.396,0.038h0.915l0.789-0.388l1.987-0.154v1.102l1.964,0.499l0.386,0.276
		h0.664v-0.665l0.729-0.072l0.988,0.737h1.822l0.743-0.679V18.41l-0.65-0.485l-1.594,0.025l-0.407-0.446l-0.135-1.24l-0.977,0.532
		l-0.209,0.824l-0.419-0.446l-0.034-0.817l-0.837-0.719l-0.355-0.354h-0.991c0.032-0.563,0.104-1.116,0.223-1.654h0.063
		l-0.019-0.129l1.581,0.015l0.938-1.395l-0.056-0.783l-0.566-0.265v-0.11l1.02-0.624V9.54h-0.655l-0.834,0.582
		c0.22-0.341,0.454-0.669,0.71-0.981l1.567-0.048l1.693,0.785l-1.945,0.084l0.174,0.85l1.958,0.055l0.809-0.631l0.205-0.543
		l0.201,0.584L338,9.583l3.075,0.201l-0.354-0.858l0.097-0.372l0.433,0.105l0.173,0.27l0.183,1.392l1.15-0.343l-0.021-1.18
		l2.034-0.909l2.392-0.151c2.3,1.976,3.765,4.898,3.765,8.161C350.927,18.186,349.262,21.255,346.847,24.508z M339.307,25.142
		l-0.864,0.182l-0.417-0.205l-1.684-3.173l1.4,1.699l0.056,0.874l0.676,0.677L339.307,25.142z"/>
</g>
<g>
</g>
<g>
</g>
<g>
</g>
<g>
</g>
<g>
</g>
<g>
</g>
<g>
</g>
<g>
</g>
<g>
</g>
<g>
</g>
<g>
</g>
<g>
</g>
<g>
</g>
<g>
</g>
<g>
</g>
</svg>
