<?xml version="1.0" encoding="iso-8859-1"?>
<!-- Generator: Adobe Illustrator 16.0.0, SVG Export Plug-In . SVG Version: 6.00 Build 0)  -->
<!DOCTYPE svg PUBLIC "-//W3C//DTD SVG 1.1//EN" "http://www.w3.org/Graphics/SVG/1.1/DTD/svg11.dtd">
<svg version="1.1" id="Layer_1" xmlns="http://www.w3.org/2000/svg" xmlns:xlink="http://www.w3.org/1999/xlink" x="0px" y="0px"
	 width="43.736px" height="43.736px" viewBox="0 0 43.736 43.736" style="enable-background:new 0 0 43.736 43.736;"
	 xml:space="preserve">
<g>
	<path d="M484.565,27.036c-1.189,0.063-2.421,0.108-3.745,0.108c-1.482,0-2.861-0.054-4.184-0.134
		c0.294,2.739,0.746,5.026,1.25,6.907c0.968,0.06,1.965,0.104,3.028,0.104c0.846,0,1.659-0.021,2.442-0.059
		C483.851,32.069,484.285,29.769,484.565,27.036z"/>
	<path d="M460.226,20.818c0.057,0.083,0.115,0.165,0.173,0.249c0.916,0.495,2.568,1.271,5.03,2.019
		c-0.048-0.879-0.077-1.785-0.077-2.735c0-0.596,0.023-1.154,0.041-1.722C462.618,19.499,460.938,20.391,460.226,20.818z"/>
	<path d="M465.598,25.266c-1.006-0.282-1.891-0.576-2.678-0.865c0.961,1.181,1.992,2.365,3.055,3.532
		C465.829,27.087,465.695,26.211,465.598,25.266z"/>
	<path d="M457.149,13.396c-0.001,0.054-0.008,0.105-0.008,0.159c0,1.558,0.763,3.469,1.995,5.551c0.9-0.547,2.967-1.648,6.375-2.643
		c0.211-2.732,0.619-5.115,1.142-7.127C461.626,10.893,458.167,12.803,457.149,13.396z"/>
	<path d="M467.584,15.923c1.944-0.46,4.237-0.854,6.88-1.117c0.223-2.837,0.613-5.269,1.072-7.358
		c-2.354,0.272-4.56,0.712-6.572,1.233C468.364,10.66,467.854,13.064,467.584,15.923z"/>
	<path d="M469.229,2.724c-0.391-0.044-0.784-0.071-1.184-0.071c-5.092,0-9.365,3.514-10.56,8.236
		c1.928-1.02,5.358-2.632,9.878-3.898C467.969,5.214,468.628,3.813,469.229,2.724z"/>
	<path d="M500.553,20.298c-0.898-0.481-2.313-1.13-4.308-1.761c0.016,0.528,0.039,1.047,0.039,1.602
		c0,1.005-0.034,1.958-0.086,2.883c1.456-0.472,2.584-0.95,3.418-1.357C499.948,21.202,500.257,20.748,500.553,20.298z"/>
	<path d="M495.898,26.31c0.422-0.485,0.838-0.971,1.239-1.457c-0.351,0.117-0.717,0.234-1.104,0.35
		C495.995,25.585,495.946,25.945,495.898,26.31z"/>
	<polygon points="480.133,41.505 480.223,41.584 480.489,41.354 480.405,41.287 	"/>
	<path d="M503.299,13.556c0-0.1-0.012-0.194-0.015-0.292c-1.271-1.052-3.886-2.621-8.268-3.989c0.514,2.001,0.913,4.368,1.115,7.093
		c2.584,0.753,4.369,1.582,5.484,2.195C502.667,16.69,503.299,14.974,503.299,13.556z"/>
	<path d="M480.915,36.048c-0.833,0-1.634-0.023-2.412-0.059c0.915,2.721,1.833,4.227,2.179,4.739
		c0.446-0.719,1.271-2.248,2.08-4.727C482.156,36.023,481.555,36.048,480.915,36.048z"/>
	<path d="M494.063,15.831c-0.258-2.852-0.751-5.235-1.336-7.198c-2.1-0.537-4.489-0.996-7.171-1.257
		c0.472,2.068,0.874,4.496,1.115,7.326C489.559,14.938,491.999,15.35,494.063,15.831z"/>
	<path d="M493.356,29.12c0.22-1.035,0.412-2.147,0.56-3.361c-2.033,0.482-4.45,0.894-7.297,1.139
		c-0.256,2.677-0.653,4.973-1.121,6.906c1.402-0.136,2.666-0.337,3.835-0.572C490.649,31.938,492.014,30.552,493.356,29.12z"/>
	<path d="M484.948,35.876c-0.248,0.825-0.503,1.544-0.755,2.205c0.779-0.708,1.655-1.516,2.593-2.4
		C486.191,35.754,485.587,35.824,484.948,35.876z"/>
	<path d="M485.309,5.328c2.428,0.212,4.649,0.565,6.632,1.01c-0.595-1.508-1.201-2.635-1.712-3.462
		C488.381,3.26,486.699,4.127,485.309,5.328z"/>
	<path d="M502.853,10.492c-1.322-4.508-5.479-7.813-10.404-7.836c0.606,1.092,1.267,2.493,1.87,4.276
		C498.271,8.036,501.063,9.382,502.853,10.492z"/>
	<path d="M469.767,6.376c1.712-0.394,3.555-0.712,5.492-0.935c-1.133-1.012-2.469-1.797-3.938-2.27
		C470.849,3.974,470.305,5.019,469.767,6.376z"/>
	<path d="M494.258,20.139c0-0.755-0.021-1.478-0.053-2.182c-2.012-0.505-4.473-0.941-7.396-1.201
		c0.064,1.208,0.111,2.457,0.111,3.795c0,1.53-0.058,2.943-0.143,4.295c2.915-0.27,5.354-0.713,7.343-1.223
		C494.201,22.518,494.258,21.372,494.258,20.139z"/>
	<path d="M484.619,14.573c-0.258-2.804-0.675-5.207-1.156-7.209c-1.179,1.686-1.897,3.712-1.959,5.89l-2.57,0.002
		c-0.052-1.854-0.578-3.595-1.459-5.111c-0.398,1.865-0.742,4.014-0.954,6.492c1.442-0.095,2.958-0.157,4.594-0.157
		C482.348,14.479,483.503,14.52,484.619,14.573z"/>
	<path d="M470.697,32.835c1.478,0.371,3.151,0.685,5.029,0.896c-0.473-1.918-0.878-4.207-1.145-6.872
		c-2.63-0.242-4.912-0.62-6.868-1.063c0.231,1.872,0.57,3.535,0.964,5.004C469.355,31.498,470.031,32.177,470.697,32.835z"/>
	<path d="M474.412,24.801c-0.095-1.423-0.157-2.922-0.157-4.546c0-1.191,0.037-2.312,0.089-3.401
		c-2.701,0.285-4.999,0.715-6.911,1.199c-0.034,0.741-0.056,1.504-0.056,2.298c0,1.167,0.055,2.256,0.131,3.307
		C469.43,24.128,471.737,24.535,474.412,24.801z"/>
	<path d="M476.281,20.255c0,1.692,0.065,3.251,0.17,4.714c1.373,0.091,2.814,0.15,4.369,0.15c1.395,0,2.683-0.051,3.92-0.123
		c0.093-1.388,0.154-2.854,0.154-4.445c0-1.394-0.052-2.689-0.124-3.938c-1.16-0.063-2.362-0.107-3.656-0.107
		c-1.69,0-3.255,0.064-4.729,0.168C476.324,17.815,476.281,18.993,476.281,20.255z"/>
	<path d="M476.31,35.834c-1.018-0.094-1.976-0.22-2.886-0.366c1.63,1.54,3.084,2.859,4.188,3.84
		C477.195,38.39,476.745,37.24,476.31,35.834z"/>
</g>
<g>
</g>
<g>
</g>
<g>
</g>
<g>
</g>
<g>
</g>
<g>
</g>
<g>
</g>
<g>
</g>
<g>
</g>
<g>
</g>
<g>
</g>
<g>
</g>
<g>
</g>
<g>
</g>
<g>
</g>
</svg>
