<?xml version="1.0" encoding="iso-8859-1"?>
<!-- Generator: Adobe Illustrator 16.0.0, SVG Export Plug-In . SVG Version: 6.00 Build 0)  -->
<!DOCTYPE svg PUBLIC "-//W3C//DTD SVG 1.1//EN" "http://www.w3.org/Graphics/SVG/1.1/DTD/svg11.dtd">
<svg version="1.1" id="Layer_1" xmlns="http://www.w3.org/2000/svg" xmlns:xlink="http://www.w3.org/1999/xlink" x="0px" y="0px"
	 width="43.736px" height="43.736px" viewBox="0 0 43.736 43.736" style="enable-background:new 0 0 43.736 43.736;"
	 xml:space="preserve">
<path d="M563.141,1.856c-4.261,0-8.238,2.091-10.644,5.592l-1.376,2.005l-1.378-2.005c-2.408-3.501-6.387-5.592-10.646-5.592
	c-7.149,0-12.966,5.818-12.966,12.969c0,7.597,12.614,20.591,24.42,30.216l0.567,0.525l0.48-0.45
	c11.862-9.644,24.506-22.646,24.506-30.291C576.105,7.675,570.289,1.856,563.141,1.856z M573.463,11.801
	c-1.768-1.097-4.523-2.425-8.426-3.515c-0.596-1.76-1.248-3.144-1.846-4.222C568.053,4.087,572.157,7.351,573.463,11.801z
	 M566.939,19.744c1.97,0.622,3.366,1.263,4.253,1.738c-0.292,0.444-0.598,0.893-0.925,1.348c-0.823,0.402-1.937,0.875-3.374,1.341
	c0.051-0.913,0.084-1.854,0.084-2.847C566.978,20.777,566.955,20.266,566.939,19.744z M567.821,25.979
	c-0.397,0.479-0.807,0.959-1.224,1.438c0.047-0.359,0.095-0.716,0.133-1.093C567.113,26.21,567.475,26.095,567.821,25.979z
	 M560.115,34.25c-1.154,0.232-2.401,0.432-3.785,0.566c0.461-1.909,0.854-4.176,1.106-6.818c2.811-0.242,5.195-0.648,7.204-1.125
	c-0.146,1.198-0.337,2.296-0.554,3.319C562.762,31.605,561.415,32.973,560.115,34.25z M539.723,31.851
	c-0.389-1.45-0.723-3.093-0.951-4.94c1.931,0.438,4.184,0.81,6.78,1.049c0.264,2.632,0.664,4.893,1.131,6.785
	c-1.854-0.209-3.507-0.519-4.966-0.885C541.06,33.209,540.393,32.539,539.723,31.851z M531.379,21.996
	c0.704-0.423,2.361-1.303,5.102-2.162c-0.018,0.56-0.041,1.112-0.041,1.7c0,0.938,0.029,1.833,0.076,2.7
	c-2.431-0.738-4.063-1.504-4.967-1.993C531.492,22.159,531.435,22.077,531.379,21.996z M536.683,26.387
	c0.096,0.933,0.228,1.797,0.372,2.633c-1.049-1.152-2.066-2.322-3.016-3.487C534.816,25.817,535.688,26.107,536.683,26.387z
	 M542.332,4.574c1.451,0.467,2.77,1.241,3.889,2.24c-1.913,0.22-3.732,0.535-5.423,0.923C541.33,6.397,541.866,5.365,542.332,4.574z
	 M557.624,17.984c2.886,0.257,5.315,0.688,7.302,1.187c0.03,0.695,0.052,1.408,0.052,2.153c0,1.218-0.056,2.35-0.135,3.44
	c-1.963,0.503-4.371,0.94-7.249,1.207c0.083-1.334,0.14-2.729,0.14-4.24C557.733,20.41,557.688,19.178,557.624,17.984z
	 M557.488,15.957c-0.238-2.793-0.635-5.19-1.101-7.232c2.647,0.257,5.006,0.71,7.079,1.24c0.577,1.938,1.064,4.292,1.318,7.107
	C562.747,16.597,560.338,16.19,557.488,15.957z M562.689,7.699c-1.957-0.438-4.15-0.787-6.547-0.996
	c1.372-1.187,3.032-2.043,4.857-2.421C561.504,5.098,562.103,6.211,562.689,7.699z M555.733,21.731c0,1.57-0.061,3.019-0.152,4.389
	c-1.222,0.071-2.493,0.121-3.87,0.121c-1.535,0-2.958-0.059-4.313-0.147c-0.104-1.444-0.168-2.984-0.168-4.654
	c0-1.245,0.043-2.408,0.103-3.535c1.455-0.103,3.001-0.167,4.67-0.167c1.277,0,2.464,0.045,3.609,0.107
	C555.683,19.076,555.733,20.355,555.733,21.731z M555.409,28.134c-0.277,2.698-0.706,4.97-1.193,6.839
	c-0.772,0.038-1.576,0.059-2.411,0.059c-1.051,0-2.035-0.043-2.99-0.103c-0.498-1.856-0.943-4.115-1.234-6.819
	c1.307,0.078,2.667,0.132,4.131,0.132C553.019,28.241,554.234,28.196,555.409,28.134z M546.494,8.794
	c-0.453,2.064-0.838,4.465-1.059,7.266c-2.608,0.259-4.872,0.648-6.792,1.103c0.267-2.822,0.771-5.195,1.362-7.15
	C541.992,9.497,544.169,9.064,546.494,8.794z M545.316,18.082c-0.051,1.075-0.087,2.182-0.087,3.357
	c0,1.604,0.062,3.083,0.154,4.488c-2.641-0.263-4.918-0.665-6.816-1.129c-0.074-1.038-0.128-2.112-0.128-3.265
	c0-0.784,0.021-1.537,0.055-2.269C540.382,18.787,542.65,18.363,545.316,18.082z M547.258,36.82c0.43,1.389,0.875,2.522,1.285,3.429
	c-1.089-0.968-2.525-2.27-4.135-3.79C545.308,36.604,546.253,36.728,547.258,36.82z M549.423,36.974
	c0.769,0.035,1.559,0.058,2.382,0.058c0.631,0,1.226-0.023,1.823-0.045c-0.799,2.447-1.613,3.956-2.054,4.666
	C551.233,41.146,550.327,39.66,549.423,36.974z M555.786,36.861c0.631-0.051,1.228-0.12,1.815-0.193
	c-0.926,0.874-1.791,1.671-2.561,2.37C555.29,38.387,555.541,37.677,555.786,36.861z M549.849,14.529l2.537-0.002
	c0.061-2.15,0.771-4.15,1.934-5.814c0.476,1.977,0.888,4.349,1.143,7.118c-1.103-0.055-2.242-0.094-3.46-0.094
	c-1.615,0-3.111,0.062-4.536,0.155c0.21-2.446,0.549-4.567,0.942-6.409C549.277,10.981,549.798,12.7,549.849,14.529z M539.098,4.062
	c0.395,0,0.784,0.026,1.169,0.069c-0.593,1.077-1.243,2.459-1.841,4.213c-4.463,1.251-7.85,2.842-9.753,3.85
	C529.852,7.529,534.071,4.062,539.098,4.062z M528.342,14.669c1.004-0.587,4.419-2.472,9.383-4.009
	c-0.516,1.986-0.919,4.339-1.127,7.036c-3.365,0.981-5.405,2.069-6.294,2.609c-1.217-2.055-1.97-3.942-1.97-5.48
	C528.334,14.772,528.341,14.722,528.342,14.669z M551.032,42.419l0.27-0.216l0.082,0.065l-0.263,0.228L551.032,42.419z
	 M572.242,19.769c-1.101-0.605-2.863-1.424-5.414-2.167c-0.2-2.69-0.595-5.027-1.102-7.003c4.326,1.352,6.908,2.9,8.162,3.938
	c0.003,0.097,0.015,0.19,0.015,0.288C573.903,16.226,573.279,17.92,572.242,19.769z"/>
<g>
</g>
<g>
</g>
<g>
</g>
<g>
</g>
<g>
</g>
<g>
</g>
<g>
</g>
<g>
</g>
<g>
</g>
<g>
</g>
<g>
</g>
<g>
</g>
<g>
</g>
<g>
</g>
<g>
</g>
</svg>
