<?xml version="1.0" encoding="iso-8859-1"?>
<!-- Generator: Adobe Illustrator 16.0.0, SVG Export Plug-In . SVG Version: 6.00 Build 0)  -->
<!DOCTYPE svg PUBLIC "-//W3C//DTD SVG 1.1//EN" "http://www.w3.org/Graphics/SVG/1.1/DTD/svg11.dtd">
<svg version="1.1" id="Layer_1" xmlns="http://www.w3.org/2000/svg" xmlns:xlink="http://www.w3.org/1999/xlink" x="0px" y="0px"
	 width="43.736px" height="43.736px" viewBox="0 0 43.736 43.736" style="enable-background:new 0 0 43.736 43.736;"
	 xml:space="preserve">
<g>
	<polygon points="460.785,-420.188 460.821,-419.907 460.404,-419.82 460.346,-419.222 460.852,-419.222 461.521,-419.287 
		461.867,-419.699 461.499,-419.842 461.299,-420.073 460.994,-420.564 460.852,-421.255 460.281,-421.14 460.121,-420.896 
		460.121,-420.622 460.396,-420.433 	"/>
	<polygon points="490.34,-407.117 490.646,-407.01 490.646,-406.533 490.96,-406.562 490.95,-407.965 490.188,-407.669 
		490.196,-407.5 490.009,-407.5 490.009,-406.446 490.397,-406.446 	"/>
	<polygon points="496.325,-404.366 495.814,-405.245 495.354,-405.266 495.164,-403.673 494.284,-403.739 494.038,-403.887 
		494.007,-404.519 494.474,-404.424 494.867,-404.808 494.03,-405.312 493.045,-405.312 492.339,-404.307 492.052,-404.307 
		492.052,-404.625 491.204,-404.559 489.864,-403.034 489.152,-403.024 488.361,-402.476 488.303,-400.113 487.827,-399.65 
		487.827,-399.233 490.134,-400.026 492.003,-400.1 492.695,-398.578 494.82,-398.505 496.867,-400.429 497.371,-401.579 
		497.161,-402.433 496.386,-403.097 	"/>
	<polygon points="492.974,-397.407 493.724,-397.325 494.332,-397.658 494.343,-398.116 493.681,-398.188 	"/>
	<polygon points="496.029,-397.237 496.029,-396.88 496.814,-397.001 498.717,-398.167 499.254,-398.522 499.83,-398.776 
		500.408,-399.104 500.195,-399.483 499.883,-399.421 499.873,-400.127 499.298,-400.093 499.228,-398.988 498.722,-398.644 
		497.785,-398.514 496.285,-397.447 	"/>
	<polygon points="494.3,-407.356 493.817,-407.344 493.854,-407.848 493.393,-408.121 492.737,-407.465 493.175,-406.924 
		494.128,-406.787 494.66,-406.507 494.675,-406.248 494.329,-406.248 494.343,-405.712 495.497,-405.786 495.915,-406.232 
		496.361,-406.275 496.361,-405.455 497.142,-405.455 497.142,-405.786 496.75,-405.786 496.679,-406.787 494.82,-407.631 	"/>
	<polygon points="490.848,-406.014 491.075,-405.943 491.139,-406.17 490.848,-406.17 	"/>
	<rect x="489.484" y="-405.943" width="0.347" height="0.192"/>
	<polygon points="490.329,-405.751 490.545,-405.751 490.545,-405.92 490.701,-405.943 490.701,-406.107 490.354,-406.107 
		490.214,-405.943 490.009,-405.751 490.009,-405.583 490.329,-405.616 	"/>
	<polygon points="490.879,-405.751 490.879,-405.449 491.216,-405.449 491.216,-405.6 491.562,-405.6 491.562,-405.778 
		491.803,-405.751 491.771,-406.059 491.378,-405.999 491.342,-405.8 490.9,-405.751 	"/>
	<polygon points="480.173,-410.772 480.354,-410.284 481.011,-410.528 481.081,-411.206 480.552,-411.31 	"/>
	<path d="M487.157-433.334l-15.174-1.92l-0.581-0.073l-0.581,0.073l-15.703,1.987v40.675l16.284-2.06l15.226,1.926l0.529,0.067
		l0.529-0.067l15.807-2v-40.675L487.157-433.334z M486.628-412.858l-0.48-0.386l-0.043-0.78l0.303-0.409l0.221,0.07V-412.858z
		 M486.186-411.36l0.442,0.045v1.784l-1.496-2.135l0.172-0.692L486.186-411.36z M486.628-432.393v6.329l-0.545-0.081l-0.747-0.025
		l-0.678,0.686l-0.289-0.022l-0.903-0.67h-2.658l-1.234-0.735l-1.334,0.085v-0.085l-1.035,0.065l-1.878,0.838l0.018,0.974
		l-0.579,0.173l-0.129-0.974l-0.216-0.338l-0.648-0.16l-0.151,0.584l0.194,0.475l-1.831-0.119v-8.852L486.628-432.393z
		 M472.003-419.522l-0.02-0.478v-0.209l0.138-0.313l0.582-0.05l0.498,0.208l0.022,0.346l-0.707-0.039l-0.036,0.321l0.886,0.59v0.434
		l0.385,0.28v0.303l-0.197,0.188l-0.452-0.038l-0.088-0.136l-0.714-0.051l0.051-0.23l0.375-0.324v-0.275L472.003-419.522z
		 M471.983-404.22l0.015,0.017l-0.015,0.022V-404.22z M456.176-393.735v-38.658l14.646-1.853v10.907l-0.915,0.425l-0.168-0.483
		l-0.274,0.072l-0.199,0.534l-0.578,0.45l-1.408-0.039l-0.063-0.311l1.472-0.065l0.304-0.259l-1.775-0.822l-2.162,0.065l-1.21,0.62
		l-0.456,0.811l-0.799,0.314l-0.338,0.367l0.078,0.426l0.413,0.058l0.249,0.622l0.712-0.288l0.119,0.832h-0.218l-0.584-0.084
		l-0.647,0.107l-0.525,0.742l-0.361,0.083l-0.07,0.113l-0.569,0.089l-0.129,0.768l0.379,0.09l-0.108,0.494l-0.89-0.179l-0.819,0.179
		l-0.173,0.454l0.142,0.954l0.48,0.225l0.803-0.005l0.544-0.049l0.167-0.431l0.849-1.105l0.558,0.114l0.55-0.497l0.105,0.39
		l1.353,0.914l-0.165,0.223l-0.61-0.034l0.233,0.333l0.377,0.083l0.441-0.185l-0.009-0.529l0.197-0.098l-0.158-0.166l-0.903-0.505
		l-0.237-0.669h0.751l0.238,0.238l0.648,0.557l0.027,0.676l0.67,0.713l0.249-0.98l0.466-0.252l0.086,0.8l0.454,0.499l1.367-0.024
		l0.406,0.304v0.713l-0.498,0.455h-1.383l-0.846-0.628l-0.886,0.086v0.542h-0.282l-0.301-0.216l-1.535-0.39v-0.995l-1.947,0.153
		l-0.606,0.324h-0.771l-0.38-0.039l-0.939,0.521v0.98l-1.917,1.385l0.16,0.592h0.387l-0.102,0.562l-0.272,0.099l-0.013,1.471
		l1.656,1.889h0.721l0.043-0.115h1.299l0.372-0.346h0.737l0.403,0.403l1.095,0.115l-0.144,1.457l1.218,2.147l-0.643,1.226
		l0.046,0.576l0.504,0.505v1.385l0.662,0.892v1.153h1.963l1.47-1.512l0.462-0.824l0.591-0.128v-0.692l0.389-0.462l0.821-1.124
		l-0.171-1.713l-0.362-0.636l0.636-0.607v10.869L456.176-393.735z M470.821-411.694v1.569l-1.854-3.493l0.139-0.159L470.821-411.694
		z M469.72-416.677h-0.779l-1.119-0.046l-0.338,0.046v-0.767l0.251-0.282l0.273-0.084l0.595-0.069l0.129-0.204l0.244,0.122
		l0.034,0.697l0.652,0.268L469.72-416.677z M465.924-421.593l0.031,0.466l-0.685,1.021l-1.19-0.011l-0.075-0.249l0.745-0.378
		l0.007-1.412l1.264-0.881h0.275v0.346l-0.859,0.525v0.346L465.924-421.593z M471.983-395.588v-6.744l0.347-0.556l0.877-1.288
		l0.421-2.017h-0.535l-0.519,1.037l-0.591-0.076v-3.858l0.321-0.307l1.783-2.549l-0.346-0.16l-1.759,0.371v-0.571l0.043,0.043
		l0.907-0.059l1.896-1.372l0.597-0.39l-0.011-0.475l-0.635-0.082c0,0-2.221-1.047-2.221-1.092c0-0.047,0.015-0.899,0.015-0.899
		h0.489l0.074,0.621l1.027,0.591l1.178,0.058l2.551,0.417l0.245,0.153v0.155l0.253,0.159v0.585l-0.078,0.793l1.311,2.152
		l0.421,0.097l0.421-0.611l0.234-1.74l0.435-0.939l0.704-0.261l1.24,0.118l1.556,1.383v1.99l1.993,1.911v0.441l-0.472,0.005
		l-0.317-0.418l0.018-0.218l-1.487-1.34l-0.36,0.288l2.118,2.597l0.304,0.101v0.143h-0.404l0.101,0.318l0.501,0.022v13.324
		L471.983-395.588z M502.436-395.601l-14.749,1.866v-12.268l1.337,0.059l-0.863-0.548l-0.474,0.013v-1.074l0.425,0.564h1.271
		l0.162-0.412l0.286-0.259v-0.189l0.178-0.116v-1.425l-0.178-0.074l-0.086-0.444h-0.261l-0.168,0.449l-0.2,0.179l-1.43,0.776v-4.022
		l0.09-0.064l-0.09-0.336v-0.248l1.451-0.52l0.665-0.554l-0.104-1.002l-1.316-1.383l-0.021-1.125h0.583l1.815,1.383l0.514-0.138
		l-0.341-0.446l-0.971-0.591l0.057-0.879l1.152,0.001l0.094-1.088l-0.438-0.579l0.259-0.281l0.562,0.563l0.182-0.238l-0.722-0.823
		l-1.795-0.216l-0.236-0.475l0.519-0.736l0.411,0.303l1.23,0.108l1.559-1.038l0.259,0.325l-0.347,0.54v0.541l1.428,1.167
		l0.455-0.236l-0.173-0.779l-1.016-0.951l1.339-0.086v-0.39l0.649-0.129l-0.498-0.342l0.021-0.264l1.363,0.221l0.26-0.221
		l-1.839-0.777l-6.703-0.346l-0.307-0.155v-7.581l14.749-1.866V-395.601z"/>
</g>
<g>
</g>
<g>
</g>
<g>
</g>
<g>
</g>
<g>
</g>
<g>
</g>
<g>
</g>
<g>
</g>
<g>
</g>
<g>
</g>
<g>
</g>
<g>
</g>
<g>
</g>
<g>
</g>
<g>
</g>
</svg>
