<?xml version="1.0" encoding="iso-8859-1"?>
<!-- Generator: Adobe Illustrator 16.0.0, SVG Export Plug-In . SVG Version: 6.00 Build 0)  -->
<!DOCTYPE svg PUBLIC "-//W3C//DTD SVG 1.1//EN" "http://www.w3.org/Graphics/SVG/1.1/DTD/svg11.dtd">
<svg version="1.1" id="Layer_1" xmlns="http://www.w3.org/2000/svg" xmlns:xlink="http://www.w3.org/1999/xlink" x="0px" y="0px"
	 width="47.365px" height="50.572px" viewBox="0 0 47.365 50.572" style="enable-background:new 0 0 47.365 50.572;"
	 xml:space="preserve">
<g>
	<path d="M488.222-55.466c-0.531-9.192-8.17-16.393-17.393-16.393c-0.326,0-0.656,0.009-0.986,0.027
		c-9.576,0.553-16.918,8.796-16.365,18.374c0.374,6.439,4.241,12.112,10.092,14.803l0.137,0.063l0.102,0.111
		c3.359,3.658,6.893,8.793,7.285,9.366l1.295,1.915l1.11-2.001c0.915-1.633,3.897-6.922,5.923-10.025l0.096-0.146l0.152-0.09
		C485.236-42.739,488.593-49.021,488.222-55.466z M477.859-41.666l-0.301,0.167l-0.191,0.285c-1.508,2.255-3.561,5.783-4.65,7.686
		l-0.574,1.002l-0.682-0.933c-1.484-2.029-3.713-4.938-5.898-7.266l-0.201-0.214l-0.268-0.115c-5.11-2.198-8.484-7.013-8.806-12.564
		c-0.464-8.03,5.691-14.94,13.72-15.405c8.066-0.472,14.943,5.729,15.404,13.719C485.735-49.714,482.77-44.36,477.859-41.666z"/>
	<path d="M479.281-57.643l-0.234-0.255l-0.044-0.414l-0.24,0.131l-0.128,0.505l-0.347-0.368l-0.014-0.348l-0.333-0.288l-0.124-0.122
		h-0.388l0.123,0.346l0.466,0.26l0.08,0.086l-0.101,0.05l0.005,0.273l-0.228,0.095l-0.193-0.042l-0.121-0.172l0.314,0.017
		l0.086-0.114l-0.698-0.472l-0.055-0.2l-0.283,0.256l-0.288-0.059l-0.438,0.57l-0.085,0.223l-0.28,0.024l-0.416,0.003l-0.247-0.116
		l-0.072-0.491l0.089-0.235l0.421-0.092l0.46,0.092l0.057-0.254l-0.196-0.047l0.067-0.396l0.463-0.072l0.324-0.457l0.333-0.056
		l0.302,0.044h0.111l-0.062-0.429l-0.365,0.148l-0.13-0.321l-0.213-0.029l-0.04-0.221l0.175-0.188l0.412-0.162l0.106-0.189
		c-1.577-1.389-3.645-2.235-5.907-2.235c-1.963,0-3.779,0.638-5.256,1.714l0.45-0.004l0.201,0.11l0.379,0.083l0.029,0.148
		l0.603,0.022l-0.082-0.193l-0.534-0.015l0.125-0.119l-0.043-0.141h-0.484l0.527-0.396h0.507l0.237,0.328l0.395,0.021l0.237-0.23
		l0.179,0.09l-0.327,0.319c0,0-0.453,0.008-0.431,0.008c0.021,0,0.037,0.313,0.037,0.313l0.55-0.016l0.06-0.148l0.379-0.021
		l0.045-0.224l-0.223-0.038l0.073-0.201l0.171-0.051l0.596,0.029l-0.328,0.298l0.053,0.23l0.341,0.052l-0.021-0.416l0.328-0.172
		l0.579-0.066l0.84,0.372v0.319l0.269,0.067l-0.134,0.253h-0.379l-0.112,0.289l-0.867-0.205l0.682-0.362l-0.26-0.221l-0.588,0.075
		l-0.052,0.053l-0.002-0.001l-0.009,0.013l-0.169,0.176l-0.279,0.023l0.021,0.14l0.098,0.04l-0.003,0.047l-0.229,0.031l-0.017,0.132
		l-0.218,0.012l-0.039-0.262l-0.39,0.118l-0.798,0.468l0.09,0.327L468.435-60l0.445,0.062v0.507l0.207-0.033l0.189-0.396l0.475-0.15
		v-0.607l0.264-0.199l0.638,0.15l-0.045,0.401h0.17l0.47-0.23l0.022,0.528l0.342,0.208l-0.016,0.313l-0.326,0.112l0.022,0.103
		l0.394,0.18l-0.007,0.215l-0.115,0.01c0-0.003-0.001-0.006-0.001-0.006l-0.497-0.153l-0.021-0.16l0.146-0.1v-0.145l-0.156-0.039
		l-0.039,0.134l-0.274,0.043l-0.027-0.01v0.014l-0.095,0.015l-0.077-0.156l-0.09-0.039h-0.195l-0.089,0.072v0.161l0.167,0.057
		l0.165,0.022l-0.036,0.017l-0.15,0.167l-0.066-0.084l-0.146-0.039l-0.396,0.374l0.052,0.042l-0.586,0.325l-0.55,0.571l-0.038,0.255
		l-0.551,0.363l-0.273,0.274l0.03,0.55l-0.379-0.176l0.002-0.323l-1.056,0.001l-0.546,0.276l-0.237,0.438l-0.094,0.347l0.153,0.336
		l0.431,0.053l0.685-0.457l0.06,0.226l-0.208,0.396l0.52,0.089l0.053,0.804l0.714,0.122l0.453-0.525l0.551,0.112l0.192,0.269
		l0.528-0.03l0.015-0.157l0.291,0.143l0.326,0.513l0.565,0.008l0.208,0.364l0.029,0.445l0.624,0.238l0.788,0.007l0.231,0.379
		l0.35,0.112l-0.066,0.313l-0.383,0.487l-0.112,1.075l-0.346,0.274l-0.514-0.016l-0.171,0.297l0.127,0.559l-0.558,0.713
		l-0.179,0.328l-0.531,0.255l-0.35,0.054l-0.016,0.147l0.246,0.071l-0.029,0.159l-0.22,0.212l0.133,0.168l0.265,0.008l-0.015,0.204
		l-0.07,0.2l-0.022,0.164l0.392,0.33l-0.053,0.171l-0.532-0.01l-0.529-0.464l-0.413-0.725l0.058-0.7l-0.313-0.417l0.127-0.706
		l-0.186-0.052v-1.531c0,0-0.521-0.396-0.551-0.396s-0.275-0.065-0.275-0.065l-0.052-0.291l-0.677-0.847l0.066-0.306l0.022-0.498
		l0.469-0.327l-0.067-0.558l-0.684-0.052l-0.535-0.609l-0.38-0.104l-0.244-0.045l0.029-0.223l-0.312-0.044v0.125l-0.782-0.192
		l-0.313-0.48l0.128-0.232l-0.495-0.723l-0.084-0.528h-0.2l0.065,0.514l0.342,0.528l-0.036,0.209l-0.29-0.045l-0.357-0.609v-0.707
		l-0.371-0.179v-0.51c-0.459,1.076-0.715,2.26-0.715,3.502c0,4.934,4.014,8.947,8.947,8.947c2.797,0,5.298-1.291,6.939-3.307h-0.295
		v-0.596l-0.342-0.46v-0.714l-0.261-0.261l-0.022-0.298l0.331-0.633l-0.628-1.106l0.074-0.752l-0.564-0.06l-0.209-0.208h-0.38
		l-0.192,0.179h-0.669l-0.022,0.06h-0.373l-0.854-0.974l0.008-0.759l0.141-0.052l0.053-0.29h-0.201l-0.082-0.305l0.989-0.713v-0.506
		l0.483-0.27l0.196,0.02h0.398l0.312-0.168l1.004-0.078v0.515l0.793,0.2l0.155,0.111h0.146v-0.279l0.457-0.044l0.435,0.323h0.714
		l0.051-0.045c-0.071-0.242-0.152-0.478-0.242-0.709L479.281-57.643z M475.522-60.196l0.082-0.126l0.294-0.059l0.073,0.356
		l0.157,0.253l0.104,0.119l0.189,0.073l-0.179,0.212l-0.346,0.034h-0.261l0.03-0.309l0.216-0.044l-0.019-0.146l-0.201-0.127
		l-0.142-0.096V-60.196z M475.04-59.638l0.179-0.286l0.24-0.057l0.172,0.074l-0.015,0.194l-0.368,0.26h-0.208V-59.638z
		 M470.178-58.537l-0.187,0.015l0.011-0.129l0.083-0.104l0.112,0.087L470.178-58.537z M470.832-58.766l-0.127,0.011l-0.026,0.123
		l-0.099,0.061l-0.156,0.013c-0.006-0.036-0.009-0.064-0.009-0.064h-0.061v-0.132h0.257l0.053-0.137l0.102-0.002l0.116,0.023
		L470.832-58.766z"/>
</g>
<g>
</g>
<g>
</g>
<g>
</g>
<g>
</g>
<g>
</g>
<g>
</g>
<g>
</g>
<g>
</g>
<g>
</g>
<g>
</g>
<g>
</g>
<g>
</g>
<g>
</g>
<g>
</g>
<g>
</g>
</svg>
