<?xml version="1.0" encoding="iso-8859-1"?>
<!-- Generator: Adobe Illustrator 16.0.0, SVG Export Plug-In . SVG Version: 6.00 Build 0)  -->
<!DOCTYPE svg PUBLIC "-//W3C//DTD SVG 1.1//EN" "http://www.w3.org/Graphics/SVG/1.1/DTD/svg11.dtd">
<svg version="1.1" id="Layer_1" xmlns="http://www.w3.org/2000/svg" xmlns:xlink="http://www.w3.org/1999/xlink" x="0px" y="0px"
	 width="47.365px" height="50.572px" viewBox="0 0 47.365 50.572" style="enable-background:new 0 0 47.365 50.572;"
	 xml:space="preserve">
<path d="M266.826-54.326c-0.531-9.192-8.17-16.393-17.393-16.393c-0.326,0-0.656,0.009-0.986,0.027
	c-9.576,0.553-16.918,8.796-16.365,18.374c0.374,6.439,4.241,12.112,10.092,14.803l0.137,0.063l0.102,0.111
	c3.359,3.658,6.893,8.793,7.285,9.366l1.295,1.915l1.11-2.001c0.915-1.633,3.897-6.922,5.923-10.025l0.096-0.146l0.152-0.09
	C263.839-41.6,267.197-47.882,266.826-54.326z M263.097-58.477l-0.301,0.005l-0.395-0.432l-0.077-0.696l-0.403,0.221l-0.217,0.851
	l-0.583-0.621l-0.024-0.588l-0.563-0.484l-0.209-0.206h-0.653l0.207,0.582l0.787,0.438l0.136,0.146l-0.17,0.084l0.007,0.462
	l-0.383,0.161l-0.328-0.072l-0.205-0.29l0.533,0.028l0.144-0.193l-1.18-0.795l-0.09-0.34l-0.479,0.434l-0.486-0.1l-0.738,0.961
	l-0.146,0.377l-0.473,0.043l-0.7,0.004l-0.419-0.196l-0.121-0.83l0.149-0.396l0.711-0.157l0.777,0.157l0.095-0.431l-0.331-0.077
	l0.113-0.67l0.781-0.122l0.546-0.771l0.564-0.094l0.51,0.074h0.188l-0.104-0.725l-0.618,0.25l-0.218-0.542l-0.359-0.049
	l-0.068-0.372l0.294-0.318l0.696-0.272l0.012-0.021C260.967-62.533,262.282-60.631,263.097-58.477z M257.031-62.166l-0.341-0.214
	l-0.239-0.163v-0.239l0.14-0.213l0.496-0.101l0.125,0.604l0.264,0.426l0.176,0.201l0.318,0.126l-0.3,0.357l-0.583,0.057h-0.439
	l0.049-0.521l0.365-0.076L257.031-62.166z M256.635-62.292l-0.026,0.326l-0.621,0.438h-0.352v-0.313l0.303-0.483l0.405-0.094
	L256.635-62.292z M241.086-65.245l0.305-0.002l0.34,0.188l0.64,0.137l0.049,0.251l1.018,0.037l-0.139-0.325l-0.902-0.026
	l0.213-0.199l-0.074-0.239h-0.817l0.892-0.666h0.853l0.402,0.555l0.665,0.037l0.401-0.39l0.302,0.15l-0.553,0.539
	c0,0-0.765,0.014-0.728,0.014c0.038,0,0.063,0.527,0.063,0.527l0.928-0.025l0.102-0.251l0.64-0.037l0.076-0.377l-0.377-0.063
	l0.125-0.34l0.289-0.087l1.004,0.051l-0.553,0.501l0.088,0.389l0.578,0.089l-0.038-0.703l0.554-0.288l0.979-0.113l1.418,0.627v0.541
	l0.452,0.111l-0.227,0.428h-0.641l-0.189,0.489l-1.463-0.346l1.15-0.612l-0.438-0.373l-0.991,0.126l-0.087,0.091l-0.004-0.001
	l-0.017,0.021l-0.285,0.297l-0.471,0.04l0.037,0.233l0.166,0.067l-0.007,0.079l-0.385,0.056l-0.029,0.222l-0.365,0.019l-0.066-0.442
	l-0.658,0.202l-1.348,0.787l0.152,0.555l0.375,0.245l0.753,0.104v0.855l0.348-0.057l0.321-0.668l0.8-0.254v-1.025l0.446-0.337
	l1.075,0.254l-0.075,0.678h0.288l0.792-0.388l0.037,0.89l0.577,0.352l-0.024,0.528l-0.553,0.188l0.038,0.174l0.664,0.303
	l-0.012,0.364l-0.193,0.016c-0.002-0.006-0.003-0.01-0.003-0.01l-0.838-0.259l-0.036-0.27l0.245-0.168v-0.245l-0.265-0.066
	l-0.064,0.226l-0.464,0.071l-0.046-0.014v0.022l-0.159,0.024l-0.131-0.264l-0.152-0.066h-0.328l-0.151,0.122v0.272l0.283,0.095
	l0.277,0.038l-0.062,0.028l-0.254,0.281l-0.112-0.14l-0.245-0.066l-0.668,0.631l0.087,0.07l-0.988,0.547l-0.929,0.967l-0.063,0.43
	l-0.932,0.612l-0.462,0.465l0.053,0.929l-0.641-0.299l0.004-0.543l-1.781,0.001l-0.923,0.467l-0.4,0.738l-0.159,0.586l0.26,0.568
	l0.728,0.088l1.155-0.773l0.101,0.384l-0.353,0.666l0.879,0.15l0.088,1.358l1.204,0.203l0.767-0.885l0.93,0.189l0.325,0.453
	l0.892-0.053l0.024-0.263l0.49,0.238l0.551,0.866l0.955,0.013l0.352,0.615l0.05,0.752l1.054,0.402l1.331,0.014l0.39,0.638
	l0.589,0.188l-0.112,0.528l-0.646,0.82l-0.189,1.818l-0.583,0.462l-0.866-0.025l-0.29,0.501l0.214,0.942l-0.94,1.205l-0.302,0.552
	l-0.897,0.432l-0.591,0.089l-0.023,0.252l0.414,0.117l-0.05,0.271l-0.37,0.357l0.225,0.283l0.446,0.014l-0.025,0.344l-0.119,0.339
	l-0.037,0.276l0.66,0.557l-0.088,0.288l-0.899-0.017l-0.894-0.781l-0.697-1.225l0.097-1.182l-0.525-0.704l0.212-1.191l-0.313-0.088
	v-2.585c0,0-0.88-0.666-0.93-0.666s-0.464-0.111-0.464-0.111l-0.087-0.49l-1.144-1.432l0.113-0.515l0.037-0.841l0.791-0.552
	l-0.113-0.942l-1.153-0.086l-0.904-1.029l-0.641-0.177l-0.414-0.075l0.049-0.376l-0.525-0.075v0.213l-1.318-0.326l-0.53-0.813
	l0.217-0.392l-0.835-1.219l-0.143-0.892h-0.34l0.112,0.866l0.576,0.892l-0.062,0.353l-0.489-0.076l-0.604-1.026v-1.195l-0.568-0.273
	C236.67-60.975,238.587-63.484,241.086-65.245z M248.617-60.543l-0.084,0.175l-0.213,0.018l-0.044,0.209l-0.166,0.103l-0.266,0.021
	c-0.009-0.063-0.014-0.109-0.014-0.109h-0.104v-0.224h0.434l0.089-0.229l0.173-0.004L248.617-60.543z M247.463-60.202l-0.032,0.22
	l-0.315,0.026l0.019-0.22l0.14-0.175L247.463-60.202z M251.292-38.035c0.002,0,0.005-0.001,0.008-0.001l-0.007,0.003
	C251.293-38.034,251.292-38.034,251.292-38.035z M260.718-44.084v-0.43l-0.575-0.777v-1.207l-0.441-0.438l-0.037-0.502l0.559-1.066
	l-1.06-1.87l0.125-1.269l-0.953-0.1l-0.352-0.352h-0.642l-0.326,0.301h-1.128l-0.039,0.102h-0.628l-1.442-1.644l0.012-1.281
	l0.239-0.088l0.089-0.489h-0.34l-0.139-0.515l1.669-1.204v-0.854l0.817-0.453l0.332,0.033h0.672l0.526-0.284l1.694-0.132v0.867
	l1.337,0.34l0.263,0.188h0.246v-0.473l0.771-0.072l0.734,0.545h0.804c0.271,0.978,0.448,1.994,0.509,3.044
	C264.229-50.465,262.996-46.874,260.718-44.084z"/>
<g>
</g>
<g>
</g>
<g>
</g>
<g>
</g>
<g>
</g>
<g>
</g>
<g>
</g>
<g>
</g>
<g>
</g>
<g>
</g>
<g>
</g>
<g>
</g>
<g>
</g>
<g>
</g>
<g>
</g>
</svg>
