<?xml version="1.0" encoding="iso-8859-1"?>
<!-- Generator: Adobe Illustrator 16.0.0, SVG Export Plug-In . SVG Version: 6.00 Build 0)  -->
<!DOCTYPE svg PUBLIC "-//W3C//DTD SVG 1.1//EN" "http://www.w3.org/Graphics/SVG/1.1/DTD/svg11.dtd">
<svg version="1.1" id="Layer_1" xmlns="http://www.w3.org/2000/svg" xmlns:xlink="http://www.w3.org/1999/xlink" x="0px" y="0px"
	 width="47.365px" height="50.572px" viewBox="0 0 47.365 50.572" style="enable-background:new 0 0 47.365 50.572;"
	 xml:space="preserve">
<g>
	<path d="M195.575-54.667c-0.531-9.192-8.17-16.393-17.392-16.393c-0.327,0-0.656,0.009-0.987,0.027
		c-9.575,0.553-16.917,8.796-16.365,18.374c0.375,6.439,4.242,12.112,10.092,14.803l0.137,0.063l0.102,0.111
		c3.36,3.658,6.893,8.793,7.285,9.366l1.295,1.915l1.11-2.001c0.915-1.633,3.898-6.922,5.923-10.025l0.096-0.146l0.152-0.09
		C192.59-41.94,195.947-48.223,195.575-54.667z M171.469-66.153l0.139,0.328l-1.025-0.037l-0.041-0.208
		c0.06-0.037,0.125-0.067,0.186-0.104L171.469-66.153z M185.212-40.867l-0.301,0.167l-0.192,0.285
		c-1.507,2.255-3.56,5.783-4.649,7.686l-0.574,1.002l-0.682-0.933c-1.484-2.029-3.712-4.938-5.898-7.266l-0.201-0.214l-0.268-0.115
		c-5.11-2.198-8.484-7.013-8.806-12.564c-0.108-1.868,0.156-3.671,0.705-5.351v0.458l0.607,1.035l0.494,0.075l0.063-0.354
		l-0.582-0.897l-0.113-0.873h0.342l0.144,0.897l0.841,1.228l-0.218,0.396l0.535,0.818l1.329,0.329v-0.215l0.531,0.076l-0.05,0.378
		l0.417,0.078l0.645,0.176l0.911,1.038l1.163,0.088l0.114,0.949l-0.797,0.557l-0.038,0.849l-0.114,0.518l1.151,1.442l0.088,0.493
		c0,0,0.418,0.113,0.469,0.113c0.05,0,0.937,0.672,0.937,0.672v2.606l0.315,0.089l-0.215,1.201l0.531,0.709l-0.098,1.191
		l0.702,1.234l0.901,0.787l0.906,0.017l0.089-0.291l-0.666-0.561l0.039-0.277l0.12-0.342l0.025-0.349l-0.45-0.012l-0.227-0.286
		l0.374-0.36l0.05-0.272l-0.417-0.119l0.025-0.252l0.595-0.091l0.905-0.435l0.303-0.557l0.949-1.215l-0.215-0.95l0.292-0.506
		l0.873,0.026l0.588-0.465l0.189-1.833l0.652-0.828l0.113-0.531l-0.594-0.191l-0.393-0.644l-1.341-0.013l-1.063-0.405l-0.051-0.759
		l-0.354-0.619l-0.961-0.014l-0.557-0.872l-0.493-0.241l-0.025,0.266l-0.898,0.054l-0.329-0.459l-0.937-0.19l-0.771,0.894
		l-1.215-0.206l-0.088-1.37l-0.886-0.15l0.355-0.672l-0.103-0.386l-1.164,0.778l-0.733-0.089l-0.261-0.572l0.16-0.59l0.404-0.745
		l0.93-0.472l1.796-0.001l-0.005,0.549l0.646,0.301l-0.051-0.936l0.465-0.469l0.939-0.616l0.064-0.435l0.937-0.975l0.996-0.551
		l-0.088-0.072l0.674-0.635l0.248,0.066l0.113,0.142l0.256-0.284l0.063-0.028l-0.281-0.038l-0.284-0.095v-0.276l0.151-0.122h0.333
		l0.152,0.066l0.132,0.265l0.162-0.023v-0.023l0.046,0.015l0.466-0.071l0.066-0.228l0.266,0.066v0.246l-0.248,0.171h0.001
		l0.036,0.271l0.846,0.261c0,0,0.001,0.004,0.001,0.01l0.194-0.017l0.013-0.367l-0.67-0.305l-0.038-0.176l0.557-0.189l0.024-0.532
		l-0.581-0.354l-0.038-0.898l-0.797,0.391h-0.291l0.076-0.683l-1.085-0.256l-0.449,0.339v1.035l-0.807,0.255l-0.323,0.674
		l-0.351,0.058v-0.863l-0.759-0.104l-0.379-0.248l-0.153-0.559l1.357-0.794l0.664-0.203l0.067,0.446l0.37-0.02l0.028-0.224
		l0.387-0.056l0.007-0.079l-0.167-0.068l-0.038-0.236l0.476-0.04l0.288-0.3l0.016-0.021l0.003,0.001l0.088-0.09l1-0.126l0.442,0.376
		l-1.159,0.617l1.475,0.347l0.191-0.492h0.645l0.228-0.431l-0.456-0.113v-0.544l-1.43-0.633l-0.987,0.113l-0.557,0.292l0.038,0.707
		l-0.582-0.087l-0.09-0.393l0.558-0.506l-1.012-0.051l-0.291,0.088l-0.126,0.341l0.379,0.064l-0.076,0.38l-0.646,0.037l-0.101,0.253
		l-0.936,0.025c0,0-0.026-0.531-0.063-0.531s0.733-0.012,0.733-0.012l0.557-0.544l-0.304-0.152l-0.404,0.393l-0.671-0.039
		l-0.073-0.101c1.648-0.783,3.466-1.276,5.396-1.388c3.719-0.218,7.176,0.996,9.877,3.137l-0.346,0.136l-0.296,0.321l0.067,0.375
		l0.362,0.051l0.22,0.546l0.624-0.252l0.104,0.73h-0.189l-0.514-0.077l-0.568,0.096l-0.551,0.778l-0.787,0.124l-0.114,0.674
		l0.333,0.078l-0.096,0.434l-0.783-0.157l-0.717,0.157l-0.151,0.399l0.123,0.837l0.422,0.196l0.706-0.003l0.477-0.044l0.146-0.38
		l0.745-0.969l0.49,0.101l0.482-0.437l0.091,0.342l1.188,0.803l-0.145,0.194l-0.536-0.028l0.206,0.292l0.33,0.072l0.387-0.162
		l-0.008-0.465l0.172-0.085l-0.138-0.146l-0.793-0.442l-0.208-0.587h0.658l0.211,0.208l0.568,0.489l0.023,0.592l0.588,0.626
		l0.219-0.858l0.408-0.222l0.076,0.702l0.398,0.437l0.376-0.007c0.187,0.416,0.355,0.842,0.503,1.277h-0.975l-0.74-0.551
		l-0.777,0.076v0.475h-0.247L189-58.53l-1.349-0.342v-0.874l-1.708,0.134l-0.531,0.284h-0.678l-0.333-0.033l-0.823,0.457v0.861
		l-1.684,1.214l0.14,0.519h0.342l-0.089,0.494l-0.24,0.089l-0.013,1.291l1.454,1.656h0.633l0.039-0.102h1.139l0.328-0.304h0.646
		l0.354,0.354l0.961,0.101l-0.127,1.278l1.069,1.886l-0.563,1.075l0.039,0.507l0.443,0.441v1.218l0.58,0.782v1.012h0.503
		c-0.09,0.11-0.193,0.207-0.285,0.314h0.054C188.168-42.88,186.793-41.734,185.212-40.867z"/>
	<polygon points="185.311,-63.339 185.342,-63.091 184.974,-63.016 184.923,-62.49 185.367,-62.49 185.956,-62.548 186.259,-62.909 
		185.937,-63.034 185.759,-63.237 185.494,-63.667 185.367,-64.275 184.868,-64.174 184.728,-63.959 184.728,-63.718 
		184.968,-63.554 	"/>
	<polygon points="184.886,-63.136 184.912,-63.465 184.621,-63.591 184.21,-63.496 183.906,-63.01 183.906,-62.693 184.26,-62.693 	
		"/>
	<path d="M176.459-61.74l-0.091,0.232h-0.436v0.225h0.104c0,0,0.006,0.048,0.015,0.11l0.267-0.022l0.167-0.103l0.044-0.21
		l0.216-0.019l0.085-0.177l-0.198-0.041L176.459-61.74z"/>
	<polygon points="175.334,-61.331 175.317,-61.111 175.634,-61.137 175.667,-61.358 175.476,-61.508 	"/>
</g>
<g>
</g>
<g>
</g>
<g>
</g>
<g>
</g>
<g>
</g>
<g>
</g>
<g>
</g>
<g>
</g>
<g>
</g>
<g>
</g>
<g>
</g>
<g>
</g>
<g>
</g>
<g>
</g>
<g>
</g>
</svg>
