<?xml version="1.0" encoding="iso-8859-1"?>
<!-- Generator: Adobe Illustrator 16.0.0, SVG Export Plug-In . SVG Version: 6.00 Build 0)  -->
<!DOCTYPE svg PUBLIC "-//W3C//DTD SVG 1.1//EN" "http://www.w3.org/Graphics/SVG/1.1/DTD/svg11.dtd">
<svg version="1.1" id="Layer_1" xmlns="http://www.w3.org/2000/svg" xmlns:xlink="http://www.w3.org/1999/xlink" x="0px" y="0px"
	 width="47.365px" height="50.572px" viewBox="0 0 47.365 50.572" style="enable-background:new 0 0 47.365 50.572;"
	 xml:space="preserve">
<path d="M345.21-54.326c-0.531-9.192-8.17-16.393-17.393-16.393c-0.326,0-0.656,0.009-0.986,0.027
	c-9.576,0.553-16.918,8.796-16.365,18.374c0.374,6.439,4.241,12.112,10.092,14.803l0.137,0.063l0.102,0.111
	c3.359,3.658,6.893,8.793,7.285,9.366l1.295,1.915l1.11-2.001c0.915-1.633,3.897-6.922,5.923-10.025l0.096-0.146l0.152-0.09
	C342.224-41.6,345.582-47.882,345.21-54.326z M328.763-43.075c-0.058-1.135-0.112-2.413-0.157-3.782
	c1.637-0.016,3.218-0.181,4.731-0.464c-0.357,1.516-0.819,2.881-1.283,4.037C330.983-43.155,329.887-43.082,328.763-43.075z
	 M331.492-41.972c-0.533,1.167-1.003,1.991-1.228,2.366c-0.42,0.063-0.849,0.104-1.28,0.127c-0.043-0.6-0.096-1.401-0.151-2.354
	C329.735-41.84,330.622-41.889,331.492-41.972z M321.874-63.225c0.474,0.348,1.003,0.659,1.575,0.93
	c-0.413,1.072-0.807,2.248-1.129,3.499c-0.915-0.379-1.747-0.835-2.479-1.355C320.467-61.289,321.175-62.325,321.874-63.225z
	 M321.336-65.421c0.428-0.249,0.872-0.468,1.328-0.668c-0.302,0.319-0.628,0.68-0.964,1.074
	C321.574-65.148,321.443-65.28,321.336-65.421z M321.552-54.09c-1.25-0.408-2.402-0.928-3.435-1.534
	c0.247-1.201,0.657-2.349,1.161-3.426c0.823,0.568,1.747,1.063,2.758,1.469C321.799-56.457,321.627-55.288,321.552-54.09z
	 M321.818-48.912c-1.28-0.335-2.486-0.763-3.605-1.275c-0.238-1.017-0.372-2.079-0.354-3.174c0.007-0.327,0.03-0.65,0.063-0.971
	c1.095,0.605,2.299,1.121,3.596,1.523C321.51-51.453,321.622-50.146,321.818-48.912z M318.842-60.956
	c-0.465-0.431-0.874-0.891-1.209-1.377c0.778-0.92,1.674-1.736,2.662-2.429c0.185,0.246,0.392,0.483,0.618,0.71
	C320.206-63.145,319.489-62.104,318.842-60.956z M318.258-59.832c-0.524,1.087-0.967,2.252-1.26,3.479
	c-0.698-0.502-1.325-1.049-1.863-1.637c0.423-1.192,1.001-2.308,1.715-3.325C317.25-60.787,317.725-60.294,318.258-59.832z
	 M316.751-55.042c-0.076,0.544-0.127,1.097-0.137,1.66c-0.014,0.849,0.057,1.675,0.187,2.478c-0.889-0.498-1.709-1.05-2.437-1.653
	c-0.016-0.265-0.026-0.531-0.026-0.799c0-1.138,0.14-2.24,0.398-3.296C315.335-56.073,316.013-55.534,316.751-55.042z
	 M317.135-49.344c0.454,1.691,1.161,3.239,1.947,4.594c-0.903-0.34-1.764-0.725-2.569-1.152c-0.947-1.489-1.62-3.167-1.947-4.965
	C315.355-50.309,316.217-49.798,317.135-49.344z M320.141-43.09c0.525,0.753,1.049,1.418,1.527,1.979
	c-1.303-0.704-2.483-1.605-3.496-2.671C318.808-43.525,319.468-43.299,320.141-43.09z M320.955-44.135
	c-0.869-1.29-1.714-2.825-2.301-4.527c1.074,0.437,2.217,0.802,3.413,1.088c0.313,1.473,0.729,2.81,1.164,3.982
	C322.452-43.741,321.692-43.924,320.955-44.135z M323.141-48.603c-0.224-1.224-0.369-2.52-0.387-3.866
	c1.431,0.352,2.948,0.577,4.525,0.644c0,1.265,0.019,2.515,0.048,3.715C325.879-48.164,324.478-48.334,323.141-48.603z
	 M327.296-53.838c-0.004,0.257-0.007,0.513-0.01,0.769c-1.58-0.07-3.095-0.304-4.509-0.669c0.058-1.164,0.218-2.311,0.444-3.415
	c1.282,0.404,2.671,0.671,4.127,0.78C327.33-55.55,327.309-54.703,327.296-53.838z M323.501-58.36
	c0.316-1.234,0.705-2.401,1.115-3.462c0.893,0.305,1.862,0.518,2.886,0.616c-0.044,1.106-0.084,2.312-0.121,3.589
	C326.006-57.724,324.701-57.977,323.501-58.36z M323.915-63.443c-0.459-0.219-0.893-0.459-1.273-0.733
	c1.456-1.713,2.685-2.747,2.714-2.771l-0.009-0.013c0.113-0.025,0.229-0.047,0.342-0.069
	C325.208-66.188,324.56-64.954,323.915-63.443z M322.106-42.558c0.543,0.124,1.1,0.23,1.661,0.325
	c0.418,0.979,0.821,1.782,1.142,2.379c-0.141-0.037-0.285-0.073-0.427-0.114C324.319-40.114,323.298-41.055,322.106-42.558z
	 M324.667-43.354c-0.451-1.132-0.899-2.462-1.248-3.933c1.269,0.231,2.588,0.377,3.943,0.423c0.044,1.358,0.099,2.63,0.156,3.759
	C326.546-43.142,325.595-43.226,324.667-43.354z M327.585-41.854c0.056,0.967,0.11,1.781,0.152,2.397
	c-0.412-0.015-0.82-0.049-1.224-0.1c-0.216-0.355-0.716-1.226-1.284-2.474C326.002-41.941,326.789-41.88,327.585-41.854z
	 M327.553-62.451c-0.878-0.087-1.704-0.271-2.47-0.521c0.887-2.075,1.778-3.615,2.175-4.262c0.178-0.013,0.356-0.017,0.534-0.023
	C327.742-66.364,327.648-64.665,327.553-62.451z M334.445-63.845c-0.45,0.274-0.944,0.518-1.478,0.72
	c-0.674-1.621-1.366-2.948-1.877-3.849c0.151,0.032,0.303,0.065,0.452,0.102C331.874-66.586,333.09-65.491,334.445-63.845z
	 M334.376-65.842c0.521,0.259,1.03,0.542,1.514,0.859c-0.13,0.137-0.278,0.265-0.425,0.394
	C335.087-65.05,334.72-65.47,334.376-65.842z M331.762-62.753c-0.923,0.231-1.917,0.366-2.962,0.366c-0.001,0-0.003,0-0.005,0
	c0.097-2.264,0.191-3.985,0.242-4.856c0.157,0.01,0.313,0.019,0.469,0.032C329.925-66.525,330.853-64.914,331.762-62.753z
	 M328.8-61.144c1.207,0,2.357-0.165,3.421-0.45c0.403,1.065,0.78,2.232,1.081,3.462c-1.394,0.367-2.91,0.573-4.502,0.573
	c-0.059,0-0.116-0.004-0.176-0.004c0.036-1.274,0.078-2.479,0.121-3.583C328.763-61.146,328.782-61.144,328.8-61.144z M328.8-56.315
	c1.679,0,3.285-0.217,4.769-0.605c0.203,1.024,0.347,2.083,0.401,3.161c-1.69,0.442-3.521,0.692-5.44,0.71
	c0.004-0.255,0.007-0.512,0.011-0.767c0.014-0.854,0.031-1.69,0.052-2.504C328.662-56.32,328.731-56.315,328.8-56.315z
	 M333.418-61.979c0.646-0.252,1.24-0.556,1.785-0.898c0.689,0.921,1.379,1.968,1.975,3.112c-0.8,0.499-1.697,0.926-2.675,1.269
	C334.197-59.736,333.821-60.908,333.418-61.979z M335.234-52.84c1.317-0.414,2.54-0.947,3.646-1.575
	c0.038,0.349,0.063,0.699,0.07,1.054c0.018,1.068-0.111,2.106-0.338,3.101c-1.137,0.532-2.372,0.978-3.68,1.324
	C335.129-50.172,335.24-51.48,335.234-52.84z M334.775-57.285c1.065-0.365,2.052-0.828,2.938-1.367
	c0.409,0.934,0.743,1.92,0.96,2.941c-1.04,0.63-2.21,1.165-3.479,1.587C335.123-55.205,334.977-56.264,334.775-57.285z
	 M338.767-59.369c0.502-0.381,0.962-0.787,1.369-1.222c0.52,0.849,0.945,1.759,1.275,2.713c-0.479,0.507-1.025,0.983-1.626,1.427
	C339.537-57.471,339.185-58.446,338.767-59.369z M338.217-60.495c-0.609-1.15-1.3-2.201-1.992-3.127
	c0.234-0.204,0.458-0.414,0.661-0.637c0.959,0.759,1.813,1.638,2.541,2.62C339.074-61.234,338.667-60.852,338.217-60.495z
	 M334.689-47.609c1.228-0.3,2.396-0.683,3.496-1.137c-0.613,1.804-1.52,3.425-2.439,4.769c-0.732,0.192-1.491,0.354-2.266,0.484
	C333.932-44.698,334.365-46.081,334.689-47.609z M335.44-41.465c0.356-0.437,0.733-0.924,1.111-1.457
	c0.458-0.131,0.909-0.269,1.349-0.42C337.156-42.626,336.325-42.004,335.44-41.465z M337.612-44.554
	c0.848-1.428,1.615-3.081,2.09-4.893c0.783-0.398,1.534-0.825,2.219-1.301c-0.376,1.979-1.174,3.806-2.293,5.393
	C338.984-45.06,338.306-44.795,337.612-44.554z M340.026-50.995c0.118-0.774,0.183-1.571,0.168-2.387
	c-0.009-0.596-0.063-1.18-0.15-1.754c0.637-0.435,1.227-0.902,1.755-1.402c0.239,1.021,0.372,2.087,0.372,3.182
	c0,0.312-0.016,0.621-0.035,0.929C341.494-51.911,340.786-51.433,340.026-50.995z M333.995-52.492
	c-0.017,1.348-0.16,2.646-0.385,3.867c-1.595,0.33-3.288,0.515-5.038,0.529c-0.028-1.2-0.048-2.445-0.048-3.71
	C330.443-51.822,332.284-52.062,333.995-52.492z M332.946-42.149c0.561-0.082,1.115-0.174,1.658-0.287
	c-0.95,1.183-1.774,1.998-2.124,2.327c-0.194,0.063-0.395,0.116-0.593,0.17C332.19-40.506,332.561-41.254,332.946-42.149z
	 M329.705-32.389l-0.574,1.002l-0.682-0.933c-1.401-1.915-3.466-4.608-5.53-6.863c1.536,0.579,3.188,0.922,4.914,0.97
	c0.003,0.024,0.003,0.04,0.003,0.043l0.367-0.031c0.018,0,0.034,0.003,0.051,0.003c1.968,0,3.847-0.382,5.573-1.067
	C332.396-37.043,330.672-34.077,329.705-32.389z"/>
<g>
</g>
<g>
</g>
<g>
</g>
<g>
</g>
<g>
</g>
<g>
</g>
<g>
</g>
<g>
</g>
<g>
</g>
<g>
</g>
<g>
</g>
<g>
</g>
<g>
</g>
<g>
</g>
<g>
</g>
</svg>
