<?xml version="1.0" encoding="iso-8859-1"?>
<!-- Generator: Adobe Illustrator 16.0.0, SVG Export Plug-In . SVG Version: 6.00 Build 0)  -->
<!DOCTYPE svg PUBLIC "-//W3C//DTD SVG 1.1//EN" "http://www.w3.org/Graphics/SVG/1.1/DTD/svg11.dtd">
<svg version="1.1" id="Layer_1" xmlns="http://www.w3.org/2000/svg" xmlns:xlink="http://www.w3.org/1999/xlink" x="0px" y="0px"
	 width="47.365px" height="50.572px" viewBox="0 0 47.365 50.572" style="enable-background:new 0 0 47.365 50.572;"
	 xml:space="preserve">
<g>
	<path d="M423.711-53.792c-0.531-9.192-8.17-16.393-17.393-16.393c-0.326,0-0.656,0.009-0.986,0.027
		c-9.576,0.553-16.918,8.796-16.365,18.374c0.374,6.439,4.241,12.112,10.092,14.803l0.137,0.063l0.102,0.111
		c3.359,3.658,6.893,8.793,7.285,9.366l1.295,1.915l1.11-2.001c0.915-1.633,3.897-6.922,5.923-10.025l0.096-0.146l0.152-0.09
		C420.725-41.065,424.083-47.348,423.711-53.792z M413.047-39.825l-0.191,0.285c-1.508,2.255-3.561,5.783-4.65,7.686l-0.574,1.002
		l-0.682-0.933c-1.484-2.029-3.713-4.938-5.898-7.266l-0.201-0.214l-0.268-0.115c-0.703-0.303-1.37-0.659-2.005-1.056
		c-0.322-0.41-0.652-0.844-0.985-1.322c-0.454-0.141-0.887-0.308-1.326-0.467c-0.72-0.684-1.365-1.438-1.927-2.248
		c0.678,0.332,1.376,0.646,2.111,0.923c-0.847-1.463-1.609-3.134-2.099-4.956c-0.817-0.406-1.579-0.861-2.302-1.342
		c-0.119-0.589-0.198-1.189-0.246-1.799c0.676,0.52,1.398,1.012,2.187,1.454c-0.14-0.865-0.215-1.758-0.2-2.673
		c0.011-0.606,0.063-1.204,0.147-1.792c-0.653-0.437-1.248-0.913-1.802-1.413c0.112-0.485,0.247-0.962,0.406-1.429
		c0.501,0.504,1.048,0.986,1.663,1.429c0.315-1.324,0.791-2.582,1.356-3.756c-0.449-0.389-0.845-0.806-1.21-1.237
		c0.26-0.376,0.536-0.737,0.83-1.086c0.302,0.386,0.632,0.761,1.012,1.111c0.694-1.239,1.469-2.362,2.229-3.34
		c-0.127-0.129-0.232-0.269-0.349-0.403c0.366-0.253,0.743-0.489,1.133-0.709c0.022,0.023,0.043,0.048,0.065,0.072
		c0.063-0.074,0.123-0.141,0.186-0.212c0.956-0.515,1.971-0.936,3.044-1.228c-0.542,0.513-1.335,1.308-2.215,2.345
		c0.411,0.295,0.88,0.555,1.373,0.791c0.566-1.328,1.13-2.441,1.601-3.307c0.553-0.119,1.117-0.207,1.692-0.263
		c-0.495,0.854-1.264,2.272-2.033,4.076c0.825,0.271,1.716,0.469,2.662,0.563c0.087-2.038,0.172-3.666,0.23-4.7
		c0.451-0.018,0.899-0.019,1.343,0.006c-0.059,1.026-0.146,2.679-0.233,4.762h0.004c1.127,0,2.198-0.143,3.192-0.393
		c-0.798-1.901-1.605-3.398-2.123-4.29c0.578,0.065,1.147,0.157,1.704,0.289c0.506,0.932,1.116,2.146,1.719,3.599
		c0.576-0.218,1.106-0.481,1.593-0.776c-0.905-1.102-1.752-1.972-2.351-2.55c1.111,0.347,2.174,0.808,3.156,1.397
		c0.099,0.116,0.194,0.227,0.295,0.349c0.033-0.029,0.063-0.06,0.096-0.089c0.376,0.242,0.74,0.5,1.093,0.774
		c-0.124,0.119-0.238,0.243-0.371,0.356c0.747,1,1.492,2.135,2.148,3.377c0.357-0.285,0.682-0.59,0.986-0.903
		c0.268,0.361,0.52,0.734,0.754,1.12c-0.356,0.347-0.734,0.683-1.147,0.996c0.45,0.998,0.829,2.051,1.099,3.15
		c0.51-0.377,0.97-0.781,1.399-1.2c0.155,0.467,0.286,0.944,0.394,1.432c-0.473,0.416-0.972,0.815-1.515,1.188
		c0.093,0.62,0.152,1.249,0.163,1.893c0.014,0.882-0.055,1.739-0.185,2.575c0.657-0.378,1.265-0.791,1.84-1.224
		c-0.054,0.607-0.15,1.207-0.279,1.798c-0.606,0.39-1.241,0.758-1.908,1.098c-0.511,1.955-1.337,3.738-2.252,5.279
		c0.512-0.179,0.995-0.387,1.483-0.59c-0.597,0.782-1.271,1.509-2.019,2.161c-0.203,0.063-0.401,0.131-0.607,0.189
		c-0.166,0.233-0.33,0.453-0.494,0.67c-0.461,0.329-0.938,0.64-1.441,0.916L413.047-39.825z"/>
	<path d="M411.781-57.99c-0.326-1.328-0.732-2.587-1.165-3.736c-1.147,0.309-2.387,0.484-3.689,0.484
		c-0.02,0-0.039-0.001-0.059-0.001c-0.047,1.192-0.091,2.492-0.131,3.867c0.063,0,0.126,0.004,0.189,0.004
		C408.642-57.372,410.278-57.594,411.781-57.99z"/>
	<path d="M412.069-56.685c-1.6,0.42-3.331,0.655-5.143,0.655c-0.075,0-0.148-0.005-0.225-0.005c-0.021,0.877-0.04,1.779-0.056,2.7
		c-0.005,0.275-0.008,0.551-0.01,0.826c2.066-0.018,4.043-0.287,5.864-0.767C412.442-54.436,412.288-55.578,412.069-56.685z"/>
	<path d="M412.525-51.903c-1.845,0.463-3.828,0.723-5.896,0.738c0,1.364,0.02,2.711,0.051,4.004c1.889-0.017,3.711-0.215,5.432-0.57
		C412.352-49.05,412.506-50.449,412.525-51.903z"/>
	<path d="M410.253-38.359c0.216-0.059,0.43-0.116,0.641-0.183c0.376-0.355,1.266-1.236,2.288-2.512
		c-0.585,0.122-1.183,0.221-1.787,0.312C410.981-39.778,410.581-38.972,410.253-38.359z"/>
	<path d="M417.044-47.864c-1.187,0.493-2.445,0.905-3.771,1.228c-0.349,1.648-0.814,3.142-1.302,4.444
		c0.834-0.144,1.652-0.315,2.442-0.523C415.406-44.168,416.382-45.917,417.044-47.864z"/>
	<path d="M407.124-37.863c0.467-0.023,0.928-0.069,1.382-0.136c0.242-0.404,0.747-1.294,1.322-2.553
		c-0.938,0.091-1.895,0.142-2.866,0.148C407.021-39.374,407.079-38.51,407.124-37.863z"/>
	<path d="M415.958-59.753c-0.643-1.234-1.387-2.365-2.129-3.36c-0.588,0.371-1.228,0.699-1.924,0.969
		c0.434,1.157,0.838,2.423,1.169,3.761C414.127-58.753,415.095-59.216,415.958-59.753z"/>
	<path d="M411.818-46.324c-1.631,0.306-3.336,0.481-5.101,0.501c0.048,1.477,0.108,2.855,0.17,4.078
		c1.21-0.006,2.394-0.085,3.548-0.223C410.934-43.216,411.432-44.689,411.818-46.324z"/>
	<path d="M413.818-53.665c1.37-0.455,2.629-1.033,3.753-1.712c-0.236-1.104-0.596-2.169-1.037-3.176
		c-0.954,0.581-2.018,1.082-3.167,1.476C413.585-55.974,413.743-54.831,413.818-53.665z"/>
	<path d="M413.538-48.067c1.41-0.374,2.742-0.854,3.967-1.428c0.245-1.075,0.384-2.194,0.364-3.348
		c-0.006-0.384-0.035-0.762-0.075-1.137c-1.193,0.678-2.512,1.251-3.932,1.7C413.869-50.815,413.75-49.4,413.538-48.067z"/>
	<path d="M399.668-46.599c-1.289-0.309-2.521-0.702-3.681-1.172c0.635,1.836,1.546,3.49,2.481,4.883
		c0.794,0.23,1.613,0.426,2.454,0.588C400.455-43.567,400.006-45.009,399.668-46.599z"/>
	<path d="M403.078-40.614c0.613,1.348,1.152,2.285,1.384,2.669c0.435,0.054,0.876,0.091,1.321,0.107
		c-0.047-0.665-0.104-1.546-0.165-2.587C404.757-40.455,403.911-40.519,403.078-40.614z"/>
	<path d="M399.709-41.186c1.286,1.623,2.385,2.638,2.563,2.797c0.152,0.043,0.307,0.082,0.46,0.121
		c-0.347-0.642-0.78-1.51-1.23-2.567C400.895-40.936,400.296-41.053,399.709-41.186z"/>
	<path d="M405.545-41.776c-0.063-1.219-0.122-2.591-0.169-4.056c-1.462-0.051-2.884-0.205-4.251-0.456
		c0.376,1.587,0.858,3.022,1.344,4.243C403.471-41.905,404.497-41.815,405.545-41.776z"/>
	<path d="M399.074-52.247c-1.396-0.434-2.695-0.99-3.876-1.643c-0.033,0.347-0.06,0.695-0.065,1.047
		c-0.019,1.183,0.125,2.327,0.381,3.426c1.206,0.552,2.507,1.014,3.888,1.375C399.189-49.373,399.07-50.784,399.074-52.247z"/>
	<path d="M405.528-61.309c-1.103-0.105-2.147-0.335-3.111-0.664c-0.442,1.145-0.86,2.403-1.201,3.735
		c1.292,0.414,2.7,0.688,4.183,0.802C405.437-58.814,405.482-60.115,405.528-61.309z"/>
	<path d="M400.826-47.708c1.441,0.29,2.952,0.473,4.513,0.531c-0.03-1.294-0.049-2.644-0.049-4.008
		c-1.703-0.073-3.338-0.316-4.88-0.695C400.429-50.428,400.585-49.027,400.826-47.708z"/>
	<path d="M405.306-53.356c0.015-0.934,0.035-1.848,0.056-2.737c-1.569-0.117-3.066-0.404-4.447-0.841
		c-0.245,1.192-0.418,2.429-0.481,3.686c1.526,0.393,3.158,0.646,4.862,0.721C405.298-52.804,405.301-53.08,405.306-53.356z"/>
	<path d="M399.635-57.396c-1.088-0.438-2.086-0.973-2.972-1.584c-0.544,1.16-0.985,2.4-1.252,3.695
		c1.113,0.654,2.354,1.216,3.702,1.655C399.196-54.921,399.38-56.184,399.635-57.396z"/>
	<path d="M401.158-62.483c-0.616-0.292-1.188-0.628-1.699-1.004c-0.751,0.971-1.516,2.089-2.19,3.316
		c0.79,0.562,1.687,1.056,2.673,1.465C400.288-60.057,400.713-61.327,401.158-62.483z"/>
</g>
<g>
</g>
<g>
</g>
<g>
</g>
<g>
</g>
<g>
</g>
<g>
</g>
<g>
</g>
<g>
</g>
<g>
</g>
<g>
</g>
<g>
</g>
<g>
</g>
<g>
</g>
<g>
</g>
<g>
</g>
</svg>
