<?xml version="1.0" encoding="iso-8859-1"?>
<!-- Generator: Adobe Illustrator 16.0.0, SVG Export Plug-In . SVG Version: 6.00 Build 0)  -->
<!DOCTYPE svg PUBLIC "-//W3C//DTD SVG 1.1//EN" "http://www.w3.org/Graphics/SVG/1.1/DTD/svg11.dtd">
<svg version="1.1" id="Layer_1" xmlns="http://www.w3.org/2000/svg" xmlns:xlink="http://www.w3.org/1999/xlink" x="0px" y="0px"
	 width="47.365px" height="50.572px" viewBox="0 0 47.365 50.572" style="enable-background:new 0 0 47.365 50.572;"
	 xml:space="preserve">
<g>
	<polygon points="-191.197,39.214 -193.793,41.093 -197.045,39.109 -195.531,42.556 -198.457,44.581 -195.167,44.54 
		-194.397,47.827 -192.763,44.487 -189.13,44.191 -191.753,42.477 	"/>
	<polygon points="-231.616,6.979 -231.249,8.548 -230.469,6.954 -228.736,6.813 -229.988,5.995 -229.721,4.438 -230.96,5.335 
		-232.512,4.389 -231.79,6.032 -233.185,6.999 	"/>
	<polygon points="-193.615,7.981 -193.248,9.55 -192.468,7.956 -190.735,7.815 -191.987,6.997 -191.72,5.44 -192.959,6.337 
		-194.511,5.391 -193.789,7.034 -195.184,8.001 	"/>
	<path d="M-212.786,28.989c8.557-3.191,12.758-6.471,14.716-8.753c-2.473-5.522-8.007-9.376-14.45-9.376
		c-8.746,0-15.836,7.09-15.836,15.836c0,1.861,0.337,3.639,0.927,5.298C-225.169,32.177-220.816,31.789-212.786,28.989z"/>
	<path d="M-190.467,13.273c-3.32-1.146-5.784-0.594-9.172,2.097l1.922,2.399c1.784-0.433,2.518-0.146,2.213,1.533
		c-0.306,1.68-4.704,6.641-16.862,11.175c-14.005,4.883-16.398,3.021-17.008,2.83c-2.29-0.707-0.896-3.511-0.094-3.739
		c-0.139-1.452-0.177-1.853-0.185-1.924c0.003,0.029,0.009,0.096,0.009,0.096s-2.916,0.396-3.946,2.399
		c-1.03,2.003-1.03,4.942,0.916,7.289c4.083,4.694,16.134,2.264,22.794-0.059c12.615-4.704,21.933-10.89,22.696-17.305
		C-186.858,17.314-187.147,14.418-190.467,13.273z"/>
	<path d="M-209.481,38.916c-3.833,1.336-7.911,1.955-10.906,2.521c2.162,1.109,5.288,2.069,7.885,2.069
		c6.827,0,12.619-4.33,14.84-10.387C-200.868,35.224-204.836,37.184-209.481,38.916z"/>
</g>
<g>
</g>
<g>
</g>
<g>
</g>
<g>
</g>
<g>
</g>
<g>
</g>
<g>
</g>
<g>
</g>
<g>
</g>
<g>
</g>
<g>
</g>
<g>
</g>
<g>
</g>
<g>
</g>
<g>
</g>
</svg>
