<?xml version="1.0" encoding="iso-8859-1"?>
<!-- Generator: Adobe Illustrator 17.1.0, SVG Export Plug-In . SVG Version: 6.00 Build 0)  -->
<!DOCTYPE svg PUBLIC "-//W3C//DTD SVG 1.1//EN" "http://www.w3.org/Graphics/SVG/1.1/DTD/svg11.dtd">
<svg version="1.1" id="Layer_1" xmlns="http://www.w3.org/2000/svg" xmlns:xlink="http://www.w3.org/1999/xlink" x="0px" y="0px"
	 viewBox="0 0 64 64" style="enable-background:new 0 0 64 64;" xml:space="preserve">
<g>
	<path d="M40.248,26h3.732c0.846,0,1.534-0.57,1.534-1.271l0.011-0.103l4.057-19.401C49.553,4.545,48.876,4,48.049,4h-7.41
		C43.302,6.624,45,10.541,45,14.917C45,19.167,43.387,22.878,40.248,26z"/>
	<path d="M21.603,26h3.646c-3.137-3.115-4.75-6.805-4.75-11.021c0-4.402,1.703-8.344,4.375-10.979h-7.34c0,0,0,0,0,0
		c-0.827,0-1.503,0.545-1.533,1.225l4.068,19.504C20.069,25.43,20.757,26,21.603,26z"/>
	<polygon points="21.603,27 21.602,27 21.603,27 	"/>
	<path d="M39.516,44.699c-2.098,0.723-4.376,1.134-6.766,1.134c-2.57,0-5.018-0.463-7.244-1.293l-2.511,17.261
		C23,62.43,23.673,63,24.5,63h16c0.827,0,1.5-0.57,1.5-1.271L39.516,44.699z"/>
	<path d="M14,31h0.358h0.485h0.521c0.509,5.278,4.159,9.792,9.341,12.127c0.17,0.077,0.348,0.143,0.521,0.215
		c0.142,0.059,0.283,0.12,0.427,0.176c2.171,0.838,4.568,1.316,7.095,1.316c2.343,0,4.577-0.405,6.621-1.131
		c0.146-0.052,0.286-0.112,0.43-0.167c0.176-0.067,0.347-0.142,0.519-0.214c5.428-2.269,9.291-6.886,9.815-12.322h0.525h0.482H52
		c0.829,0,1.5-0.671,1.5-1.5S52.829,28,52,28H37.955h-0.168H27.714h-0.168H14c-0.829,0-1.5,0.671-1.5,1.5S13.171,31,14,31z"/>
	<path d="M26.697,26c0.38,0.339,0.764,0.676,1.186,1h9.735c0.421-0.323,0.805-0.661,1.185-1C42.242,22.925,44,19.208,44,14.917
		c0-4.52-1.923-8.514-4.849-10.917c-0.459-0.377-0.945-0.706-1.449-1c-1.497-0.872-3.173-1.375-4.952-1.375
		c-1.774,0-3.447,0.503-4.94,1.375c-0.504,0.294-0.99,0.623-1.448,1C23.428,6.413,21.5,10.432,21.5,14.979
		C21.5,19.233,23.258,22.93,26.697,26z"/>
</g>
</svg>
