<?xml version="1.0" encoding="iso-8859-1"?>
<!-- Generator: Adobe Illustrator 17.1.0, SVG Export Plug-In . SVG Version: 6.00 Build 0)  -->
<!DOCTYPE svg PUBLIC "-//W3C//DTD SVG 1.1//EN" "http://www.w3.org/Graphics/SVG/1.1/DTD/svg11.dtd">
<svg version="1.1" id="Layer_1" xmlns="http://www.w3.org/2000/svg" xmlns:xlink="http://www.w3.org/1999/xlink" x="0px" y="0px"
	 viewBox="0 0 64 64" style="enable-background:new 0 0 64 64;" xml:space="preserve">
<g>
	<path d="M50,36v-7c0-0.55-0.45-1-1-1h-2c-0.55,0-1.45,0-2,0s-1.45,0-2,0h-3.684c-0.908-1.52-2.358-2.677-4.089-3.196
		C35.686,24.548,36,24.063,36,23.5c0-0.828-0.672-1.5-1.5-1.5H34v-2h4.5c0.828,0,1.5-0.672,1.5-1.5S39.328,17,38.5,17H34
		c0-0.552-0.333-1-1-1s-1,0.448-1,1h-4.5c-0.828,0-1.5,0.672-1.5,1.5s0.672,1.5,1.5,1.5H32v2h-0.5c-0.828,0-1.5,0.672-1.5,1.5
		c0,0.614,0.37,1.14,0.898,1.372c-1.241,0.414-2.329,1.157-3.164,2.128H20v-3c0-1.105-0.895-2-2-2s-2,0.895-2,2v15
		c0,1.105,0.895,2,2,2s2-0.895,2-2v-4h6.825c1.2,2.278,3.588,3.833,6.342,3.833c3.502,0,6.412-2.513,7.038-5.833H43
		c0.55,0,1,0.45,1,1v2c-0.55,0-1,0.45-1,1v2c0,0.55,0.45,1,1,1h6c0.55,0,1-0.45,1-1v-2C51,36.45,50.55,36,50,36z"/>
	<path d="M42.625,52.066c0,2.313,1.875,4.188,4.188,4.188S51,54.379,51,52.066c0-2.313-4.188-8.319-4.188-8.319
		S42.625,49.753,42.625,52.066z"/>
</g>
</svg>
