<?xml version="1.0" encoding="iso-8859-1"?>
<!-- Generator: Adobe Illustrator 17.1.0, SVG Export Plug-In . SVG Version: 6.00 Build 0)  -->
<!DOCTYPE svg PUBLIC "-//W3C//DTD SVG 1.1//EN" "http://www.w3.org/Graphics/SVG/1.1/DTD/svg11.dtd">
<svg version="1.1" id="Layer_1" xmlns="http://www.w3.org/2000/svg" xmlns:xlink="http://www.w3.org/1999/xlink" x="0px" y="0px"
	 viewBox="0 0 64 64" style="enable-background:new 0 0 64 64;" xml:space="preserve">
<g>
	<path d="M24,54h33V12H24V54z M41,49c0,1.105-0.895,2-2,2h-9c-1.105,0-2-0.895-2-2v-3c0-1.105,0.895-2,2-2h9c1.105,0,2,0.895,2,2V49
		z M54,51h-9v-5h9V51z M52,45h-1v-2h1V45z M50,45h-1v-2h1V45z M48,45h-1v-2h1V45z M46,45h-1v-2h1V45z M54,45h-1v-2h1V45z M54,36
		c0,1.105-0.895,2-2,2h-9c-1.105,0-2-0.895-2-2v-3c0-1.105,0.895-2,2-2h9c1.105,0,2,0.895,2,2V36z M37,16v2h-1v-2H37z M35,16v2h-1
		v-2H35z M33,16v2h-1v-2H33z M31,16v2h-1v-2H31z M28,16h1v2h-1V16z M28,19h9v5h-9V19z M27,25h27v1H27V25z M32,34l-2-4h9l-2,4H32z
		 M37,35v3h-5v-3H37z M30,29v-1h9v1H30z M27,39h27v1H27V39z"/>
	<polygon points="5,63.167 23,53.727 23,12.394 5,3 	"/>
	<path d="M50.694,32h-6.389C43.586,32,43,32.586,43,33.306v2.389C43,36.414,43.586,37,44.306,37h6.389
		C51.414,37,52,36.414,52,35.694v-2.389C52,32.586,51.414,32,50.694,32z M51,35.694C51,35.863,50.863,36,50.694,36h-6.389
		C44.137,36,44,35.863,44,35.694v-2.389C44,33.137,44.137,33,44.306,33h6.389C50.863,33,51,33.137,51,33.306V35.694z"/>
	<path d="M37.694,45h-6.389C30.586,45,30,45.586,30,46.306v2.389C30,49.414,30.586,50,31.306,50h6.389
		C38.414,50,39,49.414,39,48.694v-2.389C39,45.586,38.414,45,37.694,45z M38,48.694C38,48.863,37.863,49,37.694,49h-6.389
		C31.137,49,31,48.863,31,48.694v-2.389C31,46.137,31.137,46,31.306,46h6.389C37.863,46,38,46.137,38,46.306V48.694z"/>
</g>
</svg>
