<?xml version="1.0" encoding="iso-8859-1"?>
<!-- Generator: Adobe Illustrator 17.1.0, SVG Export Plug-In . SVG Version: 6.00 Build 0)  -->
<!DOCTYPE svg PUBLIC "-//W3C//DTD SVG 1.1//EN" "http://www.w3.org/Graphics/SVG/1.1/DTD/svg11.dtd">
<svg version="1.1" id="Layer_1" xmlns="http://www.w3.org/2000/svg" xmlns:xlink="http://www.w3.org/1999/xlink" x="0px" y="0px"
	 viewBox="0 0 64 64" style="enable-background:new 0 0 64 64;" xml:space="preserve">
<g>
	<path d="M55.5,16.457C55.136,16.789,54.607,17,54,17s-1.136-0.211-1.5-0.543C52.136,16.789,51.607,17,51,17s-1.136-0.211-1.5-0.543
		C49.136,16.789,48.607,17,48,17s-1.136-0.211-1.5-0.543C46.136,16.789,45.607,17,45,17s-1.136-0.211-1.5-0.543
		C43.136,16.789,42.607,17,42,17s-1.136-0.211-1.5-0.543C40.136,16.789,39.607,17,39,17s-1.136-0.211-1.5-0.543
		C37.136,16.789,36.607,17,36,17s-1.136-0.211-1.5-0.543C34.136,16.789,33.607,17,33,17s-1.136-0.211-1.5-0.543
		C31.136,16.789,30.607,17,30,17s-1.136-0.211-1.5-0.543C28.136,16.789,27.607,17,27,17s-1.136-0.211-1.5-0.543
		C25.136,16.789,24.607,17,24,17s-1.136-0.211-1.5-0.543C22.136,16.789,21.607,17,21,17s-1.136-0.211-1.5-0.543
		C19.136,16.789,18.607,17,18,17s-1.136-0.211-1.5-0.543C16.136,16.789,15.607,17,15,17s-1.136-0.211-1.5-0.543
		C13.136,16.789,12.607,17,12,17c-0.369,0-0.706-0.082-1-0.217V58h47V16.783C57.706,16.918,57.369,17,57,17
		C56.393,17,55.864,16.789,55.5,16.457z M16.562,51.625c-0.863,0-1.562-0.7-1.562-1.562c0-0.863,0.7-1.562,1.562-1.562
		s1.562,0.7,1.562,1.562C18.125,50.925,17.425,51.625,16.562,51.625z M16.562,38.625c-0.863,0-1.562-0.7-1.562-1.562
		c0-0.863,0.7-1.562,1.562-1.562s1.562,0.7,1.562,1.562C18.125,37.925,17.425,38.625,16.562,38.625z M16.562,25.625
		c-0.863,0-1.562-0.7-1.562-1.562c0-0.863,0.7-1.562,1.562-1.562s1.562,0.7,1.562,1.562C18.125,24.925,17.425,25.625,16.562,25.625z
		 M20.562,45.625c-0.863,0-1.562-0.7-1.562-1.562c0-0.863,0.7-1.562,1.562-1.562s1.562,0.7,1.562,1.562
		C22.125,44.925,21.425,45.625,20.562,45.625z M20.562,32.625c-0.863,0-1.562-0.7-1.562-1.562c0-0.863,0.7-1.562,1.562-1.562
		s1.562,0.7,1.562,1.562C22.125,31.925,21.425,32.625,20.562,32.625z M25.562,51.625c-0.863,0-1.562-0.7-1.562-1.562
		c0-0.863,0.7-1.562,1.562-1.562s1.562,0.7,1.562,1.562C27.125,50.925,26.425,51.625,25.562,51.625z M25.562,38.625
		c-0.863,0-1.562-0.7-1.562-1.562c0-0.863,0.7-1.562,1.562-1.562s1.562,0.7,1.562,1.562C27.125,37.925,26.425,38.625,25.562,38.625z
		 M25.562,25.625c-0.863,0-1.562-0.7-1.562-1.562c0-0.863,0.7-1.562,1.562-1.562s1.562,0.7,1.562,1.562
		C27.125,24.925,26.425,25.625,25.562,25.625z M29.562,45.625c-0.863,0-1.562-0.7-1.562-1.562c0-0.863,0.7-1.562,1.562-1.562
		s1.562,0.7,1.562,1.562C31.125,44.925,30.425,45.625,29.562,45.625z M29.562,32.625c-0.863,0-1.562-0.7-1.562-1.562
		c0-0.863,0.7-1.562,1.562-1.562s1.562,0.7,1.562,1.562C31.125,31.925,30.425,32.625,29.562,32.625z M34.562,51.625
		c-0.863,0-1.562-0.7-1.562-1.562c0-0.863,0.7-1.562,1.562-1.562s1.562,0.7,1.562,1.562C36.125,50.925,35.425,51.625,34.562,51.625z
		 M34.562,38.625c-0.863,0-1.562-0.7-1.562-1.562c0-0.863,0.7-1.562,1.562-1.562s1.562,0.7,1.562,1.562
		C36.125,37.925,35.425,38.625,34.562,38.625z M34.562,25.625c-0.863,0-1.562-0.7-1.562-1.562c0-0.863,0.7-1.562,1.562-1.562
		s1.562,0.7,1.562,1.562C36.125,24.925,35.425,25.625,34.562,25.625z M38.562,45.625c-0.863,0-1.562-0.7-1.562-1.562
		c0-0.863,0.7-1.562,1.562-1.562s1.562,0.7,1.562,1.562C40.125,44.925,39.425,45.625,38.562,45.625z M38.562,32.625
		c-0.863,0-1.562-0.7-1.562-1.562c0-0.863,0.7-1.562,1.562-1.562s1.562,0.7,1.562,1.562C40.125,31.925,39.425,32.625,38.562,32.625z
		 M43.562,51.625c-0.863,0-1.562-0.7-1.562-1.562c0-0.863,0.7-1.562,1.562-1.562s1.562,0.7,1.562,1.562
		C45.125,50.925,44.425,51.625,43.562,51.625z M43.562,38.625c-0.863,0-1.562-0.7-1.562-1.562c0-0.863,0.7-1.562,1.562-1.562
		s1.562,0.7,1.562,1.562C45.125,37.925,44.425,38.625,43.562,38.625z M43.562,25.625c-0.863,0-1.562-0.7-1.562-1.562
		c0-0.863,0.7-1.562,1.562-1.562s1.562,0.7,1.562,1.562C45.125,24.925,44.425,25.625,43.562,25.625z M47.562,45.625
		c-0.863,0-1.562-0.7-1.562-1.562c0-0.863,0.7-1.562,1.562-1.562s1.562,0.7,1.562,1.562C49.125,44.925,48.425,45.625,47.562,45.625z
		 M47.562,32.625c-0.863,0-1.562-0.7-1.562-1.562c0-0.863,0.7-1.562,1.562-1.562s1.562,0.7,1.562,1.562
		C49.125,31.925,48.425,32.625,47.562,32.625z M52.562,51.625c-0.863,0-1.562-0.7-1.562-1.562c0-0.863,0.7-1.562,1.562-1.562
		s1.562,0.7,1.562,1.562C54.125,50.925,53.425,51.625,52.562,51.625z M52.562,38.625c-0.863,0-1.562-0.7-1.562-1.562
		c0-0.863,0.7-1.562,1.562-1.562s1.562,0.7,1.562,1.562C54.125,37.925,53.425,38.625,52.562,38.625z M52.562,25.625
		c-0.863,0-1.562-0.7-1.562-1.562c0-0.863,0.7-1.562,1.562-1.562s1.562,0.7,1.562,1.562C54.125,24.925,53.425,25.625,52.562,25.625z
		"/>
	<path d="M10,11H7.5C6.672,11,6,11.672,6,12.5S6.672,14,7.5,14H10V11z"/>
	<path d="M60.5,11H59v3h1.5c0.828,0,1.5-0.672,1.5-1.5S61.328,11,60.5,11z"/>
	<path d="M39,16c0.589,0,1-0.32,1-0.606V15v-1v-3v-0.769c0-0.287-0.411-0.606-1-0.606s-1,0.32-1,0.606V11v3v1v0.394
		C38,15.68,38.411,16,39,16z"/>
	<path d="M36,16c0.589,0,1-0.32,1-0.606V15v-1v-3v-0.769c0-0.287-0.411-0.606-1-0.606s-1,0.32-1,0.606V11v3v1v0.394
		C35,15.68,35.411,16,36,16z"/>
	<path d="M42,16c0.589,0,1-0.32,1-0.606V15v-1v-3v-0.769c0-0.287-0.411-0.606-1-0.606s-1,0.32-1,0.606V11v3v1v0.394
		C41,15.68,41.411,16,42,16z"/>
	<polygon points="40,10.231 40,10.231 40,10.23 	"/>
	<polygon points="40,15.396 40,15.394 40,15.394 	"/>
	<path d="M45,16c0.589,0,1-0.32,1-0.606V15v-1v-3v-0.769c0-0.287-0.411-0.606-1-0.606s-1,0.32-1,0.606V11v3v1v0.394
		C44,15.68,44.411,16,45,16z"/>
	<polygon points="43,10.231 43,10.231 43,10.23 	"/>
	<polygon points="43,15.396 43,15.394 43,15.394 	"/>
	<path d="M48,16c0.589,0,1-0.32,1-0.606V15v-1v-3v-0.769c0-0.287-0.411-0.606-1-0.606s-1,0.32-1,0.606V11v3v1v0.394
		C47,15.68,47.411,16,48,16z"/>
	<polygon points="46,10.231 46,10.231 46,10.23 	"/>
	<polygon points="46,15.396 46,15.394 46,15.394 	"/>
	<path d="M51,16c0.589,0,1-0.32,1-0.606V15v-1v-3v-0.769c0-0.287-0.411-0.606-1-0.606s-1,0.32-1,0.606V11v3v1v0.394
		C50,15.68,50.411,16,51,16z"/>
	<polygon points="49,10.231 49,10.231 49,10.23 	"/>
	<polygon points="49,15.396 49,15.394 49,15.394 	"/>
	<path d="M54,16c0.589,0,1-0.32,1-0.606V15v-1v-3v-0.769c0-0.287-0.411-0.606-1-0.606s-1,0.32-1,0.606V11v3v1v0.394
		C53,15.68,53.411,16,54,16z"/>
	<polygon points="52,10.231 52,10.231 52,10.23 	"/>
	<polygon points="52,15.396 52,15.394 52,15.394 	"/>
	<path d="M57,9.625c-0.589,0-1,0.32-1,0.606V11v3v1v0.394C56,15.68,56.411,16,57,16s1-0.32,1-0.606V15v-1v-3v-0.769
		C58,9.945,57.589,9.625,57,9.625z"/>
	<polygon points="55,10.231 55,10.231 55,10.23 	"/>
	<polygon points="55,15.396 55,15.394 55,15.394 	"/>
	<path d="M15,16c0.589,0,1-0.32,1-0.606V15v-1v-3v-0.769c0-0.287-0.411-0.606-1-0.606s-1,0.32-1,0.606V11v3v1v0.394
		C14,15.68,14.411,16,15,16z"/>
	<polygon points="10,10.231 10,10.231 10,10.23 	"/>
	<path d="M12,16c0.589,0,1-0.32,1-0.606V15v-1v-3v-0.769c0-0.287-0.411-0.606-1-0.606s-1,0.32-1,0.606V11v3v1v0.394
		C11,15.68,11.411,16,12,16z"/>
	<polygon points="10,15.394 10,15.396 10,15.394 	"/>
	<path d="M18,16c0.589,0,1-0.32,1-0.606V15v-1v-3v-0.769c0-0.287-0.411-0.606-1-0.606s-1,0.32-1,0.606V11v3v1v0.394
		C17,15.68,17.411,16,18,16z"/>
	<polygon points="16,10.231 16,10.231 16,10.23 	"/>
	<polygon points="16,15.396 16,15.394 16,15.394 	"/>
	<path d="M21,16c0.589,0,1-0.32,1-0.606V15v-1v-3v-0.769c0-0.287-0.411-0.606-1-0.606s-1,0.32-1,0.606V11v3v1v0.394
		C20,15.68,20.411,16,21,16z"/>
	<polygon points="19,10.231 19,10.231 19,10.23 	"/>
	<polygon points="19,15.396 19,15.394 19,15.394 	"/>
	<path d="M24,16c0.589,0,1-0.32,1-0.606V15v-1v-3v-0.769c0-0.287-0.411-0.606-1-0.606s-1,0.32-1,0.606V11v3v1v0.394
		C23,15.68,23.411,16,24,16z"/>
	<polygon points="22,10.231 22,10.231 22,10.23 	"/>
	<polygon points="22,15.396 22,15.394 22,15.394 	"/>
	<path d="M27,16c0.589,0,1-0.32,1-0.606V15v-1v-3v-0.769c0-0.287-0.411-0.606-1-0.606s-1,0.32-1,0.606V11v3v1v0.394
		C26,15.68,26.411,16,27,16z"/>
	<polygon points="25,10.231 25,10.231 25,10.23 	"/>
	<polygon points="25,15.396 25,15.394 25,15.394 	"/>
	<path d="M30,16c0.589,0,1-0.32,1-0.606V15v-1v-3v-0.769c0-0.287-0.411-0.606-1-0.606s-1,0.32-1,0.606V11v3v1v0.394
		C29,15.68,29.411,16,30,16z"/>
	<polygon points="28,10.231 28,10.231 28,10.23 	"/>
	<polygon points="28,15.396 28,15.394 28,15.394 	"/>
	<path d="M33,16c0.589,0,1-0.32,1-0.606V15v-1v-3v-0.769c0-0.287-0.411-0.606-1-0.606s-1,0.32-1,0.606V11v3v1v0.394
		C32,15.68,32.411,16,33,16z"/>
	<polygon points="31,10.231 31,10.231 31,10.23 	"/>
	<polygon points="31,15.396 31,15.394 31,15.394 	"/>
</g>
</svg>
