<?xml version="1.0" encoding="iso-8859-1"?>
<!-- Generator: Adobe Illustrator 17.1.0, SVG Export Plug-In . SVG Version: 6.00 Build 0)  -->
<!DOCTYPE svg PUBLIC "-//W3C//DTD SVG 1.1//EN" "http://www.w3.org/Graphics/SVG/1.1/DTD/svg11.dtd">
<svg version="1.1" id="Layer_1" xmlns="http://www.w3.org/2000/svg" xmlns:xlink="http://www.w3.org/1999/xlink" x="0px" y="0px"
	 viewBox="0 0 64 64" style="enable-background:new 0 0 64 64;" xml:space="preserve">
<g>
	<path d="M37.687,14c0.027-1,0.046-0.654,0.046-0.912c0-3.613-2.803-6.617-6.261-6.617s-6.261,3.042-6.261,6.654
		c0,0.258,0.018-0.126,0.046,0.874h0.492H37.687z"/>
	<path d="M40,28.249V22h-1.055H38v-4h1v-2h-1.201H25.495H25.2H24v2h1v4h-0.945H23v6.357c-2,0.929-4,2.978-4,5.364v17.987
		C19,54.964,22.257,58,25.161,58h12.975C41.039,58,44,54.964,44,51.708V33.72C44,31.233,42,29.115,40,28.249z"/>
</g>
</svg>
