<?xml version="1.0" encoding="utf-8"?>
<!-- Generator: Adobe Illustrator 17.1.0, SVG Export Plug-In . SVG Version: 6.00 Build 0)  -->
<!DOCTYPE svg PUBLIC "-//W3C//DTD SVG 1.1//EN" "http://www.w3.org/Graphics/SVG/1.1/DTD/svg11.dtd">
<svg version="1.1" id="Layer_1" xmlns="http://www.w3.org/2000/svg" xmlns:xlink="http://www.w3.org/1999/xlink" x="0px" y="0px"
	 viewBox="0 0 128 128" enable-background="new 0 0 128 128" xml:space="preserve">
<g>
	<path d="M81,121.5l-8-61.6c0-0.4-0.1-0.7-0.2-1c-3.6,1.1-7.4,1.7-11.3,1.7c-3.6,0-7.1-0.5-10.4-1.4C51,59.4,51,59.7,51,59.9
		l-8,61.7c0,1.5,1.4,2.4,3,2.4h32C79.7,124,81,123.1,81,121.5z"/>
	<path d="M25.6,28c0,0,1,0,1,0H27c0,0,0.6,0,0.6,0c-0.3,0,0.8,6.7,1,7.3c0.6,2.3,1.5,4.5,2.7,6.5c2.3,4.1,5.6,7.5,9.5,10.1
		c10,6.7,22.4,8.5,33.7,4.1c3.4-1.3,6.6-3.1,9.5-5.3C91.1,45.3,95.3,37,95.4,28c0,0,1,0,1,0h1H99c1.1,0,2-0.9,2-2s-0.9-2-2-2H84v-6
		h2.1c1.1,0,1.9,0.1,1.9-1v-0.2c0-1.1-0.9-2.9-1.9-2.9h-8.2c-1.1,0-1.9,1.8-1.9,2.9V17c0,1.1,0.9,1,1.9,1H80v6H69l-1.4-9.9
		c0-2-1-3.8-1.7-4.4l0,5.2c0,2.2-1.8,4.1-4,4.1c-0.2,0-0.3,0-0.5,0C59.5,18.6,58,17,58,15v-5c-1.1,1-1.8,2.1-1.8,3.9L54.1,24H42v-6
		h2.1c1.1,0,1.9,0.1,1.9-1v-0.2c0-1.1-0.9-2.9-1.9-2.9h-8.2c-1.1,0-1.9,1.8-1.9,2.9V17c0,1.1,0.9,1,1.9,1H38v6H23c-1.1,0-2,0.9-2,2
		s0.9,2,2,2H25.6z"/>
	<path d="M62,17c1.1,0,2-0.9,2-2V9.3v-2C64,5.8,63,5,62,5c-1.3,0-2,1.2-2,2.2V9V15C60,16.1,60.9,17,62,17z"/>
</g>
</svg>
