<?xml version="1.0" encoding="utf-8"?>
<!-- Generator: Adobe Illustrator 17.1.0, SVG Export Plug-In . SVG Version: 6.00 Build 0)  -->
<!DOCTYPE svg PUBLIC "-//W3C//DTD SVG 1.1//EN" "http://www.w3.org/Graphics/SVG/1.1/DTD/svg11.dtd">
<svg version="1.1" id="Layer_1" xmlns="http://www.w3.org/2000/svg" xmlns:xlink="http://www.w3.org/1999/xlink" x="0px" y="0px"
	 viewBox="0 0 128 128" enable-background="new 0 0 128 128" xml:space="preserve">
<path d="M64,4.7C31.2,4.7,4.7,31.2,4.7,64s26.6,59.3,59.3,59.3s59.3-26.6,59.3-59.3S96.8,4.7,64,4.7z M56.1,101.6H42.2
	c-1.6,0-3-1.3-3-3c0-1.6,1.3-3,3-3h13.8c1.6,0,3,1.3,3,3C59.1,100.2,57.7,101.6,56.1,101.6z M56.1,91.7H36.3c-1.6,0-3-1.3-3-3
	c0-1.6,1.3-3,3-3h19.8c1.6,0,3,1.3,3,3C59.1,90.4,57.7,91.7,56.1,91.7z M56.1,81.8H30.4c-1.6,0-3-1.3-3-3c0-1.6,1.3-3,3-3h25.7
	c1.6,0,3,1.3,3,3C59.1,80.5,57.7,81.8,56.1,81.8z M56.1,71.9H24.4c-1.6,0-3-1.3-3-3s1.3-3,3-3h31.6c1.6,0,3,1.3,3,3
	C59.1,70.6,57.7,71.9,56.1,71.9z M56.1,62H24.4c-1.6,0-3-1.3-3-3s1.3-3,3-3h31.6c1.6,0,3,1.3,3,3C59.1,60.7,57.7,62,56.1,62z
	 M56.1,52.1H30.4c-1.6,0-3-1.3-3-3c0-1.6,1.3-3,3-3h25.7c1.6,0,3,1.3,3,3C59.1,50.8,57.7,52.1,56.1,52.1z M56.1,42.2H36.3
	c-1.6,0-3-1.3-3-3c0-1.6,1.3-3,3-3h19.8c1.6,0,3,1.3,3,3C59.1,40.9,57.7,42.2,56.1,42.2z M56.1,32.4H42.2c-1.6,0-3-1.3-3-3
	s1.3-3,3-3h13.8c1.6,0,3,1.3,3,3C59.1,31,57.7,32.4,56.1,32.4z M71.9,26.4h13.8c1.6,0,3,1.3,3,3s-1.3,3-3,3H71.9c-1.6,0-3-1.3-3-3
	S70.3,26.4,71.9,26.4z M71.9,36.3h19.8c1.6,0,3,1.3,3,3c0,1.6-1.3,3-3,3H71.9c-1.6,0-3-1.3-3-3C68.9,37.6,70.3,36.3,71.9,36.3z
	 M71.9,46.2h25.7c1.6,0,3,1.3,3,3c0,1.6-1.3,3-3,3H71.9c-1.6,0-3-1.3-3-3C68.9,47.5,70.3,46.2,71.9,46.2z M71.9,56.1h31.6
	c1.6,0,3,1.3,3,3s-1.3,3-3,3H71.9c-1.6,0-3-1.3-3-3S70.3,56.1,71.9,56.1z M85.8,101.6H71.9c-1.6,0-3-1.3-3-3c0-1.6,1.3-3,3-3h13.8
	c1.6,0,3,1.3,3,3C88.7,100.2,87.4,101.6,85.8,101.6z M91.7,91.7H71.9c-1.6,0-3-1.3-3-3c0-1.6,1.3-3,3-3h19.8c1.6,0,3,1.3,3,3
	C94.7,90.4,93.3,91.7,91.7,91.7z M97.6,81.8H71.9c-1.6,0-3-1.3-3-3c0-1.6,1.3-3,3-3h25.7c1.6,0,3,1.3,3,3
	C100.6,80.5,99.3,81.8,97.6,81.8z M103.6,71.9H71.9c-1.6,0-3-1.3-3-3s1.3-3,3-3h31.6c1.6,0,3,1.3,3,3
	C106.5,70.6,105.2,71.9,103.6,71.9z"/>
</svg>
