<?xml version="1.0" encoding="iso-8859-1"?>
<!-- Generator: Adobe Illustrator 17.1.0, SVG Export Plug-In . SVG Version: 6.00 Build 0)  -->
<!DOCTYPE svg PUBLIC "-//W3C//DTD SVG 1.1//EN" "http://www.w3.org/Graphics/SVG/1.1/DTD/svg11.dtd">
<svg version="1.1" id="Layer_1" xmlns="http://www.w3.org/2000/svg" xmlns:xlink="http://www.w3.org/1999/xlink" x="0px" y="0px"
	 viewBox="0 0 64 64" style="enable-background:new 0 0 64 64;" xml:space="preserve">
<g>
	<rect x="21" y="45" width="21" height="14"/>
	<path d="M16.833,35c0,4.694,1.831,8.545,4.167,8.959V44h0.417h20.349c0,0,0.196,0.048,0.031-0.082
		c-1.964-1.543-2.964-4.361-2.964-8.918c0-4.513,1.708-8.417,2.898-8.9c0.216-0.088,0.049-0.1,0.049-0.1H23.417H23h-1.583
		c-0.141,0-0.279,0.017-0.417,0.041c-2.167,0.384-3.897,3.728-4.136,7.959H13V17h38v17h-2.031c-0.233-4.12-1.88-7.397-3.969-7.919
		C44.809,26.033,44.615,26,44.417,26c-2.531,0-4.583,4.029-4.583,9c0,4.971,2.052,9,4.583,9c0.198,0,0.392-0.033,0.583-0.081
		c2.255-0.564,4-4.338,4-8.919h2h1v-1V17v-1v-3H12v3v1v17v1h1H16.833z M44.417,32.562c0.054,0,0.106,0.009,0.158,0.022
		c0.435,0.109,0.795,0.661,0.97,1.416h-2.257C43.482,33.154,43.913,32.562,44.417,32.562z M44.575,37.416
		c-0.052,0.013-0.104,0.022-0.158,0.022c-0.686,0-1.241-1.091-1.241-2.438h2.483C45.658,36.241,45.185,37.263,44.575,37.416z"/>
</g>
</svg>
