<?xml version="1.0" encoding="iso-8859-1"?>
<!-- Generator: Adobe Illustrator 17.1.0, SVG Export Plug-In . SVG Version: 6.00 Build 0)  -->
<!DOCTYPE svg PUBLIC "-//W3C//DTD SVG 1.1//EN" "http://www.w3.org/Graphics/SVG/1.1/DTD/svg11.dtd">
<svg version="1.1" id="Layer_1" xmlns="http://www.w3.org/2000/svg" xmlns:xlink="http://www.w3.org/1999/xlink" x="0px" y="0px"
	 viewBox="0 0 64 64" style="enable-background:new 0 0 64 64;" xml:space="preserve">
<g>
	<path d="M45,60l-2-33c0-1.105-0.895-2-2-2H24c-1.105,0-2,0.895-2,2l-2,33c0,1.105,0.895,2,2,2h21C44.105,62,45,61.105,45,60z"/>
	<path d="M18,14v-2.875l13.025,1.628C31.011,12.834,31,12.915,31,13v6h-5c-1.105,0-2,0.895-2,2v1c0,1.105,0.895,2,2,2h12
		c1.105,0,2-0.895,2-2v-1c0-1.105-0.895-2-2-2h-4v-6c0-0.09-0.011-0.177-0.026-0.263C34.583,12.394,35,11.749,35,11V9
		c0-0.172-0.04-0.336-0.064-0.499c-0.103-0.71-0.925-0.373-1.319-0.308c-0.921,0.151-2.376,0.516-4.2,0.516
		C24.167,8.708,24.188,7,21.208,7C20.896,7,17,7,17,7c-1.105,0-2,0.895-2,2v2v3c0,1.105,0.741,2,1.5,2S18,15.105,18,14z"/>
</g>
</svg>
