<?xml version="1.0" encoding="iso-8859-1"?>
<!-- Generator: Adobe Illustrator 17.1.0, SVG Export Plug-In . SVG Version: 6.00 Build 0)  -->
<!DOCTYPE svg PUBLIC "-//W3C//DTD SVG 1.1//EN" "http://www.w3.org/Graphics/SVG/1.1/DTD/svg11.dtd">
<svg version="1.1" id="Layer_1" xmlns="http://www.w3.org/2000/svg" xmlns:xlink="http://www.w3.org/1999/xlink" x="0px" y="0px"
	 viewBox="0 0 64 64" style="enable-background:new 0 0 64 64;" xml:space="preserve">
<g>
	<path d="M25,26.078c0-1.105-0.406-2-2-2V22h-5v2.078c-1,0-2,0.895-2,2V31h9V26.078z"/>
	<path d="M44,26.078c0-1.105-0.422-2-2-2V22h-5v2.078c-1,0-2,0.895-2,2V31h9V26.078z"/>
	<rect x="33" y="44" width="11" height="2"/>
	<rect x="33" y="40" width="11" height="3"/>
	<path d="M44,55.842c0,1.048,0.329,1.992,1.641,1.992c1.703,0,1.737-1.807,1.734-1.898c-0.008-0.275-0.185-0.491-0.468-0.485
		c-0.275,0.005-0.473,0.233-0.469,0.508c0.002,0.136,0.113,0.876-0.782,0.876c-0.652,0-0.656-0.476-0.656-1.003V53h1.208
		C47.104,53,48,52.224,48,51.035v-2.958v-1v-0.5v-1v-0.5v-9.744v-2.256v-1v-0.5v-1v-0.5v-10.7v-0.21l-0.148-0.09L34,10.652V8.388
		c0-2.367-1.757-4.222-4-4.222c-2.28,0-4,1.779-4,4.138v2.5l-12.866,8.274L13,19.164v0.229v10.685v1v1v1v2.256v9.744v1v1v1v3.021
		C13,51.766,13.268,53,14.319,53H17v3.035c0,0.041-0.016,0.798-0.675,0.798c-0.831,0-0.854-0.737-0.849-0.863
		c0.012-0.274-0.147-0.508-0.422-0.521c-0.294-0.035-0.485,0.198-0.498,0.475c-0.004,0.092-0.091,1.908,1.758,1.908
		c1.249,0,1.686-0.901,1.686-2.001V53h15.673H44V55.842z M27,11.078V8.305c0-1.789,1.29-3.138,3-3.138c1.682,0,3,1.415,3,3.222
		v2.518C33,11.043,46.6,20,46.6,20H14.031C14.031,20,27,11.247,27,11.078z M14,30.078V21h33v9.078V32h-2.328h-9h-10h-9H14V30.078z
		 M14,33.078V33h2.672h9H47v4h-4.156C43.949,37,44,35.182,44,34.078V34h-8.999c0.003,1.112,0.136,3,0.999,3H23.878
		C24.983,37,25,35.182,25,34.078V34h-9v0.078C16,35.182,16.005,37,17.109,37H14V33.078z M14,45.078V38c0,0,1.176,0,1.489,0
		l31.532-0.004L47,47h-2.328h-11H14V45.078z M33,49v3H14.896C14.366,52,14,51.349,14,50.722v-2.645V48h19.672h11H47v0.078v2.375
		C47,50.86,46.938,52,45.979,52H44v-3H33z"/>
	<path d="M35,34L35,34c0.001-0.015,0-0.033,0-0.047V34z"/>
</g>
</svg>
