<?xml version="1.0" encoding="iso-8859-1"?>
<!-- Generator: Adobe Illustrator 17.1.0, SVG Export Plug-In . SVG Version: 6.00 Build 0)  -->
<!DOCTYPE svg PUBLIC "-//W3C//DTD SVG 1.1//EN" "http://www.w3.org/Graphics/SVG/1.1/DTD/svg11.dtd">
<svg version="1.1" id="Layer_1" xmlns="http://www.w3.org/2000/svg" xmlns:xlink="http://www.w3.org/1999/xlink" x="0px" y="0px"
	 viewBox="0 0 64 64" style="enable-background:new 0 0 64 64;" xml:space="preserve">
<g>
	<path d="M61,41.333V37H4v4.333C4,43.082,5.918,45,7.667,45h50.667C60.082,45,61,43.082,61,41.333z"/>
	<path d="M60.049,35l-10.453-9H16.639L5.819,35H60.049z M44.21,26.556c0.244,0.007,1.03,0.702,2.053,1.904
		c1.629,1.913,3.369,4.505,2.745,4.44c-0.614-0.065-2.784-2.652-4.012-4.507C44.219,27.219,43.967,26.548,44.21,26.556z
		 M32.471,28.26c0.106-1.072,0.353-1.584,0.584-1.454c0.233,0.131,0.487,0.936,0.601,2.152c0.181,1.937-0.029,4.317-0.588,3.955
		C32.517,32.556,32.305,29.954,32.471,28.26z M20.079,28.459c1.023-1.201,1.809-1.896,2.053-1.904
		c0.243-0.007-0.009,0.663-0.786,1.837c-1.228,1.854-3.398,4.442-4.012,4.507C16.71,32.964,18.45,30.372,20.079,28.459z"/>
</g>
</svg>
