<?xml version="1.0" encoding="iso-8859-1"?>
<!-- Generator: Adobe Illustrator 17.1.0, SVG Export Plug-In . SVG Version: 6.00 Build 0)  -->
<!DOCTYPE svg PUBLIC "-//W3C//DTD SVG 1.1//EN" "http://www.w3.org/Graphics/SVG/1.1/DTD/svg11.dtd">
<svg version="1.1" id="Layer_1" xmlns="http://www.w3.org/2000/svg" xmlns:xlink="http://www.w3.org/1999/xlink" x="0px" y="0px"
	 viewBox="0 0 64 64" style="enable-background:new 0 0 64 64;" xml:space="preserve">
<g>
	<path d="M20.025,22h20.949C40.983,21.833,41,21.669,41,21.5c0-3.772-2.006-7.075-5-8.927V17.5c0,1.378-1.122,2.5-2.5,2.5h-6
		c-1.378,0-2.5-1.122-2.5-2.5v-4.927c-2.994,1.852-5,5.156-5,8.927C20,21.669,20.017,21.833,20.025,22z"/>
	<path d="M26,17.5c0,0.827,0.673,1.5,1.5,1.5h6c0.827,0,1.5-0.673,1.5-1.5v-5.472C33.634,11.376,32.112,11,30.5,11
		s-3.134,0.376-4.5,1.028V17.5z"/>
	<polygon points="39.427,27 21.573,27 20.984,27 20.404,27 20,27 20,54 41,54 41,27 40.596,27 40.016,27 	"/>
	<polygon points="41.081,26 42,26 43,26 43,23 41.891,23 41.386,23 40.88,23 20.12,23 19.614,23 19.109,23 18,23 18,26 19,26 
		19.919,26 20,26 20.47,26 21.028,26 39.972,26 40.53,26 41,26 	"/>
</g>
</svg>
