<?xml version="1.0" encoding="utf-8"?>
<!-- Generator: Adobe Illustrator 17.1.0, SVG Export Plug-In . SVG Version: 6.00 Build 0)  -->
<!DOCTYPE svg PUBLIC "-//W3C//DTD SVG 1.1//EN" "http://www.w3.org/Graphics/SVG/1.1/DTD/svg11.dtd">
<svg version="1.1" id="Layer_1" xmlns="http://www.w3.org/2000/svg" xmlns:xlink="http://www.w3.org/1999/xlink" x="0px" y="0px"
	 viewBox="0 0 128 128" enable-background="new 0 0 128 128" xml:space="preserve">
<g>
	<path d="M43.8,64.2l0.2-1.8l0,0l0.4-3.6l0-0.1c0.1-0.7,0.3-1.3,0.6-1.8c0-0.1,0.1-0.2,0.1-0.3c-2.2-3.2-3.6-7-3.6-11.2
		c0-8,5-14.8,11.4-18c0,1.4,0,2.5,0,2.9c0,2,2.3,2.8,2.3,2.8h12.9c0,0,1.7-0.7,1.7-3.4c0-0.4,0-1.2,0-2.1c6.4,3.2,11.2,10,11.2,17.8
		c0,3.2-1,7.9-2.4,10c0.1,0.1,0.2,0.2,0.3,0.3c0.7,0.8,1.4,1.6,1.4,3.2l0.3,3.7c3.8-4.5,6.4-10.9,6.4-17.3
		c0-11.2-6.6-20.7-17.2-24.3c0-5,0-9.2,0-9.2H53c0,0,0,4.1,0,9.1c-10.6,3.5-17.4,13.1-17.4,24.4C35.6,52.9,38.8,59.5,43.8,64.2z"/>
	<path d="M79.4,115.9c1.8,0,3.2-1.9,3.2-3.6l-4.2-53.2c0-0.9-0.3-1.3-0.9-1.9c-0.6-0.6-1.4-0.7-2.3-0.7h-7.6c0.8,0,2,3.8,2.2,7.3
		c0,0.4,0.1,0.5,0.1,0.9c0,0.6-0.5,1.2-1.1,1.2c-1,0.1-1.1-0.9-1.1-0.9h0c-0.1-6.4-2.2-10.4-6-10.4c-4.8,0-5.7,10.1-5.7,10.2
		c0,0,0-0.1,0-0.1c-0.1,0.5-0.5,0.8-1,0.8c-0.6,0-1.1-0.5-1.1-1.1c0-0.2,0,0.1,0-0.1c0.1-3.7,1.5-7.9,2.5-7.9h-6.8
		c-2.2,0-2.9,1.1-3.2,2.6l-0.9,7c0,0,0-0.1,0-0.1l-5.5,46.3c0,1.6,1.4,3.5,3.2,3.5h5.1v-5.2c0-0.6,0.5-1.1,1.1-1.1
		c0.6,0,1.1,0.5,1.1,1.1v4.2v1.1c0,0.4,0.2,1.2,0.3,1.5c0.4,1.2,1.7,2.6,3.1,2.6h14.8c1.4,0,2.4-1.4,2.9-2.6
		c0.1-0.3,0.1-1.2,0.1-1.5V115v-4.2c0-0.6,0.5-1.1,1.1-1.1c0.6,0,1.1,0.5,1.1,1.1v5.2H79.4z"/>
</g>
</svg>
