<?xml version="1.0" encoding="iso-8859-1"?>
<!-- Generator: Adobe Illustrator 17.1.0, SVG Export Plug-In . SVG Version: 6.00 Build 0)  -->
<!DOCTYPE svg PUBLIC "-//W3C//DTD SVG 1.1//EN" "http://www.w3.org/Graphics/SVG/1.1/DTD/svg11.dtd">
<svg version="1.1" id="Layer_1" xmlns="http://www.w3.org/2000/svg" xmlns:xlink="http://www.w3.org/1999/xlink" x="0px" y="0px"
	 viewBox="0 0 64 64" style="enable-background:new 0 0 64 64;" xml:space="preserve">
<g>
	<path d="M40.5,21.5c0.276,0,0.5-0.224,0.5-0.5v-2c0-0.276-0.224-0.5-0.5-0.5S40,18.724,40,19v2C40,21.276,40.224,21.5,40.5,21.5z"
		/>
	<path d="M42.5,21.5c0.276,0,0.5-0.224,0.5-0.5v-2c0-0.276-0.224-0.5-0.5-0.5S42,18.724,42,19v2C42,21.276,42.224,21.5,42.5,21.5z"
		/>
	<path d="M44.5,21.5c0.276,0,0.5-0.224,0.5-0.5v-2c0-0.276-0.224-0.5-0.5-0.5S44,18.724,44,19v2C44,21.276,44.224,21.5,44.5,21.5z"
		/>
	<path d="M40.5,25.5c0.276,0,0.5-0.224,0.5-0.5v-2c0-0.276-0.224-0.5-0.5-0.5S40,22.724,40,23v2C40,25.276,40.224,25.5,40.5,25.5z"
		/>
	<path d="M42.5,25.5c0.276,0,0.5-0.224,0.5-0.5v-2c0-0.276-0.224-0.5-0.5-0.5S42,22.724,42,23v2C42,25.276,42.224,25.5,42.5,25.5z"
		/>
	<path d="M44.5,25.5c0.276,0,0.5-0.224,0.5-0.5v-2c0-0.276-0.224-0.5-0.5-0.5S44,22.724,44,23v2C44,25.276,44.224,25.5,44.5,25.5z"
		/>
	<path d="M40.5,29.5c0.276,0,0.5-0.224,0.5-0.5v-2c0-0.276-0.224-0.5-0.5-0.5S40,26.724,40,27v2C40,29.276,40.224,29.5,40.5,29.5z"
		/>
	<path d="M42.5,29.5c0.276,0,0.5-0.224,0.5-0.5v-2c0-0.276-0.224-0.5-0.5-0.5S42,26.724,42,27v2C42,29.276,42.224,29.5,42.5,29.5z"
		/>
	<path d="M44.5,29.5c0.276,0,0.5-0.224,0.5-0.5v-2c0-0.276-0.224-0.5-0.5-0.5S44,26.724,44,27v2C44,29.276,44.224,29.5,44.5,29.5z"
		/>
	<path d="M6,50v1v8h51v-8v-1V9H6V50z M55,49h-2V12.5c0-0.276-0.224-0.5-0.5-0.5h-10c-0.276,0-0.5,0.224-0.5,0.5V15h-3.25
		C38.336,15,38,15.336,38,15.75v0.5c0,0.414,0.336,0.75,0.75,0.75h7.5c0.414,0,0.75-0.336,0.75-0.75v-0.5
		c0-0.414-0.336-0.75-0.75-0.75H43v-2h9v15.938C52,28.42,51.698,28,51.326,28h-0.09C50.864,28,51,28.42,51,28.938v2.125
		C51,31.58,50.864,32,51.236,32h0.09C51.698,32,52,31.58,52,31.062V49H33V11h22V49z M32,49h-3V11h3V49z M8,11h20v38H8V11z"/>
	<path d="M24.562,24h-0.125C23.645,24,23,24.645,23,25.438v6.125C23,32.355,23.645,33,24.438,33h0.125
		C25.355,33,26,32.355,26,31.562v-6.125C26,24.645,25.355,24,24.562,24z M25,31.562C25,31.804,24.804,32,24.562,32h-0.125
		C24.196,32,24,31.804,24,31.562v-6.125C24,25.196,24.196,25,24.438,25h0.125C24.804,25,25,25.196,25,25.438V31.562z"/>
	<path d="M35.438,33h0.125C36.355,33,37,32.355,37,31.562v-6.125C37,24.645,36.355,24,35.562,24h-0.125
		C34.645,24,34,24.645,34,25.438v6.125C34,32.355,34.645,33,35.438,33z M35,25.438C35,25.196,35.196,25,35.438,25h0.125
		C35.804,25,36,25.196,36,25.438v6.125C36,31.804,35.804,32,35.562,32h-0.125C35.196,32,35,31.804,35,31.562V25.438z"/>
</g>
</svg>
