<?xml version="1.0" encoding="iso-8859-1"?>
<!-- Generator: Adobe Illustrator 17.1.0, SVG Export Plug-In . SVG Version: 6.00 Build 0)  -->
<!DOCTYPE svg PUBLIC "-//W3C//DTD SVG 1.1//EN" "http://www.w3.org/Graphics/SVG/1.1/DTD/svg11.dtd">
<svg version="1.1" id="Layer_1" xmlns="http://www.w3.org/2000/svg" xmlns:xlink="http://www.w3.org/1999/xlink" x="0px" y="0px"
	 viewBox="0 0 64 64" style="enable-background:new 0 0 64 64;" xml:space="preserve">
<g>
	<path d="M44,39c0.276,0,0.5-0.224,0.5-0.5S44.276,38,44,38h-8v-3h-3V9c0-1.104-0.896-2-2-2s-2,0.896-2,2v26h-3v3h-8
		c-0.276,0-0.5,0.224-0.5,0.5S17.724,39,18,39h11v1H18c-0.276,0-0.5,0.224-0.5,0.5S17.724,41,18,41h11v1H18
		c-0.276,0-0.5,0.224-0.5,0.5S17.724,43,18,43h11v1H18c-0.276,0-0.5,0.224-0.5,0.5S17.724,45,18,45h11v1H18
		c-0.276,0-0.5,0.224-0.5,0.5S17.724,47,18,47h11v1H18c-0.276,0-0.5,0.224-0.5,0.5S17.724,49,18,49h11v1H19
		c-0.276,0-0.5,0.224-0.5,0.5S18.724,51,19,51h10v1h-9c-0.276,0-0.5,0.224-0.5,0.5S19.724,53,20,53h9v1h-7
		c-0.276,0-0.5,0.224-0.5,0.5S21.724,55,22,55h7v1h-5c-0.276,0-0.5,0.224-0.5,0.5S23.724,57,24,57h5v1h-2
		c-0.276,0-0.5,0.224-0.5,0.5S26.724,59,27,59h2.277c0.346,0.595,0.984,1,1.723,1s1.376-0.405,1.723-1H35c0.276,0,0.5-0.224,0.5-0.5
		S35.276,58,35,58h-2v-1h4c0.276,0,0.5-0.224,0.5-0.5S37.276,56,37,56h-4v-1h6c0.276,0,0.5-0.224,0.5-0.5S39.276,54,39,54h-6v-1h8
		c0.276,0,0.5-0.224,0.5-0.5S41.276,52,41,52h-8v-1h10c0.276,0,0.5-0.224,0.5-0.5S43.276,50,43,50H33v-1h11
		c0.276,0,0.5-0.224,0.5-0.5S44.276,48,44,48H33v-1h11c0.276,0,0.5-0.224,0.5-0.5S44.276,46,44,46H33v-1h11
		c0.276,0,0.5-0.224,0.5-0.5S44.276,44,44,44H33v-1h11c0.276,0,0.5-0.224,0.5-0.5S44.276,42,44,42H33v-1h11
		c0.276,0,0.5-0.224,0.5-0.5S44.276,40,44,40H33v-1H44z"/>
</g>
</svg>
