<?xml version="1.0" encoding="iso-8859-1"?>
<!-- Generator: Adobe Illustrator 17.1.0, SVG Export Plug-In . SVG Version: 6.00 Build 0)  -->
<!DOCTYPE svg PUBLIC "-//W3C//DTD SVG 1.1//EN" "http://www.w3.org/Graphics/SVG/1.1/DTD/svg11.dtd">
<svg version="1.1" id="Layer_1" xmlns="http://www.w3.org/2000/svg" xmlns:xlink="http://www.w3.org/1999/xlink" x="0px" y="0px"
	 viewBox="0 0 64 64" style="enable-background:new 0 0 64 64;" xml:space="preserve">
<g>
	<path d="M27.828,2c0.95,1,2.312,1.441,3.9,1.441C33.112,3.442,34.427,3,35.466,2H27.828z"/>
	<path d="M27,15h10V4.048c-2,1.003-3.026,2.048-5,2.048c-2.158,0-4-1.041-5-1.943V15z M31.729,7.537c1.241,0,2.251,1.01,2.251,2.251
		c0,1.241-1.01,2.251-2.251,2.251c-1.241,0-2.251-1.01-2.251-2.251C29.479,8.547,30.489,7.537,31.729,7.537z"/>
	<circle cx="31.729" cy="9.789" r="0.81"/>
	<path d="M40,23.951V19h-2v-2H25v2h-2v5.692c-7,3.441-11.716,10.452-11.716,18.542c0,6.503,2.912,12.306,7.632,16.122
		c0.835,0.675,1.667,1.289,2.601,1.832c3.1,1.804,6.666,1.235,10.511,1.235c4.071,0,7.849,0.443,11.067-1.562
		c5.912-3.682,9.939-10.198,9.939-17.627C53.033,34.514,48,27.042,40,23.951z"/>
</g>
</svg>
