<?xml version="1.0" encoding="iso-8859-1"?>
<!-- Generator: Adobe Illustrator 17.1.0, SVG Export Plug-In . SVG Version: 6.00 Build 0)  -->
<!DOCTYPE svg PUBLIC "-//W3C//DTD SVG 1.1//EN" "http://www.w3.org/Graphics/SVG/1.1/DTD/svg11.dtd">
<svg version="1.1" id="Layer_1" xmlns="http://www.w3.org/2000/svg" xmlns:xlink="http://www.w3.org/1999/xlink" x="0px" y="0px"
	 viewBox="0 0 64 64" style="enable-background:new 0 0 64 64;" xml:space="preserve">
<g>
	<polygon points="46,47 46,48 46,52 49,52 49,48 49,47 49,45 46,45 	"/>
	<path d="M53,16c-0.553,0-1,0.448-1,1v1.5c0,0.831-0.273,1.5-0.5,1.5H50h-2.866c-0.23,0.26-0.446,0.586-0.628,1
		c-0.126,0.288-0.232,0.623-0.316,1C46.074,22.519,46,23.118,46,23.833V44h3V22h1h1.5c1.495,0,2.5-1.407,2.5-3.5V17
		C54,16.448,53.553,16,53,16z"/>
	<path d="M10,18.5V17c0-0.552-0.447-1-1-1s-1,0.448-1,1v1.5c0,1.668,1.832,3.5,3.5,3.5h1.509c0.035-0.588,0.195-1.321,0.552-2H11.5
		C10.953,20,10,19.047,10,18.5z"/>
	<path d="M46.896,19c-7.25,0-27.341,0-29.896,0c-1.11,0-1.809,0.442-2.249,1c-0.552,0.7-0.697,1.576-0.735,2
		C14.003,22.136,14,22.231,14,22.251V48h3h1h27c0-0.32,0-0.653,0-1c0-0.628,0-1.298,0-2c0-0.327,0-0.66,0-1
		c0-8.005,0-19.26,0-20.167c0,0,0-0.001,0-0.001c0-0.691,0.068-1.295,0.181-1.833c0.077-0.368,0.18-0.697,0.298-1
		c0.148-0.379,0.321-0.711,0.515-1C46.268,19.592,46.575,19.258,46.896,19z"/>
	<path d="M49,18.994V19c0.313,0,0.5,0,0.5,0S49.303,18.981,49,18.994z"/>
	<path d="M17,49h-3v2v1v4h31v-3v-1c0,0,0-0.369,0-1c0-0.505,0-1.184,0-2H18H17z"/>
</g>
</svg>
