<?xml version="1.0" encoding="utf-8"?>
<!-- Generator: Adobe Illustrator 17.1.0, SVG Export Plug-In . SVG Version: 6.00 Build 0)  -->
<!DOCTYPE svg PUBLIC "-//W3C//DTD SVG 1.1//EN" "http://www.w3.org/Graphics/SVG/1.1/DTD/svg11.dtd">
<svg version="1.1" id="Layer_1" xmlns="http://www.w3.org/2000/svg" xmlns:xlink="http://www.w3.org/1999/xlink" x="0px" y="0px"
	 viewBox="0 0 128 128" enable-background="new 0 0 128 128" xml:space="preserve">
<g>
	<path d="M25.2,29.3h4.1v77.6h67.4V29.3h6.1c1.1,0,2-0.9,2-2s-0.9-2-2-2H82.4v-6.1h2v2h8.2V15H80.3c-1.1,0-2,0.9-2,2v8.3h-6.4
		l-2.1-10.9c-0.2-1.4-0.7-3.7-1.7-4.4V15c0,2.3-1.8,4.1-4.1,4.1c-0.2,0-0.3,0-0.5-0.1c-2-0.3-3.6-2-3.6-4V9.8
		c-1.1,1-1.4,2.4-1.9,4.4l-2.1,10.9h-8.2v-8.3c0-1.1-0.9-2-2-2H33.4v6.1h8.2v-2h2v6.1H25.2c-1.1,0-2,0.9-2,2S24.1,29.3,25.2,29.3z
		 M62,102.8h-2H33.4V41.5v-2H62V102.8z M92.6,102.8h-2H64V41.5v-2h28.6V102.8z"/>
	<path d="M64,17c1.1,0,2-0.9,2-2V9.1v-2c0-1-0.6-2.3-2-2.3c-1.4,0-2,1.2-2,2.2v1.8V15C62,16.1,62.9,17,64,17z"/>
	<path d="M29.3,123.2h16.3c0-4.5,7.8-8.2,17.4-8.2s17.4,3.7,17.4,8.2h16.3v-14.3H29.3V123.2z"/>
	<path d="M59.9,41.5H35.4v59.3h24.5V41.5z M56,73.7c-1.6,0-2.9-1.3-2.9-2.9s1.3-2.9,2.9-2.9c1.6,0,2.9,1.3,2.9,2.9
		S57.6,73.7,56,73.7z"/>
	<path d="M90.6,41.5H66v59.3h24.5V41.5z M70.3,73.7c-1.6,0-2.9-1.3-2.9-2.9s1.3-2.9,2.9-2.9s2.9,1.3,2.9,2.9S71.9,73.7,70.3,73.7z"
		/>
</g>
</svg>
