<?xml version="1.0" encoding="utf-8"?>
<!-- Generator: Adobe Illustrator 17.1.0, SVG Export Plug-In . SVG Version: 6.00 Build 0)  -->
<!DOCTYPE svg PUBLIC "-//W3C//DTD SVG 1.1//EN" "http://www.w3.org/Graphics/SVG/1.1/DTD/svg11.dtd">
<svg version="1.1" id="Layer_1" xmlns="http://www.w3.org/2000/svg" xmlns:xlink="http://www.w3.org/1999/xlink" x="0px" y="0px"
	 viewBox="0 0 128 128" enable-background="new 0 0 128 128" xml:space="preserve">
<g>
	<path d="M32,82.2V56.8h65.9v7.4c0.4-0.1,0.8-0.1,1.2-0.1c3.2,0,5.8,2.6,5.8,5.8c0,1.8-0.9,3.5-2.2,4.5c0.9,1.7,1.5,3.7,1.5,5.7
		c0,0.7-0.1,1.4-0.2,2.1h2.3V52.5c0-2.3-1.9-4.2-4.2-4.2H27.8c-2.3,0-4.2,1.9-4.2,4.2v29.8H32z"/>
	<path d="M77.5,68.3c2.8,0,5.4,1,7.4,2.6c2-1.6,4.6-2.6,7.4-2.6c0.4,0,0.7,0,1.1,0.1c0.4-1.3,1.2-2.5,2.2-3.2v-6.2H34.1v23.4h31.7
		c-0.1-0.7-0.2-1.4-0.2-2.1C65.6,73.6,71,68.3,77.5,68.3z"/>
	<path d="M94.3,82.2h1.5h2.1h4c0.2-0.7,0.2-1.4,0.2-2.1c0-1.7-0.5-3.3-1.3-4.7c-0.6,0.2-1.1,0.3-1.7,0.3c-0.4,0-0.8-0.1-1.2-0.1
		c-0.8-0.2-1.5-0.5-2.1-0.9c-1.3-0.9-2.2-2.4-2.4-4.1c-0.3,0-0.6-0.1-0.9-0.1c-2.2,0-4.2,0.8-5.9,2c1.1,1.3,1.9,2.8,2.4,4.4
		C91.8,77,94.1,79.3,94.3,82.2z"/>
	<path d="M80.7,82.2h1.1h0.9c0-0.3,0-0.6,0.1-0.9c0.4-2.1,2-3.7,3.9-4.3c-0.4-1.2-1-2.2-1.8-3.2c-0.2-0.3-0.5-0.6-0.7-0.8
		c-0.3-0.3-0.6-0.5-0.8-0.7c-1.6-1.3-3.7-2-5.9-2c-5.4,0-9.7,4.4-9.7,9.7c0,0.7,0.1,1.4,0.2,2.1L80.7,82.2
		C80.7,82.2,80.7,82.2,80.7,82.2z"/>
	<path d="M114.9,84.4h-8.5h-2.9h-1.1h-0.2h-1h-3.2h-2.1H94c-0.8,2.4-2.9,4.1-5.5,4.1c-0.5,0-1-0.1-1.5-0.2c-0.2-0.1-0.5-0.1-0.7-0.2
		c-0.3-0.1-0.7-0.3-1-0.5c-0.3-0.2-0.6-0.4-0.8-0.7c-0.7-0.7-1.3-1.5-1.6-2.5h-0.5h-1.1H68.8h-1.2h-1.1H34.1H32h-4.2h-4.2h-6.4
		c-1.8,0-3.2,1.4-3.2,3.2c0,1.5,1.1,2.8,2.5,3.1c0.2,0,0.4,0.1,0.6,0.1h2.7l0.6,2.1l3,10.6c0.7,2.4,2.2,4.2,4.6,4.2h74
		c2.3,0,3.5-1.8,4.2-4.2l3-10.6l0.6-2.1h4.9c0.2,0,0.4,0,0.6-0.1c1.5-0.3,2.5-1.6,2.5-3.1C118.1,85.8,116.6,84.4,114.9,84.4z"/>
	<path d="M85.8,85.2c0.2,0.3,0.5,0.5,0.9,0.7c0.3,0.2,0.7,0.3,1,0.4c0.3,0.1,0.5,0.1,0.8,0.1c1.4,0,2.6-0.8,3.2-1.9
		c0.3-0.5,0.5-1.1,0.5-1.8c0-0.1,0-0.2,0-0.4c-0.2-1.6-1.3-2.9-2.9-3.3c-0.3-0.1-0.5-0.1-0.8-0.1c-0.1,0-0.2,0-0.3,0
		c-0.4,0-0.7,0.1-1,0.2c-1.3,0.5-2.2,1.7-2.3,3.1c0,0.1,0,0.2,0,0.4c0,0.6,0.2,1.2,0.5,1.8C85.4,84.7,85.6,84.9,85.8,85.2z"/>
	<path d="M99.1,66.1c-0.4,0-0.9,0.1-1.2,0.2c-0.9,0.3-1.7,1-2.1,1.9c-0.1,0.1-0.1,0.3-0.2,0.4c-0.1,0.3-0.2,0.7-0.2,1.1
		c0,0,0,0,0,0.1c0,0.4,0.1,0.8,0.2,1.1c0,0.2,0.1,0.3,0.2,0.4c0.4,0.9,1.2,1.6,2.1,1.9c0.4,0.1,0.8,0.2,1.2,0.2c0.1,0,0.3,0,0.4,0
		c0.4,0,0.8-0.1,1.1-0.3c0.3-0.2,0.7-0.4,0.9-0.6c0.8-0.7,1.3-1.7,1.3-2.8C102.8,67.8,101.2,66.1,99.1,66.1z"/>
</g>
</svg>
