<?xml version="1.0" encoding="iso-8859-1"?>
<!-- Generator: Adobe Illustrator 17.1.0, SVG Export Plug-In . SVG Version: 6.00 Build 0)  -->
<!DOCTYPE svg PUBLIC "-//W3C//DTD SVG 1.1//EN" "http://www.w3.org/Graphics/SVG/1.1/DTD/svg11.dtd">
<svg version="1.1" id="Layer_1" xmlns="http://www.w3.org/2000/svg" xmlns:xlink="http://www.w3.org/1999/xlink" x="0px" y="0px"
	 viewBox="0 0 64 64" style="enable-background:new 0 0 64 64;" xml:space="preserve">
<g>
	<rect x="28" y="19" width="12" height="3"/>
	<path d="M31,18h7v-7.422C37.116,11.275,35.87,12,34.5,12c-1.497,0-2.715-0.722-3.5-1.348V18z M34.5,13
		c0.861,0,1.562,0.701,1.562,1.562s-0.701,1.562-1.562,1.562s-1.562-0.701-1.562-1.562S33.639,13,34.5,13z"/>
	<path d="M37.093,10h-5.299c0.659,0.49,1.604,1,2.706,1C35.46,11,36.372,10.521,37.093,10z"/>
	<circle cx="34.5" cy="14.562" r="0.562"/>
	<path d="M51.561,23C51.561,23,51.561,23,51.561,23L40,23H28H16.36c0,0-0.001,0-0.001,0c-1.915,0-3.358,1.409-3.358,3.278v26.445
		C13,54.591,14.444,56,16.359,56h35.201C53.489,56,55,54.561,55,52.724c0,0,0-0.001,0-0.001V26.278C55,24.44,53.49,23,51.561,23z"/>
</g>
</svg>
