<?xml version="1.0" encoding="utf-8"?>
<!-- Generator: Adobe Illustrator 17.1.0, SVG Export Plug-In . SVG Version: 6.00 Build 0)  -->
<!DOCTYPE svg PUBLIC "-//W3C//DTD SVG 1.1//EN" "http://www.w3.org/Graphics/SVG/1.1/DTD/svg11.dtd">
<svg version="1.1" id="Layer_1" xmlns="http://www.w3.org/2000/svg" xmlns:xlink="http://www.w3.org/1999/xlink" x="0px" y="0px"
	 viewBox="0 0 128 128" enable-background="new 0 0 128 128" xml:space="preserve">
<path d="M94,4H34c-6.6,0-12,5.4-12,12v84c0,1.4,0,2.7,0,4h84c0-1.5,0-2.6,0-4V16C106,9.4,100.6,4,94,4z M58.4,15.9l7,20.9l-3.8,1.3
	l-7-20.9L58.4,15.9z M50,16h4v22h-4V16z M44,20h4v18h-4V20z M36,20h6v18h-6V20z M28,14h6v24h-6V14z M30,100h-4V82h4V100z M38,100h-6
	V76h6V100z M45.6,100.5l-6.7-16.7l5.6-2.2l6.7,16.7L45.6,100.5z M80.7,99C74.8,99,70,95.4,70,90.9c0-0.3,0.1-0.6,0.1-0.9h21.1
	c0,0.3,0.1,0.6,0.1,0.9C91.4,95.4,86.6,99,80.7,99z M100,100h-6V82h6V100z M100,72H26v-2h74V72z M28,60.9c0-0.3,0.1-0.6,0.1-0.9
	h21.1c0,0.3,0.1,0.6,0.1,0.9c0,4.5-4.8,8.1-10.7,8.1S28,65.4,28,60.9z M52,68V50h4v18H52z M58,68V44h6v24H58z M66,68V50h6v18H66z
	 M76,58h22l-4,10H80L76,58z M100,42H26v-2h74V42z"/>
<circle cx="31.5" cy="115" r="8.5"/>
<circle cx="97.5" cy="115" r="8.5"/>
</svg>
