<?xml version="1.0" encoding="iso-8859-1"?>
<!-- Generator: Adobe Illustrator 17.1.0, SVG Export Plug-In . SVG Version: 6.00 Build 0)  -->
<!DOCTYPE svg PUBLIC "-//W3C//DTD SVG 1.1//EN" "http://www.w3.org/Graphics/SVG/1.1/DTD/svg11.dtd">
<svg version="1.1" id="Layer_1" xmlns="http://www.w3.org/2000/svg" xmlns:xlink="http://www.w3.org/1999/xlink" x="0px" y="0px"
	 viewBox="0 0 64 64" style="enable-background:new 0 0 64 64;" xml:space="preserve">
<path d="M22,29h23v-9H22V29z M34.113,22.24c1.1,0,1.992,0.892,1.992,1.992s-0.892,1.992-1.992,1.992s-1.992-0.892-1.992-1.992
	S33.013,22.24,34.113,22.24z"/>
<path d="M52,58v-4.781v-4.781V12H15v36.438v4.781V58h5v-5h27v5H52z M20,18h27v13H20V18z M20,47V34h27v13H20z"/>
<polygon points="51.844,10 55.031,7 12,7 15.188,10 "/>
</svg>
