<?xml version="1.0" encoding="iso-8859-1"?>
<!-- Generator: Adobe Illustrator 17.1.0, SVG Export Plug-In . SVG Version: 6.00 Build 0)  -->
<!DOCTYPE svg PUBLIC "-//W3C//DTD SVG 1.1//EN" "http://www.w3.org/Graphics/SVG/1.1/DTD/svg11.dtd">
<svg version="1.1" id="Layer_1" xmlns="http://www.w3.org/2000/svg" xmlns:xlink="http://www.w3.org/1999/xlink" x="0px" y="0px"
	 viewBox="0 0 64 64" style="enable-background:new 0 0 64 64;" xml:space="preserve">
<path d="M54.281,40.907c-0.054-0.036-0.194-0.067-0.252-0.093L33,31.519v-3.02c4-0.481,5.975-3.12,5.975-6.513
	c0-3.757-2.644-6.591-6.206-6.591c-3.74,0-6.878,3.083-6.878,6.733c0,0.628,0.52,1.138,1.148,1.138c0.187,0,0.361-0.056,0.516-0.135
	c0.368-0.189,0.63-0.561,0.63-1.003c0-2.374,2.162-4.457,4.624-4.457c2.301,0,3.972,1.815,3.972,4.315
	c0,2.46-1.988,4.315-4.698,4.315c-0.628,0-1.083,0.51-1.083,1.138v2.224v2.233c0,0.022-0.044,0.04-0.042,0.062l-20.161,9.529
	c-2.973,1.071-3.991,3.508-3.666,5.368C7.465,48.768,9.087,50,11.188,50h40.043c2.487,0,4.438-1.287,5.091-3.445
	C56.967,44.429,56.127,42.137,54.281,40.907z M54.144,46.034C53.783,47.229,52.721,48,51.232,48H11.188
	c-1.017,0-1.684-0.564-1.83-1.398c-0.166-0.952,0.446-2.304,2.283-2.972l20.866-9.891l20.585,9.166
	C54.059,43.596,54.491,44.888,54.144,46.034z"/>
</svg>
