<?xml version="1.0" encoding="iso-8859-1"?>
<!-- Generator: Adobe Illustrator 17.1.0, SVG Export Plug-In . SVG Version: 6.00 Build 0)  -->
<!DOCTYPE svg PUBLIC "-//W3C//DTD SVG 1.1//EN" "http://www.w3.org/Graphics/SVG/1.1/DTD/svg11.dtd">
<svg version="1.1" id="Layer_1" xmlns="http://www.w3.org/2000/svg" xmlns:xlink="http://www.w3.org/1999/xlink" x="0px" y="0px"
	 viewBox="0 0 64 64" style="enable-background:new 0 0 64 64;" xml:space="preserve">
<path d="M30,49H15v6h15V49z M22.875,53.062c-0.69,0-1.25-0.56-1.25-1.25s0.56-1.25,1.25-1.25s1.25,0.56,1.25,1.25
	S23.565,53.062,22.875,53.062z"/>
<path d="M50,49H35v6h15V49z M42.875,53.062c-0.69,0-1.25-0.56-1.25-1.25s0.56-1.25,1.25-1.25s1.25,0.56,1.25,1.25
	S43.565,53.062,42.875,53.062z"/>
<path d="M50,38H15v6h35V38z M31.875,42.062c-0.69,0-1.25-0.56-1.25-1.25s0.56-1.25,1.25-1.25s1.25,0.56,1.25,1.25
	S32.565,42.062,31.875,42.062z"/>
<path d="M55,62v-3v-3V34H10v22v3v3h3v-3h18v3h3v-3h18v3H55z M31,56H14v-8h17V56z M51,56H34v-8h17V56z M51,45H14v-8h37V45z"/>
<polygon points="55,33 57,31 8,31 10,33 "/>
<polygon points="27,25 27,28 21,28 21,30 44,30 44,28 38,28 38,25 "/>
<path d="M51,5H14v19h37V5z M48,21H17V8h31V21z"/>
</svg>
