<?xml version="1.0" encoding="iso-8859-1"?>
<!-- Generator: Adobe Illustrator 17.1.0, SVG Export Plug-In . SVG Version: 6.00 Build 0)  -->
<!DOCTYPE svg PUBLIC "-//W3C//DTD SVG 1.1//EN" "http://www.w3.org/Graphics/SVG/1.1/DTD/svg11.dtd">
<svg version="1.1" id="Layer_1" xmlns="http://www.w3.org/2000/svg" xmlns:xlink="http://www.w3.org/1999/xlink" x="0px" y="0px"
	 viewBox="0 0 64 64" style="enable-background:new 0 0 64 64;" xml:space="preserve">
<path d="M25,50h15v-6H25V50z M32.875,45.562c0.69,0,1.25,0.56,1.25,1.25s-0.56,1.25-1.25,1.25s-1.25-0.56-1.25-1.25
	S32.185,45.562,32.875,45.562z"/>
<path d="M25,40h15v-6H25V40z M32.875,35.562c0.69,0,1.25,0.56,1.25,1.25s-0.56,1.25-1.25,1.25s-1.25-0.56-1.25-1.25
	S32.185,35.562,32.875,35.562z"/>
<path d="M25,30h15V10H25V30z M36.875,19.562c0.69,0,1.25,0.56,1.25,1.25s-0.56,1.25-1.25,1.25s-1.25-0.56-1.25-1.25
	S36.185,19.562,36.875,19.562z"/>
<path d="M44,58v-3v-3V6H21v46v3v3h3v-3h17v3H44z M24,9h17v22H24V9z M24,33h17v8H24V33z M24,51v-8h17v8H24z"/>
<polygon points="44,5 46,3 19,3 21,5 "/>
</svg>
