<?xml version="1.0" encoding="iso-8859-1"?>
<!-- Generator: Adobe Illustrator 17.1.0, SVG Export Plug-In . SVG Version: 6.00 Build 0)  -->
<!DOCTYPE svg PUBLIC "-//W3C//DTD SVG 1.1//EN" "http://www.w3.org/Graphics/SVG/1.1/DTD/svg11.dtd">
<svg version="1.1" id="Layer_1" xmlns="http://www.w3.org/2000/svg" xmlns:xlink="http://www.w3.org/1999/xlink" x="0px" y="0px"
	 viewBox="0 0 64 64" style="enable-background:new 0 0 64 64;" xml:space="preserve">
<path d="M5.692,28.179c0.942-1.115,2.759-1.27,3.875-0.326c1.158,0.979,1.304,2.717,0.326,3.875L13.765,35h6.198h1.549h2.395
	l0.834-2.509l-11.458-9.681L9.48,24.833l-3.361-2.84l-3.227,3.819L5.692,28.179L5.692,28.179z M22.568,31.964l-1.936,2.292
	l-3.819-3.227l1.936-2.292L22.568,31.964z M13.402,24.22l3.819,3.227l-1.936,2.292l-1.086-0.918l-2.733-2.309L13.402,24.22z"/>
<path d="M6.456,28.825L6.456,28.825c-0.301,0.357-0.446,0.81-0.407,1.276c0.039,0.466,0.257,0.888,0.614,1.19
	c0.711,0.602,1.867,0.501,2.466-0.207c0,0,0,0,0,0c0.623-0.737,0.53-1.843-0.208-2.466c-0.315-0.266-0.716-0.413-1.128-0.413
	C7.277,28.204,6.79,28.43,6.456,28.825z"/>
<path d="M37.948,35c1.189-1.068,2.097-2.465,2.585-4.089l-4.326-1.043c-0.332,1.778-0.151,3.544,0.459,5.132H37.948z"/>
<path d="M49.565,32.061l5.299,1.278c0.432-2.313-0.013-4.603-1.123-6.509c-0.087,0.049-0.176,0.091-0.262,0.143
	C51.571,28.139,50.202,29.936,49.565,32.061z"/>
<path d="M45.059,35h3.13c-0.026-0.725,0.031-1.462,0.171-2.201l-2.617-0.631L45.059,35z"/>
<path d="M48.593,31.827c0.7-2.385,2.229-4.402,4.364-5.708c0.077-0.047,0.159-0.084,0.237-0.129
	c-1.219-1.665-2.984-2.935-5.111-3.527l-2.106,8.733L48.593,31.827z"/>
<path d="M44.77,31.933l-3.262-0.787c-0.433,1.471-1.177,2.776-2.149,3.854h4.671L44.77,31.933z"/>
<path d="M40.647,23.461c1.106,1.983,1.541,4.338,1.092,6.713l3.265,0.788l2.102-8.717C44.805,21.856,42.531,22.33,40.647,23.461z"/>
<path d="M40.768,29.94c0.384-2.092,0.005-4.165-0.953-5.92c-1.572,1.184-2.776,2.866-3.373,4.877L40.768,29.94z"/>
<path d="M49.183,35h5.216c0.086-0.225,0.161-0.455,0.23-0.689l-5.299-1.278C49.21,33.688,49.158,34.347,49.183,35z"/>
<path d="M49.272,36h-0.998h-3.456H43.79h-5.477h-1.188h-0.516h-5.094l0.085-1l1.093-12.851l1.184,0.141
	c0.542,0.064,1.034-0.323,1.098-0.865l0.003-0.023c0.064-0.542-0.323-1.034-0.865-1.098l-4.988-0.593
	c-0.542-0.064-1.034,0.323-1.098,0.865l-0.003,0.023c-0.064,0.542,0.323,1.034,0.865,1.098l1.287,0.153L27.244,35l-0.139,0.626
	c-0.02,0.126-0.023,0.251-0.015,0.374h-3.515h-0.878h-1.549h-6.198H4v12c0,2.5,1.5,4,3.833,4l0,0H54.25c2.151,0,2.75-2,2.75-4.75V36
	h-3.054H49.272z"/>
</svg>
