<?xml version="1.0" encoding="iso-8859-1"?>
<!-- Generator: Adobe Illustrator 17.1.0, SVG Export Plug-In . SVG Version: 6.00 Build 0)  -->
<!DOCTYPE svg PUBLIC "-//W3C//DTD SVG 1.1//EN" "http://www.w3.org/Graphics/SVG/1.1/DTD/svg11.dtd">
<svg version="1.1" id="Layer_1" xmlns="http://www.w3.org/2000/svg" xmlns:xlink="http://www.w3.org/1999/xlink" x="0px" y="0px"
	 viewBox="0 0 64 64" style="enable-background:new 0 0 64 64;" xml:space="preserve">
<path d="M52,17H22v-4c0-0.276-0.224-0.5-0.5-0.5S21,12.724,21,13v4h-9v-4c0-0.276-0.224-0.5-0.5-0.5S11,12.724,11,13v4.277
	c-0.595,0.346-1,0.984-1,1.723v2h1v1h-1v2c0,0.738,0.405,1.376,1,1.723v19.555c-0.595,0.346-1,0.984-1,1.723v2h1v1h-1v2
	c0,0.738,0.405,1.376,1,1.723V59c0,0.276,0.224,0.5,0.5,0.5S12,59.276,12,59v-3h9v3c0,0.276,0.224,0.5,0.5,0.5S22,59.276,22,59v-5
	h30c1.105,0,2-0.895,2-2v-2H22v-1h32v-2c0-1.105-0.895-2-2-2H22V26h30c1.105,0,2-0.895,2-2v-2H22v-1h32v-2
	C54,17.895,53.105,17,52,17z M21,55h-9v-1h9V55z M21,50h-9v-1h9V50z M21,45h-9v-1h9V45z M21,43h-9v-3h9V43z M21,39h-9v-3h9V39z
	 M21,35h-9v-3h9V35z M21,31h-9v-3h9V31z M21,27h-9v-1h9V27z M21,22h-9v-1h9V22z"/>
<path d="M7.25,9h-0.5C5.784,9,5,9.784,5,10.75v46.5C5,58.216,5.784,59,6.75,59h0.5C8.216,59,9,58.216,9,57.25V50v-1V22v-1V10.75
	C9,9.784,8.216,9,7.25,9z"/>
<path d="M57.25,9h-0.5C55.784,9,55,9.784,55,10.75V21v1v27v1v7.25c0,0.966,0.784,1.75,1.75,1.75h0.5c0.966,0,1.75-0.784,1.75-1.75
	v-46.5C59,9.784,58.216,9,57.25,9z"/>
<path d="M53,14.631C53,13.119,51.774,12,50.262,12h-4.107C44.643,12,43,13.119,43,14.631V16h10V14.631z"/>
<path d="M46.155,40C44.643,40,43,41.119,43,42.631V44h10v-1.369C53,41.119,51.774,40,50.262,40H46.155z"/>
</svg>
