<?xml version="1.0" encoding="iso-8859-1"?>
<!-- Generator: Adobe Illustrator 17.1.0, SVG Export Plug-In . SVG Version: 6.00 Build 0)  -->
<!DOCTYPE svg PUBLIC "-//W3C//DTD SVG 1.1//EN" "http://www.w3.org/Graphics/SVG/1.1/DTD/svg11.dtd">
<svg version="1.1" id="Layer_1" xmlns="http://www.w3.org/2000/svg" xmlns:xlink="http://www.w3.org/1999/xlink" x="0px" y="0px"
	 viewBox="0 0 64 64" style="enable-background:new 0 0 64 64;" xml:space="preserve">
<path d="M57.25,9h-0.5C55.784,9,55,9.784,55,10.75V21v1h-1H22v-1h32v-2c0-1.105-0.895-2-2-2H22v-4c0-0.276-0.224-0.5-0.5-0.5
	S21,12.724,21,13v4h-9v-4c0-0.276-0.224-0.5-0.5-0.5S11,12.724,11,13v4.277c-0.595,0.346-1,0.984-1,1.723v2h1v1h-1H9v-1V10.75
	C9,9.784,8.216,9,7.25,9h-0.5C5.784,9,5,9.784,5,10.75v46.5C5,58.216,5.784,59,6.75,59h0.5C8.216,59,9,58.216,9,57.25V26h2v33
	c0,0.276,0.224,0.5,0.5,0.5S12,59.276,12,59v-3h9v3c0,0.276,0.224,0.5,0.5,0.5S22,59.276,22,59V26h1v33h33.75H57h0.25
	c0.966,0,1.75-0.784,1.75-1.75v-46.5C59,9.784,58.216,9,57.25,9z M21,55h-9v-3h9V55z M21,51h-9v-3h9V51z M21,47h-9v-3h9V47z M21,43
	h-9v-3h9V43z M21,39h-9v-3h9V39z M21,35h-9v-3h9V35z M21,31h-9v-3h9V31z M21,27h-9v-1h9V27z M21,22h-9v-1h9V22z M40,57H25V26h15V57z
	 M57,57h-2H42v-6h3.5h8H55h2V57z M57,49h-2H42v-5h3.5h8H55h2V49z M57,42h-2H42V26h10h3h1h1V42z"/>
<path d="M50.262,12h-4.107C44.643,12,43,13.119,43,14.631V16h10v-1.369C53,13.119,51.774,12,50.262,12z"/>
<path d="M39,27H26v29h13V27z M36.917,42c-0.46,0-0.833-0.373-0.833-0.833c0-0.46,0.373-0.833,0.833-0.833
	c0.46,0,0.833,0.373,0.833,0.833C37.75,41.627,37.377,42,36.917,42z"/>
<path d="M43,27v14h12h1V27h-1H43z M44.917,35c-0.46,0-0.833-0.373-0.833-0.833c0-0.46,0.373-0.833,0.833-0.833
	c0.46,0,0.833,0.373,0.833,0.833C45.75,34.627,45.377,35,44.917,35z"/>
<path d="M54,45c0,0.431-0.224,1-0.5,1h-8c-0.276,0-0.5-0.569-0.5-1h-2v3h12h1v-3h-1H54z"/>
<path d="M54,52c0,0.431-0.224,1-0.5,1h-8c-0.276,0-0.5-0.569-0.5-1h-2v4h12h1v-4h-1H54z"/>
</svg>
