<?xml version="1.0" encoding="utf-8"?>
<!-- Generator: Adobe Illustrator 17.1.0, SVG Export Plug-In . SVG Version: 6.00 Build 0)  -->
<!DOCTYPE svg PUBLIC "-//W3C//DTD SVG 1.1//EN" "http://www.w3.org/Graphics/SVG/1.1/DTD/svg11.dtd">
<svg version="1.1" id="Layer_1" xmlns="http://www.w3.org/2000/svg" xmlns:xlink="http://www.w3.org/1999/xlink" x="0px" y="0px"
	 viewBox="0 0 128 128" enable-background="new 0 0 128 128" xml:space="preserve">
<path d="M89,59.2H70.4c-1.8,0-3.3,1.5-3.3,3.3v3.3v3.3c0,1.8,1.5,3.3,3.3,3.3h19.6c1.8,0,3.3-1.5,3.3-3.3v-3.3v-2.2v-1.1
	c0-1.8-1.5-3.3-3.3-3.3H89z"/>
<path d="M11.6,96.2v17.6h6.5v-6.5h89.6v6.5h6.5V96.2H11.6z"/>
<g>
	<path d="M107.9,37.3v10.6c0,0-0.1-0.1-0.1-0.1v0.1c-3.9-3.8-9.3-6.2-15.3-6.2H33.6c-5.9,0-11.3,2.4-15.3,6.2v-0.1
		c0,0-0.1,0.1-0.1,0.1V37.3h-6.5v39.3c1.5-2.4,3.8-4.3,7.7-4.3h2.2h9.7c-0.7-0.9-1.1-2.1-1.1-3.3v-6.5c0-3,2.5-5.5,5.5-5.5h0.2h19.4
		h0.2c3,0,5.5,2.5,5.5,5.5V69c0,1.2-0.4,2.4-1.1,3.3h6.4c-0.7-0.9-1.1-2.1-1.1-3.3v-6.5c0-3,2.5-5.5,5.5-5.5h0.2h19.4h0.2
		c3,0,5.1,2.5,5.1,5.5V69c0,1.2-0.4,2.4-1.1,3.3h10.1h2.2c3.8,0,6.2,1.9,7.7,4.3V37.3H107.9z"/>
</g>
<path d="M35.4,72.2h19.6c1.8,0,3.3-1.5,3.3-3.3v-3.3v-2.2v-1.1c0-1.8-1.5-3.3-3.3-3.3h-1.1H35.4c-1.8,0-3.3,1.5-3.3,3.3v3.3v3.3
	C32.2,70.8,33.7,72.2,35.4,72.2z"/>
<path d="M114.4,85.6c-0.3-0.1-0.7-0.2-1.1-0.2h-0.8c-0.1,0-99.7,0-99.7,0h-0.1c-0.3,0-0.7,0.1-1,0.2c-1.2,0.4-2.2,1.7-2.2,3.1v2.2
	c0,1.5,0.9,2.6,2.2,3.1c0.3,0.1,0.7,0.2,1.1,0.2h100.6c0.2,0,0.4,0,0.6-0.1c0.2,0,0.3-0.1,0.5-0.1c1.2-0.4,2.2-1.7,2.2-3.1v-2.2
	C116.6,87.3,115.7,86.1,114.4,85.6z"/>
<path d="M114.2,82c-0.5-2.9-2.2-7.6-7.4-7.6H94.6H19.3c-5.2,0-6.9,4.7-7.4,7.6c-0.1,0.4-0.1,0.8-0.2,1.1h101.1h1.6
	C114.3,82.8,114.3,82.4,114.2,82z"/>
</svg>
