<?xml version="1.0" encoding="utf-8"?>
<!-- Generator: Adobe Illustrator 17.1.0, SVG Export Plug-In . SVG Version: 6.00 Build 0)  -->
<!DOCTYPE svg PUBLIC "-//W3C//DTD SVG 1.1//EN" "http://www.w3.org/Graphics/SVG/1.1/DTD/svg11.dtd">
<svg version="1.1" id="Layer_1" xmlns="http://www.w3.org/2000/svg" xmlns:xlink="http://www.w3.org/1999/xlink" x="0px" y="0px"
	 viewBox="0 0 128 128" enable-background="new 0 0 128 128" xml:space="preserve">
<path d="M100,26H70v80h30V26z M75.8,66.1c-1.4,0-2.5-1.1-2.5-2.5s1.1-2.5,2.5-2.5s2.5,1.1,2.5,2.5C78.2,65,77.1,66.1,75.8,66.1z"/>
<path d="M110,122v-6v-6V18H20v92v6v6h6v-6h36v6h6v-6h36v6H110z M62,108H28V24h34V108z M102,108H68V24h34V108z"/>
<polygon points="110,16 114,12 16,12 20,16 "/>
</svg>
