<?xml version="1.0" encoding="iso-8859-1"?>
<!-- Generator: Adobe Illustrator 17.1.0, SVG Export Plug-In . SVG Version: 6.00 Build 0)  -->
<!DOCTYPE svg PUBLIC "-//W3C//DTD SVG 1.1//EN" "http://www.w3.org/Graphics/SVG/1.1/DTD/svg11.dtd">
<svg version="1.1" id="Layer_1" xmlns="http://www.w3.org/2000/svg" xmlns:xlink="http://www.w3.org/1999/xlink" x="0px" y="0px"
	 viewBox="0 0 64 64" style="enable-background:new 0 0 64 64;" xml:space="preserve">
<path d="M38.931,48.342C38.971,48.234,39,48.121,39,48v-7.687l3.191-2.005L39,26.324V21c0-0.552-0.448-1-1-1
	c-0.239,0-0.449,0.095-0.621,0.235L32.536,2.049L18.774,1.584l6.357,24.429c0.191,0.013,0.373,0.05,0.546,0.113
	c0.225,0.082,0.429,0.203,0.609,0.355L20.079,2.629L31.76,3.024L37,22.7l2,7.51l2.035,7.642L39,39.132l-2,1.257l-6.098,3.833
	L27,29.226v1.985v1.984l3.278,12.598l6.426-4.038L27,51.46v2.828l10-10v3.227c-0.033,0.023-0.072,0.033-0.104,0.061
	c-0.011,0.01-0.015,0.024-0.026,0.035c-0.011,0.011-0.026,0.015-0.036,0.026l-5.19,5.562c-0.377,0.404-0.355,1.037,0.049,1.414
	c0.192,0.18,0.438,0.269,0.682,0.269c0.267,0,0.534-0.106,0.731-0.317l4.446-4.764l4.275,4.75c0.197,0.22,0.47,0.331,0.744,0.331
	c0.238,0,0.478-0.085,0.668-0.257c0.411-0.369,0.444-1.002,0.074-1.412L38.931,48.342z"/>
<path d="M26.955,56.416l-0.016-0.017l-0.866-0.962c-0.01-0.011-0.024-0.015-0.035-0.026c-0.011-0.011-0.015-0.026-0.026-0.036
	C26.009,55.37,26.004,55.37,26,55.366v-0.09V52.46V29.353V28c0-0.404-0.242-0.749-0.588-0.906C25.286,27.036,25.148,27,25,27
	c-0.553,0-1,0.448-1,1v28c0,0.019,0.01,0.035,0.011,0.054l-0.005,0.005l-0.783,0.839l-3.814,4.086
	c-0.377,0.404-0.355,1.037,0.049,1.414c0.192,0.18,0.438,0.269,0.682,0.269c0.267,0,0.534-0.106,0.731-0.317l4.066-4.356
	l0.381-0.408l0.281,0.313l3.994,4.438c0.197,0.22,0.47,0.331,0.744,0.331c0.238,0,0.478-0.085,0.668-0.257
	c0.411-0.369,0.444-1.002,0.074-1.412L26.955,56.416z"/>
<ellipse transform="matrix(0.9144 0.4048 -0.4048 0.9144 11.3747 -10.7713)" cx="31.157" cy="21.511" rx="3.003" ry="0.435"/>
<ellipse transform="matrix(-0.9144 -0.4048 0.4048 -0.9144 51.5114 59.1215)" cx="32.006" cy="24.115" rx="4.355" ry="0.435"/>
</svg>
