<?xml version="1.0" encoding="iso-8859-1"?>
<!-- Generator: Adobe Illustrator 17.1.0, SVG Export Plug-In . SVG Version: 6.00 Build 0)  -->
<!DOCTYPE svg PUBLIC "-//W3C//DTD SVG 1.1//EN" "http://www.w3.org/Graphics/SVG/1.1/DTD/svg11.dtd">
<svg version="1.1" id="Layer_1" xmlns="http://www.w3.org/2000/svg" xmlns:xlink="http://www.w3.org/1999/xlink" x="0px" y="0px"
	 viewBox="0 0 64 64" style="enable-background:new 0 0 64 64;" xml:space="preserve">
<polygon points="22.832,33 21,33 21,34 20,34 13,34 13,33 11.909,33 3.766,40 17.859,40 "/>
<polygon points="15,41 5,41 3,41 3,44 3,46 5,46 5,44 15,44 15,46 18,46 18,41 17,41 "/>
<polygon points="27,38 27,40 27,41 29,41 29,40 35,40 35,41 37,41 37,40 37,38 37,37 27,37 "/>
<path d="M12,32h1.007c0.038-1.551,1.434-3,2.914-3h2.273c1.582,0,2.764,1.57,2.799,3H23v-5H12V32z"/>
<path d="M20,32.065C20,32.064,20,32.064,20,32.065c0-0.022-0.006-0.043-0.007-0.065c-0.036-1.019-0.906-2-1.798-2c0,0,0,0-0.001,0h0
	h-2.273c-0.931,0-1.874,0.999-1.914,2C14.006,32.022,14,32.043,14,32.064V33h6V32.065z"/>
<polygon points="19,40.743 19,45 23,38 23,34.491 23,34.254 21.898,36.041 "/>
<polygon points="51.82,33 51,33 51,34 50,34 43,34 43,33 40.896,33 45.869,40 59.964,40 "/>
<polygon points="48,41 47,41 46,41 46,46 48,46 48,44 59,44 59,46 61,46 61,44 61,41 59,41 "/>
<path d="M52,32v-5H40v5h3.005c0.027-1.486,0.966-3,2.53-3h2.273c1.528,0,3.137,1.53,3.183,3H52z"/>
<path d="M47.809,30h-2.273h0h0c-0.928,0-1.506,1.026-1.53,2C44.004,32.021,44,32.043,44,32.064V33h6v-0.935c0,0,0,0,0,0
	c0-0.021-0.008-0.043-0.009-0.064C49.939,31.069,48.79,30,47.809,30z"/>
<polygon points="40,38 45,45 45,40.743 40,34.254 "/>
<polygon points="27.708,33 25.719,36 38.223,36 35.95,33 "/>
</svg>
