<?xml version="1.0" encoding="iso-8859-1"?>
<!-- Generator: Adobe Illustrator 17.1.0, SVG Export Plug-In . SVG Version: 6.00 Build 0)  -->
<!DOCTYPE svg PUBLIC "-//W3C//DTD SVG 1.1//EN" "http://www.w3.org/Graphics/SVG/1.1/DTD/svg11.dtd">
<svg version="1.1" id="Layer_1" xmlns="http://www.w3.org/2000/svg" xmlns:xlink="http://www.w3.org/1999/xlink" x="0px" y="0px"
	 viewBox="0 0 64 64" style="enable-background:new 0 0 64 64;" xml:space="preserve">
<path d="M51,32H7.758C6.419,32,5,32.979,5,34.318v8.485c0,1.339,1,2.424,3,2.424v6.364C8,52.762,8.707,54,9.879,54h0.606
	C11.656,54,13,52.762,13,51.591V45h36v6.591C49,52.762,49.919,54,51.091,54h0.606C52.868,54,54,52.762,54,51.591V45h2.242
	C57.581,45,59,44.142,59,42.803v-3.636v-4.848V11h-8V32z"/>
<path d="M50,29.022C50,27.189,48.696,26,46.863,26h-4.978C40.052,26,38,27.189,38,29.022V31h12V29.022z"/>
</svg>
