<?xml version="1.0" encoding="utf-8"?>
<!-- Generator: Adobe Illustrator 17.1.0, SVG Export Plug-In . SVG Version: 6.00 Build 0)  -->
<!DOCTYPE svg PUBLIC "-//W3C//DTD SVG 1.1//EN" "http://www.w3.org/Graphics/SVG/1.1/DTD/svg11.dtd">
<svg version="1.1" id="Layer_1" xmlns="http://www.w3.org/2000/svg" xmlns:xlink="http://www.w3.org/1999/xlink" x="0px" y="0px"
	 viewBox="0 0 200 200" enable-background="new 0 0 200 200" xml:space="preserve">
<path d="M35.5,116.2c-3.6,0-6.6,3-6.6,6.6v6.6h143.3v-6.6c0-3.6-3-6.6-6.6-6.6H35.5z"/>
<path d="M182.7,100h-1.6c-3.1,0-5.6,2.5-5.6,5.6v26.9H22.3v-26.9c0-3.1-2.7-5.6-5.8-5.6H15c-3.1,0-5.6,2.5-5.6,5.6v66.7
	c0,3.1,2.5,5.6,5.6,5.6h167.8c3.1,0,5.6-2.5,5.6-5.6v-66.7C188.4,102.5,185.9,100,182.7,100z M71.2,145.6v26.1H22.3v-29.4h3.3h4.2
	h41.4V145.6z M123.5,171.8l-48.9-0.1v-26.1v-3.3h48.9v3.3L123.5,171.8z M175.5,171.6h-48.9v-25.9v-3.3h48.9V171.6L175.5,171.6z"/>
<path d="M160,100h-13.4c-4.8,0-10.3,3.6-10.3,8.6v4.5h32.5v-4.5C168.9,103.6,164.8,100,160,100z"/>
<path d="M159.1,145.6c1.7,0,3.3,1.4,3.3,3.3c0,1.9-1.4,3.3-3.3,3.3h-16.2c-1.9,0-3.3-1.4-3.3-3.3c0-1.9,1.4-3.3,3.3-3.3h-13v22.8
	h42.3v-22.8h-6.6H159.1z"/>
<path d="M68,168.4v-22.8H55c1.9,0,3.3,1.4,3.3,3.3c0,1.9-1.4,3.3-3.3,3.3H38.8c-1.7,0-3.3-1.4-3.3-3.3c0-1.9,1.4-3.3,3.3-3.3h-3.3
	h-9.7v22.8H68z"/>
<path d="M120,145.6h-13c1.9,0,3.3,1.4,3.3,3.3c0,1.9-1.4,3.3-3.3,3.3H90.8c-1.9,0-3.3-1.4-3.3-3.3c0-1.9,1.4-3.3,3.3-3.3h-13v22.8
	h42.3v-22.8H120z"/>
</svg>
