<?xml version="1.0" encoding="utf-8"?>
<!-- Generator: Adobe Illustrator 17.1.0, SVG Export Plug-In . SVG Version: 6.00 Build 0)  -->
<!DOCTYPE svg PUBLIC "-//W3C//DTD SVG 1.1//EN" "http://www.w3.org/Graphics/SVG/1.1/DTD/svg11.dtd">
<svg version="1.1" id="Layer_1" xmlns="http://www.w3.org/2000/svg" xmlns:xlink="http://www.w3.org/1999/xlink" x="0px" y="0px"
	 viewBox="0 0 128 128" enable-background="new 0 0 128 128" xml:space="preserve">
<path d="M94.9,33.9c-0.3-0.5-6.8-9.7-20.1-13.2v-6.3h6.5c1.2,0,2.2-1,2.2-2.2s-1-2.2-2.2-2.2H46.7c-1.2,0-2.2,1-2.2,2.2
	s1,2.2,2.2,2.2h6.5v6.3C40,24.2,33.8,33.4,33.5,33.9c-0.6,1-0.4,2.3,0.6,3c1,0.7,2.3,0.4,3-0.6c0.1-0.2,1.2-1.7,3.1-3.6v75.7
	l-6.5,6.5c-0.8,0.8-0.8,2.2,0,3.1c0.4,0.4,1,0.6,1.5,0.6s1.1-0.2,1.5-0.6l6.5-6.5H84l6.5,6.5c0.4,0.4,1,0.6,1.5,0.6s1.1-0.2,1.5-0.6
	c0.8-0.8,0.8-2.2,0-3.1l-5.8-5.8V32.4c2.3,2.1,3.5,3.7,3.6,3.9c0.4,0.6,1.1,0.9,1.8,0.9c0.4,0,0.8-0.1,1.2-0.4
	C95.3,36.2,95.6,34.9,94.9,33.9z M57.5,14.3h13v5.5c-2-0.3-4.2-0.5-6.5-0.5c-2.3,0-4.4,0.2-6.5,0.5V14.3z M83.4,107.2H44.6V72.6
	h38.9V107.2z M83.4,68.3H44.6v-8.6h38.9V68.3z M44.6,55.3V29.2c4.4-2.9,10.8-5.7,19.4-5.7c8.5,0,14.9,2.6,19.4,5.5v26.2H44.6z"/>
</svg>
