<?xml version="1.0" encoding="iso-8859-1"?>
<!-- Generator: Adobe Illustrator 17.1.0, SVG Export Plug-In . SVG Version: 6.00 Build 0)  -->
<!DOCTYPE svg PUBLIC "-//W3C//DTD SVG 1.1//EN" "http://www.w3.org/Graphics/SVG/1.1/DTD/svg11.dtd">
<svg version="1.1" id="Layer_1" xmlns="http://www.w3.org/2000/svg" xmlns:xlink="http://www.w3.org/1999/xlink" x="0px" y="0px"
	 viewBox="0 0 64 64" style="enable-background:new 0 0 64 64;" xml:space="preserve">
<path d="M28.63,13.246c-2.291-3.819-7.037-5.312-11.062-3.583l-0.243-0.46c-0.226-0.428-0.754-0.592-1.184-0.366
	c-0.428,0.226-0.592,0.756-0.365,1.184l0.258,0.489c-3.668,2.52-4.907,7.422-2.804,11.409L28.63,13.246z"/>
<path d="M48.778,10.747l0.383-0.725c0.227-0.428,0.062-0.958-0.365-1.184c-0.427-0.227-0.957-0.062-1.184,0.366l-0.333,0.63
	c-4.098-1.978-9.058-0.519-11.416,3.414l15.399,8.673C53.303,18.052,52.194,13.327,48.778,10.747z"/>
<path d="M32.501,34c0.211,0,0.424-0.066,0.604-0.204l4.698-3.574c0.439-0.334,0.524-0.962,0.19-1.401
	c-0.335-0.439-0.963-0.525-1.401-0.19L33,31.363V22c0-0.276-0.224-0.5-0.5-0.5S32,21.724,32,22v10.124l-0.105,0.08
	c-0.439,0.334-0.524,0.962-0.19,1.401C31.901,33.864,32.199,34,32.501,34z"/>
<path d="M29,11h2v4.438C21.852,16.082,14.625,23.688,14.625,33c0,6.184,3.191,11.615,8.01,14.76
	c-0.099,0.103-0.19,0.214-0.265,0.343l-2.198,3.783c-0.503,0.865-0.209,1.975,0.656,2.478l0.324,0.188
	c0.866,0.503,1.975,0.209,2.478-0.656l2.198-3.783c0.117-0.201,0.186-0.416,0.22-0.632c1.932,0.727,4.016,1.144,6.202,1.144
	c2.013,0,3.939-0.354,5.74-0.975c0.041,0.159,0.095,0.315,0.181,0.464l2.198,3.783c0.503,0.866,1.612,1.159,2.478,0.656l0.324-0.188
	c0.865-0.503,1.159-1.612,0.656-2.478l-2.198-3.783c-0.029-0.051-0.068-0.093-0.101-0.139c5.004-3.11,8.346-8.64,8.346-14.964
	c0-9.734-7.891-17.625-17.625-17.625c-0.084,0-0.166,0.011-0.25,0.013V11h2c0.553,0,1-0.448,1-1s-0.447-1-1-1h-5
	c-0.553,0-1,0.448-1,1S28.447,11,29,11z M32.25,18.875c7.801,0,14.125,6.324,14.125,14.125S40.051,47.125,32.25,47.125
	S18.125,40.801,18.125,33S24.449,18.875,32.25,18.875z"/>
<rect x="20" y="33" width="3" height="1"/>
<rect x="41" y="33" width="3" height="1"/>
<rect x="32" y="42" width="1" height="3"/>
</svg>
