<?xml version="1.0" encoding="utf-8"?>
<!-- Generator: Adobe Illustrator 17.1.0, SVG Export Plug-In . SVG Version: 6.00 Build 0)  -->
<!DOCTYPE svg PUBLIC "-//W3C//DTD SVG 1.1//EN" "http://www.w3.org/Graphics/SVG/1.1/DTD/svg11.dtd">
<svg version="1.1" id="Layer_1" xmlns="http://www.w3.org/2000/svg" xmlns:xlink="http://www.w3.org/1999/xlink" x="0px" y="0px"
	 viewBox="0 0 128 128" enable-background="new 0 0 128 128" xml:space="preserve">
<path d="M20.1,111.6h83.8V123h5.7v-11.4v-1.9V50.6H14.4v59.1v1.9V123h5.7V111.6z M102,54.4h3.8v30.5H102V54.4z M94.4,54.4h5.7v30.5
	h-5.7V54.4z M86.8,54.4h5.7v30.5h-5.7V54.4z M79.1,54.4h5.7v30.5h-5.7V54.4z M71.5,54.4h5.7v30.5h-5.7V54.4z M63.9,54.4h5.7v30.5
	h-5.7V54.4z M56.3,54.4H62v30.5h-5.7V54.4z M48.7,54.4h5.7v30.5h-5.7V54.4z M41,54.4h5.7v30.5H41V54.4z M33.4,54.4h5.7v30.5h-5.7
	V54.4z M25.8,54.4h5.7v30.5h-5.7V54.4z M18.2,54.4h5.7v30.5h-5.7V54.4z"/>
<path d="M80.1,39.7l-0.9-1.9c0,0,0-16.1,0-17.7c0-1.7-0.7-2.4-0.7-2.4L63.5,2.3C63.3,2.1,63.1,2,62.8,2c-0.3,0-0.5,0.1-0.7,0.3
	L48.3,18c-0.7,0.7-1.5,1.5-1.5,2.5l0,18.9L43.3,43l5.4,5.4l5.4-5.4l-5.4-5.4V22.8c2.7,1.7,8,2.4,13.3,2.5v9.6
	c-1.8,0.4-3.1,2-3.1,3.9c0,2.2,1.8,4,4,4c2.2,0,4-1.8,4-4c0-1.8-1.2-3.3-2.9-3.8v-9.7c5.4-0.1,10.6-0.8,13.3-2.5v14.9l-0.9,1.9
	l-4.2,0.6l3,3l-0.7,4.2l3.8-2l3.8,2l-0.7-4.2l3-3L80.1,39.7z M62,23.9c-8.4-0.1-13.1-2.1-13.3-3.3c0,0-0.1-0.4,0.6-0.9
	c1.4-1,5.9-2.4,12.7-2.5V23.9z M51.8,16.9L62.9,4.4l12.4,12.8C69.3,15.5,58.3,15.4,51.8,16.9z M77.2,20.7c-0.2,1.1-4.9,3.1-13.3,3.3
	v-6.7c8.4,0.1,13.1,2.1,13.3,3.3V20.7z"/>
</svg>
