<?xml version="1.0" encoding="iso-8859-1"?>
<!-- Generator: Adobe Illustrator 17.1.0, SVG Export Plug-In . SVG Version: 6.00 Build 0)  -->
<!DOCTYPE svg PUBLIC "-//W3C//DTD SVG 1.1//EN" "http://www.w3.org/Graphics/SVG/1.1/DTD/svg11.dtd">
<svg version="1.1" id="Layer_1" xmlns="http://www.w3.org/2000/svg" xmlns:xlink="http://www.w3.org/1999/xlink" x="0px" y="0px"
	 viewBox="0 0 64 64" style="enable-background:new 0 0 64 64;" xml:space="preserve">
<path d="M46,32c0.552,0,1-0.448,1-1V9.125c0-0.3-0.135-0.584-0.367-0.774C46.4,8.16,46.094,8.085,45.8,8.145
	c-1.58,0.322-2.949,0.485-4.068,0.485c-3.267,0-4.006-1.319-4.941-2.99C35.758,3.795,34.472,1.5,29.75,1.5
	c-5.086,0-6.499,2.473-7.635,4.459c-1.005,1.759-1.8,3.149-5.062,3.149c-1.07,0-2.366-0.156-3.851-0.463
	c-0.297-0.061-0.602,0.014-0.834,0.204C12.135,9.04,12,9.324,12,9.625V31c0,0.552,0.448,1,1,1H46z M14,10.829
	c1.134,0.188,2.141,0.279,3.054,0.279c4.422,0,5.685-2.208,6.798-4.156C24.911,5.1,25.825,3.5,29.75,3.5
	c3.55,0,4.32,1.375,5.295,3.117c1.001,1.788,2.248,4.013,6.687,4.013c0.967,0,2.044-0.099,3.268-0.302V30H14V10.829z"/>
<path d="M33,43h15v-6H33V43z M37,40.906C37,40.406,37.406,40,37.906,40h5.188c0.5,0,0.906,0.406,0.906,0.906v0.188
	c0,0.5-0.406,0.906-0.906,0.906h-5.188C37.406,42,37,41.594,37,41.094V40.906z"/>
<path d="M13,43h15v-6H13V43z M17,40.906C17,40.406,17.406,40,17.906,40h5.188c0.5,0,0.906,0.406,0.906,0.906v0.188
	c0,0.5-0.406,0.906-0.906,0.906h-5.188C17.406,42,17,41.594,17,41.094V40.906z"/>
<path d="M8,58v3v3h3v-3v-3V46h39v12v3v3h3v-3v-3V33H8V58z M32,36h17v8H32V36z M12,36h17v8H12V36z"/>
<ellipse transform="matrix(0.6832 0.7302 -0.7302 0.6832 22.1067 -16.3337)" cx="29.877" cy="17.311" rx="5.173" ry="0.75"/>
<ellipse transform="matrix(-0.6832 -0.7303 0.7303 -0.6832 33.5277 58.5701)" cx="29.469" cy="22.012" rx="7.503" ry="0.75"/>
<path d="M41.25,50h-21.5C18.784,50,18,50.784,18,51.75v0.5c0,0.966,0.784,1.75,1.75,1.75h21.5c0.966,0,1.75-0.784,1.75-1.75v-0.5
	C43,50.784,42.216,50,41.25,50z"/>
<polygon points="38,55 23,55 21,55 21,55 21,61 21,64 23,64 23,61 23,59 38,59 38,61 38,64 40,64 40,61 40,59 40,59 40,55 40,55 "/>
</svg>
