<?xml version="1.0" encoding="utf-8"?>
<!-- Generator: Adobe Illustrator 17.1.0, SVG Export Plug-In . SVG Version: 6.00 Build 0)  -->
<!DOCTYPE svg PUBLIC "-//W3C//DTD SVG 1.1//EN" "http://www.w3.org/Graphics/SVG/1.1/DTD/svg11.dtd">
<svg version="1.1" id="Layer_1" xmlns="http://www.w3.org/2000/svg" xmlns:xlink="http://www.w3.org/1999/xlink" x="0px" y="0px"
	 viewBox="0 0 128 128" enable-background="new 0 0 128 128" xml:space="preserve">
<path d="M114,42H51.2c3.8,3.4,6.1,8.3,6.1,13.7c0,1.6-0.2,3-0.6,4.3H114c2.2,0,4-1.8,4-4V46C118,43.8,116.2,42,114,42z M67.7,54.5
	c-1.6,0-2.9-1.3-2.9-2.9s1.3-2.9,2.9-2.9s2.9,1.3,2.9,2.9C70.5,53.3,69.3,54.5,67.7,54.5z M103.7,54.5c-1.6,0-2.9-1.3-2.9-2.9
	s1.3-2.9,2.9-2.9s2.9,1.3,2.9,2.9C106.5,53.3,105.3,54.5,103.7,54.5z"/>
<path d="M24.1,42H14c-2.2,0-4,1.8-4,4v10c0,2.2,1.8,4,4,4h4.6c-0.4-1.3-0.6-2.7-0.6-4.3C18,50.3,20.4,45.4,24.1,42z"/>
<path d="M49,79.9l0.4,0.1c2.5,0,4.6-2.2,4.6-5V64.2V63c0-0.1,0-0.1,0-0.2c0-0.5-0.1-0.9-0.2-1.3c0.3-0.4,0.6-0.9,0.8-1.5
	c0.5-1.2,0.8-2.6,0.8-4.3c0-5.6-2.9-10.6-7.3-13.7c-1.4-1-2.1-1.8-4.1-2.3c-0.3,0-0.5,0-0.7,0c0-0.4,0-0.7-0.1-1
	c-0.1-0.4-0.2-0.8-0.3-1.1C42,35.4,40,34,37.7,34s-4.3,1.4-5.2,3.4c-0.2,0.4-0.3,0.7-0.3,1.1C32,38.9,32,39.3,32,39.7h0l0,0
	c-1.7,0.6-3.3,1.3-4.7,2.3c-4.4,3.1-7.3,8-7.3,13.7c0,1.7,0.3,3.1,0.8,4.3c0.3,0.8,0.8,1.5,1.3,2.1c0,0.3-0.1,0.6-0.1,0.9v0.4v1.3
	V75c0,2.9,1.8,5,4.2,5l0.4-0.1c0,0,4.5-1.8,11.4-1.8C44.8,78.2,49,79.9,49,79.9z M34.1,39.1c0.1-0.4,0.2-0.7,0.3-1.1
	c0.2-0.4,0.5-0.8,0.9-1.1c0.6-0.6,1.5-0.9,2.4-0.9s1.7,0.3,2.4,0.9c0.4,0.3,0.7,0.7,0.9,1.1c0.2,0.3,0.3,0.7,0.3,1.1
	c0,0.2,0.1,0.4,0.1,0.6c0,0.8-0.1,1.1-1.5,1.1c-0.3,0-0.6,0-1,0c-0.4,0-0.8,0-1.2,0s-0.8,0-1.2,0c-0.3,0-0.7,0-1,0
	c-1.4,0-1.5-0.2-1.5-1.1C34,39.5,34,39.3,34.1,39.1z M26.1,78c-1.4-0.1-2.1-1.6-2.1-3v-9v-1.1v-1.2c3.2,2,8.1,2.3,13.7,2.3
	c5.8,0,10.9-0.3,14.1-2.6c0.1,0,0.1-0.1,0.2-0.2v1.2v1.2V75c0,1.6-1.1,2.9-2.4,3c-1-0.4-5.1-1.8-11.6-1.8
	C31.5,76.2,27.1,77.6,26.1,78z"/>
</svg>
