<?xml version="1.0" encoding="iso-8859-1"?>
<!-- Generator: Adobe Illustrator 17.1.0, SVG Export Plug-In . SVG Version: 6.00 Build 0)  -->
<!DOCTYPE svg PUBLIC "-//W3C//DTD SVG 1.1//EN" "http://www.w3.org/Graphics/SVG/1.1/DTD/svg11.dtd">
<svg version="1.1" id="Layer_1" xmlns="http://www.w3.org/2000/svg" xmlns:xlink="http://www.w3.org/1999/xlink" x="0px" y="0px"
	 viewBox="0 0 64 64" style="enable-background:new 0 0 64 64;" xml:space="preserve">
<path d="M51,29V15c0-7.851-8.565-14-19.5-14S12,7.149,12,15v14h3V15c0-6.168,7.248-11,16.5-11S48,8.832,48,15v14H51z"/>
<path d="M9,58v3v3h3v-3v-3V46h39v12v3v3h3v-3v-3V33H9V58z M13,36h37v8H13V36z"/>
<path d="M14,43h35v-6H14V43z M30.875,38.562c0.69,0,1.25,0.56,1.25,1.25s-0.56,1.25-1.25,1.25s-1.25-0.56-1.25-1.25
	S30.185,38.562,30.875,38.562z"/>
<polygon points="51,30 48,30 47,30 15,30 11,30 7,30 9,32 54,32 56,30 52,30 "/>
<ellipse transform="matrix(0.6832 0.7302 -0.7302 0.6832 20.963 -17.6976)" cx="30.877" cy="15.311" rx="5.173" ry="0.75"/>
<ellipse transform="matrix(-0.6832 -0.7303 0.7303 -0.6832 36.6714 55.934)" cx="30.469" cy="20.012" rx="7.503" ry="0.75"/>
</svg>
