<?xml version="1.0" encoding="iso-8859-1"?>
<!-- Generator: Adobe Illustrator 17.1.0, SVG Export Plug-In . SVG Version: 6.00 Build 0)  -->
<!DOCTYPE svg PUBLIC "-//W3C//DTD SVG 1.1//EN" "http://www.w3.org/Graphics/SVG/1.1/DTD/svg11.dtd">
<svg version="1.1" id="Layer_1" xmlns="http://www.w3.org/2000/svg" xmlns:xlink="http://www.w3.org/1999/xlink" x="0px" y="0px"
	 viewBox="0 0 64 64" style="enable-background:new 0 0 64 64;" xml:space="preserve">
<g>
	<path d="M18.41,12.103L24.169,12l0.266,3h8.952l3.677-9H45V1c0,0-14.543,0-16.408,0c-1.865,0-3.012,1.209-3.012,1.209
		s-5.729,5.638-7.372,7.112C15.43,11.812,18.41,12.103,18.41,12.103z"/>
	<polygon points="46,5.438 49,4.625 49,2.688 46,1.625 	"/>
	<rect x="23" y="16" width="12" height="4"/>
	<path d="M40,45.375c0-9.125-4.93-11.292-5.462-11.792s-0.88-0.964-0.88-1.964S35,29.875,35,28.833c0-1.833-1.287-2.124-1.287-2.999
		c0-1.501,1.122-1.454,1.122-2.704c0-1.713-1.119-2.13-1.119-2.13s-8.303-0.062-10.168,0C15.875,33.375,16,46,16,46s0,10.75,0,13.75
		S17.455,63,17.455,63s19.822,0,21.314,0S40,61,40,61S40,57.75,40,45.375z"/>
	<path d="M48.503,18c-4.547-4.682-4.618-11-4.618-11h-5.471c1.137,6.667,5.321,10.256,8.13,11.938
		c1.461,0.875,1.951,0.748,2.184,0.449C49.32,18.625,48.503,18,48.503,18z"/>
</g>
</svg>
