<?xml version="1.0" encoding="utf-8"?>
<!-- Generator: Adobe Illustrator 17.1.0, SVG Export Plug-In . SVG Version: 6.00 Build 0)  -->
<!DOCTYPE svg PUBLIC "-//W3C//DTD SVG 1.1//EN" "http://www.w3.org/Graphics/SVG/1.1/DTD/svg11.dtd">
<svg version="1.1" id="Layer_1" xmlns="http://www.w3.org/2000/svg" xmlns:xlink="http://www.w3.org/1999/xlink" x="0px" y="0px"
	 viewBox="0 0 128 128" enable-background="new 0 0 128 128" xml:space="preserve">
<g>
	<path d="M79.2,3.2c0-0.8-0.3-1.5-1.1-1.5c-0.6,0-1.1,0.6-1.1,1.5v72.5l2.1,0.4V3.2z"/>
	<polygon points="63.6,120.5 81.1,92.6 65.4,88.1 60.2,89.9 21.2,103.9 62.5,121.6 	"/>
	<polygon points="62.9,74.9 18.5,102.3 63.8,86.3 	"/>
	<polygon points="82.3,90.7 88.8,80.2 81.3,78.7 79.2,78.3 77,77.8 74.9,77.4 66,75.6 66.7,86.2 	"/>
	<polygon points="89.5,83.1 88.6,84.7 84.4,91.3 83.8,92.3 83.6,92.5 83.2,93.2 69.8,114.7 64,124 90.8,95.4 91.3,94.8 90.4,81.7 	
		"/>
</g>
</svg>
