<?xml version="1.0" encoding="iso-8859-1"?>
<!-- Generator: Adobe Illustrator 17.1.0, SVG Export Plug-In . SVG Version: 6.00 Build 0)  -->
<!DOCTYPE svg PUBLIC "-//W3C//DTD SVG 1.1//EN" "http://www.w3.org/Graphics/SVG/1.1/DTD/svg11.dtd">
<svg version="1.1" id="Layer_1" xmlns="http://www.w3.org/2000/svg" xmlns:xlink="http://www.w3.org/1999/xlink" x="0px" y="0px"
	 viewBox="0 0 64 64" style="enable-background:new 0 0 64 64;" xml:space="preserve">
<g>
	<path d="M42.917,21c0-1.588-0.818-3-1.826-3h-1.436c0.003-0.065,0.013-0.129,0.013-0.194c0-2.121-1.474-3.97-3.667-4.983V10h-7
		v2.548c-2.557,0.925-4.333,2.928-4.333,5.257c0,0.066,0.01,0.129,0.013,0.194h-1.853C21.818,18,21,19.412,21,21s0.818,3,1.826,3
		C21.818,24,21,25.412,21,27s0.818,3,1.826,3H23v21h-0.174C21.818,51,21,52.412,21,54s0.818,3,1.826,3C21.818,57,21,58.412,21,60
		s0.818,3,1.826,3H41.09c1.009,0,1.826-1.412,1.826-3s-0.818-3-1.826-3c1.009,0,1.826-1.412,1.826-3s-0.818-3-1.826-3H41V30h0.09
		c1.009,0,1.826-1.412,1.826-3s-0.818-3-1.826-3C42.099,24,42.917,22.588,42.917,21z"/>
	<rect x="28" y="5" width="9" height="4"/>
</g>
</svg>
