<?xml version="1.0" encoding="iso-8859-1"?>
<!-- Generator: Adobe Illustrator 17.1.0, SVG Export Plug-In . SVG Version: 6.00 Build 0)  -->
<!DOCTYPE svg PUBLIC "-//W3C//DTD SVG 1.1//EN" "http://www.w3.org/Graphics/SVG/1.1/DTD/svg11.dtd">
<svg version="1.1" id="Layer_1" xmlns="http://www.w3.org/2000/svg" xmlns:xlink="http://www.w3.org/1999/xlink" x="0px" y="0px"
	 viewBox="0 0 64 64" style="enable-background:new 0 0 64 64;" xml:space="preserve">
<g>
	<polygon points="21,57 44,57 44.606,52 20.394,52 	"/>
	<polygon points="20.273,51 44.727,51 47.273,30 17.727,30 	"/>
	<path d="M46.687,20h-0.375C45.588,20,45,20.392,45,20.875V24H20v-3.125C20,20.392,19.412,20,18.687,20h-0.375
		C17.588,20,17,20.392,17,20.875V24v0.125c0,0.03,0.021,0.055,0.025,0.083L17.606,29h29.788l0.581-4.792
		C47.979,24.18,48,24.155,48,24.125V24v-3.125C48,20.392,47.412,20,46.687,20z"/>
	<path d="M32.375,7.812c6.343,0,11.794,4.303,13.257,10.465l0.973-0.23c-1.569-6.615-7.421-11.234-14.229-11.234
		c-6.801,0-12.65,4.614-14.227,11.22l0.973,0.232C20.589,12.111,26.039,7.812,32.375,7.812z"/>
</g>
</svg>
