<?xml version="1.0" encoding="utf-8"?>
<!-- Generator: Adobe Illustrator 17.1.0, SVG Export Plug-In . SVG Version: 6.00 Build 0)  -->
<!DOCTYPE svg PUBLIC "-//W3C//DTD SVG 1.1//EN" "http://www.w3.org/Graphics/SVG/1.1/DTD/svg11.dtd">
<svg version="1.1" id="Layer_1" xmlns="http://www.w3.org/2000/svg" xmlns:xlink="http://www.w3.org/1999/xlink" x="0px" y="0px"
	 viewBox="0 0 128 128" enable-background="new 0 0 128 128" xml:space="preserve">
<g>
	<path d="M85.4,6h-8.8c-1.6,0-3,0.8-3.8,2h5.6c0.3,0,0.6,0,0.8,0.1c0.7,0.1,1.3,0.3,1.9,0.7c0.5,0.3,0.9,0.6,1.3,1
		c0.9,1,1.5,2.3,1.5,3.8v34.8c0,3.1-2.5,5.6-5.6,5.6h-1H76h-2h-1.9c0.2,1.3,0.9,2.5,1.9,3.2c0.6,0.4,1.3,0.6,2,0.7v56.6
		c0,1.8,2.9,3.4,6,3.4s6-1.6,6-3.4v0V57.2c1.2-0.8,2-2.2,2-3.8V13.1v-2.6C90,8.1,87.9,6,85.4,6z"/>
	<path d="M76,52h2.4c2,0,3.6-1.6,3.6-3.6V14.6v-1c0-1.6-1.1-3-2.6-3.4c-0.3-0.1-0.6-0.1-0.9-0.1h-1h-1.2h-0.7h-3.5h-2.5
		c-0.2,0-0.4,0-0.6,0.1c1.1,0.7,2.1,1.8,3,3.2c0.8,1.2,1.4,2.6,2,4.2c1,2.8,1.7,6.1,2,9.8c0.1,1.3,0.2,2.6,0.2,4s-0.1,2.7-0.2,4
		c-0.3,3.7-1,7.1-2,9.8c-0.6,1.6-1.2,3-2,4.2c-0.7,1.1-1.5,2-2.4,2.7H72h2L76,52L76,52z"/>
	<path d="M72,44.8c1-2.6,1.7-5.8,2-9.5c0.1-1.3,0.2-2.6,0.2-4s-0.1-2.7-0.2-4c-0.3-3.7-1-7-2-9.5c-1.4-3.6-3.2-6-5.1-6.4
		c-0.2-0.1-0.5-0.1-0.7-0.1c-0.2,0-0.5,0-0.7,0.1c-0.4,0.1-0.7,0.3-1.1,0.5c-3.2,2.1-6.2,9.4-6.2,19.5c0,10,2.8,17.2,6,19.4
		c0.1,0.1,0.3,0.2,0.4,0.3c0.5,0.3,1,0.4,1.6,0.4c0.4,0,0.7-0.1,1.1-0.2C69,50.4,70.7,48.2,72,44.8z"/>
</g>
</svg>
