<?xml version="1.0" encoding="utf-8"?>
<!-- Generator: Adobe Illustrator 17.1.0, SVG Export Plug-In . SVG Version: 6.00 Build 0)  -->
<!DOCTYPE svg PUBLIC "-//W3C//DTD SVG 1.1//EN" "http://www.w3.org/Graphics/SVG/1.1/DTD/svg11.dtd">
<svg version="1.1" id="Layer_1" xmlns="http://www.w3.org/2000/svg" xmlns:xlink="http://www.w3.org/1999/xlink" x="0px" y="0px"
	 viewBox="0 0 128 128" enable-background="new 0 0 128 128" xml:space="preserve">
<g>
	<path d="M118.8,72.7c-5.5-0.4-22.9-2.4-23.4-2.4c0.1,0-0.2,0-0.7,0c-0.9,0-2.8,0.2-6,1.8c-1.1,0.6-4.3,2.1-8.6,4.3
		c0.1,0,0.2,0,0.3,0c1.4,0,2.9,0.3,3.7,1.3l8.8-4.5l22.6,2.1l-59.2,41.2L19.7,111l47.6-24.5c0,0,0.1-2.9,1.5-4
		c-19.7,10-47.2,24.3-52.9,27.3c-2.4,1.2-2.1,3.3,0,3.7c3.1,0.6,37.9,5.6,38.7,5.7c2.9,0.4,4.9-1.3,5-1.4l59.8-41.7
		c1-0.7,1.3-1,1.3-2C120.9,73.3,120,72.8,118.8,72.7z"/>
	<path d="M85.1,88.6c0,0.3-0.2,0.7-0.5,0.8l-11.4,7.2c-0.4,0.2-0.8,0.2-1,0.1c-0.2-0.1-4.6-1.4-4.6-1.4c-0.5-0.2-0.7-0.9-0.7-1.3
		l0.4-5.3l-41.4,21.3l30,4.5l54.4-37.8l-16.8-1.5l-8.4,4.4V88.6z"/>
	<path d="M70.1,79.6l0.9,1.1c1-0.5,2.2-1.1,3.4-1.8l-0.8-1.1l-1.2-1.5l-56.6-71c-0.7-0.9-1.8-1-2.7-0.3c-0.9,0.7-1,1.8-0.3,2.7
		L69,78.1L70.1,79.6z"/>
	<path d="M79.5,78.5c-0.4,0.2-7.4,4-7.7,4.1c-1.8,1-2.2,3.2-2.3,4s-0.7,7.1-0.7,7.1l2.9,0.9c0,0,0-8.5,0-8.7s0.2-2.1,1.1-2.6
		c0.7-0.4,8.4-4.4,8.5-4.5C81.2,78.5,80.9,77.9,79.5,78.5z"/>
	<path d="M82.8,79.8c-0.4,0.2-8.2,4.3-8.7,4.7c-0.5,0.4-0.5,1.2-0.5,1.4v8.3l9.6-6.1v-7.6c0-0.3,0-0.6-0.1-0.7
		C83.1,79.7,83,79.7,82.8,79.8z"/>
</g>
</svg>
