<?xml version="1.0" encoding="iso-8859-1"?>
<!-- Generator: Adobe Illustrator 17.1.0, SVG Export Plug-In . SVG Version: 6.00 Build 0)  -->
<!DOCTYPE svg PUBLIC "-//W3C//DTD SVG 1.1//EN" "http://www.w3.org/Graphics/SVG/1.1/DTD/svg11.dtd">
<svg version="1.1" id="Layer_1" xmlns="http://www.w3.org/2000/svg" xmlns:xlink="http://www.w3.org/1999/xlink" x="0px" y="0px"
	 viewBox="0 0 64 64" style="enable-background:new 0 0 64 64;" xml:space="preserve">
<g>
	<polygon points="32,3.573 32,3.574 32,3.574 	"/>
	<path d="M40,37.216c-0.279-0.114-0.616-0.178-1-0.201V3.574c0-0.893-1.43-1.706-3-1.706s-3,0.813-3,1.706V6h3v21h-1h-2v10.042
		c-0.372,0.046-0.709,0.139-1,0.275c-0.605,0.283-1,0.759-1,1.47v20.967C31,60.995,32.179,62,33.633,62H38.7
		c1.454,0,2.3-1.005,2.3-2.246V38.787C41,37.986,40.642,37.478,40,37.216z M33.248,54.938C33.724,55.543,34.822,56,36,56h0
		C34.822,56,33.724,55.543,33.248,54.938z"/>
	<polygon points="32,26 33,26 35,26 35,7 33,7 32,7 24.314,7 25.892,8.5 23.788,10.5 25.892,12.5 23.788,14.5 25.892,16.5 
		23.788,18.5 25.892,20.5 23.788,22.5 25.892,24.5 24.314,26 	"/>
</g>
</svg>
