<?xml version="1.0" encoding="iso-8859-1"?>
<!-- Generator: Adobe Illustrator 17.1.0, SVG Export Plug-In . SVG Version: 6.00 Build 0)  -->
<!DOCTYPE svg PUBLIC "-//W3C//DTD SVG 1.1//EN" "http://www.w3.org/Graphics/SVG/1.1/DTD/svg11.dtd">
<svg version="1.1" id="Layer_1" xmlns="http://www.w3.org/2000/svg" xmlns:xlink="http://www.w3.org/1999/xlink" x="0px" y="0px"
	 viewBox="0 0 64 64" style="enable-background:new 0 0 64 64;" xml:space="preserve">
<g>
	<polygon points="49.161,15 50.762,11 13.238,11 14.839,15 	"/>
	<polygon points="14.839,49 13.238,53 50.762,53 49.161,49 	"/>
	<path d="M49.64,47c0.817-2.521,5.663-18.778-1.168-30H15.44c-0.903,1.963-6.046,14.36-0.097,30H49.64z M25.174,27.083
		c0.147,0,0.286,0.029,0.429,0.043c1.54-1.609,3.703-2.617,6.1-2.617c0.828,0,1.627,0.125,2.384,0.348
		c0.651-1.622,2.234-2.774,4.087-2.774c2.432,0,4.409,1.978,4.409,4.409c0,1.853-1.151,3.435-2.774,4.087
		c0.223,0.757,0.348,1.556,0.348,2.384c0,4.661-3.793,8.453-8.454,8.453c-3.73,0-6.898-2.432-8.017-5.791
		c-1.698-0.614-2.921-2.226-2.921-4.133C20.765,29.062,22.742,27.083,25.174,27.083z"/>
	<path d="M29.583,31.493c0,2.431-1.978,4.409-4.409,4.409c-0.114,0-0.222-0.025-0.334-0.034c1.135,2.671,3.784,4.548,6.863,4.548
		c4.11,0,7.454-3.343,7.454-7.453c0-0.74-0.112-1.454-0.314-2.129c-0.22,0.034-0.44,0.068-0.67,0.068
		c-2.432,0-4.409-1.978-4.409-4.409c0-0.229,0.034-0.449,0.068-0.669c-0.675-0.202-1.389-0.314-2.129-0.314
		c-1.893,0-3.619,0.716-4.935,1.883C28.411,28.035,29.583,29.625,29.583,31.493z"/>
	<path d="M38.174,29.902c0.104,0,0.202-0.021,0.303-0.031c0.177-0.016,0.35-0.039,0.518-0.081c0.164-0.041,0.326-0.086,0.48-0.149
		c1.236-0.513,2.108-1.73,2.108-3.149c0-1.88-1.529-3.409-3.409-3.409c-1.419,0-2.636,0.872-3.149,2.108
		c-0.064,0.154-0.108,0.316-0.149,0.48c-0.042,0.168-0.065,0.341-0.081,0.518c-0.009,0.101-0.031,0.199-0.031,0.303
		C34.765,28.373,36.294,29.902,38.174,29.902z"/>
	<path d="M23.378,34.378c0.176,0.11,0.362,0.206,0.558,0.283c0.181,0.071,0.367,0.133,0.561,0.173
		c0.219,0.044,0.445,0.068,0.677,0.068c1.88,0,3.409-1.529,3.409-3.409c0-1.599-1.111-2.935-2.599-3.301
		c-0.185-0.045-0.376-0.07-0.571-0.084c-0.081-0.006-0.158-0.024-0.24-0.024c-0.134,0-0.261,0.024-0.391,0.039
		c-1.694,0.196-3.019,1.624-3.019,3.37C21.765,32.712,22.413,33.775,23.378,34.378z"/>
</g>
</svg>
