<?xml version="1.0" encoding="iso-8859-1"?>
<!-- Generator: Adobe Illustrator 17.1.0, SVG Export Plug-In . SVG Version: 6.00 Build 0)  -->
<!DOCTYPE svg PUBLIC "-//W3C//DTD SVG 1.1//EN" "http://www.w3.org/Graphics/SVG/1.1/DTD/svg11.dtd">
<svg version="1.1" id="Layer_1" xmlns="http://www.w3.org/2000/svg" xmlns:xlink="http://www.w3.org/1999/xlink" x="0px" y="0px"
	 viewBox="0 0 64 64" style="enable-background:new 0 0 64 64;" xml:space="preserve">
<g>
	<path d="M45.773,1.417l-0.47-0.171c-0.083-0.03-0.17-0.045-0.257-0.045c-0.314,0-0.598,0.198-0.705,0.493L31.626,36.558
		c-0.17-0.021-0.342-0.037-0.514-0.05c-0.173-0.013-0.348-0.02-0.523-0.024c-2.721-0.067-5.621,0.928-7.753,3.298l6.116,1.189
		l0.497,0.097l0.497,0.097l1.988,0.387l0.497,0.097l0.497,0.097l5.464,1.062c-0.012-0.221-0.03-0.435-0.058-0.641
		c-0.292-2.157-1.789-3.823-3.817-4.78c-0.15-0.071-0.302-0.14-0.458-0.203c-0.154-0.062-0.311-0.118-0.469-0.173L46.221,2.379
		C46.362,1.99,46.161,1.559,45.773,1.417z"/>
	<path d="M29.203,43.058l-7.678-1.493c-2.811,4.503-3.83,10.106-6.358,12.935c-0.942,1.055-2.833,3.659-5.833,4.167l16.354,2
		L30.167,54l-1.976,6.973L32.5,61.5c0,0,5.072-10.018,5.814-16.67l-6.519-1.268L29.203,43.058z"/>
</g>
</svg>
