<?xml version="1.0" encoding="iso-8859-1"?>
<!-- Generator: Adobe Illustrator 17.1.0, SVG Export Plug-In . SVG Version: 6.00 Build 0)  -->
<!DOCTYPE svg PUBLIC "-//W3C//DTD SVG 1.1//EN" "http://www.w3.org/Graphics/SVG/1.1/DTD/svg11.dtd">
<svg version="1.1" id="Layer_1" xmlns="http://www.w3.org/2000/svg" xmlns:xlink="http://www.w3.org/1999/xlink" x="0px" y="0px"
	 viewBox="0 0 64 64" style="enable-background:new 0 0 64 64;" xml:space="preserve">
<g>
	<path d="M43.182,38.528c-0.407-0.476-2.458-2.6-7.182-3.395c-1.117-0.188-2.382-0.303-3.813-0.303c-1.567,0-2.953,0.13-4.187,0.332
		c-4.603,0.756-6.966,2.589-7.515,3.07L19.144,57h25.677L43.182,38.528z"/>
	<path d="M19.514,37.783l0.127-0.131c0.124-0.128,2.625-2.623,8.359-3.51c1.243-0.192,2.631-0.312,4.187-0.312
		c1.424,0,2.681,0.114,3.813,0.293c5.846,0.924,7.971,3.776,8.074,3.92l0.079,0.11L45.825,57H48V34.84c0-0.001,0-0.001,0-0.002
		c-0.002-1.876-2.624-2.643-5.401-3.454c-3.046-0.89-6.484-1.901-6.599-4.811v-0.687v-0.738V13c0-1.105-0.822-2-1.74-2h-4.157
		C29.185,11,28,11.895,28,13v12.655v0.424v1.171c0,2.107-2.861,2.939-5.891,3.819C19.106,31.942,16,32.844,16,34.839V57h2.142
		L19.514,37.783z M31.84,14.264c0.732,0,1.326,0.594,1.326,1.326c0,0.733-0.594,1.326-1.326,1.326c-0.733,0-1.326-0.594-1.326-1.326
		C30.514,14.858,31.108,14.264,31.84,14.264z"/>
</g>
</svg>
