<?xml version="1.0" encoding="utf-8"?>
<!-- Generator: Adobe Illustrator 17.1.0, SVG Export Plug-In . SVG Version: 6.00 Build 0)  -->
<!DOCTYPE svg PUBLIC "-//W3C//DTD SVG 1.1//EN" "http://www.w3.org/Graphics/SVG/1.1/DTD/svg11.dtd">
<svg version="1.1" id="Layer_1" xmlns="http://www.w3.org/2000/svg" xmlns:xlink="http://www.w3.org/1999/xlink" x="0px" y="0px"
	 viewBox="0 0 128 128" enable-background="new 0 0 128 128" xml:space="preserve">
<path d="M60,122V96c0-0.6,0.4-1,1-1s1,0.4,1,1v26h2V96c0-0.6,0.4-1,1-1s1,0.4,1,1v26h2V96c0-0.6,0.4-1,1-1s1,0.4,1,1v26h2V96
	c0-0.6,0.4-1,1-1s1,0.4,1,1v26h2V96c0-0.6,0.4-1,1-1s1,0.4,1,1v26h2V92.5c0-0.6,0-1.2-0.1-1.8c0-0.3-0.1-0.5-0.1-0.8H50.2
	c-0.1,0.8-0.2,1.7-0.2,2.5V122h2V96c0-0.6,0.4-1,1-1s1,0.4,1,1v26h2V96c0-0.6,0.4-1,1-1s1,0.4,1,1v26H60z"/>
<g>
	<path d="M69.8,76.5c-0.4,0.9-1.3,1.5-2.3,1.5h-1H65h-1.5h-1c-1,0-1.9-0.6-2.3-1.5c-4.8,1.7-8.4,6-9.7,11.5H65h14.5
		C78.1,82.5,74.5,78.2,69.8,76.5z"/>
	<path d="M62.3,75.9c0.1,0,0.1,0.1,0.2,0.1h1.4h0.2h0.8H65h0.1h0.8h0.2h1.4c0.1,0,0.1,0,0.2-0.1c0.2-0.1,0.3-0.2,0.3-0.4v-0.7v-0.3
		c0,0,0-0.1,0-0.1c0-0.1-0.1-0.2-0.1-0.3c-0.1-0.1-0.2-0.1-0.3-0.1h-2.4H65h-0.1h-2.4c-0.1,0-0.2,0.1-0.3,0.1
		c-0.1,0.1-0.1,0.2-0.1,0.3c0,0,0,0.1,0,0.1v0.3v0.7C62,75.7,62.2,75.9,62.3,75.9z"/>
</g>
<rect x="64" y="9.9" width="2" height="62.1"/>
</svg>
