<?xml version="1.0" encoding="iso-8859-1"?>
<!-- Generator: Adobe Illustrator 17.1.0, SVG Export Plug-In . SVG Version: 6.00 Build 0)  -->
<!DOCTYPE svg PUBLIC "-//W3C//DTD SVG 1.1//EN" "http://www.w3.org/Graphics/SVG/1.1/DTD/svg11.dtd">
<svg version="1.1" id="Layer_1" xmlns="http://www.w3.org/2000/svg" xmlns:xlink="http://www.w3.org/1999/xlink" x="0px" y="0px"
	 viewBox="0 0 64 64" style="enable-background:new 0 0 64 64;" xml:space="preserve">
<path d="M21.602,7c-1.554,2.748-2.479,6.108-2.479,9.75c0,8.247,4.698,15.087,10.877,16.477c0,8.12,0,19.218,0,20.919
	c0,1.814-1.425,2.557-2.384,2.854H26.5c-0.828,0-1.5,0.672-1.5,1.5s0.672,1.5,1.5,1.5h4.635h1.542H37.5c0.828,0,1.5-0.672,1.5-1.5
	S38.328,57,37.5,57h-1.013C35.391,56.674,34,55.915,34,54.146c0-1.805,0-12.732,0-20.799c6.484-1.055,11.5-8.075,11.5-16.598
	c0-3.642-0.925-7.002-2.479-9.75H21.602z M34,31.111c-0.55,0.088-1.131,0.139-1.75,0.139c-0.809,0-1.553-0.091-2.25-0.242
	c-8.355-1.819-9-13.619-9-13.619c1-0.991,2.441-2.183,5.311-2.326c5.003-0.25,6.091,3.75,12.023,3.688
	C40.107,18.731,43,18.312,43,17.74C43,17.74,42.776,29.7,34,31.111z"/>
</svg>
