<?xml version="1.0" encoding="iso-8859-1"?>
<!-- Generator: Adobe Illustrator 17.1.0, SVG Export Plug-In . SVG Version: 6.00 Build 0)  -->
<!DOCTYPE svg PUBLIC "-//W3C//DTD SVG 1.1//EN" "http://www.w3.org/Graphics/SVG/1.1/DTD/svg11.dtd">
<svg version="1.1" id="Layer_1" xmlns="http://www.w3.org/2000/svg" xmlns:xlink="http://www.w3.org/1999/xlink" x="0px" y="0px"
	 viewBox="0 0 64 64" style="enable-background:new 0 0 64 64;" xml:space="preserve">
<g>
	<path d="M9.515,47.228H9.461L8.596,33.193H7v14.035v0.877v1.754v7.895h1.596l0.46-5.263h7.787l0.651,5.263h0.911v-5.702V49.86
		v-2.632h-2.212H9.515z M16.734,51.614H9.132l0.154-1.754h7.232L16.734,51.614z"/>
	<path d="M54.319,47.228h-0.054h-6.676h-2.869v2.632v7.895h1.568l0.651-5.263h7.787l0.46,5.263H57V49.86v-1.754v-0.877V33.193
		h-1.815L54.319,47.228z M54.648,51.614h-7.602l0.217-1.754h7.232L54.648,51.614z"/>
	<path d="M49.982,41.192v-2.84c0-0.427-0.346-0.773-0.773-0.773H14.79c-0.427,0-0.773,0.346-0.773,0.773v2.84
		c0,0.427,0.346,0.773,0.773,0.773h9.754v1.754h3.509v13.06c0,0.034,0.008,0.065,0.01,0.098h-3.518v1.754h5.263h4.386h5.263v-1.754
		h-3.518c0.002-0.033,0.01-0.065,0.01-0.098v-13.06h3.509v-1.754h9.754C49.637,41.965,49.982,41.619,49.982,41.192z"/>
	<path d="M26.821,3.368v12.565h-0.589c-0.702,2.346-1.689,4.334-1.689,7.527c0,2.846,1.129,5.291,1.397,6.708h3.06
		c0.546-1.611,1.19-3.95,1.19-6.708c0-3.194-0.762-5.182-1.464-7.527h-0.733V3.368H26.821z"/>
	<path d="M35.032,3.368v5.527h-0.53c-0.737,2.346-1.515,4.55-1.515,7.903c0,3.534,1.104,5.608,1.385,7.094h3.035
		c0.575-1.691,1.282-4.197,1.282-7.092c0-3.353-0.832-5.557-1.568-7.903h-0.915V3.368H35.032z"/>
</g>
</svg>
