<?xml version="1.0" encoding="iso-8859-1"?>
<!-- Generator: Adobe Illustrator 17.1.0, SVG Export Plug-In . SVG Version: 6.00 Build 0)  -->
<!DOCTYPE svg PUBLIC "-//W3C//DTD SVG 1.1//EN" "http://www.w3.org/Graphics/SVG/1.1/DTD/svg11.dtd">
<svg version="1.1" id="Layer_1" xmlns="http://www.w3.org/2000/svg" xmlns:xlink="http://www.w3.org/1999/xlink" x="0px" y="0px"
	 viewBox="0 0 64 64" style="enable-background:new 0 0 64 64;" xml:space="preserve">
<path d="M37,29.51c0.419-0.315,0.935-0.51,1.5-0.51h15c0.565,0,1.081,0.195,1.5,0.513V25H37V29.51z"/>
<path d="M36.079,23.915c0.028,0.009,0.056,0.017,0.084,0.025C36.297,23.975,36.435,24,36.58,24h0.517h17.768h0.067h0.21
	c0.254,0,0.504-0.058,0.737-0.152C56.508,23.594,57,23.052,57,22.5v-8c-0.032-0.453-1.656-1.791-5-2.602V13c0,0.552-0.448,1-1,1
	s-1-0.448-1-1v-1.483c-0.907-0.13-1.91-0.216-3-0.247V13c0,0.552-0.448,1-1,1s-1-0.448-1-1v-1.725c-1.089,0.042-2.087,0.143-3,0.284
	V13c0,0.552-0.448,1-1,1s-1-0.448-1-1v-1.04c-3.263,0.821-4.951,2.116-5,2.544V22.5C35,23.16,35.454,23.715,36.079,23.915z"/>
<polygon points="55.142,25 55.143,25 55.142,25 "/>
<path d="M36.5,57h19c0.827,0,1.5-0.673,1.5-1.5l-1.781-21.353l-0.217-2.606c0-0.007-0.002-0.013-0.002-0.02
	C54.988,30.663,54.321,30,53.5,30h-15c-0.827,0-1.5,0.673-1.5,1.5l-0.215,2.581l-0.016,0.196l-1.771,21.265
	C35,56.327,35.673,57,36.5,57z M49.956,44.075C49.366,44.567,48.524,45,47.429,45H45v3h-2V38h4.565c0.998,0,1.793,0.347,2.386,0.866
	c0.593,0.52,0.89,1.46,0.89,2.55C50.841,42.605,50.546,43.583,49.956,44.075z"/>
<path d="M47.229,40H45v3h2.229c0.48,0,0.854-0.175,1.121-0.417s0.4-0.652,0.4-1.176s-0.133-0.874-0.4-1.097S47.709,40,47.229,40z"/>
<path d="M8,29.51C8.419,29.195,8.935,29,9.5,29h15c0.565,0,1.081,0.195,1.5,0.513V25H8V29.51z"/>
<path d="M7.079,23.915c0.028,0.009,0.056,0.017,0.084,0.025C7.297,23.975,7.435,24,7.58,24h0.517h17.768h0.067h0.21
	c0.254,0,0.504-0.058,0.737-0.152C27.508,23.594,28,23.052,28,22.5v-8c-0.032-0.453-1.656-1.791-5-2.602V13c0,0.552-0.448,1-1,1
	s-1-0.448-1-1v-1.483c-0.907-0.13-1.91-0.216-3-0.247V13c0,0.552-0.448,1-1,1s-1-0.448-1-1v-1.725c-1.089,0.042-2.087,0.143-3,0.284
	V13c0,0.552-0.448,1-1,1s-1-0.448-1-1v-1.04c-3.263,0.821-4.951,2.116-5,2.544V22.5C6,23.16,6.454,23.715,7.079,23.915z"/>
<polygon points="26.142,25 26.143,25 26.142,25 "/>
<path d="M7.5,57h19c0.827,0,1.5-0.673,1.5-1.5l-1.781-21.353l-0.217-2.606c0-0.007-0.002-0.013-0.002-0.02
	C25.988,30.663,25.321,30,24.5,30h-15C8.673,30,8,30.673,8,31.5l-0.215,2.581l-0.016,0.196L5.998,55.542C6,56.327,6.673,57,7.5,57z
	 M20.86,46.722c-0.712,0.608-1.717,0.913-3.016,0.913c-1.327,0-2.37-0.432-3.13-1.031c-0.76-0.599-1.14-1.604-1.14-2.604h2.01
	c0.065,1,0.193,0.937,0.384,1.165c0.349,0.415,0.947,0.688,1.794,0.688c0.507,0,0.919-0.022,1.235-0.131
	c0.6-0.209,0.9-0.583,0.9-1.152c0-0.333-0.147-0.582-0.441-0.764c-0.294-0.178-0.761-0.331-1.399-0.468L16.967,43.1
	c-1.072-0.237-1.809-0.494-2.21-0.771c-0.679-0.465-1.019-1.191-1.019-2.18c0-0.902,0.332-1.652,0.997-2.249
	c0.664-0.597,1.64-0.895,2.927-0.895c1.075,0,1.992,0.131,2.75,0.694S21.569,39,21.606,40h-2.023c-0.038,0-0.309-0.887-0.813-1.142
	c-0.336-0.168-0.754-0.178-1.254-0.178c-0.556,0-1,0.147-1.332,0.366s-0.498,0.543-0.498,0.935c0,0.36,0.164,0.638,0.491,0.816
	c0.21,0.119,0.656,0.262,1.338,0.422l1.769,0.419c0.775,0.182,1.356,0.427,1.743,0.733c0.601,0.474,0.901,1.16,0.901,2.058
	C21.928,45.349,21.572,46.114,20.86,46.722z"/>
</svg>
