<?xml version="1.0" encoding="utf-8"?>
<!-- Generator: Adobe Illustrator 17.1.0, SVG Export Plug-In . SVG Version: 6.00 Build 0)  -->
<!DOCTYPE svg PUBLIC "-//W3C//DTD SVG 1.1//EN" "http://www.w3.org/Graphics/SVG/1.1/DTD/svg11.dtd">
<svg version="1.1" id="Layer_1" xmlns="http://www.w3.org/2000/svg" xmlns:xlink="http://www.w3.org/1999/xlink" x="0px" y="0px"
	 viewBox="0 0 128 128" enable-background="new 0 0 128 128" xml:space="preserve">
<g>
	<path d="M114.6,61.8V9.4H13.4v52.4H8v41.5h10.8H120V61.8H114.6z M87.5,13h21.7v45.2H87.5V13z M43.2,13h41.5v45.2H64.9h-1.8H43.2V13
		z M18.8,13h21.7v45.2H18.8V13z M44.1,96.1H18.8h-5.4V69h5.4h25.3V96.1z M78.5,96.1H49.5V85.3h28.9V96.1z M78.5,79.9H49.5V69h28.9
		V79.9z M114.6,96.1H83.9V69h30.7V96.1z"/>
	<path d="M112.8,70.8H85.7v23.5h27.1V70.8z M107.1,85.4c-1.2,0-2.3-1-2.3-2.3c0-1.2,1-2.3,2.3-2.3c1.2,0,2.3,1,2.3,2.3
		C109.4,84.4,108.4,85.4,107.1,85.4z"/>
	<rect x="20.6" y="14.8" width="18.1" height="41.5"/>
	<rect x="89.3" y="14.8" width="18.1" height="41.5"/>
	<path d="M63.1,14.8H45v41.5h18.1V14.8z M59.3,36.6c-1.2,0-2.3-1-2.3-2.3s1-2.3,2.3-2.3s2.3,1,2.3,2.3
		C61.5,35.6,60.5,36.6,59.3,36.6z"/>
	<path d="M83,14.8H64.9v41.5H83V14.8z M68.6,36.6c-1.2,0-2.3-1-2.3-2.3s1-2.3,2.3-2.3c1.2,0,2.3,1,2.3,2.3
		C70.9,35.6,69.9,36.6,68.6,36.6z"/>
	<path d="M15.2,70.8v23.5h3.6h23.5V70.8H18.8H15.2z M36.7,80.9c1.2,0,2.3,1,2.3,2.3c0,1.2-1,2.3-2.3,2.3s-2.3-1-2.3-2.3
		C34.4,81.9,35.4,80.9,36.7,80.9z"/>
	<rect x="11.6" y="107" width="9" height="3.6"/>
	<rect x="107.4" y="107" width="9" height="3.6"/>
</g>
</svg>
