<?xml version="1.0" encoding="iso-8859-1"?>
<!-- Generator: Adobe Illustrator 17.1.0, SVG Export Plug-In . SVG Version: 6.00 Build 0)  -->
<!DOCTYPE svg PUBLIC "-//W3C//DTD SVG 1.1//EN" "http://www.w3.org/Graphics/SVG/1.1/DTD/svg11.dtd">
<svg version="1.1" id="Layer_1" xmlns="http://www.w3.org/2000/svg" xmlns:xlink="http://www.w3.org/1999/xlink" x="0px" y="0px"
	 viewBox="0 0 64 64" style="enable-background:new 0 0 64 64;" xml:space="preserve">
<path d="M13.77,28.022c-0.106,0.38-0.145,0.848-0.145,1.37L12,59.482C12,60.873,12.895,62,14,62h3c1.105,0,2-1.127,2-2.518
	l-1.667-30.089c0-0.431-0.027-0.817-0.09-1.155c2.726-0.95,4.752-4.459,4.752-8.654c0-4.925-2.788-8.917-6.227-8.917
	c-3.439,0-6.227,3.992-6.227,8.917C9.541,23.506,11.312,26.829,13.77,28.022z"/>
<path d="M26.927,30.3c0,0.939,0.83,1.7,1.853,1.7h1.704L29,59.482C29,60.873,29.895,62,31,62h3c1.105,0,2-1.127,2-2.518L34.478,32
	h1.716c1.024,0,1.853-0.761,1.853-1.7l0.927-4.85c0-0.042-0.01-0.079-0.014-0.119C38.985,25.224,39,25.114,39,25V15
	c0-0.829-0.671-1.5-1.5-1.5S36,14.171,36,15v9v1c0,0.552-0.448,1-1,1s-1-0.448-1-1v-1v-9c0-0.829-0.671-1.5-1.5-1.5S31,14.171,31,15
	v9v1c0,0.552-0.448,1-1,1s-1-0.448-1-1v-1v-9c0-0.829-0.671-1.5-1.5-1.5S26,14.171,26,15v10c0,0.082,0.011,0.16,0.024,0.238
	C26.014,25.308,26,25.375,26,25.45L26.927,30.3z"/>
<path d="M52,31V6c0-1.105-1.173-2-2.619-2c0,0-2.292-0.25-5.239,18.25c-0.448,2.812,1.31,8.75,1.31,8.75
	c0,0.936,0.845,1.715,1.982,1.933L46,59.482C46,60.873,46.895,62,48,62h3c1.105,0,2-1.127,2-2.518l-1.512-27.304
	C51.806,31.847,52,31.442,52,31z"/>
</svg>
