<?xml version="1.0" encoding="iso-8859-1"?>
<!-- Generator: Adobe Illustrator 17.1.0, SVG Export Plug-In . SVG Version: 6.00 Build 0)  -->
<!DOCTYPE svg PUBLIC "-//W3C//DTD SVG 1.1//EN" "http://www.w3.org/Graphics/SVG/1.1/DTD/svg11.dtd">
<svg version="1.1" id="Layer_1" xmlns="http://www.w3.org/2000/svg" xmlns:xlink="http://www.w3.org/1999/xlink" x="0px" y="0px"
	 viewBox="0 0 64 64" style="enable-background:new 0 0 64 64;" xml:space="preserve">
<path d="M47,13H20c-1.105,0-2,0.895-2,2l4,41c0,1.105,0.895,2,2,2h19c1.105,0,2-0.895,2-2l4-41C49,13.895,48.105,13,47,13z
	 M43,53.281C43,54.386,43.125,55,42.274,55H25.488C24.638,55,24,54.23,24,53.125l-2-27.736c2-0.991,2.913-2.183,5.761-2.326
	c4.964-0.25,6.534,3.75,12.42,3.688C41.941,26.731,45,26.312,45,25.74L43,53.281z"/>
</svg>
