<?xml version="1.0" encoding="iso-8859-1"?>
<!-- Generator: Adobe Illustrator 17.1.0, SVG Export Plug-In . SVG Version: 6.00 Build 0)  -->
<!DOCTYPE svg PUBLIC "-//W3C//DTD SVG 1.1//EN" "http://www.w3.org/Graphics/SVG/1.1/DTD/svg11.dtd">
<svg version="1.1" id="Layer_1" xmlns="http://www.w3.org/2000/svg" xmlns:xlink="http://www.w3.org/1999/xlink" x="0px" y="0px"
	 viewBox="0 0 64 64" style="enable-background:new 0 0 64 64;" xml:space="preserve">
<path d="M29,38H15v19h14V38z M25.187,48.75c-0.656,0-1.187-0.532-1.187-1.188c0-0.656,0.532-1.188,1.187-1.188
	c0.656,0,1.188,0.532,1.188,1.188C26.375,48.218,25.843,48.75,25.187,48.75z"/>
<path d="M12,35v22v3v3h3v-3h14v3h3v-3v-3V35h-7H12z M30,57v1h-1H15h-1v-1V37h16V57z"/>
<path d="M33,35v22v3v3h3v-3h14v3h3v-3v-3V35H41H33z M51,57v1h-1H36h-1v-1V37h16V57z"/>
<path d="M50,38H36v19h14V38z M47.187,48.75c-0.656,0-1.187-0.532-1.187-1.188c0-0.656,0.532-1.188,1.187-1.188
	c0.656,0,1.188,0.532,1.188,1.188C48.375,48.218,47.843,48.75,47.187,48.75z"/>
<path d="M32,0h-7H11v29h21h21V0H41H32z M31,28H12V1h19V28z M52,28H33V1h19V28z"/>
<path d="M14,3h2v4.222c-1.284,1.221-2.208,4.323-2.208,5.757c0,0.007,0.002,0.014,0.002,0.021h6.537
	c0-0.007,0.002-0.014,0.002-0.021c0-1.48-0.984-4.742-2.333-5.873V3h2c0.276,0,0.5-0.224,0.5-0.5S20.276,2,20,2h-6
	c-0.276,0-0.5,0.224-0.5,0.5S13.724,3,14,3z"/>
<path d="M23,3h2v4.222c-1.284,1.221-2.208,4.323-2.208,5.757c0,0.007,0.002,0.014,0.002,0.021h6.537
	c0-0.007,0.002-0.014,0.002-0.021c0-1.48-0.984-4.742-2.333-5.873V3h2c0.276,0,0.5-0.224,0.5-0.5S29.276,2,29,2h-6
	c-0.276,0-0.5,0.224-0.5,0.5S22.724,3,23,3z"/>
<path d="M35,3h2v4.222c-1.284,1.221-2.208,4.323-2.208,5.757c0,0.007,0.002,0.014,0.002,0.021h6.537
	c0-0.007,0.002-0.014,0.002-0.021c0-1.48-0.984-4.742-2.333-5.873V3h2c0.276,0,0.5-0.224,0.5-0.5S41.276,2,41,2h-6
	c-0.276,0-0.5,0.224-0.5,0.5S34.724,3,35,3z"/>
<path d="M44,3h2v4.222c-1.284,1.221-2.208,4.323-2.208,5.757c0,0.007,0.002,0.014,0.002,0.021h6.537
	c0-0.007,0.002-0.014,0.002-0.021c0-1.48-0.984-4.742-2.333-5.873V3h2c0.276,0,0.5-0.224,0.5-0.5S50.276,2,50,2h-6
	c-0.276,0-0.5,0.224-0.5,0.5S43.724,3,44,3z"/>
<path d="M14,16h2v4.222c-1.284,1.221-2.208,4.323-2.208,5.757c0,0.007,0.002,0.014,0.002,0.021h6.537
	c0-0.007,0.002-0.014,0.002-0.021c0-1.48-0.984-4.742-2.333-5.873V16h2c0.276,0,0.5-0.224,0.5-0.5S20.276,15,20,15h-6
	c-0.276,0-0.5,0.224-0.5,0.5S13.724,16,14,16z"/>
<path d="M23,16h2v4.222c-1.284,1.221-2.208,4.323-2.208,5.757c0,0.007,0.002,0.014,0.002,0.021h6.537
	c0-0.007,0.002-0.014,0.002-0.021c0-1.48-0.984-4.742-2.333-5.873V16h2c0.276,0,0.5-0.224,0.5-0.5S29.276,15,29,15h-6
	c-0.276,0-0.5,0.224-0.5,0.5S22.724,16,23,16z"/>
<path d="M35,16h2v4.222c-1.284,1.221-2.208,4.323-2.208,5.757c0,0.007,0.002,0.014,0.002,0.021h6.537
	c0-0.007,0.002-0.014,0.002-0.021c0-1.48-0.984-4.742-2.333-5.873V16h2c0.276,0,0.5-0.224,0.5-0.5S41.276,15,41,15h-6
	c-0.276,0-0.5,0.224-0.5,0.5S34.724,16,35,16z"/>
<path d="M44,16h2v4.222c-1.284,1.221-2.208,4.323-2.208,5.757c0,0.007,0.002,0.014,0.002,0.021h6.537
	c0-0.007,0.002-0.014,0.002-0.021c0-1.48-0.984-4.742-2.333-5.873V16h2c0.276,0,0.5-0.224,0.5-0.5S50.276,15,50,15h-6
	c-0.276,0-0.5,0.224-0.5,0.5S43.724,16,44,16z"/>
</svg>
