<?xml version="1.0" encoding="iso-8859-1"?>
<!-- Generator: Adobe Illustrator 17.1.0, SVG Export Plug-In . SVG Version: 6.00 Build 0)  -->
<!DOCTYPE svg PUBLIC "-//W3C//DTD SVG 1.1//EN" "http://www.w3.org/Graphics/SVG/1.1/DTD/svg11.dtd">
<svg version="1.1" id="Layer_1" xmlns="http://www.w3.org/2000/svg" xmlns:xlink="http://www.w3.org/1999/xlink" x="0px" y="0px"
	 viewBox="0 0 64 64" style="enable-background:new 0 0 64 64;" xml:space="preserve">
<g>
	<path d="M2,14.115v38.438h60V14.115H2z M13.463,28.41l0.846,16.095c0,0.773-0.461,1.485-1.03,1.485h-1.545
		c-0.569,0-1.03-0.712-1.03-1.485l0.832-16.224c-1.222-0.649-2.098-2.318-2.098-4.294c0-2.536,1.435-4.592,3.207-4.592
		c1.771,0,3.207,2.056,3.207,4.593C15.851,26.116,14.834,27.889,13.463,28.41z M31.876,46.163c-7.657,0-13.885-6.229-13.885-13.884
		s6.229-13.884,13.885-13.884c7.656,0,13.884,6.229,13.884,13.884S39.532,46.163,31.876,46.163z M55.855,28.991
		c0,0.484-0.484,1.06-1.08,1.06h-1.088l0.766,13.744c0,0.716-0.461,1.256-1.03,1.256h-1.545c-0.569,0-1.03-0.54-1.03-1.256
		l0.746-13.743h-1.14c-0.596,0-1.08-0.577-1.08-1.06l-0.54-2.69c0-0.059,0.027-0.114,0.041-0.172v-5.453
		c0-0.517,0.419-0.938,0.937-0.938c0.518,0,0.938,0.42,0.938,0.938v4.688v0.938c0,0.259,0.21,0.469,0.469,0.469
		s0.469-0.21,0.469-0.469v-0.938v-4.688c0-0.517,0.419-0.938,0.938-0.938s0.937,0.42,0.937,0.938v4.688v0.938
		c0,0.259,0.21,0.469,0.469,0.469s0.469-0.21,0.469-0.469v-0.938v-4.688c0-0.517,0.419-0.938,0.937-0.938
		c0.518,0,0.938,0.42,0.938,0.938v5.544c0.003,0.027,0.02,0.052,0.02,0.081L55.855,28.991z"/>
	<path d="M31.876,24.331c-4.383,0-7.948,3.565-7.948,7.947s3.565,7.947,7.948,7.947c4.382,0,7.947-3.565,7.947-7.947
		S36.258,24.331,31.876,24.331z M31.876,38.351c-3.349,0-6.073-2.723-6.073-6.072s2.724-6.072,6.073-6.072
		c3.348,0,6.072,2.724,6.072,6.072S35.224,38.351,31.876,38.351z"/>
</g>
</svg>
