<?xml version="1.0" encoding="iso-8859-1"?>
<!-- Generator: Adobe Illustrator 17.1.0, SVG Export Plug-In . SVG Version: 6.00 Build 0)  -->
<!DOCTYPE svg PUBLIC "-//W3C//DTD SVG 1.1//EN" "http://www.w3.org/Graphics/SVG/1.1/DTD/svg11.dtd">
<svg version="1.1" id="Layer_1" xmlns="http://www.w3.org/2000/svg" xmlns:xlink="http://www.w3.org/1999/xlink" x="0px" y="0px"
	 viewBox="0 0 64 64" style="enable-background:new 0 0 64 64;" xml:space="preserve">
<rect x="9" y="37" width="3" height="1"/>
<rect x="9" y="43" width="3" height="1"/>
<rect x="9" y="41" width="3" height="1"/>
<rect x="9" y="35" width="3" height="1"/>
<rect x="9" y="39" width="3" height="1"/>
<polygon points="59,20 59,21 59,22 59,23 59,24 59,25 59,26 59,27 59,28 59,29 59,30 59,31 59,32 59,33 59,34 59,35 59,36 59,37 
	59,38 59,39 59,40 59,41 59,42 59,43 59,44 59,45 59,46 62,46 62,19 59,19 "/>
<rect x="55" y="23" width="3" height="1"/>
<rect x="55" y="31" width="3" height="1"/>
<rect x="55" y="33" width="3" height="1"/>
<rect x="55" y="29" width="3" height="1"/>
<polygon points="13,20 13,21 13,22 13,23 13,24 13,25 13,26 13,27 13,28 13,29 13,30 13,31 13,32 13,33 13,34 13,35 13,36 13,37 
	13,38 13,39 13,40 13,41 13,42 13,43 13,44 13,45 13,46 54,46 54,19 13,19 "/>
<rect x="55" y="27" width="3" height="1"/>
<rect x="55" y="25" width="3" height="1"/>
<rect x="55" y="35" width="3" height="1"/>
<rect x="55" y="37" width="3" height="1"/>
<rect x="55" y="43" width="3" height="1"/>
<rect x="9" y="45" width="3" height="1"/>
<rect x="55" y="19" width="3" height="1"/>
<rect x="55" y="41" width="3" height="1"/>
<rect x="9" y="19" width="3" height="1"/>
<rect x="55" y="39" width="3" height="1"/>
<rect x="55" y="45" width="3" height="1"/>
<rect x="55" y="21" width="3" height="1"/>
<rect x="9" y="27" width="3" height="1"/>
<rect x="9" y="21" width="3" height="1"/>
<rect x="9" y="29" width="3" height="1"/>
<rect x="9" y="33" width="3" height="1"/>
<rect x="9" y="25" width="3" height="1"/>
<rect x="9" y="23" width="3" height="1"/>
<rect x="9" y="31" width="3" height="1"/>
<rect x="5" y="19" width="3" height="27"/>
</svg>
