<?xml version="1.0" encoding="utf-8"?>
<!-- Generator: Adobe Illustrator 17.1.0, SVG Export Plug-In . SVG Version: 6.00 Build 0)  -->
<!DOCTYPE svg PUBLIC "-//W3C//DTD SVG 1.1//EN" "http://www.w3.org/Graphics/SVG/1.1/DTD/svg11.dtd">
<svg version="1.1" id="Layer_1" xmlns="http://www.w3.org/2000/svg" xmlns:xlink="http://www.w3.org/1999/xlink" x="0px" y="0px"
	 viewBox="0 0 128 128" enable-background="new 0 0 128 128" xml:space="preserve">
<path d="M96.3,90.6H71.4h-33H12.7c-2.1,0-2.7,1.3-2.7,2.9v1.9c0,1.6,0.7,2.7,2.7,2.7h83.6c2.1,0,2.8-1,2.8-2.6v-2.2
	C99.1,91.5,98.4,90.6,96.3,90.6z"/>
<path d="M103.7,46.3c-3.4,0-6.4,1.2-8.9,3.1c-0.1-0.5-0.1-1-0.2-1.5H15.2c-0.4,2.2-0.6,4.4-0.6,6.6c0,13.4,6.8,25.2,17.1,32.4H78
	c6.3-4.3,11.2-10.3,14.1-17.4c2.6,3.5,6.8,5.7,11.5,5.7c8,0,14.5-6.5,14.5-14.5S111.6,46.3,103.7,46.3z M95.7,60.7c0-4.4,3.6-8,8-8
	s8,3.6,8,8c0,4.4-3.6,8-8,8S95.7,65.1,95.7,60.7z"/>
</svg>
