<?xml version="1.0" encoding="utf-8"?>
<!-- Generator: Adobe Illustrator 17.1.0, SVG Export Plug-In . SVG Version: 6.00 Build 0)  -->
<!DOCTYPE svg PUBLIC "-//W3C//DTD SVG 1.1//EN" "http://www.w3.org/Graphics/SVG/1.1/DTD/svg11.dtd">
<svg version="1.1" id="Layer_1" xmlns="http://www.w3.org/2000/svg" xmlns:xlink="http://www.w3.org/1999/xlink" x="0px" y="0px"
	 viewBox="0 0 128 128" enable-background="new 0 0 128 128" xml:space="preserve">
<g>
	<path d="M112,96h2v-4.8c-0.7,0-1.3,0-2,0V96z"/>
	<path d="M110,89.3c0.1,0,0.2,0,0.3,0c0.4,0,0.8,0,1.2-0.1c0.2,0,0.4,0,0.5,0c0.3,0,0.7-0.1,1-0.1c0.3,0,0.7,0,1,0.1
		c0.2,0,0.4,0,0.5,0c0.4,0,0.8,0.1,1.2,0.1c0.1,0,0.2,0,0.3,0c1.2-0.1,2.8-0.8,2.8-10.7c0-15.5-3.3-37.1-5.9-38
		c-2.5,0.8-5.8,22.4-5.8,38c0,4.7,0.3,7.7,1.1,9.3C108.7,88.9,109.2,89.2,110,89.3z"/>
	<path d="M16,96h2v-4.8c-0.7,0-1.3,0-2,0V96z"/>
	<path d="M64,34V17.5c-7.6,0-15.7,3.8-22.3,9.4l7.6,12.8C53.2,36.2,58.3,34,64,34z"/>
	<polygon points="86,108 86,126 100,126 100,115.1 98.8,108 	"/>
	<path d="M100,51.9C100,51.9,100,51.9,100,51.9c0-8-4.4-16.7-11.2-23.5l-7.9,13.4c2.4,2.8,4,6.3,4.7,10.1L100,51.9L100,51.9z"/>
	<rect x="86" y="72" width="14" height="16"/>
	<polygon points="98,98 98,96 100,96 100,90 86,90 86,106 98.5,106 98,102 	"/>
	<path d="M47.7,41l-7.5-12.8C33,34.9,28,43.7,28,51.9V52h14v2H28v16h14V56c0-0.7,0-1.4,0.1-2.2c0.5-5.1,2.8-9.7,6.1-13.2L47.7,41z"
		/>
	<path d="M87.3,27.1C81.5,21.8,74,18.2,66,17.6v16.5c5.2,0.5,9.9,2.8,13.5,6.3L87.3,27.1z"/>
	<path d="M86,70h14V54H85.9c0.1,0.7,0.1,1.3,0.1,2V70z"/>
	<polygon points="28,96 30,96 30.2,102 30,104 29.5,106 42,106 42,90 28,90 	"/>
	<rect x="28" y="72" width="14" height="16"/>
	<polygon points="28,115.1 28,126 42,126 42,108 29.2,108 	"/>
	<path d="M64,36c-11,0-20,9-20,20v70h40v-18v-2V90v-2V72v-2V56C84,45,75,36,64,36z M50,56c0-0.5,0-1,0.1-1.4
		c0.6-5.9,4.8-10.8,10.6-12.2l1.2-0.3V78h-2H50V56z M62,120h-2H50V96v-2h12V120z M78,120h-2H66V96v-2h12V120z M78,92h-2h-9h-6H50V82
		v-2h28V92z M78,78h-2H66V43.4v-1.3l1.2,0.3C73.6,43.9,78,49.5,78,56V78z"/>
	<polygon points="100.2,104 100.5,106 100.8,108 102,114.9 103.8,126 120.2,126 123.8,104 102,104 	"/>
	<polygon points="116,98 114,98 112,98 110,98 102,98 100,98 100,102 102,102 110,102 114,102 116,102 124,102 124,98 	"/>
	<rect x="52" y="96" width="8" height="22"/>
	<path d="M60,44.7c-4.8,1.7-8,6.2-8,11.3v20h8V44.7z"/>
	<path d="M68,44.7V76h8V56c0-0.7-0.1-1.3-0.2-1.9C75.1,49.8,72.2,46.2,68,44.7z"/>
	<rect x="68" y="96" width="8" height="22"/>
	<polygon points="76,82 67,82 61,82 52,82 52,90 76,90 	"/>
	<polygon points="4.2,104 7.8,126 24.2,126 26,114.9 27.2,108 27.5,106 27.8,104 26,104 	"/>
	<polygon points="18,102 20,102 26,102 28,102 28,98 26,98 20,98 18,98 16,98 14,98 4,98 4,102 14,102 	"/>
	<path d="M14,89.3c0.1,0,0.2,0,0.3,0c0.4,0,0.8,0,1.2-0.1c0.2,0,0.4,0,0.5,0c0.3,0,0.7-0.1,1-0.1c0.3,0,0.7,0,1,0.1
		c0.2,0,0.4,0,0.5,0c0.4,0,0.8,0.1,1.2,0.1c0.1,0,0.2,0,0.3,0c0.6,0,1.2-0.2,1.7-1.3c0.6-1.3,1.1-4,1.1-9.4c0-2.1-0.1-4.3-0.2-6.6
		c0-0.7-0.1-1.3-0.1-2c-0.3-5.5-1-11.1-1.7-16c-0.1-0.7-0.2-1.3-0.3-2c-1.1-6.4-2.4-11-3.5-11.4c-2.5,0.8-5.8,22.4-5.8,38
		c0,4.7,0.4,7.7,1.1,9.3C12.7,88.9,13.2,89.2,14,89.3z"/>
</g>
</svg>
