<?xml version="1.0" encoding="iso-8859-1"?>
<!-- Generator: Adobe Illustrator 17.1.0, SVG Export Plug-In . SVG Version: 6.00 Build 0)  -->
<!DOCTYPE svg PUBLIC "-//W3C//DTD SVG 1.1//EN" "http://www.w3.org/Graphics/SVG/1.1/DTD/svg11.dtd">
<svg version="1.1" id="Layer_1" xmlns="http://www.w3.org/2000/svg" xmlns:xlink="http://www.w3.org/1999/xlink" x="0px" y="0px"
	 viewBox="0 0 64 64" style="enable-background:new 0 0 64 64;" xml:space="preserve">
<g>
	<path d="M26,54h15V21H26V54z M38.161,33.122c1.02,0,1.85,0.83,1.85,1.849s-0.83,1.849-1.85,1.849s-1.849-0.829-1.849-1.849
		S37.142,33.122,38.161,33.122z"/>
	<circle cx="38.161" cy="34.97" r="0.849"/>
	<polygon points="23,18.834 23,54 25,54 25,21 25,20.535 24.544,20.106 	"/>
	<polygon points="23.762,18 23.561,18 25.201,19.351 25.988,20 40.976,20 41,19.978 41,19.83 43.144,18 	"/>
	<polygon points="42,20.423 42,54 44,54 44,18.622 44,18.584 42,20.291 	"/>
	<polygon points="20.25,12 47.75,12 57.125,12 53.759,7 13.366,7 10,12 10.75,12 	"/>
	<rect x="12" y="16" width="7" height="38"/>
	<path d="M19.75,55H19h-8h-0.25C10.337,55,10,55.336,10,55.75v0.5c0,0.414,0.337,0.75,0.75,0.75h9.5c0.413,0,0.75-0.336,0.75-0.75
		C21,55.56,20.44,55,19.75,55z"/>
	<path d="M19.75,13h-9C10.337,13,10,13.336,10,13.75v0.5c0,0.414,0.337,0.75,0.75,0.75H11h9h0.25c0.413,0,0.75-0.336,0.75-0.75
		C21,13.56,20.44,13,19.75,13z"/>
	<rect x="49" y="16" width="7" height="38"/>
	<path d="M56.75,55H56h-8h-0.25C47.337,55,47,55.336,47,55.75v0.5c0,0.414,0.337,0.75,0.75,0.75h9.5c0.413,0,0.75-0.336,0.75-0.75
		C58,55.56,57.44,55,56.75,55z"/>
	<path d="M56.75,13h-9C47.337,13,47,13.336,47,13.75v0.5c0,0.414,0.337,0.75,0.75,0.75H48h9h0.25c0.413,0,0.75-0.336,0.75-0.75
		C58,13.56,57.44,13,56.75,13z"/>
</g>
</svg>
