<?xml version="1.0" encoding="utf-8"?>
<!-- Generator: Adobe Illustrator 17.1.0, SVG Export Plug-In . SVG Version: 6.00 Build 0)  -->
<!DOCTYPE svg PUBLIC "-//W3C//DTD SVG 1.1//EN" "http://www.w3.org/Graphics/SVG/1.1/DTD/svg11.dtd">
<svg version="1.1" id="Layer_1" xmlns="http://www.w3.org/2000/svg" xmlns:xlink="http://www.w3.org/1999/xlink" x="0px" y="0px"
	 viewBox="0 0 128 128" enable-background="new 0 0 128 128" xml:space="preserve">
<path d="M35.3,116.7h55.3V15.4H35.3V116.7z M86.9,81.7h-1.8h-7.4v-7.4V67v-5.5v-1.8h9.2V81.7z M63.3,21.5c8,0,14.4,10.2,14.4,22.7
	c0,12.5-6.5,22.7-14.4,22.7S48.9,56.8,48.9,44.2C48.9,31.7,55.3,21.5,63.3,21.5z"/>
<polygon points="28.6,8 34.7,13.5 91.2,13.5 97.3,8 "/>
<polygon points="92.5,116.7 98,116.7 98,9.9 92.5,15 "/>
<polygon points="33.2,15 27.7,9.9 27.7,116.7 33.2,116.7 "/>
<path d="M63.3,65.1c6.9,0,12.6-9.4,12.6-20.9s-5.6-20.9-12.6-20.9s-12.6,9.4-12.6,20.9C50.7,55.8,56.4,65.1,63.3,65.1z"/>
<path d="M85.1,61.4h-5.5v2.9c0.3-0.1,0.6-0.2,0.9-0.2c1.5,0,2.8,1.2,2.8,2.8v7.4c0,1.5-1.2,2.8-2.8,2.8c-0.3,0-0.6-0.1-0.9-0.2v2.9
	h5.5V61.4z"/>
<path d="M80.5,75.3c0.5,0,0.9-0.4,0.9-0.9V67c0-0.5-0.4-0.9-0.9-0.9c-0.4,0-0.7,0.2-0.8,0.6c0,0.1-0.1,0.2-0.1,0.4v7.4
	c0,0.1,0,0.2,0.1,0.4C79.8,75,80.1,75.3,80.5,75.3z"/>
</svg>
