<?xml version="1.0" encoding="utf-8"?>
<!-- Generator: Adobe Illustrator 17.1.0, SVG Export Plug-In . SVG Version: 6.00 Build 0)  -->
<!DOCTYPE svg PUBLIC "-//W3C//DTD SVG 1.1//EN" "http://www.w3.org/Graphics/SVG/1.1/DTD/svg11.dtd">
<svg version="1.1" id="Layer_1" xmlns="http://www.w3.org/2000/svg" xmlns:xlink="http://www.w3.org/1999/xlink" x="0px" y="0px"
	 viewBox="0 0 128 128" enable-background="new 0 0 128 128" xml:space="preserve">
<path d="M45.3,112.7h46.8V27H45.3V112.7z M85.7,60.3c2.2,0,3.9,1.7,3.9,3.9c0,2.2-1.7,3.9-3.9,3.9s-3.9-1.7-3.9-3.9
	S83.5,60.3,85.7,60.3z"/>
<circle cx="85.7" cy="64.2" r="2.3"/>
<polygon points="39.8,20.7 44.8,25.4 92.6,25.4 97.7,20.7 "/>
<polygon points="38.9,19.1 98.7,19.1 104.7,14.5 32.9,14.5 "/>
<polygon points="93.7,112.7 98.3,112.7 98.3,22.2 93.7,26.6 "/>
<polygon points="43.7,26.5 39.1,22.1 39.1,112.6 43.7,112.6 "/>
</svg>
