<?xml version="1.0" encoding="iso-8859-1"?>
<!-- Generator: Adobe Illustrator 17.1.0, SVG Export Plug-In . SVG Version: 6.00 Build 0)  -->
<!DOCTYPE svg PUBLIC "-//W3C//DTD SVG 1.1//EN" "http://www.w3.org/Graphics/SVG/1.1/DTD/svg11.dtd">
<svg version="1.1" id="Layer_1" xmlns="http://www.w3.org/2000/svg" xmlns:xlink="http://www.w3.org/1999/xlink" x="0px" y="0px"
	 viewBox="0 0 64 64" style="enable-background:new 0 0 64 64;" xml:space="preserve">
<g>
	<path d="M19,63h27V6H19V63z M41,29c0-0.827,0.673-1.5,1.5-1.5S44,28.173,44,29v8c0,0.827-0.673,1.5-1.5,1.5S41,37.827,41,37V29z
		 M28,12h10v45H28V12z"/>
	<path d="M42.5,37.5c0.276,0,0.5-0.224,0.5-0.5v-8c0-0.276-0.224-0.5-0.5-0.5c-0.207,0-0.385,0.126-0.461,0.305
		C42.026,28.87,42,28.931,42,29v8c0,0.069,0.026,0.13,0.039,0.195C42.115,37.374,42.293,37.5,42.5,37.5z"/>
	<rect x="10" y="44" width="8" height="5"/>
	<rect x="10" y="32" width="8" height="5"/>
	<rect x="10" y="6" width="8" height="13"/>
	<rect x="10" y="50" width="8" height="13"/>
	<rect x="10" y="26" width="8" height="5"/>
	<rect x="10" y="20" width="8" height="5"/>
	<rect x="10" y="38" width="8" height="5"/>
	<rect x="47" y="26" width="8" height="5"/>
	<rect x="47" y="20" width="8" height="5"/>
	<rect x="47" y="6" width="8" height="13"/>
	<rect x="47" y="38" width="8" height="5"/>
	<rect x="47" y="32" width="8" height="5"/>
	<rect x="47" y="50" width="8" height="13"/>
	<rect x="47" y="44" width="8" height="5"/>
	<rect x="30" y="26" width="6" height="5"/>
	<rect x="30" y="20" width="6" height="5"/>
	<rect x="30" y="50" width="6" height="5"/>
	<rect x="30" y="32" width="6" height="5"/>
	<rect x="30" y="14" width="6" height="5"/>
	<rect x="30" y="44" width="6" height="5"/>
	<rect x="30" y="38" width="6" height="5"/>
</g>
</svg>
