<?xml version="1.0" encoding="utf-8"?>
<!-- Generator: Adobe Illustrator 17.1.0, SVG Export Plug-In . SVG Version: 6.00 Build 0)  -->
<!DOCTYPE svg PUBLIC "-//W3C//DTD SVG 1.1//EN" "http://www.w3.org/Graphics/SVG/1.1/DTD/svg11.dtd">
<svg version="1.1" id="Layer_1" xmlns="http://www.w3.org/2000/svg" xmlns:xlink="http://www.w3.org/1999/xlink" x="0px" y="0px"
	 viewBox="0 0 612 792" enable-background="new 0 0 612 792" xml:space="preserve">
<g>
	<path d="M402,178.8H210v394.7h192V178.8z M391.4,398.8c0,8.1-6.6,14.7-14.7,14.7h-5.3h-40c-7.5,0-13.6-5.6-14.5-12.9
		c-0.1-0.6-0.2-1.2-0.2-1.8v-2.7c0-8.1,6.6-14.7,14.7-14.7h45.3c8.1,0,14.7,6.6,14.7,14.7V398.8z"/>
	<path d="M376.7,392.1h-5.3h-40c-2.2,0-4,1.8-4,4v2.7c0,2.2,1.8,4,4,4h45.3c1.7,0,3.2-1.1,3.7-2.7c0.1-0.4,0.3-0.9,0.3-1.3v-2.7
		C380.7,393.9,378.9,392.1,376.7,392.1z"/>
	<polygon points="434,594.8 178,594.8 156.6,616.2 455.4,616.2 	"/>
	<polygon points="455.4,626.8 156.6,626.8 135.3,648.2 476.7,648.2 	"/>
	<polygon points="135.3,658.8 114,680.2 498,680.2 476.7,658.8 	"/>
</g>
</svg>
