<?xml version="1.0" encoding="iso-8859-1"?>
<!-- Generator: Adobe Illustrator 17.1.0, SVG Export Plug-In . SVG Version: 6.00 Build 0)  -->
<!DOCTYPE svg PUBLIC "-//W3C//DTD SVG 1.1//EN" "http://www.w3.org/Graphics/SVG/1.1/DTD/svg11.dtd">
<svg version="1.1" id="Layer_1" xmlns="http://www.w3.org/2000/svg" xmlns:xlink="http://www.w3.org/1999/xlink" x="0px" y="0px"
	 viewBox="0 0 64 64" style="enable-background:new 0 0 64 64;" xml:space="preserve">
<g>
	<path d="M16,32h7h1h11h1h7V22H16V32z M40,23v8h-4v-8H40z M31,23h4v8h-4V23z M28,23v8h-4v-8H28z M19,23h4v8h-4V23z"/>
	<path d="M31.599,15.254c5.83,0.707,9.76,3.608,11.401,5.07V14H31.826L31.599,15.254z"/>
	<path d="M16,20.181c1.503-1.518,4.912-4.236,10.402-4.924L26.174,14H16V20.181z"/>
	<path d="M30.5,19h-3h-0.417l-0.501-2.754C21.254,16.914,17.96,19.63,16.614,21H42.24c-1.612-1.393-5.383-4.098-10.821-4.757
		L30.917,19H30.5z"/>
	<polygon points="14,10 25.446,10 25.264,9 14,9 	"/>
	<polygon points="32.554,10 45,10 45,9 32.736,9 	"/>
	<polygon points="25.628,11 14.434,11 15.768,13 25.992,13 	"/>
	<polygon points="32.008,13 43.232,13 44.566,11 32.372,11 	"/>
	<path d="M35,33H24h-1h-7v24h27V33h-7H35z M31,35h4v4h-4V35z M35,44h-4v-4h4V44z M24,40h4v4h-4V40z M23,44h-4v-4h4V44z M19,46h4v4
		h-4V46z M24,46h4v4h-4V46z M31,46h4v4h-4V46z M36,46h4v4h-4V46z M40,44h-4v-4h4V44z M28,35v4h-4v-4H28z M19,35h4v4h-4V35z M19,51h4
		v4h-4V51z M28,55h-4v-4h4V55z M31,51h4v4h-4V51z M40,55h-4v-4h4V55z M40,35v4h-4v-4H40z"/>
	<polygon points="31.901,8 26.099,8 26.281,9 26.463,10 26.645,11 27.008,13 27.19,14 27.399,15.146 27.579,16.14 27.917,18 
		30.083,18 30.421,16.14 30.602,15.145 30.81,14 30.992,13 31.355,11 31.537,10 31.719,9 	"/>
</g>
</svg>
