<?xml version="1.0" encoding="iso-8859-1"?>
<!-- Generator: Adobe Illustrator 17.1.0, SVG Export Plug-In . SVG Version: 6.00 Build 0)  -->
<!DOCTYPE svg PUBLIC "-//W3C//DTD SVG 1.1//EN" "http://www.w3.org/Graphics/SVG/1.1/DTD/svg11.dtd">
<svg version="1.1" id="Layer_1" xmlns="http://www.w3.org/2000/svg" xmlns:xlink="http://www.w3.org/1999/xlink" x="0px" y="0px"
	 viewBox="0 0 64 64" style="enable-background:new 0 0 64 64;" xml:space="preserve">
<g>
	<polygon points="43,12 45,12 45,10 18,10 18,12 21,12 21,13 43,13 	"/>
	<polygon points="43,52 21,52 21,53 20,53 18,53 18,55 45,55 45,53 43,53 	"/>
	<path d="M21,51h22V14H21V51z M33,17h7v10h-7V17z M33,28h7v10h-7V28z M33,39h7v10h-7V39z M24,17h7v10h-7V17z M24,28h7v10h-7V28z
		 M24,39h7v10h-7V39z"/>
	<path d="M20,52V14v-1h-2H2v39h16H20z M4,17h14v1H4V17z M4,19h14v1H4V19z M4,21h14v1H4V21z M4,23h14v1H4V23z M4,25h14v1H4V25z M4,27
		h14v1H4V27z M4,29h14v1H4V29z M4,35h14v1H4V35z M4,37h14v1H4V37z M4,39h14v1H4V39z M4,41h14v1H4V41z M4,43h14v1H4V43z M4,45h14v1H4
		V45z M4,48v-1h14v1H4z"/>
	<path d="M44,13v39h1h17V13H45H44z M46,17h14v1H46V17z M46,19h14v1H46V19z M46,21h14v1H46V21z M46,23h14v1H46V23z M46,25h14v1H46V25
		z M46,27h14v1H46V27z M46,29h14v1H46V29z M46,35h14v1H46V35z M46,37h14v1H46V37z M46,39h14v1H46V39z M46,41h14v1H46V41z M46,43h14
		v1H46V43z M46,45h14v1H46V45z M46,47h14v1H46V47z"/>
</g>
</svg>
