<?xml version="1.0" encoding="utf-8"?>
<!-- Generator: Adobe Illustrator 17.1.0, SVG Export Plug-In . SVG Version: 6.00 Build 0)  -->
<!DOCTYPE svg PUBLIC "-//W3C//DTD SVG 1.1//EN" "http://www.w3.org/Graphics/SVG/1.1/DTD/svg11.dtd">
<svg version="1.1" id="Layer_1" xmlns="http://www.w3.org/2000/svg" xmlns:xlink="http://www.w3.org/1999/xlink" x="0px" y="0px"
	 viewBox="0 0 128 128" enable-background="new 0 0 128 128" xml:space="preserve">
<path d="M22,42c2,0,84,0,84,0V20h4v-8.5c0-4.1-2.5-7.5-6.6-7.5h-5.2H29.9h-7.2C18.6,4,16,7.4,16,11.5V20h6V42z"/>
<rect x="12" y="114" width="18" height="10"/>
<rect x="92" y="114" width="18" height="10"/>
<rect x="4" y="96" width="120" height="14"/>
<path d="M106.2,46h-0.9c0,0-82.4,0-82.8,0C12.5,46.4,4,52.1,4,62.1V92h120V62.1C124,51.8,116.5,46,106.2,46z M8,63.9
	c0-9,5.5-13.9,14.5-13.9h0.2h4.6l-4.4,4.5L8,70.4V63.9z"/>
</svg>
