<?xml version="1.0" encoding="iso-8859-1"?>
<!-- Generator: Adobe Illustrator 17.1.0, SVG Export Plug-In . SVG Version: 6.00 Build 0)  -->
<!DOCTYPE svg PUBLIC "-//W3C//DTD SVG 1.1//EN" "http://www.w3.org/Graphics/SVG/1.1/DTD/svg11.dtd">
<svg version="1.1" id="Layer_1" xmlns="http://www.w3.org/2000/svg" xmlns:xlink="http://www.w3.org/1999/xlink" x="0px" y="0px"
	 viewBox="0 0 64 64" style="enable-background:new 0 0 64 64;" xml:space="preserve">
<path d="M42,10H4c-2.209,0-4,1.791-4,4v38c0,2.209,1.791,4,4,4h38V10z M37,49H5V15h32V49z"/>
<path d="M59,10H44v46h15c2.209,0,4-1.791,4-4V14C63,11.791,61.209,10,59,10z M53.233,15.583c2.43,0,4.4,1.97,4.4,4.4
	c0,2.168-1.57,3.959-3.634,4.323c-0.25,0.044-0.504,0.077-0.767,0.077c-0.431,0-0.84-0.081-1.233-0.197
	c-1.825-0.536-3.167-2.204-3.167-4.203C48.833,17.553,50.803,15.583,53.233,15.583z M52,27.397c0.394-0.116,0.802-0.197,1.233-0.197
	c0.263,0,0.517,0.033,0.767,0.077c2.063,0.364,3.634,2.155,3.634,4.323s-1.57,3.959-3.634,4.323C53.75,35.967,53.496,36,53.233,36
	c-0.431,0-0.84-0.081-1.233-0.197c-1.825-0.536-3.167-2.204-3.167-4.203S50.175,27.933,52,27.397z M59,51H48v-4h4h2h5V51z M59,44h-5
	h-2h-4v-4h4h2h5V44z"/>
<rect x="5" y="58" width="10" height="4"/>
<rect x="45" y="58" width="10" height="4"/>
<polygon points="17.714,17 7,24.488 7,27.943 22.658,17 "/>
<polygon points="35,17 27.106,17 7,31.052 7,47 35,47 "/>
</svg>
