<?xml version="1.0" encoding="iso-8859-1"?>
<!-- Generator: Adobe Illustrator 17.1.0, SVG Export Plug-In . SVG Version: 6.00 Build 0)  -->
<!DOCTYPE svg PUBLIC "-//W3C//DTD SVG 1.1//EN" "http://www.w3.org/Graphics/SVG/1.1/DTD/svg11.dtd">
<svg version="1.1" id="Layer_1" xmlns="http://www.w3.org/2000/svg" xmlns:xlink="http://www.w3.org/1999/xlink" x="0px" y="0px"
	 viewBox="0 0 64 64" style="enable-background:new 0 0 64 64;" xml:space="preserve">
<path d="M8.474,33H6v7.912C6,41.512,6.488,42,7.089,42H15v-2.204C11.673,39.061,9.078,36.373,8.474,33z"/>
<path d="M15,23.204V21H7.089C6.488,21,6,21.488,6,22.088V30h2.474C9.078,26.627,11.673,23.939,15,23.204z"/>
<path d="M25.911,21H18v2.09c3.641,0.503,6.548,3.315,7.192,6.91H27v-7.912C27,21.488,26.512,21,25.911,21z"/>
<path d="M18,39.91V42h7.911C26.512,42,27,41.512,27,40.912V33h-1.808C24.548,36.595,21.641,39.407,18,39.91z"/>
<path d="M46,23.204V21h-7.911C37.488,21,37,21.488,37,22.088V30h2.474C40.078,26.627,42.673,23.939,46,23.204z"/>
<path d="M39.474,33H37v7.912c0,0.6,0.488,1.088,1.089,1.088H46v-2.204C42.673,39.061,40.078,36.373,39.474,33z"/>
<path d="M56.911,21H49v2.09c3.641,0.503,6.548,3.315,7.192,6.91H58v-7.912C58,21.488,57.512,21,56.911,21z"/>
<path d="M49,39.91V42h7.911C57.512,42,58,41.512,58,40.912V33h-1.808C55.548,36.595,52.641,39.407,49,39.91z"/>
<path d="M62,13H2c-1.105,0-2,0.895-2,2v33c0,1.105,0.895,2,2,2h60c1.105,0,2-0.895,2-2V15C64,13.895,63.105,13,62,13z M29,33v7.912
	C29,42.615,27.614,44,25.911,44H18c0,0.829-0.672,1.5-1.5,1.5S15,44.829,15,44H7.089C5.386,44,4,42.615,4,40.912V33
	c-0.828,0-1.5-0.671-1.5-1.5S3.172,30,4,30v-7.912C4,20.385,5.386,19,7.089,19H15c0-0.829,0.672-1.5,1.5-1.5S18,18.171,18,19h7.911
	C27.614,19,29,20.385,29,22.088V30c0.828,0,1.5,0.671,1.5,1.5S29.828,33,29,33z M60,33v7.912C60,42.615,58.614,44,56.911,44H49
	c0,0.829-0.672,1.5-1.5,1.5S46,44.829,46,44h-7.911C36.386,44,35,42.615,35,40.912V33c-0.828,0-1.5-0.671-1.5-1.5S34.172,30,35,30
	v-7.912C35,20.385,36.386,19,38.089,19H46c0-0.829,0.672-1.5,1.5-1.5S49,18.171,49,19h7.911C58.614,19,60,20.385,60,22.088V30
	c0.828,0,1.5,0.671,1.5,1.5S60.828,33,60,33z"/>
<path d="M18,37.889c2.537-0.463,4.56-2.399,5.151-4.889H22c-0.828,0-1.5-0.671-1.5-1.5S21.172,30,22,30h1.151
	c-0.591-2.49-2.615-4.427-5.151-4.889V26c0,0.829-0.672,1.5-1.5,1.5S15,26.829,15,26v-0.732c-2.221,0.655-3.947,2.465-4.485,4.732
	H12c0.828,0,1.5,0.671,1.5,1.5S12.828,33,12,33h-1.485c0.539,2.268,2.264,4.078,4.485,4.732V37c0-0.829,0.672-1.5,1.5-1.5
	S18,36.171,18,37V37.889z"/>
<path d="M49,37.889c2.537-0.463,4.56-2.399,5.151-4.889H53c-0.828,0-1.5-0.671-1.5-1.5S52.172,30,53,30h1.151
	c-0.591-2.49-2.615-4.427-5.151-4.889V26c0,0.829-0.672,1.5-1.5,1.5S46,26.829,46,26v-0.732c-2.221,0.655-3.947,2.465-4.485,4.732
	H43c0.828,0,1.5,0.671,1.5,1.5S43.828,33,43,33h-1.485c0.539,2.268,2.264,4.078,4.485,4.732V37c0-0.829,0.672-1.5,1.5-1.5
	S49,36.171,49,37V37.889z"/>
</svg>
