<?xml version="1.0" encoding="iso-8859-1"?>
<!-- Generator: Adobe Illustrator 17.1.0, SVG Export Plug-In . SVG Version: 6.00 Build 0)  -->
<!DOCTYPE svg PUBLIC "-//W3C//DTD SVG 1.1//EN" "http://www.w3.org/Graphics/SVG/1.1/DTD/svg11.dtd">
<svg version="1.1" id="Layer_1" xmlns="http://www.w3.org/2000/svg" xmlns:xlink="http://www.w3.org/1999/xlink" x="0px" y="0px"
	 viewBox="0 0 64 64" style="enable-background:new 0 0 64 64;" xml:space="preserve">
<path d="M61,3H2C0.895,3,0,3.895,0,5v39c0,1.105,0.895,2,2,2h59c1.105,0,2-0.895,2-2V5C63,3.895,62.105,3,61,3z M58,43h-5v-2h5V43z
	 M58,39H5V8h53V39z"/>
<polygon points="16,57 16,60 49,60 49,57 43,53 22,53 "/>
<rect x="22" y="48" width="21" height="3"/>
<polygon points="17.714,10 7,17.488 7,20.943 22.658,10 "/>
<polygon points="56,10 27.106,10 7,24.052 7,37 56,37 "/>
</svg>
