<?xml version="1.0" encoding="iso-8859-1"?>
<!-- Generator: Adobe Illustrator 17.1.0, SVG Export Plug-In . SVG Version: 6.00 Build 0)  -->
<!DOCTYPE svg PUBLIC "-//W3C//DTD SVG 1.1//EN" "http://www.w3.org/Graphics/SVG/1.1/DTD/svg11.dtd">
<svg version="1.1" id="Layer_1" xmlns="http://www.w3.org/2000/svg" xmlns:xlink="http://www.w3.org/1999/xlink" x="0px" y="0px"
	 viewBox="0 0 64 64" style="enable-background:new 0 0 64 64;" xml:space="preserve">
<path d="M46,7c0-1.105-0.895-2-2-2H20c-1.105,0-2,0.895-2,2v17h28V7z"/>
<path d="M52,26h-6H18h-6c-1.105,0-1.333,1-2,2L0,43c0,1.105,0,2,2,2h60c2,0,2-0.895,2-2L54,28C53.167,26.792,53.105,26,52,26z
	 M42,40h-2v-5h2V40z M46.542,39.667c-1.22,0-2.208-0.989-2.208-2.208s0.989-2.208,2.208-2.208c1.22,0,2.208,0.989,2.208,2.208
	S47.761,39.667,46.542,39.667z M55.75,37.458c0,1.22-0.989,2.208-2.208,2.208c-1.22,0-2.208-0.989-2.208-2.208
	s0.989-2.208,2.208-2.208C54.761,35.25,55.75,36.239,55.75,37.458z"/>
</svg>
