<?xml version="1.0" encoding="iso-8859-1"?>
<!-- Generator: Adobe Illustrator 17.1.0, SVG Export Plug-In . SVG Version: 6.00 Build 0)  -->
<!DOCTYPE svg PUBLIC "-//W3C//DTD SVG 1.1//EN" "http://www.w3.org/Graphics/SVG/1.1/DTD/svg11.dtd">
<svg version="1.1" id="Layer_1" xmlns="http://www.w3.org/2000/svg" xmlns:xlink="http://www.w3.org/1999/xlink" x="0px" y="0px"
	 viewBox="0 0 64 64" style="enable-background:new 0 0 64 64;" xml:space="preserve">
<path d="M36,34c1.105,0,2-0.895,2-2l2-24c0-1.105-0.895-2-2-2H25c-1.105,0-2,0.895-2,2l2,24c0,1.105,0.895,2,2,2h1v16.675
	c-2.695,1.493-4.557,4.48-4.582,7.325h16.416c-0.026-2.932-2.003-6.018-4.833-7.46V34H36z M34,17.75
	c1.312,0,2.375,1.063,2.375,2.375c0,1.312-1.063,2.375-2.375,2.375s-2.375-1.063-2.375-2.375C31.625,18.813,32.688,17.75,34,17.75z
	 M34,24.75c1.312,0,2.375,1.063,2.375,2.375c0,1.312-1.063,2.375-2.375,2.375s-2.375-1.063-2.375-2.375
	C31.625,25.813,32.688,24.75,34,24.75z"/>
</svg>
