<?xml version="1.0" encoding="iso-8859-1"?>
<!-- Generator: Adobe Illustrator 17.1.0, SVG Export Plug-In . SVG Version: 6.00 Build 0)  -->
<!DOCTYPE svg PUBLIC "-//W3C//DTD SVG 1.1//EN" "http://www.w3.org/Graphics/SVG/1.1/DTD/svg11.dtd">
<svg version="1.1" id="Layer_1" xmlns="http://www.w3.org/2000/svg" xmlns:xlink="http://www.w3.org/1999/xlink" x="0px" y="0px"
	 viewBox="0 0 64 64" style="enable-background:new 0 0 64 64;" xml:space="preserve">
<path d="M24,54h35V18H24V54z M40,49.76V47h2v2.785V50h-2V49.76z M42,23.361V26h-2v-2.614V23h2V23.361z M39,23.528V27h3h1v-3.548
	c6.488,0.858,11.5,6.398,11.5,13.121c0,6.723-5.012,12.263-11.5,13.121V46h-4v1v2.618c-6.244-1.07-11-6.496-11-13.045
	C28,30.024,32.756,24.598,39,23.528z"/>
<circle cx="34.006" cy="36.932" r="1.998"/>
<circle cx="49.006" cy="36.932" r="1.998"/>
<path d="M41.312,38.44c1.001,0,1.815-0.814,1.815-1.815s-0.814-1.815-1.815-1.815s-1.815,0.814-1.815,1.815
	S40.312,38.44,41.312,38.44z M41.312,35.81c0.449,0,0.815,0.366,0.815,0.815s-0.366,0.815-0.815,0.815s-0.815-0.366-0.815-0.815
	S40.863,35.81,41.312,35.81z"/>
</svg>
