<?xml version="1.0" encoding="utf-8"?>
<!-- Generator: Adobe Illustrator 17.1.0, SVG Export Plug-In . SVG Version: 6.00 Build 0)  -->
<!DOCTYPE svg PUBLIC "-//W3C//DTD SVG 1.1//EN" "http://www.w3.org/Graphics/SVG/1.1/DTD/svg11.dtd">
<svg version="1.1" id="Layer_1" xmlns="http://www.w3.org/2000/svg" xmlns:xlink="http://www.w3.org/1999/xlink" x="0px" y="0px"
	 viewBox="0 0 128 128" enable-background="new 0 0 128 128" xml:space="preserve">
<path d="M42.4,122h5.9c3.2,0,5.9-2.6,5.9-5.9V96.6c0-3.2-2.6-5.9-5.9-5.9h-5.9V67.2H107c4.3,0,7.8-3.5,7.8-7.8V32
	c0-2.1-0.9-4.1-2.3-5.5c1.4-2,2.3-4.6,2.3-7.2v-7.8c0-5.4-3.4-8.8-8.8-8.8H49.7c-8,0-11.3,2.8-11.3,9.7v6.9c0,1.7,0.5,3.4,1.4,4.9
	H26.7c-4.3,0-7.8,3.5-7.8,7.8v27.4c0,4.3,3.5,7.8,7.8,7.8v23.5h-5.9c-3.2,0-5.9,2.6-5.9,5.9v19.6c0,3.2,2.6,5.9,5.9,5.9h5.9h3.9h2
	h3.9h2H42.4z M37.5,117.8c-0.6-0.3-1-0.9-1-1.7V96.6c0-0.7,0.4-1.3,1-1.7c0.6,0.3,1,0.9,1,1.7v19.6
	C38.5,116.8,38.1,117.4,37.5,117.8z M31.6,117.8c-0.6-0.3-1-0.9-1-1.7V96.6c0-0.7,0.4-1.3,1-1.7c0.6,0.3,1,0.9,1,1.7v19.6
	C32.6,116.8,32.2,117.4,31.6,117.8z M42,118.1c0.2-0.6,0.4-1.3,0.4-2V96.6c0-0.7-0.1-1.3-0.4-2h0.4c1.1,0,2,0.9,2,2v19.6
	c0,1.1-0.9,2-2,2H42z M48.3,94.6c1.1,0,2,0.9,2,2v19.6c0,1.1-0.9,2-2,2h-0.4c0.2-0.6,0.4-1.3,0.4-2V96.6c0-0.7-0.1-1.3-0.4-2H48.3z
	 M44.4,19.2v-6.7c0-2.1,2-4.1,4.9-4.1h54.9c3.4,0,4.8,2.2,4.8,4.7v6.1c0,4-2.5,4.9-4.7,4.9H48.6C46.4,24.1,44.4,21.4,44.4,19.2z
	 M60.8,50.6c-3.4,0-6.1-2.7-6.1-6.1c0-3.4,2.7-6.1,6.1-6.1c3.4,0,6.1,2.7,6.1,6.1C66.9,47.8,64.1,50.6,60.8,50.6z M30.7,67.2h7.8
	v23.5h-2h-3.9h-2V67.2z M20.9,118.1c-1.1,0-2-0.9-2-2V96.6c0-1.1,0.9-2,2-2h0.4c-0.2,0.6-0.4,1.3-0.4,2v19.6c0,0.7,0.1,1.3,0.4,2
	H20.9z M26.7,118.1c-1.1,0-2-0.9-2-2V96.6c0-1.1,0.9-2,2-2h0.4c-0.2,0.6-0.4,1.3-0.4,2v19.6c0,0.7,0.1,1.3,0.4,2H26.7z"/>
</svg>
