<?xml version="1.0" encoding="iso-8859-1"?>
<!-- Generator: Adobe Illustrator 17.1.0, SVG Export Plug-In . SVG Version: 6.00 Build 0)  -->
<!DOCTYPE svg PUBLIC "-//W3C//DTD SVG 1.1//EN" "http://www.w3.org/Graphics/SVG/1.1/DTD/svg11.dtd">
<svg version="1.1" id="Layer_1" xmlns="http://www.w3.org/2000/svg" xmlns:xlink="http://www.w3.org/1999/xlink" x="0px" y="0px"
	 viewBox="0 0 64 64" style="enable-background:new 0 0 64 64;" xml:space="preserve">
<path d="M50,13H15v36h35V13z M33,18.361V21h-2v-2.614V18h2V18.361z M31,44.76V42h2v2.785V45h-2V44.76z M34,44.694V41h-4v1v2.618
	c-6.244-1.07-11-6.496-11-13.045c0-6.549,4.756-11.975,11-13.045V22h3h1v-3.548c6.488,0.858,11.5,6.398,11.5,13.121
	C45.5,38.296,40.488,43.836,34,44.694z"/>
<circle cx="25.006" cy="31.932" r="1.998"/>
<circle cx="40.006" cy="31.932" r="1.998"/>
<path d="M32.312,29.81c-1.001,0-1.814,0.814-1.814,1.815s0.813,1.815,1.814,1.815c1.001,0,1.814-0.814,1.814-1.815
	S33.313,29.81,32.312,29.81z M32.312,32.44c-0.449,0-0.814-0.366-0.814-0.815s0.365-0.815,0.814-0.815
	c0.449,0,0.814,0.366,0.814,0.815S32.762,32.44,32.312,32.44z"/>
</svg>
