<?xml version="1.0" encoding="iso-8859-1"?>
<!-- Generator: Adobe Illustrator 17.1.0, SVG Export Plug-In . SVG Version: 6.00 Build 0)  -->
<!DOCTYPE svg PUBLIC "-//W3C//DTD SVG 1.1//EN" "http://www.w3.org/Graphics/SVG/1.1/DTD/svg11.dtd">
<svg version="1.1" id="Layer_1" xmlns="http://www.w3.org/2000/svg" xmlns:xlink="http://www.w3.org/1999/xlink" x="0px" y="0px"
	 viewBox="0 0 64 64" style="enable-background:new 0 0 64 64;" xml:space="preserve">
<path d="M50,13H15v36h35V13z M32.25,44.823c-7.318,0-13.25-5.932-13.25-13.25c0-7.318,5.932-13.25,13.25-13.25
	s13.25,5.932,13.25,13.25C45.5,38.891,39.568,44.823,32.25,44.823z"/>
<circle cx="25.006" cy="34.932" r="1.998"/>
<circle cx="40.006" cy="34.932" r="1.998"/>
<circle cx="32.006" cy="23.932" r="1.998"/>
<path d="M32.312,29.81c-1.001,0-1.814,0.814-1.814,1.815s0.813,1.815,1.814,1.815c1.001,0,1.814-0.814,1.814-1.815
	S33.313,29.81,32.312,29.81z M32.312,32.44c-0.449,0-0.814-0.366-0.814-0.815s0.365-0.815,0.814-0.815
	c0.449,0,0.814,0.366,0.814,0.815S32.762,32.44,32.312,32.44z"/>
</svg>
