<?xml version="1.0" encoding="iso-8859-1"?>
<!-- Generator: Adobe Illustrator 17.1.0, SVG Export Plug-In . SVG Version: 6.00 Build 0)  -->
<!DOCTYPE svg PUBLIC "-//W3C//DTD SVG 1.1//EN" "http://www.w3.org/Graphics/SVG/1.1/DTD/svg11.dtd">
<svg version="1.1" id="Layer_1" xmlns="http://www.w3.org/2000/svg" xmlns:xlink="http://www.w3.org/1999/xlink" x="0px" y="0px"
	 viewBox="0 0 64 64" style="enable-background:new 0 0 64 64;" xml:space="preserve">
<path d="M54,7h-2.277C51.894,6.705,52,6.366,52,6s-0.106-0.705-0.277-1C51.376,4.405,50.738,4,50,4H37c-0.738,0-1.376,0.405-1.723,1
	C35.106,5.295,35,5.634,35,6s0.106,0.705,0.277,1h-7.555C27.894,6.705,28,6.366,28,6s-0.106-0.705-0.277-1
	C27.376,4.405,26.738,4,26,4H13c-0.738,0-1.376,0.405-1.723,1C11.106,5.295,11,5.634,11,6s0.106,0.705,0.277,1H9
	c-1.654,0-3,1.346-3,3v7h51v-7C57,8.346,55.654,7,54,7z M15.5,14.375c-1.105,0-2-0.895-2-2c0-1.105,0.895-2,2-2s2,0.895,2,2
	C17.5,13.48,16.605,14.375,15.5,14.375z M23,14.375c-1.105,0-2-0.895-2-2c0-1.105,0.895-2,2-2s2,0.895,2,2
	C25,13.48,24.105,14.375,23,14.375z M31.5,14.375c-1.105,0-2-0.895-2-2c0-1.105,0.895-2,2-2s2,0.895,2,2
	C33.5,13.48,32.605,14.375,31.5,14.375z M39.5,14.375c-1.105,0-2-0.895-2-2c0-1.105,0.895-2,2-2s2,0.895,2,2
	C41.5,13.48,40.605,14.375,39.5,14.375z M47.5,14.375c-1.105,0-2-0.895-2-2c0-1.105,0.895-2,2-2s2,0.895,2,2
	C49.5,13.48,48.605,14.375,47.5,14.375z"/>
<path d="M6,57c0,1.654,1.346,3,3,3h45c1.654,0,3-1.346,3-3V19H6V57z M14,22h34c0.552,0,1,0.448,1,1s-0.448,1-1,1H14
	c-0.552,0-1-0.448-1-1S13.448,22,14,22z M12,30c0-1.654,1.346-3,3-3h33c1.654,0,3,1.346,3,3v21c0,1.654-1.346,3-3,3H15
	c-1.654,0-3-1.346-3-3V30z"/>
<polygon points="24.714,29 14,36.488 14,39.943 29.658,29 "/>
<polygon points="48,52 49,52 49,51 49,30 49,29 48,29 34.106,29 14,43.052 14,51 14,52 15,52 "/>
</svg>
