<?xml version="1.0" encoding="utf-8"?>
<!-- Generator: Adobe Illustrator 17.1.0, SVG Export Plug-In . SVG Version: 6.00 Build 0)  -->
<!DOCTYPE svg PUBLIC "-//W3C//DTD SVG 1.1//EN" "http://www.w3.org/Graphics/SVG/1.1/DTD/svg11.dtd">
<svg version="1.1" id="Layer_1" xmlns="http://www.w3.org/2000/svg" xmlns:xlink="http://www.w3.org/1999/xlink" x="0px" y="0px"
	 viewBox="0 0 128 128" enable-background="new 0 0 128 128" xml:space="preserve">
<path d="M27.7,93.8c0,11.4,5.8,21.5,14.5,27.2h34.3c8.7-5.8,14.5-15.8,14.5-27.2c0-9-3.6-17.1-9.3-23v24.3c0,4.6-4.3,9.3-8.9,9.3
	H47.5c-4.6,0-9.4-4.7-9.4-9.3V69.8C31.7,75.7,27.7,84.3,27.7,93.8z"/>
<path d="M77.4,15.3c-0.2-1.6-0.7-2.8-1.4-3.6c-0.4-0.5-1-0.8-1.5-0.8h-2.2c-0.9,0-1.8,0.8-2.3,2.1c-0.4,1-0.7,4.2-0.7,4.2H47.5
	c-3.4,0-5.3,1.9-5.3,6v71.9c0,3.3,2.9,5.2,5.3,5.2h25.3c2.3,0,4.7-2.1,4.7-5.2c0,0,0-76.9,0-77.6C77.5,17.4,77.5,15.9,77.4,15.3z
	 M71.3,73.3h-6.2V65h6.2V73.3z M71.3,81.6h-6.2v-6.2h6.2V81.6z M48.5,65h6.2v8.3h-6.2V65z M56.8,61.5v-6.9H63v7v1.3h-6.2V61.5z
	 M63,48.5L63,48.5c0-1.3,1.4-2.3,3-2.3h2.2c1.7,0,3,1,3,2.2v0.1c0,1.2-1.4,1.9-3,1.9H66C64.3,50.4,63,49.7,63,48.5z M63,65v8.3h-6.2
	V65H63z M48.5,75.3h6.2v6.2h-6.2V75.3z M56.8,75.3H63v6.2h-6.2V75.3z M69,62.9h-4v-1v-7.3h1.2c2.5,0,5,1.9,5,4.2v4.2H69z M48.5,27.6
	c0-2.3,2-4.2,4.6-4.2h13.7c2.5,0,4.6,1.9,4.6,4.2V38c0,2.3-2,4.2-4.6,4.2H53c-2.5,0-4.6-1.9-4.6-4.2V27.6z M48.5,48.4
	c0-1.2,1.4-2.2,3-2.2h2.2c1.7,0,3,1,3,2.2v0.1c0,1.2-1.4,1.9-3,1.9h-2.2C49.8,50.4,48.5,49.7,48.5,48.4L48.5,48.4z M48.5,58.7
	c0-2.3,2-4.2,4.5-4.2h1.8v7.1v1.2h-5h-1.2V58.7z M48.5,89.9v-6.2h6.2V94h-1.8C50.5,94,48.5,92.2,48.5,89.9z M56.8,83.6H63V94h-6.2
	V83.6z M71.3,89.9c0,2.3-2.5,4.2-5,4.2h-1.2V83.6h6.2V89.9z"/>
</svg>
