<?xml version="1.0" encoding="iso-8859-1"?>
<!-- Generator: Adobe Illustrator 17.1.0, SVG Export Plug-In . SVG Version: 6.00 Build 0)  -->
<!DOCTYPE svg PUBLIC "-//W3C//DTD SVG 1.1//EN" "http://www.w3.org/Graphics/SVG/1.1/DTD/svg11.dtd">
<svg version="1.1" id="Layer_1" xmlns="http://www.w3.org/2000/svg" xmlns:xlink="http://www.w3.org/1999/xlink" x="0px" y="0px"
	 viewBox="0 0 64 64" style="enable-background:new 0 0 64 64;" xml:space="preserve">
<path d="M33.875,8.5C23.743,8.5,15.5,16.743,15.5,26.875c0,8.802,6.224,16.171,14.5,17.956c0.329,0.071,0.665,0.119,1,0.172V50h6
	v-5.036c0.336-0.058,0.67-0.122,1-0.198c8.149-1.879,14.25-9.179,14.25-17.891C52.25,16.743,44.007,8.5,33.875,8.5z M38,43.735
	c-0.331,0.081-0.662,0.157-1,0.219c-1.016,0.185-2.057,0.297-3.125,0.297c-0.981,0-1.938-0.101-2.875-0.258
	c-0.336-0.056-0.67-0.117-1-0.193c-7.719-1.768-13.5-8.677-13.5-16.924C16.5,17.294,24.294,9.5,33.875,9.5
	S51.25,17.294,51.25,26.875C51.25,35.032,45.593,41.875,38,43.735z"/>
<path d="M32.366,24.442c0.44-0.274,0.954-0.439,1.509-0.439c0.231,0,0.453,0.035,0.668,0.086l5.719-12.142
	c-0.929-0.376-1.858-0.556-2.813-0.556c-2.904,0-5.579,1.696-6.815,4.321c-0.856,1.819-0.953,3.862-0.273,5.754
	C30.779,22.63,31.48,23.629,32.366,24.442z"/>
<path d="M38.191,26.59c-0.495,0-0.981,0.052-1.457,0.146c0.002,0.047,0.014,0.091,0.014,0.139c0,0.753-0.297,1.433-0.773,1.945
	l6.004,11.805c1.608-0.932,2.797-2.4,3.375-4.176c0.623-1.912,0.464-3.951-0.447-5.743C43.615,28.167,41.042,26.59,38.191,26.59z"/>
<path d="M31.315,28.151l-13.418,1.416c0.619,3.667,3.722,6.32,7.412,6.321c0.001,0,0.001,0,0.001,0c0.265,0,0.53-0.014,0.799-0.042
	c3.463-0.366,6.132-3.039,6.645-6.327C32.125,29.252,31.62,28.76,31.315,28.151z"/>
<path d="M35.539,26.033c-0.124-0.244-0.299-0.456-0.512-0.624c-0.132-0.104-0.273-0.196-0.429-0.262
	c-0.155-0.065-0.323-0.101-0.495-0.123c-0.075-0.009-0.149-0.023-0.227-0.023c-0.227,0-0.441,0.047-0.642,0.12
	c-0.186,0.068-0.356,0.165-0.509,0.286c-0.135,0.106-0.256,0.227-0.357,0.366c-0.227,0.31-0.365,0.688-0.365,1.101
	c0,0.067,0.013,0.131,0.02,0.197c0.018,0.171,0.054,0.336,0.115,0.49c0.069,0.173,0.165,0.33,0.28,0.473
	c0.121,0.152,0.259,0.289,0.421,0.397c0.15,0.1,0.318,0.172,0.494,0.225c0.154,0.047,0.315,0.078,0.484,0.084
	c0.02,0.001,0.039,0.006,0.06,0.006c0.302,0,0.584-0.079,0.837-0.206c0.152-0.077,0.292-0.171,0.416-0.284
	c0.135-0.123,0.251-0.264,0.346-0.422c0.147-0.244,0.238-0.524,0.26-0.824c0.003-0.046,0.014-0.09,0.014-0.137
	c0-0.13-0.013-0.256-0.039-0.378C35.676,26.332,35.613,26.179,35.539,26.033z"/>
<path d="M48.5,51H38h-1h-7H19.5c-0.827,0-1.5,0.673-1.5,1.5V59h32v-6.5C50,51.673,49.327,51,48.5,51z M48,55h-1h-2h-1h-2h-1h-2h-1
	h-3v-2v-1h13V55z"/>
<rect x="45" y="53" width="2" height="1"/>
<rect x="36" y="53" width="2" height="1"/>
<rect x="42" y="53" width="2" height="1"/>
<rect x="39" y="53" width="2" height="1"/>
</svg>
