<?xml version="1.0" encoding="iso-8859-1"?>
<!-- Generator: Adobe Illustrator 17.1.0, SVG Export Plug-In . SVG Version: 6.00 Build 0)  -->
<!DOCTYPE svg PUBLIC "-//W3C//DTD SVG 1.1//EN" "http://www.w3.org/Graphics/SVG/1.1/DTD/svg11.dtd">
<svg version="1.1" id="Layer_1" xmlns="http://www.w3.org/2000/svg" xmlns:xlink="http://www.w3.org/1999/xlink" x="0px" y="0px"
	 viewBox="0 0 64 64" style="enable-background:new 0 0 64 64;" xml:space="preserve">
<rect x="26" y="32" width="1" height="3"/>
<rect x="29" y="32" width="1" height="3"/>
<path d="M28.148,35.547c-0.766,0-0.707,0.638-0.707,0.638v0.471h1.414v-0.471C28.855,36.186,28.914,35.547,28.148,35.547z"/>
<rect x="26" y="41" width="1" height="3"/>
<rect x="29" y="41" width="1" height="3"/>
<path d="M28.148,44.547c-0.766,0-0.707,0.638-0.707,0.638v0.471h1.414v-0.471C28.855,45.186,28.914,44.547,28.148,44.547z"/>
<rect x="26" y="50" width="1" height="3"/>
<rect x="29" y="50" width="1" height="3"/>
<path d="M28.148,53.547c-0.766,0-0.707,0.638-0.707,0.638v0.471h1.414v-0.471C28.855,54.186,28.914,53.547,28.148,53.547z"/>
<path d="M36.599,2.312l-0.072-1.999c-2.531,0.093-4.62,1.066-6.207,2.893c-3.51,4.04-3.522,11.133-3.388,13.794H25.5
	c-0.828,0-1.5,0.672-1.5,1.5c0,0.176,0.036,0.343,0.092,0.5H22c-1.105,0-2,0.895-2,2v37c0,1.105,0.895,2,2,2h12c1.105,0,2-0.895,2-2
	V21c0-1.105-0.895-2-2-2h-2.092C31.964,18.843,32,18.676,32,18.5c0-0.828-0.672-1.5-1.5-1.5h-1.562
	c-0.118-2.326-0.158-8.977,2.894-12.485C33.058,3.105,34.617,2.384,36.599,2.312z M31.094,56h-6.07c-1.008-1-1.65-2.101-1.65-3.529
	c0-1.397,0.615-2.999,1.585-3.471h6.199c0.97,0.471,1.585,2.073,1.585,3.471C32.744,53.899,32.103,55,31.094,56z M31.094,47h-6.07
	c-1.008-1-1.65-2.101-1.65-3.529c0-1.397,0.615-2.999,1.585-3.471h6.199c0.97,0.471,1.585,2.073,1.585,3.471
	C32.744,44.899,32.103,46,31.094,47z M31.094,38h-6.07c-1.008-1-1.65-2.101-1.65-3.529c0-1.397,0.615-2.999,1.585-3.471h6.199
	c0.97,0.471,1.585,2.073,1.585,3.471C32.744,35.899,32.103,37,31.094,38z M33,23v4H23v-4H33z"/>
<circle cx="25.281" cy="25.156" r="0.844"/>
</svg>
