<?xml version="1.0" encoding="iso-8859-1"?>
<!-- Generator: Adobe Illustrator 17.1.0, SVG Export Plug-In . SVG Version: 6.00 Build 0)  -->
<!DOCTYPE svg PUBLIC "-//W3C//DTD SVG 1.1//EN" "http://www.w3.org/Graphics/SVG/1.1/DTD/svg11.dtd">
<svg version="1.1" id="Layer_1" xmlns="http://www.w3.org/2000/svg" xmlns:xlink="http://www.w3.org/1999/xlink" x="0px" y="0px"
	 viewBox="0 0 64 64" style="enable-background:new 0 0 64 64;" xml:space="preserve">
<rect x="3" y="41" width="7" height="3"/>
<rect x="53" y="41" width="7" height="3"/>
<path d="M62,26H2c-1.105,0-2,0.895-2,2v10c0,1.105,0.895,2,2,2h60c1.105,0,2-0.895,2-2V28C64,26.895,63.105,26,62,26z M31,33H4v-3
	h27V33z M43,34.809v-4.619l4,2.309L43,34.809z M54,35h-2v-5h2V35z M57,35h-2v-5h2V35z"/>
</svg>
