<?xml version="1.0" encoding="iso-8859-1"?>
<!-- Generator: Adobe Illustrator 17.1.0, SVG Export Plug-In . SVG Version: 6.00 Build 0)  -->
<!DOCTYPE svg PUBLIC "-//W3C//DTD SVG 1.1//EN" "http://www.w3.org/Graphics/SVG/1.1/DTD/svg11.dtd">
<svg version="1.1" id="Layer_1" xmlns="http://www.w3.org/2000/svg" xmlns:xlink="http://www.w3.org/1999/xlink" x="0px" y="0px"
	 viewBox="0 0 64 64" style="enable-background:new 0 0 64 64;" xml:space="preserve">
<path d="M29,55.5c0-3.922-3.75-7.135-8.663-7.467l-5.006-19.956l21.637-17.743l6.319,8.508l3.94-1.403L39.022,6.391
	c-0.423-0.57-1.092-0.846-1.752-0.798c-0.48-0.025-0.971,0.115-1.372,0.444l-24.084,19.75c-0.036,0.03-0.064,0.066-0.098,0.098
	c-0.052,0.049-0.105,0.098-0.151,0.152c-0.043,0.05-0.079,0.105-0.117,0.159c-0.036,0.052-0.073,0.103-0.103,0.157
	c-0.033,0.058-0.059,0.12-0.086,0.181c-0.025,0.057-0.051,0.114-0.07,0.173c-0.02,0.061-0.034,0.124-0.048,0.187
	c-0.014,0.063-0.029,0.125-0.037,0.189c-0.008,0.066-0.009,0.132-0.011,0.199c-0.002,0.061-0.005,0.123-0.001,0.184
	c0.005,0.078,0.02,0.156,0.034,0.234c0.008,0.04,0.008,0.08,0.018,0.12l5.171,20.613C12.606,49.462,10,52.233,10,55.5V58h19V55.5z
	 M37.417,6.566c0.562,0,1.017,0.456,1.017,1.017s-0.455,1.017-1.017,1.017c-0.562,0-1.017-0.456-1.017-1.017
	S36.855,6.566,37.417,6.566z M13.417,28.601c-0.562,0-1.017-0.456-1.017-1.017s0.455-1.017,1.017-1.017
	c0.562,0,1.017,0.456,1.017,1.017S13.979,28.601,13.417,28.601z M21,54.75c0,0.69-0.56,1.25-1.25,1.25h-1.5
	C17.56,56,17,55.44,17,54.75v-1.5c0-0.316,0.127-0.597,0.321-0.817C17.55,52.173,17.876,52,18.25,52h1.5
	c0.592,0,1.065,0.42,1.194,0.973C20.966,53.065,21,53.152,21,53.25V54.75z"/>
<path d="M8.978,61h20.543c0.54,0,0.978-0.448,0.978-1c0-0.552-0.438-1-0.978-1H8.978C8.438,59,8,59.448,8,60
	C8,60.552,8.438,61,8.978,61z"/>
<polygon points="40.248,21.981 40.732,36.381 61.342,29.042 52.615,17.577 48.435,19.065 44.495,20.468 "/>
</svg>
