<?xml version="1.0" encoding="iso-8859-1"?>
<!-- Generator: Adobe Illustrator 17.1.0, SVG Export Plug-In . SVG Version: 6.00 Build 0)  -->
<!DOCTYPE svg PUBLIC "-//W3C//DTD SVG 1.1//EN" "http://www.w3.org/Graphics/SVG/1.1/DTD/svg11.dtd">
<svg version="1.1" id="Layer_1" xmlns="http://www.w3.org/2000/svg" xmlns:xlink="http://www.w3.org/1999/xlink" x="0px" y="0px"
	 viewBox="0 0 64 64" style="enable-background:new 0 0 64 64;" xml:space="preserve">
<rect x="20" y="60" width="7" height="3"/>
<rect x="34" y="60" width="7" height="3"/>
<path d="M43,57l-2-17c0-2.209-1.791-4-4-4H24c-2.209,0-4,1.791-4,4l-2,17c0,2.209,1.791,2,4,2h17C41.209,59,43,59.209,43,57z
	 M30.91,47.711c-1.915,0-3.468-1.553-3.468-3.468c0-1.915,1.552-3.468,3.468-3.468c1.915,0,3.468,1.552,3.468,3.468
	C34.378,46.158,32.825,47.711,30.91,47.711z"/>
<path d="M43.282,27h1.005h0.993h4.22c0.829,0,1.5-0.671,1.5-1.5v-10c0-0.829-0.671-1.5-1.5-1.5h-2.824h-0.993h-1.005L45,11H17
	l2,18.625C19,31.834,20.791,34,23,34h16c2.209,0,4-2.166,4-4.375L43.282,27z M44.356,17h1.005h0.993H48v7h-2.398h-0.993h-1.005
	L44.356,17z"/>
<path d="M17,9h28c1.105,0,2-0.895,2-2c0-1.105-0.895-2-2-2h-8.277C36.894,4.705,37,4.366,37,4c0-1.105-0.895-2-2-2h-8
	c-1.105,0-2,0.895-2,2c0,0.366,0.106,0.705,0.277,1H17c-1.105,0-2,0.895-2,2C15,8.105,15.895,9,17,9z"/>
</svg>
