<?xml version="1.0" encoding="iso-8859-1"?>
<!-- Generator: Adobe Illustrator 17.1.0, SVG Export Plug-In . SVG Version: 6.00 Build 0)  -->
<!DOCTYPE svg PUBLIC "-//W3C//DTD SVG 1.1//EN" "http://www.w3.org/Graphics/SVG/1.1/DTD/svg11.dtd">
<svg version="1.1" id="Layer_1" xmlns="http://www.w3.org/2000/svg" xmlns:xlink="http://www.w3.org/1999/xlink" x="0px" y="0px"
	 viewBox="0 0 64 64" style="enable-background:new 0 0 64 64;" xml:space="preserve">
<path d="M6,39c0,1.105,0.895,2,2,2h50c1.105,0,2-0.895,2-2v-7H6V39z M10,34h46c0.276,0,0.5,0.224,0.5,0.5S56.276,35,56,35H10
	c-0.276,0-0.5-0.224-0.5-0.5S9.724,34,10,34z M10,36h46c0.276,0,0.5,0.224,0.5,0.5S56.276,37,56,37H10c-0.276,0-0.5-0.224-0.5-0.5
	S9.724,36,10,36z M10,38h46c0.276,0,0.5,0.224,0.5,0.5S56.276,39,56,39H10c-0.276,0-0.5-0.224-0.5-0.5S9.724,38,10,38z"/>
<path d="M58,18H8c-1.105,0-2,0.895-2,2v11h54V20C60,18.895,59.105,18,58,18z M56,22H10c-0.276,0-0.5-0.224-0.5-0.5S9.724,21,10,21
	h46c0.276,0,0.5,0.224,0.5,0.5S56.276,22,56,22z"/>
</svg>
