<?xml version="1.0" encoding="iso-8859-1"?>
<!-- Generator: Adobe Illustrator 17.1.0, SVG Export Plug-In . SVG Version: 6.00 Build 0)  -->
<!DOCTYPE svg PUBLIC "-//W3C//DTD SVG 1.1//EN" "http://www.w3.org/Graphics/SVG/1.1/DTD/svg11.dtd">
<svg version="1.1" id="Layer_1" xmlns="http://www.w3.org/2000/svg" xmlns:xlink="http://www.w3.org/1999/xlink" x="0px" y="0px"
	 viewBox="0 0 64 64" style="enable-background:new 0 0 64 64;" xml:space="preserve">
<path d="M18.75,13h-0.5C17.56,13,17,13.56,17,14.25v41.5c0,0.69,0.56,1.25,1.25,1.25h0.5c0.69,0,1.25-0.56,1.25-1.25v-41.5
	C20,13.56,19.44,13,18.75,13z"/>
<path d="M22.75,13h-0.5C21.56,13,21,13.56,21,14.25v34.5c0,0.69,0.56,1.25,1.25,1.25h0.5c0.69,0,1.25-0.56,1.25-1.25v-34.5
	C24,13.56,23.44,13,22.75,13z"/>
<path d="M26.75,13h-0.5C25.56,13,25,13.56,25,14.25v34.5c0,0.69,0.56,1.25,1.25,1.25h0.5c0.69,0,1.25-0.56,1.25-1.25v-34.5
	C28,13.56,27.44,13,26.75,13z"/>
<path d="M30.75,13h-0.5C29.56,13,29,13.56,29,14.25v34.5c0,0.69,0.56,1.25,1.25,1.25h0.5c0.69,0,1.25-0.56,1.25-1.25v-34.5
	C32,13.56,31.44,13,30.75,13z"/>
<path d="M34.75,13h-0.5C33.56,13,33,13.56,33,14.25v34.5c0,0.69,0.56,1.25,1.25,1.25h0.5c0.69,0,1.25-0.56,1.25-1.25v-34.5
	C36,13.56,35.44,13,34.75,13z"/>
<path d="M38.75,13h-0.5C37.56,13,37,13.56,37,14.25v34.5c0,0.69,0.56,1.25,1.25,1.25h0.5c0.69,0,1.25-0.56,1.25-1.25v-34.5
	C40,13.56,39.44,13,38.75,13z"/>
<path d="M42.75,13h-0.5C41.56,13,41,13.56,41,14.25v34.5c0,0.69,0.56,1.25,1.25,1.25h0.5c0.69,0,1.25-0.56,1.25-1.25v-34.5
	C44,13.56,43.44,13,42.75,13z"/>
<path d="M46.75,13h-0.5C45.56,13,45,13.56,45,14.25v34.5c0,0.69,0.56,1.25,1.25,1.25h0.5c0.69,0,1.25-0.56,1.25-1.25v-34.5
	C48,13.56,47.44,13,46.75,13z"/>
<path d="M50.75,13h-0.5C49.56,13,49,13.56,49,14.25v41.5c0,0.69,0.56,1.25,1.25,1.25h0.5c0.69,0,1.25-0.56,1.25-1.25v-41.5
	C52,13.56,51.44,13,50.75,13z"/>
</svg>
