<?xml version="1.0" encoding="utf-8"?>
<!-- Generator: Adobe Illustrator 17.1.0, SVG Export Plug-In . SVG Version: 6.00 Build 0)  -->
<!DOCTYPE svg PUBLIC "-//W3C//DTD SVG 1.1//EN" "http://www.w3.org/Graphics/SVG/1.1/DTD/svg11.dtd">
<svg version="1.1" id="Layer_1" xmlns="http://www.w3.org/2000/svg" xmlns:xlink="http://www.w3.org/1999/xlink" x="0px" y="0px"
	 viewBox="0 0 128 128" enable-background="new 0 0 128 128" xml:space="preserve">
<g>
	<polygon points="64.1,10.2 53.2,10.2 50.7,16.8 66.6,16.8 	"/>
	<polygon points="58.6,79.3 61.9,76.3 61.9,36.1 55.4,36.1 55.4,76.3 	"/>
	<path d="M70.6,52.4V36.1h-6.5v39.3l5.1,4.6c0.4,0.4,0.4,1.1,0.1,1.5c-0.4,0.4-1.1,0.4-1.5,0.1l-3.9-3.5c-0.2,0.2-5.2,4-5.2,4
		s-5-3.8-5.2-4l-3.9,3.5c-0.4,0.4-1.1,0.3-1.5-0.1c-0.4-0.4-0.3-1.1,0.1-1.5l5.1-4.5V36.1h-6.5v15.7c-10.9,4.5-18.6,15.1-18.6,27.7
		c0,16.5,13.4,29.9,29.9,29.9S87.9,96,87.9,79.5C87.9,67.4,80.8,57.2,70.6,52.4z"/>
	<path d="M44.6,34l26.8,0c1.6,0.1,2.9-1.2,2.9-2.8v-0.8c0-1.6-1.3-2.9-2.9-2.9l-26.8,0c-1.6-0.1-2.9,1.2-2.9,2.8v0.8
		C41.7,32.7,43,34,44.6,34z"/>
	<path d="M44.6,25.3l26.8,0c1.6,0.1,2.9-1.2,2.9-2.8v-0.8c0-1.6-1.3-2.9-2.9-2.9l-26.8,0c-1.6-0.1-2.9,1.2-2.9,2.8v0.8
		C41.7,24,43,25.3,44.6,25.3z"/>
</g>
</svg>
