<?xml version="1.0" encoding="iso-8859-1"?>
<!-- Generator: Adobe Illustrator 17.1.0, SVG Export Plug-In . SVG Version: 6.00 Build 0)  -->
<!DOCTYPE svg PUBLIC "-//W3C//DTD SVG 1.1//EN" "http://www.w3.org/Graphics/SVG/1.1/DTD/svg11.dtd">
<svg version="1.1" id="Layer_1" xmlns="http://www.w3.org/2000/svg" xmlns:xlink="http://www.w3.org/1999/xlink" x="0px" y="0px"
	 viewBox="0 0 64 64" style="enable-background:new 0 0 64 64;" xml:space="preserve">
<path d="M48,42h4.5c0.829,0,1.5-0.671,1.5-1.5v-10c0-0.829-0.671-1.5-1.5-1.5H48v-1c0-1.105-0.895-2-2-2c0,0-30.458,0-32.583,0
	s-1.313,1.682-1.313,1.682L12,34v10c0,1.105,0.895,2,2,2h32c1.105,0,2-0.895,2-2V42z M51,32v7h-3v-7H51z M45,42.281
	C45,43.386,44.605,44,43.5,44h-27c-1.105,0-1.5-0.77-1.5-1.875v-8.736c2-0.991,3.706-2.183,7.406-2.326
	c6.448-0.25,8.41,3.75,16.056,3.688C40.747,34.731,44,34.312,45,33.74V39v3V42.281z"/>
<path d="M48,53c0-1.105-0.895-2-2-2H14c-1.105,0-2,0.895-2,2c0,1.105,0.895,2,2,2h32C47.105,55,48,54.105,48,53z"/>
<path d="M42.218,21c0,0-3.989-11.968-11.968-11.968S18.282,21,18.282,21H14c-1.105,0-2,0.895-2,2c0,1.105,0.895,2,2,2h32
	c1.105,0,2-0.895,2-2c0-1.105-0.895-2-2-2H42.218z M32.947,11.387c0.366-0.194,1.693,1.587,2.965,3.98s2.007,4.49,1.641,4.684
	c-0.366,0.194-1.693-1.587-2.965-3.98S32.581,11.581,32.947,11.387z M30.25,10.812c0.414,0,0.75,2.197,0.75,4.906
	s-0.336,4.906-0.75,4.906s-0.75-2.197-0.75-4.906S29.836,10.812,30.25,10.812z M24.588,15.367c1.272-2.393,2.6-4.174,2.965-3.98
	c0.366,0.194-0.369,2.292-1.641,4.684s-2.6,4.174-2.965,3.98C22.581,19.856,23.316,17.759,24.588,15.367z"/>
<path d="M43,49c0.552,0,1-0.448,1-1s-0.448-1-1-1H17c-0.552,0-1,0.448-1,1s0.448,1,1,1H43z"/>
</svg>
