<?xml version="1.0" encoding="iso-8859-1"?>
<!-- Generator: Adobe Illustrator 17.1.0, SVG Export Plug-In . SVG Version: 6.00 Build 0)  -->
<!DOCTYPE svg PUBLIC "-//W3C//DTD SVG 1.1//EN" "http://www.w3.org/Graphics/SVG/1.1/DTD/svg11.dtd">
<svg version="1.1" id="Layer_1" xmlns="http://www.w3.org/2000/svg" xmlns:xlink="http://www.w3.org/1999/xlink" x="0px" y="0px"
	 viewBox="0 0 64 64" style="enable-background:new 0 0 64 64;" xml:space="preserve">
<path d="M18,32h28c2.209,0,4-1.791,4-4V13c0-2.209-1.791-4-4-4H18c-2.209,0-4,1.791-4,4v15C14,30.209,15.791,32,18,32z M43.91,12.75
	c1.377,0,2.493,1.116,2.493,2.493c0,1.377-1.116,2.493-2.493,2.493c-1.377,0-2.493-1.116-2.493-2.493
	C41.417,13.866,42.533,12.75,43.91,12.75z M43.91,19.75c1.377,0,2.493,1.116,2.493,2.493c0,1.377-1.116,2.493-2.493,2.493
	c-1.377,0-2.493-1.116-2.493-2.493C41.417,20.866,42.533,19.75,43.91,19.75z"/>
<path d="M14,42v10c0,1.105,0.895,2,2,2h32c1.105,0,2-0.895,2-2v-2h4.5c0.828,0,1.5-0.671,1.5-1.5v-10c0-0.829-0.672-1.5-1.5-1.5H50
	v-1c0-1.105-0.895-2-2-2c0,0-33.458,0-35.583,0s-1.313,1.682-1.313,1.682L14,42z M53,40v7h-3v-7H53z M17,41.389
	c2-0.991,3.706-2.183,7.406-2.326c6.448-0.25,8.41,3.75,16.056,3.688C42.747,42.731,46,42.312,47,41.74V47v3v0.281
	C47,51.386,46.605,52,45.5,52h-27c-1.105,0-1.5-0.77-1.5-1.875V41.389z"/>
<path d="M14,61c0,1.105,0.895,2,2,2h32c1.105,0,2-0.895,2-2c0-1.105-0.895-2-2-2H16C14.895,59,14,59.895,14,61z"/>
<path d="M45,57c0.553,0,1-0.448,1-1s-0.447-1-1-1H19c-0.553,0-1,0.448-1,1s0.447,1,1,1H45z"/>
</svg>
