<?xml version="1.0" encoding="iso-8859-1"?>
<!-- Generator: Adobe Illustrator 17.1.0, SVG Export Plug-In . SVG Version: 6.00 Build 0)  -->
<!DOCTYPE svg PUBLIC "-//W3C//DTD SVG 1.1//EN" "http://www.w3.org/Graphics/SVG/1.1/DTD/svg11.dtd">
<svg version="1.1" id="Layer_1" xmlns="http://www.w3.org/2000/svg" xmlns:xlink="http://www.w3.org/1999/xlink" x="0px" y="0px"
	 viewBox="0 0 64 64" style="enable-background:new 0 0 64 64;" xml:space="preserve">
<path d="M63,48.896c0.083-1.25-0.183-8.688-0.167-9.521C62.875,37.208,61.5,37,61.5,37H61v-5.5c0-0.829-0.672-1.5-1.5-1.5H38
	c-0.378,0-0.742,0.143-1.019,0.399l-7.532,6.972L10,44.25V51c0,0,49.167,0,50.5,0S62.917,50.146,63,48.896z M38.588,33H58v4H34.266
	L38.588,33z M48,43h-3v-3h3V43z M52,43h-3v-3h3V43z M56.01,44c-1.248,0-2.26-1.012-2.26-2.26s1.012-2.26,2.26-2.26
	c1.248,0,2.26,1.012,2.26,2.26S57.259,44,56.01,44z"/>
<polygon points="8,45 2,46 2,51 8,51 "/>
</svg>
