<?xml version="1.0" encoding="iso-8859-1"?>
<!-- Generator: Adobe Illustrator 17.1.0, SVG Export Plug-In . SVG Version: 6.00 Build 0)  -->
<!DOCTYPE svg PUBLIC "-//W3C//DTD SVG 1.1//EN" "http://www.w3.org/Graphics/SVG/1.1/DTD/svg11.dtd">
<svg version="1.1" id="Layer_1" xmlns="http://www.w3.org/2000/svg" xmlns:xlink="http://www.w3.org/1999/xlink" x="0px" y="0px"
	 viewBox="0 0 64 64" style="enable-background:new 0 0 64 64;" xml:space="preserve">
<path d="M9,50h39V12H9V50z M28.5,46.25c-0.644,0-1.167-0.522-1.167-1.167s0.522-1.167,1.167-1.167s1.167,0.522,1.167,1.167
	S29.144,46.25,28.5,46.25z M28.5,16.917c0.644,0,1.167,0.522,1.167,1.167S29.144,19.25,28.5,19.25s-1.167-0.522-1.167-1.167
	S27.856,16.917,28.5,16.917z M14,24h29v14H14V24z"/>
<rect x="23" y="28" width="2" height="6"/>
<rect x="32" y="28" width="2" height="6"/>
</svg>
