<?xml version="1.0" encoding="iso-8859-1"?>
<!-- Generator: Adobe Illustrator 17.1.0, SVG Export Plug-In . SVG Version: 6.00 Build 0)  -->
<!DOCTYPE svg PUBLIC "-//W3C//DTD SVG 1.1//EN" "http://www.w3.org/Graphics/SVG/1.1/DTD/svg11.dtd">
<svg version="1.1" id="Layer_1" xmlns="http://www.w3.org/2000/svg" xmlns:xlink="http://www.w3.org/1999/xlink" x="0px" y="0px"
	 viewBox="0 0 64 64" style="enable-background:new 0 0 64 64;" xml:space="preserve">
<path d="M29.439,59.338c3.003,0,4.561-3.708,4.561-4.937v-17.8C34,35.372,33.173,34,32.09,34H32h-4.814
	c-0.062,0-0.124,0.019-0.186,0.028c-1.02,0.144-2,1.414-2,2.573v17.8C25,55.63,26.497,59.338,29.439,59.338z M30.982,37.004
	C30.988,37.004,30.994,37,31,37c0.552,0,1,0.448,1,1v4c0,0.552-0.448,1-1,1s-1-0.448-1-1v-4c0-0.24,0.096-0.451,0.236-0.623
	C30.416,37.157,30.677,37.009,30.982,37.004z"/>
<path d="M36.577,28.3l1.636,5.726c0.188,0.659,0.789,1.088,1.441,1.088c0.137,0,0.275-0.019,0.413-0.058
	c0.796-0.228,1.258-1.058,1.03-1.854l-1.625-5.688C38.94,25.447,37.408,24.89,36.384,25H32V5c0-0.661-0.261-1.258-0.68-1.705
	L30.788,1h-2.225l-0.346,1.865C27.491,3.302,27,4.09,27,5v27.018C27.086,32.01,27.171,32,27.257,32H32v-4h4.475
	C36.502,28.059,36.539,28.154,36.577,28.3z"/>
</svg>
