<?xml version="1.0" encoding="iso-8859-1"?>
<!-- Generator: Adobe Illustrator 17.1.0, SVG Export Plug-In . SVG Version: 6.00 Build 0)  -->
<!DOCTYPE svg PUBLIC "-//W3C//DTD SVG 1.1//EN" "http://www.w3.org/Graphics/SVG/1.1/DTD/svg11.dtd">
<svg version="1.1" id="Layer_1" xmlns="http://www.w3.org/2000/svg" xmlns:xlink="http://www.w3.org/1999/xlink" x="0px" y="0px"
	 viewBox="0 0 64 64" style="enable-background:new 0 0 64 64;" xml:space="preserve">
<rect x="14" y="55" width="7" height="3"/>
<rect x="45" y="55" width="7" height="3"/>
<path d="M55,47H12c-1.105,0-2,0.895-2,2v2c0,1.105,0.895,2,2,2h43c1.105,0,2-0.895,2-2v-2C57,47.895,56.105,47,55,47z"/>
<path d="M33.667,5.833C17.5,5.833,10,15.895,10,17v26c0,1.105,0.895,2,2,2h43c1.105,0,2-0.895,2-2V17
	C57,15.895,49.833,5.833,33.667,5.833z M31,36c0,1.105-0.895,2-2,2H16c-1.105,0-2-0.895-2-2V23c0-1.105,0.895-2,2-2h13
	c1.105,0,2,0.895,2,2V36z M24.833,11.458c0-1.588,3.955-2.875,8.833-2.875c4.878,0,8.833,1.287,8.833,2.875
	s-3.955,2.875-8.833,2.875C28.788,14.333,24.833,13.046,24.833,11.458z M53,36c0,1.105-0.895,2-2,2H38c-1.105,0-2-0.895-2-2V23
	c0-1.105,0.895-2,2-2h13c1.105,0,2,0.895,2,2V36z"/>
<ellipse transform="matrix(-0.6858 -0.7278 0.7278 -0.6858 54.1437 81.4977)" cx="44.665" cy="29.061" rx="9.005" ry="0.852"/>
<ellipse transform="matrix(-0.6858 -0.7278 0.7278 -0.6858 17.057 65.4855)" cx="22.665" cy="29.061" rx="9.005" ry="0.852"/>
</svg>
