<?xml version="1.0" encoding="iso-8859-1"?>
<!-- Generator: Adobe Illustrator 17.1.0, SVG Export Plug-In . SVG Version: 6.00 Build 0)  -->
<!DOCTYPE svg PUBLIC "-//W3C//DTD SVG 1.1//EN" "http://www.w3.org/Graphics/SVG/1.1/DTD/svg11.dtd">
<svg version="1.1" id="Layer_1" xmlns="http://www.w3.org/2000/svg" xmlns:xlink="http://www.w3.org/1999/xlink" x="0px" y="0px"
	 viewBox="0 0 64 64" style="enable-background:new 0 0 64 64;" xml:space="preserve">
<polygon points="36.398,61 36.398,61 36.398,61 "/>
<path d="M36.854,59.125L37.037,57h-8.93l0.18,2.082C28.289,59.665,28.526,60,28.746,60h7.652C36.618,60,36.854,59.665,36.854,59.125
	z"/>
<path d="M19,9.445v5.04c3.755-1.736,9.653-3.195,13.625-3.195c3.884,0,9.612,1.404,13.375,3.1V9.445l0-0.001
	c-0.001-0.553-1.567-2.911-5-4.631V6c0,0.552-0.448,1-1,1s-1-0.448-1-1V3.982c-0.624-0.216-1.286-0.408-2-0.566V6
	c0,0.552-0.448,1-1,1s-1-0.448-1-1V3.091c-0.637-0.074-1.302-0.121-2-0.138V6c0,0.552-0.448,1-1,1s-1-0.448-1-1V2.987
	c-0.699,0.045-1.367,0.119-2,0.222V6c0,0.552-0.448,1-1,1s-1-0.448-1-1V3.654c-0.715,0.199-1.386,0.426-2,0.682V6
	c0,0.552-0.448,1-1,1s-1-0.448-1-1V5.34C20.261,6.983,19,8.948,19,9.445z"/>
<path d="M27.415,55h0.519h9.274h0.52h0.481h3.673c0.639,0,1.314-0.876,1.314-1.705l0.008-0.128l3.511-27.117L47,23.862l0.797-6.159
	c-0.155-0.158-0.431-0.354-0.797-0.572c-0.279-0.166-0.617-0.346-1-0.534c-2.892-1.42-8.507-3.308-13.375-3.308
	c-5.017,0-10.819,1.985-13.625,3.403c-0.399,0.202-0.734,0.39-1,0.561c-0.236,0.152-0.431,0.293-0.547,0.41L18,21.901l0.581,4.5
	l0.036,0.278l3.436,26.617c0,0.829,0.676,1.705,1.314,1.705h3.568H27.415z M33.103,23.364c2.12,0,3.851,1.588,4.115,3.636
	c0.023,0.176,0.054,0.35,0.054,0.533c0,0.16-0.03,0.312-0.047,0.467c-0.235,2.079-1.979,3.701-4.121,3.701S29.217,30.079,28.982,28
	c-0.018-0.155-0.047-0.307-0.047-0.467c0-0.182,0.031-0.357,0.054-0.533C29.253,24.952,30.983,23.364,33.103,23.364z"/>
</svg>
