<?xml version="1.0" encoding="iso-8859-1"?>
<!-- Generator: Adobe Illustrator 17.1.0, SVG Export Plug-In . SVG Version: 6.00 Build 0)  -->
<!DOCTYPE svg PUBLIC "-//W3C//DTD SVG 1.1//EN" "http://www.w3.org/Graphics/SVG/1.1/DTD/svg11.dtd">
<svg version="1.1" id="Layer_1" xmlns="http://www.w3.org/2000/svg" xmlns:xlink="http://www.w3.org/1999/xlink" x="0px" y="0px"
	 viewBox="0 0 64 64" style="enable-background:new 0 0 64 64;" xml:space="preserve">
<path d="M41,53.375c0-2.958,0-32.426,0-32.426s7.323-1.113,7.517,8.81c0.174,8.913,0.2,23.524,0.203,29.24
	c0,0-0.001,1.375,1.593,1.375C52,60.375,52,59,52,59V27.375C51.544,4.003,23,2,23,2v59c0,0,4.875,0,11,0
	C37.5,61,41,58.625,41,53.375z M35.524,14.07l-0.227-0.215c-0.338-0.321-0.872-0.307-1.193,0.031l-2.161,2.275
	C31.51,15.549,31.25,14.806,31.25,14c0-2.071,1.679-3.75,3.75-3.75s3.75,1.679,3.75,3.75c0,2.071-1.679,3.75-3.75,3.75
	c-0.536,0-1.044-0.117-1.505-0.319l2.059-2.168C35.875,14.925,35.861,14.391,35.524,14.07z"/>
<path d="M18,63c1.105,0,2-0.895,2-2V2c0-1.105-0.895-2-2-2s-2,0.895-2,2v59C16,62.105,16.895,63,18,63z"/>
</svg>
