<?xml version="1.0" encoding="iso-8859-1"?>
<!-- Generator: Adobe Illustrator 17.1.0, SVG Export Plug-In . SVG Version: 6.00 Build 0)  -->
<!DOCTYPE svg PUBLIC "-//W3C//DTD SVG 1.1//EN" "http://www.w3.org/Graphics/SVG/1.1/DTD/svg11.dtd">
<svg version="1.1" id="Layer_1" xmlns="http://www.w3.org/2000/svg" xmlns:xlink="http://www.w3.org/1999/xlink" x="0px" y="0px"
	 viewBox="0 0 64 64" style="enable-background:new 0 0 64 64;" xml:space="preserve">
<g>
	<path d="M53.432,26H42.618l-4.001,2h-0.118H8.211c-0.389,0.853-0.878,2.15-0.878,3.312c0,1.889,0.473,2.712,1.021,3.665
		C8.359,34.984,8.363,34.993,8.367,35h30.251l4,2h10.669c-0.93-1.129-1.537-3.11-1.537-5.417C51.75,29.159,52.42,27.093,53.432,26z"
		/>
	<path d="M7.119,28H5.641c-0.312,0.214-1.328,1.073-1.328,3.182c0,2.119,1.032,3.424,1.396,3.818h1.513
		c-0.47-0.863-0.888-1.871-0.888-3.688C6.333,30.148,6.734,28.921,7.119,28z"/>
	<path d="M55.104,26.167c-0.034,0-0.069,0.021-0.104,0.025c-0.339,0.041-0.683,0.283-1,0.691c-0.697,0.896-1.25,2.574-1.25,4.7
		c0,2.126,0.553,3.804,1.25,4.7c0.317,0.408,0.661,0.65,1,0.691C55.035,36.979,55.07,37,55.104,37c1.114,0,2.354-2.225,2.354-5.417
		C57.458,28.391,56.218,26.167,55.104,26.167z M55.104,34.75c-0.036,0-0.069-0.021-0.104-0.03c-0.509-0.136-0.917-1.232-1-2.658
		c-0.01-0.174-0.019-0.349-0.019-0.531S53.99,31.174,54,31c0.083-1.426,0.491-2.522,1-2.658c0.035-0.009,0.068-0.03,0.104-0.03
		c0.62,0,1.123,1.441,1.123,3.219C56.227,33.309,55.724,34.75,55.104,34.75z"/>
</g>
</svg>
