<?xml version="1.0" encoding="iso-8859-1"?>
<!-- Generator: Adobe Illustrator 17.1.0, SVG Export Plug-In . SVG Version: 6.00 Build 0)  -->
<!DOCTYPE svg PUBLIC "-//W3C//DTD SVG 1.1//EN" "http://www.w3.org/Graphics/SVG/1.1/DTD/svg11.dtd">
<svg version="1.1" id="Layer_1" xmlns="http://www.w3.org/2000/svg" xmlns:xlink="http://www.w3.org/1999/xlink" x="0px" y="0px"
	 viewBox="0 0 64 64" style="enable-background:new 0 0 64 64;" xml:space="preserve">
<g>
	<path d="M56.839,28c-1.713-2.894-4.858-4.841-8.465-4.841c-4.015,0-7.462,2.407-8.992,5.854C39.337,29.012,39.295,29,39.25,29H5.75
		C3.679,29,2,30.679,2,32.75v0.5C2,35.321,3.679,37,5.75,37h33.5c0.045,0,0.087-0.012,0.131-0.013
		c1.531,3.447,4.978,5.854,8.992,5.854c3.607,0,6.752-1.947,8.465-4.841H46.776L44.1,33l2.676-5H56.839z"/>
</g>
</svg>
