<?xml version="1.0" encoding="iso-8859-1"?>
<!-- Generator: Adobe Illustrator 17.1.0, SVG Export Plug-In . SVG Version: 6.00 Build 0)  -->
<!DOCTYPE svg PUBLIC "-//W3C//DTD SVG 1.1//EN" "http://www.w3.org/Graphics/SVG/1.1/DTD/svg11.dtd">
<svg version="1.1" id="Layer_1" xmlns="http://www.w3.org/2000/svg" xmlns:xlink="http://www.w3.org/1999/xlink" x="0px" y="0px"
	 viewBox="0 0 64 64" style="enable-background:new 0 0 64 64;" xml:space="preserve">
<g>
	<path d="M18,53h13V39H18V53z M28.917,45.333c0.46,0,0.833,0.373,0.833,0.833c0,0.46-0.373,0.833-0.833,0.833
		c-0.46,0-0.833-0.373-0.833-0.833C28.083,45.706,28.456,45.333,28.917,45.333z"/>
	<path d="M13,55v2v2h4v-2h32v2h4v-2v-2V19H13V55z M35,54V38h15v16H35z M35,22h3.5h8H50v6H35V22z M17,22h3.5h8H32v6H17V22z M17,30
		h12.5h8H50v6H17V30z M17,38h15v16H17V38z"/>
	<path d="M46.5,24h-8c-0.276,0-0.5-0.569-0.5-1h-2v4h13v-4h-2C47,23.431,46.776,24,46.5,24z"/>
	<path d="M28.5,24h-8c-0.276,0-0.5-0.569-0.5-1h-2v4h13v-4h-2C29,23.431,28.776,24,28.5,24z"/>
	<path d="M36,53h13V39H36V53z M37.917,45.333c0.46,0,0.833,0.373,0.833,0.833c0,0.46-0.373,0.833-0.833,0.833
		c-0.46,0-0.833-0.373-0.833-0.833C37.083,45.706,37.456,45.333,37.917,45.333z"/>
	<path d="M37.5,32h-8c-0.276,0-0.5-0.569-0.5-1H18v4h31v-4H38C38,31.431,37.776,32,37.5,32z"/>
</g>
</svg>
