<?xml version="1.0" encoding="iso-8859-1"?>
<!-- Generator: Adobe Illustrator 17.1.0, SVG Export Plug-In . SVG Version: 6.00 Build 0)  -->
<!DOCTYPE svg PUBLIC "-//W3C//DTD SVG 1.1//EN" "http://www.w3.org/Graphics/SVG/1.1/DTD/svg11.dtd">
<svg version="1.1" id="Layer_1" xmlns="http://www.w3.org/2000/svg" xmlns:xlink="http://www.w3.org/1999/xlink" x="0px" y="0px"
	 viewBox="0 0 64 64" style="enable-background:new 0 0 64 64;" xml:space="preserve">
<g>
	<path d="M28.28,42h1.314h2.797l-0.21-0.719l2.377,0.298l-0.666-2.295l2.381,0.302l-0.655-2.29l2.399,0.317l-0.619-2.261
		l2.473,0.374l-1.092-4.493l0.324-0.38c0.57,0.336,1.271,0.533,1.971,0.533c0.978,0,1.826-0.363,2.391-1.023L51.453,21
		c1.234-1.448,0.755-3.871-0.465-4.911l-7.187-6.13c-1.226-1.049-3.352-0.716-4.522,0.657l-7.987,9.363
		c-0.674,0.791-0.925,1.761-0.792,2.653L15.664,42H28.28z M33.575,21.926l7.967-9.339c-0.027,0.882,1.15,2.559,2.961,4.104
		c1.934,1.65,3.9,2.561,4.679,2.228c0.002,0.058-0.001,0.107-0.012,0.135l-7.924,9.309c-0.015,0.006-0.072,0.023-0.171,0.023
		c-0.221,0-0.419-0.082-0.471-0.124l-7.145-6.095C33.461,22.128,33.477,22.041,33.575,21.926z"/>
	<polygon points="25.572,50 22.77,50 21.455,50 9.535,50 8.745,51.032 16.353,57.522 19.203,59.954 18.493,57.324 20.918,57.563 
		20.25,55.265 22.622,55.565 21.952,53.27 24.325,53.57 23.656,51.273 26.03,51.571 	"/>
	<polygon points="32.683,43 28.741,43 27.427,43 14.898,43 3,43 3,49 10.301,49 22.308,49 23.623,49 27.567,49 59,49 59,43 	"/>
</g>
</svg>
