<?xml version="1.0" encoding="iso-8859-1"?>
<!-- Generator: Adobe Illustrator 17.1.0, SVG Export Plug-In . SVG Version: 6.00 Build 0)  -->
<!DOCTYPE svg PUBLIC "-//W3C//DTD SVG 1.1//EN" "http://www.w3.org/Graphics/SVG/1.1/DTD/svg11.dtd">
<svg version="1.1" id="Layer_1" xmlns="http://www.w3.org/2000/svg" xmlns:xlink="http://www.w3.org/1999/xlink" x="0px" y="0px"
	 viewBox="0 0 64 64" style="enable-background:new 0 0 64 64;" xml:space="preserve">
<g>
	<path d="M55.5,33h-8c-0.276,0-0.5-0.569-0.5-1h-2v4h13v-4h-2C56,32.431,55.776,33,55.5,33z"/>
	<path d="M45,55h13V41H45V55z M46.917,47.333c0.46,0,0.833,0.373,0.833,0.833c0,0.46-0.373,0.833-0.833,0.833
		c-0.46,0-0.833-0.373-0.833-0.833C46.083,47.706,46.456,47.333,46.917,47.333z"/>
	<path d="M41,57v2v2h4v-2h13v2h4v-2v-2V28H41V57z M44,31h3.5h8H59v6H44V31z M44,40h15v16H44V40z"/>
	<path d="M17.5,33h-8C9.224,33,9,32.431,9,32H7v4h13v-4h-2C18,32.431,17.776,33,17.5,33z"/>
	<path d="M7,55h13V41H7V55z M8.917,47.333c0.46,0,0.833,0.373,0.833,0.833C9.75,48.627,9.377,49,8.917,49
		c-0.46,0-0.833-0.373-0.833-0.833C8.083,47.706,8.456,47.333,8.917,47.333z"/>
	<path d="M3,57v2v2h4v-2h13v2h4v-2v-2V28H3V57z M6,31h3.5h8H21v6H6V31z M6,40h15v16H6V40z"/>
	<rect y="24" width="64" height="3"/>
</g>
</svg>
