<?xml version="1.0" encoding="iso-8859-1"?>
<!-- Generator: Adobe Illustrator 17.1.0, SVG Export Plug-In . SVG Version: 6.00 Build 0)  -->
<!DOCTYPE svg PUBLIC "-//W3C//DTD SVG 1.1//EN" "http://www.w3.org/Graphics/SVG/1.1/DTD/svg11.dtd">
<svg version="1.1" id="Layer_1" xmlns="http://www.w3.org/2000/svg" xmlns:xlink="http://www.w3.org/1999/xlink" x="0px" y="0px"
	 viewBox="0 0 64 64" style="enable-background:new 0 0 64 64;" xml:space="preserve">
<g>
	<path d="M33,11.25c-12.012,0-21.75,9.738-21.75,21.75S20.988,54.75,33,54.75S54.75,45.012,54.75,33S45.012,11.25,33,11.25z
		 M19.657,42.9c-1.782-2.531-2.865-5.9-2.965-8.9H26C25.661,37,22.506,41.333,19.657,42.9z M33,49.333
		c-3.143,0-6.071-0.894-8.557-2.436c1.253-1.749,2.767-5.231,8.975-5.231c6,0,7.46,2.413,8.975,4.676
		C39.738,48.223,36.503,49.333,33,49.333z M30.375,34.5c0-1.588,1.287-2.875,2.875-2.875s2.875,1.287,2.875,2.875
		s-1.287,2.875-2.875,2.875S30.375,36.088,30.375,34.5z M46.542,42.592C42.078,40.798,41.501,37,41.187,34h8.121
		C49.212,37,48.2,40.12,46.542,42.592z M17.309,29C19.265,22,25.542,17.167,33,17.167S46.735,22,48.691,29H17.309z"/>
</g>
</svg>
