<?xml version="1.0" encoding="iso-8859-1"?>
<!-- Generator: Adobe Illustrator 17.1.0, SVG Export Plug-In . SVG Version: 6.00 Build 0)  -->
<!DOCTYPE svg PUBLIC "-//W3C//DTD SVG 1.1//EN" "http://www.w3.org/Graphics/SVG/1.1/DTD/svg11.dtd">
<svg version="1.1" id="Layer_1" xmlns="http://www.w3.org/2000/svg" xmlns:xlink="http://www.w3.org/1999/xlink" x="0px" y="0px"
	 viewBox="0 0 64 64" style="enable-background:new 0 0 64 64;" xml:space="preserve">
<g>
	<path d="M13,54h-1v-4.484l19.365-7.584C31.748,41.781,32,41.412,32,41v-4.383c-0.277,0.098-0.576,0.155-0.895,0.155
		c-0.4,0-0.773-0.087-1.105-0.237v3.783l-19.365,7.584C10.252,48.052,10,48.422,10,48.833V55c0,0.552,0.448,1,1,1h2V54z"/>
	<path d="M30,35.33c0.306,0.304,0.727,0.443,1.105,0.443c0.345,0,0.642-0.101,0.895-0.267c0.292-0.192,0.525-0.473,0.681-0.83
		C34.135,31.335,35,13.578,35,11.375v-0.3c0-1.224,0.14-2.612-0.763-3.52C33.541,6.855,32.46,6.5,30.776,6.5
		c-1.347,0-2.392,0.382-3.104,1.136c-1.193,1.261-1.103,3.151-1.102,3.17c0.089,10.922,3.05,23.828,3.08,23.957
		C29.72,35.005,29.85,35.181,30,35.33z"/>
	<path d="M46,51H15.5c-0.827,0-1.5,0.673-1.5,1.5V54v2v0.5c0,0.827,0.673,1.5,1.5,1.5h31c0.827,0,1.5-0.673,1.5-1.5V53
		C48,51.895,47.105,51,46,51z"/>
</g>
</svg>
