<?xml version="1.0" encoding="iso-8859-1"?>
<!-- Generator: Adobe Illustrator 17.1.0, SVG Export Plug-In . SVG Version: 6.00 Build 0)  -->
<!DOCTYPE svg PUBLIC "-//W3C//DTD SVG 1.1//EN" "http://www.w3.org/Graphics/SVG/1.1/DTD/svg11.dtd">
<svg version="1.1" id="Layer_1" xmlns="http://www.w3.org/2000/svg" xmlns:xlink="http://www.w3.org/1999/xlink" x="0px" y="0px"
	 viewBox="0 0 64 64" style="enable-background:new 0 0 64 64;" xml:space="preserve">
<g>
	<path d="M57,20H4c-1.105,0-2,0.895-2,2v34c0,1.105,0.895,2,2,2h53c1.105,0,2-0.895,2-2V22C59,20.895,58.105,20,57,20z
		 M45.228,44.711c-0.538,0-0.976-0.438-0.976-0.976s0.438-0.976,0.976-0.976s0.976,0.438,0.976,0.976S45.766,44.711,45.228,44.711z
		 M12,25c0-1.105,0.895-2,2-2s2,0.895,2,2v11c0,0.738-0.405,1.376-1,1.723V46h-2v-8.277c-0.595-0.346-1-0.984-1-1.723V25z
		 M20,51.774C20,52.324,19.782,53,19.232,53h-0.987c-0.356,0-0.359-0.31-0.359-0.585C17.886,52.29,18,51.83,17,51.83
		c0,0,0,0.282,0,0.557C17,52.905,16.69,53,15.795,53h-1c-0.195,0-0.36-0.087-0.506-0.202c-1.76-0.026-6.204-0.686-6.204-6.702
		c1.559,2.82,3.079,3.619,3.954,3.837C12.019,49.88,12,49.828,12,49.774v-2.875l4-0.047v1.922c1,0,1,0.028,1,0.528
		c0,0.275,0,0.528,0,0.528c1,0,0.886-0.33,0.886-0.443c0-0.275,0.136-0.387,0.359-0.387h1.147C19.942,49,20,49.224,20,49.774V51.774
		z M31,38h-1v8h0.026l1.016,4l-1.016,4h-2.031l-1.016-4l1.016-4H28v-8h-1c-0.552,0-1-0.448-1-1c0-0.552,0.448-1,1-1V25
		c0-1.105,0.895-2,2-2s2,0.895,2,2v11c0.552,0,1,0.448,1,1C32,37.552,31.552,38,31,38z M40,24c0-1.105,0.895-2,2-2s2,0.895,2,2v11
		c0,0.738-0.405,1.376-1,1.723v2.027c0.004,0,0.197,1.651,1.608,3.118c-0.676,0.225-1.19,0.799-1.32,1.513
		c-2.034-2.03-2.274-4.433-2.284-4.544l-0.002-2.114C40.406,36.377,40,35.739,40,35V24z M44.508,52.25l-0.008,2
		c-1.226,0-4.406-0.865-4.406-4.812c0-2.485,1.406-3.938,3.188-5.413c0.107,0.719,0.598,1.309,1.261,1.556
		c-1.609,1.34-2.448,2.289-2.448,3.856C42.094,52.075,44.105,52.243,44.508,52.25z M45.547,54.25l-0.008-2
		c0.407-0.007,2.438-0.175,2.438-2.812c0-1.408-0.858-2.606-2.146-3.83c0.681-0.22,1.202-0.791,1.337-1.505
		c1.512,1.427,2.81,3.142,2.81,5.336C49.977,53.385,46.779,54.25,45.547,54.25z M50,35c0,0.74-0.407,1.379-1.005,1.725l-0.006,2.171
		c-0.017,0.116-0.365,2.349-1.867,4.307c-0.195-0.694-0.753-1.234-1.461-1.393c0.962-1.34,1.28-2.824,1.338-3.144v-1.944
		c-0.595-0.346-1-0.984-1-1.723V24c0-1.105,0.895-2,2-2s2,0.895,2,2V35z"/>
</g>
</svg>
