<?xml version="1.0" encoding="utf-8"?>
<!-- Generator: Adobe Illustrator 17.1.0, SVG Export Plug-In . SVG Version: 6.00 Build 0)  -->
<!DOCTYPE svg PUBLIC "-//W3C//DTD SVG 1.1//EN" "http://www.w3.org/Graphics/SVG/1.1/DTD/svg11.dtd">
<svg version="1.1" id="Layer_1" xmlns="http://www.w3.org/2000/svg" xmlns:xlink="http://www.w3.org/1999/xlink" x="0px" y="0px"
	 viewBox="0 0 128 128" enable-background="new 0 0 128 128" xml:space="preserve">
<g>
	<path d="M120.3,91.6L88,65.7c-2.7-2.1-6.3-2.1-9-0.3L55.3,46.3l-2.6,3.3l23.7,19.1c-1.2,3-0.5,6.6,2.2,8.7l32.3,25.9
		c3.2,2.6,8,2.1,10.6-1.2C124,99,123.5,94.2,120.3,91.6z"/>
	<path d="M47.6,33.2C47.4,33.1,47.2,33,47,33c2.7-2.1,8.6-4.6,20.6-2.6C50.1,16.3,37.2,27,32.9,32.2l-3.8,4.6c-2.1,2.6-2.6,3.8-1,5
		c0.8,0.6,1.6,1.3,1.6,1.3c-2.4,2.9-3.4,1.5-3.8,1.2c-0.8-0.6-1.7-1.4-2.6-0.3l-2.3,2.9c-1.3,1.6,0.2,3.8,1.8,5.1l5.9,4.7
		c1.6,1.3,2.4,1.7,3.7,0l2.7-3.4c0.5-0.7,0.5-1.3-0.3-2c-0.3-0.3-1.6-0.7,0.8-3.6c0,0,0.7,0.6,1.5,1.2c1.5,1.2,1.5,1.2,3.9-1.7
		l5.6,4.5L56,40L47.6,33.2z"/>
	<path d="M26.7,70.7h-3.2h-4.2h-3.2c-0.6,0-1.1,0.5-1.1,1.1s0.5,1.1,1.1,1.1h3.2v33.9h4.2V72.8h3.2c0.6,0,1.1-0.5,1.1-1.1
		S27.3,70.7,26.7,70.7z"/>
	<path d="M36.5,22.6c0.3,0,0.7-0.2,0.9-0.4c0.1-0.1,7.5-10.4,20.9-10.9c0.6,0,1-0.5,1-1.1c0-0.6-0.5-1-1.1-1
		C43.7,9.6,35.9,20.4,35.6,20.9c-0.3,0.5-0.2,1.1,0.3,1.5C36,22.5,36.3,22.6,36.5,22.6z"/>
	<path d="M48.7,19.4c0.2,0.3,0.6,0.5,0.9,0.5c0.2,0,0.4,0,0.5-0.1c0.1,0,6.2-3.5,13.4-2.9c0.6,0.1,1.1-0.4,1.1-1
		c0-0.6-0.4-1.1-1-1.1c-7.9-0.7-14.4,3-14.7,3.2C48.6,18.2,48.5,18.9,48.7,19.4z"/>
</g>
</svg>
