<?xml version="1.0" encoding="iso-8859-1"?>
<!-- Generator: Adobe Illustrator 17.1.0, SVG Export Plug-In . SVG Version: 6.00 Build 0)  -->
<!DOCTYPE svg PUBLIC "-//W3C//DTD SVG 1.1//EN" "http://www.w3.org/Graphics/SVG/1.1/DTD/svg11.dtd">
<svg version="1.1" id="Layer_1" xmlns="http://www.w3.org/2000/svg" xmlns:xlink="http://www.w3.org/1999/xlink" x="0px" y="0px"
	 viewBox="0 0 64 64" style="enable-background:new 0 0 64 64;" xml:space="preserve">
<g>
	<path d="M2,58h11V39h38v19h10V20H2V58z M13,38v-2h38v2H13z M13,34h38v1H13V34z"/>
	<path d="M24,58v1.083C24,59.59,24.41,60,24.917,60h0.167C25.59,60,26,59.59,26,59.083V58v-1h-2V58z"/>
	<path d="M37,58v1.083C37,59.59,37.41,60,37.917,60h0.167C38.59,60,39,59.59,39,59.083V58v-1h-2V58z"/>
	<path d="M40,48H22.5c-0.827,0-1.5,0.673-1.5,1.5v5c0,0.827,0.673,1.5,1.5,1.5H24h2h11h2h1.5c0.827,0,1.5-0.673,1.5-1.5V50
		C42,48.895,41.105,48,40,48z M22.917,52.583c0-0.828,0.672-1.5,1.5-1.5s1.5,0.672,1.5,1.5s-0.672,1.5-1.5,1.5
		S22.917,53.412,22.917,52.583z M36,54h-9v-1h9V54z M36,52h-9v-1h9V52z M38.417,54.083c-0.828,0-1.5-0.672-1.5-1.5
		s0.672-1.5,1.5-1.5s1.5,0.672,1.5,1.5S39.245,54.083,38.417,54.083z"/>
	<polygon points="36.127,42 37.81,47 39,47 37,41 26,41 24,47 25.19,47 26.873,42 	"/>
	<polygon points="23,47 23,45 20,45 20,47 22.5,47 	"/>
	<polygon points="40,47 40.5,47 43,47 43,45 40,45 	"/>
</g>
</svg>
