<?xml version="1.0" encoding="utf-8"?>
<!-- Generator: Adobe Illustrator 17.1.0, SVG Export Plug-In . SVG Version: 6.00 Build 0)  -->
<!DOCTYPE svg PUBLIC "-//W3C//DTD SVG 1.1//EN" "http://www.w3.org/Graphics/SVG/1.1/DTD/svg11.dtd">
<svg version="1.1" id="Layer_1" xmlns="http://www.w3.org/2000/svg" xmlns:xlink="http://www.w3.org/1999/xlink" x="0px" y="0px"
	 viewBox="0 0 128 128" enable-background="new 0 0 128 128" xml:space="preserve">
<path d="M21,82.7h86.1V54.7H21V82.7z M28.5,69.6H36v7.5h-7.5V69.6z M45.4,77.1h-7.5v-7.5h7.5V77.1z M56.6,69.6h7.5v7.5h-7.5V69.6z
	 M73.4,77.1h-7.5v-7.5h7.5V77.1z M82.8,69.6h7.5v7.5h-7.5V69.6z M99.6,77.1h-7.5v-7.5h7.5V77.1z M99.6,67.8h-7.5v-7.5h7.5V67.8z
	 M82.8,60.3h7.5v7.5h-7.5V60.3z M73.4,67.8h-7.5v-7.5h7.5V67.8z M56.6,60.3h7.5v7.5h-7.5V60.3z M45.4,67.8h-7.5v-7.5h7.5V67.8z
	 M28.5,60.3H36v7.5h-7.5V60.3z"/>
<path d="M21,52.8h86.1V24.7H21V52.8z M28.5,39.7H36v7.5h-7.5V39.7z M45.4,47.2h-7.5v-7.5h7.5V47.2z M56.6,39.7h7.5v7.5h-7.5V39.7z
	 M73.4,47.2h-7.5v-7.5h7.5V47.2z M82.8,39.7h7.5v7.5h-7.5V39.7z M99.6,47.2h-7.5v-7.5h7.5V47.2z M99.6,37.8h-7.5v-7.5h7.5V37.8z
	 M82.8,30.3h7.5v7.5h-7.5V30.3z M73.4,37.8h-7.5v-7.5h7.5V37.8z M56.6,30.3h7.5v7.5h-7.5V30.3z M45.4,37.8h-7.5v-7.5h7.5V37.8z
	 M28.5,30.3H36v7.5h-7.5V30.3z"/>
<path d="M21,84.8V111v1.9v9.4h58h24.3h3.7v-9.4V111V84.8H21z M36,107.3h-7.5v-7.5H36V107.3z M36,97.9h-7.5v-7.5H36V97.9z
	 M45.4,107.3h-7.5v-7.5h7.5V107.3z M45.4,97.9h-7.5v-7.5h7.5V97.9z M64.1,107.3h-7.5v-7.5h7.5V107.3z M64.1,97.9h-7.5v-7.5h7.5V97.9
	z M73.4,107.3h-7.5v-7.5h7.5V107.3z M73.4,97.9h-7.5v-7.5h7.5V97.9z M82.8,90.4h16.8v20.7H82.8V90.4z M103.4,119H79v-2.8h3.7v-2.8
	h16.8v2.8h3.7V119z"/>
<rect x="15.4" y="6" width="99.2" height="16.8"/>
</svg>
