<?xml version="1.0" encoding="iso-8859-1"?>
<!-- Generator: Adobe Illustrator 17.1.0, SVG Export Plug-In . SVG Version: 6.00 Build 0)  -->
<!DOCTYPE svg PUBLIC "-//W3C//DTD SVG 1.1//EN" "http://www.w3.org/Graphics/SVG/1.1/DTD/svg11.dtd">
<svg version="1.1" id="Layer_1" xmlns="http://www.w3.org/2000/svg" xmlns:xlink="http://www.w3.org/1999/xlink" x="0px" y="0px"
	 viewBox="0 0 64 64" style="enable-background:new 0 0 64 64;" xml:space="preserve">
<path d="M20,41h6v17h16V31H4v27h16V41z M28,55v-4.84c0.535,0.967,1.137,2.544,1.137,4.84H28z M33,55h-2.863
	c0-3.052-0.987-4.986-1.664-5.931c2.487-0.806,3.868-4.687,4.527-7.27V55z M35,55V42.311c0.641,2.568,1.891,6.023,4.092,6.786
	c-0.625,0.939-1.546,2.842-1.546,5.903H35z M40,55h-1.455c0-2.955,0.932-4.763,1.455-5.548V55z M40,40v8
	c-2.481,0-3.94-5.202-4.443-8H40z M28,40h4.37c-0.514,2.631-1.947,7.371-4.37,7.937V40z M18,40v8c-2.481,0-3.94-5.202-4.443-8H18z
	 M6,40h4.37C9.857,42.631,8.424,47.371,6,47.937V40z M6,55v-4.84c0.535,0.967,1.137,2.544,1.137,4.84H6z M11,55H8.137
	c0-3.052-0.987-4.986-1.664-5.931c2.487-0.806,3.868-4.687,4.527-7.27V55z M13,55V42.311c0.641,2.568,1.891,6.023,4.092,6.786
	c-0.625,0.939-1.546,2.842-1.546,5.903H13z M18,55h-1.455c0-2.955,0.932-4.763,1.455-5.548V55z"/>
<polygon points="39.301,25 7.032,25 1.5,30 44.833,30 "/>
<polygon points="45.555,46 53,46 53,58 56,58 56,46 63.529,46 54.542,3.947 "/>
</svg>
