<?xml version="1.0" encoding="utf-8"?>
<!-- Generator: Adobe Illustrator 17.1.0, SVG Export Plug-In . SVG Version: 6.00 Build 0)  -->
<!DOCTYPE svg PUBLIC "-//W3C//DTD SVG 1.1//EN" "http://www.w3.org/Graphics/SVG/1.1/DTD/svg11.dtd">
<svg version="1.1" id="Layer_1" xmlns="http://www.w3.org/2000/svg" xmlns:xlink="http://www.w3.org/1999/xlink" x="0px" y="0px"
	 viewBox="0 0 128 128" enable-background="new 0 0 128 128" xml:space="preserve">
<path d="M48,116h12h2h52h2h12V70H48V116z M62,114v-2h52v2H62z M62,108h52v2H62V108z M62,104h52v2H62V104z M62,100h52v2H62V100z
	 M62,96h52v2H62V96z M62,92h52v2H62V92z M62,88h52v2H62V88z"/>
<path d="M46,20H4v96h42V20z M8,40h34v8H8V40z M12,50h2v6h-2V50z M22,56h-2v-6h2V56z M18,56h-2v-6h2V56z M12,76L12,76
	c0.2-4.2,3.6-7.5,7.9-7.5s8.2,3.7,8.2,6.9L28,94H12V76z M24,56v-6h2v6H24z M28,50h2v6h-2V50z M32,50h2v6h-2V50z M36,50h2v6h-2V50z
	 M40,50h2v6h-2V50z M8,50h2v6H8V50z M7,99c0-0.6,0.4-1,1-1h24c0.6,0,1,0.4,1,1s-0.4,1-1,1H8C7.4,100,7,99.6,7,99z M13,103
	c0-0.6,0.4-1,1-1h24c0.6,0,1,0.4,1,1s-0.4,1-1,1H14C13.4,104,13,103.6,13,103z M40,112H16c-0.6,0-1-0.4-1-1s0.4-1,1-1h24
	c0.6,0,1,0.4,1,1S40.6,112,40,112z M44,108H20c-0.6,0-1-0.4-1-1s0.4-1,1-1h24c0.6,0,1,0.4,1,1S44.6,108,44,108z"/>
</svg>
