<?xml version="1.0" encoding="iso-8859-1"?>
<!-- Generator: Adobe Illustrator 17.1.0, SVG Export Plug-In . SVG Version: 6.00 Build 0)  -->
<!DOCTYPE svg PUBLIC "-//W3C//DTD SVG 1.1//EN" "http://www.w3.org/Graphics/SVG/1.1/DTD/svg11.dtd">
<svg version="1.1" id="Layer_1" xmlns="http://www.w3.org/2000/svg" xmlns:xlink="http://www.w3.org/1999/xlink" x="0px" y="0px"
	 viewBox="0 0 64 64" style="enable-background:new 0 0 64 64;" xml:space="preserve">
<polygon points="19,16 17.5,16 15.5,16 2.5,36 6.5,36 18.25,17.2 30,36 62,36 49,16 "/>
<path d="M9,36v18h5v-7v-1h8v8h5.25l0.062-18l-9.187-15L9,36z M18,30.05V34h-3.95C14.284,31.92,15.92,30.284,18,30.05z M14.05,35H18
	v3.95C15.92,38.716,14.284,37.08,14.05,35z M19,38.95V35h3.95C22.716,37.08,21.08,38.716,19,38.95z M22.95,34H19v-3.95
	C21.08,30.284,22.716,31.92,22.95,34z"/>
<rect x="30" y="38" width="26" height="16"/>
<rect x="15" y="47" width="6" height="7"/>
</svg>
