<?xml version="1.0" encoding="iso-8859-1"?>
<!-- Generator: Adobe Illustrator 17.1.0, SVG Export Plug-In . SVG Version: 6.00 Build 0)  -->
<!DOCTYPE svg PUBLIC "-//W3C//DTD SVG 1.1//EN" "http://www.w3.org/Graphics/SVG/1.1/DTD/svg11.dtd">
<svg version="1.1" id="Layer_1" xmlns="http://www.w3.org/2000/svg" xmlns:xlink="http://www.w3.org/1999/xlink" x="0px" y="0px"
	 viewBox="0 0 64 64" style="enable-background:new 0 0 64 64;" xml:space="preserve">
<polygon points="50,28.772 50,29.778 55,30.323 55,31.45 50,30.997 50,32.001 55,32.454 55,33.89 50,33.485 50,34.488 55,34.894 
	55,36.377 56,36.458 56,29.427 "/>
<polygon points="36,20.857 29,19.252 29,22.702 36,23.907 "/>
<polygon points="47,30.164 47,23.031 40.21,21.615 40.229,29.279 "/>
<polygon points="36,24.921 29,23.717 29,32.165 36,32.738 "/>
<polygon points="40.239,33.317 47,33.951 47,31.172 40.232,30.287 "/>
<path d="M49,34.407v-1.004v-1.493v-1.004v-1.238v-1.006V20.05l-23-6.149v20.137l23,1.855V34.407z M37,33.823l-9-0.737V17.998
	l9,2.062V33.823z M48,35.049l-8.759-0.821l-0.035-13.843L48,22.219V35.049z"/>
<polygon points="5,38.377 25,33.728 25,14.097 5,25.139 "/>
<polygon points="43,50.94 45,50.726 45,40.004 43,39.939 "/>
<polygon points="46,40.036 46,50.619 48.997,50.299 48.96,40.133 "/>
<polygon points="53,49.859 54,49.747 54,40.296 53,40.264 "/>
<polygon points="39.372,51.328 42,51.047 42,39.906 39.313,39.819 "/>
<polygon points="35.008,39.679 35.308,51.762 38.372,51.434 38.313,39.787 "/>
<polygon points="30,39.517 30,52.329 34.31,51.868 34.006,39.647 "/>
<polygon points="49.997,50.192 50.77,50.11 52,49.972 52,40.231 49.96,40.165 "/>
<polygon points="26.863,35.112 26,35.042 26,35.06 26,35.563 26,52.756 29,52.436 29,38.483 55,39.329 55,49.658 56,49.551 
	56,37.461 49.676,36.951 "/>
<polygon points="5,39.403 5,39.781 5,50.062 25,52.741 25,35.615 25,35 25,34.754 14.814,37.122 "/>
</svg>
