<?xml version="1.0" encoding="utf-8"?>
<!-- Generator: Adobe Illustrator 17.1.0, SVG Export Plug-In . SVG Version: 6.00 Build 0)  -->
<!DOCTYPE svg PUBLIC "-//W3C//DTD SVG 1.1//EN" "http://www.w3.org/Graphics/SVG/1.1/DTD/svg11.dtd">
<svg version="1.1" id="Layer_1" xmlns="http://www.w3.org/2000/svg" xmlns:xlink="http://www.w3.org/1999/xlink" x="0px" y="0px"
	 viewBox="0 0 128 128" enable-background="new 0 0 128 128" xml:space="preserve">
<path d="M88.9,72V24.2H1.7v58.2H10v35.3h8.3V86.6h12.5v31.2h39.1h1.9h44.1h5.8h4.7V72H88.9z M16.2,70h-2.1V59.6h2.1V70z M20.5,70
	h-2.1V59.6h2.1V70z M24.8,70h-2.1V59.6h2.1V70z M29.1,70h-2.1V59.6h2.1V70z M33.4,70h-2.1V59.6h2.1V70z M66.1,105.3H37V86.6h29.1
	V105.3z M35.7,70V59.6h2.1V70H35.7z M40,70V59.6h2.1V70H40z M44.3,70V59.6h2.1V70H44.3z M48.6,70V59.6h2.1V70H48.6z M52.9,70V59.6
	H55V70H52.9z M57.2,70V59.6h2.1V70H57.2z M61.5,70V59.6h2.1V70H61.5z M67.9,70h-2.1V59.6h2.1V70z M14.1,57.5V34.6h62.3v22.9H14.1z
	 M76.5,59.6V70h-2.1V59.6H76.5z M72.2,70h-2.1V59.6h2.1V70z M115.9,115.7H72.3v-2.1h43.6V115.7z M115.9,111.2H72.3v-2.1h43.6V111.2z
	 M115.9,106.7H72.3v-2.1h43.6V106.7z M115.9,102.2H72.3v-2.1h43.6V102.2z M115.9,97.7H72.3v-2.1h43.6V97.7z M115.9,93.2H72.3v-2.1
	h43.6V93.2z M115.9,88.7H72.3v-2.1h43.6V88.7z"/>
</svg>
