<?xml version="1.0" encoding="iso-8859-1"?>
<!-- Generator: Adobe Illustrator 17.1.0, SVG Export Plug-In . SVG Version: 6.00 Build 0)  -->
<!DOCTYPE svg PUBLIC "-//W3C//DTD SVG 1.1//EN" "http://www.w3.org/Graphics/SVG/1.1/DTD/svg11.dtd">
<svg version="1.1" id="Layer_1" xmlns="http://www.w3.org/2000/svg" xmlns:xlink="http://www.w3.org/1999/xlink" x="0px" y="0px"
	 viewBox="0 0 64 64" style="enable-background:new 0 0 64 64;" xml:space="preserve">
<path d="M63.5,52c0.276,0,0.5-0.224,0.5-0.5c0-0.276-0.224-0.5-0.5-0.5H62v-1l-1-1.562L60,50v1h-2v-1l-1-1.562L56,50v1h-2v-1
	l-1-1.562L52,50v1h-2v-1l-1-1.562L48,50v1h-2v-1l-1-1.562L44,50v1h-2v-1l-1-1.562L40,50v1h-2v-1l-1-1.562L36,50v1h-2V29.222
	L18.5,19.5L3,29.222V57h12v-8h7v8h12v-2h2v2h2v-2h2v2h2v-2h2v2h2v-2h2v2h2v-2h2v2h2v-2h2v2h2v-2h2v2h2v-2h1.5
	c0.276,0,0.5-0.224,0.5-0.5c0-0.276-0.224-0.5-0.5-0.5H62v-2H63.5z M13,54H5v-1h8V54z M13,51H5v-4h8V51z M15.722,40h-0.347H9H8.691
	l-2-4H8v-4h3v4h2v-4h3v4h1.222L15.722,40z M21.691,40l-2-4H21v-4h3v4h2v-4h3v4h1.222l-1.5,4h-0.347H22H21.691z M32,54h-8v-1h8V54z
	 M32,51h-8v-4h8V51z M34,54v-2h2v2H34z M38,54v-2h2v2H38z M42,54v-2h2v2H42z M46,54v-2h2v2H46z M50,54v-2h2v2H50z M54,54v-2h2v2H54z
	 M60,54h-2v-2h2V54z"/>
<polygon points="9.309,39 15.028,39 15.778,37 8.309,37 "/>
<polygon points="21.309,37 22.309,39 28.028,39 28.778,37 "/>
</svg>
