<?xml version="1.0" encoding="iso-8859-1"?>
<!-- Generator: Adobe Illustrator 17.1.0, SVG Export Plug-In . SVG Version: 6.00 Build 0)  -->
<!DOCTYPE svg PUBLIC "-//W3C//DTD SVG 1.1//EN" "http://www.w3.org/Graphics/SVG/1.1/DTD/svg11.dtd">
<svg version="1.1" id="Layer_1" xmlns="http://www.w3.org/2000/svg" xmlns:xlink="http://www.w3.org/1999/xlink" x="0px" y="0px"
	 viewBox="0 0 64 64" style="enable-background:new 0 0 64 64;" xml:space="preserve">
<path d="M58,56H38v3h20c0.829,0,1.5-0.671,1.5-1.5S58.829,56,58,56z"/>
<path d="M25,59v-3H7c-0.829,0-1.5,0.671-1.5,1.5S6.171,59,7,59H25z"/>
<path d="M58,51H38v3h20c0.829,0,1.5-0.671,1.5-1.5S58.829,51,58,51z"/>
<path d="M7,54h18v-3H7c-0.829,0-1.5,0.671-1.5,1.5S6.171,54,7,54z"/>
<path d="M7,49h18v-3H7c-0.829,0-1.5,0.671-1.5,1.5S6.171,49,7,49z"/>
<path d="M58,46H38v3h20c0.829,0,1.5-0.671,1.5-1.5S58.829,46,58,46z"/>
<path d="M7,44h3v-3H7c-0.829,0-1.5,0.671-1.5,1.5S6.171,44,7,44z"/>
<rect x="38" y="41" width="4" height="3"/>
<polygon points="22,44 25,44 25,42 25,41 22,41 "/>
<path d="M58,41h-4v3h4c0.829,0,1.5-0.671,1.5-1.5S58.829,41,58,41z"/>
<path d="M58,36h-4v3h4c0.829,0,1.5-0.671,1.5-1.5S58.829,36,58,36z"/>
<path d="M7,39h3v-3H7c-0.829,0-1.5,0.671-1.5,1.5S6.171,39,7,39z"/>
<rect x="22" y="36" width="20" height="3"/>
<path d="M58,31h-4v3h4c0.829,0,1.5-0.671,1.5-1.5S58.829,31,58,31z"/>
<rect x="22" y="31" width="20" height="3"/>
<path d="M7,34h3v-3H7c-0.829,0-1.5,0.671-1.5,1.5S6.171,34,7,34z"/>
<path d="M58,26H7c-0.829,0-1.5,0.671-1.5,1.5S6.171,29,7,29h51c0.829,0,1.5-0.671,1.5-1.5S58.829,26,58,26z"/>
<path d="M58,21H7c-0.829,0-1.5,0.671-1.5,1.5S6.171,24,7,24h51c0.829,0,1.5-0.671,1.5-1.5S58.829,21,58,21z"/>
<path d="M58,16H7c-0.829,0-1.5,0.671-1.5,1.5S6.171,19,7,19h51c0.829,0,1.5-0.671,1.5-1.5S58.829,16,58,16z"/>
<path d="M26,46v3v2v3v2v3h11v-3v-2v-3v-2v-3v-2v-2H26v2V46z M34.5,51.5c-0.385,0-0.708-0.205-0.91-0.5
	c-0.125-0.181-0.215-0.388-0.215-0.625c0-0.621,0.504-1.125,1.125-1.125s1.125,0.504,1.125,1.125c0,0.237-0.09,0.444-0.215,0.625
	C35.208,51.295,34.885,51.5,34.5,51.5z"/>
<polygon points="21,39 21,36 21,34 21,31 11,31 11,34 11,36 11,39 11,41 11,44 21,44 21,41 "/>
<polygon points="53,39 53,36 53,34 53,31 43,31 43,34 43,36 43,39 43,41 43,44 53,44 53,41 "/>
<path d="M61.125,10H52V5h-6v5H2.875C1.839,10,1,10.839,1,11.875v0.25C1,13.161,1.839,14,2.875,14h58.25
	C62.161,14,63,13.161,63,12.125v-0.25C63,10.839,62.161,10,61.125,10z"/>
</svg>
