<?xml version="1.0" encoding="utf-8"?>
<!-- Generator: Adobe Illustrator 17.1.0, SVG Export Plug-In . SVG Version: 6.00 Build 0)  -->
<!DOCTYPE svg PUBLIC "-//W3C//DTD SVG 1.1//EN" "http://www.w3.org/Graphics/SVG/1.1/DTD/svg11.dtd">
<svg version="1.1" id="Layer_1" xmlns="http://www.w3.org/2000/svg" xmlns:xlink="http://www.w3.org/1999/xlink" x="0px" y="0px"
	 viewBox="0 0 128 128" enable-background="new 0 0 128 128" xml:space="preserve">
<path d="M94.7,46.9L64,24.8l-30.7,22V107h12.3V84.5H64V107h30.7V46.9z M68.1,49.8h8.2v8.2h-8.2V49.8z M68.1,60h8.2v10.2h-8.2V60z
	 M86.5,70.2h-8.2V60h8.2V70.2z M86.5,57.9h-8.2v-8.2h8.2V57.9z"/>
<path d="M88.5,34.3V15H76.3v10.4L64,16.6L12,54.1c-0.9,0.7-1.1,1.9-0.5,2.9c0.4,0.6,1,0.8,1.7,0.8c0.4,0,0.8-0.1,1.2-0.4L64,21.6
	l49.6,35.8c0.9,0.6,2.2,0.4,2.8-0.5c0.6-0.9,0.4-2.2-0.5-2.8L88.5,34.3z"/>
</svg>
