<?xml version="1.0" encoding="utf-8"?>
<!-- Generator: Adobe Illustrator 17.1.0, SVG Export Plug-In . SVG Version: 6.00 Build 0)  -->
<!DOCTYPE svg PUBLIC "-//W3C//DTD SVG 1.1//EN" "http://www.w3.org/Graphics/SVG/1.1/DTD/svg11.dtd">
<svg version="1.1" id="Layer_1" xmlns="http://www.w3.org/2000/svg" xmlns:xlink="http://www.w3.org/1999/xlink" x="0px" y="0px"
	 viewBox="0 0 128 128" enable-background="new 0 0 128 128" xml:space="preserve">
<path d="M92,33.8V12H78v12L63.8,14L7.9,54.4C7,55,6.8,56.3,7.5,57.2s1.9,1.1,2.8,0.5L63.8,19L119,57.6c0.3,0.2,0.8,0.4,1.1,0.4
	c0.6,0,1.2-0.3,1.6-0.9c0.6-0.9,0.4-2.2-0.5-2.8L92,33.8z"/>
<rect x="54" y="94" width="18" height="24"/>
<path d="M100,59V47.3L64,22.4L28,47.3V51c-1.2,0.9-2,2.3-2,4v1v1c0,1.6,0.8,3.1,2,4c0,1.2,0,22.1,0,22.1c-1.2,0.9-2,2.3-2,4v1v1
	c0,1.6,0.8,3.1,2,4c0.4,1,0,2.1,0,2.1c-1.2,0.9-2,2.3-2,4v1v1c0,1.6,0.8,3.1,2,4c0,1,0,2.1,0,2.1c-1.2,0.9-2,2.3-2,4v1v1
	c0,1.6,0.8,3.1,2,4c0.8,0.6,1.9,1,3,1h3h1h17V92h22v26c0,0,25.8,0,26,0c0.9,0,1.7-3,1.8-3.6c0.6-2.5,0.4-5.7-1.8-7.4
	c1.2-0.9,2-2.3,2-4v-2c0-1.6-0.8-3.1-2-4V81c1.2-0.9,2-2.3,2-4v-2c0-1.6-0.8-3.1-2-4v-2c1.2-0.9,2-2.3,2-4v-2
	C102,61.4,101.2,59.9,100,59z M34,67v-2c0-1.7,1.3-3,3-3h3h1h5c2.2,0,4,1.8,4,4v1c0,1.7-1.3,3-3,3H37C35.3,70,34,68.7,34,67z M28,57
	v-2c0-1.7,1.3-3,3-3h9c2.2,0,4,1.8,4,4v1c0,1.7-1.3,3-3,3h-4h-6C29.3,60,28,58.7,28,57z M28,89v-2c0-1.7,1.3-3,3-3h3
	c2.2,0,4,1.8,4,4v1c0,1.7-1.3,3-3,3h-4C29.3,92,28,90.7,28,89z M28,101v-2c0-1.7,1.3-3,3-3h9c2.2,0,4,1.8,4,4v1c0,1.7-1.3,3-3,3H31
	C29.3,104,28,102.7,28,101z M31,116c-1.7,0-3-1.3-3-3v-2c0-1.7,1.3-3,3-3h3c2.2,0,4,1.8,4,4v1c0,1.7-1.3,3-3,3H31z M64,63
	c-5,0-9-4-9-9s4-9,9-9s9,4,9,9S69,63,64,63z M100,113c0,1.7-1.3,3-3,3h-4c-1.7,0-3-1.3-3-3v-2c0-1.7,1.3-3,3-3h3c2.2,0,4,1.8,4,4
	V113z M100,103c0,1.7-1.3,3-3,3h-4h-6c-1.7,0-3-1.3-3-3v-2c0-1.7,1.3-3,3-3h9c2.2,0,4,1.8,4,4V103z M100,77c0,1.7-1.3,3-3,3H87
	c-1.7,0-3-1.3-3-3v-2c0-1.7,1.3-3,3-3h9c2.2,0,4,1.8,4,4V77z M100,65c0,1.7-1.3,3-3,3h-4c-1.7,0-3-1.3-3-3v-2c0-1.7,1.3-3,3-3h3
	c2.2,0,4,1.8,4,4V65z"/>
</svg>
