<?xml version="1.0" encoding="iso-8859-1"?>
<!-- Generator: Adobe Illustrator 17.1.0, SVG Export Plug-In . SVG Version: 6.00 Build 0)  -->
<!DOCTYPE svg PUBLIC "-//W3C//DTD SVG 1.1//EN" "http://www.w3.org/Graphics/SVG/1.1/DTD/svg11.dtd">
<svg version="1.1" id="Layer_1" xmlns="http://www.w3.org/2000/svg" xmlns:xlink="http://www.w3.org/1999/xlink" x="0px" y="0px"
	 viewBox="0 0 64 64" style="enable-background:new 0 0 64 64;" xml:space="preserve">
<path d="M5,43h2h20v-3v-1v-9v-1v-3v-1v-7H5V43z M7,21h18v7H7V21z M7,29h18v7H7V29z"/>
<polygon points="8,54 20,54 20,48 20,47 25,47 25,54 27,54 27,44 8,44 "/>
<polygon points="50,29 50,26 28,26 28,29 48,29 "/>
<path d="M47,38v-4h-4v-3h4v-1H28v9h19V38z M43,35h3v1h-3V35z M43,38v-1h3v1H43z"/>
<polygon points="47,40 28,40 28,43 28,44 28,54 31,54 31,50 31,49 31,47 31,46 31,44 31,43 56,43 56,46 56,47 56,49 56,50 56,54 
	59,54 59,40 48,40 "/>
<rect x="32" y="50" width="23" height="4"/>
<rect x="32" y="44" width="23" height="2"/>
<rect x="32" y="47" width="23" height="2"/>
<rect x="21" y="48" width="3" height="6"/>
</svg>
