<?xml version="1.0" encoding="iso-8859-1"?>
<!-- Generator: Adobe Illustrator 17.1.0, SVG Export Plug-In . SVG Version: 6.00 Build 0)  -->
<!DOCTYPE svg PUBLIC "-//W3C//DTD SVG 1.1//EN" "http://www.w3.org/Graphics/SVG/1.1/DTD/svg11.dtd">
<svg version="1.1" id="Layer_1" xmlns="http://www.w3.org/2000/svg" xmlns:xlink="http://www.w3.org/1999/xlink" x="0px" y="0px"
	 viewBox="0 0 64 64" style="enable-background:new 0 0 64 64;" xml:space="preserve">
<path d="M37,52v9h18V35H9v10v1v5v1v9h19V50h9v1V52z M13,40h5v5h-5V40z M13,46h5v5h-5V46z M13,52h5v4h-5V52z M24,56h-5v-4h5V56z
	 M24,51h-5v-5h5V51z M24,45h-5v-5h5V45z M41,52h5v4h-5V52z M52,56h-5v-4h5V56z M52,51h-5v-5h5V51z M52,45h-5v-5h5V45z M41,40h5v5h-5
	V40z M41,46h5v5h-5V46z"/>
<path d="M58,12H5v21h53V12z M23.806,22.826c-0.315,0.455-0.938,0.567-1.392,0.252L20,21.403V29h-7v-7.709l-2.48,1.789
	c-0.177,0.127-0.382,0.189-0.584,0.189c-0.311,0-0.616-0.144-0.812-0.415c-0.323-0.448-0.223-1.073,0.226-1.396l6.979-5.036
	l7.226,5.012C24.008,21.75,24.121,22.373,23.806,22.826z M53.806,22.826c-0.314,0.455-0.938,0.567-1.392,0.252L50,21.403V29h-7
	v-7.709l-2.48,1.789c-0.177,0.127-0.382,0.189-0.584,0.189c-0.311,0-0.616-0.144-0.812-0.415c-0.323-0.448-0.223-1.073,0.226-1.396
	l6.979-5.036l7.226,5.012C54.008,21.75,54.121,22.373,53.806,22.826z"/>
<polygon points="14.79,20 14,20 14,20.57 14,28 19,28 19,20.709 19,20 17.978,20 "/>
<polygon points="44.79,20 44,20 44,20.57 44,28 49,28 49,20.709 49,20 47.978,20 "/>
</svg>
