<?xml version="1.0" encoding="iso-8859-1"?>
<!-- Generator: Adobe Illustrator 17.1.0, SVG Export Plug-In . SVG Version: 6.00 Build 0)  -->
<!DOCTYPE svg PUBLIC "-//W3C//DTD SVG 1.1//EN" "http://www.w3.org/Graphics/SVG/1.1/DTD/svg11.dtd">
<svg version="1.1" id="Layer_1" xmlns="http://www.w3.org/2000/svg" xmlns:xlink="http://www.w3.org/1999/xlink" x="0px" y="0px"
	 viewBox="0 0 64 64" style="enable-background:new 0 0 64 64;" xml:space="preserve">
<path d="M39,54h15V35H10v19h15V39v-1h14V54z M23,51h-1H12V39v-1h11V51z M41,39v-1h11v13h-1H41V39z"/>
<polygon points="39,55 39,61 54,61 55,61 55,55 54,55 "/>
<polygon points="9,55 9,61 10,61 25,61 25,55 10,55 "/>
<rect x="13" y="39" width="9" height="11"/>
<rect x="42" y="39" width="9" height="11"/>
<polygon points="42,19 42,31 41,31 23,31 23,19 9.891,19 6.141,34 9,34 10,34 54,34 55,34 57.83,34 53.377,19 "/>
<path d="M24,18v1v11h17V19v-1v-4H24V18z M27,17v-1h11v2v1v9h-1H27v-9v-1V17z"/>
<polygon points="42,13 43.89,13 42.09,4 22.91,4 21.11,13 23,13 24,13 41,13 "/>
<polygon points="37,19 37,18 37,17 28,17 28,18 28,19 28,27 37,27 "/>
<polygon points="26,54 26,55 26,61 38,61 38,55 38,54 38,39 26,39 "/>
</svg>
