<?xml version="1.0" encoding="utf-8"?>
<!-- Generator: Adobe Illustrator 17.1.0, SVG Export Plug-In . SVG Version: 6.00 Build 0)  -->
<!DOCTYPE svg PUBLIC "-//W3C//DTD SVG 1.1//EN" "http://www.w3.org/Graphics/SVG/1.1/DTD/svg11.dtd">
<svg version="1.1" id="Layer_1" xmlns="http://www.w3.org/2000/svg" xmlns:xlink="http://www.w3.org/1999/xlink" x="0px" y="0px"
	 viewBox="0 0 128 128" enable-background="new 0 0 128 128" xml:space="preserve">
<g>
	<path d="M7.8,53.8c0,1.7,1.7,4.3,6.4,7c0-1-0.1-2-0.1-3.1l0.1-0.4c0.4-1.1,5.6-11.1,52-11.1c14.8,0,41,2.8,48.4,10.1l0.3,0.3l0,0.4
		c0,0.2,0,1.9-0.3,4.6c5-2.9,5.7-7.2,5.8-7.5l0,0C115,49.6,100,40.7,64,40.7C28.9,40.7,13.6,49.1,7.8,53.8z"/>
	<path d="M62.9,19.6C9.3,19.6,7.8,31.9,7.8,32.1V51c7-5.1,22.9-12.5,56.2-12.5c33.9,0,49.6,7.7,56.2,12.8V32.1
		C120.2,32.1,116.7,19.6,62.9,19.6z"/>
	<path d="M16.2,57.9c0,1.2,0,2.5,0,3.9c0,0.5,0,1.1,0.1,1.7c0,0.2,0,0.5,0,0.7c0.9,13.6,7.2,31.7,49.8,31.7
		c15.6,0,27.6-4.2,35.7-12.4c5.7-5.9,8.4-12.7,9.7-18c0.2-0.6,0.3-1.2,0.4-1.8c0.1-0.3,0.1-0.5,0.2-0.8c0.5-2.6,0.6-4.5,0.6-5.3
		c-6.4-5.8-28.5-9.2-46.5-9.2C24.1,48.4,17,56.7,16.2,57.9z"/>
</g>
</svg>
