<?xml version="1.0" encoding="iso-8859-1"?>
<!-- Generator: Adobe Illustrator 17.1.0, SVG Export Plug-In . SVG Version: 6.00 Build 0)  -->
<!DOCTYPE svg PUBLIC "-//W3C//DTD SVG 1.1//EN" "http://www.w3.org/Graphics/SVG/1.1/DTD/svg11.dtd">
<svg version="1.1" id="Layer_1" xmlns="http://www.w3.org/2000/svg" xmlns:xlink="http://www.w3.org/1999/xlink" x="0px" y="0px"
	 viewBox="0 0 64 64" style="enable-background:new 0 0 64 64;" xml:space="preserve">
<g>
	<polygon points="36.553,20 36.721,22 40.278,22 40.446,20 	"/>
	<polygon points="22.553,20 22.721,22 26.278,22 26.446,20 	"/>
	<polygon points="22.721,48 26.278,48 26.446,46 22.553,46 	"/>
	<polygon points="36.721,48 40.278,48 40.446,46 36.553,46 	"/>
	<path d="M14,59h7c0.845,0,1.5-0.941,1.5-1.75L21.72,48l-0.169-2l-0.049-0.583C21.5,44.578,20.869,44,20,44h-5
		c-0.869,0-1.5,0.578-1.5,1.375L13.447,46l-0.168,2l-0.781,9.292C12.5,58.059,13.155,59,14,59z"/>
	<path d="M15,43h5c1.105,0,2-0.895,2-2v-2c0-1.105-0.895-2-2-2h-5c-1.105,0-2,0.895-2,2v2C13,42.105,13.895,43,15,43z"/>
	<path d="M28,59h7c0.845,0,1.5-0.941,1.5-1.75L35.72,48l-0.169-2l-0.049-0.583C35.5,44.578,34.869,44,34,44h-5
		c-0.869,0-1.5,0.578-1.5,1.375L27.447,46l-0.168,2l-0.781,9.292C26.5,58.059,27.155,59,28,59z"/>
	<path d="M29,43h5c1.105,0,2-0.895,2-2v-2c0-1.105-0.895-2-2-2h-5c-1.105,0-2,0.895-2,2v2C27,42.105,27.895,43,29,43z"/>
	<path d="M42,59h7c0.845,0,1.5-0.941,1.5-1.75L49.72,48l-0.169-2l-0.049-0.583C49.5,44.578,48.869,44,48,44h-5
		c-0.869,0-1.5,0.578-1.5,1.375L41.447,46l-0.168,2l-0.781,9.292C40.5,58.059,41.155,59,42,59z"/>
	<path d="M43,43h5c1.105,0,2-0.895,2-2v-2c0-1.105-0.895-2-2-2h-5c-1.105,0-2,0.895-2,2v2C41,42.105,41.895,43,43,43z"/>
	<path d="M21.72,22l-0.169-2l-0.049-0.583C21.5,18.578,20.869,18,20,18h-5c-0.869,0-1.5,0.578-1.5,1.375L13.447,20l-0.168,2
		l-0.781,9.292C12.5,32.059,13.155,33,14,33h7c0.845,0,1.5-0.941,1.5-1.75L21.72,22z"/>
	<path d="M15,17h5c1.105,0,2-0.895,2-2v-2c0-1.105-0.895-2-2-2h-5c-1.105,0-2,0.895-2,2v2C13,16.105,13.895,17,15,17z"/>
	<path d="M35.72,22l-0.169-2l-0.049-0.583C35.5,18.578,34.869,18,34,18h-5c-0.869,0-1.5,0.578-1.5,1.375L27.447,20l-0.168,2
		l-0.781,9.292C26.5,32.059,27.155,33,28,33h7c0.845,0,1.5-0.941,1.5-1.75L35.72,22z"/>
	<path d="M29,17h5c1.105,0,2-0.895,2-2v-2c0-1.105-0.895-2-2-2h-5c-1.105,0-2,0.895-2,2v2C27,16.105,27.895,17,29,17z"/>
	<path d="M49.72,22l-0.169-2l-0.049-0.583C49.5,18.578,48.869,18,48,18h-5c-0.869,0-1.5,0.578-1.5,1.375L41.447,20l-0.168,2
		l-0.781,9.292C40.5,32.059,41.155,33,42,33h7c0.845,0,1.5-0.941,1.5-1.75L49.72,22z"/>
	<path d="M43,17h5c1.105,0,2-0.895,2-2v-2c0-1.105-0.895-2-2-2h-5c-1.105,0-2,0.895-2,2v2C41,16.105,41.895,17,43,17z"/>
	<polygon points="9,48 12.278,48 12.446,46 9,46 9,22 12.278,22 12.446,20 9,20 9,7 55,7 55,20 50.553,20 50.721,22 55,22 55,46 
		50.553,46 50.721,48 55,48 55,62 57,62 57,48 57,46 57,22 57,20 57,7 57,5 55,5 9,5 7,5 7,7 7,20 7,22 7,46 7,48 7,62 9,62 	"/>
</g>
</svg>
