<?xml version="1.0" encoding="iso-8859-1"?>
<!-- Generator: Adobe Illustrator 17.1.0, SVG Export Plug-In . SVG Version: 6.00 Build 0)  -->
<!DOCTYPE svg PUBLIC "-//W3C//DTD SVG 1.1//EN" "http://www.w3.org/Graphics/SVG/1.1/DTD/svg11.dtd">
<svg version="1.1" id="Layer_1" xmlns="http://www.w3.org/2000/svg" xmlns:xlink="http://www.w3.org/1999/xlink" x="0px" y="0px"
	 viewBox="0 0 64 64" style="enable-background:new 0 0 64 64;" xml:space="preserve">
<g>
	<path d="M1,57v4v2h3v-2h22v2h3v-2v-4V44H1V57z M9,48h13v1H9V48z"/>
	<path d="M1,43h28V7H1V43z M24,21.5c0-0.276,0.224-0.5,0.5-0.5s0.5,0.224,0.5,0.5v11c0,0.276-0.224,0.5-0.5,0.5S24,32.776,24,32.5
		V21.5z"/>
	<path d="M31,57v4v2h3v-2h22v2h3v-2v-4V45H31V57z M39,48h13v1H39V48z"/>
	<rect x="34" y="29" width="16" height="11"/>
	<path d="M31,43h28V26H31V43z M54.875,35.5c-0.69,0-1.25-0.56-1.25-1.25s0.56-1.25,1.25-1.25s1.25,0.56,1.25,1.25
		S55.565,35.5,54.875,35.5z M53,28h4v3h-4V28z M33,28h18v13H33V28z"/>
	<path d="M31,24h28V7H31V24z M54.875,9c0.69,0,1.25,0.56,1.25,1.25s-0.56,1.25-1.25,1.25s-1.25-0.56-1.25-1.25S54.185,9,54.875,9z
		 M54.875,13c0.69,0,1.25,0.56,1.25,1.25s-0.56,1.25-1.25,1.25s-1.25-0.56-1.25-1.25S54.185,13,54.875,13z M33,9h18v13H33V9z"/>
	<rect x="34" y="10" width="16" height="11"/>
</g>
</svg>
