<?xml version="1.0" encoding="iso-8859-1"?>
<!-- Generator: Adobe Illustrator 17.1.0, SVG Export Plug-In . SVG Version: 6.00 Build 0)  -->
<!DOCTYPE svg PUBLIC "-//W3C//DTD SVG 1.1//EN" "http://www.w3.org/Graphics/SVG/1.1/DTD/svg11.dtd">
<svg version="1.1" id="Layer_1" xmlns="http://www.w3.org/2000/svg" xmlns:xlink="http://www.w3.org/1999/xlink" x="0px" y="0px"
	 viewBox="0 0 64 64" style="enable-background:new 0 0 64 64;" xml:space="preserve">
<g>
	<path d="M57,12H8c-1.105,0-2,0.895-2,2v7c0,1.105,0.895,2,2,2h3v-7.583v-0.5C11,13.86,11.86,13,12.917,13h0.167
		C14.14,13,15,13.86,15,14.917V23h14v-7.583v-0.5C29,13.86,29.86,13,30.917,13h0.167C32.14,13,33,13.86,33,14.917V23h13v-7.583v-0.5
		C46,13.86,46.86,13,47.917,13h0.167C49.14,13,50,13.86,50,14.917V23h7c1.105,0,2-0.895,2-2v-7C59,12.895,58.105,12,57,12z"/>
	<path d="M32,15.417v-0.5C32,14.411,31.589,14,31.083,14h-0.167c-0.039,0-0.073,0.018-0.111,0.022C30.355,14.08,30,14.45,30,14.917
		V23v18h-1h-5.8c-0.018,0.231-0.033,0.462-0.033,0.698c0,4.493,3.395,8.135,7.583,8.135s7.583-3.642,7.583-8.135
		c0-0.236-0.015-0.467-0.033-0.698H33h-1V23V15.417z"/>
	<path d="M14,15.417v-0.5C14,14.411,13.589,14,13.083,14h-0.167c-0.039,0-0.073,0.018-0.111,0.022C12.355,14.08,12,14.45,12,14.917
		V23v12.47c-0.355,0.226-0.692,0.523-1,0.893c-1.206,1.45-2,3.918-2,6.72c0,4.464,2.015,8.083,4.5,8.083s4.5-3.619,4.5-8.083
		c0-3.518-1.253-6.503-3-7.614c-0.319-0.203-0.653-0.348-1-0.417V23V15.417z"/>
	<path d="M49,15.417v-0.5C49,14.411,48.589,14,48.083,14h-0.167c-0.039,0-0.073,0.018-0.111,0.022C47.355,14.08,47,14.45,47,14.917
		V23v7.041c-0.347,0.053-0.681,0.166-1,0.323c-1.747,0.859-3,3.167-3,5.887c0,3.452,2.015,6.25,4.5,6.25s4.5-2.798,4.5-6.25
		c0-2.167-0.794-4.075-2-5.196c-0.308-0.286-0.645-0.516-1-0.691V23V15.417z"/>
</g>
</svg>
