<?xml version="1.0" encoding="utf-8"?>
<!-- Generator: Adobe Illustrator 17.1.0, SVG Export Plug-In . SVG Version: 6.00 Build 0)  -->
<!DOCTYPE svg PUBLIC "-//W3C//DTD SVG 1.1//EN" "http://www.w3.org/Graphics/SVG/1.1/DTD/svg11.dtd">
<svg version="1.1" id="Layer_1" xmlns="http://www.w3.org/2000/svg" xmlns:xlink="http://www.w3.org/1999/xlink" x="0px" y="0px"
	 viewBox="0 0 128 128" enable-background="new 0 0 128 128" xml:space="preserve">
<path d="M76.2,63c-0.3,0-0.6-0.1-1-0.1h-1H60.1c-1,0-2,0.1-3,0.4c-3.2,0.9-4.5,3.1-4.5,6.5v47.3c0,4.4,2.4,8.9,6.7,8.9h15.9
	c4.4,0,6.9-4.5,6.9-8.9V69.9C82.2,65.8,80,63.4,76.2,63z"/>
<path d="M92,9.6c-6.1-5.1-14.6-8.3-24-8.3c-10.1,0-19.1,3.6-25.3,9.4v35.6c4.1,3.9,9.6,6.7,15.7,8.2v6.3h17.8v-0.3v-4.6v-1.2
	c6.1-1.2,11.5-3.8,15.8-7.4V9.6z M84.1,41.3c-5.9,3.1-10,5-16.3,5c-6.8,0-11.3-2.2-17.2-5.7V19.2c0-0.4,3.1-3,8.3-4.6l1.5,3.1h13.8
	l1.7-3.3c5.3,1.6,8.2,4.3,8.2,4.9V41.3z"/>
</svg>
