<?xml version="1.0" encoding="utf-8"?>
<!-- Generator: Adobe Illustrator 17.1.0, SVG Export Plug-In . SVG Version: 6.00 Build 0)  -->
<!DOCTYPE svg PUBLIC "-//W3C//DTD SVG 1.1//EN" "http://www.w3.org/Graphics/SVG/1.1/DTD/svg11.dtd">
<svg version="1.1" id="Layer_1" xmlns="http://www.w3.org/2000/svg" xmlns:xlink="http://www.w3.org/1999/xlink" x="0px" y="0px"
	 viewBox="0 0 128 128" enable-background="new 0 0 128 128" xml:space="preserve">
<g>
	<ellipse cx="65" cy="20.6" rx="17.3" ry="11.1"/>
	<path d="M65,34.2c-9.4,0-17,7.6-17,17c0,1.6,0.7,4.2,0.9,5.4c1.1,5.4,3,15.3,3,22.1c0,8.6-3,19.5-3.7,21.9h33.6
		c-0.9-2.4-4.6-12.9-4.6-21.8c0-6.3,1.9-15,3.3-20.5c0.5-2,1.5-5.8,1.5-7C82,41.9,74.4,34.2,65,34.2z"/>
	<polygon points="48.8,120 81.2,120 81.2,104.1 81.2,102.8 48.8,102.8 48.8,104.1 	"/>
</g>
</svg>
