<?xml version="1.0" encoding="iso-8859-1"?>
<!-- Generator: Adobe Illustrator 17.1.0, SVG Export Plug-In . SVG Version: 6.00 Build 0)  -->
<!DOCTYPE svg PUBLIC "-//W3C//DTD SVG 1.1//EN" "http://www.w3.org/Graphics/SVG/1.1/DTD/svg11.dtd">
<svg version="1.1" id="Layer_1" xmlns="http://www.w3.org/2000/svg" xmlns:xlink="http://www.w3.org/1999/xlink" x="0px" y="0px"
	 viewBox="0 0 64 64" style="enable-background:new 0 0 64 64;" xml:space="preserve">
<g>
	<path d="M33.562,26.875c0.736,0,1.458,0.056,2.172,0.141L37,5c0-1.105-0.895-2-2-2h-3c-1.105,0-2,0.895-2,2l0.939,22.085
		C31.798,26.961,32.669,26.875,33.562,26.875z M33.75,5.25c0.828,0,1.5,0.672,1.5,1.5s-0.672,1.5-1.5,1.5s-1.5-0.672-1.5-1.5
		S32.922,5.25,33.75,5.25z"/>
	<path d="M33.562,58.29c7.225,0,13.102-5.877,13.102-13.102s-5.877-13.102-13.102-13.102c-7.225,0-13.102,5.877-13.102,13.102
		S26.338,58.29,33.562,58.29z"/>
	<path d="M33.562,62.5c9.561,0,17.313-7.751,17.313-17.312c0-8.844-6.636-16.126-15.198-17.171
		c-0.694-0.085-1.397-0.142-2.114-0.142c-0.88,0-1.737,0.087-2.581,0.213c-8.334,1.249-14.731,8.417-14.731,17.099
		C16.25,54.749,24.001,62.5,33.562,62.5z M31.101,31.315c0.801-0.142,1.621-0.229,2.462-0.229c0.723,0,1.429,0.072,2.123,0.177
		c6.77,1.029,11.979,6.872,11.979,13.925c0,7.776-6.326,14.102-14.102,14.102c-7.776,0-14.102-6.326-14.102-14.102
		C19.46,38.253,24.496,32.484,31.101,31.315z"/>
</g>
</svg>
