<?xml version="1.0" encoding="iso-8859-1"?>
<!-- Generator: Adobe Illustrator 17.1.0, SVG Export Plug-In . SVG Version: 6.00 Build 0)  -->
<!DOCTYPE svg PUBLIC "-//W3C//DTD SVG 1.1//EN" "http://www.w3.org/Graphics/SVG/1.1/DTD/svg11.dtd">
<svg version="1.1" id="Layer_1" xmlns="http://www.w3.org/2000/svg" xmlns:xlink="http://www.w3.org/1999/xlink" x="0px" y="0px"
	 viewBox="0 0 64 64" style="enable-background:new 0 0 64 64;" xml:space="preserve">
<g>
	<path d="M34.364,32.888c-0.212,0-0.411,0.094-0.547,0.258c-0.122,0.147-0.177,0.326-0.159,0.516
		c0.019,0.192,0.106,0.357,0.254,0.479c0.113,0.093,0.268,0.144,0.437,0.144c0.227,0,0.435-0.089,0.559-0.239
		c0.12-0.145,0.176-0.329,0.158-0.517c-0.018-0.189-0.108-0.358-0.253-0.478C34.686,32.945,34.527,32.888,34.364,32.888z"/>
	<path d="M50.555,32.888c-0.212,0-0.411,0.094-0.547,0.258c-0.122,0.147-0.177,0.326-0.159,0.516
		c0.019,0.192,0.106,0.357,0.254,0.479c0.113,0.093,0.268,0.144,0.437,0.144c0.227,0,0.435-0.089,0.559-0.239
		c0.12-0.145,0.176-0.329,0.158-0.517c-0.018-0.189-0.108-0.358-0.253-0.478C50.877,32.945,50.718,32.888,50.555,32.888z"/>
	<path d="M60,29H2c-1.105,0-2,0.895-2,2v5c0,1.105,0.895,2,2,2h4.903l5.669-6.864l0.665-0.806l0.776,0.7
		c0.115,0.104,0.229,0.21,0.342,0.317c0.029-0.038,0.059-0.076,0.089-0.113c0.682-0.825,1.759-1.318,2.881-1.318
		c0.868,0,1.698,0.291,2.339,0.82c1.575,1.301,1.799,3.642,0.498,5.22c-0.552,0.668-1.308,1.113-2.141,1.277
		c0.053,0.258,0.087,0.513,0.109,0.767h5.831l5.669-6.864l0.665-0.806l0.776,0.7c0.115,0.104,0.229,0.21,0.342,0.317
		c0.029-0.038,0.059-0.076,0.089-0.113c0.682-0.825,1.759-1.318,2.881-1.318c0.868,0,1.698,0.291,2.339,0.82
		c1.575,1.301,1.799,3.642,0.498,5.22c-0.552,0.668-1.308,1.113-2.141,1.277c0.053,0.258,0.087,0.513,0.109,0.767h4.963l5.669-6.864
		l0.665-0.806l0.776,0.7c0.115,0.104,0.229,0.21,0.342,0.317c0.029-0.038,0.059-0.076,0.089-0.113
		c0.682-0.825,1.759-1.318,2.881-1.318c0.868,0,1.698,0.291,2.339,0.82c1.575,1.301,1.799,3.642,0.498,5.22
		c-0.552,0.668-1.308,1.113-2.141,1.277c0.053,0.258,0.087,0.513,0.109,0.767H60c1.105,0,2-0.895,2-2v-5C62,29.895,61.105,29,60,29z
		"/>
	<path d="M17.305,32.888c-0.212,0-0.411,0.094-0.547,0.258c-0.122,0.147-0.177,0.326-0.159,0.516
		c0.019,0.192,0.106,0.357,0.254,0.479c0.113,0.093,0.268,0.144,0.437,0.144c0.227,0,0.435-0.089,0.559-0.239
		c0.12-0.145,0.176-0.329,0.158-0.517c-0.018-0.189-0.108-0.358-0.253-0.478C17.627,32.945,17.468,32.888,17.305,32.888z"/>
	<path d="M19.392,35.319c0.95-1.152,0.786-2.861-0.364-3.812c-0.482-0.398-1.092-0.591-1.702-0.591c-0.795,0-1.592,0.328-2.11,0.955
		c-0.296,0.359-0.479,0.781-0.562,1.226c-0.447-0.506-0.9-0.954-1.311-1.325L8.2,38l-2.827,3.423
		c1.487,1.122,3.961,2.493,6.364,2.493c1.484,0,2.94-0.523,4.12-1.952c1.086-1.315,1.397-2.668,1.262-3.965
		c-0.063-0.61-0.216-1.209-0.45-1.783c0.207,0.05,0.418,0.085,0.634,0.085C18.114,36.303,18.875,35.944,19.392,35.319z
		 M16.216,34.911c-0.352-0.29-0.568-0.7-0.612-1.154c-0.043-0.454,0.093-0.898,0.384-1.25c0.325-0.394,0.806-0.62,1.317-0.62
		c0.395,0,0.78,0.139,1.086,0.391c0.726,0.599,0.829,1.677,0.229,2.403c-0.326,0.395-0.828,0.602-1.33,0.602
		C16.905,35.285,16.521,35.163,16.216,34.911z"/>
	<path d="M36.45,35.319c0.95-1.152,0.786-2.861-0.364-3.812c-0.482-0.398-1.092-0.591-1.702-0.591c-0.795,0-1.592,0.328-2.11,0.955
		c-0.296,0.359-0.479,0.781-0.562,1.226c-0.447-0.506-0.9-0.954-1.311-1.325L25.259,38l-2.827,3.423
		c1.487,1.122,3.961,2.493,6.364,2.493c1.484,0,2.94-0.523,4.12-1.952c1.086-1.315,1.397-2.668,1.262-3.965
		c-0.063-0.61-0.216-1.209-0.45-1.783c0.207,0.05,0.418,0.085,0.634,0.085C35.173,36.303,35.934,35.944,36.45,35.319z
		 M33.275,34.911c-0.352-0.29-0.568-0.7-0.612-1.154c-0.043-0.454,0.093-0.898,0.384-1.25c0.325-0.394,0.806-0.62,1.317-0.62
		c0.395,0,0.78,0.139,1.086,0.391c0.726,0.599,0.829,1.677,0.229,2.403c-0.326,0.395-0.828,0.602-1.33,0.602
		C33.964,35.285,33.579,35.163,33.275,34.911z"/>
	<path d="M52.642,35.319c0.95-1.152,0.786-2.861-0.364-3.812c-0.482-0.398-1.092-0.591-1.702-0.591c-0.795,0-1.592,0.328-2.11,0.955
		c-0.296,0.359-0.479,0.781-0.562,1.226c-0.447-0.506-0.9-0.954-1.311-1.325L41.45,38l-2.827,3.423
		c1.487,1.122,3.961,2.493,6.364,2.493c1.484,0,2.94-0.523,4.12-1.952c1.086-1.315,1.397-2.668,1.262-3.965
		c-0.063-0.61-0.216-1.209-0.45-1.783c0.207,0.05,0.418,0.085,0.634,0.085C51.364,36.303,52.125,35.944,52.642,35.319z
		 M49.466,34.911c-0.352-0.29-0.568-0.7-0.612-1.154c-0.043-0.454,0.093-0.898,0.384-1.25c0.325-0.394,0.806-0.62,1.317-0.62
		c0.395,0,0.78,0.139,1.086,0.391c0.726,0.599,0.829,1.677,0.229,2.403c-0.326,0.395-0.828,0.602-1.33,0.602
		C50.155,35.285,49.771,35.163,49.466,34.911z"/>
</g>
</svg>
