<?xml version="1.0" encoding="iso-8859-1"?>
<!-- Generator: Adobe Illustrator 17.1.0, SVG Export Plug-In . SVG Version: 6.00 Build 0)  -->
<!DOCTYPE svg PUBLIC "-//W3C//DTD SVG 1.1//EN" "http://www.w3.org/Graphics/SVG/1.1/DTD/svg11.dtd">
<svg version="1.1" id="Layer_1" xmlns="http://www.w3.org/2000/svg" xmlns:xlink="http://www.w3.org/1999/xlink" x="0px" y="0px"
	 viewBox="0 0 64 64" style="enable-background:new 0 0 64 64;" xml:space="preserve">
<g>
	<path d="M42.377,39.903l0.01-0.039l-0.021-0.006L40.31,31H43c1.105,0,2-0.895,2-2c0-1.105-0.895-2-2-2H21c-1.105,0-2,0.895-2,2
		c0,1.105,0.895,2,2,2h1.565l-4.525,19.494c-0.188,0.807,0.314,1.613,1.122,1.8c0.114,0.027,0.228,0.04,0.34,0.04
		c0.683,0,1.3-0.468,1.46-1.161l1.558-6.713L30,46.463V54c0,0.829,0.672,1.5,1.5,1.5S33,54.829,33,54v-7.537l7.363-1.972
		l1.551,6.682c0.161,0.693,0.777,1.161,1.46,1.161c0.112,0,0.227-0.013,0.34-0.04c0.808-0.187,1.31-0.993,1.122-1.8L42.377,39.903z
		 M39.083,38.979L33,37.349V31h4.231L39.083,38.979z M30,31v6.349l-6.217,1.665L25.644,31H30z M24.58,41.906L30,40.454v2.904
		L24.58,41.906z M33,43.358v-2.904l5.42,1.452L33,43.358z"/>
</g>
</svg>
