<?xml version="1.0" encoding="iso-8859-1"?>
<!-- Generator: Adobe Illustrator 17.1.0, SVG Export Plug-In . SVG Version: 6.00 Build 0)  -->
<!DOCTYPE svg PUBLIC "-//W3C//DTD SVG 1.1//EN" "http://www.w3.org/Graphics/SVG/1.1/DTD/svg11.dtd">
<svg version="1.1" id="Layer_1" xmlns="http://www.w3.org/2000/svg" xmlns:xlink="http://www.w3.org/1999/xlink" x="0px" y="0px"
	 viewBox="0 0 64 64" style="enable-background:new 0 0 64 64;" xml:space="preserve">
<g>
	<rect x="19" y="36" width="23" height="28"/>
	<path d="M59.077,61h-4.55C53.651,60.414,53,59.727,53,58.969c0-1.578,0-7.357,0-10.969h1v-4h-4v4h1c0,3.591,0,9.322,0,10.938
		c0,0.776-0.613,1.472-1.439,2.062h-4.304C44.562,61,44,61.599,44,62c0,0.387,0.527,0.946,1.187,0.986
		C45.163,62.993,45.139,63,45.139,63h0.118h13.82h0.118c0,0-0.026-0.007-0.05-0.014c0.66-0.039,1.188-0.599,1.188-0.986
		C60.333,61.599,59.771,61,59.077,61z"/>
	<path d="M51,41h-6c-0.552,0-1,0.448-1,1s0.448,1,1,1l5.911-0.004c0.027,0.002,0.18,0.015,0.425,0.015
		c0.958,0,3.333-0.189,5.209-1.906C58.174,39.615,59,37.393,59,34.5c0-0.552-0.448-1-1-1s-1,0.448-1,1
		c0,2.299-0.603,4.021-1.791,5.116C53.514,41.181,51.109,41.005,51,41z"/>
	<path d="M16.077,61h-4.55C10.651,60.414,10,59.727,10,58.969c0-1.578,0-7.357,0-10.969h1v-4H7v4h1c0,3.591,0,9.322,0,10.938
		C8,59.714,7.387,60.41,6.561,61H2.256C1.562,61,1,61.599,1,62c0,0.387,0.527,0.946,1.187,0.986C2.163,62.993,2.139,63,2.139,63
		h0.118h13.82h0.118c0,0-0.026-0.007-0.05-0.014c0.66-0.039,1.188-0.599,1.188-0.986C17.333,61.599,16.771,61,16.077,61z"/>
	<path d="M8.633,43.013C8.858,43.013,8.991,43.001,9,43h6c0.552,0,1-0.448,1-1s-0.448-1-1-1l-6.085,0.003
		c-0.023,0.004-2.429,0.177-4.125-1.387C3.603,38.521,3,36.799,3,34.5c0-0.552-0.448-1-1-1s-1,0.448-1,1
		c0,2.893,0.826,5.115,2.455,6.605C5.341,42.831,7.731,43.013,8.633,43.013z"/>
	<path d="M16.5,35h28c0.828,0,1.5-0.672,1.5-1.5S45.328,32,44.5,32h-28c-0.828,0-1.5,0.672-1.5,1.5S15.672,35,16.5,35z"/>
	<path d="M24,27.167c0,2.163,2.947,3.917,6.583,3.917c3.636,0,6.583-1.754,6.583-3.917c0-0.056-0.01-0.111-0.014-0.167H24.014
		C24.01,27.056,24,27.11,24,27.167z"/>
</g>
</svg>
