<?xml version="1.0" encoding="iso-8859-1"?>
<!-- Generator: Adobe Illustrator 17.1.0, SVG Export Plug-In . SVG Version: 6.00 Build 0)  -->
<!DOCTYPE svg PUBLIC "-//W3C//DTD SVG 1.1//EN" "http://www.w3.org/Graphics/SVG/1.1/DTD/svg11.dtd">
<svg version="1.1" id="Layer_1" xmlns="http://www.w3.org/2000/svg" xmlns:xlink="http://www.w3.org/1999/xlink" x="0px" y="0px"
	 viewBox="0 0 64 64" style="enable-background:new 0 0 64 64;" xml:space="preserve">
<g>
	<polygon points="32.98,61 32.981,61 32.979,61 	"/>
	<path d="M35,58.5V39c0,0-3.778,0-8,0v0.768l2.802,1.776L30,58.494C30,59.397,30.691,60,31.72,60h1.26C34.094,60,35,59.327,35,58.5z
		 M32.354,57.583c-0.357,0-0.646-0.289-0.646-0.646s0.289-0.646,0.646-0.646S33,56.581,33,56.938S32.711,57.583,32.354,57.583z"/>
	<path d="M26.345,38h1.273h7.258h0.061H35v-1.345V9.068C32.756,9.514,23.729,12.88,23.61,38h2.54H26.345z"/>
</g>
</svg>
