<?xml version="1.0" encoding="utf-8"?>
<!-- Generator: Adobe Illustrator 17.1.0, SVG Export Plug-In . SVG Version: 6.00 Build 0)  -->
<!DOCTYPE svg PUBLIC "-//W3C//DTD SVG 1.1//EN" "http://www.w3.org/Graphics/SVG/1.1/DTD/svg11.dtd">
<svg version="1.1" id="Layer_1" xmlns="http://www.w3.org/2000/svg" xmlns:xlink="http://www.w3.org/1999/xlink" x="0px" y="0px"
	 viewBox="0 0 128 128" enable-background="new 0 0 128 128" xml:space="preserve">
<g>
	<path d="M9.1,88.7L9.1,88.7C9.2,88.7,9.2,88.7,9.1,88.7C9.1,88.6,9.1,88.7,9.1,88.7z"/>
	<path d="M62.5,57.1c-0.4,8.4-7.4,15.1-15.8,15.1c-8.8,0-16.1-6.5-16.1-15.2h-3.9c0.1,10.5,8.2,18.6,18.6,19.2v14.5
		c-1.3,7.5-7.8,13.2-15.6,13.2c-8.6,0-15.6-6.7-15.9-15.1H9.4c0.1,11,9.1,19.2,20.1,19.2c7.8,0,14.5-4.4,17.9-10.9
		c3.3,6.5,10.1,10.9,18.1,10.9c7.8,0,14.5-4.4,17.9-10.9c3.3,6.5,10.1,10.9,18.1,10.9c11.1,0,20.1-9,20.1-20h-4.2
		c0,8.7-7.1,15.9-15.9,15.9c-8.6,0-15.7-6.8-15.9-15.3c0-0.2,0-12.5,0-12.5c9.7-1.4,17.2-9.7,17.2-19.8h0h-4.2c0,8.7-7.1,16-15.9,16
		c-8.6,0-15.7-6.8-15.9-15.3c0-0.2,0-0.6,0-0.6h-4.2L62.5,57.1z M65.5,103.9c-8.6,0-15.7-6.8-15.9-15.3c0-0.2,0-12.5,0-12.5
		c6.5-1,12-5,14.9-10.7c3.1,6.2,9.4,10.4,16.8,10.8c0,0,0,12.6,0,12.6C80.9,97.2,74,103.9,65.5,103.9z"/>
	<path d="M29.2,100.5c7.1,0,12.9-5.8,12.9-12.9c0-7.1-5.8-12.9-12.9-12.9s-12.9,5.8-12.9,12.9C16.4,94.8,22.1,100.5,29.2,100.5z
		 M29.2,82.3c2.9,0,5.3,2.4,5.3,5.3S32.2,93,29.2,93s-5.3-2.4-5.3-5.3S26.3,82.3,29.2,82.3z"/>
	<circle cx="29.2" cy="87.7" r="3.2"/>
	<path d="M65.2,74.8c-7.1,0-12.9,5.8-12.9,12.9c0,7.1,5.8,12.9,12.9,12.9s12.9-5.8,12.9-12.9C78.1,80.5,72.3,74.8,65.2,74.8z
		 M65.2,93c-2.9,0-5.3-2.4-5.3-5.3s2.4-5.3,5.3-5.3c2.9,0,5.3,2.4,5.3,5.3S68.1,93,65.2,93z"/>
	<circle cx="65.2" cy="87.7" r="3.2"/>
	<path d="M88.2,87.7c0,7.1,5.8,12.9,12.9,12.9c7.1,0,12.9-5.8,12.9-12.9c0-7.1-5.8-12.9-12.9-12.9C94,74.8,88.2,80.5,88.2,87.7z
		 M106.5,87.7c0,2.9-2.4,5.3-5.3,5.3s-5.3-2.4-5.3-5.3s2.4-5.3,5.3-5.3C104.1,82.3,106.5,84.7,106.5,87.7z"/>
	<circle cx="101.1" cy="87.7" r="3.2"/>
	<path d="M82.3,43.1c-7.1,0-12.9,5.8-12.9,12.9c0,7.1,5.8,12.9,12.9,12.9c7.1,0,12.9-5.8,12.9-12.9C95.2,48.8,89.4,43.1,82.3,43.1z
		 M82.3,61.3c-2.9,0-5.3-2.4-5.3-5.3c0-2.9,2.4-5.3,5.3-5.3c2.9,0,5.3,2.4,5.3,5.3C87.6,58.9,85.2,61.3,82.3,61.3z"/>
	<circle cx="82.3" cy="55.9" r="3.2"/>
	<path d="M33.5,55.9c0,7.1,5.8,12.9,12.9,12.9s12.9-5.8,12.9-12.9c0-7.1-5.8-12.9-12.9-12.9S33.5,48.8,33.5,55.9z M51.7,55.9
		c0,2.9-2.4,5.3-5.3,5.3c-2.9,0-5.3-2.4-5.3-5.3c0-2.9,2.4-5.3,5.3-5.3C49.3,50.6,51.7,53,51.7,55.9z"/>
	<circle cx="46.3" cy="55.9" r="3.2"/>
</g>
</svg>
