<?xml version="1.0" encoding="iso-8859-1"?>
<!-- Generator: Adobe Illustrator 17.1.0, SVG Export Plug-In . SVG Version: 6.00 Build 0)  -->
<!DOCTYPE svg PUBLIC "-//W3C//DTD SVG 1.1//EN" "http://www.w3.org/Graphics/SVG/1.1/DTD/svg11.dtd">
<svg version="1.1" id="Layer_1" xmlns="http://www.w3.org/2000/svg" xmlns:xlink="http://www.w3.org/1999/xlink" x="0px" y="0px"
	 viewBox="0 0 64 64" style="enable-background:new 0 0 64 64;" xml:space="preserve">
<g>
	<path d="M19.5,18.5c0,0.829,0.671,1.5,1.5,1.5h18.95c0.078,0.004,0.204,0.01,0.371,0.01c1.023,0,3.558-0.203,5.562-2.036
		C47.62,16.386,48.5,14.039,48.5,11c0-0.829-0.671-1.5-1.5-1.5s-1.5,0.671-1.5,1.5c0,2.149-0.546,3.745-1.623,4.743
		c-1.527,1.414-3.731,1.261-3.744,1.263L21,17C20.171,17,19.5,17.671,19.5,18.5z"/>
	<path d="M18.687,37h-3.375C14.588,37,14,37.588,14,38.312v0.375C14,39.412,14.588,40,15.312,40h3.375c0.614,0,1.106-0.43,1.249-1
		H31c0,5.726,0,10.934,0,11.938c0,1.279-2.596,2.343-5.029,3.062H22c-1.105,0-2,0.697-2,1.5s0.895,1.5,2,1.5h22
		c1.105,0,2-0.697,2-1.5S45.105,54,44,54h-3.946C37.614,53.28,35,52.22,35,50.969c0-1.774,0-17.446,0-24.969h2v-4h-2h-4h-2v4h2
		c0,3.123,0,7.645,0,12H19.937C19.794,37.43,19.302,37,18.687,37z"/>
</g>
</svg>
