<?xml version="1.0" encoding="utf-8"?>
<!-- Generator: Adobe Illustrator 17.1.0, SVG Export Plug-In . SVG Version: 6.00 Build 0)  -->
<!DOCTYPE svg PUBLIC "-//W3C//DTD SVG 1.1//EN" "http://www.w3.org/Graphics/SVG/1.1/DTD/svg11.dtd">
<svg version="1.1" id="Layer_1" xmlns="http://www.w3.org/2000/svg" xmlns:xlink="http://www.w3.org/1999/xlink" x="0px" y="0px"
	 viewBox="0 0 128 128" enable-background="new 0 0 128 128" xml:space="preserve">
<g>
	<path d="M82.1,63.7l0.5-0.8c-0.7-4.1-1.3-8-1.8-11.8c-0.2-1.9-0.4-3.7-0.6-5.6c-2.2-2.8-5-8.4-1.2-13.2c0.3-0.4,0.6-0.8,0.9-1.1
		c0.1-4.7,0.5-8.4,0.7-10.3c-2.1,0.4-6,1.1-9.1,1.1c-7.3,0-12.5-4.1-17.5-8.1c-5.3-4.2-10.7-8.4-18.8-8.4c-4,0-6.2,1.5-7.4,2.7
		c3,0.9,8.4,4.3,8.8,17.4c0.6,15.3-0.9,30.9-2.1,44.7c-0.8,8.9-1.5,16.6-1.5,22.6c0,0.3-0.4,4.7,3.5,8.9c2.2,2.4,5.4,4.2,9.3,5.5
		h30.2c10.8-4.1,11.5-12.8,11.5-15c0-1.4-0.5-5.3-0.8-6.3C84.6,84.8,74.4,75,82.1,63.7z"/>
	<path d="M91.1,28.4h-0.5c-1.8,0-4.5-0.3-8.4,3.8c-0.4,0.4-0.7,0.8-1.1,1.3c-0.1,0.1-0.2,0.2-0.3,0.3c-0.4,0.4-0.6,0.9-0.8,1.4
		c-0.9,2-0.6,4,0.1,5.8c0.3,0.8,0.7,1.5,1,2.1c0-0.1,0.1-0.2,0.1-0.3c0.3-0.6,0.6-1.2,1-1.8c2.6-3.9,6.7-6.6,9.6-6.6
		c4.3,0,8.8,6.1,8.8,11.8c0,17.8-10.1,19.7-14.4,19.7c-0.3,0-0.5,0-0.8,0c-0.4,0-0.8-0.1-1.1-0.1c-0.2,0-0.5-0.1-0.7-0.1
		c-0.1,0.2-0.2,0.4-0.3,0.6c-4.4,7.7,0.7,14.2,2.6,16.2c0.1-0.1,0.2-0.1,0.3-0.2c0.3-0.2,0.6-0.5,1-0.7c0.3-0.2,0.7-0.5,1-0.7
		c0.3-0.2,0.5-0.4,0.8-0.6c7.8-5.6,18.4-12.9,18.4-31.8C107.3,28.6,92.7,28.4,91.1,28.4z"/>
	<path d="M72.6,109.4H62.2H50h-4.5h-1v3.1c0.2,0.4,2.4,3.3,16.3,3.3c13.7,0,16.2-2.5,16.5-3v-3.4h-0.8H72.6z"/>
</g>
</svg>
