<?xml version="1.0" encoding="iso-8859-1"?>
<!-- Generator: Adobe Illustrator 17.1.0, SVG Export Plug-In . SVG Version: 6.00 Build 0)  -->
<!DOCTYPE svg PUBLIC "-//W3C//DTD SVG 1.1//EN" "http://www.w3.org/Graphics/SVG/1.1/DTD/svg11.dtd">
<svg version="1.1" id="Layer_1" xmlns="http://www.w3.org/2000/svg" xmlns:xlink="http://www.w3.org/1999/xlink" x="0px" y="0px"
	 viewBox="0 0 64 64" style="enable-background:new 0 0 64 64;" xml:space="preserve">
<g>
	<path d="M41.5,13H40V8.917C40,6.609,38.038,6,37,6H24.167C19.34,6,19.004,9.925,19,10v4.666L15.46,16H36.5L41.5,13z M23.69,7.015
		c-0.002,0.002-0.004,0.004-0.006,0.006c-0.022,0.001-0.046,0.002-0.068,0.003C23.642,7.022,23.664,7.017,23.69,7.015z M23,13.159
		v-3.123C23,9.912,23.261,7,27.167,7C29.481,7,32.061,7,34,7c0.082,0,2,0.022,2,1.916c0,0,0,0,0,0v0c0,1.302,0,2.891,0,4.083H23.421
		L23,13.159z"/>
	<path d="M39.676,54.391l6.689-6.358l-2.559-34.769l-5.987,3.876L39.676,54.391z M40.255,27.493
		c0.273-0.202,0.542,0.476,0.604,1.521c0.062,1.053-0.11,2.086-0.386,2.299c-0.277,0.214-0.55-0.48-0.609-1.545
		C39.805,28.712,39.981,27.696,40.255,27.493z M40.555,32.759c0.277-0.218,0.552,0.481,0.616,1.567
		c0.064,1.094-0.11,2.173-0.39,2.403c-0.282,0.231-0.561-0.485-0.622-1.591C40.098,34.04,40.276,32.978,40.555,32.759z
		 M40.866,38.232c0.282-0.234,0.563,0.485,0.629,1.614c0.067,1.138-0.109,2.266-0.394,2.513c-0.287,0.248-0.572-0.489-0.635-1.64
		C40.403,39.577,40.583,38.467,40.866,38.232z M41.98,30.147c-0.271,0.209-0.543-0.475-0.606-1.523
		c-0.063-1.04,0.104-2.038,0.371-2.237c0.266-0.198,0.535,0.471,0.601,1.5C42.413,28.924,42.25,29.938,41.98,30.147z M42.682,33.114
		c0.069,1.076-0.095,2.136-0.369,2.36c-0.275,0.225-0.553-0.48-0.619-1.568c-0.066-1.08,0.103-2.123,0.375-2.336
		C42.34,31.357,42.613,32.045,42.682,33.114z M41.433,48.217c-0.292,0.267-0.583-0.494-0.649-1.692
		c-0.065-1.188,0.117-2.35,0.405-2.603c0.287-0.252,0.574,0.49,0.643,1.664C41.902,46.771,41.724,47.952,41.433,48.217z
		 M42.406,36.952c0.275-0.229,0.555,0.48,0.626,1.59c0.072,1.119-0.094,2.226-0.372,2.467c-0.28,0.242-0.563-0.484-0.632-1.616
		C41.959,38.272,42.129,37.182,42.406,36.952z M43.019,46.767c-0.284,0.26-0.574-0.489-0.646-1.666
		c-0.071-1.167,0.101-2.308,0.382-2.555c0.28-0.246,0.565,0.485,0.639,1.639C43.47,45.349,43.302,46.508,43.019,46.767z
		 M44.566,45.353c-0.277,0.254-0.566-0.484-0.642-1.641c-0.076-1.147,0.086-2.267,0.36-2.508c0.273-0.24,0.557,0.48,0.636,1.615
		C44.999,43.963,44.842,45.1,44.566,45.353z M44.18,39.694c-0.273,0.236-0.555-0.48-0.629-1.592
		c-0.073-1.104,0.087-2.174,0.357-2.398c0.268-0.223,0.547,0.476,0.623,1.567C44.608,38.371,44.452,39.459,44.18,39.694z
		 M43.809,34.249c-0.268,0.22-0.545-0.475-0.616-1.546c-0.07-1.062,0.089-2.087,0.354-2.296c0.264-0.207,0.537,0.471,0.61,1.522
		C44.232,32.99,44.076,34.031,43.809,34.249z M43.452,29.008c-0.264,0.204-0.535-0.471-0.603-1.502
		c-0.068-1.023,0.09-2.005,0.351-2.199c0.26-0.193,0.527,0.467,0.598,1.48C43.869,27.808,43.715,28.805,43.452,29.008z
		 M43.108,23.958c-0.26,0.19-0.525-0.466-0.591-1.46c-0.065-0.986,0.091-1.927,0.348-2.107c0.256-0.179,0.518,0.462,0.586,1.439
		C43.52,22.814,43.367,23.769,43.108,23.958z M42.542,15.649c0.252-0.167,0.509,0.458,0.575,1.4c0.066,0.949-0.085,1.865-0.34,2.041
		c-0.256,0.176-0.516-0.462-0.58-1.42C42.134,16.719,42.289,15.816,42.542,15.649z M41.659,25.017
		c-0.266,0.194-0.533-0.471-0.594-1.48c-0.061-1.002,0.104-1.958,0.367-2.142c0.262-0.183,0.525,0.467,0.589,1.458
		C42.086,23.852,41.924,24.823,41.659,25.017z M41.132,16.58c0.258-0.17,0.516,0.462,0.577,1.419
		c0.062,0.963-0.098,1.894-0.359,2.074c-0.262,0.181-0.523-0.466-0.582-1.439C40.709,17.668,40.873,16.751,41.132,16.58z
		 M40.176,26.1c-0.273,0.199-0.54-0.476-0.597-1.501c-0.056-1.017,0.118-1.99,0.388-2.179c0.268-0.188,0.532,0.471,0.592,1.479
		C40.618,24.914,40.447,25.902,40.176,26.1z M40.269,18.97c0.057,0.978-0.111,1.925-0.378,2.109
		c-0.268,0.185-0.531-0.471-0.585-1.459c-0.054-0.981,0.118-1.913,0.383-2.088C39.953,17.358,40.212,18,40.269,18.97z"/>
	<path d="M35.652,18H13.67l-3.146,37h27L35.652,18z M26.838,21.055c0.601,0,1.091,0.832,1.094,1.87
		c0.003,1.051-0.493,1.913-1.108,1.913s-1.105-0.862-1.094-1.913C25.741,21.887,26.237,21.055,26.838,21.055z M26.819,26.289
		c0.62,0,1.126,0.886,1.129,1.991c0.003,1.12-0.509,2.039-1.144,2.039c-0.635,0-1.141-0.919-1.129-2.039
		C25.686,27.174,26.198,26.289,26.819,26.289z M26.798,31.864c0.641,0,1.163,0.945,1.166,2.125c0.003,1.196-0.526,2.177-1.182,2.177
		s-1.178-0.981-1.166-2.177C25.628,32.809,26.157,31.864,26.798,31.864z M26.776,37.817c0.662,0,1.202,1.01,1.206,2.272
		c0.004,1.279-0.544,2.329-1.223,2.329c-0.679,0-1.219-1.05-1.206-2.329C25.566,38.827,26.113,37.817,26.776,37.817z M17.027,49.12
		c-0.704,0-1.206-1.127-1.123-2.499c0.082-1.352,0.703-2.435,1.389-2.435c0.686,0,1.19,1.082,1.126,2.435
		C18.355,47.994,17.731,49.12,17.027,49.12z M17.389,42.418c-0.679,0-1.166-1.05-1.089-2.329c0.076-1.262,0.675-2.272,1.337-2.272
		c0.662,0,1.152,1.01,1.092,2.272C18.669,41.368,18.068,42.418,17.389,42.418z M17.726,36.166c-0.656,0-1.129-0.981-1.057-2.177
		c0.071-1.18,0.648-2.125,1.289-2.125s1.115,0.945,1.06,2.125C18.961,35.185,18.383,36.166,17.726,36.166z M18.042,30.318
		c-0.635,0-1.094-0.919-1.027-2.039c0.067-1.106,0.624-1.991,1.244-1.991s1.081,0.886,1.029,1.991
		C19.235,29.4,18.677,30.318,18.042,30.318z M18.338,24.839c-0.615,0-1.062-0.862-0.998-1.913c0.063-1.038,0.601-1.87,1.202-1.87
		s1.049,0.832,1,1.87C19.492,23.977,18.953,24.839,18.338,24.839z M21.88,49.12c-0.704,0-1.234-1.127-1.185-2.499
		c0.048-1.352,0.642-2.435,1.328-2.435c0.686,0,1.217,1.082,1.187,2.435C23.18,47.994,22.584,49.12,21.88,49.12z M22.074,42.418
		c-0.679,0-1.193-1.05-1.147-2.329c0.045-1.262,0.618-2.272,1.28-2.272c0.662,0,1.177,1.01,1.149,2.272
		C23.327,41.368,22.753,42.418,22.074,42.418z M22.254,36.166c-0.656,0-1.154-0.981-1.111-2.177c0.042-1.18,0.595-2.125,1.235-2.125
		c0.641,0,1.139,0.945,1.113,2.125C23.464,35.185,22.911,36.166,22.254,36.166z M22.423,30.318c-0.635,0-1.117-0.919-1.078-2.039
		c0.039-1.106,0.574-1.991,1.194-1.991s1.104,0.886,1.079,1.991C23.593,29.4,23.058,30.318,22.423,30.318z M22.581,24.839
		c-0.615,0-1.083-0.862-1.046-1.913c0.037-1.038,0.554-1.87,1.155-1.87s1.07,0.832,1.047,1.87
		C23.714,23.977,23.196,24.839,22.581,24.839z M26.734,49.12c-0.704,0-1.262-1.127-1.248-2.499c0.014-1.352,0.581-2.435,1.267-2.435
		c0.686,0,1.245,1.082,1.248,2.435C28.004,47.994,27.437,49.12,26.734,49.12z M30.986,21.055c0.601,0,1.112,0.832,1.141,1.87
		c0.029,1.051-0.445,1.913-1.06,1.913c-0.615,0-1.127-0.862-1.142-1.913C29.91,21.887,30.385,21.055,30.986,21.055z M31.098,26.289
		c0.62,0,1.148,0.886,1.179,1.991c0.031,1.12-0.458,2.039-1.093,2.039c-0.635,0-1.164-0.919-1.18-2.039
		C29.988,27.174,30.478,26.289,31.098,26.289z M31.218,31.864c0.641,0,1.187,0.945,1.22,2.125c0.033,1.196-0.471,2.177-1.128,2.177
		c-0.656,0-1.203-0.981-1.221-2.177C30.071,32.809,30.577,31.864,31.218,31.864z M31.345,37.817c0.662,0,1.228,1.01,1.263,2.272
		c0.036,1.279-0.485,2.329-1.165,2.329c-0.679,0-1.245-1.05-1.264-2.329C30.16,38.827,30.682,37.817,31.345,37.817z M31.587,49.12
		c-0.704,0-1.291-1.127-1.311-2.499c-0.02-1.352,0.52-2.435,1.205-2.435c0.686,0,1.272,1.082,1.31,2.435
		C32.829,47.994,32.29,49.12,31.587,49.12z"/>
</g>
</svg>
