<?xml version="1.0" encoding="iso-8859-1"?>
<!-- Generator: Adobe Illustrator 17.1.0, SVG Export Plug-In . SVG Version: 6.00 Build 0)  -->
<!DOCTYPE svg PUBLIC "-//W3C//DTD SVG 1.1//EN" "http://www.w3.org/Graphics/SVG/1.1/DTD/svg11.dtd">
<svg version="1.1" id="Layer_1" xmlns="http://www.w3.org/2000/svg" xmlns:xlink="http://www.w3.org/1999/xlink" x="0px" y="0px"
	 viewBox="0 0 64 64" style="enable-background:new 0 0 64 64;" xml:space="preserve">
<g>
	<path d="M16.458,55h7.208L25,57h18l1.333-2h6.208C51.347,55,52,53,52,53H15C15,53,15.653,55,16.458,55z"/>
	<path d="M16.458,50h7.208L25,52h18l1.333-2h6.208C51.347,50,52,48,52,48H15C15,48,15.653,50,16.458,50z"/>
	<path d="M16.458,45h7.208L25,47h18l1.333-2h6.208C51.347,45,52,43,52,43H15C15,43,15.653,45,16.458,45z"/>
	<path d="M16.458,40h7.208L25,42h18l1.333-2h6.208C51.347,40,52,38,52,38H38.706c5.079-2.041,8.669-7.003,8.669-12.812
		c0-7.628-6.184-13.812-13.813-13.812c-7.628,0-13.812,6.184-13.812,13.812c0,5.809,3.59,10.771,8.669,12.812H15
		C15,38,15.653,40,16.458,40z M26,25.188c0-4.17,3.393-7.562,7.562-7.562c4.17,0,7.563,3.393,7.563,7.562s-3.393,7.562-7.563,7.562
		C29.393,32.75,26,29.357,26,25.188z"/>
	<path d="M40.125,25.188c0-3.619-2.944-6.562-6.563-6.562c-3.619,0-6.562,2.944-6.562,6.562s2.944,6.562,6.562,6.562
		C37.181,31.75,40.125,28.806,40.125,25.188z"/>
</g>
</svg>
