<?xml version="1.0" encoding="iso-8859-1"?>
<!-- Generator: Adobe Illustrator 17.1.0, SVG Export Plug-In . SVG Version: 6.00 Build 0)  -->
<!DOCTYPE svg PUBLIC "-//W3C//DTD SVG 1.1//EN" "http://www.w3.org/Graphics/SVG/1.1/DTD/svg11.dtd">
<svg version="1.1" id="Layer_1" xmlns="http://www.w3.org/2000/svg" xmlns:xlink="http://www.w3.org/1999/xlink" x="0px" y="0px"
	 viewBox="0 0 64 64" style="enable-background:new 0 0 64 64;" xml:space="preserve">
<g>
	<path d="M58.188,14H4.812C4.364,14,4,14.364,4,14.812v0.375C4,15.636,4.364,16,4.812,16h53.375C58.636,16,59,15.636,59,15.188
		v-0.375C59,14.364,58.636,14,58.188,14z"/>
	<path d="M58.188,25H4.812C4.364,25,4,25.364,4,25.812v0.375C4,26.636,4.364,27,4.812,27h53.375C58.636,27,59,26.636,59,26.188
		v-0.375C59,25.364,58.636,25,58.188,25z"/>
	<path d="M58.188,36H4.812C4.364,36,4,36.364,4,36.812v0.375C4,37.636,4.364,38,4.812,38h53.375C58.636,38,59,37.636,59,37.188
		v-0.375C59,36.364,58.636,36,58.188,36z"/>
	<path d="M58.188,47H4.812C4.364,47,4,47.364,4,47.812v0.375C4,48.636,4.364,49,4.812,49h53.375C58.636,49,59,48.636,59,48.188
		v-0.375C59,47.364,58.636,47,58.188,47z"/>
	<rect x="6" y="17" width="2" height="7"/>
	<rect x="30" y="17" width="2" height="7"/>
	<rect x="31" y="39" width="2" height="7"/>
	<rect x="10" y="28" width="2" height="7"/>
	<rect x="6" y="39" width="2" height="7"/>
	<rect x="10" y="50" width="2" height="5"/>
	<rect x="55" y="17" width="2" height="7"/>
	<rect x="51" y="28" width="2" height="7"/>
	<rect x="55" y="39" width="2" height="7"/>
	<rect x="51" y="50" width="2" height="5"/>
	<path d="M9,17v7h20v-7H9z M26.125,22C25.504,22,25,21.496,25,20.875c0-0.621,0.504-1.125,1.125-1.125s1.125,0.504,1.125,1.125
		C27.25,21.496,26.746,22,26.125,22z"/>
	<path d="M34,39v7h20v-7H34z M37.125,44C36.504,44,36,43.496,36,42.875c0-0.621,0.504-1.125,1.125-1.125s1.125,0.504,1.125,1.125
		C38.25,43.496,37.746,44,37.125,44z"/>
</g>
</svg>
