<?xml version="1.0" encoding="iso-8859-1"?>
<!-- Generator: Adobe Illustrator 17.1.0, SVG Export Plug-In . SVG Version: 6.00 Build 0)  -->
<!DOCTYPE svg PUBLIC "-//W3C//DTD SVG 1.1//EN" "http://www.w3.org/Graphics/SVG/1.1/DTD/svg11.dtd">
<svg version="1.1" id="Layer_1" xmlns="http://www.w3.org/2000/svg" xmlns:xlink="http://www.w3.org/1999/xlink" x="0px" y="0px"
	 viewBox="0 0 64 64" style="enable-background:new 0 0 64 64;" xml:space="preserve">
<g>
	<polygon points="10.289,55 55.732,55 50.078,49 16.289,49 	"/>
	<polygon points="57,6.462 52,12.003 52,48.124 57,53.43 	"/>
	<polygon points="50.211,11 55.626,5 10.2,5 16.329,11 	"/>
	<polygon points="15,12.496 9,6.623 9,53.461 15,47.461 	"/>
	<polygon points="17,22.222 17,26.349 36.078,13 30.173,13 	"/>
	<polygon points="17,45.461 17,47 18.289,47 48.193,47 50,47 50,46.001 50,14.219 50,13 48.406,13 41.391,13 17,30.062 	"/>
</g>
</svg>
