<?xml version="1.0" encoding="iso-8859-1"?>
<!-- Generator: Adobe Illustrator 17.1.0, SVG Export Plug-In . SVG Version: 6.00 Build 0)  -->
<!DOCTYPE svg PUBLIC "-//W3C//DTD SVG 1.1//EN" "http://www.w3.org/Graphics/SVG/1.1/DTD/svg11.dtd">
<svg version="1.1" id="Layer_1" xmlns="http://www.w3.org/2000/svg" xmlns:xlink="http://www.w3.org/1999/xlink" x="0px" y="0px"
	 viewBox="0 0 64 64" style="enable-background:new 0 0 64 64;" xml:space="preserve">
<g>
	<path d="M25.5,60.5c0,0.725,0.514,1.329,1.197,1.469C26.797,61.985,26.896,62,27,62h12c0.104,0,0.203-0.015,0.303-0.031
		c0.683-0.14,1.197-0.745,1.197-1.469c0-0.828-0.672-1.5-1.5-1.5h-4h-1h-2h-1h-4C26.172,59,25.5,59.672,25.5,60.5z"/>
	<polygon points="38.223,15 27.777,15 29.11,19 31,19 32,19 34,19 35,19 36.89,19 	"/>
	<polygon points="24.86,14 26.39,14 26.75,14 27.443,14 38.557,14 39.25,14 39.61,14 41.14,14 44.807,3 21.193,3 	"/>
	<path d="M35.5,27.5c0.276,0,0.5-0.224,0.5-0.5v-1v-1v-1c0-0.276-0.224-0.5-0.5-0.5S35,23.724,35,24v1h-1v-5h-2v38h2V26h1v1
		C35,27.276,35.224,27.5,35.5,27.5z"/>
</g>
</svg>
