<?xml version="1.0" encoding="utf-8"?>
<!-- Generator: Adobe Illustrator 17.1.0, SVG Export Plug-In . SVG Version: 6.00 Build 0)  -->
<!DOCTYPE svg PUBLIC "-//W3C//DTD SVG 1.1//EN" "http://www.w3.org/Graphics/SVG/1.1/DTD/svg11.dtd">
<svg version="1.1" id="Layer_1" xmlns="http://www.w3.org/2000/svg" xmlns:xlink="http://www.w3.org/1999/xlink" x="0px" y="0px"
	 viewBox="0 0 128 128" enable-background="new 0 0 128 128" xml:space="preserve">
<g>
	<path d="M73.5,25c-13.9,0-28.8,5.8-40.8,15.6c2.8-0.5,6.2-0.1,8.5,2.9c0.3,0.4,0.2,1-0.2,1.3c-0.2,0.1-0.4,0.2-0.6,0.2
		c-0.3,0-0.5-0.1-0.7-0.4c-3.5-4.5-9.9-1.2-10.2-1c-0.1,0.1-0.3,0.1-0.4,0.1C18,53.9,9.8,67.7,8.1,83.3
		c-4.3,39.2,10.1,34.4,59.1,34.7c40.7,0.2,43.6,1,52-31C126.5,59.6,102.2,25,73.5,25z M107.2,70.6c0.2-0.4,0.8-0.6,1.2-0.4
		c2.8,1.4,7.6,5.6,5.9,11.1c-0.1,0.4-0.5,0.6-0.9,0.6c-0.1,0-0.2,0-0.3,0c-0.5-0.2-0.7-0.7-0.6-1.1c1.7-5.5-4.9-8.9-5-9
		C107.2,71.6,107,71,107.2,70.6z M104.3,77.3c-0.1,0-0.2,0.1-0.4,0.1c-0.4,0-0.7-0.2-0.8-0.6c-1.9-4.5-7.2-4.1-9-3.8
		c-1.6,2.3-2.8,5.8-4.1,10.2c-2,6.6-4.3,14.2-10.1,18.5c3.1,0.3,6.8,1.8,8.1,5.8c0.1,0.5-0.1,1-0.6,1.1c-0.1,0-0.2,0-0.3,0
		c-0.4,0-0.7-0.3-0.9-0.6c-1.7-5.5-8.9-4.6-9.2-4.5c-0.1,0-0.1,0-0.2,0c-2.5,1.1-5.4,1.8-9,1.8c-1.3,0-2.8-0.1-4.3-0.3
		c-5.2-0.7-9.3-1.8-12.7-3.3c-0.3-0.1-1.2-0.1-1.5,0c-5.7,0.4-6.5,7.8-6.5,7.9c0,0.5-0.4,0.8-0.9,0.8c0,0-0.1,0-0.1,0
		c-0.5-0.1-0.9-0.5-0.8-1c0.3-2.8,2.1-8,6.8-9.3c-0.6-0.4-1.8-1.1-1.8-1.1c-5.6-1.4-8.6,5.4-8.6,5.5c-0.1,0.3-0.5,0.5-0.8,0.5
		c-0.1,0-0.2,0-0.4-0.1c-0.5-0.2-0.7-0.7-0.5-1.2c1-2.4,3.9-6.3,8.1-6.7c-6.7-6.6-6.5-15.7-6.3-23.1c0.1-2.7,0.1-5-0.1-6.9
		c-3.5-4.2-9.7-1-10-0.8c-0.4,0.2-1,0.1-1.2-0.4c-0.2-0.4-0.1-1,0.4-1.2c2.2-1.2,6.6-2.4,10.1-0.5c-0.6-1.4-1.7-2.2-3.4-2.6
		c-0.6-0.1-0.9-0.6-0.8-1.2c0.1-0.6,0.7-0.9,1.2-0.8c6.2,1.2,6.1,7.7,5.9,14.5c-0.3,11.5-0.6,25.9,24.3,29
		c17.4,2.2,20.9-9.8,24.1-20.4c2.5-8.4,4.9-16.4,14-14.4c0.6,0.1,0.9,0.7,0.8,1.2c-0.1,0.6-0.7,0.9-1.2,0.8
		c-2.3-0.5-4.1-0.2-5.6,0.8c3.2,0,7.1,1.1,8.7,5C105,76.5,104.8,77.1,104.3,77.3z"/>
</g>
</svg>
