<?xml version="1.0" encoding="iso-8859-1"?>
<!-- Generator: Adobe Illustrator 17.1.0, SVG Export Plug-In . SVG Version: 6.00 Build 0)  -->
<!DOCTYPE svg PUBLIC "-//W3C//DTD SVG 1.1//EN" "http://www.w3.org/Graphics/SVG/1.1/DTD/svg11.dtd">
<svg version="1.1" id="Layer_1" xmlns="http://www.w3.org/2000/svg" xmlns:xlink="http://www.w3.org/1999/xlink" x="0px" y="0px"
	 viewBox="0 0 64 64" style="enable-background:new 0 0 64 64;" xml:space="preserve">
<g>
	<path d="M25,40h-6.333l1.355,3h23.707l1.355-3H39v-6.317c-0.706,0.411-1.725,0.817-3,0.817c-1.33,0-2.333-0.335-3-0.657V40h-2
		v-9.317c-0.706,0.411-1.725,0.817-3,0.817c-1.33,0-2.333-0.335-3-0.657V40z"/>
	<path d="M25,29.706c0.461,0.287,1.485,0.794,3,0.794c1.426,0,2.472-0.622,3-1.02V18.683c-0.706,0.411-1.725,0.817-3,0.817
		c-1.33,0-2.333-0.335-3-0.657V29.706z"/>
	<path d="M25,17.706c0.461,0.287,1.485,0.794,3,0.794c1.426,0,2.472-0.622,3-1.02V7.251c-0.466,0.692-1.186,1.222-2.04,1.489
		c-0.396,0.124-0.802,0.187-1.208,0.187c-1.177,0-2.201-0.544-2.753-1.396V17.706z"/>
	<path d="M33,24.079v8.627c0.461,0.287,1.485,0.794,3,0.794c1.426,0,2.472-0.622,3-1.02v-7.792c-0.572,0.764-1.547,1.24-2.652,1.24
		c-0.405,0-0.811-0.063-1.208-0.187c-0.873-0.274-1.61-0.818-2.075-1.534C33.039,24.165,33.025,24.121,33,24.079z"/>
	<polygon points="43.414,44 20.434,44 21.613,58 42.235,58 	"/>
	<polygon points="39.743,62 40.664,59 22.693,59 23.615,62 	"/>
	<path d="M27.753,8.176c0.32,0,0.652-0.049,0.983-0.153c0.635-0.199,1.15-0.572,1.509-1.023c0.467-0.587,0.665-1.309,0.451-1.991
		c-0.293-0.934-1.252-1.508-2.347-1.508c-0.32,0-0.652,0.049-0.983,0.153c-1.461,0.458-2.338,1.808-1.96,3.014
		c0.037,0.117,0.083,0.227,0.14,0.332C25.94,7.736,26.794,8.176,27.753,8.176z"/>
	<path d="M35.365,25.023c0.33,0.104,0.663,0.153,0.983,0.153c1.096,0,2.055-0.575,2.347-1.508c0.069-0.22,0.083-0.444,0.073-0.668
		c-0.047-1.001-0.838-1.972-2.033-2.347c-0.33-0.104-0.663-0.153-0.983-0.153c-1.096,0-2.055,0.575-2.347,1.508
		c-0.103,0.327-0.106,0.664-0.037,0.991C33.552,23.881,34.3,24.689,35.365,25.023z"/>
</g>
</svg>
