<?xml version="1.0" encoding="iso-8859-1"?>
<!-- Generator: Adobe Illustrator 17.1.0, SVG Export Plug-In . SVG Version: 6.00 Build 0)  -->
<!DOCTYPE svg PUBLIC "-//W3C//DTD SVG 1.1//EN" "http://www.w3.org/Graphics/SVG/1.1/DTD/svg11.dtd">
<svg version="1.1" id="Layer_1" xmlns="http://www.w3.org/2000/svg" xmlns:xlink="http://www.w3.org/1999/xlink" x="0px" y="0px"
	 viewBox="0 0 64 64" style="enable-background:new 0 0 64 64;" xml:space="preserve">
<g>
	<path d="M25.011,56c2.394-5.249,3.996-14.789,3.996-25.69c0-6.311-0.538-12.163-1.454-16.994l-11.99-6.312
		C13.695,12.501,12.5,20.897,12.5,30.31c0,10.9,1.601,20.44,3.996,25.69H25.011z"/>
	<path d="M31.875,47.736c0,3.396,1.688,6.398,4.277,8.264h12.32c2.589-1.866,4.277-4.868,4.277-8.264
		c0-2.569-0.969-4.912-2.558-6.711l-14.959-0.808C33.173,42.09,31.875,44.761,31.875,47.736z"/>
</g>
</svg>
