<?xml version="1.0" encoding="iso-8859-1"?>
<!-- Generator: Adobe Illustrator 17.1.0, SVG Export Plug-In . SVG Version: 6.00 Build 0)  -->
<!DOCTYPE svg PUBLIC "-//W3C//DTD SVG 1.1//EN" "http://www.w3.org/Graphics/SVG/1.1/DTD/svg11.dtd">
<svg version="1.1" id="Layer_1" xmlns="http://www.w3.org/2000/svg" xmlns:xlink="http://www.w3.org/1999/xlink" x="0px" y="0px"
	 viewBox="0 0 64 64" style="enable-background:new 0 0 64 64;" xml:space="preserve">
<g>
	<path d="M40,31H25v13h15V31z M36.875,39.062c-0.69,0-1.25-0.56-1.25-1.25s0.56-1.25,1.25-1.25s1.25,0.56,1.25,1.25
		S37.565,39.062,36.875,39.062z"/>
	<path d="M45,26H7H1v23h6h38h6h12V26H51H45z M22,45H7H5v-6h2h15V45z M22,36H7H5v-6h2h15V36z M41,45H24V30h17V45z M60,45h-9h-6h-2v-6
		h2h6h9V45z M60,36h-9h-6h-2v-6h2h6h9V36z"/>
	<path d="M62.5,21h-61C0.672,21,0,21.672,0,22.5S0.672,24,1.5,24h61c0.828,0,1.5-0.672,1.5-1.5S63.328,21,62.5,21z"/>
	<rect x="3" y="51" width="5" height="2"/>
	<rect x="56" y="51" width="5" height="2"/>
</g>
</svg>
