<?xml version="1.0" encoding="utf-8"?>
<!-- Generator: Adobe Illustrator 17.1.0, SVG Export Plug-In . SVG Version: 6.00 Build 0)  -->
<!DOCTYPE svg PUBLIC "-//W3C//DTD SVG 1.1//EN" "http://www.w3.org/Graphics/SVG/1.1/DTD/svg11.dtd">
<svg version="1.1" id="Layer_1" xmlns="http://www.w3.org/2000/svg" xmlns:xlink="http://www.w3.org/1999/xlink" x="0px" y="0px"
	 viewBox="0 0 128 128" enable-background="new 0 0 128 128" xml:space="preserve">
<g>
	<path d="M41.1,60.2l26.3,4.4c1.5,0.2,2.8-0.7,3.1-2.2l0.1-0.7c0.2-1.5-0.7-2.8-2.2-3.1l-26.3-4.4C40.6,54,39.3,55,39,56.5l-0.1,0.7
		C38.7,58.6,39.7,59.9,41.1,60.2z"/>
	<path d="M107.5,93.3c-10.3,6.3-20,9.9-28.9,11.6l2.9-24.3l1.1-9.5l0,0C89.3,34,96.6,30.4,97.4,30.1c0.1,0,0.5-0.2,0.8,0.2l-0.1-0.1
		l6.6-6c-1.5-1.6-5.2-4-9.7-2.6c-5.7,1.7-14.1,8.6-21,48.2l-24.5-4.1l-6-1L39.8,64l-0.9-0.2l-8.4,31.4
		c-10.6-6.9-16.6-14.7-17.2-15.4c-1-1.3-2.9-1.6-4.2-0.6s-1.6,2.9-0.6,4.2c5.7,7.6,18,18.5,33.7,24.2c8,2.9,16.1,4.4,24.3,4.4
		c14.5,0,29.3-4.6,44.2-13.7c1.4-0.9,1.9-2.7,1-4.1C110.8,92.9,109,92.5,107.5,93.3z M67.8,106.2c-10.5,0.3-19.8-2.1-27.5-5.5
		l6.6-25.3l24.1,4L67.8,106.2z"/>
</g>
</svg>
