<?xml version="1.0" encoding="iso-8859-1"?>
<!-- Generator: Adobe Illustrator 17.1.0, SVG Export Plug-In . SVG Version: 6.00 Build 0)  -->
<!DOCTYPE svg PUBLIC "-//W3C//DTD SVG 1.1//EN" "http://www.w3.org/Graphics/SVG/1.1/DTD/svg11.dtd">
<svg version="1.1" id="Layer_1" xmlns="http://www.w3.org/2000/svg" xmlns:xlink="http://www.w3.org/1999/xlink" x="0px" y="0px"
	 viewBox="0 0 64 64" style="enable-background:new 0 0 64 64;" xml:space="preserve">
<g>
	<path d="M44.168,8.379c-1.724,0-3.121,1.397-3.121,3.121c0,0.044,0.011,0.084,0.013,0.127L35,14.894V8.07
		c1.08-0.822,1.789-2.108,1.789-3.57c0-2.485-2.015-4.5-4.5-4.5s-4.5,2.015-4.5,4.5c0,1.646,0.893,3.07,2.211,3.855v6.832
		l-6.603-3.56c0.002-0.043,0.013-0.084,0.013-0.127c0-1.724-1.397-3.121-3.121-3.121s-3.121,1.397-3.121,3.121
		s1.397,3.121,3.121,3.121c0.567,0,1.091-0.163,1.549-0.426L30,18.595v7.312l-4.229-2.28c0.002-0.043,0.013-0.084,0.013-0.127
		c0-1.724-1.397-3.121-3.121-3.121s-3.121,1.397-3.121,3.121s1.397,3.121,3.121,3.121c0.567,0,1.091-0.163,1.549-0.426L30,29.315
		v22.563l-8.998,8.998c-0.586,0.585-0.586,1.536,0,2.121c0.293,0.293,0.677,0.439,1.061,0.439s0.768-0.146,1.061-0.439L31,55.121V60
		c0,0.829,0.671,1.5,1.5,1.5S34,60.829,34,60v-5h0.23l7.998,7.998c0.293,0.293,0.677,0.439,1.061,0.439s0.768-0.146,1.061-0.439
		c0.586-0.585,0.586-1.536,0-2.121l-9.226-9.226c-0.036-0.036-0.084-0.05-0.123-0.082V29.224l5.619-3.029
		c0.458,0.264,0.982,0.426,1.549,0.426c1.724,0,3.121-1.397,3.121-3.121s-1.397-3.121-3.121-3.121s-3.121,1.397-3.121,3.121
		c0,0.044,0.011,0.084,0.013,0.127L35,25.816v-7.514l7.619-4.107c0.458,0.264,0.982,0.426,1.549,0.426
		c1.724,0,3.121-1.397,3.121-3.121S45.891,8.379,44.168,8.379z"/>
</g>
</svg>
