<?xml version="1.0" encoding="iso-8859-1"?>
<!-- Generator: Adobe Illustrator 17.1.0, SVG Export Plug-In . SVG Version: 6.00 Build 0)  -->
<!DOCTYPE svg PUBLIC "-//W3C//DTD SVG 1.1//EN" "http://www.w3.org/Graphics/SVG/1.1/DTD/svg11.dtd">
<svg version="1.1" id="Layer_1" xmlns="http://www.w3.org/2000/svg" xmlns:xlink="http://www.w3.org/1999/xlink" x="0px" y="0px"
	 viewBox="0 0 64 64" style="enable-background:new 0 0 64 64;" xml:space="preserve">
<g>
	<path d="M26,52.797V56h11v-3.081c-1.652,0.371-3.413,0.581-5.25,0.581C29.726,53.5,27.794,53.244,26,52.797z"/>
	<path d="M37,33.103V32.59v-0.51V25H25v7.473v0.517v0.522c-5.17,1.623-8.75,5.036-8.75,8.988s3.58,7.365,8.75,8.988
		c0.328,0.103,0.659,0.202,1,0.291c1.78,0.461,3.717,0.721,5.75,0.721c1.845,0,3.608-0.22,5.25-0.603
		c0.338-0.079,0.673-0.16,1-0.253c5.44-1.554,9.25-5.065,9.25-9.144C47.25,38.176,42.967,34.495,37,33.103z"/>
	<polygon points="12,24 25,24 37,24 51,24 51,6 12,6 	"/>
</g>
</svg>
