<?xml version="1.0" encoding="utf-8"?>
<!-- Generator: Adobe Illustrator 17.1.0, SVG Export Plug-In . SVG Version: 6.00 Build 0)  -->
<!DOCTYPE svg PUBLIC "-//W3C//DTD SVG 1.1//EN" "http://www.w3.org/Graphics/SVG/1.1/DTD/svg11.dtd">
<svg version="1.1" id="Layer_1" xmlns="http://www.w3.org/2000/svg" xmlns:xlink="http://www.w3.org/1999/xlink" x="0px" y="0px"
	 viewBox="0 0 128 128" enable-background="new 0 0 128 128" xml:space="preserve">
<g>
	<path d="M37.2,10.1c1.6,1.7,10.7,3.1,20.3,3.3v-0.6v-1c0-0.6,0.2-1.2,0.4-1.7c0.6-1.2,1.9-2,3.3-2H62c1.4,0,2.7,0.8,3.3,2
		c0.3,0.5,0.4,1.1,0.4,1.7v1.6c15.1,0,18.3-3.3,18.3-3.3V2H37.2V10.1z"/>
	<path d="M63.7,13.5v-0.6v-1c0-0.9-0.8-1.7-1.7-1.7h-0.7c-0.1,0-0.1,0-0.2,0c-0.9,0.1-1.5,0.8-1.5,1.7v1.7v41.4h4.1V13.5z"/>
	<polygon points="57.6,56.9 53.5,56.9 53.5,69.1 69.8,69.1 69.8,56.9 65.7,56.9 63.7,56.9 59.6,56.9 	"/>
	<polygon points="69.8,71.2 53.3,71.2 45.5,122 77.7,122 69.9,71.2 	"/>
</g>
</svg>
