<?xml version="1.0" encoding="utf-8"?>
<!-- Generator: Adobe Illustrator 17.1.0, SVG Export Plug-In . SVG Version: 6.00 Build 0)  -->
<!DOCTYPE svg PUBLIC "-//W3C//DTD SVG 1.1//EN" "http://www.w3.org/Graphics/SVG/1.1/DTD/svg11.dtd">
<svg version="1.1" id="Layer_1" xmlns="http://www.w3.org/2000/svg" xmlns:xlink="http://www.w3.org/1999/xlink" x="0px" y="0px"
	 viewBox="0 0 128 128" enable-background="new 0 0 128 128" xml:space="preserve">
<g>
	<path d="M93.4,71.8c0,2.2-0.3,4.3-0.9,6.2h21.4c0.7-2,1.1-4,1.1-6.2c0-10.4-8.4-18.8-18.8-18.8c-3.7,0-7.1,1.1-10,2.9
		C90.6,59.7,93.4,65.4,93.4,71.8z"/>
	<path d="M52.4,78c-0.6-2-0.9-4.1-0.9-6.2c0-6.6,3.1-12.6,8-16.4c-4.1-6-10.9-9.9-18.7-9.9c-12.5,0-22.6,10.1-22.6,22.6
		c0,3.6,0.9,7,2.4,10H52.4z"/>
	<path d="M53.6,71.8c0,2.2,0.4,4.3,1.1,6.2h6.2h1.2h1.2h12.8h1.1h1.1h11.8c0.7-2,1.1-4,1.1-6.2c0-5.9-2.7-11.2-7-14.6
		c-0.3-0.2-0.6-0.5-0.9-0.7c-0.3-0.2-0.6-0.4-0.9-0.6c-2.9-1.8-6.3-2.9-10-2.9c-3.7,0-7.2,1.1-10.2,3c-0.3,0.2-0.6,0.4-0.9,0.6
		c-0.3,0.2-0.6,0.4-0.9,0.7C56.3,60.6,53.6,65.9,53.6,71.8z"/>
	<path d="M115.4,80h-1.2H113H91.7h-1.2h-1.2H79.2H78h-1.2H62.3h-1.2h-1.3h-4.3h-1.2h-1.2H21.6h-1.3h-1.2h-8c0.3,3.4,1.3,6.7,2.8,10
		h15.5H32h3.6h10.1h3.6H52h10.1h2.4h3.4H77h3.4h2.4h3h2.4h3.4h9.2h3.4h2.4h11c1.6-3.3,2.6-6.6,2.8-10H115.4z"/>
	<path d="M90.6,92H77.9H67H46.6H34.8H14.9c6,10.6,18.3,19.8,33.4,24H83c15.1-4.2,27.4-13.4,33.4-24h-14.8H90.6z"/>
</g>
</svg>
