<?xml version="1.0" encoding="utf-8"?>
<!-- Generator: Adobe Illustrator 17.1.0, SVG Export Plug-In . SVG Version: 6.00 Build 0)  -->
<!DOCTYPE svg PUBLIC "-//W3C//DTD SVG 1.1//EN" "http://www.w3.org/Graphics/SVG/1.1/DTD/svg11.dtd">
<svg version="1.1" id="Layer_1" xmlns="http://www.w3.org/2000/svg" xmlns:xlink="http://www.w3.org/1999/xlink" x="0px" y="0px"
	 viewBox="0 0 128 128" enable-background="new 0 0 128 128" xml:space="preserve">
<path d="M110.5,45.2c2.5-5.8-43.6-16-45.4-10.3c-1.4-4.7-7-0.5-3.8,2.4c-0.8-0.1-1.7,0.6-2.6,2c5.2,0.5,10.7,1.4,13.2,3.2
	c0.6-0.3,1.3-0.5,2-0.5c1.9,0,3.7,1.2,4.2,3c0.1,0.5,0.4,1.8-0.5,3.2c1.8,2.7,2.8,8,3.2,13.9c0.7-0.3,1.5-0.4,2.3-0.2
	c2.1,0.5,3.4,2.5,2.9,4.5s-2.5,3.4-4.5,2.9c-0.1,0-0.2-0.1-0.3-0.1c0,0.8,0,1.6,0,2.4c0,9-0.7,19.3-3.5,23.4
	c0.2,0.4,0.4,0.8,0.4,1.2c10,2,19.6,2.7,21.1,0.5c0.9,3.7,7.5,0.6,3.8-2.8c5.9,1.8,16.1-45,9.9-45.4C117.8,47.1,113.8,42,110.5,45.2
	z M93,82.9c-0.7,0.4-2.9-1.8-4.9-5s-3.2-6.2-2.5-6.6s2.9,1.8,4.9,5C92.5,79.5,93.7,82.5,93,82.9z M94,60.4c-3.2,2.1-6.2,3.2-6.6,2.5
	c-0.4-0.7,1.8-2.9,5-4.9s6.2-3.2,6.6-2.5C99.4,56.1,97.2,58.3,94,60.4z M78.6,63.3c-0.1-2.1-0.4-4.2-0.8-6.2c-0.4-2.1-1-4.1-1.7-6.1
	c-0.5-1.4-1.6-2.8-1.4-2.7c2.7-1.8,1.2-4.2-0.8-4.2c-1.3,0-2.7,1.8-2.5,1.5c0.3-2.2-5.9-3.7-13.8-4.3c-3-0.2-6.2-0.4-9.5-0.4
	s-6.5,0.1-9.5,0.4c-7.9,0.6-14.1,2-13.8,4.3c0.2,0.3-1.2-1.5-2.5-1.5c-2,0-3.5,2.4-0.8,4.2c0.1-0.1-1,1.2-1.4,2.7
	c-0.6,2-1.2,4-1.7,6.1c-0.4,2.1-0.6,4.2-0.8,6.2c-0.2,4.1-0.1,8.3,0,12.3c0.1,4.2,0.3,8.4,1,12.6c0.4,2.4,0.8,5.6,2.5,7.5
	c-0.1,0.1-0.2,0.1-0.2,0.2c-1.9,1.8,0.2,4.1,2.1,4.1c0.7,0,2.1-1.7,1.8-1.3c1.2,2.7,12.2,4,23.2,4c11,0,21.9-1.3,23.2-4
	c-0.2-0.4,1.1,1.3,1.8,1.3c1.9,0,4-2.3,2.1-4.1c-0.1-0.1-0.2-0.1-0.2-0.2c1.7-1.9,2.1-5.1,2.5-7.5c0.7-4.2,0.9-8.4,1-12.6
	C78.7,71.6,78.8,67.4,78.6,63.3z M56.5,61.9c2.7-2.7,5.3-4.4,5.9-3.8c0.6,0.6-1.2,3.2-3.8,5.9c-2.7,2.7-5.3,4.4-5.9,3.8
	C52.1,67.3,53.8,64.6,56.5,61.9z M34,58.1c0.6-0.6,3.2,1.2,5.9,3.8c2.7,2.7,4.4,5.3,3.8,5.9c-0.6,0.6-3.2-1.2-5.9-3.8
	C35.2,61.3,33.5,58.6,34,58.1z M39.9,82.4c-2.7,2.7-5.3,4.4-5.9,3.8s1.2-3.2,3.8-5.9c2.7-2.7,5.3-4.4,5.9-3.8
	C44.4,77,42.6,79.7,39.9,82.4z M49.7,75.3c-0.5,0.2-1,0.3-1.5,0.3c-0.5,0-1-0.1-1.5-0.3c-1.4-0.6-2.3-1.9-2.3-3.5
	c0-1.3,0.7-2.5,1.7-3.2c0.6-0.4,1.3-0.7,2.1-0.7c0.8,0,1.5,0.2,2.1,0.7c1,0.7,1.7,1.8,1.7,3.2C52,73.4,51.1,74.7,49.7,75.3z
	 M62.4,86.2c-0.6,0.6-3.2-1.2-5.9-3.8c-2.7-2.7-4.4-5.3-3.8-5.9c0.6-0.6,3.2,1.2,5.9,3.8C61.2,83,63,85.6,62.4,86.2z"/>
</svg>
