<?xml version="1.0" encoding="utf-8"?>
<!-- Generator: Adobe Illustrator 17.1.0, SVG Export Plug-In . SVG Version: 6.00 Build 0)  -->
<!DOCTYPE svg PUBLIC "-//W3C//DTD SVG 1.1//EN" "http://www.w3.org/Graphics/SVG/1.1/DTD/svg11.dtd">
<svg version="1.1" id="Layer_1" xmlns="http://www.w3.org/2000/svg" xmlns:xlink="http://www.w3.org/1999/xlink" x="0px" y="0px"
	 viewBox="0 0 128 128" enable-background="new 0 0 128 128" xml:space="preserve">
<g>
	<path d="M118.4,21.2h-4.7v5.6h4.7c1.5,0,2.9-1.2,2.9-2.9C121.3,22.5,120.1,21.2,118.4,21.2z"/>
	<path d="M13.7,21.2H9.1c-1.5,0-2.9,1.2-2.9,2.9c0,1.5,1.2,2.9,2.9,2.9h4.7V21.2z"/>
	<rect x="60.9" y="21.2" width="5.6" height="5.6"/>
	<path d="M15.6,110.8c0,1.5,2,2.9,3.9,2.9s3.1-0.8,3.6-1.9c0.1-0.3,0.2-0.6,0.2-1c0,0.3,0.1,0.7,0.3,1c0.8,1.1,2.6,1.9,4.4,1.9
		c1.8,0,3.7-0.8,4.4-1.9c0.2-0.3,0.3-0.6,0.3-1c0,0.3,0.1,0.7,0.3,1c0.8,1.1,2.6,1.9,4.4,1.9s3.7-0.8,4.4-1.9c0.2-0.3,0.3-0.6,0.3-1
		c0,0.3,0.1,0.7,0.3,1c0.8,1.1,2.6,1.9,4.4,1.9s3.7-0.8,4.4-1.9c0.2-0.3,0.3-0.6,0.3-1c0,0.3,0.1,0.7,0.2,1c0.5,1.1,1.7,1.9,3.6,1.9
		c1.8,0,3.1-0.8,3.6-1.9c0.1-0.3,0.2-0.6,0.2-1v-1V33.9c-0.6,0.3-1.3,0.5-1.9,0.5c-0.2,0-0.3,0-0.5,0c-1-0.1-1.7-0.6-2.4-1.2
		c-0.1,0.1-0.2,0.2-0.3,0.3c-0.7,0.7-1.5,1.1-2.6,1.1c-0.2,0-0.3,0-0.5,0c-1-0.1-1.7-0.6-2.4-1.2c-0.1,0.1-0.2,0.2-0.3,0.3
		c-0.1,0.5-1.1,0.9-2,0.9c-0.2,0-0.3,0-0.5,0c-1-0.1-1.7-0.6-2.4-1.2c-0.1,0.1-0.2,0.2-0.3,0.3c-0.7,0.6-1.5,1-2.5,1
		c-0.2,0-0.3,0-0.5,0c-1-0.1-1.7-0.6-2.4-1.2c-0.1,0.1-0.2,0.2-0.3,0.3c-0.7,0.7-1.5,1.1-2.6,1.1c-0.2,0-0.3,0-0.5,0
		c-1-0.1-1.7-0.6-2.4-1.2c-0.1,0.1-0.2,0.2-0.3,0.3c-0.7,0.7-1.5,1.1-2.6,1.1c-0.2,0-0.3,0-0.5,0c-1-0.1-1.7-0.6-2.4-1.2
		c0-0.1-0.1,0-0.1,0.1c-0.7,0.7-1.5,1.1-2.6,1.1c-0.2,0-0.3,0-0.5,0c-1-0.1-1.7-0.6-2.4-1.2c-0.1,0.1-0.2,0.2-0.3,0.3
		c-0.7,0.7-1.5,1.1-2.6,1.1c-0.2,0-0.3,0-0.5,0c-0.5-0.1-1-0.2-1.4-0.5c0,0.4,0,0.4,0,0.4L15.6,110.8L15.6,110.8z"/>
	<path d="M68.4,110.8c0,1.5,2,2.9,3.8,2.9s3.1-0.8,3.6-1.9c0.1-0.3,0.2-0.6,0.2-1c0,0.3,0.1,0.7,0.3,1c0.8,1.1,2.6,1.9,4.4,1.9
		c1.8,0,3.7-0.8,4.4-1.9c0.2-0.3,0.3-0.6,0.3-1c0,0.3,0.1,0.7,0.3,1c0.8,1.1,2.6,1.9,4.4,1.9s3.7-0.8,4.4-1.9c0.2-0.3,0.3-0.6,0.3-1
		c0,0.3,0.1,0.7,0.3,1c0.8,1.1,2.6,1.9,4.4,1.9c1.8,0,3.7-0.8,4.4-1.9c0.2-0.3,0.3-0.6,0.3-1c0,0.3,0.1,0.7,0.2,1
		c0.5,1.1,1.7,1.9,3.6,1.9c1.8,0,3.1-0.8,3.6-1.9c0.1-0.3,0.2-0.6,0.2-1v-1V33.9c-0.6,0.3-1.3,0.5-1.9,0.5c-0.2,0-0.3,0-0.5,0
		c-1-0.1-1.7-0.6-2.4-1.2c-0.1,0.1-0.2,0.2-0.3,0.3c-0.7,0.7-1.5,1.1-2.6,1.1c-0.2,0-0.3,0-0.5,0c-1-0.1-1.7-0.6-2.4-1.2
		c-0.1,0.1-0.2,0.2-0.3,0.3c-0.1,0.5-1.1,0.9-2,0.9c-0.2,0-0.3,0-0.5,0c-1-0.1-1.7-0.6-2.4-1.2c-0.1,0.1-0.2,0.2-0.3,0.3
		c-0.7,0.6-1.5,1-2.5,1c-0.2,0-0.3,0-0.5,0c-1-0.1-1.7-0.6-2.4-1.2c-0.1,0.1-0.2,0.2-0.3,0.3c-0.7,0.7-1.5,1.1-2.6,1.1
		c-0.2,0-0.3,0-0.5,0c-1-0.1-1.7-0.6-2.4-1.2c-0.1,0.1-0.2,0.2-0.3,0.3c-0.7,0.7-1.5,1.1-2.6,1.1c-0.2,0-0.3,0-0.5,0
		c-1-0.1-1.7-0.6-2.4-1.2c0-0.1-0.1,0-0.1,0.1c-0.7,0.7-1.5,1.1-2.6,1.1c-0.2,0-0.3,0-0.5,0c-1-0.1-1.7-0.6-2.4-1.2
		c-0.1,0.1-0.2,0.2-0.3,0.3c-0.7,0.7-1.5,1.1-2.6,1.1c-0.2,0-0.3,0-0.5,0c-0.5-0.1-1-0.2-1.4-0.5c0,0.4,0,0.4,0,0.4L68.4,110.8
		L68.4,110.8z"/>
	<g>
		<path d="M17.6,15.6c-1,0-1.7,0.7-1.8,1.5v13.6c0,1.1,0.9,1.9,1.8,1.9s1.9-0.9,1.9-1.9V17.4C19.4,16.5,18.5,15.6,17.6,15.6z"/>
		<path d="M23.2,15.6c-1,0-1.7,0.7-1.8,1.5v13.6c0,1.1,0.9,1.9,1.8,1.9s1.9-0.9,1.9-1.9V17.4C25,16.5,24.2,15.6,23.2,15.6z"/>
		<path d="M28.8,15.6c-1,0-1.7,0.7-1.8,1.5v13.6c0,1.1,0.9,1.9,1.8,1.9s1.9-0.9,1.9-1.9V17.4C30.7,16.5,29.9,15.6,28.8,15.6z"/>
		<path d="M34.5,15.6c-1,0-1.7,0.7-1.8,1.5v13.6c0,1.1,0.9,1.9,1.8,1.9c1,0,1.9-0.9,1.9-1.9V17.4C36.4,16.5,35.5,15.6,34.5,15.6z"/>
		<path d="M40.1,15.6c-1,0-1.7,0.7-1.8,1.5v13.6c0,1.1,0.9,1.9,1.8,1.9c1,0,1.9-0.9,1.9-1.9V17.4C42,16.5,41.2,15.6,40.1,15.6z"/>
		<path d="M45.8,15.6c-1,0-1.7,0.7-1.8,1.5v13.6c0,1.1,0.9,1.9,1.8,1.9c1.1,0,1.9-0.9,1.9-1.9V17.4C47.7,16.5,46.9,15.6,45.8,15.6z"
			/>
		<path d="M51.5,15.6c-1,0-1.7,0.7-1.8,1.5v13.6c0,1.1,0.9,1.9,1.8,1.9c1,0,1.9-0.9,1.9-1.9V17.4C53.4,16.5,52.5,15.6,51.5,15.6z"/>
		<path d="M57.1,15.6c-1,0-1.7,0.7-1.8,1.5v13.6c0,1.1,0.9,1.9,1.8,1.9c1.1,0,1.9-0.9,1.9-1.9V17.4C59,16.5,58.2,15.6,57.1,15.6z"/>
	</g>
	<g>
		<path d="M70.2,15.6c-1,0-1.7,0.7-1.8,1.5v13.6c0,1.1,0.9,1.9,1.8,1.9s1.9-0.9,1.9-1.9V17.4C72.1,16.5,71.2,15.6,70.2,15.6z"/>
		<path d="M75.8,15.6c-1,0-1.7,0.7-1.8,1.5v13.6c0,1.1,0.9,1.9,1.8,1.9c1,0,1.9-0.9,1.9-1.9V17.4C77.7,16.5,76.9,15.6,75.8,15.6z"/>
		<path d="M81.5,15.6c-1,0-1.7,0.7-1.8,1.5v13.6c0,1.1,0.9,1.9,1.8,1.9c1,0,1.9-0.9,1.9-1.9V17.4C83.4,16.5,82.5,15.6,81.5,15.6z"/>
		<path d="M87.2,15.6c-1,0-1.7,0.7-1.8,1.5v13.6c0,1.1,0.9,1.9,1.8,1.9s1.9-0.9,1.9-1.9V17.4C89,16.5,88.2,15.6,87.2,15.6z"/>
		<path d="M92.8,15.6c-1,0-1.7,0.7-1.8,1.5v13.6c0,1.1,0.9,1.9,1.8,1.9s1.9-0.9,1.9-1.9V17.4C94.7,16.5,93.9,15.6,92.8,15.6z"/>
		<path d="M98.5,15.6c-1,0-1.7,0.7-1.8,1.5v13.6c0,1.1,0.9,1.9,1.8,1.9c1,0,1.9-0.9,1.9-1.9V17.4C100.4,16.5,99.5,15.6,98.5,15.6z"
			/>
		<path d="M104.1,15.6c-1,0-1.7,0.7-1.8,1.5v13.6c0,1.1,0.9,1.9,1.8,1.9c1,0,1.9-0.9,1.9-1.9V17.4C106,16.5,105.2,15.6,104.1,15.6z"
			/>
		<path d="M109.8,15.6c-1,0-1.7,0.7-1.8,1.5v13.6c0,1.1,0.9,1.9,1.8,1.9s1.9-0.9,1.9-1.9V17.4C111.7,16.5,110.9,15.6,109.8,15.6z"/>
	</g>
</g>
</svg>
