<?xml version="1.0" encoding="iso-8859-1"?>
<!-- Generator: Adobe Illustrator 17.1.0, SVG Export Plug-In . SVG Version: 6.00 Build 0)  -->
<!DOCTYPE svg PUBLIC "-//W3C//DTD SVG 1.1//EN" "http://www.w3.org/Graphics/SVG/1.1/DTD/svg11.dtd">
<svg version="1.1" id="Layer_1" xmlns="http://www.w3.org/2000/svg" xmlns:xlink="http://www.w3.org/1999/xlink" x="0px" y="0px"
	 viewBox="0 0 64 64" style="enable-background:new 0 0 64 64;" xml:space="preserve">
<g>
	<path d="M51.076,22h-7H20.924h-7h-6l1.002,7.015C8.41,29.055,8,29.474,8,30v13c0,0.552,0.447,1,1,1s1-0.448,1-1v-6.468
		l2.008,14.054C12.688,54.482,15.237,57,18.5,57h6h7H32h1h0.5h7h7c3.57,0,5.69-3.293,6.495-6.429L56,36.535V43c0,0.552,0.447,1,1,1
		s1-0.448,1-1V30c0-0.526-0.41-0.945-0.926-0.985L58.076,22H51.076z M43.933,23h5.99l-0.857,6h-5.991L43.933,23z M48.924,30
		l-0.714,5h-5.991l0.714-5H48.924z M33,41v-5h5h3.068l-0.714,5H33z M40.211,42l-0.714,5H33v-5H40.211z M40.22,35
		c0.48-0.532,0.78-1.229,0.78-2v-3h0.924l-0.714,5H40.22z M41.219,42h5.992l-0.714,5h-5.992L41.219,42z M41.362,41l0.714-5h5.992
		l-0.714,5H41.362z M33,23h9.924l-0.857,6H41v-1c0-1.654-1.346-3-3-3h-5V23z M32,23v2h-5c-1.654,0-3,1.346-3,3v1h-1.067l-0.857-6H32
		z M23.781,42l0.714,5h-5.99l-0.714-5H23.781z M17.648,41l-0.714-5h5.99l0.714,5H17.648z M23.076,30H24v3
		c0,0.771,0.301,1.468,0.78,2h-0.99L23.076,30z M22.781,35h-5.99l-0.714-5h5.99L22.781,35z M21.067,23l0.857,6h-5.99l-0.857-6
		H21.067z M9.933,29l-0.857-6h4.991l0.857,6H9.933z M10.076,30h4.99l0.714,5h-4.99L10.076,30z M10.934,36h4.99l0.714,5h-4.99
		L10.934,36z M11.791,42h4.99l0.714,5h-4.99L11.791,42z M18.5,56c-3.34,0-5.035-2.886-5.505-5.571L12.648,48h4.99l0.369,2.586
		c0.426,2.437,1.582,4.334,3.187,5.414H18.5z M24.5,56c-3.34,0-5.035-2.886-5.505-5.571L18.648,48h5.99l0.369,2.586
		c0.426,2.437,1.582,4.334,3.187,5.414H24.5z M32,56h-0.5c-3.34,0-5.035-2.886-5.505-5.571L25.648,48H32V56z M32,47h-6.495l-0.714-5
		H32V47z M32,41h-7.352l-0.714-5H27h5V41z M32,34h-5c-0.552,0-1-0.449-1-1v-3v-1v-1c0-0.551,0.448-1,1-1h4.127
		c-0.026,0.107-0.044,0.218-0.044,0.333c0,0.606,0.382,1.119,0.917,1.321c0.156,0.059,0.323,0.095,0.5,0.095s0.344-0.036,0.5-0.095
		c0.535-0.203,0.917-0.716,0.917-1.321c0-0.115-0.018-0.226-0.044-0.333H38c0.552,0,1,0.449,1,1v1v1v3c0,0.551-0.448,1-1,1h-5H32z
		 M33,56v-8h6.355l-0.339,2.375C38.315,53.094,36.498,56,33.5,56H33z M36.622,56c1.726-1.213,2.84-3.352,3.373-5.429L40.362,48
		h5.992l-0.339,2.375C45.315,53.094,43.498,56,40.5,56H36.622z M53.016,50.375C52.315,53.094,50.498,56,47.5,56h-3.878
		c1.726-1.213,2.84-3.352,3.373-5.429L47.362,48h5.992L53.016,50.375z M53.497,47h-5.992l0.714-5h5.992L53.497,47z M54.354,41
		h-5.992l0.714-5h5.992L54.354,41z M55.211,35h-5.991l0.714-5h5.991L55.211,35z M56.067,29h-5.991l0.857-6h5.99L56.067,29z"/>
</g>
</svg>
