<?xml version="1.0" encoding="iso-8859-1"?>
<!-- Generator: Adobe Illustrator 17.1.0, SVG Export Plug-In . SVG Version: 6.00 Build 0)  -->
<!DOCTYPE svg PUBLIC "-//W3C//DTD SVG 1.1//EN" "http://www.w3.org/Graphics/SVG/1.1/DTD/svg11.dtd">
<svg version="1.1" id="Layer_1" xmlns="http://www.w3.org/2000/svg" xmlns:xlink="http://www.w3.org/1999/xlink" x="0px" y="0px"
	 viewBox="0 0 64 64" style="enable-background:new 0 0 64 64;" xml:space="preserve">
<g>
	<rect x="5" y="8" width="10" height="5"/>
	<path d="M15,15H5v34h10V15z M9.958,45.833c-1.726,0-3.125-1.399-3.125-3.125s1.399-3.125,3.125-3.125s3.125,1.399,3.125,3.125
		S11.684,45.833,9.958,45.833z"/>
	<rect x="5" y="51" width="10" height="4"/>
	<path d="M17,51v4h13v-4.723C29.47,49.897,27.82,49,24,49c-3.621,0-5.934,0.812-7,1.301V51z"/>
	<path d="M30,21.551V18H17v3.533c1.066,0.488,3.379,1.301,7,1.301C27.796,22.833,29.449,21.948,30,21.551z"/>
	<path d="M17,48.135C18.448,47.593,20.767,47,24,47c2.918,0,4.81,0.488,6,1.008V23.825c-1.19,0.52-3.082,1.008-6,1.008
		c-3.233,0-5.552-0.593-7-1.135V48.135z"/>
	<rect x="45.779" y="7.429" transform="matrix(-0.201 -0.9796 0.9796 -0.201 47.2774 60.4188)" width="5" height="7"/>
	<path d="M59.446,47.94l-6.834-33.307l-6.857,1.407l6.834,33.307L59.446,47.94z M54.052,39.433c1.318-0.27,2.668,0.881,3.015,2.571
		c0.347,1.691-0.441,3.281-1.759,3.551c-1.318,0.271-2.668-0.881-3.015-2.571C51.946,41.294,52.734,39.704,54.052,39.433z"/>
	<rect x="54.822" y="49.061" transform="matrix(-0.201 -0.9796 0.9796 -0.201 16.7537 118.7877)" width="4" height="7"/>
	<rect x="33" y="8" width="10" height="5"/>
	<rect x="33" y="51" width="10" height="4"/>
	<rect x="33" y="20" width="10" height="24"/>
	<rect x="33" y="46" width="10" height="3"/>
	<rect x="33" y="15" width="10" height="3"/>
</g>
</svg>
