<?xml version="1.0" encoding="utf-8"?>
<!-- Generator: Adobe Illustrator 17.1.0, SVG Export Plug-In . SVG Version: 6.00 Build 0)  -->
<!DOCTYPE svg PUBLIC "-//W3C//DTD SVG 1.1//EN" "http://www.w3.org/Graphics/SVG/1.1/DTD/svg11.dtd">
<svg version="1.1" id="Layer_1" xmlns="http://www.w3.org/2000/svg" xmlns:xlink="http://www.w3.org/1999/xlink" x="0px" y="0px"
	 viewBox="0 0 128 128" enable-background="new 0 0 128 128" xml:space="preserve">
<g>
	<path fill="#1D1D1B" d="M64,7.8c-32,0-58,26-58,58s26,58,58,58s58-26,58-58S96,7.8,64,7.8z M64,111.8c-25.4,0-46-20.6-46-46
		s20.6-46,46-46s46,20.6,46,46S89.4,111.8,64,111.8z"/>
	<rect x="60" y="24" fill="#1D1D1B" width="6" height="12"/>
	<rect x="92" y="62" fill="#1D1D1B" width="12" height="6"/>
	<rect x="22" y="62" fill="#1D1D1B" width="12" height="6"/>
	<rect x="60" y="94" fill="#1D1D1B" width="6" height="12"/>
	<circle fill="#1D1D1B" cx="84.5" cy="36.8" r="3.2"/>
	<circle fill="#1D1D1B" cx="94.5" cy="48.8" r="3.2"/>
	<circle fill="#1D1D1B" cx="32.5" cy="84.8" r="3.2"/>
	<circle fill="#1D1D1B" cx="42.5" cy="96.8" r="3.2"/>
	<circle fill="#1D1D1B" cx="93.5" cy="85.8" r="3.2"/>
	<circle fill="#1D1D1B" cx="81.5" cy="95.8" r="3.2"/>
	<circle fill="#1D1D1B" cx="33.5" cy="45.8" r="3.2"/>
	<circle fill="#1D1D1B" cx="45.5" cy="35.8" r="3.2"/>
	<path fill="#1D1D1B" d="M81.3,68c0-1.7-1.3-3-3-3H66V42.6c0-1.7-1.3-3-3-3c-1.7,0-3,1.3-3,3V68c0,1.7,1.3,3,3,3h15.3
		C80,71,81.3,69.7,81.3,68z"/>
</g>
</svg>
