<?xml version="1.0" encoding="iso-8859-1"?>
<!-- Generator: Adobe Illustrator 17.1.0, SVG Export Plug-In . SVG Version: 6.00 Build 0)  -->
<!DOCTYPE svg PUBLIC "-//W3C//DTD SVG 1.1//EN" "http://www.w3.org/Graphics/SVG/1.1/DTD/svg11.dtd">
<svg version="1.1" id="Layer_1" xmlns="http://www.w3.org/2000/svg" xmlns:xlink="http://www.w3.org/1999/xlink" x="0px" y="0px"
	 viewBox="0 0 64 64" style="enable-background:new 0 0 64 64;" xml:space="preserve">
<g>
	<path d="M40,26c0,1.657-1.343,3-3,3H22c-1.657,0-3-1.343-3-3c0-0.353,0.072-0.686,0.184-1H8v27h45V25H39.816
		C39.928,25.314,40,25.647,40,26z M14,51H9v-5h1v4h4V51z M47,50h4v-4h1v5h-5V50z"/>
	<polygon points="5,23 22,23 37,23 56,23 56,17 5,17 	"/>
</g>
</svg>
