<?xml version="1.0" encoding="utf-8"?>
<!-- Generator: Adobe Illustrator 17.1.0, SVG Export Plug-In . SVG Version: 6.00 Build 0)  -->
<!DOCTYPE svg PUBLIC "-//W3C//DTD SVG 1.1//EN" "http://www.w3.org/Graphics/SVG/1.1/DTD/svg11.dtd">
<svg version="1.1" id="Layer_1" xmlns="http://www.w3.org/2000/svg" xmlns:xlink="http://www.w3.org/1999/xlink" x="0px" y="0px"
	 viewBox="0 0 128 128" enable-background="new 0 0 128 128" xml:space="preserve">
<path d="M65.2,32.9h2.6c-0.3-0.6-0.6-1.3-0.6-2h-6.1c0,0.7-0.2,1.4-0.6,2h2.6v77h-33c0.1,0.7,0.1,1.4,0.2,2H98
	c0.1-0.6,0.1-1.3,0.2-2h-33V32.9z"/>
<path d="M113.8,34.9c-0.2,0-0.3,0-0.5-0.1c-1-0.1-1.9-0.6-2.5-1.3c-0.1,0.1-0.2,0.2-0.3,0.3c-0.2,0.2-0.5,0.4-0.7,0.5
	c-0.6,0.3-1.3,0.6-2,0.6c-0.2,0-0.3,0-0.5-0.1c-1-0.1-1.9-0.6-2.5-1.3c-0.1,0.1-0.2,0.2-0.3,0.3c-0.7,0.7-1.7,1.1-2.8,1.1
	c-0.2,0-0.3,0-0.5-0.1c-1-0.1-1.9-0.6-2.5-1.3c0,0-0.2,0.2-0.3,0.3c-0.7,0.7-1.7,1.1-2.8,1.1c-0.2,0-0.3,0-0.5-0.1
	c-1-0.1-1.9-0.6-2.5-1.3c-0.1,0.1-0.3,0.3-0.3,0.3c-0.7,0.7-1.7,1.1-2.8,1.1c-0.2,0-0.3,0-0.5-0.1c-1-0.1-1.9-0.6-2.5-1.3
	c-0.1,0.1-0.2,0.2-0.3,0.3c-0.7,0.7-1.7,1.1-2.8,1.1c-0.2,0-0.3,0-0.5-0.1c-1-0.1-1.9-0.6-2.5-1.3c-0.1,0.1-0.2,0.2-0.3,0.3
	c-0.7,0.7-1.7,1.1-2.8,1.1c-0.2,0-0.3,0-0.5-0.1c-1-0.1-1.9-0.6-2.5-1.3c-0.1,0.1-0.2,0.2-0.3,0.3c-0.7,0.7-1.7,1.1-2.8,1.1
	c-0.2,0-0.3,0-0.5-0.1c-0.2,0-0.3,0-0.5-0.1c0,0,0,0.1,0,0.1c2.4,11.4,9.6,32.9,30.8,37.9c0.5-0.8,1.5-1.4,2.5-1.4h12.2v-37
	C115.3,34.7,114.6,34.9,113.8,34.9z"/>
<path d="M115.9,81.5h-6.1h-2c-0.5,0-1-0.1-1.4-0.3c-3.4,8.5-5.2,20.9-6.1,28.7c-0.1,0.7-0.1,1.4-0.2,2c-0.2,1.8-0.3,3.2-0.4,4.1
	h16.1V81.5z"/>
<path d="M115.9,73.4h-6.1h-2h-3h-1c-0.6,0-1,0.5-1,1c0,0.3,0.1,0.6,0.4,0.8c0,0,0,0,0.1,0c0.1,0,0.1,0.1,0.2,0.1
	c0.1,0,0.3,0.1,0.4,0.1h0.9h0h3.1h1.7h0.4h6.1c0.1,0,0.3-0.1,0.4-0.1c0.4-0.2,0.6-0.5,0.6-0.9C116.9,73.9,116.4,73.4,115.9,73.4z"/>
<path d="M116.3,79.4c0.4-0.2,0.6-0.5,0.6-0.9c0-0.6-0.5-1-1-1h-6.1h-1.6h-0.4c-0.1,0-0.1,0-0.2,0c-0.5,0.1-0.8,0.5-0.8,1
	c0,0.1,0,0.2,0.1,0.3c0.1,0.2,0.2,0.4,0.4,0.5c0.1,0,0.1,0.1,0.2,0.1c0.1,0,0.3,0.1,0.4,0.1h2h6.1C116,79.5,116.1,79.5,116.3,79.4z"
	/>
<path d="M28.3,111.9c-0.1-0.6-0.1-1.3-0.2-2c-0.8-7.2-2.4-18.6-5.4-27c-0.2-0.6-0.4-1.2-0.7-1.8c-0.4,0.2-0.9,0.3-1.4,0.3h-8.1V116
	h16.1C28.6,115.1,28.5,113.7,28.3,111.9z"/>
<polygon points="61.2,26.8 67.2,26.8 67.2,26.8 67.2,20.7 61.1,20.7 61.1,26.8 "/>
<path d="M123,20.7h-5.1v6.1h5.1c1.7,0,3-1.4,3-3C126,22.1,124.6,20.7,123,20.7z"/>
<path d="M10.5,20.7H5.4c-1.7,0-3,1.4-3,3c0,1.7,1.4,3,3,3h5.1V20.7z"/>
<path d="M12.5,75.5h6.4h1.7h2h1.1h0h0.9c0.1,0,0.3-0.1,0.4-0.1c0.1,0,0.1-0.1,0.2-0.1c0,0,0,0,0.1,0c0.2-0.2,0.4-0.5,0.4-0.8
	c0-0.6-0.5-1-1-1h-1h-1h-2h-8.1c-0.6,0-1,0.5-1,1c0,0.4,0.3,0.8,0.6,0.9C12.2,75.4,12.4,75.5,12.5,75.5z"/>
<path d="M12.1,79.4c0.1,0,0.3,0.1,0.4,0.1h8.1c0.1,0,0.3,0,0.4-0.1c0.1,0,0.1-0.1,0.2-0.1c0.2-0.1,0.3-0.3,0.4-0.5
	c0-0.1,0.1-0.2,0.1-0.3c0-0.5-0.3-0.9-0.8-1c-0.1,0-0.1,0-0.2,0h-0.4h-7.7c-0.6,0-1,0.5-1,1C11.5,78.9,11.7,79.3,12.1,79.4z"/>
<path d="M42.9,66.9c0,0.1,0.1,0.1,0.1,0.2c0.6,0.7,1.4,1.4,2.2,2.2c2.9,2.8,5.6,4.8,5.9,4.4c0.3-0.4-1.8-2.9-4.7-5.7
	c-0.8-0.7-1.5-1.4-2.2-2c-0.1,0-0.1-0.1-0.2-0.1c-0.5-0.4-1-0.8-1.5-1.2c9.7-8.8,13.8-21.9,15.4-29.9c-0.3,0.1-0.6,0.1-1,0.1
	c-0.2,0-0.3,0-0.5-0.1c-1-0.1-1.9-0.6-2.5-1.3c-0.1,0.1-0.2,0.2-0.3,0.3c-0.7,0.7-1.7,1.1-2.8,1.1c-0.2,0-0.3,0-0.5-0.1
	c-1-0.1-1.9-0.6-2.5-1.3c-0.1,0.1-0.2,0.2-0.3,0.3c-0.7,0.7-1.7,1.1-2.8,1.1c-0.2,0-0.3,0-0.5-0.1c-1-0.1-1.9-0.6-2.5-1.3
	c-0.1,0.1-0.2,0.2-0.3,0.3c-0.7,0.7-1.7,1.1-2.8,1.1c-0.2,0-0.3,0-0.5-0.1c-1-0.1-1.9-0.6-2.5-1.3c-0.1,0.1-0.2,0.2-0.3,0.3
	c-0.7,0.7-1.7,1.1-2.8,1.1c-0.2,0-0.3,0-0.5-0.1c-1-0.1-1.9-0.6-2.5-1.3c-0.1,0.1-0.2,0.2-0.3,0.3c-0.7,0.7-1.7,1.1-2.8,1.1
	c-0.2,0-0.3,0-0.5-0.1c-1-0.1-1.9-0.6-2.5-1.3c-0.1,0.1-0.2,0.2-0.3,0.3c-0.2,0.2-0.5,0.4-0.7,0.5c-0.6,0.3-1.3,0.6-2,0.6
	c-0.2,0-0.3,0-0.5-0.1c-1-0.1-1.9-0.6-2.5-1.3c-0.1,0.1-0.2,0.2-0.3,0.3c-0.7,0.7-1.7,1.1-2.8,1.1c-0.2,0-0.3,0-0.5-0.1
	c-0.5-0.1-1.1-0.2-1.5-0.5c0,0.2,0,0.4,0,0.4v36.7h8.1h2h2c1.1,0,2,0.5,2.5,1.4c5.8-1.4,10.6-3.9,14.5-7.2
	C42,66,42.4,66.5,42.9,66.9z"/>
<ellipse transform="matrix(-0.6872 0.7264 -0.7264 -0.6872 134.5164 99.6101)" cx="45.8" cy="78.8" rx="0.9" ry="7.3"/>
<ellipse transform="matrix(-0.6872 0.7264 -0.7264 -0.6872 202.9078 70.1684)" cx="86.3" cy="78.8" rx="0.9" ry="7.3"/>
<ellipse transform="matrix(-0.6872 0.7264 -0.7264 -0.6872 197.0203 56.4911)" cx="86.3" cy="70.7" rx="0.9" ry="7.3"/>
<g>
	<path d="M14.5,14.7c-1,0-1.8,0.7-2,1.7v14.6c0,1.1,0.9,2,2,2s2-0.9,2-2V16.7C16.5,15.6,15.6,14.7,14.5,14.7z"/>
	<path d="M20.6,14.7c-1,0-1.8,0.7-2,1.7v14.6c0,1.1,0.9,2,2,2s2-0.9,2-2V16.7C22.6,15.6,21.7,14.7,20.6,14.7z"/>
	<path d="M26.6,14.7c-1,0-1.8,0.7-2,1.7v14.6c0,1.1,0.9,2,2,2s2-0.9,2-2V16.7C28.7,15.6,27.8,14.7,26.6,14.7z"/>
	<path d="M32.7,14.7c-1,0-1.8,0.7-2,1.7v14.6c0,1.1,0.9,2,2,2s2-0.9,2-2V16.7C34.7,15.6,33.8,14.7,32.7,14.7z"/>
	<path d="M38.8,14.7c-1,0-1.8,0.7-2,1.7v14.6c0,1.1,0.9,2,2,2s2-0.9,2-2V16.7C40.8,15.6,39.9,14.7,38.8,14.7z"/>
	<path d="M44.9,14.7c-1,0-1.8,0.7-2,1.7v14.6c0,1.1,0.9,2,2,2s2-0.9,2-2V16.7C46.9,15.6,46,14.7,44.9,14.7z"/>
	<path d="M51,14.7c-1,0-1.8,0.7-2,1.7v14.6c0,1.1,0.9,2,2,2s2-0.9,2-2V16.7C53,15.6,52.1,14.7,51,14.7z"/>
	<path d="M57,14.7c-1,0-1.8,0.7-2,1.7v14.6c0,1.1,0.9,2,2,2s2-0.9,2-2V16.7C59.1,15.6,58.2,14.7,57,14.7z"/>
</g>
<g>
	<path d="M71.2,14.7c-1,0-1.8,0.7-2,1.7v14.6c0,1.1,0.9,2,2,2c1.1,0,2-0.9,2-2V16.7C73.3,15.6,72.4,14.7,71.2,14.7z"/>
	<path d="M77.3,14.7c-1,0-1.8,0.7-2,1.7v14.6c0,1.1,0.9,2,2,2c1.1,0,2-0.9,2-2V16.7C79.3,15.6,78.4,14.7,77.3,14.7z"/>
	<path d="M83.4,14.7c-1,0-1.8,0.7-2,1.7v14.6c0,1.1,0.9,2,2,2c1.1,0,2-0.9,2-2V16.7C85.4,15.6,84.5,14.7,83.4,14.7z"/>
	<path d="M89.5,14.7c-1,0-1.8,0.7-2,1.7v14.6c0,1.1,0.9,2,2,2c1.1,0,2-0.9,2-2V16.7C91.5,15.6,90.6,14.7,89.5,14.7z"/>
	<path d="M95.5,14.7c-1,0-1.8,0.7-2,1.7v14.6c0,1.1,0.9,2,2,2c1.1,0,2-0.9,2-2V16.7C97.6,15.6,96.7,14.7,95.5,14.7z"/>
	<path d="M101.6,14.7c-1,0-1.8,0.7-2,1.7v14.6c0,1.1,0.9,2,2,2c1.1,0,2-0.9,2-2V16.7C103.7,15.6,102.7,14.7,101.6,14.7z"/>
	<path d="M107.7,14.7c-1,0-1.8,0.7-2,1.7v14.6c0,1.1,0.9,2,2,2c1.1,0,2-0.9,2-2V16.7C109.7,15.6,108.8,14.7,107.7,14.7z"/>
	<path d="M113.8,14.7c-1,0-1.8,0.7-2,1.7v14.6c0,1.1,0.9,2,2,2c1.1,0,2-0.9,2-2V16.7C115.8,15.6,114.9,14.7,113.8,14.7z"/>
</g>
</svg>
