<?xml version="1.0" encoding="iso-8859-1"?>
<!-- Generator: Adobe Illustrator 17.1.0, SVG Export Plug-In . SVG Version: 6.00 Build 0)  -->
<!DOCTYPE svg PUBLIC "-//W3C//DTD SVG 1.1//EN" "http://www.w3.org/Graphics/SVG/1.1/DTD/svg11.dtd">
<svg version="1.1" id="Layer_1" xmlns="http://www.w3.org/2000/svg" xmlns:xlink="http://www.w3.org/1999/xlink" x="0px" y="0px"
	 viewBox="0 0 64 64" style="enable-background:new 0 0 64 64;" xml:space="preserve">
<g>
	<path d="M47.181,29c-1.538,1.476-2.514,3.637-2.514,6.052c0,2.359,0.933,4.475,2.409,5.948H49c0,0.552,0.448,1,1,1h0.839
		l-0.822,4.313L50,46.5c0,0.71-0.564,1.5-0.946,1.5H32v-6h1c0.552,0,1-0.448,1-1h1.966c1.477-1.473,2.409-3.588,2.409-5.948
		c0-2.415-0.976-4.576-2.514-6.052H32V16h1c0.552,0,1-0.448,1-1h4l2-4H22l2,4h4c0,0.552,0.448,1,1,1h1v13h-3.819
		c-1.538,1.476-2.514,3.637-2.514,6.052c0,2.359,0.933,4.475,2.409,5.948H28c0,0.552,0.448,1,1,1h1v6H13.32
		C12.802,48,12,47.089,12,46.5L11.15,42H12c0.552,0,1-0.448,1-1h1.966c1.477-1.473,2.409-3.588,2.409-5.948
		c0-2.415-0.976-4.576-2.514-6.052h-9.68c-1.538,1.476-2.514,3.637-2.514,6.052c0,2.359,0.933,4.475,2.409,5.948H7
		c0,0.552,0.448,1,1,1h1.125l0.877,4.606C10.071,48.275,11.74,50,13.32,50h35.734c1.651,0,2.894-1.772,2.945-3.397L52.875,42H54
		c0.552,0,1-0.448,1-1h1.966c1.477-1.473,2.409-3.588,2.409-5.948c0-2.415-0.976-4.576-2.514-6.052H47.181z"/>
</g>
</svg>
