<?xml version="1.0" encoding="utf-8"?>
<!-- Generator: Adobe Illustrator 17.1.0, SVG Export Plug-In . SVG Version: 6.00 Build 0)  -->
<!DOCTYPE svg PUBLIC "-//W3C//DTD SVG 1.1//EN" "http://www.w3.org/Graphics/SVG/1.1/DTD/svg11.dtd">
<svg version="1.1" id="Layer_1" xmlns="http://www.w3.org/2000/svg" xmlns:xlink="http://www.w3.org/1999/xlink" x="0px" y="0px"
	 viewBox="0 0 128 128" enable-background="new 0 0 128 128" xml:space="preserve">
<g>
	<rect x="32" y="122" width="10" height="4"/>
	<rect x="80" y="122" width="10" height="4"/>
	<path d="M90,0H32v16v46v58h58V0z M82,110H40V80h42V110z M82,74H40V62V44h4h38V74z M82,38H44h-4V16V8h42V38z"/>
	<polygon points="46,36 46,12 42,12 42,16 42,36 44,36 	"/>
	<rect x="48" y="12" width="4" height="24"/>
	<rect x="48" y="22" transform="matrix(-0.4177 -0.9086 0.9086 -0.4177 63.258 88.543)" width="24" height="4"/>
	<path d="M59.7,64.5c0,6.9,5.7,7.7,8.2,7.7c-0.5,0,0.8,0,0.3,0c2.5,0,8.3-0.8,8.3-7.7c0-8.8-5.6-4.8-5.6-9.9S73,48,73,48h1
		c0.6,0,1-0.4,1-1s-0.4-1-1-1H62c-0.6,0-1,0.4-1,1s0.4,1,1,1h0.9c0,0,2.4,1.4,2.4,6.6S59.7,55.6,59.7,64.5z"/>
</g>
</svg>
