<?xml version="1.0" encoding="utf-8"?>
<!-- Generator: Adobe Illustrator 17.1.0, SVG Export Plug-In . SVG Version: 6.00 Build 0)  -->
<!DOCTYPE svg PUBLIC "-//W3C//DTD SVG 1.1//EN" "http://www.w3.org/Graphics/SVG/1.1/DTD/svg11.dtd">
<svg version="1.1" id="Layer_1" xmlns="http://www.w3.org/2000/svg" xmlns:xlink="http://www.w3.org/1999/xlink" x="0px" y="0px"
	 viewBox="0 0 128 128" enable-background="new 0 0 128 128" xml:space="preserve">
<g>
	<polygon points="84.2,93.8 82.5,93.8 80.1,93.8 78.6,93.8 76.5,93.8 72.6,93.8 70.8,93.8 66.7,93.8 63.7,93.8 59.7,93.8 57.9,93.8 
		54,93.8 51.9,93.8 50.4,93.8 48,93.8 45.9,93.8 50.9,121 79.2,121 	"/>
	<path d="M53,39.6c-1.1,0-2,13.2-2,29.4c0,3.7,0,7.2,0.1,10.4h3.7c0.1-3.2,0.1-6.7,0.1-10.4C54.9,52.7,54,39.6,53,39.6z"/>
	<path d="M58.3,46.8c-1.1,0-1.9,11.2-1.7,24.9c0,2.7,0.1,5.2,0.2,7.6h3.7c0-2.4,0-5,0-7.7C60.4,58,59.4,46.8,58.3,46.8z"/>
	<path d="M45.9,54.6c-1.1,0-1.1,9.9-0.1,22c0.1,1,0.2,1.9,0.3,2.8h3.9c-0.1-1-0.1-2-0.2-3C48.7,64.3,47,54.5,45.9,54.6z"/>
	<path d="M75.6,69c0,3.7,0,7.2,0.1,10.4h3.7c0.1-3.2,0.1-6.7,0.1-10.4c0-16.2-0.9-29.4-2-29.4C76.5,39.6,75.6,52.7,75.6,69z"/>
	<path d="M72.2,46.8c-1.1,0-2.1,11.1-2.2,24.9c0,2.7,0,5.2,0,7.7h3.7c0.1-2.4,0.1-5,0.2-7.6C74.1,58,73.3,46.8,72.2,46.8z"/>
	<path d="M84.7,76.5c1-12.1,1-21.9-0.1-22c-1.1,0-2.8,9.7-3.8,21.8c-0.1,1-0.2,2-0.2,3h3.9C84.6,78.4,84.7,77.5,84.7,76.5z"/>
	<polygon points="43.7,92 45.5,92 47.7,92 50.4,92 51.7,92 54.2,92 57.6,92 59.9,92 63.6,92 66.9,92 70.6,92 72.9,92 76.3,92 
		78.8,92 80.1,92 82.8,92 84.6,92 86.5,92 87.6,81.2 84.3,81.2 80.5,81.2 79.3,81.2 75.8,81.2 73.7,81.2 70.1,81.2 67.4,81.2 
		63,81.2 60.4,81.2 56.8,81.2 54.7,81.2 51.2,81.2 50,81.2 46.2,81.2 42.4,81.2 	"/>
	<path d="M49.7,20.9c0,2,2.8,3.7,6.2,3.8c-2.5,2.6-3.4,5.8-1.9,7.3c1.4,1.4,4.6,0.6,7.1-1.8c0,2.7,1,5.1,2.4,6
		c-0.5,7-0.8,16.7-0.8,27.6c0,5.5,0.1,10.8,0.2,15.6h4.5c0.1-4.8,0.2-10,0.2-15.6c0-11.1-0.3-21.1-0.8-28.1c1-1.1,1.7-3,1.8-5.3
		c2.6,2.5,5.8,3.4,7.3,1.9c1.4-1.4,0.6-4.6-1.8-7.1c3.6,0,6.5-1.7,6.5-3.8c0-2-2.8-3.7-6.2-3.8c2.5-2.6,3.4-5.8,1.9-7.3
		C75,9,71.8,9.8,69.3,12.2c0-3.6-1.7-6.5-3.8-6.5c-2,0-3.7,2.8-3.8,6.2c-2.6-2.5-5.8-3.4-7.3-1.9c-1.4,1.4-0.6,4.6,1.8,7.1
		C52.6,17.1,49.7,18.8,49.7,20.9z M65.2,14.5c3.7,0,6.7,3,6.7,6.7c0,3.4-2.6,6.2-5.9,6.6c-0.3,0-0.5,0.1-0.8,0.1s-0.5,0-0.8-0.1
		c-3.3-0.4-5.9-3.2-5.9-6.6C58.5,17.5,61.5,14.5,65.2,14.5z"/>
	<path d="M64.9,26c0.1,0,0.2,0,0.3,0c0.1,0,0.2,0,0.3,0c2.5-0.2,4.5-2.3,4.5-4.8c0-2.7-2.2-4.9-4.9-4.9c-2.7,0-4.9,2.2-4.9,4.9
		C60.3,23.8,62.3,25.8,64.9,26z"/>
</g>
</svg>
