<?xml version="1.0" encoding="utf-8"?>
<!-- Generator: Adobe Illustrator 17.1.0, SVG Export Plug-In . SVG Version: 6.00 Build 0)  -->
<!DOCTYPE svg PUBLIC "-//W3C//DTD SVG 1.1//EN" "http://www.w3.org/Graphics/SVG/1.1/DTD/svg11.dtd">
<svg version="1.1" id="Layer_1" xmlns="http://www.w3.org/2000/svg" xmlns:xlink="http://www.w3.org/1999/xlink" x="0px" y="0px"
	 viewBox="0 0 128 128" enable-background="new 0 0 128 128" xml:space="preserve">
<path d="M86.2,56.2c2.5,0,8.3-0.8,8.3-7.7c0-8.8-5.6-4.8-5.6-9.9S91,32,91,32h1c0.6,0,1-0.4,1-1s-0.4-1-1-1H80c-0.6,0-1,0.4-1,1
	s0.4,1,1,1h0.9c0,0,2.4,1.4,2.4,6.6s-5.7,1.1-5.7,9.9c0,6.9,5.7,7.7,8.2,7.7L86.2,56.2z"/>
<path d="M0,88h124V58H0V88z M66,64h50v18H66V64z M8,64h50v18H8V64z"/>
<rect x="4" y="92" width="10" height="8"/>
<rect x="110" y="92" width="10" height="8"/>
</svg>
