<?xml version="1.0" encoding="iso-8859-1"?>
<!-- Generator: Adobe Illustrator 17.1.0, SVG Export Plug-In . SVG Version: 6.00 Build 0)  -->
<!DOCTYPE svg PUBLIC "-//W3C//DTD SVG 1.1//EN" "http://www.w3.org/Graphics/SVG/1.1/DTD/svg11.dtd">
<svg version="1.1" id="Layer_1" xmlns="http://www.w3.org/2000/svg" xmlns:xlink="http://www.w3.org/1999/xlink" x="0px" y="0px"
	 viewBox="0 0 64 64" style="enable-background:new 0 0 64 64;" xml:space="preserve">
<g>
	<path d="M11,49h42V30H34.467h-1.355H32h-2H11V49z M50.25,33c0.414,0,0.75,3.05,0.75,6.812s-0.336,6.812-0.75,6.812
		s-0.75-3.05-0.75-6.812S49.836,33,50.25,33z M45.107,33c0.414,0,0.75,3.05,0.75,6.812s-0.336,6.812-0.75,6.812
		c-0.414,0-0.75-3.05-0.75-6.812S44.693,33,45.107,33z M39.964,33c0.414,0,0.75,3.05,0.75,6.812s-0.336,6.812-0.75,6.812
		c-0.414,0-0.75-3.05-0.75-6.812S39.55,33,39.964,33z M34.586,33.346c0.07-0.208,0.143-0.325,0.22-0.339
		C34.812,33.006,34.816,33,34.821,33c0.414,0,0.75,3.05,0.75,6.812s-0.336,6.812-0.75,6.812c-0.414,0-0.75-3.05-0.75-6.812
		C34.071,36.796,34.287,34.242,34.586,33.346z M29.184,34.697c0.05-0.401,0.106-0.739,0.167-1.008
		C29.451,33.252,29.561,33,29.679,33c0.115,0,0.224,0.242,0.321,0.663c0.061,0.264,0.118,0.599,0.169,0.997
		c0.159,1.249,0.26,3.092,0.26,5.153c0,3.762-0.336,6.812-0.75,6.812c-0.414,0-0.75-3.05-0.75-6.812
		C28.929,37.771,29.028,35.945,29.184,34.697z M24.536,33c0.414,0,0.75,3.05,0.75,6.812s-0.336,6.812-0.75,6.812
		c-0.414,0-0.75-3.05-0.75-6.812S24.122,33,24.536,33z M19.393,33c0.414,0,0.75,3.05,0.75,6.812s-0.336,6.812-0.75,6.812
		c-0.414,0-0.75-3.05-0.75-6.812S18.979,33,19.393,33z M14.25,33c0.414,0,0.75,3.05,0.75,6.812s-0.336,6.812-0.75,6.812
		s-0.75-3.05-0.75-6.812S13.836,33,14.25,33z"/>
	<path d="M38,5.5C38,4.638,37.552,4,37,4H25c-0.552,0-1,0.638-1,1.5S24.448,7,25,7h5v9.735c-1.908,1.539-3.792,3.343-3.792,6.106
		c0,2.716,1.865,4.121,3.792,5.243V29h1.618H32h1.449c-0.442-0.336-0.937-0.642-1.449-0.934V16.424c1.812-1.45,3.5-3.017,3.5-5.347
		c0-1.921-0.821-3.22-1.751-4.077H37C37.552,7,38,6.362,38,5.5z M30,26.914c-1.522-0.95-2.792-2.103-2.792-4.073
		c0-2.061,1.234-3.482,2.792-4.807V26.914z M34.5,11.077c0,1.643-1.105,2.873-2.5,4.052V7h0.072
		C33.127,7.604,34.5,8.821,34.5,11.077z"/>
</g>
</svg>
