<?xml version="1.0" encoding="iso-8859-1"?>
<!-- Generator: Adobe Illustrator 17.1.0, SVG Export Plug-In . SVG Version: 6.00 Build 0)  -->
<!DOCTYPE svg PUBLIC "-//W3C//DTD SVG 1.1//EN" "http://www.w3.org/Graphics/SVG/1.1/DTD/svg11.dtd">
<svg version="1.1" id="Layer_1" xmlns="http://www.w3.org/2000/svg" xmlns:xlink="http://www.w3.org/1999/xlink" x="0px" y="0px"
	 viewBox="0 0 64 64" style="enable-background:new 0 0 64 64;" xml:space="preserve">
<g>
	<path d="M15,53h4c1.105,0,2-0.895,2-2h22c0,1.105,0.895,2,2,2h4c1.105,0,2-0.895,2-2V34c0-1.105-0.895-2-2-2h-4
		c-1.105,0-2,0.895-2,2v5v4v2h-2H23h-2v-2v-4v-5c0-1.105-0.895-2-2-2h-4c-1.105,0-2,0.895-2,2v17C13,52.105,13.895,53,15,53z"/>
	<path d="M39.021,35c0.724,0,1.394,0.21,1.979,0.551V26c0-1.105-0.895-2-2-2H25c-1.105,0-2,0.895-2,2v9.568
		C23.601,35.216,24.294,35,25.042,35H39.021z"/>
	<path d="M41,39c0-1.105-0.885-2-1.99-2H39H25.042C23.937,37,23,37.895,23,39v4h18V39z"/>
</g>
</svg>
