<?xml version="1.0" encoding="iso-8859-1"?>
<!-- Generator: Adobe Illustrator 17.1.0, SVG Export Plug-In . SVG Version: 6.00 Build 0)  -->
<!DOCTYPE svg PUBLIC "-//W3C//DTD SVG 1.1//EN" "http://www.w3.org/Graphics/SVG/1.1/DTD/svg11.dtd">
<svg version="1.1" id="Layer_1" xmlns="http://www.w3.org/2000/svg" xmlns:xlink="http://www.w3.org/1999/xlink" x="0px" y="0px"
	 viewBox="0 0 64 64" style="enable-background:new 0 0 64 64;" xml:space="preserve">
<g>
	<rect x="10" y="23" width="8" height="28"/>
	<rect x="48" y="23" width="8" height="28"/>
	<path d="M59,16H6c-1.105,0-2,0.895-2,2v1c0,1.105,0.895,2,2,2h53c1.105,0,2-0.895,2-2v-1C61,16.895,60.105,16,59,16z"/>
	<path d="M37.473,32.096c0.351,1.117,0.439,2.247,0.411,3.224c-2.332-1.525-4.658-2.671-4.658-4.711
		c0-3.344,2.548-6.158,2.548-6.158s-11.147,0.849-12.846,9.767c-1.699,8.918,1.593,16.031,8.493,16.031
		c7.087,0,10.783-4.878,11.122-7.668l0.027,0.024C43.317,37.428,37.473,32.096,37.473,32.096z M32.74,44.408
		c-2.081,0.855-3.955-0.883-4.548-3.782c-0.593-2.9,2.664-4.537,2.664-4.537s-0.42,1.164-0.005,2.173
		c0.5,1.217,3.309,0.25,4.238,2.3C35.446,41.35,35.013,43.474,32.74,44.408z"/>
</g>
</svg>
