<?xml version="1.0" encoding="iso-8859-1"?>
<!-- Generator: Adobe Illustrator 17.1.0, SVG Export Plug-In . SVG Version: 6.00 Build 0)  -->
<!DOCTYPE svg PUBLIC "-//W3C//DTD SVG 1.1//EN" "http://www.w3.org/Graphics/SVG/1.1/DTD/svg11.dtd">
<svg version="1.1" id="Layer_1" xmlns="http://www.w3.org/2000/svg" xmlns:xlink="http://www.w3.org/1999/xlink" x="0px" y="0px"
	 viewBox="0 0 64 64" style="enable-background:new 0 0 64 64;" xml:space="preserve">
<g>
	<path d="M58,31h-6H14H8v23h6h38h6V31z M33,50H14h-2V35h2h19V50z M54,50h-2H37v-5h15h2V50z M54,42h-2H37v-7h15h2V42z"/>
	<path d="M8.5,29h49c0.828,0,1.5-0.672,1.5-1.5S58.328,26,57.5,26h-49C7.672,26,7,26.672,7,27.5S7.672,29,8.5,29z"/>
</g>
</svg>
