<?xml version="1.0" encoding="utf-8"?>
<!-- Generator: Adobe Illustrator 17.1.0, SVG Export Plug-In . SVG Version: 6.00 Build 0)  -->
<!DOCTYPE svg PUBLIC "-//W3C//DTD SVG 1.1//EN" "http://www.w3.org/Graphics/SVG/1.1/DTD/svg11.dtd">
<svg version="1.1" id="Layer_1" xmlns="http://www.w3.org/2000/svg" xmlns:xlink="http://www.w3.org/1999/xlink" x="0px" y="0px"
	 viewBox="0 0 128 128" enable-background="new 0 0 128 128" xml:space="preserve">
<g>
	<path d="M65,6C33,6,7,32,7,64s26,58,58,58s58-26,58-58S97,6,65,6z M65,116.7c-29.1,0-52.7-23.7-52.7-52.7S35.9,11.3,65,11.3
		s52.7,23.7,52.7,52.7S94.1,116.7,65,116.7z"/>
	<path d="M65,13.4c-27.9,0-50.6,22.7-50.6,50.6s22.7,50.6,50.6,50.6s50.6-22.7,50.6-50.6S92.9,13.4,65,13.4z M97,31.3
		c1.5,0,2.7,1.2,2.7,2.7s-1.2,2.7-2.7,2.7s-2.7-1.2-2.7-2.7S95.5,31.3,97,31.3z M65,17.3c1.5,0,2.7,1.2,2.7,2.7s-1.2,2.7-2.7,2.7
		s-2.7-1.2-2.7-2.7S63.5,17.3,65,17.3z M31,33.3c1.5,0,2.7,1.2,2.7,2.7s-1.2,2.7-2.7,2.7s-2.7-1.2-2.7-2.7S29.5,33.3,31,33.3z
		 M21,66.7c-1.5,0-2.7-1.2-2.7-2.7s1.2-2.7,2.7-2.7s2.7,1.2,2.7,2.7S22.5,66.7,21,66.7z M33,98.7c-1.5,0-2.7-1.2-2.7-2.7
		s1.2-2.7,2.7-2.7s2.7,1.2,2.7,2.7S34.5,98.7,33,98.7z M65,110.7c-1.5,0-2.7-1.2-2.7-2.7s1.2-2.7,2.7-2.7s2.7,1.2,2.7,2.7
		S66.5,110.7,65,110.7z M95,98.7c-1.5,0-2.7-1.2-2.7-2.7s1.2-2.7,2.7-2.7s2.7,1.2,2.7,2.7S96.5,98.7,95,98.7z M109,61.3
		c1.5,0,2.7,1.2,2.7,2.7s-1.2,2.7-2.7,2.7s-2.7-1.2-2.7-2.7S107.5,61.3,109,61.3z M65,102c-21,0-38-17-38-38s17-38,38-38
		s38,17,38,38S86,102,65,102z"/>
</g>
</svg>
