<?xml version="1.0" encoding="utf-8"?>
<!-- Generator: Adobe Illustrator 17.1.0, SVG Export Plug-In . SVG Version: 6.00 Build 0)  -->
<!DOCTYPE svg PUBLIC "-//W3C//DTD SVG 1.1//EN" "http://www.w3.org/Graphics/SVG/1.1/DTD/svg11.dtd">
<svg version="1.1" id="Layer_1" xmlns="http://www.w3.org/2000/svg" xmlns:xlink="http://www.w3.org/1999/xlink" x="0px" y="0px"
	 viewBox="0 0 128 128" enable-background="new 0 0 128 128" xml:space="preserve">
<g>
	<path d="M62.3,14.3L37,29.7v84h-4.2v6.3h58.8v-6.3h-4.2v-84L62.3,14.3z M59,25.5h6.3v6.3H59V25.5z M62.8,36
		C71.2,36,78,42.8,78,51.2s-6.8,15.2-15.2,15.2s-15.2-6.8-15.2-15.2S54.4,36,62.8,36z M79.1,109.5H45.4V73.8h14.7v22.8
		c-2,0.9-3.3,2.8-3.3,5.1c0,3.1,2.5,5.6,5.6,5.6c3.1,0,5.6-2.5,5.6-5.6c0-2.5-1.6-4.5-3.8-5.3V73.8h14.7L79.1,109.5L79.1,109.5z"/>
	<path d="M22.6,31.8c0.4,0.6,1.1,1,1.8,1c0.4,0,0.8-0.1,1.1-0.3l36.7-22.4l33.2,20.3c1,0.6,2.3,0.3,2.9-0.7c0.6-1,0.3-2.3-0.7-2.9
		l-34.3-21c-0.7-0.4-1.5-0.4-2.2,0L23.3,28.9C22.3,29.5,22,30.8,22.6,31.8z"/>
	<path d="M61.9,50.6L58.3,54c-0.4,0.4-0.4,1.1,0,1.5c0.2,0.2,0.5,0.3,0.8,0.3c0.3,0,0.5-0.1,0.7-0.3l4.3-4.1c0,0,0.1-0.1,0.1-0.1
		c0-0.1,0.1-0.1,0.1-0.2c0-0.1,0-0.1,0.1-0.2c0-0.1,0-0.1,0-0.2c0-0.1,0-0.1,0-0.2c0-0.1,0-0.1,0-0.2c0-0.1-0.1-0.1-0.1-0.2
		c0-0.1,0-0.1-0.1-0.2l-8.5-10c-0.4-0.4-1-0.5-1.5-0.1c-0.4,0.4-0.5,1-0.1,1.5L61.9,50.6z"/>
</g>
</svg>
