<?xml version="1.0" encoding="iso-8859-1"?>
<!-- Generator: Adobe Illustrator 17.1.0, SVG Export Plug-In . SVG Version: 6.00 Build 0)  -->
<!DOCTYPE svg PUBLIC "-//W3C//DTD SVG 1.1//EN" "http://www.w3.org/Graphics/SVG/1.1/DTD/svg11.dtd">
<svg version="1.1" id="Layer_1" xmlns="http://www.w3.org/2000/svg" xmlns:xlink="http://www.w3.org/1999/xlink" x="0px" y="0px"
	 viewBox="0 0 64 64" style="enable-background:new 0 0 64 64;" xml:space="preserve">
<g>
	<rect x="13" y="49" width="17" height="3"/>
	<polygon points="13,48 30,48 30,44.814 27.263,41.948 23.441,45.948 19.627,41.949 15.813,45.949 13,42.998 	"/>
	<polygon points="13,40.1 15.813,43.051 19.627,39.051 23.442,43.052 27.263,39.052 30,41.918 30,38 13,38 	"/>
	<path d="M16.625,28H13v9h17v-9h-3.833l-1.833-3H21.92c-0.749-5.246-4.356-6.644-4.521-6.696c-0.264-0.084-0.544,0.095-0.626,0.359
		c-0.083,0.263,0.064,0.606,0.328,0.688c0.034,0.011,3.094,1.138,3.804,5.648H18.25L16.625,28z"/>
	<polygon points="35,37 35,38 35,43 52,43 52,25 35,25 	"/>
	<rect x="35" y="49" width="17" height="3"/>
	<rect x="35" y="20" width="17" height="4"/>
	<rect x="35" y="44" width="17" height="4"/>
	<path d="M38.625,15H35v4h17v-4h-3.833l-1.833-3H43.92c-0.749-5.246-4.356-6.644-4.521-6.696c-0.262-0.085-0.544,0.095-0.626,0.359
		c-0.083,0.263,0.064,0.606,0.328,0.688C39.135,6.363,42.195,7.49,42.905,12H40.25L38.625,15z"/>
</g>
</svg>
