<?xml version="1.0" encoding="iso-8859-1"?>
<!-- Generator: Adobe Illustrator 17.1.0, SVG Export Plug-In . SVG Version: 6.00 Build 0)  -->
<!DOCTYPE svg PUBLIC "-//W3C//DTD SVG 1.1//EN" "http://www.w3.org/Graphics/SVG/1.1/DTD/svg11.dtd">
<svg version="1.1" id="Layer_1" xmlns="http://www.w3.org/2000/svg" xmlns:xlink="http://www.w3.org/1999/xlink" x="0px" y="0px"
	 viewBox="0 0 64 64" style="enable-background:new 0 0 64 64;" xml:space="preserve">
<g>
	<path d="M51.104,15.026c3.074-1.834-0.382-4.658-2.135-2.06c0.659-4.328-32.52-4.397-32.943-0.207
		c-1.653-3.038-4.9,0.714-2.274,2.267c-4.123,0.45-4.113,32.64,0.028,32.947c-2.284,1.388,0.446,4.573,2.286,1.925
		c-1.344,4.364,31.03,4.569,32.833,0.611c1.203,2.369,5.202-0.77,2.241-2.536C55.407,48.066,55.395,14.739,51.104,15.026z
		 M26.809,38.973c-1.906,1.906-3.777,3.124-4.18,2.722c-0.403-0.403,0.816-2.274,2.722-4.18c1.906-1.906,3.777-3.124,4.18-2.722
		C29.933,35.195,28.715,37.067,26.809,38.973z M29.53,28.694c-0.403,0.403-2.274-0.816-4.18-2.722
		c-1.906-1.906-3.124-3.777-2.722-4.18c0.403-0.403,2.274,0.816,4.18,2.722C28.715,26.42,29.933,28.292,29.53,28.694z M32.5,34.197
		c-1.49,0-2.697-1.208-2.697-2.697c0-1.49,1.208-2.698,2.697-2.698s2.697,1.208,2.697,2.698C35.197,32.99,33.99,34.197,32.5,34.197z
		 M42.53,41.694c-0.403,0.403-2.274-0.816-4.18-2.722c-1.906-1.906-3.124-3.777-2.722-4.18c0.403-0.403,2.274,0.816,4.18,2.722
		C41.715,39.42,42.933,41.292,42.53,41.694z M39.809,25.973c-1.906,1.906-3.777,3.124-4.18,2.722
		c-0.403-0.403,0.816-2.274,2.722-4.18c1.906-1.906,3.777-3.124,4.18-2.722C42.933,22.195,41.715,24.067,39.809,25.973z"/>
</g>
</svg>
