<?xml version="1.0" encoding="utf-8"?>
<!-- Generator: Adobe Illustrator 17.1.0, SVG Export Plug-In . SVG Version: 6.00 Build 0)  -->
<!DOCTYPE svg PUBLIC "-//W3C//DTD SVG 1.1//EN" "http://www.w3.org/Graphics/SVG/1.1/DTD/svg11.dtd">
<svg version="1.1" id="Layer_1" xmlns="http://www.w3.org/2000/svg" xmlns:xlink="http://www.w3.org/1999/xlink" x="0px" y="0px"
	 viewBox="0 0 128 128" enable-background="new 0 0 128 128" xml:space="preserve">
<g>
	<rect x="60" y="48" width="6" height="10"/>
	<polygon points="56,60 56,64 70,64 70,60 68,60 66,60 58,60 	"/>
	<polygon points="90,86 74,86 74,80 74,78 76,78 76,74 72,74 72,66 70,66 54,66 54,74 52,74 50,74 50,78 52,78 52,86 50,86 36,86 
		36,88 34,88 34,100 36,100 36,102 52,102 52,104 74,104 74,102 90,102 90,100 94,100 94,90 94,88 90,88 	"/>
	<polygon points="28,90 2,90 2,98 28,98 30,98 32,98 32,90 30,90 	"/>
	<polygon points="96,90 96,98 98,98 126,98 126,90 98,90 	"/>
	<path d="M58,41.6V46h10v-3.5v-1l1,0c6.6-0.2,13-0.7,19.2-1.5c0,0,2.4-0.3,3.9-0.5v-2.2V37v-0.2c0-1.5-1.2-2.8-2.8-2.8h-6.5
		c-1.5,0-2.8,2-2.8,2h-2c0,0-1.2-2-2.8-2h-6.5c-1.5,0-2.8,2-2.8,2h-2c0,0-1.2-2-2.8-2h-6.5c-1.5,0-2.8,2-2.8,2h-2c0,0-1.2-2-2.8-2
		h-6.5c-1.5,0-2.8,1.2-2.8,2.8v3.5c2.3,0.3,9.4,1.1,19,1.3L58,41.6z"/>
	<path d="M36,36.8L36,36.8L36,36.8z"/>
</g>
</svg>
