<?xml version="1.0" encoding="iso-8859-1"?>
<!-- Generator: Adobe Illustrator 17.1.0, SVG Export Plug-In . SVG Version: 6.00 Build 0)  -->
<!DOCTYPE svg PUBLIC "-//W3C//DTD SVG 1.1//EN" "http://www.w3.org/Graphics/SVG/1.1/DTD/svg11.dtd">
<svg version="1.1" id="Layer_1" xmlns="http://www.w3.org/2000/svg" xmlns:xlink="http://www.w3.org/1999/xlink" x="0px" y="0px"
	 viewBox="0 0 64 64" style="enable-background:new 0 0 64 64;" xml:space="preserve">
<g>
	<path d="M19.141,42.925c0.143,0.389,0.233,0.804,0.233,1.242c0,0.115-0.023,0.223-0.034,0.335L30.891,51H40v6h-1H24v-5v-1h0.774
		l-6.921-3.894c-0.261,0.187-0.547,0.335-0.853,0.448V60h30V41.112c-3.896,3.745-9.182,6.055-15,6.055
		C27.189,47.167,22.74,45.589,19.141,42.925z"/>
	<path d="M32,4.833c-11.396,0-20.667,9.271-20.667,20.667c0,4.95,1.753,9.497,4.667,13.06c0.316,0.387,0.657,0.751,1,1.114
		c3.77,3.988,9.092,6.493,15,6.493s11.23-2.505,15-6.493c0.343-0.363,0.684-0.727,1-1.114c2.913-3.563,4.667-8.11,4.667-13.06
		C52.667,14.104,43.396,4.833,32,4.833z M29,26.633v-2.267v-0.291l2.5-1.417l2.5,1.417v2.85l-2.5,1.417L29,26.925V26.633z"/>
	<polygon points="33,26.342 33,24.658 31.5,23.808 30,24.658 30,26.342 31.5,27.192 	"/>
	<path d="M18.599,46.379L26.813,51h2.038l-9.744-5.482C18.98,45.831,18.804,46.116,18.599,46.379z"/>
	<polygon points="26.551,52 25,52 25,56 39,56 39,52 31.724,52 31.15,52 30.576,52 28.59,52 27.57,52 	"/>
	<path d="M17.336,46.242c0.14-0.107,0.266-0.227,0.382-0.359c0.22-0.252,0.39-0.543,0.502-0.865
		c0.056-0.163,0.096-0.331,0.119-0.507c0.015-0.114,0.035-0.227,0.035-0.345c0-0.076-0.016-0.147-0.022-0.222
		c-0.077-0.897-0.6-1.659-1.352-2.071c-0.303-0.166-0.64-0.271-1-0.306c-0.084-0.008-0.164-0.025-0.25-0.025
		c-0.42,0-0.811,0.108-1.163,0.284c-0.043,0.021-0.084,0.044-0.125,0.068c-0.793,0.452-1.335,1.295-1.335,2.272
		c0,0.029,0.008,0.056,0.009,0.084c0.002,0.072,0.013,0.142,0.021,0.212c0.15,1.305,1.249,2.326,2.594,2.326
		c0.086,0,0.166-0.017,0.25-0.025c0.3-0.029,0.586-0.102,0.849-0.224c0.052-0.024,0.101-0.055,0.151-0.082
		C17.118,46.394,17.23,46.323,17.336,46.242z"/>
</g>
</svg>
