<?xml version="1.0" encoding="utf-8"?>
<!-- Generator: Adobe Illustrator 17.1.0, SVG Export Plug-In . SVG Version: 6.00 Build 0)  -->
<!DOCTYPE svg PUBLIC "-//W3C//DTD SVG 1.1//EN" "http://www.w3.org/Graphics/SVG/1.1/DTD/svg11.dtd">
<svg version="1.1" id="Layer_1" xmlns="http://www.w3.org/2000/svg" xmlns:xlink="http://www.w3.org/1999/xlink" x="0px" y="0px"
	 viewBox="0 0 128 128" enable-background="new 0 0 128 128" xml:space="preserve">
<g>
	<path d="M56,18.6c0-2.2-0.8-2.7-0.8-2.7c-0.5-0.2-0.8-0.7-0.6-1.3c0.2-0.5,0.8-0.8,1.3-0.6c0.2,0.1,2.1,0.8,2.1,4.5V62h8V17
		c0-0.5-0.1-1-0.1-1.5C65.2,12.3,62.5,10,59,10c-4,0-7,3-7,7v45h4V18.6z"/>
	<path d="M78,18.6c0-3.7,1.9-4.5,2.1-4.5c0.5-0.2,1.1,0.1,1.3,0.6c0.2,0.5-0.1,1.1-0.6,1.3c-0.1,0-0.8,0.6-0.8,2.7V62h4V18
		c0-4.2-3.3-7.7-7.5-7.9C72.9,10.3,70,13.3,70,17v45h8V18.6z"/>
	<path d="M86,64.2c-0.3-0.1-0.6-0.2-1-0.2h-1h-4h-2h-8h-2h-2h-8h-2h-4h-1c-0.4,0-0.7,0.1-1,0.2c-1.2,0.4-2,1.5-2,2.8v17.3
		c0,2,0.1,3.7,1.4,5.1l7.4,6.6h21.5l7.1-7c1.6-1.8,2.4-2.7,2.4-4.7V67C88,65.7,87.2,64.6,86,64.2z"/>
	<path d="M78.2,98H56.5h-0.4h-1.3c-0.4,0-0.8,0.3-0.8,0.8v2.4c0,0.4,0.3,0.8,0.8,0.8h24.4c0.4,0,0.8-0.3,0.8-0.8v-1.4
		C80,98.8,79.2,98,78.2,98z"/>
	<path d="M78.2,104H54.8c-0.4,0-0.8,0.3-0.8,0.8v2.4c0,0.4,0.3,0.8,0.8,0.8h24.4c0.4,0,0.8-0.3,0.8-0.8v-1.4
		C80,104.8,79.2,104,78.2,104z"/>
	<path d="M78.2,110H54.8c-0.4,0-0.8,0.3-0.8,0.8v2.4c0,0.4,0.3,0.8,0.8,0.8h1.9h20.2h2.4c0.4,0,0.8-0.3,0.8-0.8v-1.4
		C80,110.8,79.2,110,78.2,110z"/>
	<polygon points="63.2,122 70.4,122 73.5,116 60,116 	"/>
</g>
</svg>
