<?xml version="1.0" encoding="utf-8"?>
<!-- Generator: Adobe Illustrator 17.1.0, SVG Export Plug-In . SVG Version: 6.00 Build 0)  -->
<!DOCTYPE svg PUBLIC "-//W3C//DTD SVG 1.1//EN" "http://www.w3.org/Graphics/SVG/1.1/DTD/svg11.dtd">
<svg version="1.1" id="Layer_1" xmlns="http://www.w3.org/2000/svg" xmlns:xlink="http://www.w3.org/1999/xlink" x="0px" y="0px"
	 viewBox="0 0 128 128" enable-background="new 0 0 128 128" xml:space="preserve">
<path d="M71.2,22H55.4c0,5.3-4.2,10.7-11.1,10.7v60.3c5.6,0,10.7,5.4,10.7,10.9h15.7c0-4.9,4.9-10.9,10.8-10.9V32.7
	C76.6,32.7,71.2,27.5,71.2,22z M67.7,59.6l5.4,10.5H52.9l5.4-10.5c-3.4-1.7-5.7-5.3-5.7-9.3c0-5.8,4.7-10.5,10.5-10.5
	c5.8,0,10.5,4.7,10.5,10.5C73.5,54.3,71.1,57.8,67.7,59.6z"/>
<path d="M94.3,106.5h-2V21.5h2c5,0,9.1-4.3,9.1-9.3s-4.6-9.2-9.6-9.2c-5,0-9.6,4-9.6,9v1.3H41.8v-1.3c0-5-3.6-9.1-8.6-9.1
	s-8.8,4.3-8.8,9.3s4.3,9.3,9.4,9.3v84.9c-5,0-9.1,4.3-9.1,9.3c0,5,3.6,9.2,8.6,9.2s8.6-4,8.6-9v-1.3h42.5v1.3c0,5,4.6,9.1,9.6,9.1
	c5,0,9.4-4.3,9.4-9.3C103.2,110.7,99.4,106.5,94.3,106.5z M43.6,96.1c-0.6,0-1.2,0.1-1.8,0.2V29.6h0.1c0.6,0.1,1.2,0.2,1.8,0.2
	c1.6,0,3.1-0.4,4.3-1.2c0.5-0.3,1-0.7,1.5-1.1c1.8-1.6,2.9-3.9,2.9-6.5c0-0.6-0.1-1.1-0.2-1.6h21.9c-0.1,0.5-0.2,1-0.2,1.6
	c0,4.8,3.9,8.7,8.7,8.7c0.5,0,1.1-0.1,1.6-0.2v66.6c-0.5-0.1-1-0.2-1.6-0.2c-4.8,0-8.7,3.9-8.7,8.7c0,0.6,0.1,1.2,0.2,1.7h-22
	c0.1-0.5,0.2-1.1,0.2-1.7C52.3,100,48.4,96.1,43.6,96.1z"/>
</svg>
