<?xml version="1.0" encoding="iso-8859-1"?>
<!-- Generator: Adobe Illustrator 17.1.0, SVG Export Plug-In . SVG Version: 6.00 Build 0)  -->
<!DOCTYPE svg PUBLIC "-//W3C//DTD SVG 1.1//EN" "http://www.w3.org/Graphics/SVG/1.1/DTD/svg11.dtd">
<svg version="1.1" id="Layer_1" xmlns="http://www.w3.org/2000/svg" xmlns:xlink="http://www.w3.org/1999/xlink" x="0px" y="0px"
	 viewBox="0 0 64 64" style="enable-background:new 0 0 64 64;" xml:space="preserve">
<g>
	<path d="M14,61h36V4H14V61z M21,35.817v-0.5v-2.133v-0.5C21,31.204,22.204,30,23.684,30h15.633C40.796,30,42,31.204,42,32.683
		v2.633C42,36.796,40.796,38,39.316,38h-0.5H23.684h-0.5C21.977,38,21,37.023,21,35.817z M22.857,55.818
		c-0.528,0-0.955-0.428-0.955-0.955s0.428-0.955,0.955-0.955s0.955,0.428,0.955,0.955S23.385,55.818,22.857,55.818z M22.857,52.543
		c-0.528,0-0.955-0.428-0.955-0.955s0.428-0.955,0.955-0.955s0.955,0.428,0.955,0.955S23.385,52.543,22.857,52.543z M22.857,49.268
		c-0.528,0-0.955-0.428-0.955-0.955s0.428-0.955,0.955-0.955s0.955,0.428,0.955,0.955S23.385,49.268,22.857,49.268z M22.857,45.994
		c-0.528,0-0.955-0.428-0.955-0.955s0.428-0.955,0.955-0.955s0.955,0.428,0.955,0.955S23.385,45.994,22.857,45.994z M22.857,42.719
		c-0.528,0-0.955-0.428-0.955-0.955s0.428-0.955,0.955-0.955s0.955,0.428,0.955,0.955S23.385,42.719,22.857,42.719z M26.132,55.818
		c-0.528,0-0.955-0.428-0.955-0.955s0.428-0.955,0.955-0.955c0.527,0,0.955,0.428,0.955,0.955S26.659,55.818,26.132,55.818z
		 M26.132,52.543c-0.528,0-0.955-0.428-0.955-0.955s0.428-0.955,0.955-0.955c0.527,0,0.955,0.428,0.955,0.955
		S26.659,52.543,26.132,52.543z M26.132,49.268c-0.528,0-0.955-0.428-0.955-0.955s0.428-0.955,0.955-0.955
		c0.527,0,0.955,0.428,0.955,0.955S26.659,49.268,26.132,49.268z M26.132,45.994c-0.528,0-0.955-0.428-0.955-0.955
		s0.428-0.955,0.955-0.955c0.527,0,0.955,0.428,0.955,0.955S26.659,45.994,26.132,45.994z M26.132,42.719
		c-0.528,0-0.955-0.428-0.955-0.955s0.428-0.955,0.955-0.955c0.527,0,0.955,0.428,0.955,0.955S26.659,42.719,26.132,42.719z
		 M29.407,55.818c-0.528,0-0.955-0.428-0.955-0.955s0.428-0.955,0.955-0.955s0.955,0.428,0.955,0.955S29.934,55.818,29.407,55.818z
		 M29.407,52.543c-0.528,0-0.955-0.428-0.955-0.955s0.428-0.955,0.955-0.955s0.955,0.428,0.955,0.955S29.934,52.543,29.407,52.543z
		 M29.407,49.268c-0.528,0-0.955-0.428-0.955-0.955s0.428-0.955,0.955-0.955s0.955,0.428,0.955,0.955S29.934,49.268,29.407,49.268z
		 M29.407,45.994c-0.528,0-0.955-0.428-0.955-0.955s0.428-0.955,0.955-0.955s0.955,0.428,0.955,0.955S29.934,45.994,29.407,45.994z
		 M29.407,42.719c-0.528,0-0.955-0.428-0.955-0.955s0.428-0.955,0.955-0.955s0.955,0.428,0.955,0.955S29.934,42.719,29.407,42.719z
		 M32.682,55.818c-0.528,0-0.955-0.428-0.955-0.955s0.428-0.955,0.955-0.955c0.527,0,0.955,0.428,0.955,0.955
		S33.209,55.818,32.682,55.818z M32.682,52.543c-0.528,0-0.955-0.428-0.955-0.955s0.428-0.955,0.955-0.955
		c0.527,0,0.955,0.428,0.955,0.955S33.209,52.543,32.682,52.543z M32.682,49.268c-0.528,0-0.955-0.428-0.955-0.955
		s0.428-0.955,0.955-0.955c0.527,0,0.955,0.428,0.955,0.955S33.209,49.268,32.682,49.268z M32.682,45.994
		c-0.528,0-0.955-0.428-0.955-0.955s0.428-0.955,0.955-0.955c0.527,0,0.955,0.428,0.955,0.955S33.209,45.994,32.682,45.994z
		 M32.682,42.719c-0.528,0-0.955-0.428-0.955-0.955s0.428-0.955,0.955-0.955c0.527,0,0.955,0.428,0.955,0.955
		S33.209,42.719,32.682,42.719z M45.417,48.313c0,2.207-1.796,4.002-4.003,4.002s-4.002-1.795-4.002-4.002s1.795-4.002,4.002-4.002
		S45.417,46.106,45.417,48.313z M24.092,8.141L24.237,8h15.342l0.146,0.141c2.263,2.192,3.509,5.1,3.509,8.188
		c0,6.248-5.08,11.331-11.325,11.331s-11.325-5.082-11.325-11.329C20.583,13.241,21.829,10.333,24.092,8.141z"/>
	<path d="M31.908,26.66c5.693,0,10.325-4.634,10.325-10.331c0-2.75-1.086-5.344-3.062-7.329H24.645
		c-1.976,1.985-3.062,4.58-3.062,7.331C21.583,22.026,26.215,26.66,31.908,26.66z M32.182,11.881c2.884,0,5.229,2.346,5.229,5.23
		c0,2.884-2.346,5.23-5.229,5.23s-5.23-2.346-5.23-5.23C26.951,14.228,29.298,11.881,32.182,11.881z"/>
	<path d="M38.412,48.313c0,1.655,1.347,3.002,3.002,3.002c1.656,0,3.003-1.347,3.003-3.002s-1.347-3.002-3.003-3.002
		C39.759,45.312,38.412,46.658,38.412,48.313z"/>
	<path d="M32.182,21.342c2.332,0,4.229-1.897,4.229-4.23c0-1.224-0.531-2.32-1.365-3.093c-0.226-0.288-0.532-0.505-0.886-0.623
		c-0.593-0.317-1.26-0.514-1.978-0.514c-2.333,0-4.23,1.898-4.23,4.23S29.849,21.342,32.182,21.342z M32.703,15.282
		c-0.004-0.036-0.021-0.067-0.021-0.104c0-0.143,0.041-0.273,0.102-0.392c0.146-0.29,0.439-0.495,0.785-0.495
		c0.489,0,0.888,0.398,0.888,0.887c0,0.242-0.099,0.462-0.257,0.622c-0.118,0.12-0.276,0.19-0.446,0.228
		c-0.061,0.013-0.119,0.037-0.185,0.037C33.116,16.066,32.756,15.721,32.703,15.282z M31.736,14.746
		c-0.033,0.139-0.055,0.283-0.055,0.432c0,0.032,0.008,0.062,0.01,0.094c0.009,0.172,0.042,0.336,0.093,0.492
		c-0.583,0.173-1.013,0.708-1.013,1.347c0,0.777,0.633,1.41,1.41,1.41s1.41-0.633,1.41-1.41c0-0.016-0.004-0.032-0.005-0.048
		c0.171-0.002,0.334-0.032,0.492-0.077c0.171-0.048,0.332-0.117,0.479-0.208c0.015,0.11,0.034,0.219,0.034,0.333
		c0,1.329-1.081,2.41-2.41,2.41s-2.41-1.081-2.41-2.41C29.771,15.935,30.62,14.956,31.736,14.746z"/>
</g>
</svg>
