<?xml version="1.0" encoding="iso-8859-1"?>
<!-- Generator: Adobe Illustrator 17.1.0, SVG Export Plug-In . SVG Version: 6.00 Build 0)  -->
<!DOCTYPE svg PUBLIC "-//W3C//DTD SVG 1.1//EN" "http://www.w3.org/Graphics/SVG/1.1/DTD/svg11.dtd">
<svg version="1.1" id="Layer_1" xmlns="http://www.w3.org/2000/svg" xmlns:xlink="http://www.w3.org/1999/xlink" x="0px" y="0px"
	 viewBox="0 0 64 64" style="enable-background:new 0 0 64 64;" xml:space="preserve">
<g>
	<polygon points="36,60 40,60 40,41.372 36,42.513 	"/>
	<path d="M46.966,15h-8.38l-0.931,12.849c0.006,0.073,0.036,1.244-0.686,1.998c-0.37,0.387-0.878,0.591-1.47,0.591
		c-0.331,0-1.454-0.046-2.01-0.641c-0.218-0.233-0.322-0.52-0.302-0.831L34.115,15H22.667c7.458,1.635,7.335,10.915,7.333,11.012
		v17.003l0.233,0.104L35,41.759l1-0.285l4-1.141l1-0.285l12-3.424c0-1.541,0-7.695,0-14.186C53,15.511,47.212,15,46.966,15z"/>
	<path d="M21.893,15.869c-0.521-0.08-1.006-0.115-1.463-0.114c-0.165,0-0.323,0.01-0.479,0.021c-0.181,0.012-0.358,0.03-0.527,0.057
		c-1.032,0.162-1.85,0.576-2.424,1.255c-1.474,1.741-1.011,4.612-1.006,4.641L16,36.764l9.017,3.844l1.259,0.537L29,42.306v-0.018
		V26c0-0.016,0-0.065,0.001-0.108c0.001-0.409-0.03-1.994-0.556-3.813C27.697,19.499,25.954,16.492,21.893,15.869z"/>
	<path d="M7.805,46.152c0.01,0-3.427,5.456-0.014,8.869c1.052,1.052,2.451,1.585,4.161,1.585c3.229,0,6.649-1.915,7.944-3.21
		c1.836-1.836,7.36-7.966,8.993-9.782l-13.266-5.918L7.805,46.152z"/>
	<path d="M36.245,29.158c0.364-0.378,0.421-1.084,0.411-1.325L37.584,15l0.072-1l0.318-4.396l0.485,0.021
		c0.015,0,1.43,0.056,2.724-0.121c0.879-0.12,0.939-0.81,0.942-0.947c0.012-0.101,0.255-1.396,0.376-3.093
		c0.086-1.195-0.722-1.381-0.884-1.407l-5.66-1.709L35.184,14l-0.066,1l-0.931,14.033c0.185,0.242,0.672,0.404,1.313,0.404
		C35.819,29.438,36.063,29.346,36.245,29.158z"/>
</g>
</svg>
