<?xml version="1.0" encoding="iso-8859-1"?>
<!-- Generator: Adobe Illustrator 17.1.0, SVG Export Plug-In . SVG Version: 6.00 Build 0)  -->
<!DOCTYPE svg PUBLIC "-//W3C//DTD SVG 1.1//EN" "http://www.w3.org/Graphics/SVG/1.1/DTD/svg11.dtd">
<svg version="1.1" id="Layer_1" xmlns="http://www.w3.org/2000/svg" xmlns:xlink="http://www.w3.org/1999/xlink" x="0px" y="0px"
	 viewBox="0 0 64 64" style="enable-background:new 0 0 64 64;" xml:space="preserve">
<g>
	<path d="M30.917,3c-5.523,0-9.958,4.589-9.958,10.25c0,3.792,2.042,7.094,5.042,8.868V54l5,5l5-5v-7.333l-2.993-2l2.931-2.5
		l-2.92-2.458L36,38.388V36.25l-3-1.083v-2.04l2.951-1.543L33,29.958V28l3-2v-3.882c3-1.773,4.958-5.076,4.958-8.868
		C40.958,7.589,36.44,3,30.917,3z M30.417,6c1.381,0,2.5,1.119,2.5,2.5s-1.119,2.5-2.5,2.5c-1.381,0-2.5-1.119-2.5-2.5
		S29.036,6,30.417,6z"/>
</g>
</svg>
