<?xml version="1.0" encoding="iso-8859-1"?>
<!-- Generator: Adobe Illustrator 17.1.0, SVG Export Plug-In . SVG Version: 6.00 Build 0)  -->
<!DOCTYPE svg PUBLIC "-//W3C//DTD SVG 1.1//EN" "http://www.w3.org/Graphics/SVG/1.1/DTD/svg11.dtd">
<svg version="1.1" id="Layer_1" xmlns="http://www.w3.org/2000/svg" xmlns:xlink="http://www.w3.org/1999/xlink" x="0px" y="0px"
	 viewBox="0 0 64 64" style="enable-background:new 0 0 64 64;" xml:space="preserve">
<path d="M11,60h19V3H11V60z M20.5,50.75c-2.14,0-3.875-1.735-3.875-3.875c0-2.14,1.735-3.875,3.875-3.875s3.875,1.735,3.875,3.875
	C24.375,49.015,22.64,50.75,20.5,50.75z M29,59h-3v-1h2v-3h1V59z M25,4h4v4h-1V5h-3V4z M18,9h6c1.105,0,2,0.895,2,2v23
	c0,1.105-0.895,2-2,2h-6c-1.105,0-2-0.895-2-2V11C16,9.895,16.895,9,18,9z M12,4h4v1h-3v3h-1V4z M12,55h1v3h3v1h-4V55z"/>
<rect x="18" y="12" width="6" height="1"/>
<rect x="18" y="15" width="6" height="1"/>
<rect x="18" y="18" width="6" height="1"/>
<rect x="18" y="21" width="6" height="1"/>
<rect x="18" y="24" width="6" height="1"/>
<rect x="18" y="27" width="6" height="1"/>
<rect x="18" y="30" width="6" height="1"/>
<rect x="18" y="33" width="6" height="1"/>
<path d="M31,60h19V3H31V60z M40.5,50.75c-2.14,0-3.875-1.735-3.875-3.875c0-2.14,1.735-3.875,3.875-3.875s3.875,1.735,3.875,3.875
	C44.375,49.015,42.64,50.75,40.5,50.75z M49,59h-3v-1h2v-3h1V59z M45,4h4v4h-1V5h-3V4z M38,9h6c1.105,0,2,0.895,2,2v23
	c0,1.105-0.895,2-2,2h-6c-1.105,0-2-0.895-2-2V11C36,9.895,36.895,9,38,9z M32,4h4v1h-3v3h-1V4z M32,55h1v3h3v1h-4V55z"/>
<rect x="38" y="12" width="6" height="1"/>
<rect x="38" y="15" width="6" height="1"/>
<rect x="38" y="18" width="6" height="1"/>
<rect x="38" y="21" width="6" height="1"/>
<rect x="38" y="24" width="6" height="1"/>
<rect x="38" y="27" width="6" height="1"/>
<rect x="38" y="30" width="6" height="1"/>
<rect x="38" y="33" width="6" height="1"/>
</svg>
