<?xml version="1.0" encoding="iso-8859-1"?>
<!-- Generator: Adobe Illustrator 17.1.0, SVG Export Plug-In . SVG Version: 6.00 Build 0)  -->
<!DOCTYPE svg PUBLIC "-//W3C//DTD SVG 1.1//EN" "http://www.w3.org/Graphics/SVG/1.1/DTD/svg11.dtd">
<svg version="1.1" id="Layer_1" xmlns="http://www.w3.org/2000/svg" xmlns:xlink="http://www.w3.org/1999/xlink" x="0px" y="0px"
	 viewBox="0 0 64 64" style="enable-background:new 0 0 64 64;" xml:space="preserve">
<path d="M51.5,26.5c-0.828,0-1.5,0.671-1.5,1.5v12H14V28c0-0.829-0.672-1.5-1.5-1.5S11,27.171,11,28v12v1v2h42v-2v-1V28
	C53,27.171,52.328,26.5,51.5,26.5z"/>
<path d="M51.5,43.5c-0.828,0-1.5,0.671-1.5,1.5v12H14V45c0-0.829-0.672-1.5-1.5-1.5S11,44.171,11,45v12v1v2h42v-2v-1V45
	C53,44.171,52.328,43.5,51.5,43.5z"/>
<path d="M49,56v-0.875v-7.25V47h-1.094H16.5H15v0.875V49v1v1v1v1v1v1.125V56h1.5h31.406H49z M48,53h-4.009
	c0.694-0.531,1.474-1,2.009-1h2V53z M16,48h32v1H16V48z M16,50h32v1h-2H16V50z M43.862,51.946c-0.027,0.018-0.052,0.036-0.079,0.054
	c-0.511,0.338-0.989,0.701-1.334,1c-0.147,0.127-0.275,0.245-0.364,0.34c-0.284-0.117-0.57-0.229-0.856-0.34
	c-0.975-0.377-1.945-0.715-2.816-1c-0.13-0.042-0.255-0.083-0.38-0.123L43.862,51.946z M16,52h18.937
	c0.293,0.076,1.664,0.441,3.382,1H16V52z M16,55v-1h25.133c0.33,0.129,0.66,0.261,0.984,0.398l0.339,0.143l0.145-0.28
	c0.063-0.074,0.147-0.164,0.242-0.261H48v1H16z"/>
<path d="M49,38v-0.875V36v-1v-1v-1v-1v-1v-1.125V29h-0.583H16.094H15v0.875v7.25V38h1.094h32.323H49z M16,34h2
	c0.535,0,1.315,0.469,2.009,1H16V34z M48,37H16v-1h5.157c0.096,0.097,0.18,0.187,0.242,0.261l0.145,0.28l0.339-0.143
	c0.324-0.137,0.654-0.269,0.984-0.398H48V37z M20.138,33.946l5.829-0.069c-0.125,0.04-0.25,0.08-0.38,0.123
	c-0.871,0.285-1.841,0.623-2.816,1c-0.286,0.11-0.572,0.223-0.856,0.34c-0.089-0.095-0.217-0.213-0.364-0.34
	c-0.345-0.299-0.824-0.662-1.334-1C20.191,33.982,20.165,33.964,20.138,33.946z M48,35H25.681c1.718-0.559,3.089-0.924,3.382-1H48
	V35z M48,33H18h-2v-1h32V33z M48,31H16v-1h32V31z"/>
</svg>
