<?xml version="1.0" encoding="utf-8"?>
<!-- Generator: Adobe Illustrator 17.1.0, SVG Export Plug-In . SVG Version: 6.00 Build 0)  -->
<!DOCTYPE svg PUBLIC "-//W3C//DTD SVG 1.1//EN" "http://www.w3.org/Graphics/SVG/1.1/DTD/svg11.dtd">
<svg version="1.1" id="Layer_1" xmlns="http://www.w3.org/2000/svg" xmlns:xlink="http://www.w3.org/1999/xlink" x="0px" y="0px"
	 viewBox="0 0 128 128" enable-background="new 0 0 128 128" xml:space="preserve">
<path d="M74,71c0,2.8-2.2,5-5,5h-1h-9c-2.8,0-5-2.2-5-5v-3H8v32c0,2.2,1.8,4,4,4h104c2.2,0,4-1.8,4-4V68H74V71z"/>
<path d="M69,64h-1h-9c-1.3,0-2.4,0.8-2.8,2c-0.1,0.3-0.2,0.6-0.2,1v1v3c0,1.7,1.3,3,3,3h10c1.7,0,3-1.3,3-3v-3c0-0.7-0.2-2-0.2-2
	C71.4,64.8,70.3,64,69,64z"/>
<path d="M116,40H86v-8c0-3.3-2.7-6-6-6H46c-3.3,0-6,2.7-6,6v8H12c-2.2,0-4,1.8-4,4v22h46.1c0.5-2.3,2.5-4,4.9-4h10
	c2.4,0,4.4,1.7,4.9,4H120V44C120,41.8,118.2,40,116,40z M82,40H44v-8c0-1.1,0.9-2,2-2h34c1.1,0,2,0.9,2,2V40z"/>
</svg>
