<?xml version="1.0" encoding="utf-8"?>
<!-- Generator: Adobe Illustrator 17.1.0, SVG Export Plug-In . SVG Version: 6.00 Build 0)  -->
<!DOCTYPE svg PUBLIC "-//W3C//DTD SVG 1.1//EN" "http://www.w3.org/Graphics/SVG/1.1/DTD/svg11.dtd">
<svg version="1.1" id="Layer_1" xmlns="http://www.w3.org/2000/svg" xmlns:xlink="http://www.w3.org/1999/xlink" x="0px" y="0px"
	 viewBox="0 0 128 128" enable-background="new 0 0 128 128" xml:space="preserve">
<path d="M88.6,124L97,48.2H84l0.1-25.1c0.7,0.1,1.5,0.3,2.1,0.8c0.9,0.7,1.4,1.8,1.5,3.3c0.4,4.8,0.2,11.3,0.2,11.4
	c0,1.2,0.9,2.1,2.1,2.2c0.1,0,0.3,0,0.4,0c1-0.2,1.7-1,1.8-2c0-0.3,0.1-6.7-0.2-11.8c-0.2-2.8-1.3-5-3.2-6.4
	c-2.2-1.6-4.4-1.8-4.4-1.8h-8.5l-0.2,29.5h-6.5l-1.4-17.1l-8.4,0.7l1.3,16.4h-5.5l-3.3-25.6l-8.4,1.1l3.2,24.5H38l8.4,75.9H88.6z"/>
<rect x="42.9" y="18.9" transform="matrix(-0.9916 0.1295 -0.1295 -0.9916 96.4958 33.6264)" width="8.4" height="2.1"/>
<rect x="42.4" y="14.7" transform="matrix(-0.9916 0.1295 -0.1295 -0.9916 94.8656 25.3739)" width="8.4" height="2.1"/>
<path d="M42,13.2l8.4-1.1L50.1,10c0,0-0.4-5.1-4.8-4.5c-4.4,0.6-3.5,5.6-3.5,5.6L42,13.2z"/>
<rect x="59" y="27.2" transform="matrix(-0.9968 7.999961e-02 -7.999961e-02 -0.9968 128.5294 51.3349)" width="8.4" height="2.1"/>
<rect x="58.7" y="23" transform="matrix(-0.9968 7.999961e-02 -7.999961e-02 -0.9968 127.5204 42.979)" width="8.4" height="2.1"/>
<path d="M58.4,21.2l8.4-0.7l-0.2-2.1c0,0-0.2-5.1-4.6-4.8c-4.6,0.4-3.8,5.4-3.8,5.4L58.4,21.2z"/>
<polygon points="84.1,14.5 82.2,14.5 82.2,8.1 78,8.1 78,14.5 75.7,14.5 75.7,16.6 84.1,16.6 "/>
</svg>
