<?xml version="1.0" encoding="iso-8859-1"?>
<!-- Generator: Adobe Illustrator 17.1.0, SVG Export Plug-In . SVG Version: 6.00 Build 0)  -->
<!DOCTYPE svg PUBLIC "-//W3C//DTD SVG 1.1//EN" "http://www.w3.org/Graphics/SVG/1.1/DTD/svg11.dtd">
<svg version="1.1" id="Layer_1" xmlns="http://www.w3.org/2000/svg" xmlns:xlink="http://www.w3.org/1999/xlink" x="0px" y="0px"
	 viewBox="0 0 64 64" style="enable-background:new 0 0 64 64;" xml:space="preserve">
<path d="M7.251,52.641c-0.081,1.841-0.157,3.683-0.157,4.047c0,1.148,3.376,2.75,8.875,2.75c5.513,0,9.031-1.685,9.031-2.844v-3.855
	c-2.176,1.12-5.486,1.699-8.781,1.699C12.829,54.438,9.422,53.825,7.251,52.641z"/>
<path d="M26.25,4.333c-4.359,0-7.052,2.595-8.543,4.772C16.012,11.579,15,14.798,15,17.719v27.06v1.001v1.001
	c-3.104,0.143-5.508,0.815-6.855,1.555c-0.552,0.304-0.924,0.617-1.093,0.911c-0.069,0.119-0.114,0.236-0.114,0.346
	c0,0.222,0.147,0.466,0.418,0.716c1.111,1.022,4.378,2.128,8.863,2.128c4.024,0,7.062-0.891,8.448-1.812
	c0.529-0.351,0.823-0.707,0.83-1.019c0-0.004,0.002-0.008,0.002-0.013c0-0.297-0.262-0.635-0.74-0.971
	c-1.254-0.882-4.039-1.749-7.76-1.858v-1v-1V17.719c0-4.773,3.214-11.385,9.25-11.385c5.002,0,9.101,3.556,10.648,5.101l1.342-1.494
	C36.437,8.141,31.951,4.333,26.25,4.333z"/>
<polygon points="39.596,9.927 38.932,10.666 37.721,12.015 37.475,12.289 42.768,17.434 45.451,14.368 "/>
<path d="M47.529,15h-0.306h-0.645h-0.35l-2.94,3.36l0.144,0.415l0.213,0.614l0.072,0.207C44.712,18.977,46.393,17.608,47.529,15z"/>
<path d="M48.512,15.258c-0.1,0.239-0.213,0.448-0.32,0.668c-0.101,0.206-0.199,0.418-0.305,0.609
	c-1.046,1.878-2.315,3.017-3.269,3.669c-0.268,0.184-0.512,0.333-0.716,0.445c-0.027,0.015-0.061,0.036-0.086,0.05l0.3,0.427
	l5.836,8.291c0.753-0.257,2.794-1.121,5.195-3.521c2.422-2.422,3.037-4.78,3.185-5.613l-9.659-4.943L48.512,15.258z"/>
</svg>
