<?xml version="1.0" encoding="iso-8859-1"?>
<!-- Generator: Adobe Illustrator 17.1.0, SVG Export Plug-In . SVG Version: 6.00 Build 0)  -->
<!DOCTYPE svg PUBLIC "-//W3C//DTD SVG 1.1//EN" "http://www.w3.org/Graphics/SVG/1.1/DTD/svg11.dtd">
<svg version="1.1" id="Layer_1" xmlns="http://www.w3.org/2000/svg" xmlns:xlink="http://www.w3.org/1999/xlink" x="0px" y="0px"
	 viewBox="0 0 64 64" style="enable-background:new 0 0 64 64;" xml:space="preserve">
<path d="M25.406,51.875c0,1.378-0.453,2.572-1.161,3.368c1.197-0.036,2.161-1.527,2.161-3.368s-0.964-3.333-2.161-3.368
	C24.953,49.303,25.406,50.497,25.406,51.875z"/>
<path d="M49.406,51.875c0-1.842-0.964-3.333-2.161-3.368c0.707,0.796,1.161,1.991,1.161,3.368c0,1.378-0.453,2.572-1.161,3.368
	C48.442,55.208,49.406,53.717,49.406,51.875z"/>
<path d="M20,47h29V14H20V47z M22,17h9.344h6.875H47v12H22V17z M22,31h9.344h6.875H47v12H22V31z"/>
<path d="M39.938,33c0,1.044-0.77,2-1.719,2h-6.875c-0.949,0-1.719-0.956-1.719-2c0-0.356,0.095-0.699,0.251-1H23v10h23V32h-6.313
	C39.843,32.301,39.938,32.644,39.938,33z"/>
<path d="M39.938,19c0,1.044-0.77,2-1.719,2h-6.875c-0.949,0-1.719-0.956-1.719-2c0-0.356,0.095-0.699,0.251-1H23v10h23V18h-6.313
	C39.843,18.301,39.938,18.644,39.938,19z"/>
<path d="M22.161,55.243c0.015,0,0.028,0.007,0.043,0.007c0.185,0,0.362-0.045,0.533-0.111c0.164-0.063,0.319-0.157,0.467-0.273
	c0.711-0.56,1.203-1.682,1.203-2.991s-0.492-2.432-1.203-2.991c-0.147-0.116-0.302-0.21-0.467-0.273
	c-0.172-0.066-0.348-0.111-0.533-0.111c-0.015,0-0.028,0.006-0.043,0.007C20.964,48.542,20,50.033,20,51.875
	S20.964,55.208,22.161,55.243z"/>
<path d="M45.737,48.611c-0.172-0.066-0.348-0.111-0.533-0.111c-0.015,0-0.028,0.006-0.043,0.007C43.964,48.542,43,50.033,43,51.875
	s0.964,3.333,2.161,3.368c0.015,0,0.028,0.007,0.043,0.007c0.185,0,0.362-0.045,0.533-0.111c0.164-0.063,0.319-0.157,0.467-0.273
	c0.711-0.56,1.203-1.682,1.203-2.991s-0.492-2.432-1.203-2.991C46.056,48.768,45.901,48.674,45.737,48.611z"/>
</svg>
