<?xml version="1.0" encoding="utf-8"?>
<!-- Generator: Adobe Illustrator 17.1.0, SVG Export Plug-In . SVG Version: 6.00 Build 0)  -->
<!DOCTYPE svg PUBLIC "-//W3C//DTD SVG 1.1//EN" "http://www.w3.org/Graphics/SVG/1.1/DTD/svg11.dtd">
<svg version="1.1" id="Layer_1" xmlns="http://www.w3.org/2000/svg" xmlns:xlink="http://www.w3.org/1999/xlink" x="0px" y="0px"
	 viewBox="0 0 128 128" enable-background="new 0 0 128 128" xml:space="preserve">
<path d="M63.4,89.9c12.4,32.8,24.8,31.1,38.9,25.8c14.1-5.3,24.2-13.2,12.1-45.1c-1.4-3.8-3.1-7.2-4.9-10.4L60.3,78.9
	C61,82.5,62,86.1,63.4,89.9z"/>
<path d="M29.4,57.7c9.3-6.2,9.5-14.1,9.7-21.1c0.2-5.7,0.3-10.7,5.3-14.1c3.1-2.1,6.5-2.8,9.9-2c9.8,2.4,16.9,16.5,17.5,17.6
	l-3.5,1.3l1.8,4.9C61.7,50.2,57.6,62.2,60,77.1L83,68.4L82,65.6l-0.6,0.2c-0.6,0.2-1.2,0.3-1.8,0.3c-1.7,0-3.1-0.9-3.6-2.2l-3.4-9.4
	c-0.3-1-0.2-2,0.4-3c0.6-0.9,1.5-1.6,2.6-2l0.3-0.1l-0.3-0.9l-1.9-5.2l1.7-0.6l1.9,5.2l0.3,0.9c2.2-0.6,4.5,0.3,5.1,2l3.4,9.4
	c0.3,1,0.2,2-0.4,3c-0.5,0.7-1.2,1.3-2,1.7l1.1,2.8l23.8-9C100.3,45.7,89,39.4,78.6,41l-1.8-4.8l-3.5,1.3c-0.3-0.6-7.8-16-18.7-18.7
	c-3.9-1-7.7-0.2-11.3,2.2c-5.7,3.9-5.9,9.6-6.1,15.6c-0.2,6.8-0.4,13.9-8.9,19.6c-9,6-23.1,2.9-23.2,2.9l-0.4,1.8
	c0.3,0.1,4.1,0.9,9,0.9C18.6,61.8,24.6,61,29.4,57.7z"/>
<path d="M84.4,62.3c0.3-0.5,0.4-1.1,0.3-1.6l-3.4-9.4c-0.3-0.7-1.1-1.2-2.1-1.2c-0.3,0-0.6,0.1-0.9,0.1c-0.1,0-0.2,0.1-0.4,0.1
	l-1.4,0.5L76.1,51c-0.8,0.3-1.4,0.7-1.8,1.3c-0.3,0.5-0.4,1.1-0.3,1.6l3.4,9.4c0.4,1,1.9,1.5,3.4,0.9l0.6-0.2l1.2-0.4
	c0.2-0.1,0.3-0.2,0.5-0.3C83.6,63.1,84.1,62.7,84.4,62.3z"/>
</svg>
