<?xml version="1.0" encoding="iso-8859-1"?>
<!-- Generator: Adobe Illustrator 17.1.0, SVG Export Plug-In . SVG Version: 6.00 Build 0)  -->
<!DOCTYPE svg PUBLIC "-//W3C//DTD SVG 1.1//EN" "http://www.w3.org/Graphics/SVG/1.1/DTD/svg11.dtd">
<svg version="1.1" id="Layer_1" xmlns="http://www.w3.org/2000/svg" xmlns:xlink="http://www.w3.org/1999/xlink" x="0px" y="0px"
	 viewBox="0 0 64 64" style="enable-background:new 0 0 64 64;" xml:space="preserve">
<rect x="29" y="10" width="5" height="50"/>
<polygon points="27,10 27,62 36,62 36,10 35,10 35,61 28,61 28,10 "/>
<path d="M46,6.262C46,5.214,45.429,4,44.381,4h-2.857c-1.048,0-1.905-0.214-1.905-1s-0.857-1-1.905-1H26.286
	c-1.048,0-1.905,0.214-1.905,1s-0.857,1-1.905,1h-2.857C18.571,4,18,5.214,18,6.262V9h28V6.262z"/>
</svg>
