<?xml version="1.0" encoding="iso-8859-1"?>
<!-- Generator: Adobe Illustrator 17.1.0, SVG Export Plug-In . SVG Version: 6.00 Build 0)  -->
<!DOCTYPE svg PUBLIC "-//W3C//DTD SVG 1.1//EN" "http://www.w3.org/Graphics/SVG/1.1/DTD/svg11.dtd">
<svg version="1.1" id="Layer_1" xmlns="http://www.w3.org/2000/svg" xmlns:xlink="http://www.w3.org/1999/xlink" x="0px" y="0px"
	 viewBox="0 0 64 64" style="enable-background:new 0 0 64 64;" xml:space="preserve">
<path d="M8,47h1h2h1h3.5c0.651,0,1.201-0.419,1.408-1H16.5c-1.378,0-2.5-1.122-2.5-2.5V41H6v2.5C6,44.878,4.878,46,3.5,46H3.092
	c0.207,0.581,0.757,1,1.408,1H8z"/>
<path d="M35.25,53h-5C29.56,53,29,52.259,29,51.5c0-0.171,0.032-0.339,0.084-0.5H25v6h15v-6h-3.584
	c0.052,0.161,0.084,0.329,0.084,0.5C36.5,52.259,35.94,53,35.25,53z"/>
<path d="M35.25,42h-5C29.56,42,29,41.259,29,40.5c0-0.171,0.032-0.339,0.084-0.5H25v6h15v-6h-3.584
	c0.052,0.161,0.084,0.329,0.084,0.5C36.5,41.259,35.94,42,35.25,42z"/>
<path d="M43,37h-2H22v21v2v3h2v-3h17v3h2v-3v-2V45h19v18h2V45v-2v-3v-3h-2H43z M41,58H24v-8h6.25h5H41V58z M41,40v3v2v2H24v-8h6.25
	h5H41V40z M62,43H43v-3h19V43z"/>
<polygon points="46,31 46,33 44,33 44,35 59,35 59,33 57,33 57,31 "/>
<path d="M39,30h25V10H39V30z M52,28.5c-0.69,0-1.25-0.56-1.25-1.25S51.31,26,52,26s1.25,0.56,1.25,1.25S52.69,28.5,52,28.5z M41,12
	h21v13H41V12z"/>
<path d="M23,36h14V12H23V36z M34,33c-0.759,0-1.375-0.616-1.375-1.375S33.241,30.25,34,30.25s1.375,0.616,1.375,1.375
	S34.759,33,34,33z M27,21v-1h6v1H27z M25,15h10v2H25V15z"/>
<path d="M14,40v-1v-0.5c0-1.378,1.122-2.5,2.5-2.5H17V18.5c0-0.827-0.737-1.5-1.643-1.5H4.643C3.737,17,3,17.673,3,18.5V36h0.5
	C4.878,36,6,37.122,6,38.5V40H14z"/>
<path d="M3,45h0.5C4.327,45,5,44.327,5,43.5V41v-1v-1v-0.5C5,37.673,4.327,37,3.5,37H3H2H1.5C0.673,37,0,37.673,0,38.5v5
	C0,44.327,0.673,45,1.5,45H2H3z"/>
<path d="M18,45h0.5c0.827,0,1.5-0.673,1.5-1.5V39c0-1.105-0.895-2-2-2h-1h-0.5c-0.827,0-1.5,0.673-1.5,1.5V40v1v2.5
	c0,0.827,0.673,1.5,1.5,1.5H17H18z"/>
<path d="M17.25,58.5c0.897,0,1.625-0.728,1.625-1.625s-0.728-1.625-1.625-1.625c-0.508,0-0.956,0.238-1.254,0.603L12,55.02l-1-0.208
	V48H9v6.691l-1,0.273l-4.726,1.289c-0.008,0-0.016-0.002-0.024-0.002c-0.305,0-0.587,0.089-0.831,0.236l-0.182,0.05l0.018,0.064
	c-0.38,0.297-0.629,0.755-0.629,1.276c0,0.897,0.728,1.625,1.625,1.625c0.893,0,1.616-0.72,1.624-1.611L8,57.037l0.524-0.143
	L8,57.388l-1.997,1.887c-0.779,0.12-1.378,0.787-1.378,1.6c0,0.897,0.728,1.625,1.625,1.625s1.625-0.728,1.625-1.625
	c0-0.186-0.038-0.361-0.095-0.528l2.48-2.342l2.393,2.593c-0.016,0.09-0.028,0.182-0.028,0.277c0,0.897,0.728,1.625,1.625,1.625
	s1.625-0.728,1.625-1.625s-0.728-1.625-1.625-1.625c-0.038,0-0.073,0.009-0.11,0.011l-2.002-2.169l3.857,0.803
	C16.293,58.261,16.741,58.5,17.25,58.5z"/>
</svg>
