<?xml version="1.0" encoding="iso-8859-1"?>
<!-- Generator: Adobe Illustrator 17.1.0, SVG Export Plug-In . SVG Version: 6.00 Build 0)  -->
<!DOCTYPE svg PUBLIC "-//W3C//DTD SVG 1.1//EN" "http://www.w3.org/Graphics/SVG/1.1/DTD/svg11.dtd">
<svg version="1.1" id="Layer_1" xmlns="http://www.w3.org/2000/svg" xmlns:xlink="http://www.w3.org/1999/xlink" x="0px" y="0px"
	 viewBox="0 0 64 64" style="enable-background:new 0 0 64 64;" xml:space="preserve">
<path d="M52,36V9H15v38h28v-0.875v-8.958V37v-1h1h7.75H52z M49.143,20.726c-0.17,0.217-0.486,0.255-0.702,0.083
	c-0.165-0.131-0.296-0.273-0.411-0.419c-0.625-0.792-0.585-1.766-0.551-2.447c0.011-0.233,0.029-0.586-0.016-0.678
	c-0.125,0.015-0.301,0.178-0.501,0.446c0.005,0.059,0.007,0.118,0.007,0.177c-0.007,1.001-0.731,1.945-1.162,2.42
	c-0.148,0.163-0.262,0.272-0.3,0.308c-0.168,0.157-0.419,0.178-0.612,0.053c-0.14-0.091-0.22-0.243-0.226-0.402
	c-0.002-0.059,0.004-0.119,0.024-0.178c0.172-0.508,0.603-1.673,1.205-2.575c-0.051-0.12-0.131-0.229-0.242-0.335
	c-0.16-0.153-0.27-0.202-0.306-0.19c-0.269,0.055-0.697,1.051-0.98,1.71c-0.212,0.493-0.459,1.022-0.734,1.529
	c-0.099,0.183-0.189,0.373-0.3,0.543c-0.493,0.756-1.077,1.028-1.592,1.028c-0.234,0-0.453-0.056-0.644-0.148
	c-0.515-0.249-0.929-0.819-1.1-1.556c-0.131-0.563-0.124-1.221,0.11-1.922c0.093-0.28,0.187-0.533,0.287-0.75
	c-0.257-0.073-0.558-0.089-0.877,0.039c-0.352,0.141-0.726,0.513-1.123,0.907c-0.808,0.805-1.813,1.805-3.241,1.262
	c-0.333-0.127-0.581-0.383-0.718-0.74c-0.088-0.229-0.126-0.504-0.126-0.81c-0.577,0.777-1.205,1.404-1.849,1.738
	c-0.097,0.05-0.193,0.113-0.29,0.148c-0.583,0.211-1.031,0.079-1.391-0.209c-0.372-0.297-0.65-0.761-0.881-1.195
	c-0.202,0.491-0.611,0.758-1.121,0.742c-0.313-0.014-0.638-0.14-0.931-0.338c-0.126,0.109-0.241,0.21-0.336,0.294
	c-0.155,0.136-0.289,0.252-0.418,0.362c-0.033,0.028-0.076,0.066-0.106,0.092c-0.554,0.461-1.103,0.858-1.714,0.678
	c-0.353-0.105-0.637-0.373-0.895-0.869c-0.153-0.293-0.296-0.664-0.439-1.13c-0.075-0.243-0.197-0.317-0.295-0.354
	c-0.811-0.308-2.765,0.817-3.614,1.325c-0.061,0.037-0.132,0.079-0.181,0.108c-0.397,0.24-0.518,0.311-0.644,0.342
	c-0.266,0.067-0.54-0.095-0.606-0.363c-0.064-0.255,0.08-0.513,0.325-0.595c0.075-0.036,0.217-0.124,0.409-0.24
	c1.735-1.048,3.503-1.956,4.668-1.512c0.436,0.167,0.746,0.51,0.895,0.995c0.375,1.216,0.635,1.325,0.663,1.334
	c0.064,0.02,0.259-0.046,0.789-0.488c0.145-0.121,0.317-0.272,0.503-0.436c0.101-0.088,0.198-0.174,0.293-0.257
	c-0.158-0.242-0.266-0.505-0.299-0.766c-0.087-0.682,0.321-1.231,1.093-1.468c1.52-0.465,2.216,0.869,2.725,1.845
	c0.566,1.086,0.785,1.302,1.168,1.164c1.002-0.364,2.212-2.14,3.188-4.03H32c-0.276,0-0.5-0.224-0.5-0.5S31.724,14,32,14h3.422
	c0.373-0.882,0.732-1.601,0.883-1.895c0.122-0.235,0.406-0.335,0.646-0.229c0.242,0.106,0.359,0.383,0.268,0.631
	c-0.007,0.02-0.238,0.632-0.623,1.493H39c0.276,0,0.5,0.224,0.5,0.5S39.276,15,39,15h-2.873c-0.039,0.079-0.075,0.156-0.116,0.237
	c-0.514,1.366-0.867,2.707-0.64,3.298c0.043,0.113,0.093,0.146,0.14,0.164c0.769,0.292,1.335-0.197,2.18-1.036
	c0.45-0.448,0.915-0.911,1.457-1.127c0.762-0.305,1.441-0.152,1.939,0.089c0.079-0.026,0.164-0.036,0.254-0.029
	c0.371,0.029,0.646,0.368,0.735,0.906c0.036,0.218-0.075,0.434-0.273,0.531c-0.181,0.089-0.397,0.06-0.548-0.073
	c-0.057,0.134-0.122,0.307-0.197,0.532c-0.219,0.657-0.171,1.23-0.01,1.644c0.119,0.305,0.298,0.526,0.486,0.617
	c0.409,0.2,0.78-0.244,0.963-0.525c0.008-0.012,0.013-0.026,0.021-0.038c0.361-0.563,0.652-1.232,0.932-1.883
	c0.513-1.193,0.918-2.136,1.699-2.295c0.398-0.081,0.8,0.068,1.196,0.445c0.086,0.082,0.164,0.168,0.232,0.259
	c0.288-0.249,0.574-0.392,0.929-0.397c0.363,0.005,0.581,0.157,0.701,0.284c0.321,0.342,0.296,0.851,0.27,1.39
	c-0.036,0.744-0.074,1.513,0.583,2.032C49.276,20.195,49.313,20.51,49.143,20.726z"/>
<polygon points="44,46.125 51.75,37 44,37 "/>
<path d="M28.51,16.932c-0.086,0-0.179,0.015-0.279,0.046c-0.428,0.131-0.406,0.303-0.395,0.385c0.01,0.08,0.04,0.162,0.083,0.244
	c0.346-0.271,0.65-0.475,0.921-0.589C28.737,16.96,28.629,16.932,28.51,16.932z"/>
<path d="M28.821,18.309c0.055,0.004,0.135,0.006,0.19-0.249c0.001-0.003,0.001-0.006,0.002-0.009
	c-0.099,0.062-0.211,0.141-0.33,0.23C28.732,18.298,28.778,18.307,28.821,18.309z"/>
</svg>
