<?xml version="1.0" encoding="utf-8"?>
<!-- Generator: Adobe Illustrator 17.1.0, SVG Export Plug-In . SVG Version: 6.00 Build 0)  -->
<!DOCTYPE svg PUBLIC "-//W3C//DTD SVG 1.1//EN" "http://www.w3.org/Graphics/SVG/1.1/DTD/svg11.dtd">
<svg version="1.1" id="Layer_1" xmlns="http://www.w3.org/2000/svg" xmlns:xlink="http://www.w3.org/1999/xlink" x="0px" y="0px"
	 viewBox="0 0 128 128" enable-background="new 0 0 128 128" xml:space="preserve">
<polygon points="42.4,97.4 42.1,96.1 40.2,112.4 42.3,112.6 43.8,99.2 42.9,99.2 "/>
<polygon points="79.8,99.2 78.9,99.2 80.4,112.6 82.5,112.4 80.6,96.1 80.2,97.4 "/>
<polygon points="26.7,53.5 6,57.7 6,61.8 45.1,61.8 45.7,57.7 78.6,57.7 79.2,61.8 118,61.8 118,57.7 101.4,53.5 "/>
<polygon points="48.5,90.9 42.5,90.9 42.6,91.3 44.1,96.2 44.4,97.1 47.8,97.1 "/>
<polygon points="54.8,90.9 54.1,97.1 69.4,97.1 68.9,90.9 "/>
<polygon points="79.9,93.3 80.7,90.9 75.2,90.9 75.7,97.1 78.2,97.1 78.7,97.1 "/>
<path d="M50.6,70.4c0.2-1.6,1.6-2.4,3.1-2.4h16.6c1.7,0,3,1.1,3.2,2.6l0.7,7.8h5.3l-2.3-16.6l-0.3-2.1H47.5l-0.3,2.1l-2.6,16.6h5.2
	L50.6,70.4z"/>
<polygon points="56.5,74.3 56.1,78.4 67.8,78.4 67.4,74.3 "/>
<path d="M73.6,97.1l-0.5-6.2l-0.2-2.1l-0.7-8.3L72,78.4l-0.7-7.7c0-0.5-0.6-0.6-1.1-0.6H53.7c-0.5,0-1,0.1-1.1,0.6l-0.8,7.7
	l-0.2,2.1l-0.9,8.3l-0.2,2.1l-0.6,6.2l-0.2,2.1l-2.4,23.2l2.1,0.1l2.4-23.3l0.2-2.1l0.7-6.2l0.2-2.1l0.9-8.3l0.2-2.1l0.7-6.2h0.9
	h12.8h0.9l0.5,6.2l0.2,2.1l0.7,8.3l0.2,2.1l0.5,6.2l0.2,2.1l2.1,23.6l2.1-0.1l-2-23.5L73.6,97.1z"/>
<rect x="6" y="63.9" width="4.1" height="47.7"/>
<rect x="113.9" y="63.9" width="4.1" height="47.7"/>
<rect x="97.3" y="63.9" width="4.1" height="35.3"/>
<rect x="24.7" y="63.9" width="4.1" height="35.3"/>
</svg>
