<?xml version="1.0" encoding="iso-8859-1"?>
<!-- Generator: Adobe Illustrator 17.1.0, SVG Export Plug-In . SVG Version: 6.00 Build 0)  -->
<!DOCTYPE svg PUBLIC "-//W3C//DTD SVG 1.1//EN" "http://www.w3.org/Graphics/SVG/1.1/DTD/svg11.dtd">
<svg version="1.1" id="Layer_1" xmlns="http://www.w3.org/2000/svg" xmlns:xlink="http://www.w3.org/1999/xlink" x="0px" y="0px"
	 viewBox="0 0 64 64" style="enable-background:new 0 0 64 64;" xml:space="preserve">
<polygon points="47.062,5 17.938,5 16.205,18 48.795,18 "/>
<path d="M57,19h-7.062h-0.571h-0.438H16.071h-0.438h-0.571H6.5C5.673,19,5,19.673,5,20.5v24C5,45.327,5.673,46,6.5,46h12.034L18,47
	l-5.333,10H13.5h38h0.833L47,47l-0.533-1H57.5c0.827,0,1.5-0.673,1.5-1.5V21C59,19.895,58.105,19,57,19z M19,36.5
	c0-0.855,0.689-1.5,1.603-1.5h0h0H44.66h0h0c1.243,0,1.34,1.148,1.34,1.5v6c0,0.274-0.067,1.026-0.682,1.347L43.8,41H21.2
	l-1.475,2.766C19.283,43.505,19,43.046,19,42.5V36.5z M50.667,56H14.333l4.8-9l0.533-1l0.553-1.036l0.008-0.015L20.733,44l1.067-2
	h21.4l1.067,2l0.523,0.98l0.004,0.008L45.334,46l0.533,1L50.667,56z M52.917,27c-1.013,0-1.833-0.821-1.833-1.833
	c0-1.013,0.821-1.833,1.833-1.833s1.833,0.821,1.833,1.833C54.75,26.179,53.929,27,52.917,27z"/>
<rect x="19" y="53" width="15" height="1"/>
<rect x="20" y="51" width="25" height="1"/>
<rect x="21" y="49" width="23" height="1"/>
<polygon points="42.385,47 41.979,46 41.573,45 41.167,44 36,44 35.948,45 35.896,46 35.844,47 35.792,48 42.792,48 "/>
</svg>
