<?xml version="1.0" encoding="iso-8859-1"?>
<!-- Generator: Adobe Illustrator 17.1.0, SVG Export Plug-In . SVG Version: 6.00 Build 0)  -->
<!DOCTYPE svg PUBLIC "-//W3C//DTD SVG 1.1//EN" "http://www.w3.org/Graphics/SVG/1.1/DTD/svg11.dtd">
<svg version="1.1" id="Layer_1" xmlns="http://www.w3.org/2000/svg" xmlns:xlink="http://www.w3.org/1999/xlink" x="0px" y="0px"
	 viewBox="0 0 64 64" style="enable-background:new 0 0 64 64;" xml:space="preserve">
<path d="M48.257,15H15.495C14.461,15,14,16.024,14,16.825v0.725c0,0.801,0.461,1.45,1.495,1.45H17v0.387v1.234v1.414v0.18v1.414
	v1.234v1.414v0.18v1.414v1.234v1.414v0.18v1.414v1.234v1.414v0.18v1.414v1.234v1.414v0.18V40.6v1.234v1.414v0.18v1.414v1.234v1.414
	v0.18v1.414v1.234v1.414v0.18v1.414V54v1h30V19h1.257C49.291,19,50,18.351,50,17.55v-0.725C50,16.024,49.291,15,48.257,15z
	 M45.672,19l-0.297,0.297L45.077,19H45.672z M42.843,19h0.82l1.004,1.004l-1.414,1.414l-1.414-1.414L42.843,19z M26.99,34.854
	l1.414-1.414l1.414,1.414l-1.414,1.414L26.99,34.854z M27.697,36.975l-1.414,1.414l-1.414-1.414l1.414-1.414L27.697,36.975z
	 M30.525,35.561l1.414,1.414l-1.414,1.414l-1.414-1.414L30.525,35.561z M31.232,34.854l1.414-1.414l1.414,1.414l-1.414,1.414
	L31.232,34.854z M34.768,35.561l1.414,1.414l-1.414,1.414l-1.414-1.414L34.768,35.561z M35.475,34.854l1.414-1.414l1.414,1.414
	l-1.414,1.414L35.475,34.854z M35.475,30.611l1.414-1.414l1.414,1.414l-1.414,1.414L35.475,30.611z M36.182,32.732l-1.414,1.414
	l-1.414-1.414l1.414-1.414L36.182,32.732z M32.646,32.025l-1.414-1.414l1.414-1.414l1.414,1.414L32.646,32.025z M31.939,32.732
	l-1.414,1.414l-1.414-1.414l1.414-1.414L31.939,32.732z M28.404,32.025l-1.414-1.414l1.414-1.414l1.414,1.414L28.404,32.025z
	 M27.697,32.732l-1.414,1.414l-1.414-1.414l1.414-1.414L27.697,32.732z M24.161,32.025l-1.414-1.414l1.414-1.414l1.414,1.414
	L24.161,32.025z M25.576,34.854l-1.414,1.414l-1.414-1.414l1.414-1.414L25.576,34.854z M25.575,39.096l-1.414,1.414l-1.414-1.414
	l1.414-1.414L25.575,39.096z M26.282,39.803l1.414,1.414l-1.414,1.414l-1.414-1.414L26.282,39.803z M26.99,39.096l1.414-1.414
	l1.414,1.414l-1.414,1.414L26.99,39.096z M30.525,39.803l1.414,1.414l-1.414,1.414l-1.414-1.414L30.525,39.803z M31.232,39.096
	l1.414-1.414l1.414,1.414l-1.414,1.414L31.232,39.096z M34.768,39.803l1.414,1.414l-1.414,1.414l-1.414-1.414L34.768,39.803z
	 M35.475,39.096l1.414-1.414l1.414,1.414l-1.414,1.414L35.475,39.096z M39.01,39.803l1.414,1.414l-1.414,1.414l-1.414-1.414
	L39.01,39.803z M37.596,36.975l1.414-1.414l1.414,1.414l-1.414,1.414L37.596,36.975z M37.596,32.732l1.414-1.414l1.414,1.414
	l-1.414,1.414L37.596,32.732z M37.596,28.49l1.414-1.414l1.414,1.414l-1.414,1.414L37.596,28.49z M36.889,27.783l-1.414-1.414
	l1.414-1.414l1.414,1.414L36.889,27.783z M36.182,28.49l-1.414,1.414l-1.414-1.414l1.414-1.414L36.182,28.49z M32.646,27.782
	l-1.414-1.414l1.414-1.414l1.414,1.414L32.646,27.782z M31.939,28.49l-1.414,1.414l-1.414-1.414l1.414-1.414L31.939,28.49z
	 M28.404,27.782l-1.414-1.414l1.414-1.414l1.414,1.414L28.404,27.782z M27.697,28.49l-1.414,1.414l-1.414-1.414l1.414-1.414
	L27.697,28.49z M24.161,27.783l-1.414-1.414l1.414-1.414l1.414,1.414L24.161,27.783z M23.454,28.49l-1.414,1.414l-1.414-1.414
	l1.414-1.414L23.454,28.49z M23.454,32.732l-1.414,1.414l-1.414-1.414l1.414-1.414L23.454,32.732z M23.454,36.975l-1.414,1.414
	l-1.414-1.414l1.414-1.414L23.454,36.975z M23.454,41.217l-1.414,1.414l-1.414-1.414l1.414-1.414L23.454,41.217z M23.454,45.46
	l-1.414,1.414l-1.414-1.414l1.414-1.414L23.454,45.46z M22.747,43.339l1.414-1.414l1.414,1.414l-1.414,1.414L22.747,43.339z
	 M26.282,44.046l1.414,1.414l-1.414,1.414l-1.414-1.414L26.282,44.046z M26.99,43.339l1.414-1.414l1.414,1.414l-1.414,1.414
	L26.99,43.339z M30.525,44.046l1.414,1.414l-1.414,1.414l-1.414-1.414L30.525,44.046z M31.232,43.339l1.414-1.414l1.414,1.414
	l-1.414,1.414L31.232,43.339z M34.768,44.046l1.414,1.414l-1.414,1.414l-1.414-1.414L34.768,44.046z M35.475,43.339l1.414-1.414
	l1.414,1.414l-1.414,1.414L35.475,43.339z M39.011,44.046l1.414,1.414l-1.414,1.414l-1.414-1.414L39.011,44.046z M39.718,43.339
	l1.414-1.414l1.414,1.414l-1.414,1.414L39.718,43.339z M39.718,39.096l1.414-1.414l1.414,1.414l-1.414,1.414L39.718,39.096z
	 M39.717,34.854l1.414-1.414l1.414,1.414l-1.414,1.414L39.717,34.854z M39.717,30.611l1.414-1.414l1.414,1.414l-1.414,1.414
	L39.717,30.611z M39.718,26.368l1.414-1.414l1.414,1.414l-1.414,1.414L39.718,26.368z M39.717,22.126l1.415-1.415l1.414,1.414
	l-1.415,1.415L39.717,22.126z M40.425,24.247l-1.414,1.414l-1.414-1.414l1.414-1.414L40.425,24.247z M36.889,23.54l-1.414-1.414
	l1.414-1.414l1.414,1.414L36.889,23.54z M36.182,24.247l-1.414,1.414l-1.414-1.414l1.414-1.414L36.182,24.247z M32.646,23.54
	l-1.414-1.414l1.414-1.414l1.414,1.414L32.646,23.54z M31.939,24.247l-1.414,1.414l-1.414-1.414l1.414-1.414L31.939,24.247z
	 M28.404,23.54l-1.414-1.414l1.414-1.414l1.414,1.414L28.404,23.54z M27.697,24.247l-1.414,1.414l-1.414-1.414l1.414-1.414
	L27.697,24.247z M24.161,23.54l-1.414-1.414l1.414-1.414l1.414,1.414L24.161,23.54z M23.454,24.247l-1.414,1.414l-1.414-1.414
	l1.414-1.414L23.454,24.247z M19.918,23.54l-1.414-1.414l1.414-1.414l1.414,1.414L19.918,23.54z M21.333,26.368l-1.414,1.414
	l-1.414-1.414l1.414-1.414L21.333,26.368z M21.333,30.611l-1.414,1.414l-1.414-1.414l1.414-1.414L21.333,30.611z M21.333,34.854
	l-1.414,1.414l-1.414-1.414l1.414-1.414L21.333,34.854z M21.333,39.096l-1.414,1.414l-1.414-1.414l1.414-1.414L21.333,39.096z
	 M21.333,43.339l-1.414,1.414l-1.414-1.414l1.414-1.414L21.333,43.339z M21.333,47.581l-1.414,1.414l-1.414-1.414l1.414-1.414
	L21.333,47.581z M22.04,48.289l1.414,1.414l-1.414,1.414l-1.414-1.414L22.04,48.289z M22.747,47.581l1.414-1.414l1.414,1.414
	l-1.414,1.414L22.747,47.581z M26.283,48.289l1.414,1.414l-1.414,1.414l-1.414-1.414L26.283,48.289z M26.99,47.582l1.414-1.414
	l1.414,1.414l-1.414,1.414L26.99,47.582z M30.525,48.289l1.414,1.414l-1.414,1.414l-1.414-1.414L30.525,48.289z M31.232,47.582
	l1.414-1.414l1.414,1.414l-1.414,1.414L31.232,47.582z M34.768,48.289l1.414,1.414l-1.414,1.414l-1.414-1.414L34.768,48.289z
	 M35.475,47.582l1.414-1.414l1.414,1.414l-1.414,1.414L35.475,47.582z M39.01,48.289l1.414,1.414l-1.414,1.414l-1.414-1.414
	L39.01,48.289z M39.717,47.582l1.414-1.414l1.414,1.414l-1.414,1.414L39.717,47.582z M43.253,48.289l1.414,1.414l-1.414,1.414
	l-1.414-1.414L43.253,48.289z M41.839,45.46l1.414-1.414l1.414,1.414l-1.414,1.414L41.839,45.46z M41.839,41.217l1.414-1.414
	l1.414,1.414l-1.414,1.414L41.839,41.217z M41.839,36.975l1.414-1.414l1.414,1.414l-1.414,1.414L41.839,36.975z M41.839,32.732
	l1.414-1.414l1.414,1.414l-1.414,1.414L41.839,32.732z M41.839,28.49l1.414-1.414l1.414,1.414l-1.414,1.414L41.839,28.49z
	 M41.839,24.247l1.415-1.415l1.414,1.414l-1.415,1.415L41.839,24.247z M41.429,19l-0.297,0.297L40.835,19H41.429z M38.6,19h0.82
	l1.004,1.004l-1.415,1.415l-1.414-1.414L38.6,19z M37.186,19l-0.297,0.297L36.591,19H37.186z M34.358,19h0.82l1.004,1.004
	l-1.414,1.414l-1.414-1.414L34.358,19z M32.944,19l-0.297,0.297L32.349,19H32.944z M30.115,19h0.82l1.004,1.004l-1.414,1.414
	l-1.414-1.414L30.115,19z M28.701,19l-0.297,0.297L28.106,19H28.701z M25.872,19h0.82l1.004,1.004l-1.414,1.414l-1.414-1.414
	L25.872,19z M24.458,19l-0.297,0.297L23.864,19H24.458z M21.63,19h0.82l1.004,1.004l-1.414,1.414l-1.414-1.414L21.63,19z M20.216,19
	l-0.297,0.297L19.621,19H20.216z M18,19h0.207l1.004,1.004L18,21.216V19z M18,23.036l1.211,1.211L18,25.458V23.036z M18,27.278
	l1.211,1.211L18,29.701V27.278z M18,31.521l1.211,1.211L18,33.944V31.521z M18,35.763l1.211,1.211L18,38.186V35.763z M18,40.006
	l1.211,1.211L18,42.429V40.006z M18,44.249l1.211,1.211L18,46.672V44.249z M18,48.491l1.211,1.211L18,50.914V48.491z M19.157,54H18
	v-1.266l1.212,1.211L19.157,54z M18.504,51.824l1.414-1.414l1.414,1.414l-1.414,1.414L18.504,51.824z M23.4,54h-2.72l-0.054-0.054
	l1.414-1.414l1.414,1.414L23.4,54z M22.747,51.824l1.414-1.414l1.414,1.414l-1.414,1.414L22.747,51.824z M27.642,54h-2.72
	l-0.054-0.054l1.414-1.414l1.414,1.414L27.642,54z M26.99,51.824l1.414-1.414l1.414,1.414l-1.414,1.414L26.99,51.824z M31.885,54
	h-2.72l-0.055-0.054l1.414-1.414l1.414,1.414L31.885,54z M31.232,51.824l1.414-1.414l1.414,1.414l-1.414,1.414L31.232,51.824z
	 M36.128,54h-2.72l-0.055-0.055l1.414-1.414l1.414,1.414L36.128,54z M35.475,51.824l1.414-1.414l1.414,1.414l-1.414,1.414
	L35.475,51.824z M40.37,54h-2.72l-0.054-0.054l1.414-1.414l1.414,1.414L40.37,54z M39.717,51.824l1.414-1.414l1.414,1.414
	l-1.414,1.414L39.717,51.824z M44.613,54h-2.719l-0.054-0.054l1.414-1.414l1.414,1.414L44.613,54z M46,52.613l-0.626,0.626
	l-1.414-1.414l1.414-1.414L46,51.035V52.613z M46,48.37l-0.625,0.625l-1.414-1.414l1.414-1.414L46,46.793V48.37z M46,44.128
	l-0.625,0.625l-1.414-1.414l1.414-1.414L46,42.55V44.128z M46,39.885l-0.626,0.625l-1.414-1.414l1.414-1.414L46,38.308V39.885z
	 M46,35.642l-0.626,0.626l-1.414-1.414l1.414-1.414L46,34.065V35.642z M46,31.4l-0.625,0.625l-1.414-1.414l1.414-1.414L46,29.822
	V31.4z M46,27.157l-0.626,0.626l-1.414-1.414l1.415-1.415L46,25.579V27.157z M46,22.914l-0.625,0.625l-1.414-1.414l1.414-1.414
	L46,21.337V22.914z"/>
</svg>
