<?xml version="1.0" encoding="iso-8859-1"?>
<!-- Generator: Adobe Illustrator 17.1.0, SVG Export Plug-In . SVG Version: 6.00 Build 0)  -->
<!DOCTYPE svg PUBLIC "-//W3C//DTD SVG 1.1//EN" "http://www.w3.org/Graphics/SVG/1.1/DTD/svg11.dtd">
<svg version="1.1" id="Layer_1" xmlns="http://www.w3.org/2000/svg" xmlns:xlink="http://www.w3.org/1999/xlink" x="0px" y="0px"
	 viewBox="0 0 64 64" style="enable-background:new 0 0 64 64;" xml:space="preserve">
<path d="M53.546,47h0.026L54,46.5V9H21.908C21.964,9.157,22,9.324,22,9.5c0,0.386-0.15,0.734-0.39,1c0.24,0.266,0.39,0.614,0.39,1
	s-0.15,0.734-0.39,1c0.24,0.266,0.39,0.614,0.39,1s-0.15,0.734-0.39,1c0.24,0.266,0.39,0.614,0.39,1s-0.15,0.734-0.39,1
	c0.24,0.266,0.39,0.614,0.39,1s-0.15,0.734-0.39,1c0.24,0.266,0.39,0.614,0.39,1s-0.15,0.734-0.39,1c0.24,0.266,0.39,0.614,0.39,1
	s-0.15,0.734-0.39,1c0.24,0.266,0.39,0.614,0.39,1s-0.15,0.734-0.39,1c0.24,0.266,0.39,0.614,0.39,1s-0.15,0.734-0.39,1
	c0.24,0.266,0.39,0.614,0.39,1s-0.15,0.734-0.39,1c0.24,0.266,0.39,0.614,0.39,1s-0.15,0.734-0.39,1c0.24,0.266,0.39,0.614,0.39,1
	s-0.15,0.734-0.39,1c0.24,0.266,0.39,0.614,0.39,1s-0.15,0.734-0.39,1c0.24,0.266,0.39,0.614,0.39,1s-0.15,0.734-0.39,1
	c0.24,0.266,0.39,0.614,0.39,1s-0.15,0.734-0.39,1c0.24,0.266,0.39,0.614,0.39,1s-0.15,0.734-0.39,1c0.24,0.266,0.39,0.614,0.39,1
	s-0.15,0.734-0.39,1c0.24,0.266,0.39,0.614,0.39,1s-0.15,0.734-0.39,1c0.24,0.266,0.39,0.614,0.39,1s-0.15,0.734-0.39,1
	c0.24,0.266,0.39,0.614,0.39,1s-0.15,0.734-0.39,1c0.24,0.266,0.39,0.614,0.39,1s-0.15,0.734-0.39,1c0.24,0.266,0.39,0.614,0.39,1
	s-0.15,0.734-0.39,1c0.24,0.266,0.39,0.614,0.39,1s-0.15,0.734-0.39,1c0.24,0.266,0.39,0.614,0.39,1c0,0.176-0.036,0.343-0.092,0.5
	h23.967L46,55.854v-2.229v-5.958V47h1h0.298h5.155H53.546z M26,14h14v1H26V14z M26,17h14v1H26V17z M26,20h14v1H26V20z M26,23h14v1
	H26V23z M26,26h14v1H26V26z M40,39H26v-1h14V39z M51,36H26v-1h25V36z M51,33H26v-1h25V33z M51,30H26v-1h25V30z M51,25h-9V14h9V25z"
	/>
<polygon points="47,53.625 52.452,48 52,48 47,48 "/>
<path d="M15.5,10H18h1h1.5c0.196,0,0.361-0.116,0.443-0.28C20.977,9.653,21,9.58,21,9.5C21,9.224,20.776,9,20.5,9H20h-1h-1h-2.5
	C15.224,9,15,9.224,15,9.5S15.224,10,15.5,10z"/>
<path d="M15.5,12H18h1h1.5c0.196,0,0.361-0.116,0.443-0.28C20.977,11.653,21,11.58,21,11.5c0-0.276-0.224-0.5-0.5-0.5H20h-1h-1h-2.5
	c-0.276,0-0.5,0.224-0.5,0.5S15.224,12,15.5,12z"/>
<path d="M15.5,14H18h1h1.5c0.196,0,0.361-0.116,0.443-0.28C20.977,13.653,21,13.58,21,13.5c0-0.276-0.224-0.5-0.5-0.5H20h-1h-1h-2.5
	c-0.276,0-0.5,0.224-0.5,0.5S15.224,14,15.5,14z"/>
<path d="M15.5,16H18h1h1.5c0.196,0,0.361-0.116,0.443-0.28C20.977,15.653,21,15.58,21,15.5c0-0.276-0.224-0.5-0.5-0.5H20h-1h-1h-2.5
	c-0.276,0-0.5,0.224-0.5,0.5S15.224,16,15.5,16z"/>
<path d="M15.5,18H18h1h1.5c0.196,0,0.361-0.116,0.443-0.28C20.977,17.653,21,17.58,21,17.5c0-0.276-0.224-0.5-0.5-0.5H20h-1h-1h-2.5
	c-0.276,0-0.5,0.224-0.5,0.5S15.224,18,15.5,18z"/>
<path d="M15.5,20H18h1h1.5c0.196,0,0.361-0.116,0.443-0.28C20.977,19.653,21,19.58,21,19.5c0-0.276-0.224-0.5-0.5-0.5H20h-1h-1h-2.5
	c-0.276,0-0.5,0.224-0.5,0.5S15.224,20,15.5,20z"/>
<path d="M15.5,22H18h1h1.5c0.196,0,0.361-0.116,0.443-0.28C20.977,21.653,21,21.58,21,21.5c0-0.276-0.224-0.5-0.5-0.5H20h-1h-1h-2.5
	c-0.276,0-0.5,0.224-0.5,0.5S15.224,22,15.5,22z"/>
<path d="M15.5,24H18h1h1.5c0.196,0,0.361-0.116,0.443-0.28C20.977,23.653,21,23.58,21,23.5c0-0.276-0.224-0.5-0.5-0.5H20h-1h-1h-2.5
	c-0.276,0-0.5,0.224-0.5,0.5S15.224,24,15.5,24z"/>
<path d="M15.5,26H18h1h1.5c0.196,0,0.361-0.116,0.443-0.28C20.977,25.653,21,25.58,21,25.5c0-0.276-0.224-0.5-0.5-0.5H20h-1h-1h-2.5
	c-0.276,0-0.5,0.224-0.5,0.5S15.224,26,15.5,26z"/>
<path d="M15.5,28H18h1h1.5c0.196,0,0.361-0.116,0.443-0.28C20.977,27.653,21,27.58,21,27.5c0-0.276-0.224-0.5-0.5-0.5H20h-1h-1h-2.5
	c-0.276,0-0.5,0.224-0.5,0.5S15.224,28,15.5,28z"/>
<path d="M15.5,30H18h1h1.5c0.196,0,0.361-0.116,0.443-0.28C20.977,29.653,21,29.58,21,29.5c0-0.276-0.224-0.5-0.5-0.5H20h-1h-1h-2.5
	c-0.276,0-0.5,0.224-0.5,0.5S15.224,30,15.5,30z"/>
<path d="M15.5,32H18h1h1.5c0.196,0,0.361-0.116,0.443-0.28C20.977,31.653,21,31.58,21,31.5c0-0.276-0.224-0.5-0.5-0.5H20h-1h-1h-2.5
	c-0.276,0-0.5,0.224-0.5,0.5S15.224,32,15.5,32z"/>
<path d="M15.5,34H18h1h1.5c0.196,0,0.361-0.116,0.443-0.28C20.977,33.653,21,33.58,21,33.5c0-0.276-0.224-0.5-0.5-0.5H20h-1h-1h-2.5
	c-0.276,0-0.5,0.224-0.5,0.5S15.224,34,15.5,34z"/>
<path d="M15.5,36H18h1h1.5c0.196,0,0.361-0.116,0.443-0.28C20.977,35.653,21,35.58,21,35.5c0-0.276-0.224-0.5-0.5-0.5H20h-1h-1h-2.5
	c-0.276,0-0.5,0.224-0.5,0.5S15.224,36,15.5,36z"/>
<path d="M15.5,38H18h1h1.5c0.196,0,0.361-0.116,0.443-0.28C20.977,37.653,21,37.58,21,37.5c0-0.276-0.224-0.5-0.5-0.5H20h-1h-1h-2.5
	c-0.276,0-0.5,0.224-0.5,0.5S15.224,38,15.5,38z"/>
<path d="M15.5,40H18h1h1.5c0.196,0,0.361-0.116,0.443-0.28C20.977,39.653,21,39.58,21,39.5c0-0.276-0.224-0.5-0.5-0.5H20h-1h-1h-2.5
	c-0.276,0-0.5,0.224-0.5,0.5S15.224,40,15.5,40z"/>
<path d="M15.5,42H18h1h1.5c0.196,0,0.361-0.116,0.443-0.28C20.977,41.653,21,41.58,21,41.5c0-0.276-0.224-0.5-0.5-0.5H20h-1h-1h-2.5
	c-0.276,0-0.5,0.224-0.5,0.5S15.224,42,15.5,42z"/>
<path d="M15.5,44H18h1h1.5c0.196,0,0.361-0.116,0.443-0.28C20.977,43.653,21,43.58,21,43.5c0-0.276-0.224-0.5-0.5-0.5H20h-1h-1h-2.5
	c-0.276,0-0.5,0.224-0.5,0.5S15.224,44,15.5,44z"/>
<path d="M15.5,46H18h1h1.5c0.196,0,0.361-0.116,0.443-0.28C20.977,45.653,21,45.58,21,45.5c0-0.276-0.224-0.5-0.5-0.5H20h-1h-1h-2.5
	c-0.276,0-0.5,0.224-0.5,0.5S15.224,46,15.5,46z"/>
<path d="M15.5,48H18h1h1.5c0.196,0,0.361-0.116,0.443-0.28C20.977,47.653,21,47.58,21,47.5c0-0.276-0.224-0.5-0.5-0.5H20h-1h-1h-2.5
	c-0.276,0-0.5,0.224-0.5,0.5S15.224,48,15.5,48z"/>
<path d="M15.5,50H18h1h1.5c0.196,0,0.361-0.116,0.443-0.28C20.977,49.653,21,49.58,21,49.5c0-0.276-0.224-0.5-0.5-0.5H20h-1h-1h-2.5
	c-0.276,0-0.5,0.224-0.5,0.5S15.224,50,15.5,50z"/>
<path d="M15.5,52H18h1h1.5c0.196,0,0.361-0.116,0.443-0.28C20.977,51.653,21,51.58,21,51.5c0-0.276-0.224-0.5-0.5-0.5H20h-1h-1h-2.5
	c-0.276,0-0.5,0.224-0.5,0.5S15.224,52,15.5,52z"/>
<path d="M15.5,54H18h1h1.5c0.196,0,0.361-0.116,0.443-0.28C20.977,53.653,21,53.58,21,53.5c0-0.276-0.224-0.5-0.5-0.5H20h-1h-1h-2.5
	c-0.276,0-0.5,0.224-0.5,0.5S15.224,54,15.5,54z"/>
<path d="M15.5,56H18h1h1.5c0.196,0,0.361-0.116,0.443-0.28C20.977,55.653,21,55.58,21,55.5c0-0.276-0.224-0.5-0.5-0.5H20h-1h-1h-2.5
	c-0.276,0-0.5,0.224-0.5,0.5S15.224,56,15.5,56z"/>
</svg>
