<?xml version="1.0" encoding="iso-8859-1"?>
<!-- Generator: Adobe Illustrator 17.1.0, SVG Export Plug-In . SVG Version: 6.00 Build 0)  -->
<!DOCTYPE svg PUBLIC "-//W3C//DTD SVG 1.1//EN" "http://www.w3.org/Graphics/SVG/1.1/DTD/svg11.dtd">
<svg version="1.1" id="Layer_1" xmlns="http://www.w3.org/2000/svg" xmlns:xlink="http://www.w3.org/1999/xlink" x="0px" y="0px"
	 viewBox="0 0 64 64" style="enable-background:new 0 0 64 64;" xml:space="preserve">
<path d="M52,8H16c-1.105,0-2,0.895-2,2v47c0,1.105,0.895,2,2,2h36c1.105,0,2-0.895,2-2V10C54,8.895,53.105,8,52,8z M34.5,56.375
	c-1.036,0-1.875-0.839-1.875-1.875s0.839-1.875,1.875-1.875s1.875,0.839,1.875,1.875S35.536,56.375,34.5,56.375z M50,51H19V13h31V51
	z"/>
<polygon points="31.714,15 21,22.488 21,25.943 36.658,15 "/>
<polygon points="48,15 41.106,15 21,29.052 21,49 48,49 "/>
</svg>
