<?xml version="1.0" encoding="iso-8859-1"?>
<!-- Generator: Adobe Illustrator 17.1.0, SVG Export Plug-In . SVG Version: 6.00 Build 0)  -->
<!DOCTYPE svg PUBLIC "-//W3C//DTD SVG 1.1//EN" "http://www.w3.org/Graphics/SVG/1.1/DTD/svg11.dtd">
<svg version="1.1" id="Layer_1" xmlns="http://www.w3.org/2000/svg" xmlns:xlink="http://www.w3.org/1999/xlink" x="0px" y="0px"
	 viewBox="0 0 64 64" style="enable-background:new 0 0 64 64;" xml:space="preserve">
<g>
	<path d="M44,8v2h3v22c0,4.221-3.469,4.913-4.067,5H33v-1v-1h9.5c0.827,0,1.5-0.673,1.5-1.5V33c0-1.105-0.895-2-2-2H20.5
		c-0.827,0-1.5,0.673-1.5,1.5v1c0,0.827,0.673,1.5,1.5,1.5H30v1v3h-1v6h-1v6v1h-6.5c-0.827,0-1.5,0.673-1.5,1.5s0.673,1.5,1.5,1.5
		h20c0.742,0,1.355-0.542,1.475-1.25C42.85,52.765,42.019,52,41,52h-6v-1v-6h-1v-6h9.058l0.058-0.007C45.151,38.756,49,36.988,49,32
		V8H44z"/>
	<path d="M23.293,55.859c-0.111-0.046-0.228-0.078-0.346-0.107c-0.197-0.05-0.401-0.085-0.614-0.085
		c-0.448,0-0.862,0.127-1.225,0.333c-0.757,0.43-1.275,1.234-1.275,2.167c0,1.381,1.119,2.5,2.5,2.5c1.381,0,2.5-1.119,2.5-2.5
		C24.833,57.126,24.197,56.235,23.293,55.859z"/>
	<path d="M41.293,55.859c-0.111-0.046-0.228-0.078-0.346-0.107c-0.197-0.05-0.401-0.085-0.614-0.085
		c-0.448,0-0.862,0.127-1.225,0.333c-0.757,0.43-1.275,1.234-1.275,2.167c0,1.381,1.119,2.5,2.5,2.5c1.381,0,2.5-1.119,2.5-2.5
		C42.833,57.126,42.197,56.235,41.293,55.859z"/>
	<path d="M43,19.94V3.013c-1.489,0.083-3,0.622-3,3.112v10.75C40,18.998,41.977,19.743,43,19.94z"/>
</g>
</svg>
