<?xml version="1.0" encoding="iso-8859-1"?>
<!-- Generator: Adobe Illustrator 17.1.0, SVG Export Plug-In . SVG Version: 6.00 Build 0)  -->
<!DOCTYPE svg PUBLIC "-//W3C//DTD SVG 1.1//EN" "http://www.w3.org/Graphics/SVG/1.1/DTD/svg11.dtd">
<svg version="1.1" id="Layer_1" xmlns="http://www.w3.org/2000/svg" xmlns:xlink="http://www.w3.org/1999/xlink" x="0px" y="0px"
	 viewBox="0 0 64 64" style="enable-background:new 0 0 64 64;" xml:space="preserve">
<polygon points="17.136,53.188 18.048,49.375 12.577,43 5,42 5,55 15.95,55.029 "/>
<polygon points="11.945,37.25 10.191,34.562 6.894,34.938 5,36.75 5,40.75 9.981,41.25 "/>
<polygon points="14.19,42.156 18.925,48.875 25.134,47.938 26.327,39.625 18.82,35.438 13.909,37.562 11.524,41.25 "/>
<polygon points="30.957,55 25.274,48.853 19.662,49.923 17.417,55 "/>
<polygon points="10.472,26.5 9.069,29.75 11.524,33.188 13.138,36.062 18.048,34.125 20.364,31.188 17.417,27.062 "/>
<polygon points="9.911,33.125 7.455,29 5,28.625 5,35.438 6.824,33.625 "/>
<polygon points="9.42,24.938 16.575,25.562 19.311,18.875 12.156,15.625 7.455,18.625 5,17 5,26.938 7.455,27.438 "/>
<polygon points="28.186,38.938 29.273,41.625 37.06,39.312 31.939,32.312 21.696,31.281 19.311,34.25 "/>
<polygon points="39.305,55 44.636,49.688 37.06,40.5 27.098,43.125 26.327,48.188 32.36,55.029 "/>
<polygon points="41.164,55 51,55 51,53.812 50.335,50.688 45.952,50 "/>
<polygon points="39.936,42.625 45.338,38.312 40.778,34.562 37.06,36.453 38.603,38.938 38.182,40 "/>
<polygon points="52.915,42.625 46.092,39.312 41.164,43.312 45.619,48.515 50.319,49.438 53.195,48.515 "/>
<polygon points="60,40 54.037,42.625 54.668,50 51.055,50.75 52.546,55.092 60,55 "/>
<polygon points="60,33 52.423,31 47.18,34.812 46.601,38.594 53.195,41.344 60,38.594 "/>
<polygon points="42.251,28.25 34.815,33.938 35.482,35.75 41.199,33.062 42.251,33.875 45.338,36.062 46.092,33.188 50.529,30.312 
	"/>
<polygon points="60,24 48.776,21.531 45.338,28 52.353,29.688 60,32.031 "/>
<polygon points="42.672,22.125 36.288,19.25 31.518,21.531 31.939,26.781 36.709,25.375 44.145,27.438 "/>
<polygon points="32,31 33.758,32.75 40.144,27.438 36.949,26.5 32,28.25 "/>
<polygon points="30.957,24.938 19.311,27.969 21.416,30 30.255,31 "/>
<polygon points="18.925,26.781 30.536,23.344 29.133,17.312 21.696,16.188 18.048,25.688 "/>
<polygon points="7.083,17.25 11.741,14.281 13.977,14.884 15.102,12 5,12 5.096,16.062 "/>
<polygon points="25.204,12 16.435,12 14.751,15.625 18.925,17.25 20.855,14.625 25.906,15.625 "/>
<polygon points="27.449,16 30.185,16 30.957,19.812 36.429,17.25 41.164,20.188 43.163,12 26.327,12 "/>
<polygon points="43.865,21.484 44.636,25.312 48.214,20.188 "/>
<path d="M49.968,20.188l2.701,1L53.265,12h-8.629c0,0-1.982,7.875-1.982,8.188l6.752-1.625L49.968,20.188z"/>
<polygon points="60,12 55.089,12 54.318,21.484 60,22.438 "/>
</svg>
