<?xml version="1.0" encoding="iso-8859-1"?>
<!-- Generator: Adobe Illustrator 17.1.0, SVG Export Plug-In . SVG Version: 6.00 Build 0)  -->
<!DOCTYPE svg PUBLIC "-//W3C//DTD SVG 1.1//EN" "http://www.w3.org/Graphics/SVG/1.1/DTD/svg11.dtd">
<svg version="1.1" id="Layer_1" xmlns="http://www.w3.org/2000/svg" xmlns:xlink="http://www.w3.org/1999/xlink" x="0px" y="0px"
	 viewBox="0 0 64 64" style="enable-background:new 0 0 64 64;" xml:space="preserve">
<path d="M6.5,48h2h0.575c0.355-0.839,0.55-1.768,0.55-2.75c0-1.603-0.506-3.074-1.411-4.221C8.206,41.019,8.197,41.01,8.189,41H6.5
	C4.567,41,3,42.567,3,44.5S4.567,48,6.5,48z M6.561,42.938c0.657,0,1.189,0.518,1.189,1.156c0,0.638-0.533,1.156-1.189,1.156
	s-1.189-0.518-1.189-1.156C5.371,43.456,5.904,42.938,6.561,42.938z"/>
<path d="M58.078,48H58.5c1.933,0,3.5-1.567,3.5-3.5S60.433,41,58.5,41h-1.226c0.026,0.037,0.047,0.077,0.072,0.115
	c0.798,1.193,1.279,2.611,1.279,4.135c0,0.785-0.127,1.542-0.358,2.255C58.212,47.674,58.145,47.837,58.078,48z"/>
<path d="M29.274,41c0.844,1.215,1.351,2.678,1.351,4.25c0,0.97-0.2,1.896-0.547,2.75h2.996c0.355-0.839,0.55-1.768,0.55-2.75
	c0-1.617-0.516-3.099-1.436-4.25H29.274z"/>
<path d="M25.274,41c0.844,1.215,1.351,2.678,1.351,4.25c0,0.97-0.2,1.896-0.547,2.75h2.996c0.355-0.839,0.55-1.768,0.55-2.75
	c0-1.617-0.516-3.099-1.436-4.25H25.274z"/>
<path d="M49.075,48c0.355-0.839,0.55-1.768,0.55-2.75c0-1.617-0.516-3.099-1.436-4.25h-2.915c0.844,1.215,1.351,2.678,1.351,4.25
	c0,0.97-0.2,1.896-0.547,2.75H49.075z"/>
<path d="M53.274,41c0.844,1.215,1.351,2.678,1.351,4.25c0,0.97-0.2,1.896-0.547,2.75H56.5h0.575c0.009-0.02,0.019-0.04,0.027-0.061
	c0.338-0.823,0.523-1.732,0.523-2.689c0-1.617-0.516-3.099-1.436-4.25H53.274z"/>
<path d="M53.075,48c0.355-0.839,0.55-1.768,0.55-2.75c0-1.617-0.516-3.099-1.436-4.25h-2.915c0.844,1.215,1.351,2.678,1.351,4.25
	c0,0.97-0.2,1.896-0.547,2.75H53.075z"/>
<path d="M37.075,48c0.355-0.839,0.55-1.768,0.55-2.75c0-1.617-0.516-3.099-1.436-4.25h-2.915c0.844,1.215,1.351,2.678,1.351,4.25
	c0,0.97-0.2,1.896-0.547,2.75H37.075z"/>
<path d="M41.625,45.25c0-1.617-0.516-3.099-1.436-4.25h-2.915c0.844,1.215,1.351,2.678,1.351,4.25c0,0.97-0.2,1.896-0.547,2.75
	h2.996C41.43,47.161,41.625,46.232,41.625,45.25z"/>
<path d="M45.075,48c0.355-0.839,0.55-1.768,0.55-2.75c0-1.617-0.516-3.099-1.436-4.25h-2.915c0.844,1.215,1.351,2.678,1.351,4.25
	c0,0.97-0.2,1.896-0.547,2.75H45.075z"/>
<path d="M21.274,41c0.844,1.215,1.351,2.678,1.351,4.25c0,0.97-0.2,1.896-0.547,2.75h2.996c0.355-0.839,0.55-1.768,0.55-2.75
	c0-1.617-0.516-3.099-1.436-4.25H21.274z"/>
<path d="M17.075,48c0.355-0.839,0.55-1.768,0.55-2.75c0-1.617-0.516-3.099-1.436-4.25h-2.915c0.844,1.215,1.351,2.678,1.351,4.25
	c0,0.97-0.2,1.896-0.547,2.75H17.075z"/>
<path d="M10.078,48h2.996c0.355-0.839,0.55-1.768,0.55-2.75c0-1.617-0.516-3.099-1.436-4.25H9.274
	c0.844,1.215,1.351,2.678,1.351,4.25C10.625,46.22,10.425,47.146,10.078,48z"/>
<path d="M21.075,48c0.355-0.839,0.55-1.768,0.55-2.75c0-1.617-0.516-3.099-1.436-4.25h-2.915c0.844,1.215,1.351,2.678,1.351,4.25
	c0,0.97-0.2,1.896-0.547,2.75H21.075z"/>
</svg>
