<?xml version="1.0" encoding="iso-8859-1"?>
<!-- Generator: Adobe Illustrator 17.1.0, SVG Export Plug-In . SVG Version: 6.00 Build 0)  -->
<!DOCTYPE svg PUBLIC "-//W3C//DTD SVG 1.1//EN" "http://www.w3.org/Graphics/SVG/1.1/DTD/svg11.dtd">
<svg version="1.1" id="Layer_1" xmlns="http://www.w3.org/2000/svg" xmlns:xlink="http://www.w3.org/1999/xlink" x="0px" y="0px"
	 viewBox="0 0 64 64" style="enable-background:new 0 0 64 64;" xml:space="preserve">
<path d="M28.917,57.851c4.73,0,8.564-5.357,8.564-11.921c0-0.474-0.025-3.93-0.064-4.93H30V21.125
	c2.763-0.48,4.894-3.493,4.894-7.152c0-0.288-0.017-2.973-0.043-2.973H23.607c-0.026,0-0.043,2.684-0.043,2.972
	c0,3.454,1.899,6.335,4.435,7.052V41h-7.583c-0.039,1-0.064,4.468-0.064,4.942C20.353,52.506,24.187,57.851,28.917,57.851z
	 M25.023,14.363c0-0.214,0.013-0.363,0.032-0.363h8.351c0.019,0,0.032,0.111,0.032,0.325c0,2.965-1.883,5.484-4.207,5.484
	S25.023,17.329,25.023,14.363z M29.125,50.125c-0.263,0-0.487-1.296-0.579-3.125c-0.029-0.571-0.046-1.191-0.046-1.844
	c0-0.776,0.024-1.502,0.064-2.156h1.121c0.04,0.655,0.064,1.38,0.064,2.156c0,0.653-0.017,1.273-0.046,1.844
	C29.612,48.829,29.388,50.125,29.125,50.125z"/>
</svg>
