<?xml version="1.0" encoding="utf-8"?>
<!-- Generator: Adobe Illustrator 17.1.0, SVG Export Plug-In . SVG Version: 6.00 Build 0)  -->
<!DOCTYPE svg PUBLIC "-//W3C//DTD SVG 1.1//EN" "http://www.w3.org/Graphics/SVG/1.1/DTD/svg11.dtd">
<svg version="1.1" id="Layer_1" xmlns="http://www.w3.org/2000/svg" xmlns:xlink="http://www.w3.org/1999/xlink" x="0px" y="0px"
	 viewBox="0 0 128 128" enable-background="new 0 0 128 128" xml:space="preserve">
<path d="M80,101.6c-0.1-1.1-0.1-2.1-0.1-3.3v0l0,0c0-4.2,0-53.5,0-58.8l0,0c0-9.1-3-14.9-9-17.5c-1.4,1.4-3.3,2.3-5.3,2.3h-8.1
	c-1.7,0-3.4-0.7-4.7-1.8c-1.4,0.7-2.6,1.6-3.7,2.7c-4.1,4.4-3.9,10.2-3.9,10.3v62c0,13.9-3.7,20.9-6.1,24
	c5.6-0.9,18.4-4.9,18.4-23.8c0-16.8,0.1-43.8,0.1-43.8s-0.2-2.9,1-4.4c0.8-1,2-1.5,3.5-1.5c1.5,0,2.7,0.5,3.5,1.5
	c1.1,1.5,1,4.6,1,4.6s0.1,29.1,0.1,43.6c0,9.5,3.7,16.4,11.1,20.6c3.1,1.7,6.1,2.6,8.3,3.1c-2.3-2.9-5.5-8.9-6.1-19.6
	C80,101.7,80,101.6,80,101.6z"/>
<path d="M53.7,20.6c0.4,0.4,0.8,0.7,1.3,1c0.8,0.4,1.6,0.7,2.5,0.7h8.1c1.1,0,2.2-0.4,3.1-1.1c0.2-0.2,0.4-0.3,0.6-0.5
	c0.4-0.3,0.7-0.7,1-1.1c0.9-1.2,1.4-2.8,1.4-4.4c0-3.9-2.8-7.1-6.1-7.1h-8.1c-3.3,0-6.1,3.3-6.1,7.1c0,1.9,0.7,3.7,1.8,5
	C53.4,20.3,53.5,20.5,53.7,20.6z"/>
</svg>
