<?xml version="1.0" encoding="iso-8859-1"?>
<!-- Generator: Adobe Illustrator 17.1.0, SVG Export Plug-In . SVG Version: 6.00 Build 0)  -->
<!DOCTYPE svg PUBLIC "-//W3C//DTD SVG 1.1//EN" "http://www.w3.org/Graphics/SVG/1.1/DTD/svg11.dtd">
<svg version="1.1" id="Layer_1" xmlns="http://www.w3.org/2000/svg" xmlns:xlink="http://www.w3.org/1999/xlink" x="0px" y="0px"
	 viewBox="0 0 64 64" style="enable-background:new 0 0 64 64;" xml:space="preserve">
<g>
	<path d="M58.477,21.043c2.539,9.792-0.233,20.452-0.272,20.616c0.007-0.052,0.069-0.818,0.069-0.818
		c0.814-6.578-1.17-10.288-1.17-10.288c1.339,5.691-1.132,8.936-2.581,10.288c-0.543,0.506-0.947,0.938-0.947,0.938
		c-0.042,0-0.079-0.683-0.11-0.938c-0.974-8.032,3.637-18.263,3.637-18.263c-2.95,2.622-4.737,11.155-5.523,15.85
		c0.937-7.912-0.612-11.556-0.612-11.556c0.612,6.617-0.925,12.048-1.57,13.969c-0.162,0.484-0.27,0.938-0.27,0.938
		c-0.075,0-0.142-0.663-0.206-0.938c-1.108-4.783-0.561-16.577-0.561-16.577c-1.1,2.751-1.762,8.404-2.116,12.507
		c0.002-6.956-2.179-11.127-2.179-11.127c2.301,8.896-0.767,14.724-0.767,14.724c0.613-7.975-1.534-9.969-1.534-9.969
		c1.586,3.301-1.994,9.817-1.994,9.817c-1.38-8.589,1.994-20.707,1.994-20.707c-2.043,2.879-3.242,10.085-3.87,15.324
		c-0.067-6.655-2.846-9.189-2.846-9.189c2.793,6.749-0.032,15.031-0.032,15.031c0.307-7.975-1.688-11.811-1.688-11.811
		c0.251,3.521-2.587,9.818-3.619,11.976c-0.227,0.473-0.369,0.938-0.369,0.938c-0.059,0-0.109-0.673-0.155-0.938
		c-1.031-5.924,1.075-18.571,1.075-18.571c-2.414,1.878-3.89,15.234-4.223,18.572c-0.048,0.481-0.072,0.938-0.072,0.938
		c-0.014,0-0.03-0.684-0.045-0.938c-0.318-5.185-0.283-10.938-0.283-10.938c-1.015,1.114-1.815,11.875-1.82,11.875l0.027-0.938
		c0.66-13.399-1.714-17.803-1.714-17.803c1.162,6.583-0.936,15.23-1.628,17.803c-0.13,0.485-0.212,0.938-0.212,0.938
		c-0.152,0-0.282-0.659-0.396-0.938c-1.611-3.95,0.396-13.049,0.396-13.049c-1.852,2.38-2.485,6.582-2.691,9.727
		c0.17-16.117-1.144-21.384-1.144-21.384c0.945,5.812-1.085,21.14-1.581,24.706c-0.029,0.21-0.026,0.188,0,0h-0.04
		c0.367-5.426-1.447-15.196-1.447-15.196c0,4.259-0.978,12.645-1.287,15.196c-0.058,0.48-0.093,0.938-0.093,0.938
		c-0.157-0.313-0.233-0.68-0.337-0.938c-2.337-6.943,0.337-18.571,0.337-18.571c-3.562,4.75-3.947,15.624-3.984,18.571
		c-0.003,0.227-0.004,0.289,0,0c0,0,0.182,1.128-0.317,0c-1.711-3.697,0.411-15.196,0.411-15.196
		C6.016,27.878,5.161,37.991,4.972,40.84c-0.031,0.475-0.07,0.938-0.07,0.938c-0.052,0-0.109-0.685-0.152-0.938
		c-1.669-9.787,3.277-20.627,3.277-20.627C3.12,23.281,1.85,41.777,1.85,41.777v8.437h60V40.84l0,0
		C61.859,23.672,58.477,21.043,58.477,21.043z"/>
</g>
</svg>
