<?xml version="1.0" encoding="iso-8859-1"?>
<!-- Generator: Adobe Illustrator 17.1.0, SVG Export Plug-In . SVG Version: 6.00 Build 0)  -->
<!DOCTYPE svg PUBLIC "-//W3C//DTD SVG 1.1//EN" "http://www.w3.org/Graphics/SVG/1.1/DTD/svg11.dtd">
<svg version="1.1" id="Layer_1" xmlns="http://www.w3.org/2000/svg" xmlns:xlink="http://www.w3.org/1999/xlink" x="0px" y="0px"
	 viewBox="0 0 64 64" style="enable-background:new 0 0 64 64;" xml:space="preserve">
<g>
	<path d="M50.686,37.76l-12.744,6.087l-0.451,0.216l-0.451,0.216L16.32,1.42c-0.147-0.305-0.45-0.495-0.789-0.495
		c-0.132,0-0.26,0.03-0.38,0.088l-0.226,0.109c-0.21,0.101-0.368,0.279-0.445,0.5S14.417,2.08,14.519,2.29l20.715,42.851
		l-0.451,0.215l-0.452,0.216l-14.66,7.003c-1.996,0.926-0.564,3.5,0.249,5v4c0,0.276,0.224,0.5,0.5,0.5s0.5-0.224,0.5-0.5v-4.48
		l1-0.48v3.96c0,0.276,0.224,0.5,0.5,0.5s0.5-0.224,0.5-0.5v-4.44l1-0.48v3.941c0,0.276,0.224,0.5,0.5,0.5s0.5-0.224,0.5-0.5v-4.421
		l1-0.48v3.901c0,0.276,0.224,0.5,0.5,0.5s0.5-0.224,0.5-0.5v-4.381l1-0.48v3.861c0,0.276,0.224,0.5,0.5,0.5s0.5-0.224,0.5-0.5
		v-4.341l1-0.48v3.8c0,0.276,0.224,0.5,0.5,0.5s0.5-0.224,0.5-0.5v-4.28l1-0.48v3.822c0,0.276,0.224,0.5,0.5,0.5s0.5-0.224,0.5-0.5
		v-4.302l1-0.48v3.741c0,0.276,0.224,0.5,0.5,0.5s0.5-0.224,0.5-0.5v-4.222l1-0.48v3.764c0,0.276,0.224,0.5,0.5,0.5
		s0.5-0.224,0.5-0.5v-4.244l1-0.48v3.641c0,0.276,0.224,0.5,0.5,0.5s0.5-0.224,0.5-0.5v-4.121l1-0.48v3.601
		c0,0.276,0.224,0.5,0.5,0.5s0.5-0.224,0.5-0.5v-4.081l1-0.48v3.561c0,0.276,0.224,0.5,0.5,0.5s0.5-0.224,0.5-0.5v-4.041l1-0.48
		v3.521c0,0.276,0.224,0.5,0.5,0.5s0.5-0.224,0.5-0.5v-4.001l1-0.48v3.481c0,0.276,0.224,0.5,0.5,0.5s0.5-0.224,0.5-0.5v-3.961
		l1-0.48v3.441c0,0.276,0.224,0.5,0.5,0.5s0.5-0.224,0.5-0.5v-3.921l1-0.48v3.401c0,0.276,0.224,0.5,0.5,0.5s0.5-0.224,0.5-0.5
		v-3.881l1-0.48v3.361c0,0.276,0.224,0.5,0.5,0.5s0.5-0.224,0.5-0.5v-3.841l0.649-0.312C53.569,39.765,52.948,36.71,50.686,37.76z"
		/>
</g>
</svg>
