<?xml version="1.0" encoding="iso-8859-1"?>
<!-- Generator: Adobe Illustrator 17.1.0, SVG Export Plug-In . SVG Version: 6.00 Build 0)  -->
<!DOCTYPE svg PUBLIC "-//W3C//DTD SVG 1.1//EN" "http://www.w3.org/Graphics/SVG/1.1/DTD/svg11.dtd">
<svg version="1.1" id="Layer_1" xmlns="http://www.w3.org/2000/svg" xmlns:xlink="http://www.w3.org/1999/xlink" x="0px" y="0px"
	 viewBox="0 0 64 64" style="enable-background:new 0 0 64 64;" xml:space="preserve">
<path d="M49.855,35.615l1.008,0.568L46.292,43H34v-0.062C34,42.42,33.58,42,33.062,42h-0.125C32.42,42,32,42.42,32,42.938V43H18.295
	l-4.446-6.894l0.872-0.491l-1.173-2.081l-3.972,2.238l1.173,2.081l1.355-0.763l4.807,7.452C17.094,44.828,17.41,45,17.75,45h13
	C30.336,45,30,45.336,30,45.75v0.5c0,0.414,0.336,0.75,0.75,0.75H32v5H16.5c-0.828,0-1.5,0.672-1.5,1.5s0.672,1.5,1.5,1.5h33
	c0.828,0,1.5-0.672,1.5-1.5S50.328,52,49.5,52H34v-5h1.25c0.414,0,0.75-0.336,0.75-0.75v-0.5c0-0.414-0.336-0.75-0.75-0.75h11.576
	c0.333,0,0.645-0.166,0.831-0.443l4.954-7.39l1.217,0.686L55,35.772l-3.972-2.238L49.855,35.615z"/>
<path d="M9.984,33.821c0.159-0.226,0.105-0.537-0.121-0.696c-0.104-0.073-2.574-1.789-4.854-1.196
	C3.907,32.216,3.051,32.98,2.466,34.2c-0.12,0.249-0.015,0.547,0.234,0.667c0.07,0.034,0.144,0.049,0.216,0.049
	c0.187,0,0.365-0.104,0.451-0.284c0.452-0.941,1.088-1.525,1.891-1.735c1.827-0.478,4.008,1.03,4.03,1.045
	C9.514,34.1,9.825,34.047,9.984,33.821z"/>
<path d="M3.202,30.661c2.659-1.843,7.355,1.859,7.403,1.896c0.092,0.074,0.202,0.109,0.312,0.109c0.147,0,0.292-0.064,0.391-0.188
	c0.172-0.215,0.137-0.53-0.078-0.703c-0.216-0.172-5.329-4.208-8.598-1.937c-0.227,0.158-0.283,0.469-0.125,0.696
	S2.975,30.819,3.202,30.661z"/>
<path d="M12.041,32.406c0.015,0.001,0.029,0.002,0.043,0.002c0.257,0,0.475-0.196,0.498-0.457c0.055-0.634,0.253-3.825-1.273-4.341
	c-0.26-0.088-0.546,0.052-0.634,0.313c-0.088,0.262,0.052,0.545,0.313,0.634c0.505,0.171,0.721,1.88,0.598,3.308
	C11.562,32.14,11.765,32.382,12.041,32.406z"/>
<path d="M54.711,34.008c-0.225,0.159-0.279,0.47-0.12,0.696c0.16,0.225,0.47,0.28,0.696,0.121c0.114-0.08,2.828-1.942,4.872-0.042
	c0.096,0.089,0.218,0.134,0.34,0.134c0.134,0,0.268-0.054,0.366-0.16c0.188-0.202,0.176-0.519-0.026-0.707
	C58.727,32.086,55.908,33.164,54.711,34.008z"/>
<path d="M53.621,32.978c-0.18,0.209-0.157,0.524,0.052,0.705c0.095,0.082,0.211,0.122,0.327,0.122c0.14,0,0.28-0.059,0.379-0.173
	c0.046-0.055,4.742-5.435,7.708-3.347c0.225,0.16,0.538,0.106,0.696-0.121c0.159-0.226,0.105-0.538-0.121-0.696
	C58.962,26.861,53.838,32.728,53.621,32.978z"/>
<path d="M51.854,33.386c0.048,0.015,0.098,0.021,0.146,0.021c0.214,0,0.413-0.139,0.479-0.354c0.256-0.843,1.237-3.128,2.67-3.576
	c0.264-0.082,0.411-0.363,0.328-0.626c-0.083-0.264-0.364-0.413-0.626-0.328c-2.227,0.696-3.285,4.095-3.33,4.239
	C51.441,33.026,51.59,33.306,51.854,33.386z"/>
</svg>
