<?xml version="1.0" encoding="iso-8859-1"?>
<!-- Generator: Adobe Illustrator 17.1.0, SVG Export Plug-In . SVG Version: 6.00 Build 0)  -->
<!DOCTYPE svg PUBLIC "-//W3C//DTD SVG 1.1//EN" "http://www.w3.org/Graphics/SVG/1.1/DTD/svg11.dtd">
<svg version="1.1" id="Layer_1" xmlns="http://www.w3.org/2000/svg" xmlns:xlink="http://www.w3.org/1999/xlink" x="0px" y="0px"
	 viewBox="0 0 64 64" style="enable-background:new 0 0 64 64;" xml:space="preserve">
<path d="M44.494,33l0.008-0.108c0.412-5.834,6.107-9.184,8.578-10.37c-0.832-0.214-1.694-0.173-2.607,0.125
	C46.125,24.06,42.245,30.793,41.071,33H44.494z"/>
<path d="M44.906,19.886c-0.521,0.033-1.031,0.209-1.542,0.528c-3.549,2.22-5.633,10.41-6.131,12.585h2.538
	C40.018,26.008,43.358,21.571,44.906,19.886z"/>
<path d="M12.328,31.967c1.097,0.109,2.144,0.46,3.139,1.033h3.755c-1.06-1.121-3.253-3.026-5.886-2.968
	c-1.745,0.025-3.434,0.884-5.041,2.559C9.383,32.152,10.777,31.813,12.328,31.967z"/>
<path d="M37.128,17.258C34.463,21.87,34.015,32.606,34,33h2.031C35.571,29.76,36.621,21.08,37.128,17.258z"/>
<path d="M20.66,33h2.019c-0.977-2.705-3.474-8.532-7.164-9.572c-1.129-0.318-2.306-0.147-3.514,0.509
	c0.641,0.006,1.378,0.119,2.169,0.434C16.848,25.436,19.028,28.347,20.66,33z"/>
<path d="M32.049,14.114C31.168,18.442,30.906,27.049,30.867,33h2.132L32.049,14.114z"/>
<path d="M27.401,33h2.091c-0.502-4.955-1.255-11.09-2.092-15.033C27.609,22.408,27.835,29.446,27.401,33z"/>
<path d="M45.529,33h3.407c2.092-2.452,4.168-3.666,6.194-3.577c0.493,0.022,0.95,0.12,1.371,0.268
	c-1.421-1.457-2.836-2.157-4.327-2.128C48.646,27.665,46.005,32.139,45.529,33z"/>
<path d="M24.31,33h1.626c-0.329-3.318-1.418-10.865-4.639-13.01C22.446,22.448,24.763,28.125,24.31,33z"/>
<path d="M32.733,52.755c1.854-0.031,3.648-0.324,5.339-0.862C36.365,52.432,34.57,52.724,32.733,52.755z"/>
<path d="M32.15,52.758c-1.854-0.027-3.664-0.321-5.385-0.864C28.47,52.436,30.278,52.731,32.15,52.758z"/>
<path d="M23.664,34h-0.115h-0.525H21.01h-0.95h-3.184h-0.789h-0.889H13.67c0.555,9.686,9.023,17.772,18.749,17.772
	c9.725,0,18.193-8.086,18.748-17.772H49.4h-0.644h-0.627h-3.116h-0.59h-3.859h-0.821h-2.721h-0.763h-5.396h-0.497h-0.276h-0.497
	h-2.355h-0.504h-0.207h-0.502h-1.85H23.664z"/>
</svg>
