<?xml version="1.0" encoding="utf-8"?>
<!-- Generator: Adobe Illustrator 17.1.0, SVG Export Plug-In . SVG Version: 6.00 Build 0)  -->
<!DOCTYPE svg PUBLIC "-//W3C//DTD SVG 1.1//EN" "http://www.w3.org/Graphics/SVG/1.1/DTD/svg11.dtd">
<svg version="1.1" id="Layer_1" xmlns="http://www.w3.org/2000/svg" xmlns:xlink="http://www.w3.org/1999/xlink" x="0px" y="0px"
	 viewBox="0 0 128 128" enable-background="new 0 0 128 128" xml:space="preserve">
<path d="M55.4,67.8v-7.3c0-2.3-1.9-4.2-4.2-4.2h-8.9l12.5,12C55,68.1,55.2,68,55.4,67.8z"/>
<path d="M78.4,62.5H69c-1.8,0-3.1,1.4-3.1,3.1v1h16.7C82.6,64.4,80.7,62.5,78.4,62.5z"/>
<path d="M63.7,68.8h-5.2c-0.4,0-0.7,0.1-1,0.2c-0.4,0.2-0.8,0.4-1.1,0.7l1.1,1.1l2.2,2.1h4.1h0.1H66h16.3h0.2h2h10.6
	c0-2.3-1.9-4.2-4.2-4.2h-6.3h-2.1H65.8H63.7z"/>
<g>
	<path d="M33.2,56.3H23c-1.8,0-3.1,1.4-3.1,3.1v11.5h12.5c0.6,0,1,0.4,1,1c0,0.6-0.4,1-1,1H19.9v2.1h12.5c0.6,0,1,0.4,1,1
		c0,0.6-0.4,1-1,1H19.9v2.1h12.5c0.6,0,1,0.4,1,1c0,0.6-0.4,1-1,1H20.1c0.4,1.3,1.6,2.1,2.9,2.1h15.4c0.6-1.3,1.4-2.5,2.4-3.5v-4.8
		V73h9.8L33.2,56.3z"/>
	<path d="M98.6,76.7c6,0,10.9,4.9,11,10.9h6.7c-0.5-8.5-6.1-11.2-9.7-12.1c-1.8-0.4-3-0.4-3-0.4h-6.3h-2.1H83.6H82h-2.6H69h-4.2
		h-0.5h-2.5l1.5,1.4c1.1,1,1.1,2.8,0.1,4l-0.5,0.5c-0.2,0.2-0.4,0.3-0.6,0.4c-0.4,0.2-0.8,0.4-1.4,0.4c-0.5,0-0.9-0.2-1.4-0.4
		c-0.2-0.1-0.4-0.2-0.6-0.4l-1.4-1.4l-2.1-2l-2.1-2l-0.5-0.5h-9.9v3.2c1.6-1,3.5-1.5,5.6-1.5c6,0,10.9,4.9,10.9,10.9h28.2
		C87.6,81.6,92.5,76.7,98.6,76.7z"/>
</g>
<path d="M36.3,56.3l17,16.4l0,0l0.3,0.3l1.8,1.7l0.4,0.4l1.7,1.6l2.9,2.8c0.3,0.2,0.7,0.2,0.9,0l0.5-0.5c0.3-0.3,0.2-0.7,0-0.9
	l-3-2.9l-1.4-1.3L56.6,73l-1.3-1.3l0,0l-1.3-1.3l-0.4-0.4L39.3,56.3l-2.2-2.1L8.6,26.8c-0.1-0.1-0.3-0.2-0.5-0.2s-0.4,0.1-0.5,0.2
	L7,27.3c-0.3,0.3-0.2,0.7,0,0.9l27.1,25.9L36.3,56.3z"/>
<path d="M98.6,78.9c-4.8,0-8.8,3.9-8.8,8.8c0,4.8,3.9,8.8,8.8,8.8s8.8-3.9,8.8-8.8C107.3,82.8,103.4,78.9,98.6,78.9z M98.6,91.7
	c-2.2,0-4.1-1.8-4.1-4.1c0-2.2,1.8-4.1,4.1-4.1s4.1,1.8,4.1,4.1C102.6,89.9,100.8,91.7,98.6,91.7z"/>
<path d="M48.5,78.8c-4.8,0-8.8,3.9-8.8,8.8s3.9,8.8,8.8,8.8s8.8-3.9,8.8-8.8C57.2,82.8,53.3,78.8,48.5,78.8z M48.5,91.7
	c-2.2,0-4.1-1.8-4.1-4.1c0-2.2,1.8-4.1,4.1-4.1s4.1,1.8,4.1,4.1C52.5,89.9,50.7,91.7,48.5,91.7z"/>
</svg>
