<?xml version="1.0" encoding="utf-8"?>
<!-- Generator: Adobe Illustrator 17.1.0, SVG Export Plug-In . SVG Version: 6.00 Build 0)  -->
<!DOCTYPE svg PUBLIC "-//W3C//DTD SVG 1.1//EN" "http://www.w3.org/Graphics/SVG/1.1/DTD/svg11.dtd">
<svg version="1.1" id="Layer_1" xmlns="http://www.w3.org/2000/svg" xmlns:xlink="http://www.w3.org/1999/xlink" x="0px" y="0px"
	 viewBox="0 0 128 128" enable-background="new 0 0 128 128" xml:space="preserve">
<path d="M68.2,60c3.3,0,6-2.7,6-6s-2.7-6-6-6s-6,2.7-6,6S64.9,60,68.2,60z M68.2,52c1.1,0,2,0.9,2,2s-0.9,2-2,2s-2-0.9-2-2
	S67.1,52,68.2,52z"/>
<path d="M68.2,65.1c6.1,0,11.1-5,11.1-11.1s-5-11.1-11.1-11.1s-11.1,5-11.1,11.1S62.1,65.1,68.2,65.1z M68.2,46.9
	c3.9,0,7.1,3.2,7.1,7.1s-3.2,7.1-7.1,7.1s-7.1-3.2-7.1-7.1S64.3,46.9,68.2,46.9z"/>
<path d="M68.2,70.6c9.1,0,16.6-7.4,16.6-16.6s-7.4-16.6-16.6-16.6S51.7,44.9,51.7,54S59.1,70.6,68.2,70.6z M68.2,41.4
	c6.9,0,12.6,5.6,12.6,12.6s-5.6,12.6-12.6,12.6S55.7,60.9,55.7,54S61.3,41.4,68.2,41.4z"/>
<path d="M68.2,76c12.1,0,22-9.9,22-22s-9.9-22-22-22s-22,9.9-22,22L46,94h4V66.3C54,72.1,60.7,76,68.2,76z M68.2,36
	c9.9,0,18,8.1,18,18s-8.1,18-18,18s-18-8.1-18-18S58.3,36,68.2,36z"/>
<rect x="44" y="96" width="8" height="2"/>
<path d="M44,109c0,0.6,0.4,1,1,1h6c0.6,0,1-0.4,1-1s-0.4-1-1-1h-1l1.1-8h-6.2l1.1,8h-1C44.4,108,44,108.4,44,109z"/>
</svg>
