<?xml version="1.0" encoding="iso-8859-1"?>
<!-- Generator: Adobe Illustrator 17.1.0, SVG Export Plug-In . SVG Version: 6.00 Build 0)  -->
<!DOCTYPE svg PUBLIC "-//W3C//DTD SVG 1.1//EN" "http://www.w3.org/Graphics/SVG/1.1/DTD/svg11.dtd">
<svg version="1.1" id="Layer_1" xmlns="http://www.w3.org/2000/svg" xmlns:xlink="http://www.w3.org/1999/xlink" x="0px" y="0px"
	 viewBox="0 0 64 64" style="enable-background:new 0 0 64 64;" xml:space="preserve">
<polygon points="21.101,57 23.768,61 40.232,61 42.899,57 43.565,56 20.435,56 "/>
<path d="M46,4c-1.657,0-3,1.343-3,3v9c0,2.784-2.487,3-3.25,3H36V3.875C36,1.735,34.265,0,32.125,0h-0.25
	C29.735,0,28,1.735,28,3.875V25h-4.75c-2.616,0-3.212-1.652-3.25-3v-9c0-1.657-1.343-3-3-3s-3,1.343-3,3v9c0,3.618,2.464,9,9.25,9
	H28v11h8V25h3.75c6.786,0,9.25-5.382,9.25-9V7C49,5.343,47.657,4,46,4z"/>
<path d="M46.125,43H45h-1h-8h-8h-8h-1h-1.125C17.392,43,17,43.392,17,43.875v0.25C17,44.608,17.392,45,17.875,45H19h1v10h24V45h1
	h1.125C46.608,45,47,44.608,47,44.125v-0.25C47,43.392,46.608,43,46.125,43z"/>
</svg>
