<?xml version="1.0" encoding="iso-8859-1"?>
<!-- Generator: Adobe Illustrator 17.1.0, SVG Export Plug-In . SVG Version: 6.00 Build 0)  -->
<!DOCTYPE svg PUBLIC "-//W3C//DTD SVG 1.1//EN" "http://www.w3.org/Graphics/SVG/1.1/DTD/svg11.dtd">
<svg version="1.1" id="Layer_1" xmlns="http://www.w3.org/2000/svg" xmlns:xlink="http://www.w3.org/1999/xlink" x="0px" y="0px"
	 viewBox="0 0 64 64" style="enable-background:new 0 0 64 64;" xml:space="preserve">
<path d="M7.814,30.084c0.418,0.634,1.271,0.808,1.905,0.39l1.132-0.748l0.417-0.276l0.417-0.275l10.507,15.398l-0.036,0.834
	l-0.036,0.819L22,49c0,1.105,0.895,2,2,2h15c1.105,0,2-0.895,2-2l-0.339-7.796c5.31-5.806,9.13-14.888,6.628-20.928
	c-1.034-2.497-3.044-3.871-5.659-3.871c-2.67,0-4.633,0.844-5.836,2.508c-1.092,1.511-1.326,3.428-1.255,5.087H25
	c-1.105,0-2,0.895-2,2l-0.517,11.901l-0.036,0.834l-0.036,0.834L14.19,27.522l0.417-0.276l0.328-0.216
	c0.032-0.021,0.048-0.054,0.078-0.077c0.558-0.437,0.71-1.226,0.312-1.828l-0.138-0.209c-0.418-0.634-1.271-0.808-1.905-0.39
	L8.066,27.97c-0.634,0.418-0.808,1.271-0.39,1.905L7.814,30.084z M37.417,20.081c0.806-1.112,2.224-1.676,4.213-1.676
	c1.805,0,3.087,0.887,3.812,2.636c1.607,3.879,0.112,11.017-4.907,17.259L40,26c0-1.105-0.895-2-2-2h-1.465
	C36.464,22.675,36.621,21.18,37.417,20.081z"/>
</svg>
