<?xml version="1.0" encoding="utf-8"?>
<!-- Generator: Adobe Illustrator 17.1.0, SVG Export Plug-In . SVG Version: 6.00 Build 0)  -->
<!DOCTYPE svg PUBLIC "-//W3C//DTD SVG 1.1//EN" "http://www.w3.org/Graphics/SVG/1.1/DTD/svg11.dtd">
<svg version="1.1" id="Layer_1" xmlns="http://www.w3.org/2000/svg" xmlns:xlink="http://www.w3.org/1999/xlink" x="0px" y="0px"
	 viewBox="0 0 128 128" enable-background="new 0 0 128 128" xml:space="preserve">
<path d="M77.1,105c0.1,1.5,1.3,2.8,2.9,2.8c1.6,0,2.9-1.3,2.9-2.9c0-1.6-1.3-2.9-2.9-2.9c-0.8,0-1.6,0.3-2.1,0.9
	c-4.9-5.4-7.3-10.7-7.2-15.8c0-1.1,0.2-2.2,0.5-3.1H72c0.6,0,1-0.4,1-1s-0.4-1-1-1h-0.2c0.8-1.9,1.8-3.3,2.4-4h-2.5
	c-0.7,1-1.5,2.3-2.1,4h-8.5c-0.6-1.7-1.4-3-2.1-4h-2.5c0.6,0.7,1.6,2.1,2.4,4h-1c-0.6,0-1,0.4-1,1s0.4,1,1,1h1.7
	c0.2,1,0.4,2,0.5,3.1c0.1,5.2-2.5,10.7-7.7,16.3C52,102.6,51,102,50,102c-1.6,0-2.9,1.3-2.9,2.9s1.3,2.9,2.9,2.9
	c1.1,0,2.1-0.7,2.6-1.6c0,0,0.1,0,0.1-0.1c6.4-6.4,9.6-12.9,9.5-19c0-1.1-0.2-2.1-0.4-3h7.4c-0.2,0.9-0.4,1.9-0.4,3
	C68.5,92.9,71.4,98.9,77.1,105z"/>
<path d="M17.4,96H26v-0.1c0.6,2.7,2,6.1,5.1,9.2c0.1,1.5,1.3,2.7,2.9,2.7c1.6,0,2.9-1.3,2.9-2.9c0-1.6-1.3-2.9-2.9-2.9
	c-0.8,0-1.6,0.4-2.1,1c-3.7-4.2-4.3-8.6-4.3-11h-2c0,0.6,0,1.3,0.1,2h-7.9c0.1-0.7,0.1-1.4,0.1-2h-2c0,2.4-0.6,6.7-4.3,11
	c-0.5-0.6-1.3-1-2.1-1c-1.6,0-2.9,1.3-2.9,2.9s1.3,2.9,2.9,2.9c1.5,0,2.7-1.2,2.9-2.7C15.4,102,16.8,98.7,17.4,96z"/>
<path d="M35.1,86.3c0-0.1,0-0.2,0-0.3c0.1-0.6,0.2-1.2,0.3-1.8c1.1-7.8,0.4-11.9-2.3-12.5c-0.5-0.1-0.9-0.1-1.4,0
	c0.1-0.6,0.2-1.3,0.2-1.9c0-5.5-4.4-9.9-9.9-9.9s-9.9,4.4-9.9,9.9c0,0.7,0.1,1.3,0.2,1.9c-0.4-0.1-0.9-0.1-1.4,0
	c-2.7,0.6-3.4,4.7-2.3,12.5c0.1,0.6,0.2,1.2,0.3,1.8c0,0.1,0,0.2,0,0.3c-0.6,0.3-1,1-1,1.7c0,1.1,0.9,2,2,2h5.7h2H22h4.3h2h5.7
	c1.1,0,2-0.9,2-2C36.1,87.3,35.7,86.7,35.1,86.3z M15.6,86H11c-0.1-0.7-0.2-1.4-0.3-2c-1.3-9.4,0.5-10.2,0.7-10.3
	c0.8-0.2,2.1,1,2.2,1.4l0,0c0.2,0.2,0.3,0.5,0.5,0.7c1,3.1,1.4,6,1.5,8.2C15.6,84.8,15.6,85.4,15.6,86z M33.4,84
	c-0.1,0.6-0.2,1.3-0.3,2h-4.7c0-0.6,0-1.2,0-2c0.1-2.2,0.4-5.1,1.5-8.2c0.2-0.2,0.3-0.5,0.5-0.7l0,0c0.2-0.4,1.4-1.6,2.2-1.4
	C32.9,73.8,34.8,74.6,33.4,84z"/>
<path d="M104.5,96h8.6v-0.1c0.6,2.7,2,6.1,5.1,9.2c0.1,1.5,1.3,2.7,2.9,2.7c1.6,0,2.9-1.3,2.9-2.9c0-1.6-1.3-2.9-2.9-2.9
	c-0.8,0-1.6,0.4-2.1,1c-3.7-4.2-4.3-8.6-4.3-11h-2c0,0.6,0,1.3,0.1,2h-7.9c0.1-0.7,0.1-1.4,0.1-2h-2c0,2.4-0.6,6.7-4.3,11
	c-0.5-0.6-1.3-1-2.1-1c-1.6,0-2.9,1.3-2.9,2.9s1.3,2.9,2.9,2.9c1.5,0,2.7-1.2,2.9-2.7C102.5,102,103.9,98.7,104.5,96z"/>
<path d="M122.2,86.3c0-0.1,0-0.2,0-0.3c0.1-0.6,0.2-1.2,0.3-1.8c1.1-7.8,0.4-11.9-2.3-12.5c-0.5-0.1-0.9-0.1-1.4,0
	c0.1-0.6,0.2-1.3,0.2-1.9c0-5.5-4.4-9.9-9.9-9.9s-9.9,4.4-9.9,9.9c0,0.7,0.1,1.3,0.2,1.9c-0.4-0.1-0.9-0.1-1.4,0
	c-2.7,0.6-3.4,4.7-2.3,12.5c0.1,0.6,0.2,1.2,0.3,1.8c0,0.1,0,0.2,0,0.3c-0.6,0.3-1,1-1,1.7c0,1.1,0.9,2,2,2h5.7h2h4.3h4.3h2h5.7
	c1.1,0,2-0.9,2-2C123.2,87.3,122.8,86.7,122.2,86.3z M102.7,86H98c-0.1-0.7-0.2-1.4-0.3-2c-1.3-9.4,0.5-10.2,0.7-10.3
	c0.8-0.2,2.1,1,2.2,1.4l0,0c0.2,0.2,0.3,0.5,0.5,0.7c1,3.1,1.4,6,1.5,8.2C102.7,84.8,102.7,85.4,102.7,86z M120.5,84
	c-0.1,0.6-0.2,1.3-0.3,2h-4.7c0-0.6,0-1.2,0-2c0.1-2.2,0.4-5.1,1.5-8.2c0.2-0.2,0.3-0.5,0.5-0.7l0,0c0.2-0.4,1.4-1.6,2.2-1.4
	C120,73.8,121.9,74.6,120.5,84z"/>
<path d="M85.8,72H64.9H44c-1.1,0-2,0.9-2,2s0.9,2,2,2h11.9h1.5h7.5h7.5h1.5h11.9c1.1,0,2-0.9,2-2S86.9,72,85.8,72z"/>
</svg>
