<?xml version="1.0" encoding="iso-8859-1"?>
<!-- Generator: Adobe Illustrator 17.1.0, SVG Export Plug-In . SVG Version: 6.00 Build 0)  -->
<!DOCTYPE svg PUBLIC "-//W3C//DTD SVG 1.1//EN" "http://www.w3.org/Graphics/SVG/1.1/DTD/svg11.dtd">
<svg version="1.1" id="Layer_1" xmlns="http://www.w3.org/2000/svg" xmlns:xlink="http://www.w3.org/1999/xlink" x="0px" y="0px"
	 viewBox="0 0 64 64" style="enable-background:new 0 0 64 64;" xml:space="preserve">
<path d="M29.598,32.877l1.844,8.078l-2.389,4.687c-0.751-0.016-1.48,0.386-1.836,1.103L21.95,57.528
	c-0.492,0.989-0.089,2.19,0.9,2.682l0.895,0.445c0.989,0.492,2.19,0.089,2.682-0.9l5.266-10.782
	c0.301-0.605,0.264-1.287-0.034-1.839l2.643-5.186l0.023-0.008l1.154-2.282l2.449,0.646l0.015-0.012l3.546,0.967
	c0.037,0.82,0.572,1.568,1.402,1.823l11.494,3.446c1.056,0.325,2.175-0.267,2.5-1.323l0.294-0.956
	c0.325-1.056-0.267-2.175-1.323-2.5l-11.494-3.446c-0.559-0.172-1.132-0.081-1.599,0.193l-4.399-1.2l-4.793-5.938L28.158,8.071
	l-5.467-5.443l4.856,21.269L13.644,6.673l0.938,7.601L29.598,32.877z M28.946,28.729c-0.217-0.502,0.014-1.084,0.516-1.301
	c0.502-0.217,1.084,0.014,1.301,0.516c0.217,0.502-0.014,1.084-0.516,1.301S29.163,29.231,28.946,28.729z"/>
</svg>
