<?xml version="1.0" encoding="iso-8859-1"?>
<!-- Generator: Adobe Illustrator 17.1.0, SVG Export Plug-In . SVG Version: 6.00 Build 0)  -->
<!DOCTYPE svg PUBLIC "-//W3C//DTD SVG 1.1//EN" "http://www.w3.org/Graphics/SVG/1.1/DTD/svg11.dtd">
<svg version="1.1" id="Layer_1" xmlns="http://www.w3.org/2000/svg" xmlns:xlink="http://www.w3.org/1999/xlink" x="0px" y="0px"
	 viewBox="0 0 64 64" style="enable-background:new 0 0 64 64;" xml:space="preserve">
<g>
	<polygon points="10.415,18.5 15.415,18.5 16.415,18.5 21.415,18.5 21.415,14.5 10.415,14.5 	"/>
	<polygon points="22.415,18.5 27.415,18.5 28.415,18.5 33.415,18.5 33.415,14.5 22.415,14.5 	"/>
	<polygon points="34.415,18.5 39.415,18.5 40.415,18.5 45.415,18.5 45.415,14.5 34.415,14.5 	"/>
	<polygon points="57.415,14.5 46.415,14.5 46.415,18.5 51.415,18.5 52.415,18.5 57.415,18.5 	"/>
	<rect x="10.415" y="19.5" width="5" height="4"/>
	<polygon points="21.415,19.5 16.415,19.5 16.415,23.5 21.415,23.5 22.415,23.5 27.415,23.5 27.415,19.5 22.415,19.5 	"/>
	<polygon points="33.415,19.5 28.415,19.5 28.415,23.5 33.415,23.5 34.415,23.5 39.415,23.5 39.415,19.5 34.415,19.5 	"/>
	<polygon points="46.415,23.5 51.415,23.5 51.415,19.5 46.415,19.5 45.415,19.5 40.415,19.5 40.415,23.5 45.415,23.5 	"/>
	<rect x="52.415" y="19.5" width="5" height="4"/>
	<polygon points="10.415,28.5 15.415,28.5 16.415,28.5 21.415,28.5 21.415,24.5 16.415,24.5 15.415,24.5 10.415,24.5 	"/>
	<polygon points="28.415,28.5 33.415,28.5 33.415,24.5 28.415,24.5 27.415,24.5 22.415,24.5 22.415,28.5 27.415,28.5 	"/>
	<polygon points="39.415,24.5 34.415,24.5 34.415,28.5 39.415,28.5 40.415,28.5 45.415,28.5 45.415,24.5 40.415,24.5 	"/>
	<polygon points="57.415,24.5 52.415,24.5 51.415,24.5 46.415,24.5 46.415,28.5 51.415,28.5 52.415,28.5 57.415,28.5 	"/>
	<rect x="10.415" y="29.5" width="5" height="4"/>
	<polygon points="21.415,29.5 16.415,29.5 16.415,33.5 21.415,33.5 22.415,33.5 27.415,33.5 27.415,29.5 22.415,29.5 	"/>
	<polygon points="34.415,33.5 39.415,33.5 39.415,29.5 34.415,29.5 33.415,29.5 28.415,29.5 28.415,33.5 33.415,33.5 	"/>
	<polygon points="51.415,33.5 51.415,29.5 46.415,29.5 45.415,29.5 40.415,29.5 40.415,33.5 45.415,33.5 46.415,33.5 	"/>
	<rect x="52.415" y="29.5" width="5" height="4"/>
	<path d="M16.415,38.5h5v-4h-5h-1h-5v4h1.722c0.734-0.663,1.583-1.187,2.575-1.5l0.971-0.307l-0.351,0.956
		c-0.005,0.014-0.117,0.324-0.279,0.851h0.362H16.415z"/>
	<path d="M33.415,34.5h-1.461c0.22,0.107,0.782,0.425,1.461,1.064V34.5z"/>
	<path d="M32.304,38.5c-0.171-1.296-0.496-2.458-1.056-3.308L30.79,34.5h-2.375h-1h-5v4h2.101c0.631-0.452,1.333-0.865,2.116-1.224
		l1.861-0.851l-1.259,1.613c-0.006,0.008-0.135,0.176-0.328,0.461h0.509h1h3.889V38.5z"/>
	<path d="M45.057,38.5c-0.009-0.018-0.014-0.037-0.023-0.056l-0.681-1.324l1.062,0.51V34.5h-5h-1h-5v2.189
		c0.377,0.497,0.753,1.094,1.107,1.811h3.893h1H45.057z"/>
	<path d="M57.415,34.5h-5h-1h-5v3.774c0.077,0.067,0.157,0.143,0.241,0.226h4.759h1h5V34.5z"/>
	<path d="M10.415,40.623c0.24-0.395,0.501-0.77,0.783-1.123h-0.783V40.623z"/>
	<path d="M15.415,43.205V39.5h-0.649c-0.281,1.045-0.599,2.453-0.797,4h1.29C15.31,43.401,15.361,43.303,15.415,43.205z"/>
	<path d="M23.313,39.5h-0.898h-1h-1.226l-0.229,0.554c-0.012,0.03-0.649,1.589-1.105,3.446h1.597
		C21.086,42.126,22.004,40.726,23.313,39.5z"/>
	<path d="M27.415,39.5H26.28c-0.588,1.016-1.275,2.459-1.561,4h2.696V39.5z"/>
	<path d="M19.078,39.5h-2.663v2.161C17.142,40.721,18.024,39.948,19.078,39.5z"/>
	<path d="M32.407,39.5h-3.958v0.69l0.818,1.397c0.038,0.068,0.438,0.787,0.956,1.912h2.136C32.46,42.18,32.499,40.798,32.407,39.5z"
		/>
	<path d="M39.415,39.5h-3.451c0.435,1.095,0.796,2.417,1.024,4h2.427V39.5z"/>
	<path d="M45.419,39.5h-0.004h-5v4h0.057c0.395-0.389,0.805-0.754,1.229-1.068l1.456-1.081l-0.696,1.675
		c-0.004,0.009-0.076,0.187-0.175,0.475h2.898C45.591,42.179,45.753,40.794,45.419,39.5z"/>
	<path d="M50.561,42.163l0.573-0.394l0.19,0.669c0.002,0.007,0.035,0.124,0.09,0.323V39.5h-3.942
		c0.593,0.88,1.537,3.094,1.756,5.219C49.227,44.719,49.759,42.656,50.561,42.163z"/>
	<path d="M57.017,39.5h-4.602v4h2.019C55.142,42.073,56.003,40.645,57.017,39.5z"/>
	<path d="M19.078,49.208c0,0,0-2.792,0.957-4.708h-1.399C17.915,47.479,19.07,49.19,19.078,49.208z"/>
	<path d="M13.806,47.244c0.237-0.834,0.557-1.789,0.974-2.744h-0.919C13.783,45.398,13.754,46.325,13.806,47.244z"/>
	<path d="M32.272,44.5h-1.606c0.394,0.925,0.813,2.013,1.178,3.19C31.993,46.801,32.152,45.694,32.272,44.5z"/>
	<path d="M24.648,45.805c0.157,1.018,0.892,2.57,1.975,3.476l0.281-0.781c0.321-0.872,0.733-2.205,1.058-4h-0.547h-2.821
		C24.569,44.935,24.582,45.373,24.648,45.805z"/>
	<path d="M42.103,49.281l0.47-0.781c0.675-0.936,1.602-2.377,2.257-4h-2.851C41.669,45.656,41.227,47.312,42.103,49.281z"/>
	<path d="M39.538,44.5h-0.123h-2.307c0.095,0.954,0.153,1.976,0.139,3.11C37.824,46.702,38.618,45.564,39.538,44.5z"/>
	<path d="M51.873,44.5c0.24,0.949,0.525,2.133,0.779,3.351c0.314-0.934,0.754-2.117,1.31-3.351h-1.547H51.873z"/>
	<polygon points="8.415,13.5 9.415,13.5 21.415,13.5 22.415,13.5 33.415,13.5 34.415,13.5 45.415,13.5 46.415,13.5 58.415,13.5 
		59.415,13.5 59.415,8.5 8.415,8.5 	"/>
	<path d="M57.415,40.565c-0.697,0.869-1.315,1.89-1.855,2.935c-0.172,0.333-0.336,0.666-0.491,1c-0.696,1.495-1.227,2.951-1.572,4
		c-0.133,0.406-0.235,0.739-0.313,1c-0.099,0.336-0.157,0.55-0.161,0.564l-0.591,2.271l-0.386-2.315
		c-0.029-0.171-0.061-0.347-0.093-0.521c-0.06-0.332-0.123-0.665-0.19-1c-0.295-1.468-0.645-2.915-0.923-4
		c-0.084-0.328-0.164-0.635-0.23-0.885c-0.138,0.24-0.271,0.542-0.4,0.885c-0.372,0.988-1.951,7.688-1.951,7.688
		s0.016-6.574-0.127-7.689c-0.046-0.358-0.107-0.682-0.171-1c-0.337-1.672-0.893-2.821-1.418-3.565
		c0.174,1.186,0.024,2.403-0.3,3.565c-0.095,0.339-0.205,0.672-0.327,1c-0.151,0.408-0.321,0.803-0.5,1.187
		c-0.506,1.083-1.091,2.048-1.612,2.813c-0.266,0.391-0.511,0.728-0.719,1c-0.334,0.436-0.572,0.715-0.618,0.768l-0.346,0.396
		l-0.378-0.366c-0.245-0.237-0.428-0.511-0.586-0.798c-0.172-0.313-0.297-0.648-0.383-1c-0.322-1.321-0.116-2.836,0.171-4
		c0.006-0.026,0.012-0.055,0.018-0.08c-0.025,0.026-0.05,0.054-0.075,0.08c-1.256,1.311-2.333,2.901-3.013,4
		c-0.259,0.418-0.462,0.768-0.593,1c-0.11,0.195-0.171,0.309-0.174,0.316l-1.105,2.094l0.164-2.361
		c0.001-0.017,0.001-0.032,0.002-0.049c0.023-0.344,0.036-0.672,0.049-1c0.058-1.486,0.015-2.819-0.111-4
		c-0.037-0.346-0.082-0.678-0.131-1c-0.251-1.623-0.654-2.937-1.118-4c-0.143-0.327-0.29-0.632-0.442-0.913
		c-0.016-0.03-0.033-0.058-0.049-0.087c-0.313-0.566-0.636-1.038-0.951-1.429c-0.174-0.216-0.345-0.413-0.508-0.581
		c0.184,0.624,0.314,1.302,0.402,2.01c0.041,0.328,0.072,0.662,0.096,1c0.091,1.314,0.057,2.688-0.038,4
		c-0.025,0.339-0.052,0.672-0.084,1c-0.153,1.572-0.375,2.99-0.56,4c-0.074,0.405-0.141,0.742-0.194,1
		c-0.062,0.301-0.106,0.498-0.118,0.551l-0.5,2.179l-0.476-2.185c-0.04-0.183-0.087-0.363-0.131-0.545
		c-0.083-0.337-0.171-0.671-0.266-1c-0.436-1.503-0.98-2.895-1.466-4c-0.153-0.349-0.302-0.677-0.437-0.962
		c-0.049,0.341-0.106,0.647-0.161,0.962c-0.3,1.717-0.675,3.061-1.001,4c-0.144,0.415-0.272,0.739-0.382,1
		c-0.17,0.404-0.292,0.645-0.309,0.676l-0.264,0.49l-0.459-0.315c-0.385-0.264-0.73-0.549-1.041-0.851
		c-0.323-0.313-0.605-0.647-0.848-1c-0.524-0.761-0.865-1.61-1.009-2.546c-0.075-0.486-0.081-0.971-0.058-1.454
		c0.016-0.337,0.05-0.67,0.105-1c0.249-1.513,0.844-2.918,1.425-4c0.06-0.112,0.121-0.232,0.181-0.337
		c-0.16,0.108-0.296,0.226-0.444,0.338c-1.537,1.165-2.596,2.582-3.315,4c-0.05,0.098-0.095,0.195-0.141,0.293
		c-0.113,0.237-0.219,0.472-0.314,0.707c-0.627,1.54-0.901,2.986-1.016,4c-0.047,0.416-0.071,0.757-0.08,1
		c-0.01,0.254-0.008,0.411-0.008,0.422l0.025,0.766l-0.711-0.285c-0.472-0.19-0.853-0.498-1.153-0.902
		c-0.147-0.198-0.281-0.411-0.385-0.659c-0.044-0.105-0.063-0.229-0.099-0.341c-0.361-1.138-0.296-2.588-0.047-4
		c0.06-0.339,0.126-0.673,0.202-1c0.227-0.984,0.507-1.897,0.742-2.581c-0.868,0.622-1.577,1.539-2.156,2.552
		c-0.005,0.01-0.01,0.02-0.016,0.029c-0.185,0.326-0.355,0.661-0.513,1c-0.671,1.438-1.109,2.928-1.368,4
		c-0.098,0.405-0.17,0.744-0.221,1c-0.06,0.306-0.092,0.501-0.094,0.513l-0.362,2.399l-0.616-2.347
		c-0.049-0.186-0.088-0.376-0.128-0.565c-0.07-0.33-0.131-0.663-0.176-1c-0.18-1.332-0.177-2.698-0.071-4
		c0.027-0.338,0.06-0.673,0.099-1c0.186-1.531,0.491-2.922,0.775-4c0.098-0.375,0.193-0.71,0.28-1
		c0.014-0.045,0.028-0.097,0.041-0.14c-0.076,0.04-0.141,0.096-0.214,0.14c-0.467,0.277-0.895,0.611-1.281,1
		c-0.906,0.911-1.6,2.09-2.135,3.377c-0.086,0.207-0.173,0.412-0.251,0.623c-0.121,0.33-0.235,0.663-0.338,1
		c-0.159,0.521-0.292,1.045-0.411,1.566c-1,3.08-1,7.434-1,7.434v2h49.469l-0.469-3c0,0-0.267-1.86-0.248-3
		c0.006-0.326,0.021-0.659,0.048-1c0.043-0.546,0.112-1.106,0.199-1.673c0.12-0.776,0.272-1.558,0.447-2.327
		c0.077-0.338,0.157-0.671,0.24-1c0.102-0.402,0.206-0.797,0.312-1.178c0.423-1.513,0.865-2.834,1.172-3.702
		c-0.41,0.228-0.797,0.537-1.172,0.882C58.068,39.821,57.731,40.171,57.415,40.565z"/>
</g>
</svg>
