<?xml version="1.0" encoding="iso-8859-1"?>
<!-- Generator: Adobe Illustrator 17.1.0, SVG Export Plug-In . SVG Version: 6.00 Build 0)  -->
<!DOCTYPE svg PUBLIC "-//W3C//DTD SVG 1.1//EN" "http://www.w3.org/Graphics/SVG/1.1/DTD/svg11.dtd">
<svg version="1.1" id="Layer_1" xmlns="http://www.w3.org/2000/svg" xmlns:xlink="http://www.w3.org/1999/xlink" x="0px" y="0px"
	 viewBox="0 0 64 64" style="enable-background:new 0 0 64 64;" xml:space="preserve">
<path d="M48.359,40H18.408L5.199,27.091c-0.395-0.385-1.027-0.378-1.414,0.017c-0.386,0.395-0.378,1.028,0.017,1.414L17.592,42
	h1.264l-5.009,7.729c-0.15,0.231-0.084,0.541,0.147,0.691c0.084,0.054,0.178,0.08,0.271,0.08c0.164,0,0.324-0.08,0.42-0.229
	L18.103,45H45c0.018,0,0.034-0.008,0.051-0.01l2.67,5.238C47.81,50.4,47.985,50.5,48.167,50.5c0.076,0,0.154-0.018,0.227-0.055
	c0.246-0.125,0.344-0.427,0.218-0.673L44.65,42h2.991l7.389,6.104c0.187,0.154,0.412,0.229,0.636,0.229
	c0.288,0,0.574-0.124,0.771-0.363c0.352-0.426,0.292-1.056-0.134-1.407L48.359,40z M44.547,44H18.751l1.296-2h23.48L44.547,44z"/>
</svg>
