<?xml version="1.0" encoding="utf-8"?>
<!-- Generator: Adobe Illustrator 17.1.0, SVG Export Plug-In . SVG Version: 6.00 Build 0)  -->
<!DOCTYPE svg PUBLIC "-//W3C//DTD SVG 1.1//EN" "http://www.w3.org/Graphics/SVG/1.1/DTD/svg11.dtd">
<svg version="1.1" id="Layer_1" xmlns="http://www.w3.org/2000/svg" xmlns:xlink="http://www.w3.org/1999/xlink" x="0px" y="0px"
	 viewBox="0 0 128 128" enable-background="new 0 0 128 128" xml:space="preserve">
<polygon points="65,111.8 50.4,111.8 47.3,111.8 43.2,111.8 43.2,118 68.1,118 68.1,111.8 66,111.8 "/>
<rect x="57.7" y="18.4" width="2.1" height="24.9"/>
<path d="M69.3,28.6c-2.2,1.6-3.6,4.2-3.8,7l0,0.2c-0.2,3.9-0.6,6.4-1.9,7.5h4.8c0.9-2.4,1.1-5.2,1.2-7.3l0-0.2
	c0.2-2.6,2.2-4.5,4.1-4.5c-0.3-1.4-0.6-2.7-1-3.8C71.7,27.3,70.5,27.7,69.3,28.6z"/>
<path d="M60.3,45.4h-0.5h-2.1H43.2v4.1h4.1v8.3v2.1h-2.1V62H30.7c-10.8,0-12.2,5.9-12.4,7.8c0,0.2,0,0.3,0,0.5v4.1v2.1h-2.1v4.1
	h12.4v-4.1h-2.1v-2.7c0,0,0-3.5,4.1-3.5h14.5v2.1h2.1l2.1,2.1v0.4v34.8h14.5V74.4l2.1-2.1V49.6h2.1v-4.1h-0.8H60.3z"/>
<path d="M102.6,72.5c-1.3-1.1-2.8-2.3-4.4-3.7l-0.5-0.4C86.2,58.2,86.2,58.2,81.2,35.3l-1-4.5c-2.7-12.6-7.1-20.4-13.1-23.4
	c-1.9-1-5-1.4-6.5-1.4c-4.1,0-6.7,2.1-6.7,5.6c0,2.6,2.1,4.7,4.7,4.7s4.7-2.1,4.7-4.7c0-0.3,0-0.6-0.1-0.9c0.6,0.1,1.3,0.3,2,0.7
	C68.5,13,73,17.9,76,31.8l1,4.5c5.1,23.9,5.2,24.3,17.9,35.4l0.5,0.4c1.6,1.4,3.1,2.7,4.5,3.8c6.1,5,9.4,7.8,12.2,17.7
	c0.3,1,1.2,1.6,2.1,1.6c0.2,0,0.4,0,0.6-0.1c1.2-0.3,1.8-1.5,1.5-2.7C113,81.1,108.9,77.7,102.6,72.5z"/>
</svg>
