<?xml version="1.0" encoding="iso-8859-1"?>
<!-- Generator: Adobe Illustrator 17.1.0, SVG Export Plug-In . SVG Version: 6.00 Build 0)  -->
<!DOCTYPE svg PUBLIC "-//W3C//DTD SVG 1.1//EN" "http://www.w3.org/Graphics/SVG/1.1/DTD/svg11.dtd">
<svg version="1.1" id="Layer_1" xmlns="http://www.w3.org/2000/svg" xmlns:xlink="http://www.w3.org/1999/xlink" x="0px" y="0px"
	 viewBox="0 0 64 64" style="enable-background:new 0 0 64 64;" xml:space="preserve">
<polygon points="42.374,41.062 42.188,26.503 12.492,35.4 20.341,47.663 "/>
<path d="M14.408,58.326c3.199-0.958,5.19-4.024,4.911-7.225l13.249-3.97l3.045,4.609c0.188,0.285,0.505,0.449,0.834,0.449
	c0.096,0,0.192,0.01,0.287-0.018l4.391-1.292c0.426-0.127,0.716-0.474,0.713-0.918l-0.041-5.594l3.507-1.051l0.021-13.577
	l2.924-0.876c0.442,0.496,1.254,0.668,2.079,0.421l5.748-1.722c1.058-0.317,1.73-1.195,1.471-2.059l-0.234-0.782
	c-0.259-0.864-1.327-1.308-2.385-0.991l-5.748,1.722c-0.795,0.238-1.358,0.838-1.479,1.487l-4.374,1.31l-0.021,13.577l-24.451,7.325
	c-1.305-3.312-4.949-5.129-8.42-4.089c-3.662,1.097-5.742,4.956-4.644,8.618C6.887,57.344,10.746,59.424,14.408,58.326z
	 M39.802,44.965l0.031,4.167l-2.961,0.887l-2.303-3.485L39.802,44.965z M11.271,47.858c0.375-0.112,0.763-0.169,1.151-0.169
	c1.555,0,2.967,0.925,3.619,2.307l-0.489,0.146l-0.485,0.145c-0.516-0.961-1.53-1.599-2.645-1.599c-0.292,0-0.582,0.043-0.864,0.127
	c-1.588,0.476-2.493,2.154-2.018,3.742c0.463,1.541,2.185,2.482,3.743,2.017c1.096-0.328,1.853-1.235,2.069-2.285l0.543-0.163
	l0.508-0.152c-0.115,1.613-1.195,3.067-2.833,3.558c-0.376,0.112-0.763,0.169-1.151,0.169c-1.755,0-3.332-1.175-3.836-2.857
	C7.949,50.729,9.155,48.492,11.271,47.858z"/>
</svg>
