<?xml version="1.0" encoding="iso-8859-1"?>
<!-- Generator: Adobe Illustrator 17.1.0, SVG Export Plug-In . SVG Version: 6.00 Build 0)  -->
<!DOCTYPE svg PUBLIC "-//W3C//DTD SVG 1.1//EN" "http://www.w3.org/Graphics/SVG/1.1/DTD/svg11.dtd">
<svg version="1.1" id="Layer_1" xmlns="http://www.w3.org/2000/svg" xmlns:xlink="http://www.w3.org/1999/xlink" x="0px" y="0px"
	 viewBox="0 0 64 64" style="enable-background:new 0 0 64 64;" xml:space="preserve">
<path d="M27.52,42.001c-0.084,0.325-0.17,0.656-0.256,0.991c1.512,0.361,3.479,0.687,5.679,0.687c1.82,0,3.796-0.228,5.794-0.838
	c-0.086-0.332-0.17-0.657-0.253-0.977C34.304,43.132,30.175,42.621,27.52,42.001z"/>
<path d="M28.14,35.875l0.354-0.01c0.27-0.007,0.525,0.062,0.765,0.062L30.045,36c0.003,0,0.007,0,0.01,0
	c1.53,0,2.045-0.075,2.315-2.155c0.274-2.117-0.69-2.356-2.025-2.637c-0.205-0.044-0.407-0.104-0.599-0.153l-0.465-0.13l0.103-0.475
	c0.636-2.897,2.979-12.213,3.199-13.087L32.466,11h-4.058c-0.922,4.462-8.354,40.396-8.873,42.614
	c-0.157,0.673-0.077,1.234,0.231,1.624c0.266,0.335,0.703,0.526,1.198,0.526c0.876,0,2.071-0.606,2.555-2.317
	c0.262-0.927,1.038-3.947,1.86-7.146c0.309-1.201,0.62-2.411,0.916-3.56c0.086-0.335,0.171-0.664,0.255-0.987
	c0.704-2.722,1.287-4.937,1.481-5.543L28.14,35.875z"/>
<path d="M37.633,11h-4.167l0.117,6.349c0.214,0.825,2.645,10.189,3.283,13.097l0.104,0.471l-0.466,0.121
	c-0.203,0.053-0.422,0.098-0.646,0.144c-1.373,0.28-2.458,0.572-2.186,2.665C33.939,35.925,34.456,36,35.985,36
	c0.003,0,0.007,0,0.01,0l0.786-0.073c0.24,0,0.495-0.033,0.765-0.027l0.354-0.008l0.108,0.329c0.188,0.588,0.744,2.694,1.421,5.309
	c0.084,0.324,0.17,0.656,0.257,0.994c0.314,1.214,0.645,2.503,0.974,3.782c0.822,3.198,1.599,6.217,1.86,7.143
	c0.484,1.711,1.679,2.316,2.555,2.316c0.495,0,0.932-0.192,1.198-0.527c0.309-0.39,0.389-0.951,0.231-1.625
	C45.987,51.397,38.555,15.462,37.633,11z"/>
</svg>
