<?xml version="1.0" encoding="utf-8"?>
<!-- Generator: Adobe Illustrator 17.1.0, SVG Export Plug-In . SVG Version: 6.00 Build 0)  -->
<!DOCTYPE svg PUBLIC "-//W3C//DTD SVG 1.1//EN" "http://www.w3.org/Graphics/SVG/1.1/DTD/svg11.dtd">
<svg version="1.1" id="Layer_1" xmlns="http://www.w3.org/2000/svg" xmlns:xlink="http://www.w3.org/1999/xlink" x="0px" y="0px"
	 viewBox="0 0 200 200" enable-background="new 0 0 200 200" xml:space="preserve">
<path d="M49.2,125.2h107.5v17H49.2V125.2z M185,145H17.7c-3.1,0-5.6,2.5-5.6,5.6s2.5,5.6,5.6,5.6h3.3v19.8h161.2v-19.8h2.8
	c3.1,0,5.6-2.5,5.6-5.6S188.1,145,185,145z M60.6,98.9c0,4.2,3.4,7.8,7.8,7.8c2.8,0,5.2-1.4,6.6-3.8c2.8,5.3,5.3,12,5.3,19.2h50.9
	c0-8,1.9-14.5,4.1-19.5c1.4,2.3,3.9,3.9,6.7,3.9c4.2,0,7.8-3.4,7.8-7.8c0-4.1-3.1-7.5-7.2-7.7c0,0-0.6,0-0.6,0c-0.6,0-1.3,0-1.9,0
	c-1.7,0-3.4,0-5.2,0c-2.6,0-5.1,0-7.7,0c-3.1,0-6.3,0-9.4,0c-3.4,0-6.9,0-10.3,0c-3.5,0-7,0-10.5,0c-3.3,0-6.6,0-9.9,0
	c-2.8,0-5.7,0-8.5,0c-2.1,0-4.3,0-6.4,0c-1.6,0-3.2-0.2-4.8,0.1c-2,0.3-3.7,1.3-5,2.8C61.3,95.3,60.6,97.1,60.6,98.9z M119.8,38.1
	c-0.6,0.2-1.2,0.3-2,0.3c-0.6,0-1.3,0-1.9-0.2c-2.8-0.5-5.2-2.3-6.9-4.2c-0.2,0.2-0.3,0.3-0.3,0.5c-1.7,2.2-4.5,3.4-8,3.8
	c-0.5,0-0.9,0-1.4,0c-4.4,0-7.3-1.9-9.1-4.1c-0.9,0.9-2.2,1.7-3.3,2.5c2.5,5,4.5,11.2,4.5,17.8H117C117,48.1,118.3,42.7,119.8,38.1z
	 M72,65c0,4.2,3.4,7.8,7.8,7.8c2.8,0,5.2-1.4,6.6-3.8c2.8,5.3,5.3,12,5.3,19.2h25.5c0-8,1.9-14.5,4.1-19.5c1.4,2.3,3.9,3.9,6.7,3.9
	c4.2,0,7.8-3.4,7.8-7.8c0-4.1-3.1-7.5-7.2-7.7c0,0-0.6,0-0.6,0c-1,0-2.1,0-3.1,0c-2.6,0-5.2,0-7.8,0c-3.5,0-7,0-10.5,0
	c-3.7,0-7.3,0-11,0c-3.1,0-6.3,0-9.4,0c-1.9,0-3.8,0-5.7,0c-2.1,0-4.3,0.5-5.9,2C72.9,60.6,72,62.8,72,65z M146.1,21.2
	c0,0-13-3.7-42.7-3.7s-37.8,3.4-37.8,3.4c-5.6,3.1-13.1,13.1-6.2,13.8c0.2,0,0.5,0,0.6,0c6.9,0,17-8.8,17-8.8s-3.1,8.1,1.1,9.7
	c0.6,0.2,1.2,0.3,2,0.3c1.9,0,3.8-0.8,5.5-1.7c2.3-1.4,4.2-3.3,5.2-5c0,0,1.4,6.3,8.6,6.3c0.3,0,0.8,0,1.1,0
	c8.3-0.6,7.5-7.5,7.5-7.5s3.8,6.7,8.4,7.7c0.5,0.2,0.9,0.2,1.2,0.2c3.6,0,4.7-3.3,4.7-8c0,0,0,1.4,0.8,3c0.9,2,2.8,4.5,7.2,4.5
	c0.5,0,1.1,0,1.6-0.2c4.4-0.5,3-6.9,1.4-9.4c0,0,7.3,9.5,13,9.5c1.4,0,2.8-0.6,3.9-2C155,27.2,146.1,21.2,146.1,21.2z M42.5,50.2
	c1.1,0.9,3,0.5,4.1-0.9c1.1-1.4,1.2-5.9,1.2-5.9s-4.4,1.4-5.5,2.8C41.4,47.5,41.4,49.4,42.5,50.2z M43.1,30.6
	c-1.6,0.6-2.5,2.2-2,3.6c0.5,1.4,2.2,1.9,3.9,1.4c1.6-0.6,4.2-4.4,4.2-4.4S44.8,30,43.1,30.6z M32.5,52c1.1-1.4,1.2-5.9,1.2-5.9
	s-4.4,1.4-5.5,2.8c-1.1,1.4-0.9,3.3,0.2,4.1C29.5,53.9,31.4,53.4,32.5,52z M166.4,34.1c-1.4-0.9-5.9-1.1-5.9-1.1s1.6,4.4,3,5.3
	s3.3,0.9,4.1-0.3C168.3,36.7,167.8,35,166.4,34.1z M157.3,50.6c1.2-0.6,1.7-2.3,1.1-3.9c-0.6-1.6-4.7-3.9-4.7-3.9s-0.8,4.5,0,6.1
	C154.4,50.5,156.1,51.2,157.3,50.6z M167.8,57.3c0.8,1.6,2.3,2.3,3.8,1.7c1.4-0.6,1.7-2.3,1.1-3.9s-4.7-3.9-4.7-3.9
	S167,55.8,167.8,57.3z"/>
</svg>
