<?xml version="1.0" encoding="iso-8859-1"?>
<!-- Generator: Adobe Illustrator 17.1.0, SVG Export Plug-In . SVG Version: 6.00 Build 0)  -->
<!DOCTYPE svg PUBLIC "-//W3C//DTD SVG 1.1//EN" "http://www.w3.org/Graphics/SVG/1.1/DTD/svg11.dtd">
<svg version="1.1" id="Layer_1" xmlns="http://www.w3.org/2000/svg" xmlns:xlink="http://www.w3.org/1999/xlink" x="0px" y="0px"
	 viewBox="0 0 64 64" style="enable-background:new 0 0 64 64;" xml:space="preserve">
<path d="M43,34h-0.128h-1.01h-1.01H29v-1v-1V17.719c0.85-0.984,3.508-3.165,10.122-2.586c2.717,0.238,6.583-2.454,3.451-7.766
	c-1.238-2.1-4.374-3.153-8.466-0.741C30.966,8.478,29.59,11.177,29,13.504V4c0-1.549-0.701-2.274-1.289-2.609
	c-1.986-1.133-5.356,0.737-6.011,1.123c-0.476,0.28-0.634,0.893-0.354,1.368c0.281,0.477,0.896,0.634,1.369,0.354
	c1.229-0.722,3.308-1.504,4.004-1.109C26.951,3.26,27,3.675,27,4v16.452c-0.721-2.055-2.111-4.248-4.787-5.826
	c-4.092-2.412-7.228-1.359-8.466,0.741c-3.132,5.312,0.734,8.004,3.451,7.766c5.935-0.519,8.684,1.185,9.802,2.252V32v1v1H16.147
	h-1.01h-1.01H14c-1.105,0-2,0.895-2,2c0,1.105,0.895,2,2,2h0.68h1.009h1.009l3.172,23h17.258l3.172-23h1.009h1.009H43
	c1.105,0,2-0.895,2-2C45,34.895,44.105,34,43,34z"/>
</svg>
