<?xml version="1.0" encoding="iso-8859-1"?>
<!-- Generator: Adobe Illustrator 17.1.0, SVG Export Plug-In . SVG Version: 6.00 Build 0)  -->
<!DOCTYPE svg PUBLIC "-//W3C//DTD SVG 1.1//EN" "http://www.w3.org/Graphics/SVG/1.1/DTD/svg11.dtd">
<svg version="1.1" id="Layer_1" xmlns="http://www.w3.org/2000/svg" xmlns:xlink="http://www.w3.org/1999/xlink" x="0px" y="0px"
	 viewBox="0 0 64 64" style="enable-background:new 0 0 64 64;" xml:space="preserve">
<path d="M38.292,35.385c0.328,0.38,0.902,0.422,1.282,0.094l0.275-0.237c0.38-0.328,0.422-0.902,0.094-1.282l-4.511-5.229
	c-0.328-0.38-0.902-0.422-1.282-0.095l-0.275,0.237c-0.38,0.328-0.422,0.902-0.094,1.282L38.292,35.385z"/>
<path d="M40.613,33.624l11.914-8.448l0.401,0.465c0.328,0.38,0.902,0.422,1.282,0.094l0.275-0.237
	c0.38-0.328,0.422-0.902,0.094-1.282l-7.36-8.532c-0.328-0.38-0.902-0.422-1.282-0.094l-0.275,0.237
	c-0.38,0.328-0.422,0.902-0.094,1.282l0.401,0.465L35.864,28.119L40.613,33.624z"/>
<path d="M21.187,56.012l0.21,0.004c1.906,0.083,2.763,0.923,3.387,1.537c0.416,0.409,0.65,0.623,1.009,0.653
	c0.828,0.066,1.287-0.33,1.884-0.849c0.737-0.642,1.668-1.451,3.491-1.298c0.203,0.017,0.368,0.056,0.538,0.092
	c-0.21-5.371,0.192-15.027,5.157-20.089L33.145,32c0,0-14.862,7.608-16.072,26.52C17.717,57.619,18.9,56.012,21.187,56.012z
	 M33.898,36.298c0.203,0.187,0.217,0.503,0.03,0.707c-0.016,0.017-0.459,0.516-1.122,1.44c-1.64,2.286-4.662,7.254-6.172,14.552
	c-0.145,0.7-0.276,1.42-0.391,2.162c-0.038,0.247-0.251,0.424-0.493,0.424c-0.025,0-0.051-0.002-0.077-0.006
	c-0.272-0.042-0.46-0.297-0.418-0.57c1.835-11.93,7.688-18.409,7.937-18.679C33.38,36.125,33.696,36.113,33.898,36.298z
	 M32.47,34.919c0.229-0.155,0.54-0.093,0.694,0.135c0.154,0.229,0.095,0.54-0.134,0.694c-0.019,0.013-0.417,0.291-1.041,0.801
	c-2.407,1.969-8.292,7.554-10.075,16.091c-0.088,0.421-0.186,0.835-0.253,1.27c-0.038,0.247-0.251,0.424-0.493,0.424
	c-0.025,0-0.051-0.002-0.077-0.006c-0.272-0.042-0.46-0.297-0.418-0.57C22.518,41.763,32.371,34.986,32.47,34.919z"/>
<path d="M38.166,61c0.494-1.244,0.958-3.02,0.599-3.612c-0.046-0.076-0.114-0.148-0.302-0.162l-0.103-0.004
	c-0.772,0-1.491,0.682-2.187,1.341c-0.796,0.754-1.644,1.529-2.662,1.435c-0.762-0.075-0.812-0.848-0.841-1.31
	c-0.041-0.659-0.092-1.239-0.916-1.501c-0.186-0.059-0.397-0.107-0.672-0.131c-1.385-0.116-2.054,0.451-2.752,1.057
	c-0.641,0.557-1.368,1.193-2.622,1.09c-0.735-0.061-1.188-0.506-1.626-0.936c-0.594-0.583-1.207-1.185-2.729-1.251l-0.167-0.003
	c-1.807,0-2.761,1.335-3.332,2.133c-0.245,0.343-0.407,0.571-0.626,0.683c-0.074,0.038-0.149,0.059-0.224,0.086
	c-0.172,0.061-0.344,0.103-0.517,0.103c-0.836,0-1.458-0.696-2.061-1.369c-0.613-0.685-1.246-1.393-2.052-1.393
	c-0.242,0-0.343,0.093-0.409,0.185c-0.428,0.583-0.185,2.321,0.158,3.562H38.166z"/>
<polygon points="54.449,21.227 64,12.88 64,3.279 49.825,15.723 "/>
</svg>
