<?xml version="1.0" encoding="iso-8859-1"?>
<!-- Generator: Adobe Illustrator 17.1.0, SVG Export Plug-In . SVG Version: 6.00 Build 0)  -->
<!DOCTYPE svg PUBLIC "-//W3C//DTD SVG 1.1//EN" "http://www.w3.org/Graphics/SVG/1.1/DTD/svg11.dtd">
<svg version="1.1" id="Layer_1" xmlns="http://www.w3.org/2000/svg" xmlns:xlink="http://www.w3.org/1999/xlink" x="0px" y="0px"
	 viewBox="0 0 64 64" style="enable-background:new 0 0 64 64;" xml:space="preserve">
<polygon points="38,62 40,48 23,48 25,62 "/>
<path d="M33,34.95c8.644-0.52,15.5-7.674,15.5-16.45C48.5,9.387,41.113,2,32,2S15.5,9.387,15.5,18.5
	c0,8.434,6.332,15.378,14.5,16.367V44h-9.167L22,47h19l1.417-3H33v-9V34.95z M32,35h-1.798l0.005-0.101L30.612,27l0.021-0.403
	L23.25,18.5l7.506,5.69l0.426-8.31l-5.307-5.13l5.387,3.561l0.363-7.088L32,14.799l0.279,5.637l10.138-3.686l-9.999,6.48L32.604,27
	l0.393,8H32z"/>
</svg>
