<?xml version="1.0" encoding="iso-8859-1"?>
<!-- Generator: Adobe Illustrator 17.1.0, SVG Export Plug-In . SVG Version: 6.00 Build 0)  -->
<!DOCTYPE svg PUBLIC "-//W3C//DTD SVG 1.1//EN" "http://www.w3.org/Graphics/SVG/1.1/DTD/svg11.dtd">
<svg version="1.1" id="Layer_1" xmlns="http://www.w3.org/2000/svg" xmlns:xlink="http://www.w3.org/1999/xlink" x="0px" y="0px"
	 viewBox="0 0 64 64" style="enable-background:new 0 0 64 64;" xml:space="preserve">
<path d="M15.683,53.108c0.33-0.506,0.808-1.779,1.062-2.827c0.254-1.048-0.129-2.586-0.85-3.416L12.98,43.51
	c-0.721-0.83-2.204-1.626-3.295-1.768l-3.702-0.483C4.892,41.116,4,41.9,4,43v9c0,1.1,0.9,2.002,2,2.005l7.083,0.019
	C14.183,54.027,15.353,53.615,15.683,53.108z"/>
<path d="M5.99,39.947l1.061,0.105c1.095,0.109,2.391-0.609,2.88-1.594l0.208-0.418c0.49-0.985,0.491-2.396,0.003-3.135
	s-1.638-1.259-2.556-1.156c-0.918,0.103-2.1,0.595-2.627,1.094C4.431,35.342,4,36.65,4,37.75C4,38.85,4.896,39.839,5.99,39.947z"/>
<path d="M11.952,40.703c0.742,0.249,1.872,1.186,2.51,2.081l2.47,3.462c0.639,0.896,2.052,1.495,3.14,1.333l2.328-0.347
	c1.088-0.162,2.107-1.186,2.266-2.274l0.632-4.354c0.158-1.089-0.501-2.414-1.464-2.945l-4.094-2.257
	c-0.963-0.531-2.579-0.612-3.591-0.179l-1.292,0.552c-1.011,0.432-2.332,1.539-2.934,2.46l-0.223,0.341
	C11.096,39.497,11.21,40.454,11.952,40.703z"/>
<path d="M18.568,54h9.704c1.1,0,1.385-0.657,0.634-1.46l-3.018-3.226c-0.752-0.803-2.251-1.294-3.332-1.09l-1.749,0.329
	c-1.081,0.204-2.333,1.192-2.782,2.196l-0.638,1.426C16.935,53.178,17.468,54,18.568,54z"/>
<path d="M14.574,25.903l-3.042-0.243c-1.096-0.088-2.313,0.572-2.704,1.465c-0.391,0.894-0.183,2.354,0.462,3.246l0.142,0.196
	c0.644,0.891,1.539,2.268,1.988,3.058c0.449,0.791,1.655,1.111,2.68,0.711l1.243-0.485c1.025-0.4,2.391-1.387,3.035-2.195
	s0.644-2.198,0-3.09l-0.639-0.883C17.095,26.792,15.67,25.991,14.574,25.903z"/>
<path d="M4.923,33.531c0.508-0.498,1.626-1.019,2.485-1.156c0.859-0.138,1.098-1.021,0.53-1.963l-0.421-0.699
	c-0.568-0.942-1.591-1.798-2.275-1.901C4.559,27.709,4,28.525,4,29.625v2.812C4,33.537,4.415,34.03,4.923,33.531z"/>
<path d="M5.243,26.188c0.683,0.138,1.69-0.312,2.237-1c0.547-0.688,1.891-1.173,2.987-1.078l3.257,0.281
	c1.096,0.095,2.337-0.66,2.758-1.676l1.239-2.992c0.421-1.016-0.056-2.216-1.06-2.667l-3.593-1.612
	c-1.004-0.45-2.586-0.339-3.516,0.248l-1.374,0.866c-0.93,0.587-2.251,0.701-2.934,0.254C4.559,16.366,4,16.9,4,18v5.938
	C4,25.037,4.559,26.05,5.243,26.188z"/>
<path d="M22.889,30.479c-1.095-0.109-2.533,0.47-3.197,1.286s-0.409,1.901,0.566,2.41l5.436,2.837
	c0.975,0.509,2.021,1.53,2.323,2.269s1.414,1.09,2.469,0.781l4.043-1.186c1.055-0.31,1.383-1.286,0.729-2.17l-2.803-3.785
	c-0.655-0.884-2.086-1.696-3.18-1.805L22.889,30.479z"/>
<path d="M33.691,54.021l3.029-0.013c1.1-0.005,2.641-0.64,3.425-1.411l2.546-2.506c0.784-0.772,0.849-2.094,0.144-2.939
	l-5.105-6.117c-0.705-0.845-2.153-1.309-3.217-1.032l-6.211,1.617c-1.065,0.277-2.073,1.393-2.24,2.481l-0.171,1.109
	c-0.168,1.087,0.294,2.648,1.027,3.469l3.443,3.857C31.092,53.358,32.591,54.025,33.691,54.021z"/>
<path d="M47.918,49.382l-0.494-0.076c-1.087-0.168-2.603,0.341-3.368,1.131l-2.062,2.128C41.229,53.354,41.502,54,42.602,54h5.976
	c1.1,0,2-0.267,2-0.594c0-0.327-0.154-1.297-0.342-2.156S49.005,49.55,47.918,49.382z"/>
<path d="M38.472,40.312c0.488,0.722,1.594,0.755,2.458,0.074l2.327-1.835c0.864-0.681,0.872-1.806,0.018-2.5l-1.511-1.228
	c-0.854-0.694-2.356-0.857-3.339-0.363l-0.189,0.095c-0.983,0.494-1.436,1.457-1.006,2.14c0.43,0.683,0.685,1.481,0.568,1.773
	C37.68,38.761,37.984,39.591,38.472,40.312z"/>
<path d="M47.074,47.895l0.83,0.161c1.08,0.209,2.618,0.173,3.419-0.081c0.801-0.254,1.412-1.36,1.359-2.459l-0.091-1.894
	c-0.053-1.099-0.908-2.387-1.9-2.863l-3.299-1.582c-0.992-0.476-2.505-0.302-3.364,0.386l-1.867,1.498
	c-0.858,0.688-0.971,1.931-0.25,2.763l1.889,2.179C44.521,46.834,45.995,47.686,47.074,47.895z"/>
<path d="M57.999,39.798l-2.451,1.03c-1.009,0.439-1.798,1.694-1.703,2.79l0.273,3.39c0.095,1.096-0.671,2.161-1.677,2.368
	c-1.006,0.206-1.533,1.225-1.172,2.264l0.196,0.563c0.361,1.039,1.556,1.878,2.656,1.865l3.711-0.043C58.933,54.011,60,53.1,60,52
	V41C60,39.9,59.008,39.359,57.999,39.798z"/>
<path d="M57.898,31.495l-3.881-0.991c-1.064-0.278-2.708,0.02-3.601,0.662l-2.08,1.479c-0.893,0.642-1.767,2.018-1.928,3.057
	s0.534,2.233,1.551,2.653l2.971,1.226c1.017,0.419,2.685,0.428,3.707,0.02l3.339-1.267C58.997,37.927,60,36.694,60,35.594V34
	C60,32.9,58.962,31.773,57.898,31.495z"/>
<path d="M48.397,30.391c0.926-0.593,0.81-1.293-0.258-1.556l-4.494-1.106c-1.068-0.263-2.66,0.065-3.538,0.728l-4.335,3.276
	c-0.878,0.663-1.444,1.614-1.258,2.112c0.185,0.498,1.154,0.527,2.151,0.064l2.159-1.003c0.998-0.463,2.054-0.66,2.346-0.436
	s1.235,0.898,2.095,1.5s1.734,0.447,1.944-0.344c0.21-0.791,1.14-1.923,2.066-2.516L48.397,30.391z"/>
<path d="M57.879,22.575l-7.535-1.619c-1.075-0.234-2.422,0.368-2.943,1.337l-1.605,2.946c-0.521,0.969-0.082,1.969,0.988,2.224
	l3.198,0.763c1.07,0.254,2.807,0.723,3.86,1.042l4.078,1.184C58.972,30.77,60,30.131,60,29.031V25
	C60,23.9,58.954,22.809,57.879,22.575z"/>
<path d="M43.079,24.512l-0.41-1.461c-0.297-1.059-1.363-2.292-2.368-2.739l-2.807-1.249c-1.005-0.447-2.641-0.429-3.636,0.041
	l-1.212,0.572c-0.995,0.47-1.736,1.751-1.647,2.848l0.102,1.263c0.089,1.096,1.026,1.742,2.082,1.434l0.988-0.288
	c1.056-0.308,2.788-0.321,3.849-0.031l3.669,1.005C42.752,26.2,43.377,25.571,43.079,24.512z"/>
<path d="M34.409,26.157l-1.254,0.436c-1.039,0.361-1.889,1.276-1.889,2.032c0,0.756,0.407,1.769,0.905,2.25s1.601,0.304,2.452-0.393
	l3.386-2.776c0.851-0.698,0.814-1.479-0.082-1.737S35.448,25.796,34.409,26.157z"/>
<path d="M28.334,24.436l-7.913,2.035c-1.065,0.274-1.458,0.955-0.872,1.514s1.959,1.116,3.053,1.238l4.971,0.556
	c1.093,0.122,2.092-0.672,2.22-1.764l0.245-2.09C30.167,24.831,29.4,24.162,28.334,24.436z"/>
<path d="M28.884,18.259c-0.252-1.071-1.349-2.08-2.436-2.242l-3.57-0.534c-1.088-0.163-2.304,0.543-2.703,1.568l-2.243,5.772
	c-0.398,1.025-0.525,2.11-0.281,2.411s1.308,0.294,2.363-0.015l7.912-2.314c1.056-0.309,1.713-1.438,1.461-2.508L28.884,18.259z"/>
<path d="M5.103,15.656C5.656,15.983,6.87,15.77,7.8,15.184l1.33-0.838c0.931-0.586,2.202-0.93,2.824-0.764
	c0.622,0.166,1.388-0.347,1.701-1.141c0.313-0.793-0.33-1.442-1.43-1.442H6c-1.1,0-1.978,0.9-1.952,1.999l0.002,0.064
	C4.076,14.163,4.55,15.33,5.103,15.656z"/>
<path d="M15.736,15.343l0.491,0.189c1.027,0.395,2.306,0.127,2.843-0.594c0.537-0.722,1.86-1.14,2.939-0.929l1.187,0.232
	c1.08,0.211,1.803-0.432,1.608-1.429S23.549,11,22.449,11h-4.875c-1.1,0-2.383,0.814-2.851,1.81l-0.002,0.005
	C14.252,13.81,14.709,14.948,15.736,15.343z"/>
<path d="M27.585,11c-1.1,0-1.754,0.866-1.454,1.924l0.043,0.152C26.475,14.134,27.344,15,28.106,15s1.56,0.858,1.775,1.906
	c0.215,1.048,1.207,1.528,2.206,1.066l1.908-0.883c0.998-0.462,2.582-0.37,3.52,0.205l1.382,0.847
	c0.938,0.575,1.921,0.171,2.185-0.896l1.064-4.304C42.41,11.874,41.726,11,40.626,11H27.585z"/>
<path d="M45.82,19.753l-0.565,0.167c-1.055,0.311-1.743,1.427-1.528,2.479s0.91,1.179,1.545,0.281l1.313-1.858
	C47.219,19.923,46.875,19.442,45.82,19.753z"/>
<path d="M46.999,18.025c1.07-0.254,2.074-0.097,2.23,0.35c0.156,0.447,0.899,1.037,1.651,1.312c0.752,0.275,1.426-0.398,1.498-1.496
	l0.341-5.196C52.791,11.898,51.95,11,50.85,11h-4.733c-1.1,0-2.222,0.872-2.494,1.938c0,0-1.512,5.937-1.512,6.249L46.999,18.025z"
	/>
<path d="M57.667,11h-0.97c-1.1,0-2.074,0.897-2.164,1.993l-0.453,5.498c-0.09,1.096,0.724,2.14,1.809,2.32l1.972,0.299
	c1.085,0.18,2.14-0.573,2.14-1.673V13C60,11.9,58.767,11,57.667,11z"/>
</svg>
