<?xml version="1.0" encoding="iso-8859-1"?>
<!-- Generator: Adobe Illustrator 17.1.0, SVG Export Plug-In . SVG Version: 6.00 Build 0)  -->
<!DOCTYPE svg PUBLIC "-//W3C//DTD SVG 1.1//EN" "http://www.w3.org/Graphics/SVG/1.1/DTD/svg11.dtd">
<svg version="1.1" id="Layer_1" xmlns="http://www.w3.org/2000/svg" xmlns:xlink="http://www.w3.org/1999/xlink" x="0px" y="0px"
	 viewBox="0 0 64 64" style="enable-background:new 0 0 64 64;" xml:space="preserve">
<path d="M19.359,49.706c6.325,1.424,10.221,0.858,10.567,0.386c-1.691-0.739-9.101-6.965-12.246-16.239
	c-2.134-6.292,0.217-5.988,2.714,0.216c0.531,1.319,2.185,4.41,3.657,6.347c5.424,7.134,7.814,7.322,7.814,7.322
	c10.641-18.559-7.554-23.643-9.751-28.61c-1.552-3.51,4.437-11.068-4.925-4.988C-2.16,26.704,12.148,48.083,19.359,49.706z"/>
<path d="M41.389,39.473c2.377-1.591,5.138-4.828,5.779-5.986c1.551-2.799,3.963-3.564,1.786,0.265
	c-1.186,2.086-2.455,3.913-6.164,6.646c-2.259,1.664-3.165,1.758-4.167,2.02c0.153,0.357,2.586,1.303,6.884,1.325
	c4.901,0.025,14.024-11.056,6.149-24.618c-3,6.719-8.942,7.206-11.741,9.535c-2.518,2.095-4.139,5.52-2.194,11.948
	C37.721,40.609,39.05,41.038,41.389,39.473z"/>
</svg>
