<?xml version="1.0" encoding="iso-8859-1"?>
<!-- Generator: Adobe Illustrator 17.1.0, SVG Export Plug-In . SVG Version: 6.00 Build 0)  -->
<!DOCTYPE svg PUBLIC "-//W3C//DTD SVG 1.1//EN" "http://www.w3.org/Graphics/SVG/1.1/DTD/svg11.dtd">
<svg version="1.1" id="Layer_1" xmlns="http://www.w3.org/2000/svg" xmlns:xlink="http://www.w3.org/1999/xlink" x="0px" y="0px"
	 viewBox="0 0 64 64" style="enable-background:new 0 0 64 64;" xml:space="preserve">
<path d="M31.833,53.266C39.685,50.475,41.533,43,41.579,36h-19.49C22.134,43,24.205,50.327,31.833,53.266z"/>
<path d="M35,35c0-6.708-1.042-10.959-1.042-14.625C33.958,17.583,35,12,35,12c0-1.105-0.895-2-2-2V8c0-1.122-0.659-2-1.5-2
	S30,6.878,30,8v2c-1.105,0-2,0.895-2,2c0,0,0.792,4.458,0.792,8.167C28.792,23.875,28,28.667,28,35C28.792,35,34.292,35,35,35z
	 M31,8c0-0.563,0.269-1,0.5-1S32,7.437,32,8v2h-1V8z"/>
</svg>
