<?xml version="1.0" encoding="iso-8859-1"?>
<!-- Generator: Adobe Illustrator 17.1.0, SVG Export Plug-In . SVG Version: 6.00 Build 0)  -->
<!DOCTYPE svg PUBLIC "-//W3C//DTD SVG 1.1//EN" "http://www.w3.org/Graphics/SVG/1.1/DTD/svg11.dtd">
<svg version="1.1" id="Layer_1" xmlns="http://www.w3.org/2000/svg" xmlns:xlink="http://www.w3.org/1999/xlink" x="0px" y="0px"
	 viewBox="0 0 64 64" style="enable-background:new 0 0 64 64;" xml:space="preserve">
<path d="M59.226,14.485c-2.267-6.103-8.18-4.971-10.839-3.132c0.772-2.669,1.512-4.413,1.531-4.457
	c0.219-0.507-0.015-1.095-0.521-1.314c-0.505-0.219-1.096,0.014-1.314,0.521C47.888,6.552,43.666,16.475,44.838,26h2.014
	c-0.401-3.027-0.198-6.149,0.252-8.97c5.282,4.641,8.289-0.916,10.09-1.274C58.481,15.5,60.555,18.063,59.226,14.485z"/>
<rect x="1" y="53" width="61" height="5"/>
<polygon points="26.8,37 19.134,37 17.844,37 8.2,37 9.4,43 25.6,43 "/>
<polygon points="28,31 24.998,31 23.525,31 22.338,31 21.637,31 21.038,31 20.225,31 19.484,31 19.478,31 18.712,31 16.477,31 
	15.807,31 14.478,31 13.492,31 12.191,31 7,31 8,36 17.009,36 19.72,36 27,36 "/>
<polygon points="24,51 25.4,44 9.6,44 11,51 "/>
<path d="M3,24l2,6h1h2.598h1.465h2.034h1.38h0.838h0.67h0.727h0.766h0.893h1.265h0.85h0.039h1.265h0.208h0.122h0.457H22.8h0.659
	h0.107h1.414H30l2-6h-6.647c0.398-2.841,1.172-5.811,2.605-8.35c0,0-0.722,0.713-1.585,2.395c0.367-3.026,0.094-4.898-0.042-5.564
	c0.897-2.498,2.072-4.931,3.613-7.06c0,0-5.607,4.358-8.052,18.578H21.56c0.057-1.22,0.158-2.501,0.314-3.81
	c0.454-1.928,1.12-3.832,2.085-5.54c0,0-0.734,0.728-1.607,2.44C22.95,13.947,23.93,10.78,25.5,8c0,0-4.283,4.175-5.628,16h-1.295
	c-0.011-0.215-0.021-0.436-0.03-0.664C18.755,18.223,19.682,11.991,22.5,7c0,0-1.882,1.839-3.543,6.521
	C19.478,9.613,20.524,5.501,22.5,2c0,0-5.699,5.555-6.013,22h-0.73c-0.079-0.364-0.156-0.737-0.232-1.12
	C15.689,17.67,16.582,11.168,19.5,6c0,0-3.051,2.976-4.812,11.015c-0.345-4.028-0.209-8.407,1.027-12.357
	c0,0-3.629,5.457-1.964,18.528c-0.025,0.267-0.047,0.541-0.068,0.815h-0.677c-0.312-1.166-0.642-2.25-0.982-3.267
	c1.449-9.572,0.001-13.5,0.001-13.5c0.371,3.248,0.112,6.864-0.406,10.27C12.084,5.502,8.441,0.696,8.441,0.696
	c1.832,4.802,2.014,10.366,1.631,15.133C7.181,9.715,4.254,7.724,4.254,7.724c2.581,3.133,4.337,7.045,5.532,10.838
	C9.511,20.699,9.156,22.57,8.841,24H3z M26.253,12.706c-0.087,3.677-1.07,7.397-2.384,10.774
	C24.24,20.286,24.941,16.433,26.253,12.706z"/>
<path d="M46,51h1c4.323,0,7-4.152,7-8v-3H38v3C38,47.112,41.888,51,46,51z"/>
<polygon points="54,27 47.01,27 44.982,27 38,27 38,39 54,39 "/>
</svg>
