<?xml version="1.0" encoding="iso-8859-1"?>
<!-- Generator: Adobe Illustrator 17.1.0, SVG Export Plug-In . SVG Version: 6.00 Build 0)  -->
<!DOCTYPE svg PUBLIC "-//W3C//DTD SVG 1.1//EN" "http://www.w3.org/Graphics/SVG/1.1/DTD/svg11.dtd">
<svg version="1.1" id="Layer_1" xmlns="http://www.w3.org/2000/svg" xmlns:xlink="http://www.w3.org/1999/xlink" x="0px" y="0px"
	 viewBox="0 0 64 64" style="enable-background:new 0 0 64 64;" xml:space="preserve">
<path d="M26.26,15.312C26.1,15.399,26,15.567,26,15.75v1.59c0.021-0.001,0.041-0.006,0.062-0.006c0.333,0,0.649,0.069,0.938,0.192
	v-0.863L55.043,34.57L52.286,57h-7.301C44.441,57,44,57.441,44,57.984v0.031C44,58.559,44.441,59,44.984,59h14.031
	C59.559,59,60,58.559,60,58.016v-0.031C60,57.441,59.559,57,59.016,57h-5.723l2.781-22.621c0.023-0.191-0.064-0.379-0.227-0.482
	L26.769,15.329C26.616,15.231,26.421,15.224,26.26,15.312z"/>
<path d="M21,35h10c1.105,0,2.437-0.875,2-2l-5.968-11.084c-0.297,0.132-0.624,0.209-0.969,0.209c-0.385,0-0.743-0.1-1.066-0.261
	L19,33C18.531,34.094,19.895,35,21,35z"/>
<path d="M36.75,35h9.98c1.105,0,2.104-1.354,1.104-2.167L28.22,20.752c-0.117,0.246-0.269,0.472-0.458,0.663L34,33
	C34.5,34,35.645,35,36.75,35z"/>
<path d="M4.895,35h10.698c1.105,0,1.91-0.873,2.406-2l6.242-11.732c-0.156-0.184-0.292-0.384-0.387-0.608L4,33
	C3.344,33.594,3.791,35,4.895,35z"/>
<path d="M25.468,20.987c0.181,0.086,0.381,0.138,0.594,0.138c0.174,0,0.339-0.036,0.493-0.094c0.289-0.11,0.531-0.312,0.692-0.572
	c0.046-0.074,0.085-0.152,0.116-0.235c0.059-0.154,0.095-0.32,0.095-0.495c0-0.408-0.179-0.771-0.458-1.027
	c-0.248-0.227-0.576-0.369-0.938-0.369c-0.021,0-0.041,0.005-0.062,0.006c-0.74,0.033-1.333,0.641-1.333,1.389
	c0,0.136,0.026,0.264,0.062,0.388c0.015,0.05,0.027,0.102,0.047,0.15C24.908,20.585,25.158,20.84,25.468,20.987z"/>
</svg>
