<?xml version="1.0" encoding="iso-8859-1"?>
<!-- Generator: Adobe Illustrator 17.1.0, SVG Export Plug-In . SVG Version: 6.00 Build 0)  -->
<!DOCTYPE svg PUBLIC "-//W3C//DTD SVG 1.1//EN" "http://www.w3.org/Graphics/SVG/1.1/DTD/svg11.dtd">
<svg version="1.1" id="Layer_1" xmlns="http://www.w3.org/2000/svg" xmlns:xlink="http://www.w3.org/1999/xlink" x="0px" y="0px"
	 viewBox="0 0 64 64" style="enable-background:new 0 0 64 64;" xml:space="preserve">
<path d="M53.116,15H13.904L2.25,48h60L53.116,15z M17.248,18h32.997l5.799,25H8.924L17.248,18z"/>
<path d="M50.132,39.627c-0.598,0.456-1.164,0.849-2.247,0.849c-1.081,0-1.623-0.393-2.221-0.848
	c-0.641-0.488-1.381-1.042-2.782-1.042c-1.4,0-2.132,0.554-2.773,1.042c-0.598,0.455-1.117,0.848-2.198,0.848
	c-1.08,0-1.597-0.393-2.194-0.848c-0.64-0.488-1.366-1.042-2.765-1.042c-1.4,0-2.126,0.554-2.767,1.042
	c-0.598,0.455-1.113,0.848-2.194,0.848s-1.596-0.393-2.193-0.848c-0.64-0.488-1.367-1.042-2.765-1.042
	c-1.399,0-2.125,0.554-2.765,1.042c-0.597,0.455-1.113,0.848-2.193,0.848s-1.654-0.393-2.251-0.848
	C15.183,39.14,15,38.587,13,38.587v0.945c1,0,1.654,0.393,2.251,0.848c0.64,0.488,1.396,1.042,2.794,1.042s2.14-0.554,2.78-1.042
	c0.597-0.455,1.12-0.848,2.201-0.848c1.081,0,1.6,0.393,2.197,0.848c0.64,0.488,1.368,1.042,2.767,1.042s2.126-0.554,2.766-1.042
	c0.598-0.455,1.114-0.848,2.195-0.848c1.08,0,1.596,0.393,2.193,0.848c0.64,0.488,1.366,1.042,2.765,1.042
	c1.4,0,2.127-0.554,2.767-1.042c0.598-0.455,1.114-0.848,2.194-0.848c1.082,0,1.599,0.393,2.197,0.849
	c0.641,0.487,1.368,1.041,2.768,1.041s2.227-0.554,2.869-1.042C51.302,39.925,52,39.531,53,39.531v-0.945
	C51,38.587,50.774,39.14,50.132,39.627z"/>
<path d="M19.596,35.752c1.304,0,1.976-0.56,2.568-1.055c0.537-0.448,1.001-0.835,1.963-0.835s1.426,0.387,1.963,0.835
	c0.592,0.495,1.264,1.055,2.568,1.055c1.304,0,1.976-0.56,2.568-1.055c0.537-0.448,1.001-0.835,1.962-0.835
	c0.961,0,1.426,0.388,1.963,0.835c0.592,0.495,1.264,1.055,2.567,1.055c1.305,0,1.977-0.56,2.57-1.055
	c0.538-0.448,1.002-0.835,1.965-0.835c0.963,0,1.427,0.387,1.965,0.835c0.593,0.495,1.266,1.055,2.572,1.055
	c1.305,0,1.815-0.56,2.408-1.054C49.734,34.25,50,33.862,51,33.862v-0.945c-1,0-1.816,0.56-2.409,1.055
	c-0.538,0.448-0.818,0.835-1.781,0.835c-0.963,0-1.439-0.388-1.977-0.836c-0.593-0.494-1.272-1.054-2.576-1.054
	c-1.305,0-1.979,0.56-2.573,1.055c-0.538,0.448-1.004,0.835-1.966,0.835c-0.961,0-1.425-0.387-1.962-0.835
	c-0.592-0.495-1.265-1.055-2.568-1.055c-1.303,0-1.975,0.56-2.567,1.055c-0.537,0.448-1.002,0.835-1.963,0.835
	s-1.427-0.387-1.964-0.835c-0.592-0.495-1.266-1.055-2.57-1.055c-1.304,0-1.979,0.56-2.572,1.055
	c-0.537,0.448-1.009,0.835-1.97,0.835s-1.443-0.387-1.98-0.835c-0.592-0.495-1.6-1.055-2.6-1.055v0.945c1,0,1.458,0.387,1.995,0.835
	C17.588,35.192,18.292,35.752,19.596,35.752z"/>
<path d="M20.755,30.083c1.209,0,1.824-0.568,2.368-1.07c0.496-0.458,0.889-0.819,1.727-0.819c0.84,0,1.232,0.362,1.728,0.82
	c0.543,0.502,1.159,1.07,2.368,1.07c1.208,0,1.823-0.568,2.367-1.07c0.496-0.458,0.889-0.82,1.727-0.82
	c0.839,0,1.231,0.362,1.727,0.82c0.543,0.502,1.159,1.07,2.367,1.07c1.21,0,1.826-0.568,2.37-1.07c0.496-0.458,0.89-0.82,1.729-0.82
	c0.841,0,1.233,0.362,1.73,0.82c0.544,0.502,1.161,1.07,2.371,1.07c1.211,0,1.609-0.568,2.154-1.07
	c0.497-0.458,1.513-0.82,1.513-0.82v-0.945c-1,0-1.609,0.568-2.153,1.07c-0.497,0.458-0.677,0.82-1.519,0.82
	c-0.841,0-1.23-0.362-1.727-0.82c-0.544-0.502-1.159-1.07-2.369-1.07c-1.21,0-1.825,0.568-2.369,1.07
	c-0.496,0.458-0.889,0.82-1.729,0.82c-0.839,0-1.23-0.362-1.726-0.819c-0.543-0.502-1.158-1.07-2.367-1.07
	c-1.209,0-1.823,0.569-2.367,1.07c-0.496,0.458-0.886,0.819-1.725,0.819c-0.839,0-1.227-0.362-1.724-0.819
	c-0.543-0.502-1.152-1.07-2.361-1.07s-1.809,0.568-2.353,1.07c-0.496,0.458-0.859,0.819-1.698,0.819
	c-0.839,0-1.12-0.362-1.616-0.819C18.654,27.816,18,27.248,17,27.248v0.945c1,0,1.061,0.362,1.557,0.819
	C19.101,29.514,19.546,30.083,20.755,30.083z"/>
<path d="M19.569,22.383c0.477,0.484,1.15,1.085,2.281,1.085c1.131,0,1.706-0.602,2.184-1.086c0.444-0.449,0.785-0.804,1.521-0.804
	c0.736,0,1.082,0.355,1.526,0.805c0.477,0.484,1.07,1.085,2.2,1.085c1.131,0,1.724-0.602,2.201-1.086
	c0.444-0.449,0.794-0.804,1.529-0.804c0.736,0,1.087,0.355,1.531,0.805c0.477,0.484,1.072,1.085,2.202,1.085
	c1.131,0,1.725-0.602,2.203-1.086c0.444-0.449,0.795-0.804,1.531-0.804c0.738,0,1.09,0.355,1.534,0.805
	c0.479,0.484,1.074,1.085,2.206,1.085c1.132,0,1.748-0.602,2.226-1.085C46.89,21.934,47,21.579,48,21.579v-0.945
	c-1,0-1.749,0.602-2.227,1.085c-0.445,0.449-0.836,0.805-1.573,0.805c-0.738,0-1.08-0.355-1.525-0.805
	c-0.479-0.484-1.069-1.085-2.202-1.085c-1.13,0-1.722,0.602-2.2,1.085c-0.445,0.449-0.794,0.805-1.531,0.805
	s-1.087-0.355-1.53-0.805c-0.477-0.484-1.072-1.085-2.203-1.085c-1.13,0-1.725,0.602-2.202,1.085
	c-0.444,0.449-0.796,0.805-1.533,0.805s-1.091-0.355-1.534-0.805c-0.477-0.484-1.08-1.085-2.21-1.085s-1.739,0.602-2.217,1.085
	c-0.445,0.449-0.825,0.805-1.561,0.805s-1.066-0.355-1.51-0.805C19.764,21.235,19,20.634,18,20.634v0.945
	C19,21.579,19.125,21.934,19.569,22.383z"/>
</svg>
