<?xml version="1.0" encoding="iso-8859-1"?>
<!-- Generator: Adobe Illustrator 17.1.0, SVG Export Plug-In . SVG Version: 6.00 Build 0)  -->
<!DOCTYPE svg PUBLIC "-//W3C//DTD SVG 1.1//EN" "http://www.w3.org/Graphics/SVG/1.1/DTD/svg11.dtd">
<svg version="1.1" id="Layer_1" xmlns="http://www.w3.org/2000/svg" xmlns:xlink="http://www.w3.org/1999/xlink" x="0px" y="0px"
	 viewBox="0 0 64 64" style="enable-background:new 0 0 64 64;" xml:space="preserve">
<path d="M18.685,9.272c7.93,7.382,7.383,17.772,7.383,17.772l0.047-0.002c1.04-2.002,3.093-3.316,5.443-3.316h0
	c0.34,0,0.679,0.038,1.017,0.094c-0.932-6.332-4.017-10.95-9.201-13.731c-0.928-0.498-1.847-0.889-2.72-1.202
	C19.447,9.035,18.685,9.272,18.685,9.272z"/>
<path d="M36.455,26.146C35.304,11.551,27.799,8.913,22.916,8.782c4.526,2.151,9.536,6.506,10.706,15.303
	C34.775,24.493,35.747,25.221,36.455,26.146z"/>
<path d="M56.707,41.607l-11.572-7.88c0.622-0.913,0.386-2.157-0.527-2.779c-0.913-0.622-2.157-0.386-2.779,0.527l-4.503,6.612
	c-0.622,0.913-0.386,2.157,0.527,2.779c0.913,0.622,2.157,0.386,2.779-0.527l11.572,7.88c0.913,0.622,2.157,0.386,2.779-0.527
	l2.252-3.306C57.856,43.473,57.62,42.229,56.707,41.607z"/>
<path d="M40.44,31.739l-2.716-1.85c0,0.455-0.045,0.916-0.15,1.378c-0.382,1.675-1.416,3.037-2.791,3.879l2.28,1.553L40.44,31.739z"
	/>
<path d="M22.659,58.035l3.9,0.89c1.077,0.246,2.149-0.428,2.395-1.505l3.116-13.649h0c1.077,0.246,2.149-0.428,2.395-1.505
	c0.246-1.077-0.428-2.149-1.505-2.395l-7.799-1.781c-1.077-0.246-2.149,0.428-2.395,1.505c-0.246,1.077,0.428,2.149,1.505,2.395
	L21.154,55.64C20.908,56.717,21.582,57.789,22.659,58.035z"/>
<path d="M27.089,34.135l-0.732,3.205l5.849,1.335l0.629-2.757l0.125-0.547l0.126-0.552c0.264-0.082,0.518-0.185,0.764-0.307
	c1.341-0.666,2.388-1.894,2.748-3.467c0.145-0.636,0.152-1.268,0.065-1.877c-0.134-0.938-0.528-1.805-1.117-2.527
	c-0.482-0.592-1.084-1.09-1.8-1.424c-0.326-0.152-0.67-0.276-1.035-0.359c-0.002-0.001-0.005-0.001-0.007-0.001
	c-0.385-0.087-0.769-0.13-1.147-0.13c-1.718,0-3.308,0.87-4.259,2.265c-0.353,0.518-0.625,1.104-0.773,1.753
	c-0.342,1.499,0.022,2.982,0.85,4.142l-0.147,0.645L27.089,34.135z M33.187,30.265c-0.205,0.897-1.098,1.459-1.996,1.254
	s-1.459-1.098-1.254-1.996c0.205-0.897,1.098-1.459,1.996-1.254C32.83,28.474,33.392,29.368,33.187,30.265z"/>
</svg>
