<?xml version="1.0" encoding="iso-8859-1"?>
<!-- Generator: Adobe Illustrator 17.1.0, SVG Export Plug-In . SVG Version: 6.00 Build 0)  -->
<!DOCTYPE svg PUBLIC "-//W3C//DTD SVG 1.1//EN" "http://www.w3.org/Graphics/SVG/1.1/DTD/svg11.dtd">
<svg version="1.1" id="Layer_1" xmlns="http://www.w3.org/2000/svg" xmlns:xlink="http://www.w3.org/1999/xlink" x="0px" y="0px"
	 viewBox="0 0 64 64" style="enable-background:new 0 0 64 64;" xml:space="preserve">
<rect x="4" y="30" width="5" height="14"/>
<rect x="4" y="50" width="5" height="4"/>
<polygon points="9,19.685 6.5,16.768 4,19.685 4,24 9,24 "/>
<rect x="17" y="50" width="5" height="4"/>
<polygon points="22,19.685 19.5,16.768 17,19.685 17,24 22,24 "/>
<rect x="17" y="30" width="5" height="14"/>
<rect x="30" y="30" width="5" height="14"/>
<rect x="30" y="50" width="5" height="4"/>
<polygon points="35,19.685 32.5,16.768 30,19.685 30,24 35,24 "/>
<rect x="43" y="50" width="5" height="4"/>
<rect x="43" y="30" width="5" height="14"/>
<polygon points="48,19.685 45.5,16.768 43,19.685 43,24 48,24 "/>
<rect x="56" y="30" width="5" height="14"/>
<rect x="56" y="50" width="5" height="4"/>
<polygon points="61,19.685 58.5,16.768 56,19.685 56,24 61,24 "/>
<polygon points="56,25 55,25 49,25 48,25 43,25 42,25 36,25 35,25 30,25 29,25 23,25 22,25 17,25 16,25 10,25 9,25 4,25 3,25 2,25 
	2,29 3,29 4,29 9,29 10,29 16,29 17,29 22,29 23,29 29,29 30,29 35,29 36,29 42,29 43,29 48,29 49,29 55,29 56,29 61,29 62,29 
	62,25 61,25 "/>
<polygon points="56,45 55,45 49,45 48,45 43,45 42,45 36,45 35,45 30,45 29,45 23,45 22,45 17,45 16,45 10,45 9,45 4,45 3,45 2,45 
	2,49 3,49 4,49 9,49 10,49 16,49 17,49 22,49 23,49 29,49 30,49 35,49 36,49 42,49 43,49 48,49 49,49 55,49 56,49 61,49 62,49 
	62,45 61,45 "/>
</svg>
