<?xml version="1.0" encoding="iso-8859-1"?>
<!-- Generator: Adobe Illustrator 17.1.0, SVG Export Plug-In . SVG Version: 6.00 Build 0)  -->
<!DOCTYPE svg PUBLIC "-//W3C//DTD SVG 1.1//EN" "http://www.w3.org/Graphics/SVG/1.1/DTD/svg11.dtd">
<svg version="1.1" id="Layer_1" xmlns="http://www.w3.org/2000/svg" xmlns:xlink="http://www.w3.org/1999/xlink" x="0px" y="0px"
	 viewBox="0 0 64 64" style="enable-background:new 0 0 64 64;" xml:space="preserve">
<path d="M35,33c0-6.708-1.042-10.959-1.042-14.625C33.958,15.583,35,10,35,10c0-1.105-0.895-2-2-2V6c0-1.122-0.659-2-1.5-2
	S30,4.878,30,6v2c-1.105,0-2,0.895-2,2c0,0,0.792,4.458,0.792,8.167C28.792,21.875,28,26.667,28,33C28.792,33,34.292,33,35,33z
	 M31,6c0-0.563,0.269-1,0.5-1S32,5.437,32,6v2h-1V6z"/>
<path d="M21.112,37.496c0.041,0.548,0.081,1.111,0.088,1.251C21.208,38.886,21.217,39,21.22,39s0.039,0.449,0.08,0.997l1.125,15.006
	C22.466,55.551,22.744,56,23.042,56c0.298,0,0.573-0.449,0.612-0.997l1.063-15.005C24.756,39.449,25.111,39,25.506,39
	s0.752,0.449,0.794,0.997l1.125,15.006C27.466,55.551,27.744,56,28.042,56c0.298,0,0.573-0.449,0.612-0.997l1.063-15.005
	C29.756,39.449,30.111,39,30.506,39s0.752,0.449,0.794,0.997l1.125,15.006C32.466,55.551,32.744,56,33.042,56
	c0.298,0,0.573-0.449,0.612-0.997l1.063-15.005C34.756,39.449,35.111,39,35.506,39s0.752,0.449,0.794,0.997l1.125,15.006
	C37.466,55.551,37.744,56,38.042,56c0.298,0,0.573-0.449,0.612-0.997l1.063-15.005C39.756,39.449,39.797,39,39.808,39
	s0.044-0.449,0.071-0.999l0.003-0.06c0.028-0.549,0.065-1.211,0.084-1.47C39.985,36.212,39.996,36,39.99,36
	c-0.005,0,0.002-0.225,0.016-0.5c0.014-0.275-0.425-0.5-0.975-0.5H22c-0.55,0-0.988,0.225-0.973,0.5c0.015,0.275,0.015,0.5,0,0.5
	c-0.015,0,0.007,0.449,0.048,0.997L21.112,37.496z"/>
</svg>
