<?xml version="1.0" encoding="utf-8"?>
<!-- Generator: Adobe Illustrator 17.0.2, SVG Export Plug-In . SVG Version: 6.00 Build 0)  -->
<!DOCTYPE svg PUBLIC "-//W3C//DTD SVG 1.1//EN" "http://www.w3.org/Graphics/SVG/1.1/DTD/svg11.dtd">
<svg version="1.1" id="Capa_1" xmlns="http://www.w3.org/2000/svg" xmlns:xlink="http://www.w3.org/1999/xlink" x="0px" y="0px"
	 width="64px" height="64px" viewBox="0 0 64 64" enable-background="new 0 0 64 64" xml:space="preserve">
<g>
	<path d="M50.686,33.615c-0.762-9.631-10.332-19.237-10.332-19.237h-1.711c1.418,1.581,2.288,3.664,2.288,5.955
		c0,4.933-3.999,8.933-8.933,8.933c-4.933,0-8.933-4-8.933-8.933c0-2.291,0.871-4.374,2.289-5.955h-1.711
		c0,0-9.553,9.589-10.329,19.211c-2.262,0.403-3.981,2.37-3.981,4.747c0,2.43,1.799,4.421,4.133,4.763
		c-0.124,0.429-0.212,0.872-0.212,1.341c0,2.669,2.164,4.833,4.833,4.833c0.651,0,1.271-0.133,1.837-0.366
		c0.425,2.235,2.383,3.929,4.742,3.929c1.208,0,2.299-0.459,3.146-1.191c0.831,1.463,2.385,2.462,4.188,2.462
		c1.764,0,3.292-0.955,4.136-2.367c0.831,0.675,1.877,1.097,3.031,1.097c2.359,0,4.317-1.693,4.742-3.929
		c0.566,0.233,1.185,0.366,1.837,0.366c2.669,0,4.833-2.164,4.833-4.833c0-0.469-0.088-0.912-0.212-1.341
		c2.334-0.342,4.133-2.333,4.133-4.763C54.5,36.018,52.865,34.084,50.686,33.615z M36.894,39.625l-2.188,1.591
		c0,0,0.374,1.152,0.836,2.573c0.462,1.422-0.145,1.862-1.353,0.983L32,43.182c0,0-0.981,0.712-2.19,1.591
		c-1.208,0.879-1.814,0.438-1.352-0.983l0.836-2.573c0,0-0.98-0.712-2.188-1.591c-1.209-0.878-0.978-1.59,0.517-1.59h2.706
		c0,0,0.374-1.152,0.836-2.573c0.462-1.421,1.21-1.421,1.672,0l0.836,2.573c0,0,1.212,0,2.706,0
		C37.872,38.035,38.103,38.747,36.894,39.625z"/>
</g>
</svg>
