<?xml version="1.0" encoding="utf-8"?>
<!-- Generator: Adobe Illustrator 17.0.2, SVG Export Plug-In . SVG Version: 6.00 Build 0)  -->
<!DOCTYPE svg PUBLIC "-//W3C//DTD SVG 1.1//EN" "http://www.w3.org/Graphics/SVG/1.1/DTD/svg11.dtd">
<svg version="1.1" id="Capa_1" xmlns="http://www.w3.org/2000/svg" xmlns:xlink="http://www.w3.org/1999/xlink" x="0px" y="0px"
	 width="64px" height="64px" viewBox="0 0 64 64" enable-background="new 0 0 64 64" xml:space="preserve">
<path d="M55.158,24.981c-2.974-8.204-10.375-14.18-19.02-15.628C35.995,9.3,35.842,9.26,35.667,9.25
	c-0.109-0.006-0.223-0.005-0.334-0.01c-1.069-0.143-2.152-0.232-3.25-0.232c-10.327,0-19.644,6.511-23.074,15.973
	C4.631,25.031,1.084,28.609,1.084,33c0,4.391,3.547,7.969,7.926,8.019c3.431,9.462,12.747,15.973,23.074,15.973
	c4.02,0,7.881-0.997,11.307-2.761c-0.786-0.687-1.547-1.442-2.224-2.252c-2.793,1.286-5.879,2.013-9.083,2.013
	c-9.43,0-17.894-6.164-20.585-14.989l-0.377-1.237l-1.278,0.191C9.557,38,9.321,38.02,9.104,38.02c-2.768,0-5.02-2.252-5.02-5.02
	s2.252-5.02,5.02-5.02c0.217,0,0.453,0.02,0.742,0.062l1.277,0.188l0.376-1.235c1.824-5.983,6.306-10.735,11.939-13.18
	c-1.258,2.786,0.45,6.219,3.297,7.559c3.547,1.669,9.286,1.887,11.707-1.744c1.091-1.636,0.122-3.705-1.198-4.825
	c-1.847-1.567-4.531-1.79-6.725-0.919c-1.776,0.705-1.003,3.607,0.798,2.893c1.304-0.517,2.492-0.556,3.743,0.131
	c1.717,0.944,0.135,2.022-1.065,2.367c-2.237,0.643-5.538,0.118-7.287-1.452c-2.208-1.982,0.636-4.231,2.396-4.847
	c1.908-0.668,4.005-0.816,6.024-0.743c8.161,1.161,15.145,6.898,17.542,14.76l0.376,1.235l1.277-0.188
	c0.289-0.042,0.525-0.062,0.742-0.062c2.768,0,5.02,2.252,5.02,5.02s-2.252,5.02-5.02,5.02c-0.218,0-0.453-0.02-0.74-0.062
	l-1.278-0.191l-0.377,1.237c-0.134,0.44-0.293,0.868-0.455,1.294c0.455-0.106,0.927-0.168,1.414-0.168
	c1.068,0,2.072,0.269,2.952,0.74c3.699-0.711,6.504-3.965,6.504-7.869C63.084,28.609,59.537,25.031,55.158,24.981z"/>
<path d="M25.75,31.958c-2.579,0-2.579,4,0,4S28.33,31.958,25.75,31.958z"/>
<path d="M38.417,31.708c-2.579,0-2.579,4,0,4S40.997,31.708,38.417,31.708z"/>
<path d="M32.084,46c3.252,0,5.898-2.646,5.898-5.899c0-0.829-0.672-1.5-1.5-1.5s-1.5,0.671-1.5,1.5c0,0,0,0,0,0
	c0,1.599-1.3,2.899-2.898,2.899s-2.899-1.3-2.899-2.899c0,0,0,0,0,0c0-0.829-0.672-1.5-1.5-1.5s-1.5,0.671-1.5,1.5
	C26.185,43.354,28.831,46,32.084,46z"/>
<path d="M49.317,56.463l0.685-0.352c0.591-0.303,5.807-3.074,7.021-6.963l0.074-0.253c0.081-0.299,0.137-0.597,0.165-0.88
	c0.018-0.174,0.026-0.349,0.026-0.525c0-2.044-1.168-3.802-2.86-4.698c-0.743-0.393-1.576-0.637-2.474-0.637
	c-0.189,0-0.376,0.017-0.563,0.037c-0.734,0.078-1.439,0.299-2.075,0.663c-0.797-0.456-1.702-0.699-2.638-0.699
	c-2.941,0-5.334,2.393-5.334,5.334c0,0.176,0.009,0.352,0.025,0.512c0.027,0.291,0.082,0.583,0.162,0.878l0.073,0.251
	c0.231,0.739,0.605,1.436,1.063,2.085c0.597,0.845,1.337,1.606,2.093,2.263c1.73,1.504,3.537,2.462,3.871,2.633L49.317,56.463z
	 M45.195,49.576c-0.326-0.444-0.59-0.903-0.734-1.366l-1.432,0.449l1.402-0.556c-0.034-0.124-0.062-0.251-0.075-0.396
	c-0.008-0.072-0.011-0.145-0.011-0.218c0-1.287,1.047-2.334,2.334-2.334c0.598,0,1.168,0.229,1.604,0.644l0.448,0.425l0.586,0.556
	l1.033-0.98c0.437-0.416,1.007-0.644,1.604-0.644c0.378,0,0.729,0.099,1.045,0.258c0.761,0.385,1.289,1.166,1.289,2.076
	c0,0.073-0.003,0.146-0.012,0.225c-0.013,0.133-0.039,0.263-0.082,0.421l-0.03,0.102c-0.614,1.968-3.279,3.89-4.848,4.823
	c-0.566-0.337-1.274-0.806-1.978-1.357C46.546,51.082,45.766,50.353,45.195,49.576z"/>
</svg>
