<?xml version="1.0" encoding="utf-8"?>
<!-- Generator: Adobe Illustrator 17.0.2, SVG Export Plug-In . SVG Version: 6.00 Build 0)  -->
<!DOCTYPE svg PUBLIC "-//W3C//DTD SVG 1.1//EN" "http://www.w3.org/Graphics/SVG/1.1/DTD/svg11.dtd">
<svg version="1.1" id="Capa_1" xmlns="http://www.w3.org/2000/svg" xmlns:xlink="http://www.w3.org/1999/xlink" x="0px" y="0px"
	 width="64px" height="64px" viewBox="0 0 64 64" enable-background="new 0 0 64 64" xml:space="preserve">
<g>
	<path d="M27.175,32.214c0.188-5.847-20.748-9.054-20.748-9.054s-1.887,0.943-2.075,7.923c-0.189,6.978,6.602,10.186,6.602,10.186
		S26.986,38.061,27.175,32.214z"/>
	<path d="M59.319,31.292c-0.188-6.979-2.075-7.923-2.075-7.923s-20.937,3.207-20.748,9.054c0.189,5.848,16.222,9.055,16.222,9.055
		S59.508,38.271,59.319,31.292z"/>
	<path d="M22.519,38.989c1.611,3.199,2.701,8.222,0.991,15.768c1.434,0.604,2.926,0.973,4.269,0.973h9.432
		c0.968,0,1.993-0.216,3.005-0.567c-1.873-7.903-0.71-13.101,0.977-16.345c-3.178-1.604-5.807-3.736-5.894-6.44
		c-0.072-2.248,2.039-4.093,4.99-5.57c-2.838,0.138-5.831,0.237-8.737,0.252c-2.594,0.014-5.098-0.012-7.423-0.056
		c2.751,1.444,4.686,3.223,4.617,5.374C28.655,35.177,25.847,37.368,22.519,38.989z"/>
	<path d="M21.382,53.654c1.406-6.699,0.405-11.049-0.974-13.731c-3.323,1.336-6.707,2.15-8.189,2.474l6.016,8.422
		C18.991,51.878,20.108,52.852,21.382,53.654z"/>
	<path d="M46.246,50.492l4.746-8.285c-1.783-0.42-4.791-1.227-7.7-2.43c-1.454,2.742-2.54,7.285-0.934,14.418
		C43.993,53.248,45.419,51.938,46.246,50.492z"/>
</g>
</svg>
