<?xml version="1.0" encoding="utf-8"?>
<!-- Generator: Adobe Illustrator 17.0.2, SVG Export Plug-In . SVG Version: 6.00 Build 0)  -->
<!DOCTYPE svg PUBLIC "-//W3C//DTD SVG 1.1//EN" "http://www.w3.org/Graphics/SVG/1.1/DTD/svg11.dtd">
<svg version="1.1" id="Capa_1" xmlns="http://www.w3.org/2000/svg" xmlns:xlink="http://www.w3.org/1999/xlink" x="0px" y="0px"
	 width="64px" height="64px" viewBox="0 0 64 64" enable-background="new 0 0 64 64" xml:space="preserve">
<g>
	<path d="M47.137,18.081l-0.144-0.007c-0.243,0-0.49,0.056-0.734,0.166l-0.215,0.136c-0.429,0.397-0.841,0.802-1.237,1.213
		c-0.148,0.154-0.296,0.312-0.442,0.472c-0.037-0.283-0.07-0.566-0.099-0.849c-0.064-0.645-0.128-1.291-0.189-1.952
		c-0.015-0.125-0.022-0.263-0.022-0.411c0-0.188-0.013-0.376-0.036-0.564c-0.026-0.216-0.082-0.421-0.165-0.611
		c-0.096-0.22-0.243-0.41-0.446-0.571c-0.369-0.282-0.797-0.354-1.188-0.202c-0.303,0.112-0.592,0.295-0.858,0.544
		c-0.239,0.225-0.457,0.468-0.648,0.725c-0.162,0.219-0.286,0.377-0.377,0.48c-0.284,0.335-0.552,0.659-0.808,0.971
		c-0.255,0.312-0.516,0.641-0.791,0.999c-0.047,0.067-0.099,0.13-0.146,0.186c-0.119,0.134-0.201,0.293-0.236,0.45
		c-0.082,0.285-0.086,0.569-0.013,0.84c0.071,0.272,0.2,0.501,0.381,0.682c0.194,0.191,0.436,0.31,0.721,0.354l0.169,0.013
		c0.244,0,0.49-0.076,0.729-0.225c0.289-0.177,0.533-0.415,0.726-0.708c0.148-0.225,0.296-0.435,0.434-0.617
		c0.014-0.018,0.028-0.035,0.042-0.053l0.099,0.868c0.077,0.675,0.192,1.369,0.34,2.049l0.099,0.519
		c0.044,0.225,0.107,0.435,0.187,0.624c0.096,0.229,0.233,0.431,0.41,0.595c0.206,0.192,0.468,0.307,0.773,0.338l0.152,0.009
		c0.215,0,0.415-0.053,0.593-0.154c0.168-0.095,0.325-0.215,0.468-0.357c0.133-0.133,0.252-0.276,0.357-0.431
		c0.083-0.122,0.163-0.234,0.23-0.323c0.311-0.383,0.621-0.756,0.931-1.121c0.303-0.358,0.628-0.706,0.961-1.026
		c0.133-0.124,0.288-0.255,0.461-0.391c0.242-0.188,0.429-0.405,0.558-0.653c0.174-0.342,0.233-0.666,0.176-0.964
		c-0.056-0.298-0.201-0.552-0.423-0.736C47.7,18.209,47.438,18.107,47.137,18.081z"/>
	<path d="M48.8,18.772c0.173,0.112,0.359,0.17,0.554,0.17l0.051-0.002c0.157-0.009,0.303-0.036,0.435-0.081
		c0.135-0.044,0.266-0.099,0.392-0.169c0.085-0.047,0.168-0.09,0.232-0.121c0.315-0.139,0.625-0.272,0.935-0.401
		c0.295-0.125,0.602-0.234,0.904-0.328c0.121-0.034,0.255-0.065,0.401-0.094c0.234-0.045,0.441-0.13,0.618-0.257
		c0.242-0.178,0.4-0.387,0.47-0.624c0.07-0.24,0.058-0.48-0.035-0.693c-0.088-0.203-0.237-0.373-0.444-0.503
		c-0.191-0.122-0.418-0.19-0.671-0.204l-0.227,0.021c-0.397,0.112-0.786,0.233-1.164,0.365c-0.043,0.015-0.086,0.03-0.129,0.045
		c0.031-0.085,0.063-0.169,0.096-0.253l0.507-1.286c0.027-0.075,0.064-0.155,0.11-0.245c0.06-0.121,0.114-0.246,0.164-0.38
		c0.056-0.153,0.089-0.312,0.099-0.471c0.014-0.193-0.023-0.386-0.11-0.573c-0.16-0.342-0.443-0.552-0.802-0.593
		c-0.242-0.025-0.5-0.001-0.759,0.072c-0.23,0.065-0.45,0.151-0.661,0.256c-0.169,0.084-0.292,0.141-0.38,0.176
		c-0.285,0.12-0.557,0.236-0.812,0.35c-0.262,0.114-0.529,0.236-0.825,0.378c-0.042,0.023-0.085,0.043-0.127,0.059
		c-0.143,0.055-0.267,0.144-0.349,0.243c-0.163,0.172-0.269,0.372-0.313,0.59c-0.049,0.219-0.04,0.431,0.024,0.626
		c0.07,0.213,0.206,0.396,0.392,0.526c0.173,0.123,0.381,0.185,0.617,0.185l0.108-0.004c0.255-0.019,0.505-0.097,0.739-0.229
		c0.055-0.031,0.109-0.06,0.162-0.09l-0.08,0.213c-0.172,0.46-0.322,0.935-0.443,1.396l-0.101,0.353
		c-0.047,0.159-0.077,0.321-0.09,0.484c-0.014,0.198,0.013,0.389,0.076,0.557C48.44,18.453,48.587,18.633,48.8,18.772z
		 M49.353,18.435v0.008V18.435L49.353,18.435z"/>
	<path d="M57.165,14.772c-0.043-0.145-0.131-0.274-0.26-0.38c-0.111-0.088-0.243-0.148-0.47-0.186l-0.074-0.002l-0.038,0.006
		l0.094-0.168c0.042-0.061,0.08-0.125,0.109-0.183c0.045-0.087,0.078-0.181,0.095-0.271c0.026-0.133,0.018-0.267-0.024-0.398
		c-0.082-0.25-0.271-0.426-0.509-0.481c-0.139-0.034-0.291-0.038-0.438-0.017c-0.119,0.018-0.235,0.047-0.354,0.088
		c-0.067,0.024-0.119,0.04-0.146,0.048l-0.375,0.106c-0.119,0.036-0.243,0.075-0.411,0.132l-0.192,0.069l-0.092,0.078
		c-0.115,0.099-0.198,0.218-0.25,0.366c-0.045,0.139-0.055,0.275-0.028,0.407c0.03,0.152,0.107,0.29,0.229,0.401
		c0.103,0.093,0.23,0.153,0.395,0.178c-0.033,0.075-0.067,0.156-0.103,0.242l-0.041,0.095c-0.035,0.086-0.06,0.167-0.073,0.236
		c-0.027,0.126-0.026,0.253,0,0.363c0.023,0.109,0.086,0.27,0.248,0.409c0.12,0.104,0.264,0.163,0.408,0.173l0.083,0.004
		l0.192-0.019c0.072-0.014,0.145-0.035,0.215-0.062l0.095-0.035c0.137-0.042,0.272-0.08,0.411-0.118
		c0.123-0.035,0.251-0.064,0.358-0.084l0.17-0.017c0.14-0.012,0.268-0.048,0.391-0.114c0.168-0.096,0.286-0.221,0.354-0.376
		C57.201,15.108,57.213,14.94,57.165,14.772z"/>
	<path d="M25.057,54.811c8.484,0,15.596-5.8,17.639-13.644c0.203,0.026,0.4,0.061,0.609,0.061c2.578,0,4.666-2.089,4.666-4.666
		s-2.088-4.666-4.666-4.666c-0.209,0-0.406,0.035-0.609,0.062c-2.043-7.845-9.154-13.645-17.639-13.645
		c-0.967,0-1.913,0.085-2.838,0.229c-0.453,0.358-0.892,0.739-1.304,1.151c-1.31,1.31-2.031,3.05-2.031,4.902
		c0,1.852,0.721,3.592,2.03,4.901c1.01,1.01,2.353,1.565,3.78,1.565c0.001,0,0.001,0,0.001,0c1.428,0,2.77-0.556,3.779-1.565
		c1.59-1.59,1.59-4.176,0-5.766c-1.195-1.194-3.138-1.193-4.329,0c-0.425,0.425-0.659,0.989-0.659,1.59
		c0,0.602,0.234,1.166,0.659,1.591c0.602,0.604,1.655,0.606,2.262,0c0.391-0.391,1.023-0.391,1.414,0
		c0.391,0.391,0.391,1.023,0,1.414c-1.359,1.36-3.731,1.358-5.09,0c-0.803-0.802-1.245-1.869-1.245-3.005
		c0-1.135,0.442-2.202,1.245-3.004c1.973-1.975,5.185-1.975,7.157,0c2.369,2.369,2.369,6.225,0,8.594
		c-1.432,1.433-3.312,2.148-5.193,2.148c-1.881,0-3.763-0.716-5.195-2.148c-1.688-1.688-2.616-3.93-2.616-6.316
		c0-1.819,0.544-3.554,1.549-5.023c-5.393,2.11-9.537,6.705-11.017,12.386c-0.201-0.026-0.4-0.062-0.609-0.062
		c-2.576,0-4.666,2.089-4.666,4.666s2.09,4.666,4.666,4.666c0.209,0,0.408-0.035,0.609-0.061
		C9.459,49.012,16.572,54.811,25.057,54.811z M31.526,38.062c2.067,0,3.75,1.374,3.75,3.062c0,0.276-0.224,0.5-0.5,0.5
		c-0.276,0-0.5-0.224-0.5-0.5c0-1.138-1.233-2.062-2.75-2.062c-1.517,0-2.75,0.925-2.75,2.062c0,0.276-0.224,0.5-0.5,0.5
		c-0.276,0-0.5-0.224-0.5-0.5C27.776,39.436,29.459,38.062,31.526,38.062z M29.062,49.25c0.863,0,1.562,0.504,1.562,1.125
		S29.926,51.5,29.062,51.5c-0.863,0-1.562-0.504-1.562-1.125S28.199,49.25,29.062,49.25z M19.125,38.062
		c2.067,0,3.75,1.374,3.75,3.062c0,0.276-0.224,0.5-0.5,0.5c-0.276,0-0.5-0.224-0.5-0.5c0-1.138-1.233-2.062-2.75-2.062
		s-2.75,0.925-2.75,2.062c0,0.276-0.224,0.5-0.5,0.5c-0.276,0-0.5-0.224-0.5-0.5C15.375,39.436,17.058,38.062,19.125,38.062z"/>
</g>
</svg>
