<?xml version="1.0" encoding="utf-8"?>
<!-- Generator: Adobe Illustrator 17.0.2, SVG Export Plug-In . SVG Version: 6.00 Build 0)  -->
<!DOCTYPE svg PUBLIC "-//W3C//DTD SVG 1.1//EN" "http://www.w3.org/Graphics/SVG/1.1/DTD/svg11.dtd">
<svg version="1.1" id="Capa_1" xmlns="http://www.w3.org/2000/svg" xmlns:xlink="http://www.w3.org/1999/xlink" x="0px" y="0px"
	 width="64px" height="64px" viewBox="0 0 64 64" enable-background="new 0 0 64 64" xml:space="preserve">
<g>
	<path d="M17.973,19.711c-0.917,0.75-2.917-0.621-4.25-1.268c-1.333-0.648-2.917,0.352-1.417,3.018s3.167,3.667,1.667,3.667
		s-0.917,2.833,2.833,2.333c0.863-0.115,1.551-0.135,2.11-0.1c-0.021-0.476-0.067-0.815-0.091-0.956
		c-0.399-1.093-0.601-2.223-0.601-3.361c0-1.405,0.301-2.739,0.834-3.949C18.63,19.286,18.235,19.496,17.973,19.711z"/>
	<path d="M30.971,54.94c9.802,0,16.599-4.744,17.75-10.333c2.332-11.333,0-15.5-2.166-15.329s-4.5,4.662-7,4.829
		c-2.5,0.167-1.834-2.5-5.5-2.5c-0.943,0-1.602-0.345-2.065-0.852c2.991-1.415,5.065-4.452,5.065-7.981
		c0-4.878-3.955-8.833-8.833-8.833s-8.833,3.955-8.833,8.833c0,1.091,0.207,2.131,0.569,3.096c0,0,1.242,6.093-4.07,11.07
		c-3.011,2.821-2.666,7.667-2.666,7.667C13.221,50.312,21.169,54.94,30.971,54.94z M24.167,18.252c0.782,0,1.415,0.634,1.415,1.415
		c0,0.781-0.634,1.415-1.415,1.415c-0.782,0-1.416-0.634-1.416-1.415C22.751,18.886,23.385,18.252,24.167,18.252z"/>
</g>
</svg>
