<?xml version="1.0" encoding="utf-8"?>
<!-- Generator: Adobe Illustrator 17.0.2, SVG Export Plug-In . SVG Version: 6.00 Build 0)  -->
<!DOCTYPE svg PUBLIC "-//W3C//DTD SVG 1.1//EN" "http://www.w3.org/Graphics/SVG/1.1/DTD/svg11.dtd">
<svg version="1.1" id="Capa_1" xmlns="http://www.w3.org/2000/svg" xmlns:xlink="http://www.w3.org/1999/xlink" x="0px" y="0px"
	 width="64px" height="64px" viewBox="0 0 64 64" enable-background="new 0 0 64 64" xml:space="preserve">
<g>
	<path d="M32.308,20.404h-6.466c-0.717,0-1.41,0.087-2.081,0.238l-1.413-7.654c0-1.299-1.053-2.352-2.351-2.352
		c-1.299,0-2.352,1.053-2.352,2.352v12.217c-0.767,1.362-1.209,2.93-1.209,4.604v18.187c0,5.194,4.211,9.405,9.405,9.405h6.466
		c5.193,0,9.404-4.211,9.404-9.405V29.81C41.712,24.615,37.501,20.404,32.308,20.404z M22.705,36.011
		c-0.758,0-1.371-0.614-1.371-1.372s0.613-1.372,1.371-1.372s1.373,0.614,1.373,1.372S23.463,36.011,22.705,36.011z M25.155,50.313
		c-0.595,0-1.077-1.667-1.077-3.723c0-2.056,0.482-3.723,1.077-3.723c0.594,0,1.076,1.667,1.076,3.723
		C26.231,48.646,25.749,50.313,25.155,50.313z M24.861,31.7c-0.758,0-1.373-0.614-1.373-1.372c0-0.758,0.615-1.372,1.373-1.372
		c0.757,0,1.37,0.614,1.37,1.372C26.231,31.086,25.618,31.7,24.861,31.7z M29.074,50.313c-0.595,0-1.077-1.667-1.077-3.723
		c0-2.056,0.482-3.723,1.077-3.723c0.595,0,1.077,1.667,1.077,3.723C30.151,48.646,29.669,50.313,29.074,50.313z M29.171,34.639
		c-0.758,0-1.371-0.614-1.371-1.372c0-0.757,0.613-1.371,1.371-1.371s1.373,0.614,1.373,1.371
		C30.544,34.024,29.929,34.639,29.171,34.639z M29.171,30.328c-0.758,0-1.371-0.614-1.371-1.372c0-0.758,0.613-1.372,1.371-1.372
		s1.373,0.614,1.373,1.372C30.544,29.714,29.929,30.328,29.171,30.328z M33.288,28.956c0.757,0,1.37,0.614,1.37,1.372
		c0,0.758-0.613,1.372-1.37,1.372c-0.758,0-1.373-0.614-1.373-1.372C31.915,29.57,32.53,28.956,33.288,28.956z M32.994,50.313
		c-0.595,0-1.077-1.667-1.077-3.723c0-2.056,0.482-3.723,1.077-3.723c0.595,0,1.076,1.667,1.076,3.723
		C34.07,48.646,33.589,50.313,32.994,50.313z M35.441,36.011c-0.758,0-1.371-0.614-1.371-1.372s0.613-1.372,1.371-1.372
		c0.758,0,1.373,0.614,1.373,1.372S36.199,36.011,35.441,36.011z"/>
	<path d="M39.099,18.769v-5.682c0-0.65-0.525-1.176-1.175-1.176c-0.65,0-1.176,0.525-1.176,1.176v5.682
		c0,0.649,0.525,1.176,1.176,1.176C38.573,19.944,39.099,19.418,39.099,18.769z"/>
	<path d="M48.127,10.772c-0.52-0.389-1.256-0.279-1.644,0.24L39.92,19.83c-0.388,0.521-0.28,1.257,0.241,1.645
		c0.21,0.157,0.457,0.232,0.7,0.232c0.359,0,0.713-0.164,0.943-0.474l6.563-8.817C48.757,11.896,48.648,11.159,48.127,10.772z"/>
	<path d="M44.146,24.438c0.223,0,0.448-0.064,0.648-0.195l4.737-3.137c0.542-0.358,0.689-1.088,0.332-1.629
		c-0.359-0.542-1.088-0.691-1.629-0.332l-4.737,3.137c-0.542,0.358-0.69,1.089-0.332,1.629
		C43.391,24.253,43.765,24.438,44.146,24.438z"/>
	<path d="M55.336,26.118L44.36,25.513c-0.648-0.065-1.202,0.46-1.237,1.109c-0.037,0.647,0.46,1.202,1.109,1.237l10.975,0.605
		c0.023,0.002,0.044,0.002,0.065,0.002c0.62,0,1.138-0.484,1.173-1.111C56.481,26.708,55.984,26.153,55.336,26.118z"/>
</g>
</svg>
