<?xml version="1.0" encoding="utf-8"?>
<!-- Generator: Adobe Illustrator 17.0.2, SVG Export Plug-In . SVG Version: 6.00 Build 0)  -->
<!DOCTYPE svg PUBLIC "-//W3C//DTD SVG 1.1//EN" "http://www.w3.org/Graphics/SVG/1.1/DTD/svg11.dtd">
<svg version="1.1" id="Capa_1" xmlns="http://www.w3.org/2000/svg" xmlns:xlink="http://www.w3.org/1999/xlink" x="0px" y="0px"
	 width="64px" height="64px" viewBox="0 0 64 64" enable-background="new 0 0 64 64" xml:space="preserve">
<g>
	<path d="M41.316,22.905c-3.171-3.608-7.815-5.888-12.996-5.888c-3.569,0-6.885,1.081-9.64,2.934
		c1.916,1.594,7.064,6.542,8.542,14.7C30.334,32.85,36.452,28.853,41.316,22.905z"/>
	<path d="M16.08,22.093c-3.126,3.13-5.059,7.451-5.059,12.224c0,9.554,7.745,17.299,17.299,17.299c2.246,0,4.39-0.433,6.358-1.211
		c-2.933-1.154-9.281-4.6-10.402-13.085c0-0.004-0.001-0.008-0.002-0.012c-0.021-0.162-0.047-0.318-0.064-0.483
		C23.227,27.473,16.473,22.381,16.08,22.093z"/>
	<path d="M38.034,48.632c3.921-2.667,6.683-6.903,7.397-11.804l-0.987,0.482c-0.27,1.409-1.24,3.881-4.657,5.625
		c-1.224,0.625-2.527,0.941-3.874,0.941c-0.942,0-1.9-0.155-2.849-0.461c-0.529-0.17-0.949-0.444-1.251-0.813l-0.132-0.198
		c-0.048-0.068-0.155-0.241-0.224-0.459l-0.037-0.156c-0.032-0.132-0.055-0.263-0.057-0.412c-0.02-0.296,0.003-0.578,0.069-0.86
		c0.389-1.654,1.379-3.953,3.883-5.509c1.597-0.994,3.219-1.497,4.819-1.497c1.014,0,1.835,0.208,2.4,0.414l2.932-1.9
		c-0.304-2.288-1.056-4.435-2.164-6.352c-5.797,6.813-12.839,11.003-15.547,12.464c1.696,7.686,8.833,9.476,9.155,9.553
		C37.433,47.815,37.832,48.176,38.034,48.632z"/>
	<path d="M28.32,56.97c12.491,0,22.653-10.162,22.653-22.653c0-0.052-0.003-0.104-0.004-0.156l-3.366,1.644
		c-0.765,9.979-9.111,17.871-19.283,17.871c-10.674,0-19.358-8.684-19.358-19.358c0-10.674,8.685-19.358,19.358-19.358
		c9.487,0,17.387,6.866,19.029,15.887l2.969-1.925c-2.427-9.893-11.367-17.257-21.998-17.257c-12.491,0-22.653,10.162-22.653,22.653
		C5.667,46.808,15.829,56.97,28.32,56.97z"/>
	<path d="M35.829,35.808c-2.161,1.343-3.066,3.31-3.438,4.889c-0.052,0.223-0.057,0.417-0.043,0.596
		c-0.002,0.086,0.017,0.168,0.038,0.251c0.004,0.016,0.004,0.035,0.009,0.051c0.027,0.085,0.073,0.165,0.126,0.243
		c0.018,0.027,0.031,0.058,0.051,0.083c0.167,0.204,0.422,0.378,0.784,0.495c1.544,0.497,3.695,0.737,5.961-0.42
		c3.56-1.817,4.114-4.48,4.197-5.401l15.954-7.788l0.951-0.445c0.35-0.163,0.643-0.384,0.881-0.636
		c0.054-0.056,0.096-0.116,0.144-0.175c0.043-0.055,0.091-0.107,0.129-0.164c0.439-0.641,0.523-1.419,0.159-2.088
		c-0.002-0.003-0.002-0.006-0.004-0.009c0,0-0.001-0.001-0.001-0.001c-0.009-0.017-0.012-0.033-0.021-0.049
		c-0.045-0.076-0.103-0.138-0.156-0.205c-0.034-0.043-0.063-0.091-0.1-0.131c-0.041-0.043-0.088-0.077-0.132-0.115
		c-0.069-0.061-0.137-0.123-0.213-0.173c-0.028-0.018-0.059-0.03-0.087-0.046c-0.099-0.057-0.198-0.11-0.306-0.149
		c-0.029-0.011-0.061-0.016-0.09-0.025c-0.108-0.034-0.217-0.065-0.332-0.081c-0.062-0.01-0.128-0.009-0.192-0.013
		c-0.081-0.005-0.161-0.014-0.244-0.01c-0.139,0.004-0.28,0.025-0.422,0.054c-0.006,0.001-0.013,0.001-0.019,0.002
		c-0.343,0.073-0.688,0.21-1.013,0.428l-0.84,0.563l-14.939,9.664C41.789,34.597,39.222,33.697,35.829,35.808z M40.844,39.069
		c-2.008,3.022-4.827,2.451-4.855,2.444c-0.023-0.004-0.044-0.012-0.062-0.024c-0.066-0.041-0.103-0.122-0.085-0.202
		c0.021-0.104,0.124-0.17,0.227-0.147c0.105,0.021,2.596,0.513,4.456-2.282c0.058-0.089,0.163-0.111,0.266-0.054
		C40.879,38.863,40.903,38.981,40.844,39.069z"/>
</g>
</svg>
