<?xml version="1.0" encoding="utf-8"?>
<!-- Generator: Adobe Illustrator 17.0.2, SVG Export Plug-In . SVG Version: 6.00 Build 0)  -->
<!DOCTYPE svg PUBLIC "-//W3C//DTD SVG 1.1//EN" "http://www.w3.org/Graphics/SVG/1.1/DTD/svg11.dtd">
<svg version="1.1" id="Capa_1" xmlns="http://www.w3.org/2000/svg" xmlns:xlink="http://www.w3.org/1999/xlink" x="0px" y="0px"
	 width="64px" height="64px" viewBox="0 0 64 64" enable-background="new 0 0 64 64" xml:space="preserve">
<g>
	<path d="M45.403,7.68c-0.087-1.326-1.352-2.054-2.517-1.409c-2.781,1.538-7.066,5.939-8.895,13.862
		c-0.912-0.247-1.874-0.387-2.872-0.387c-0.982,0-1.931,0.135-2.831,0.376c-1.829-7.917-6.11-12.313-8.893-13.852
		c-1.165-0.645-2.43,0.083-2.517,1.409c-0.536,8.164,5.298,14.125,6.548,15.304c-1.595,1.678-2.568,3.871-2.568,6.284
		c0,4.431,3.264,8.155,7.681,9.216v2.666c-4.188,1.146-7.279,4.977-7.279,9.523c0,5.449,4.432,9.883,9.882,9.883
		c5.449,0,9.882-4.434,9.882-9.883c0-4.547-3.093-8.377-7.281-9.523v-2.678c4.396-1.075,7.638-4.788,7.638-9.204
		c0-2.401-0.966-4.588-2.545-6.264C40.027,21.885,45.942,15.9,45.403,7.68z M31.466,31.598c0.886,0,1.605,0.472,1.605,1.054
		c0,0.581-0.719,1.054-1.605,1.054c-0.889,0-1.607-0.473-1.607-1.054C29.858,32.069,30.577,31.598,31.466,31.598z M21.443,14.688
		c0.04-0.607,0.619-0.94,1.151-0.646c1.302,0.719,3.325,2.804,4.128,6.584l-2.17,1.17C24.553,21.797,21.169,18.871,21.443,14.688z
		 M27.651,29.987c-0.751,0-1.357-0.578-1.357-1.294c0-0.714,0.606-1.291,1.357-1.291c0.749,0,1.354,0.577,1.354,1.291
		C29.006,29.409,28.4,29.987,27.651,29.987z M38.671,50.673c0,4.152-3.377,7.529-7.528,7.529c-4.152,0-7.529-3.377-7.529-7.529
		c0-4.15,3.377-7.529,7.529-7.529C35.294,43.144,38.671,46.522,38.671,50.673z M34.876,29.987c-0.749,0-1.357-0.578-1.357-1.294
		c0-0.714,0.608-1.291,1.357-1.291c0.749,0,1.354,0.577,1.354,1.291C36.23,29.409,35.625,29.987,34.876,29.987z M37.9,21.797
		l-2.17-1.17c0.802-3.78,2.825-5.865,4.127-6.584c0.534-0.295,1.111,0.038,1.151,0.646C41.285,18.871,37.9,21.797,37.9,21.797z"/>
</g>
</svg>
