<?xml version="1.0" encoding="utf-8"?>
<!-- Generator: Adobe Illustrator 17.0.2, SVG Export Plug-In . SVG Version: 6.00 Build 0)  -->
<!DOCTYPE svg PUBLIC "-//W3C//DTD SVG 1.1//EN" "http://www.w3.org/Graphics/SVG/1.1/DTD/svg11.dtd">
<svg version="1.1" id="Capa_1" xmlns="http://www.w3.org/2000/svg" xmlns:xlink="http://www.w3.org/1999/xlink" x="0px" y="0px"
	 width="64px" height="64px" viewBox="0 0 64 64" enable-background="new 0 0 64 64" xml:space="preserve">
<g>
	<path d="M15.392,46.171c0,0,0,2.209,0,4.935c0,2.726,2.687,4.935,6,4.935h19.867c3.313,0,6-2.21,6-4.937v-4.938
		c5.205-0.088,9.416-5.017,9.416-11.065c0-6.048-4.211-10.977-9.416-11.065v-1.555H15.392v1.551c-5.27,0-9.557,4.965-9.557,11.069
		C5.835,41.206,10.122,46.171,15.392,46.171z M47.259,28.695c2.638,0.099,4.763,2.931,4.763,6.406c0,3.476-2.125,6.308-4.763,6.407
		V28.695z M15.392,28.686v12.832c-2.704,0-4.903-2.878-4.903-6.416C10.488,31.564,12.688,28.686,15.392,28.686z"/>
	<path d="M47.188,15.432c0-1.168-0.947-2.115-2.115-2.115h-4.125c-1.635,0-3.252-1.2-3.612-2.679c0,0-0.146-0.6-0.326-1.34
		c-0.18-0.74-1.272-1.339-2.441-1.339h-6.627c-1.169,0-2.261,0.6-2.44,1.339c-0.096,0.395-0.207,0.852-0.326,1.34
		c-0.36,1.479-1.978,2.679-3.613,2.679h-4.125c-1.168,0-2.115,0.947-2.115,2.115v5.358h31.867V15.432z"/>
</g>
</svg>
