<?xml version="1.0" encoding="utf-8"?>
<!-- Generator: Adobe Illustrator 17.0.2, SVG Export Plug-In . SVG Version: 6.00 Build 0)  -->
<!DOCTYPE svg PUBLIC "-//W3C//DTD SVG 1.1//EN" "http://www.w3.org/Graphics/SVG/1.1/DTD/svg11.dtd">
<svg version="1.1" id="Capa_1" xmlns="http://www.w3.org/2000/svg" xmlns:xlink="http://www.w3.org/1999/xlink" x="0px" y="0px"
	 width="64px" height="64px" viewBox="0 0 64 64" enable-background="new 0 0 64 64" xml:space="preserve">
<g>
	<path d="M17.298,34.847c-0.069,0.149-0.132,0.299-0.192,0.448c-0.06,0.148-0.115,0.299-0.166,0.453
		c0.161-0.003,0.301-0.005,0.423-0.005c0.122,0,0.252-0.001,0.392-0.006c-0.065-0.154-0.133-0.307-0.208-0.459
		C17.473,35.127,17.39,34.982,17.298,34.847z"/>
	<path d="M31.163,35.508c0.069-0.056,0.124-0.119,0.167-0.193c0.042-0.072,0.068-0.148,0.077-0.225
		c0.008-0.077-0.002-0.153-0.031-0.226c-0.029-0.074-0.083-0.139-0.162-0.193c-0.137-0.081-0.286-0.128-0.448-0.137
		c-0.163-0.011-0.319,0.012-0.469,0.066v1.158c0.154-0.011,0.305-0.03,0.454-0.06C30.899,35.671,31.037,35.606,31.163,35.508z"/>
	<path d="M20.345,35.295c0.06-0.012,0.118-0.032,0.174-0.059c0.057-0.027,0.107-0.068,0.152-0.118
		c0.065-0.072,0.087-0.148,0.068-0.229c-0.019-0.08-0.067-0.144-0.146-0.191c-0.089-0.058-0.19-0.088-0.303-0.09
		c-0.113-0.001-0.217,0.011-0.312,0.038v0.668c0.061,0,0.123,0,0.185,0S20.285,35.307,20.345,35.295z"/>
	<path d="M20.465,36.744c0.079-0.021,0.152-0.053,0.221-0.095c0.068-0.041,0.123-0.097,0.164-0.169
		c0.011-0.082,0.009-0.152-0.005-0.212c-0.014-0.061-0.056-0.116-0.127-0.167c-0.062-0.041-0.122-0.071-0.18-0.093
		c-0.058-0.02-0.117-0.033-0.177-0.04c-0.06-0.007-0.121-0.01-0.182-0.005c-0.061,0.003-0.128,0.006-0.2,0.009v0.821
		c0.075,0,0.155-0.003,0.241-0.009C20.305,36.78,20.387,36.768,20.465,36.744z"/>
	<path d="M14.497,35.295c0.06-0.012,0.118-0.032,0.174-0.059c0.057-0.027,0.107-0.068,0.152-0.118
		c0.065-0.072,0.087-0.148,0.069-0.229c-0.019-0.08-0.067-0.144-0.146-0.191c-0.089-0.058-0.189-0.088-0.303-0.09
		c-0.112-0.001-0.217,0.011-0.312,0.038v0.668c0.062,0,0.123,0,0.185,0C14.376,35.313,14.436,35.307,14.497,35.295z"/>
	<path d="M36.489,34.847c-0.069,0.149-0.132,0.299-0.193,0.448c-0.06,0.148-0.115,0.299-0.166,0.453
		c0.161-0.003,0.301-0.005,0.423-0.005c0.122,0,0.253-0.001,0.392-0.006c-0.065-0.154-0.134-0.307-0.208-0.459
		C36.664,35.127,36.581,34.982,36.489,34.847z"/>
	<path d="M14.617,36.744c0.079-0.021,0.152-0.053,0.221-0.095c0.068-0.041,0.123-0.097,0.164-0.169
		c0.011-0.082,0.009-0.152-0.005-0.212c-0.013-0.061-0.056-0.116-0.127-0.167c-0.062-0.041-0.122-0.071-0.18-0.093
		c-0.058-0.02-0.117-0.033-0.177-0.04c-0.06-0.007-0.121-0.01-0.182-0.005c-0.062,0.003-0.128,0.006-0.2,0.009v0.821
		c0.076,0,0.155-0.003,0.241-0.009C14.456,36.78,14.538,36.768,14.617,36.744z"/>
	<path d="M53.333,31.309h-3v-0.27c0-1.105-0.89-2.102-1.987-2.229L8.323,24.238c-1.099-0.111-1.99,0.695-1.99,1.801v19.314
		c0,1.106,0.891,1.912,1.99,1.801l40.023-4.572c1.097-0.127,1.987-1.123,1.987-2.229v-0.269h3c1.657,0,3-1.344,3-3v-2.775
		C56.333,32.652,54.989,31.309,53.333,31.309z M12.364,29.447c0.108-0.252,0.401-0.373,0.656-0.264
		c0.089,0.039,8.944,3.747,16.683,1.81c8.106-2.025,13.278,0.999,13.495,1.129c0.237,0.143,0.313,0.449,0.171,0.687
		c-0.094,0.155-0.259,0.242-0.429,0.242c-0.087,0-0.176-0.023-0.257-0.071c-0.049-0.03-5.027-2.944-12.738-1.016
		c-8.067,2.019-16.944-1.702-17.317-1.861C12.373,29.995,12.255,29.702,12.364,29.447z M42.003,37.111v0.036
		c-0.01,0.076-0.037,0.139-0.082,0.192c-0.044,0.053-0.096,0.089-0.154,0.11c-0.059,0.021-0.118,0.021-0.179,0.003
		c-0.062-0.021-0.113-0.065-0.154-0.137c-0.034-0.059-0.054-0.119-0.059-0.183c-0.005-0.063-0.011-0.128-0.018-0.196
		c-0.007-0.075-0.015-0.142-0.023-0.197c-0.008-0.056-0.018-0.122-0.028-0.198c-0.031-0.205-0.065-0.407-0.103-0.607
		c-0.037-0.2-0.08-0.4-0.127-0.602c-0.069,0.17-0.134,0.34-0.195,0.507c-0.062,0.168-0.123,0.337-0.185,0.508
		c-0.047,0.127-0.094,0.253-0.14,0.382c-0.047,0.128-0.101,0.252-0.162,0.371c-0.02,0.041-0.055,0.074-0.103,0.1
		c-0.047,0.026-0.099,0.041-0.154,0.044c-0.054,0.005-0.106-0.004-0.153-0.022c-0.048-0.018-0.083-0.05-0.108-0.095
		c-0.147-0.284-0.292-0.566-0.436-0.846c-0.144-0.279-0.287-0.562-0.431-0.846c-0.017,0.174-0.032,0.349-0.046,0.525
		c-0.014,0.177-0.029,0.351-0.047,0.525c-0.003,0.055-0.007,0.121-0.01,0.199c-0.004,0.079-0.01,0.158-0.018,0.238
		c-0.008,0.08-0.019,0.157-0.031,0.232s-0.031,0.13-0.059,0.172c-0.041,0.068-0.094,0.112-0.161,0.133
		c-0.067,0.02-0.132,0.021-0.195,0.005c-0.063-0.017-0.117-0.052-0.16-0.104c-0.043-0.053-0.062-0.12-0.059-0.202
		c0.007-0.141,0.018-0.279,0.036-0.415c0.017-0.138,0.032-0.276,0.046-0.415c0.027-0.306,0.055-0.607,0.085-0.908
		c0.028-0.3,0.057-0.605,0.084-0.912c0.007-0.089,0.024-0.172,0.053-0.246c0.029-0.075,0.092-0.128,0.188-0.16
		c0.037-0.014,0.077-0.018,0.118-0.015c0.041,0.005,0.079,0.015,0.113,0.036c0.075,0.048,0.134,0.113,0.177,0.198
		c0.043,0.083,0.083,0.163,0.121,0.238c0.065,0.122,0.128,0.246,0.189,0.371c0.062,0.124,0.123,0.248,0.185,0.372
		c0.075,0.157,0.151,0.311,0.228,0.463c0.077,0.153,0.156,0.306,0.238,0.46c0.021-0.052,0.041-0.104,0.059-0.154
		c0.019-0.052,0.039-0.102,0.06-0.154c0.037-0.089,0.072-0.178,0.105-0.269c0.032-0.091,0.065-0.18,0.1-0.268
		c0.047-0.117,0.093-0.232,0.136-0.345c0.043-0.111,0.084-0.227,0.125-0.343c0.035-0.086,0.067-0.178,0.097-0.278
		c0.031-0.098,0.081-0.183,0.149-0.25c0.048-0.052,0.1-0.082,0.156-0.093c0.057-0.01,0.109-0.006,0.159,0.014
		c0.049,0.018,0.094,0.05,0.133,0.094c0.04,0.046,0.068,0.097,0.085,0.154c0.021,0.078,0.045,0.168,0.072,0.268
		c0.027,0.098,0.052,0.187,0.072,0.266c0.038,0.144,0.072,0.285,0.103,0.423c0.031,0.139,0.06,0.279,0.087,0.423
		c0.047,0.235,0.089,0.47,0.125,0.7C41.944,36.642,41.976,36.876,42.003,37.111z M37.926,36.719
		c0.025,0.125,0.047,0.251,0.064,0.378v0.036c-0.01,0.074-0.035,0.139-0.077,0.191c-0.041,0.053-0.088,0.089-0.141,0.11
		c-0.054,0.02-0.109,0.022-0.169,0.008c-0.06-0.016-0.116-0.056-0.167-0.121c-0.044-0.055-0.069-0.114-0.074-0.181
		c-0.005-0.067-0.015-0.134-0.028-0.198c-0.034-0.188-0.084-0.381-0.149-0.58c-0.211,0.005-0.422,0.006-0.63,0.006
		s-0.417,0.002-0.625,0.005c-0.031,0.089-0.058,0.18-0.08,0.271c-0.023,0.093-0.044,0.183-0.064,0.273
		c-0.018,0.067-0.033,0.139-0.046,0.213c-0.013,0.074-0.044,0.137-0.092,0.191c-0.058,0.068-0.121,0.107-0.188,0.116
		c-0.066,0.008-0.127-0.003-0.18-0.034c-0.053-0.03-0.095-0.077-0.128-0.141c-0.033-0.064-0.044-0.136-0.034-0.218
		c0.011-0.105,0.031-0.21,0.062-0.312c0.031-0.102,0.06-0.205,0.087-0.308c0.154-0.588,0.352-1.157,0.595-1.707
		c0.021-0.048,0.042-0.094,0.064-0.139c0.022-0.044,0.043-0.089,0.064-0.133c0.023-0.049,0.048-0.1,0.072-0.154
		c0.023-0.055,0.052-0.106,0.084-0.15c0.033-0.047,0.07-0.087,0.115-0.118c0.045-0.033,0.1-0.048,0.164-0.048
		c0.086,0,0.157,0.026,0.215,0.081c0.232,0.232,0.424,0.494,0.574,0.787c0.15,0.291,0.286,0.59,0.405,0.893
		c0.072-0.003,0.142-0.003,0.211,0c0.068,0.005,0.13,0.035,0.184,0.092c0.047,0.049,0.076,0.1,0.084,0.154s0.004,0.107-0.015,0.158
		c-0.018,0.052-0.05,0.097-0.092,0.135c-0.044,0.038-0.095,0.063-0.156,0.077C37.871,36.473,37.9,36.595,37.926,36.719z
		 M33.7,35.476c0.123-0.006,0.246-0.015,0.369-0.025c0.055-0.003,0.11-0.008,0.164-0.015c0.055-0.008,0.111-0.008,0.169,0
		c0.076,0.011,0.134,0.04,0.174,0.092c0.041,0.052,0.066,0.108,0.075,0.172c0.008,0.064-0.004,0.126-0.034,0.188
		c-0.03,0.061-0.08,0.106-0.148,0.133c-0.058,0.024-0.137,0.042-0.236,0.055c-0.099,0.012-0.203,0.02-0.312,0.025
		c-0.11,0.005-0.217,0.008-0.323,0.008c-0.106,0-0.195-0.002-0.267-0.006v0.631c0.188,0.024,0.377,0.027,0.569,0.011
		c0.191-0.019,0.379-0.05,0.564-0.099H34.5c0.062,0.003,0.115,0.02,0.162,0.049c0.046,0.03,0.083,0.064,0.112,0.105
		c0.029,0.041,0.047,0.088,0.051,0.141c0.005,0.053-0.006,0.107-0.033,0.161c-0.01,0.024-0.032,0.053-0.064,0.085
		c-0.033,0.033-0.062,0.053-0.089,0.059c-0.219,0.065-0.444,0.107-0.674,0.121c-0.231,0.015-0.459,0.011-0.685-0.012
		c-0.065-0.008-0.135-0.016-0.212-0.021c-0.077-0.008-0.145-0.028-0.202-0.066c-0.106-0.068-0.159-0.166-0.159-0.293v-2.184
		c-0.038-0.027-0.068-0.061-0.092-0.103c-0.024-0.041-0.039-0.085-0.044-0.13c-0.005-0.047,0.001-0.091,0.019-0.133
		c0.017-0.044,0.046-0.08,0.086-0.11c0.069-0.056,0.147-0.092,0.236-0.11c0.088-0.019,0.176-0.036,0.261-0.05
		c0.178-0.027,0.356-0.041,0.533-0.041s0.358-0.001,0.543-0.004c0.055,0,0.118-0.005,0.19-0.014
		c0.071-0.008,0.135-0.002,0.189,0.018c0.065,0.024,0.116,0.062,0.154,0.113c0.037,0.052,0.06,0.105,0.066,0.165
		c0.007,0.057-0.004,0.113-0.033,0.169c-0.029,0.055-0.079,0.097-0.151,0.127c-0.086,0.034-0.178,0.05-0.275,0.047
		c-0.097-0.003-0.19-0.005-0.279-0.005c-0.13,0-0.26,0.002-0.39,0.005c-0.13,0.003-0.26,0.014-0.39,0.03v0.712
		C33.454,35.483,33.577,35.483,33.7,35.476z M29.548,34.686c-0.028-0.041-0.044-0.086-0.049-0.136c-0.005-0.049,0-0.1,0.018-0.151
		c0.017-0.052,0.042-0.095,0.077-0.133c0.038-0.041,0.088-0.078,0.153-0.113c0.065-0.033,0.136-0.065,0.213-0.094
		c0.077-0.03,0.153-0.055,0.228-0.075c0.076-0.02,0.139-0.035,0.19-0.046c0.216-0.045,0.433-0.043,0.651,0.002
		c0.218,0.047,0.411,0.13,0.576,0.249c0.166,0.119,0.29,0.274,0.372,0.467c0.082,0.191,0.09,0.41,0.026,0.657
		c-0.022,0.067-0.047,0.136-0.077,0.203c-0.031,0.069-0.067,0.132-0.108,0.19c-0.058,0.089-0.126,0.168-0.204,0.235
		c-0.08,0.068-0.165,0.132-0.257,0.19c0.065,0.068,0.127,0.139,0.185,0.215c0.057,0.075,0.123,0.144,0.195,0.205
		c0.027,0.024,0.067,0.062,0.12,0.113c0.053,0.052,0.104,0.106,0.154,0.163c0.049,0.059,0.093,0.116,0.131,0.172
		c0.038,0.057,0.054,0.102,0.051,0.141c-0.004,0.065-0.022,0.124-0.054,0.177c-0.033,0.055-0.072,0.095-0.118,0.124
		c-0.046,0.028-0.097,0.044-0.151,0.044s-0.109-0.019-0.164-0.058c-0.062-0.047-0.12-0.105-0.174-0.169
		c-0.054-0.065-0.108-0.124-0.158-0.179c-0.113-0.124-0.224-0.247-0.331-0.371c-0.108-0.125-0.218-0.248-0.331-0.367
		c-0.069,0.014-0.137,0.022-0.208,0.027c-0.07,0.006-0.14,0.012-0.208,0.018v0.729v0.036c-0.01,0.086-0.046,0.155-0.108,0.21
		c-0.061,0.055-0.128,0.091-0.199,0.105c-0.072,0.016-0.138,0.008-0.198-0.022c-0.06-0.032-0.091-0.092-0.094-0.186
		c-0.018-0.393-0.026-0.801-0.026-1.222c0-0.423,0-0.842,0-1.26C29.616,34.759,29.576,34.728,29.548,34.686z M27.349,36.491
		c0.041,0.078,0.096,0.147,0.164,0.205c0.069,0.059,0.144,0.102,0.226,0.131c0.082,0.029,0.166,0.04,0.251,0.03
		c0.086-0.009,0.168-0.039,0.247-0.089c0.068-0.048,0.129-0.107,0.184-0.178c0.054-0.069,0.104-0.141,0.148-0.212
		c0.055-0.056,0.117-0.087,0.188-0.095c0.07-0.01,0.134,0,0.192,0.027c0.058,0.028,0.104,0.07,0.136,0.131
		c0.033,0.06,0.04,0.132,0.023,0.213c-0.02,0.082-0.059,0.158-0.118,0.229c-0.058,0.069-0.116,0.134-0.174,0.191
		c-0.134,0.141-0.281,0.243-0.443,0.311c-0.163,0.066-0.327,0.098-0.492,0.093c-0.167-0.003-0.329-0.042-0.487-0.117
		c-0.159-0.074-0.302-0.188-0.428-0.339c-0.076-0.089-0.138-0.183-0.19-0.28c-0.051-0.1-0.09-0.204-0.118-0.312
		c-0.042-0.162-0.06-0.329-0.057-0.503c0.003-0.175,0.031-0.345,0.083-0.508c0.051-0.164,0.123-0.318,0.217-0.463
		c0.094-0.146,0.209-0.271,0.346-0.372c0.1-0.075,0.2-0.141,0.301-0.194c0.1-0.056,0.208-0.107,0.32-0.154
		c0.065-0.027,0.132-0.055,0.2-0.08c0.068-0.025,0.138-0.045,0.21-0.059c0.072-0.014,0.143-0.019,0.215-0.016
		c0.072,0.003,0.142,0.019,0.21,0.046c0.048,0.021,0.095,0.05,0.144,0.084c0.047,0.036,0.092,0.077,0.133,0.124
		c0.041,0.045,0.077,0.095,0.108,0.146c0.03,0.052,0.053,0.1,0.066,0.148c0.011,0.043,0.013,0.089,0.008,0.136
		c-0.005,0.047-0.019,0.087-0.041,0.125c-0.022,0.038-0.052,0.069-0.09,0.096c-0.038,0.025-0.08,0.042-0.128,0.048
		c-0.078,0.011-0.139,0.001-0.182-0.025c-0.043-0.027-0.077-0.061-0.103-0.103c-0.025-0.041-0.05-0.08-0.074-0.12
		c-0.025-0.039-0.058-0.067-0.103-0.084c-0.027,0-0.048,0.001-0.062,0.004c-0.116,0.03-0.233,0.073-0.351,0.126
		c-0.118,0.053-0.227,0.117-0.328,0.191c-0.101,0.076-0.189,0.163-0.264,0.263c-0.076,0.099-0.13,0.21-0.164,0.332
		c-0.041,0.148-0.056,0.296-0.046,0.447C27.236,36.216,27.277,36.358,27.349,36.491z M23.315,37.075v0.036
		c-0.01,0.086-0.042,0.155-0.095,0.21c-0.053,0.055-0.112,0.089-0.179,0.102c-0.067,0.014-0.131,0.005-0.192-0.025
		c-0.062-0.03-0.106-0.091-0.133-0.18c-0.018-0.058-0.029-0.121-0.034-0.189c-0.004-0.07-0.007-0.137-0.004-0.203
		c0.002-0.067,0.004-0.131,0.007-0.193c0.003-0.06,0.005-0.111,0.005-0.153c0-0.099-0.001-0.196-0.003-0.292
		c-0.002-0.095-0.002-0.193-0.002-0.293c-0.168-0.16-0.32-0.329-0.459-0.509c-0.138-0.18-0.262-0.371-0.372-0.576
		c-0.034-0.062-0.066-0.13-0.097-0.203c-0.031-0.073-0.048-0.146-0.051-0.217c-0.018-0.065-0.01-0.124,0.02-0.179
		c0.031-0.053,0.073-0.094,0.126-0.122c0.053-0.028,0.111-0.042,0.173-0.041c0.064,0.002,0.121,0.023,0.172,0.064
		c0.038,0.032,0.068,0.066,0.092,0.107c0.025,0.042,0.045,0.086,0.062,0.131c0.017,0.047,0.033,0.094,0.048,0.141
		c0.015,0.049,0.035,0.094,0.059,0.135c0.072,0.13,0.151,0.249,0.238,0.361c0.087,0.111,0.18,0.222,0.28,0.33
		c0.088-0.119,0.184-0.23,0.287-0.335c0.102-0.104,0.196-0.218,0.282-0.337c0.017-0.027,0.043-0.069,0.077-0.125
		c0.034-0.057,0.07-0.115,0.108-0.177c0.038-0.062,0.077-0.119,0.118-0.173c0.041-0.053,0.077-0.087,0.108-0.104
		c0.055-0.035,0.109-0.05,0.166-0.047c0.057,0.003,0.108,0.021,0.154,0.051c0.046,0.03,0.082,0.073,0.11,0.126
		c0.027,0.053,0.038,0.11,0.031,0.172c-0.007,0.065-0.037,0.144-0.09,0.235c-0.054,0.093-0.115,0.185-0.185,0.282
		c-0.07,0.096-0.141,0.187-0.212,0.273c-0.072,0.084-0.129,0.154-0.169,0.203c-0.035,0.043-0.068,0.082-0.1,0.121
		c-0.033,0.039-0.066,0.079-0.1,0.116c-0.044,0.052-0.087,0.102-0.128,0.153c-0.041,0.051-0.082,0.103-0.123,0.153
		c0,0.195,0,0.39,0,0.585C23.31,36.685,23.312,36.881,23.315,37.075z M19.206,34.869c-0.042-0.028-0.076-0.066-0.102-0.11
		c-0.026-0.044-0.039-0.094-0.039-0.146c0-0.053,0.015-0.102,0.046-0.147c0.068-0.102,0.156-0.183,0.264-0.24
		c0.108-0.059,0.22-0.106,0.336-0.144c0.181-0.059,0.363-0.091,0.546-0.098c0.183-0.006,0.363,0.031,0.54,0.113
		c0.161,0.075,0.288,0.172,0.38,0.293c0.092,0.119,0.15,0.246,0.174,0.38c0.023,0.137,0.011,0.273-0.036,0.416
		c-0.048,0.142-0.133,0.274-0.256,0.397c0.16,0.102,0.275,0.226,0.343,0.367c0.069,0.142,0.097,0.288,0.086,0.438
		c-0.012,0.151-0.06,0.297-0.144,0.436c-0.084,0.141-0.197,0.262-0.341,0.364c-0.085,0.062-0.186,0.108-0.299,0.141
		c-0.115,0.033-0.233,0.056-0.354,0.069c-0.121,0.014-0.241,0.021-0.361,0.021c-0.12,0-0.229-0.005-0.328-0.011l-0.036-0.006
		c-0.148-0.017-0.237-0.065-0.27-0.145c-0.033-0.08-0.033-0.169-0.002-0.264v-2.081C19.298,34.913,19.25,34.897,19.206,34.869z
		 M18.735,36.719c0.026,0.125,0.048,0.251,0.064,0.378v0.036c-0.01,0.074-0.036,0.139-0.077,0.191
		c-0.041,0.053-0.087,0.089-0.14,0.11c-0.054,0.02-0.11,0.022-0.169,0.008c-0.061-0.016-0.115-0.056-0.167-0.121
		c-0.044-0.055-0.069-0.114-0.074-0.181c-0.005-0.067-0.015-0.134-0.029-0.198c-0.034-0.188-0.084-0.381-0.149-0.58
		c-0.211,0.005-0.422,0.006-0.63,0.006c-0.209,0-0.417,0.002-0.625,0.005c-0.031,0.089-0.058,0.18-0.079,0.271
		c-0.023,0.093-0.044,0.183-0.065,0.273c-0.017,0.067-0.032,0.139-0.046,0.213c-0.014,0.074-0.044,0.137-0.092,0.191
		c-0.058,0.068-0.121,0.107-0.187,0.116c-0.066,0.008-0.127-0.003-0.18-0.034c-0.053-0.03-0.095-0.077-0.128-0.141
		c-0.033-0.064-0.044-0.136-0.034-0.218c0.01-0.105,0.031-0.21,0.062-0.312c0.031-0.102,0.06-0.205,0.086-0.308
		c0.154-0.588,0.352-1.157,0.595-1.707c0.021-0.048,0.042-0.094,0.064-0.139c0.022-0.044,0.043-0.089,0.064-0.133
		c0.023-0.049,0.047-0.1,0.072-0.154c0.023-0.055,0.052-0.106,0.085-0.15c0.032-0.047,0.07-0.087,0.115-0.118
		c0.044-0.033,0.1-0.048,0.165-0.048c0.085,0,0.157,0.026,0.215,0.081c0.232,0.232,0.423,0.494,0.574,0.787
		c0.15,0.291,0.285,0.59,0.405,0.893c0.072-0.003,0.142-0.003,0.21,0c0.068,0.005,0.13,0.035,0.184,0.092
		c0.048,0.049,0.077,0.1,0.085,0.154s0.003,0.107-0.015,0.158c-0.019,0.052-0.05,0.097-0.092,0.135
		c-0.043,0.038-0.095,0.063-0.156,0.077C18.68,36.473,18.71,36.595,18.735,36.719z M13.264,34.466
		c0.068-0.102,0.156-0.183,0.264-0.24c0.108-0.059,0.22-0.106,0.336-0.144c0.181-0.059,0.363-0.091,0.546-0.098
		c0.183-0.006,0.363,0.031,0.541,0.113c0.161,0.075,0.288,0.172,0.38,0.293c0.092,0.119,0.15,0.246,0.174,0.38
		c0.023,0.137,0.011,0.273-0.036,0.416c-0.047,0.142-0.133,0.274-0.256,0.397c0.16,0.102,0.275,0.226,0.343,0.367
		c0.069,0.142,0.097,0.288,0.085,0.438c-0.012,0.151-0.06,0.297-0.144,0.436c-0.083,0.141-0.197,0.262-0.34,0.364
		c-0.086,0.062-0.186,0.108-0.3,0.141c-0.115,0.033-0.232,0.056-0.354,0.069c-0.121,0.014-0.242,0.021-0.361,0.021
		c-0.12,0-0.23-0.005-0.329-0.011l-0.036-0.006c-0.147-0.017-0.237-0.065-0.27-0.145c-0.032-0.08-0.033-0.169-0.002-0.264v-2.081
		c-0.055,0-0.104-0.016-0.146-0.044c-0.042-0.028-0.077-0.066-0.102-0.11c-0.026-0.044-0.039-0.094-0.039-0.146
		C13.218,34.56,13.233,34.511,13.264,34.466z M44.03,38.958c-0.373,0.159-9.25,3.88-17.317,1.861
		c-7.711-1.929-12.688,0.985-12.738,1.016c-0.081,0.048-0.169,0.071-0.257,0.071c-0.17,0-0.335-0.087-0.429-0.242
		c-0.142-0.237-0.065-0.544,0.171-0.687c0.216-0.13,5.389-3.154,13.495-1.129c7.739,1.937,16.594-1.771,16.683-1.81
		c0.255-0.109,0.547,0.012,0.656,0.264C44.402,38.557,44.284,38.85,44.03,38.958z"/>
</g>
</svg>
