<?xml version="1.0" encoding="utf-8"?>
<!-- Generator: Adobe Illustrator 17.0.2, SVG Export Plug-In . SVG Version: 6.00 Build 0)  -->
<!DOCTYPE svg PUBLIC "-//W3C//DTD SVG 1.1//EN" "http://www.w3.org/Graphics/SVG/1.1/DTD/svg11.dtd">
<svg version="1.1" id="Capa_1" xmlns="http://www.w3.org/2000/svg" xmlns:xlink="http://www.w3.org/1999/xlink" x="0px" y="0px"
	 width="64px" height="64px" viewBox="0 0 64 64" enable-background="new 0 0 64 64" xml:space="preserve">
<g>
	<path d="M39.596,21.144c0-1.623-2.34-2.939-5.226-2.939H10.906c-2.886,0-5.226,1.316-5.226,2.939v2.94h33.915
		C39.596,24.083,39.596,22.768,39.596,21.144z"/>
	<path d="M37.552,37.697V25.826H7.723v11.872c0,2.886,2.34,5.226,5.225,5.226h19.378C35.212,42.923,37.552,40.583,37.552,37.697z
		 M12.174,39.727c-0.715-0.094-1.293-0.77-1.293-1.491v-8.165c0-0.722,0.572-1.193,1.284-1.074c2.047,0.343,6.253,0.934,10.55,0.855
		c4.27-0.077,8.376-0.595,10.391-0.888c0.713-0.104,1.29,0.384,1.29,1.106v8.165c0,0.721-0.578,1.4-1.294,1.496
		c-1.922,0.256-5.807,0.681-10.387,0.681C18.107,40.413,14.13,39.983,12.174,39.727z"/>
	<polygon points="21.162,31.384 19.414,31.384 18.54,32.897 19.414,34.41 21.162,34.41 22.036,32.897 	"/>
	<polygon points="22.358,36.103 24.106,36.103 24.98,34.59 24.106,33.077 22.358,33.077 21.484,34.59 	"/>
	<polygon points="22.358,36.473 21.484,37.986 22.358,39.499 24.106,39.499 24.98,37.986 24.106,36.473 	"/>
	<polygon points="25.341,34.769 24.467,36.282 25.341,37.795 27.089,37.795 27.963,36.282 27.089,34.769 	"/>
	<path d="M57.084,44.462l-19.061,1.532H27.682c-1.443,0-2.094,1.074-1.095,2.115c1.124,1.17,2.904,2.401,5.448,2.457
		c4.899,0.108,6.424-3.048,6.424-3.048l18.619,1.049c1.442,0.082,2.609-0.852,2.609-2.084
		C59.688,45.252,58.521,44.347,57.084,44.462z M34.703,48.324c-3.171,1.762-5.412-0.039-5.434-0.059
		c-0.018-0.014-0.033-0.031-0.043-0.05c-0.04-0.067-0.036-0.156,0.017-0.219c0.066-0.083,0.188-0.094,0.271-0.026
		c0.083,0.067,2.07,1.648,5.005,0.019c0.093-0.053,0.195-0.024,0.261,0.074C34.829,48.156,34.796,48.272,34.703,48.324z"/>
</g>
</svg>
