<?xml version="1.0" encoding="utf-8"?>
<!-- Generator: Adobe Illustrator 17.0.2, SVG Export Plug-In . SVG Version: 6.00 Build 0)  -->
<!DOCTYPE svg PUBLIC "-//W3C//DTD SVG 1.1//EN" "http://www.w3.org/Graphics/SVG/1.1/DTD/svg11.dtd">
<svg version="1.1" id="Capa_1" xmlns="http://www.w3.org/2000/svg" xmlns:xlink="http://www.w3.org/1999/xlink" x="0px" y="0px"
	 width="64px" height="64px" viewBox="0 0 64 64" enable-background="new 0 0 64 64" xml:space="preserve">
<g>
	<path d="M21.602,21.283c-0.254,0.112-0.471,0.212-0.654,0.299l-0.223,0.107l0.117,0.218c0.278,0.521,0.52,1.074,0.719,1.644
		c0.983,2.82,3.847,4.205,5.466,4.778l0.37,0.131l-0.057-0.388c-0.288-1.984-1.077-5.758-3.122-8.74
		c-3.017-4.399-6.115-6.129-11.051-6.169l-0.116,0c-4.878,0-6.604,2.448-6.674,2.552l-0.101,0.148l2.865,3.413l0.182-0.159
		c1.332-1.165,2.859-1.731,4.668-1.731c1.152,0,2.244,0.265,3.246,0.786l0.198,0.104l0.115-0.191
		c0.763-1.274,1.504-1.893,2.265-1.893c0.289,0,0.571,0.095,0.815,0.274c1.621,1.19,2.388,2.292,2.282,3.277
		C22.86,20.204,22.593,20.844,21.602,21.283z"/>
	<path d="M62.135,36.792c-0.424,0.226-0.973,0.39-1.669,0.376c-2.132-0.04-3.119-0.987-2.566-2.764
		c0.553-1.776,1.264-7.265-3.553-7.225c-4.143,0.034-5.077,3.667-5.258,4.684c-1.64-1.978-3.399-3.11-7.178-3.144
		c-4.422-0.04-9.516,1.499-13.78,0.631c0,0-5.549-1.18-7.078-5.565c-0.293-0.842-0.685-1.641-1.163-2.362
		c0.268-0.166,0.742-0.416,1.587-0.791c2.061-0.914,0.08-2.724-1.105-3.593c-0.916-0.671-2.042,1.315-2.506,2.252
		c-1.047-0.743-2.289-1.193-3.713-1.193c-3.882,0-5.785,2.857-7.917,7.028c0,0-0.573,1.698-1.678,2.605
		c-1.106,0.909-2.565,1.974-2.231,4.067c0,1.864,1.511,3.376,3.376,3.376c0.453,0,0.886-0.091,1.28-0.253
		c0.338,0.826,1.148,1.409,2.096,1.409c1.251,0,2.265-1.015,2.265-2.266c0,0,0.519-2.738,3.086-2.738
		c2.567,0,5.961,3.12,3.909,7.107c-1.889,3.669-2.673,4.573-2.786,8.66c-0.89-0.418-1.372-0.704-1.403-0.723
		c-1.217-0.76-2.821-0.392-3.585,0.824c-0.766,1.218-0.399,2.827,0.82,3.593c0.362,0.228,9.016,5.553,24.931,5.553
		c0.09,0,0.183,0,0.273,0c15.8-0.06,22.876-2.631,23.168-2.74c1.346-0.501,2.026-1.994,1.531-3.34
		c-0.495-1.347-1.992-2.038-3.34-1.547c-0.036,0.013-2.008,0.704-6.13,1.344c0.307-2.307,0.769-6.089,0.795-8.189
		c0.029-2.353-0.404-4.683-1.424-6.812c1.991-1.648,2.838-0.871,2.685,0.968c-0.158,1.896,0.316,3.83,4.658,3.869
		c1.794,0.016,2.928-0.714,3.642-1.578C63.226,37.038,62.977,36.342,62.135,36.792z M11.564,25.144
		c-0.598,0-1.084-0.485-1.084-1.083c0-0.599,0.485-1.083,1.084-1.083c0.598,0,1.083,0.485,1.083,1.083
		C12.648,24.659,12.162,25.144,11.564,25.144z M43.843,50.896c-2.161,0.135-4.579,0.223-7.275,0.233c-0.084,0-0.166,0-0.249,0
		c-4.023,0-7.512-0.379-10.479-0.917c0-0.648,0-1.33,0-2.038c0-4.138,3.393-7.492,7.581-7.492h2.842
		c4.188,0,7.581,3.354,7.581,7.492V50.896z"/>
</g>
</svg>
