<?xml version="1.0" encoding="utf-8"?>
<!-- Generator: Adobe Illustrator 17.0.2, SVG Export Plug-In . SVG Version: 6.00 Build 0)  -->
<!DOCTYPE svg PUBLIC "-//W3C//DTD SVG 1.1//EN" "http://www.w3.org/Graphics/SVG/1.1/DTD/svg11.dtd">
<svg version="1.1" id="Capa_1" xmlns="http://www.w3.org/2000/svg" xmlns:xlink="http://www.w3.org/1999/xlink" x="0px" y="0px"
	 width="64px" height="64px" viewBox="0 0 64 64" enable-background="new 0 0 64 64" xml:space="preserve">
<g>
	<path d="M35.574,31.484c0.058-0.012,0.115-0.03,0.169-0.057c0.055-0.026,0.104-0.066,0.147-0.115
		c0.063-0.07,0.085-0.144,0.066-0.223c-0.018-0.077-0.065-0.14-0.141-0.187c-0.087-0.056-0.184-0.085-0.294-0.086
		c-0.109-0.002-0.211,0.01-0.303,0.036v0.649c0.06,0,0.119,0,0.179,0C35.457,31.502,35.516,31.496,35.574,31.484z"/>
	<path d="M30.01,32.893c0.076-0.021,0.147-0.052,0.214-0.093c0.066-0.039,0.12-0.094,0.159-0.164
		c0.01-0.079,0.009-0.148-0.005-0.205c-0.013-0.059-0.054-0.113-0.124-0.163c-0.06-0.039-0.118-0.068-0.174-0.089
		c-0.057-0.02-0.114-0.033-0.172-0.04c-0.058-0.006-0.117-0.009-0.177-0.005c-0.06,0.004-0.125,0.006-0.194,0.01v0.798
		c0.074,0,0.151-0.003,0.234-0.009C29.854,32.928,29.934,32.915,30.01,32.893z"/>
	<path d="M29.894,31.484c0.058-0.012,0.115-0.03,0.169-0.057c0.055-0.026,0.104-0.066,0.148-0.115
		c0.063-0.07,0.085-0.144,0.066-0.223c-0.018-0.077-0.065-0.14-0.141-0.187c-0.087-0.056-0.184-0.085-0.294-0.086
		c-0.109-0.002-0.21,0.01-0.304,0.036v0.649c0.061,0,0.12,0,0.18,0C29.776,31.502,29.835,31.496,29.894,31.484z"/>
	<path d="M35.691,32.893c0.077-0.021,0.147-0.052,0.214-0.093c0.067-0.039,0.12-0.094,0.159-0.164
		c0.01-0.079,0.009-0.148-0.005-0.205c-0.013-0.059-0.054-0.113-0.124-0.163c-0.06-0.039-0.118-0.068-0.174-0.089
		c-0.057-0.02-0.114-0.033-0.172-0.04c-0.058-0.006-0.117-0.009-0.176-0.005c-0.06,0.004-0.125,0.006-0.194,0.01v0.798
		c0.073,0,0.151-0.003,0.234-0.009C35.535,32.928,35.615,32.915,35.691,32.893z"/>
	<path d="M33.058,31.914c-0.063-0.149-0.13-0.298-0.202-0.445c-0.071-0.148-0.152-0.288-0.241-0.42
		c-0.067,0.146-0.128,0.29-0.187,0.436c-0.058,0.143-0.112,0.29-0.162,0.44c0.156-0.003,0.292-0.005,0.411-0.005
		C32.795,31.92,32.922,31.919,33.058,31.914z"/>
	<path d="M31.074,37.098c0.067-0.054,0.12-0.116,0.162-0.188c0.041-0.07,0.066-0.144,0.075-0.219
		c0.008-0.075-0.002-0.148-0.03-0.219c-0.029-0.071-0.081-0.135-0.157-0.188c-0.133-0.079-0.278-0.125-0.435-0.134
		c-0.158-0.01-0.31,0.012-0.456,0.064v1.125c0.15-0.01,0.296-0.029,0.441-0.057C30.818,37.256,30.951,37.193,31.074,37.098z"/>
	<path d="M36.247,36.455c-0.067,0.146-0.128,0.291-0.187,0.435c-0.058,0.144-0.112,0.291-0.162,0.44
		c0.156-0.003,0.293-0.005,0.411-0.005c0.118,0,0.245-0.001,0.381-0.006c-0.063-0.149-0.13-0.298-0.202-0.445
		C36.417,36.728,36.336,36.587,36.247,36.455z"/>
	<path d="M43.886,26.508c-0.875-4.438-3.072-8.122-5.164-8.896v-4.076c0-1.657-0.955-3.643-2.268-4.143
		c-0.766-0.292-1.639-0.524-2.474-0.524c-0.834,0-1.708,0.232-2.474,0.524c-1.312,0.5-2.267,2.485-2.267,4.143v3.92
		c-0.05,0-0.096,0-0.146,0c-2.583,0-5.289,4.086-6.043,9.124l-2.907,19.427c-0.755,5.038,2.765,9.124,7.861,9.124h12.302
		c5.096,0,8.427-4.053,7.441-9.052L43.886,26.508z M36.916,30.433c0.03-0.051,0.07-0.091,0.122-0.118
		c0.052-0.028,0.108-0.042,0.169-0.04c0.062,0.002,0.117,0.022,0.167,0.061c0.037,0.031,0.066,0.065,0.09,0.104
		c0.023,0.041,0.043,0.083,0.06,0.127c0.016,0.046,0.032,0.092,0.047,0.137c0.015,0.047,0.034,0.091,0.057,0.131
		c0.07,0.126,0.147,0.242,0.232,0.351c0.084,0.108,0.174,0.216,0.271,0.321c0.086-0.116,0.179-0.225,0.279-0.326
		c0.1-0.101,0.191-0.211,0.273-0.327c0.017-0.026,0.042-0.067,0.075-0.121c0.033-0.055,0.068-0.112,0.105-0.172
		c0.037-0.06,0.075-0.116,0.115-0.167c0.04-0.052,0.075-0.085,0.104-0.102c0.053-0.033,0.107-0.049,0.162-0.045
		c0.055,0.002,0.105,0.02,0.149,0.05c0.045,0.029,0.08,0.07,0.107,0.121c0.026,0.052,0.037,0.107,0.03,0.167
		c-0.007,0.063-0.036,0.14-0.087,0.23c-0.052,0.089-0.111,0.181-0.18,0.274c-0.068,0.092-0.136,0.18-0.206,0.264
		c-0.069,0.082-0.124,0.15-0.164,0.198c-0.034,0.041-0.066,0.079-0.098,0.117c-0.032,0.038-0.064,0.076-0.097,0.112
		c-0.043,0.051-0.085,0.101-0.125,0.148c-0.039,0.05-0.08,0.1-0.119,0.149c0,0.19,0,0.379,0,0.568c0,0.188,0.002,0.378,0.005,0.567
		v0.035c-0.01,0.084-0.041,0.151-0.092,0.204c-0.051,0.053-0.109,0.086-0.174,0.1c-0.066,0.013-0.127,0.004-0.187-0.025
		c-0.06-0.029-0.102-0.088-0.129-0.174c-0.017-0.056-0.028-0.118-0.033-0.184c-0.004-0.067-0.006-0.132-0.004-0.196
		c0.002-0.066,0.004-0.128,0.007-0.188c0.003-0.059,0.005-0.108,0.005-0.149c0-0.096-0.002-0.19-0.003-0.283
		c-0.002-0.092-0.002-0.188-0.002-0.284c-0.163-0.155-0.311-0.319-0.446-0.494c-0.134-0.175-0.254-0.361-0.361-0.56
		c-0.033-0.061-0.064-0.126-0.095-0.196c-0.03-0.072-0.046-0.143-0.05-0.212C36.879,30.543,36.886,30.485,36.916,30.433z
		 M37.644,38.274c0.025,0.121,0.046,0.243,0.062,0.366v0.035c-0.009,0.072-0.034,0.135-0.075,0.187
		c-0.04,0.051-0.085,0.087-0.136,0.107c-0.052,0.019-0.106,0.022-0.164,0.007c-0.059-0.015-0.112-0.054-0.162-0.117
		c-0.043-0.053-0.067-0.111-0.072-0.176c-0.005-0.065-0.015-0.13-0.028-0.192c-0.033-0.182-0.082-0.37-0.145-0.564
		c-0.205,0.005-0.41,0.006-0.612,0.006c-0.203,0-0.405,0.002-0.607,0.005c-0.03,0.086-0.056,0.174-0.077,0.264
		c-0.022,0.09-0.042,0.178-0.062,0.264c-0.017,0.066-0.032,0.136-0.045,0.207c-0.013,0.072-0.043,0.134-0.089,0.186
		c-0.057,0.065-0.117,0.104-0.182,0.113c-0.065,0.007-0.124-0.003-0.175-0.034c-0.051-0.029-0.092-0.075-0.124-0.137
		c-0.032-0.062-0.042-0.132-0.033-0.211c0.01-0.102,0.03-0.204,0.06-0.304c0.03-0.1,0.058-0.199,0.085-0.299
		c0.149-0.571,0.341-1.124,0.578-1.657c0.02-0.047,0.041-0.092,0.062-0.136c0.021-0.042,0.042-0.086,0.062-0.129
		c0.023-0.047,0.046-0.097,0.069-0.149c0.023-0.053,0.051-0.102,0.082-0.146c0.032-0.046,0.068-0.084,0.112-0.114
		c0.043-0.032,0.097-0.047,0.16-0.047c0.083,0,0.152,0.026,0.209,0.079c0.225,0.226,0.412,0.479,0.558,0.764
		c0.146,0.283,0.277,0.574,0.393,0.868c0.069-0.003,0.138-0.003,0.205,0c0.066,0.005,0.126,0.034,0.179,0.09
		c0.046,0.047,0.074,0.097,0.082,0.149c0.008,0.053,0.004,0.104-0.015,0.154c-0.018,0.05-0.048,0.094-0.089,0.131
		c-0.042,0.036-0.092,0.062-0.152,0.074C37.59,38.035,37.618,38.153,37.644,38.274z M34.377,30.68
		c0.066-0.099,0.152-0.178,0.256-0.233c0.105-0.058,0.213-0.102,0.326-0.14c0.176-0.058,0.353-0.088,0.53-0.096
		c0.178-0.006,0.353,0.031,0.525,0.11c0.156,0.073,0.279,0.167,0.369,0.284c0.089,0.116,0.146,0.239,0.169,0.37
		c0.023,0.132,0.011,0.266-0.035,0.403c-0.046,0.138-0.129,0.267-0.249,0.386c0.155,0.1,0.267,0.219,0.333,0.357
		c0.066,0.138,0.094,0.28,0.082,0.425c-0.012,0.147-0.059,0.288-0.14,0.425c-0.082,0.136-0.191,0.253-0.331,0.353
		c-0.083,0.06-0.18,0.106-0.291,0.136c-0.111,0.032-0.226,0.055-0.344,0.067c-0.118,0.014-0.235,0.021-0.351,0.021
		c-0.117,0-0.223-0.004-0.319-0.01l-0.034-0.006c-0.143-0.017-0.231-0.063-0.262-0.141c-0.031-0.078-0.032-0.165-0.002-0.257v-2.021
		c-0.054,0-0.1-0.015-0.142-0.042c-0.042-0.028-0.074-0.065-0.099-0.107c-0.025-0.043-0.038-0.091-0.038-0.143
		C34.332,30.771,34.347,30.724,34.377,30.68z M34.439,35.742c0.063,0.023,0.113,0.06,0.15,0.11c0.036,0.05,0.058,0.103,0.064,0.16
		c0.007,0.056-0.004,0.109-0.032,0.164c-0.029,0.053-0.077,0.094-0.146,0.123c-0.084,0.034-0.172,0.049-0.267,0.046
		c-0.095-0.003-0.185-0.005-0.272-0.005c-0.126,0-0.252,0.002-0.378,0.005c-0.126,0.003-0.252,0.013-0.378,0.029v0.692
		c0.12,0.007,0.239,0.007,0.359,0c0.119-0.006,0.239-0.016,0.358-0.025c0.053-0.003,0.106-0.008,0.159-0.015
		c0.054-0.007,0.108-0.007,0.164,0c0.074,0.011,0.13,0.04,0.17,0.09c0.039,0.05,0.064,0.105,0.073,0.167
		c0.008,0.062-0.003,0.121-0.033,0.182c-0.029,0.059-0.078,0.103-0.143,0.129c-0.057,0.023-0.133,0.041-0.229,0.053
		c-0.096,0.012-0.197,0.02-0.304,0.025c-0.107,0.004-0.211,0.007-0.314,0.007c-0.103,0-0.189-0.001-0.259-0.006v0.613
		c0.183,0.023,0.367,0.026,0.553,0.011c0.186-0.018,0.368-0.049,0.548-0.096h0.034c0.06,0.003,0.112,0.02,0.157,0.047
		c0.044,0.029,0.081,0.064,0.109,0.103c0.029,0.04,0.045,0.085,0.05,0.137c0.005,0.052-0.006,0.104-0.032,0.157
		c-0.009,0.023-0.031,0.051-0.062,0.082c-0.032,0.032-0.06,0.051-0.087,0.057c-0.212,0.063-0.431,0.102-0.655,0.117
		c-0.224,0.016-0.446,0.011-0.665-0.012c-0.063-0.007-0.131-0.015-0.206-0.021c-0.075-0.007-0.141-0.027-0.197-0.064
		c-0.103-0.065-0.154-0.161-0.154-0.284v-2.121c-0.037-0.026-0.066-0.059-0.09-0.1c-0.023-0.04-0.037-0.082-0.043-0.126
		c-0.005-0.046,0.001-0.088,0.018-0.129c0.017-0.043,0.045-0.078,0.084-0.107c0.067-0.055,0.143-0.09,0.229-0.107
		c0.086-0.019,0.171-0.035,0.254-0.048c0.172-0.026,0.345-0.04,0.518-0.04c0.172,0,0.349-0.001,0.528-0.004
		c0.053,0,0.115-0.005,0.184-0.014C34.325,35.718,34.386,35.724,34.439,35.742z M31.345,32.881c0.03-0.1,0.058-0.199,0.084-0.299
		c0.15-0.571,0.342-1.124,0.578-1.658c0.02-0.047,0.041-0.091,0.062-0.135c0.021-0.042,0.041-0.086,0.062-0.129
		c0.023-0.047,0.046-0.097,0.07-0.149c0.023-0.053,0.051-0.102,0.082-0.146c0.032-0.046,0.068-0.084,0.112-0.115
		c0.043-0.032,0.097-0.047,0.16-0.047c0.083,0,0.152,0.026,0.209,0.08c0.225,0.226,0.412,0.479,0.557,0.764
		c0.146,0.283,0.277,0.573,0.393,0.868c0.069-0.003,0.138-0.003,0.205,0c0.066,0.005,0.126,0.034,0.179,0.09
		c0.046,0.047,0.074,0.097,0.082,0.149c0.008,0.053,0.004,0.105-0.015,0.154c-0.018,0.05-0.048,0.094-0.089,0.13
		c-0.042,0.037-0.092,0.061-0.152,0.075c0.033,0.116,0.061,0.234,0.086,0.354c0.025,0.122,0.046,0.244,0.062,0.367v0.035
		c-0.01,0.072-0.035,0.135-0.075,0.187c-0.039,0.051-0.085,0.086-0.137,0.106c-0.052,0.019-0.106,0.022-0.164,0.008
		c-0.059-0.015-0.112-0.055-0.162-0.117c-0.043-0.053-0.067-0.111-0.072-0.177c-0.005-0.064-0.015-0.129-0.028-0.191
		c-0.033-0.182-0.081-0.37-0.144-0.563c-0.206,0.005-0.41,0.006-0.612,0.006c-0.203,0-0.405,0.001-0.607,0.005
		c-0.03,0.086-0.056,0.174-0.077,0.264c-0.022,0.09-0.042,0.178-0.062,0.264c-0.017,0.066-0.032,0.135-0.045,0.207
		c-0.013,0.072-0.043,0.134-0.089,0.186c-0.057,0.065-0.117,0.104-0.182,0.112c-0.064,0.008-0.123-0.003-0.174-0.033
		c-0.051-0.029-0.092-0.075-0.124-0.137c-0.032-0.062-0.042-0.132-0.033-0.211C31.295,33.082,31.315,32.98,31.345,32.881z
		 M29.09,36.499c-0.022,0.037-0.05,0.067-0.087,0.093c-0.037,0.024-0.078,0.041-0.125,0.047c-0.076,0.011-0.135,0.001-0.177-0.025
		c-0.041-0.026-0.075-0.059-0.1-0.1c-0.025-0.039-0.048-0.077-0.072-0.115c-0.023-0.038-0.057-0.066-0.1-0.082
		c-0.026,0-0.046,0.001-0.059,0.004c-0.113,0.029-0.227,0.07-0.341,0.122c-0.114,0.051-0.221,0.114-0.319,0.185
		c-0.098,0.074-0.183,0.159-0.256,0.256c-0.073,0.095-0.126,0.204-0.16,0.322c-0.039,0.144-0.054,0.288-0.044,0.435
		c0.01,0.146,0.05,0.283,0.12,0.412c0.04,0.076,0.093,0.144,0.159,0.199c0.066,0.058,0.14,0.099,0.219,0.128
		c0.08,0.027,0.161,0.038,0.244,0.029s0.163-0.038,0.239-0.087c0.066-0.047,0.126-0.103,0.179-0.173
		c0.053-0.067,0.101-0.137,0.144-0.205c0.053-0.055,0.114-0.085,0.182-0.093c0.068-0.009,0.13,0,0.187,0.026
		c0.056,0.028,0.1,0.069,0.132,0.128c0.032,0.059,0.039,0.127,0.023,0.207c-0.02,0.079-0.058,0.153-0.115,0.221
		c-0.056,0.067-0.113,0.131-0.169,0.186c-0.129,0.137-0.273,0.236-0.43,0.303c-0.158,0.064-0.318,0.095-0.478,0.091
		c-0.162-0.003-0.319-0.041-0.473-0.114c-0.155-0.072-0.293-0.183-0.416-0.329c-0.073-0.087-0.134-0.178-0.184-0.272
		c-0.05-0.097-0.088-0.198-0.114-0.304c-0.041-0.157-0.059-0.32-0.055-0.488c0.003-0.171,0.03-0.335,0.08-0.493
		c0.05-0.16,0.12-0.31,0.211-0.45c0.091-0.143,0.203-0.263,0.335-0.361c0.097-0.073,0.194-0.136,0.292-0.188
		c0.098-0.055,0.202-0.104,0.311-0.15c0.063-0.026,0.127-0.053,0.194-0.077c0.066-0.025,0.134-0.044,0.204-0.058
		c0.069-0.013,0.139-0.018,0.209-0.015c0.069,0.003,0.138,0.018,0.205,0.044c0.046,0.021,0.092,0.049,0.139,0.082
		c0.046,0.035,0.089,0.075,0.129,0.121c0.04,0.044,0.075,0.092,0.105,0.142c0.029,0.05,0.051,0.097,0.064,0.143
		c0.01,0.043,0.013,0.087,0.007,0.133C29.125,36.423,29.111,36.463,29.09,36.499z M29.194,33.532
		c-0.143-0.017-0.23-0.063-0.262-0.141c-0.031-0.078-0.032-0.165-0.002-0.257v-2.021c-0.054,0-0.101-0.015-0.143-0.042
		c-0.041-0.028-0.074-0.065-0.099-0.107c-0.025-0.043-0.038-0.091-0.038-0.143c0-0.051,0.015-0.098,0.045-0.142
		c0.066-0.099,0.152-0.178,0.256-0.233c0.105-0.058,0.213-0.102,0.326-0.14c0.176-0.058,0.353-0.088,0.53-0.096
		c0.178-0.006,0.353,0.031,0.525,0.11c0.156,0.073,0.279,0.167,0.369,0.284c0.089,0.116,0.146,0.239,0.169,0.37
		c0.023,0.132,0.011,0.266-0.035,0.403c-0.046,0.138-0.129,0.267-0.249,0.386c0.155,0.1,0.267,0.219,0.333,0.357
		s0.094,0.28,0.083,0.425c-0.012,0.147-0.059,0.288-0.14,0.425c-0.081,0.136-0.191,0.253-0.331,0.353
		c-0.083,0.06-0.18,0.106-0.291,0.136c-0.111,0.032-0.226,0.055-0.344,0.067c-0.117,0.014-0.234,0.021-0.35,0.021
		c-0.116,0-0.223-0.004-0.319-0.01L29.194,33.532z M29.742,38.979c-0.058-0.03-0.088-0.09-0.091-0.181
		c-0.017-0.381-0.025-0.777-0.025-1.186c0-0.41,0-0.816,0-1.223c-0.054-0.02-0.093-0.049-0.12-0.09
		c-0.027-0.04-0.043-0.084-0.048-0.132c-0.005-0.047,0.001-0.097,0.018-0.146c0.017-0.05,0.041-0.093,0.075-0.13
		c0.037-0.039,0.086-0.076,0.149-0.109c0.063-0.032,0.132-0.063,0.207-0.091c0.075-0.029,0.149-0.053,0.222-0.073
		c0.073-0.02,0.135-0.034,0.184-0.044c0.21-0.044,0.42-0.043,0.633,0.001c0.212,0.046,0.399,0.126,0.56,0.242
		c0.161,0.115,0.281,0.267,0.361,0.453c0.079,0.186,0.087,0.398,0.025,0.638c-0.021,0.066-0.045,0.132-0.075,0.198
		c-0.03,0.067-0.065,0.128-0.105,0.185c-0.056,0.087-0.122,0.163-0.199,0.23c-0.077,0.065-0.16,0.127-0.249,0.185
		c0.063,0.065,0.123,0.135,0.179,0.208c0.056,0.073,0.12,0.14,0.189,0.199c0.026,0.023,0.065,0.061,0.117,0.11
		c0.051,0.05,0.101,0.103,0.149,0.158c0.048,0.058,0.09,0.113,0.127,0.167c0.037,0.055,0.053,0.1,0.05,0.137
		c-0.003,0.063-0.021,0.12-0.053,0.172c-0.032,0.053-0.07,0.093-0.114,0.12c-0.045,0.028-0.094,0.043-0.147,0.043
		c-0.053,0-0.106-0.019-0.159-0.056c-0.06-0.046-0.116-0.102-0.17-0.165c-0.053-0.062-0.104-0.12-0.154-0.173
		c-0.11-0.12-0.217-0.24-0.321-0.36c-0.105-0.122-0.212-0.241-0.321-0.356c-0.066,0.013-0.133,0.021-0.202,0.026
		c-0.068,0.006-0.136,0.012-0.202,0.018v0.707v0.035c-0.01,0.083-0.044,0.15-0.105,0.204c-0.059,0.053-0.124,0.088-0.194,0.103
		C29.864,39.017,29.8,39.009,29.742,38.979z M40.175,43.278c-0.778,0.334-1.429,0.254-2.088-0.309
		c-0.593-0.505-1.231-1.227-2.096-1.145c-0.357,0.034-0.65,0.165-0.912,0.338c0.443,0.358,0.923,0.639,1.431,0.421
		c0.472-0.202,0.883,0.491,0.407,0.695c-0.778,0.334-1.429,0.254-2.088-0.309c-0.103-0.088-0.208-0.183-0.316-0.278
		c-0.153,0.205-0.29,0.43-0.396,0.683c-0.197,0.473-0.977,0.266-0.777-0.214c0.142-0.339,0.326-0.675,0.548-0.979
		c-0.344-0.235-0.721-0.397-1.156-0.357c-0.935,0.089-1.526,0.714-1.874,1.549c-0.197,0.473-0.977,0.266-0.777-0.214
		c0.42-1.006,1.183-2.002,2.36-2.112c0.574-0.055,1.195,0.018,1.693,0.338c0.094,0.06,0.191,0.137,0.291,0.219
		c0.356-0.298,0.776-0.51,1.275-0.557c0.574-0.055,1.195,0.018,1.693,0.338c0.663,0.425,1.479,1.582,2.375,1.198
		C40.241,42.381,40.651,43.074,40.175,43.278z M41.604,38.69c-0.01,0.073-0.036,0.135-0.079,0.187
		c-0.043,0.052-0.093,0.087-0.15,0.107c-0.056,0.021-0.114,0.021-0.174,0.003c-0.06-0.02-0.11-0.064-0.149-0.133
		c-0.033-0.057-0.052-0.115-0.057-0.177c-0.005-0.061-0.011-0.125-0.017-0.191c-0.007-0.073-0.014-0.138-0.023-0.191
		c-0.008-0.055-0.017-0.119-0.027-0.192c-0.03-0.199-0.064-0.396-0.1-0.59c-0.036-0.193-0.078-0.389-0.124-0.585
		c-0.067,0.166-0.13,0.33-0.189,0.493c-0.06,0.162-0.12,0.326-0.18,0.492c-0.046,0.123-0.092,0.246-0.136,0.371
		c-0.046,0.125-0.098,0.245-0.157,0.361c-0.019,0.039-0.053,0.071-0.1,0.097c-0.046,0.024-0.096,0.039-0.149,0.042
		c-0.053,0.005-0.103-0.004-0.149-0.021c-0.047-0.018-0.082-0.049-0.105-0.093c-0.143-0.275-0.284-0.549-0.423-0.821
		c-0.139-0.271-0.278-0.546-0.418-0.821c-0.017,0.169-0.031,0.339-0.044,0.511c-0.014,0.171-0.029,0.34-0.046,0.51
		c-0.003,0.053-0.007,0.117-0.01,0.194c-0.004,0.076-0.01,0.153-0.018,0.231c-0.008,0.078-0.019,0.152-0.03,0.225
		c-0.011,0.071-0.03,0.126-0.057,0.167c-0.04,0.065-0.091,0.108-0.156,0.129c-0.065,0.02-0.128,0.021-0.189,0.005
		c-0.061-0.017-0.113-0.05-0.155-0.102c-0.042-0.052-0.061-0.117-0.057-0.196c0.006-0.137,0.018-0.271,0.035-0.403
		c0.016-0.134,0.031-0.269,0.045-0.403c0.027-0.297,0.054-0.59,0.082-0.882c0.028-0.292,0.055-0.588,0.082-0.886
		c0.006-0.087,0.023-0.167,0.052-0.239c0.028-0.073,0.088-0.125,0.182-0.155c0.036-0.014,0.075-0.018,0.114-0.015
		c0.039,0.004,0.077,0.015,0.109,0.035c0.073,0.047,0.13,0.109,0.172,0.192c0.042,0.08,0.081,0.158,0.117,0.231
		c0.063,0.119,0.125,0.239,0.184,0.36c0.06,0.12,0.12,0.241,0.18,0.361c0.073,0.152,0.146,0.302,0.221,0.45
		c0.075,0.148,0.152,0.296,0.231,0.445c0.021-0.05,0.04-0.1,0.057-0.149c0.018-0.05,0.037-0.1,0.058-0.149
		c0.036-0.086,0.071-0.173,0.102-0.261c0.032-0.088,0.064-0.175,0.097-0.262c0.046-0.112,0.09-0.224,0.132-0.334
		c0.042-0.108,0.082-0.22,0.122-0.333c0.034-0.084,0.065-0.173,0.095-0.27c0.03-0.096,0.079-0.178,0.144-0.244
		c0.047-0.05,0.097-0.079,0.152-0.089c0.055-0.011,0.106-0.006,0.154,0.013c0.048,0.018,0.091,0.049,0.129,0.091
		c0.038,0.044,0.066,0.095,0.082,0.15c0.02,0.076,0.043,0.162,0.07,0.259c0.026,0.096,0.05,0.183,0.069,0.259
		c0.037,0.139,0.07,0.277,0.1,0.41c0.03,0.136,0.058,0.272,0.085,0.411c0.046,0.229,0.087,0.456,0.122,0.681
		c0.035,0.223,0.065,0.45,0.092,0.679V38.69z"/>
</g>
</svg>
