<?xml version="1.0" encoding="utf-8"?>
<!-- Generator: Adobe Illustrator 17.0.2, SVG Export Plug-In . SVG Version: 6.00 Build 0)  -->
<!DOCTYPE svg PUBLIC "-//W3C//DTD SVG 1.1//EN" "http://www.w3.org/Graphics/SVG/1.1/DTD/svg11.dtd">
<svg version="1.1" id="Capa_1" xmlns="http://www.w3.org/2000/svg" xmlns:xlink="http://www.w3.org/1999/xlink" x="0px" y="0px"
	 width="64px" height="64px" viewBox="0 0 64 64" enable-background="new 0 0 64 64" xml:space="preserve">
<g>
	<path d="M32.493,39.606c0.913-2.969-3.823-6.281-5.224-9.935c-0.004,0.001,0.562-0.2,1.127-0.4
		c0.622-0.221,0.877-1.286,0.569-2.378l-1.169-4.151c-0.269-0.954-1.156-1.523-2.092-1.407l0.524,1.574l-0.949,0.316l-0.536-1.608
		l-1.727,0.591l0.606,1.819l-0.949,0.316l-0.604-1.811l-1.727,0.591l0.674,2.023l-0.949,0.316l-0.672-2.015l-1.727,0.591
		l0.742,2.225l-0.949,0.316l-0.739-2.218l-1.728,0.591l0.81,2.429L14.854,27.7l-0.808-2.421l-1.396,0.477l0.834,2.503l-0.949,0.316
		l-0.81-2.432c-0.765,0.496-1.097,1.458-0.738,2.353l1.67,4.177c0.422,1.054,1.066,1.801,1.44,1.669l0.675-0.238
		C14,36.681,11.925,45.021,16.048,48.856c4.91,4.568,14.047,6.281,14.846-2.056c0,0,0.8-3.653-2.512-5.482
		C28.382,41.319,31.579,42.575,32.493,39.606z"/>
	<path d="M48.497,16.53l-0.739,2.218l-0.949-0.316l0.742-2.226l-1.728-0.591l-0.672,2.015l-0.949-0.316l0.674-2.023l-1.728-0.591
		l-0.604,1.812l-0.949-0.316l0.606-1.819l-1.727-0.591l-0.536,1.608l-0.949-0.316l0.524-1.574c-0.936-0.115-1.823,0.453-2.092,1.407
		l-1.169,4.151c-0.308,1.092-0.053,2.158,0.569,2.378c0.565,0.2,1.131,0.401,1.127,0.4c-1.4,3.654-6.137,6.966-5.224,9.935
		c0.914,2.969,4.111,1.713,4.111,1.713c-3.311,1.828-2.512,5.482-2.512,5.482c0.799,8.336,9.935,6.623,14.846,2.055
		c4.123-3.834,2.048-12.175,1.276-14.753l0.675,0.239c0.373,0.132,1.018-0.615,1.439-1.669l1.67-4.177
		c0.358-0.896,0.026-1.857-0.738-2.353l-0.811,2.432l-0.949-0.316l0.834-2.502l-1.396-0.478l-0.808,2.421l-0.949-0.316l0.81-2.429
		L48.497,16.53z"/>
</g>
</svg>
