<?xml version="1.0" encoding="utf-8"?>
<!-- Generator: Adobe Illustrator 17.0.2, SVG Export Plug-In . SVG Version: 6.00 Build 0)  -->
<!DOCTYPE svg PUBLIC "-//W3C//DTD SVG 1.1//EN" "http://www.w3.org/Graphics/SVG/1.1/DTD/svg11.dtd">
<svg version="1.1" id="Capa_1" xmlns="http://www.w3.org/2000/svg" xmlns:xlink="http://www.w3.org/1999/xlink" x="0px" y="0px"
	 width="64px" height="64px" viewBox="0 0 64 64" enable-background="new 0 0 64 64" xml:space="preserve">
<g>
	<path d="M26.192,22.822v30c0,2.761,2.238,5,5,5h7.334c2.762,0,5-2.239,5-5v-30c0.859-0.638,1.416-1.576,1.416-2.637
		c0-1.382-0.933-2.565-2.274-3.127c-0.498-1.451-1.883-4.435-4.853-4.38c-0.352,0.006-0.663,0.012-0.941,0.016
		c-0.52,0.008-0.844-0.321-0.724-0.731l0.218-0.742c0.015-0.038,0.022-0.078,0.034-0.117l0.061-0.206
		c0.029-0.162,0.054-0.328,0.054-0.502c0-1.15-0.807-2.083-1.802-2.083c-0.995,0-1.802,0.933-1.802,2.083
		c0,0.174,0.024,0.341,0.059,0.502c0.036,0.151,0.071,0.269,0.117,0.381c0,0,0.099,0.319,0.221,0.712
		c0.122,0.393-0.144,0.707-0.593,0.701c-0.243-0.004-0.513-0.009-0.814-0.014c-2.97-0.055-4.354,2.929-4.852,4.38
		c-1.342,0.562-2.274,1.746-2.274,3.127C24.776,21.246,25.333,22.184,26.192,22.822z M35.89,25.254
		c0.067-0.267,0.335-0.429,0.605-0.365c3.379,0.839,3.896-0.783,3.9-0.799c0.078-0.265,0.354-0.415,0.622-0.337
		c0.265,0.079,0.415,0.357,0.337,0.622c-0.025,0.086-0.557,1.753-3.126,1.753c-0.557,0-1.21-0.078-1.974-0.268
		C35.986,25.793,35.823,25.522,35.89,25.254z M35.89,33.283c0.067-0.267,0.335-0.429,0.605-0.365c3.379,0.84,3.896-0.783,3.9-0.799
		c0.078-0.264,0.354-0.417,0.622-0.337c0.265,0.079,0.415,0.357,0.337,0.622c-0.025,0.086-0.557,1.753-3.126,1.753
		c-0.557,0-1.21-0.078-1.974-0.268C35.986,33.822,35.823,33.551,35.89,33.283z M35.89,41.311c0.067-0.267,0.335-0.428,0.605-0.365
		c3.379,0.838,3.896-0.782,3.9-0.799c0.078-0.264,0.354-0.417,0.622-0.337c0.265,0.079,0.415,0.357,0.337,0.622
		c-0.025,0.086-0.557,1.753-3.126,1.753c-0.557,0-1.21-0.078-1.974-0.268C35.986,41.85,35.823,41.579,35.89,41.311z M35.89,49.339
		c0.067-0.267,0.335-0.431,0.605-0.365c3.379,0.839,3.896-0.783,3.9-0.799c0.078-0.264,0.354-0.417,0.622-0.337
		c0.265,0.079,0.415,0.357,0.337,0.622c-0.025,0.086-0.557,1.753-3.126,1.753c-0.557,0-1.21-0.078-1.974-0.268
		C35.986,49.878,35.823,49.607,35.89,49.339z"/>
</g>
</svg>
