<?xml version="1.0" encoding="utf-8"?>
<!-- Generator: Adobe Illustrator 17.0.2, SVG Export Plug-In . SVG Version: 6.00 Build 0)  -->
<!DOCTYPE svg PUBLIC "-//W3C//DTD SVG 1.1//EN" "http://www.w3.org/Graphics/SVG/1.1/DTD/svg11.dtd">
<svg version="1.1" id="Capa_1" xmlns="http://www.w3.org/2000/svg" xmlns:xlink="http://www.w3.org/1999/xlink" x="0px" y="0px"
	 width="64px" height="64px" viewBox="0 0 64 64" enable-background="new 0 0 64 64" xml:space="preserve">
<g>
	<path d="M35,47.991c0-1.275-1.346-2.312-3-2.312s-3,1.037-3,2.312c0,1.275,1.346,2.312,3,2.312S35,49.267,35,47.991z M32,49.71
		c-1.379,0-2.5-0.813-2.5-1.812c0-0.716,0.58-1.33,1.413-1.625v1.625h2.175v-1.624c0.833,0.294,1.412,0.909,1.412,1.624
		C34.5,48.896,33.379,49.71,32,49.71z"/>
	<ellipse transform="matrix(0.9669 -0.2553 0.2553 0.9669 -10.8024 8.7236)" cx="28.208" cy="45.98" rx="0.522" ry="0.271"/>
	<ellipse transform="matrix(0.499 -0.8666 0.8666 0.499 -23.0808 54.8207)" cx="35.875" cy="47.374" rx="0.271" ry="0.522"/>
	<ellipse transform="matrix(-0.8501 -0.5267 0.5267 -0.8501 26.7536 108.2247)" cx="28.782" cy="50.304" rx="0.272" ry="0.523"/>
	<ellipse transform="matrix(-0.3308 -0.9437 0.9437 -0.3308 -1.6085 100.1552)" cx="34.709" cy="50.648" rx="0.272" ry="0.523"/>
	<path d="M50.249,31.628c-0.209,0-0.406,0.035-0.609,0.062c-2.043-7.845-9.154-13.645-17.639-13.645
		c-0.967,0-1.913,0.085-2.838,0.23c-0.453,0.358-0.892,0.739-1.304,1.151c-1.31,1.31-2.031,3.05-2.031,4.902
		c0,1.852,0.721,3.592,2.03,4.901c1.01,1.01,2.352,1.565,3.78,1.565h0.001c1.428,0,2.77-0.556,3.779-1.565
		c1.59-1.59,1.59-4.176,0-5.766c-1.195-1.194-3.138-1.193-4.329,0c-0.425,0.425-0.659,0.989-0.659,1.59
		c0,0.602,0.234,1.166,0.659,1.591c0.603,0.604,1.655,0.607,2.262,0c0.391-0.391,1.023-0.391,1.414,0
		c0.391,0.391,0.391,1.023,0,1.414c-1.359,1.36-3.73,1.358-5.09,0c-0.803-0.802-1.245-1.869-1.245-3.005
		c0-1.135,0.442-2.202,1.245-3.004c1.973-1.975,5.185-1.975,7.157,0c2.369,2.369,2.369,6.225,0,8.594
		c-1.432,1.433-3.312,2.148-5.193,2.148c-1.881,0-3.763-0.716-5.195-2.148c-1.688-1.688-2.616-3.93-2.616-6.316
		c0-1.819,0.544-3.554,1.549-5.023c-5.393,2.11-9.537,6.705-11.017,12.386c-0.201-0.026-0.4-0.062-0.609-0.062
		c-2.576,0-4.666,2.089-4.666,4.666c0,2.577,2.09,4.666,4.666,4.666c0.209,0,0.408-0.035,0.609-0.062
		c2.043,7.845,9.156,13.645,17.641,13.645c8.484,0,15.596-5.8,17.639-13.645c0.203,0.026,0.4,0.062,0.609,0.062
		c2.578,0,4.666-2.089,4.666-4.666C54.915,33.717,52.827,31.628,50.249,31.628z M30.051,43.981c0.039,0.146-0.156,0.322-0.435,0.396
		c-0.278,0.074-0.536,0.017-0.575-0.129c-0.038-0.145,0.156-0.321,0.436-0.396C29.756,43.778,30.013,43.836,30.051,43.981z
		 M23.319,40.856c0,0.276-0.224,0.5-0.5,0.5c-0.276,0-0.5-0.224-0.5-0.5c0-1.688,1.683-3.062,3.75-3.062
		c2.067,0,3.75,1.374,3.75,3.062c0,0.276-0.224,0.5-0.5,0.5c-0.276,0-0.5-0.224-0.5-0.5c0-1.138-1.233-2.062-2.75-2.062
		S23.319,39.719,23.319,40.856z M26.584,49.894c-0.149,0.013-0.29-0.209-0.315-0.496c-0.023-0.288,0.078-0.531,0.227-0.544
		c0.149-0.013,0.29,0.21,0.314,0.497C26.836,49.639,26.734,49.883,26.584,49.894z M37.06,48.279
		c-0.673,0.983-1.442,2.341-1.719,3.031c-0.276,0.69-1.073,0.746-1.781,0.125c-0.708-0.621-2.484-0.817-3.969-0.438
		c-1.484,0.38-2.449,0.058-2.156-0.719c0.293-0.776,0.279-1.714-0.031-2.094c-0.31-0.38-0.688-1.377-0.844-2.229
		c-0.155-0.852,0.628-1.396,1.75-1.219c1.122,0.178,2.535-0.014,3.156-0.428c0.621-0.414,1.656-0.148,2.312,0.594
		c0.656,0.742,1.929,1.399,2.844,1.469C37.537,46.442,37.732,47.296,37.06,48.279z M34.863,44.514
		c0.084-0.123,0.346-0.09,0.583,0.074s0.36,0.398,0.274,0.521c-0.085,0.123-0.347,0.091-0.583-0.073
		C34.901,44.87,34.777,44.638,34.863,44.514z M41.721,41.356c-0.276,0-0.5-0.224-0.5-0.5c0-1.138-1.233-2.062-2.75-2.062
		s-2.75,0.925-2.75,2.062c0,0.276-0.224,0.5-0.5,0.5c-0.276,0-0.5-0.224-0.5-0.5c0-1.688,1.683-3.062,3.75-3.062
		c2.067,0,3.75,1.374,3.75,3.062C42.221,41.133,41.997,41.356,41.721,41.356z"/>
</g>
</svg>
