<?xml version="1.0" encoding="utf-8"?>
<!-- Generator: Adobe Illustrator 17.0.2, SVG Export Plug-In . SVG Version: 6.00 Build 0)  -->
<!DOCTYPE svg PUBLIC "-//W3C//DTD SVG 1.1//EN" "http://www.w3.org/Graphics/SVG/1.1/DTD/svg11.dtd">
<svg version="1.1" id="Capa_1" xmlns="http://www.w3.org/2000/svg" xmlns:xlink="http://www.w3.org/1999/xlink" x="0px" y="0px"
	 width="64px" height="64px" viewBox="0 0 64 64" enable-background="new 0 0 64 64" xml:space="preserve">
<g>
	<path d="M12.533,32.414c-1.125,2.15-1.773,4.52-1.773,7.011c0,2.294,0.549,4.483,1.515,6.493c0.478,0.995,1.583,1.092,2.413,0.365
		c4.087-3.576,9.629-5.775,15.738-5.775c6.109,0,11.652,2.199,15.738,5.775c0.832,0.727,1.936,0.63,2.414-0.365
		c0.965-2.01,1.515-4.199,1.515-6.493c0-2.145-0.479-4.199-1.33-6.101c1.79-1.099,2.987-3.067,2.987-5.321
		c0-3.449-2.796-6.245-6.244-6.245c-2.129,0-4.008,1.067-5.135,2.694c-3.039-1.705-6.5-2.694-9.945-2.694
		c-3.072,0-6.16,0.786-8.949,2.166c-1.127-1.63-3.007-2.699-5.139-2.699c-3.449,0-6.244,2.796-6.244,6.245
		C10.094,29.485,11.052,31.272,12.533,32.414z M35.594,28.259c0.828,0,1.5,0.671,1.5,1.5s-0.672,1.5-1.5,1.5
		c-0.829,0-1.5-0.671-1.5-1.5S34.765,28.259,35.594,28.259z M26.426,28.259c0.829,0,1.5,0.671,1.5,1.5s-0.671,1.5-1.5,1.5
		c-0.828,0-1.5-0.671-1.5-1.5S25.598,28.259,26.426,28.259z"/>
</g>
</svg>
