<?xml version="1.0" encoding="utf-8"?>
<!-- Generator: Adobe Illustrator 17.0.2, SVG Export Plug-In . SVG Version: 6.00 Build 0)  -->
<!DOCTYPE svg PUBLIC "-//W3C//DTD SVG 1.1//EN" "http://www.w3.org/Graphics/SVG/1.1/DTD/svg11.dtd">
<svg version="1.1" id="Capa_1" xmlns="http://www.w3.org/2000/svg" xmlns:xlink="http://www.w3.org/1999/xlink" x="0px" y="0px"
	 width="64px" height="64px" viewBox="0 0 64 64" enable-background="new 0 0 64 64" xml:space="preserve">
<g>
	<path d="M20.265,35.622c-0.37-1.259-0.681-2.645-0.962-3.824l-0.058-0.016c-0.282,1.028-0.594,2.275-0.906,3.323l-1.471,4.307
		l4.897,1.311L20.265,35.622z"/>
	<path d="M9.726,52.132l19.435,4.94c1.606,0.408,2.908-0.604,2.908-2.261V25.644L9.731,20.114c-1.608-0.398-2.912,0.622-2.912,2.279
		v26C6.818,50.05,8.12,51.725,9.726,52.132z M17.178,28.453l4.446,1.191l6.2,20.745l-3.766-1.009l-1.727-5.871l-6.031-1.616
		l-1.643,4.968l-3.595-0.963L17.178,28.453z"/>
	<path d="M49.646,33.136c0-1.926-1.443-2.41-3.79-1.782c-1.082,0.29-1.715,0.518-2.105,0.714v5.564l1.895-0.508
		C48.232,36.431,49.646,34.849,49.646,33.136z"/>
	<path d="M45.585,39.817l-1.834,0.491v6.617c0.481-0.038,1.112-0.207,1.955-0.433c2.377-0.637,4.513-2.08,4.513-4.58
		C50.218,39.538,48.143,39.132,45.585,39.817z"/>
	<path d="M55.897,20.114l-22.338,5.529V54.81c0,1.657,1.302,2.669,2.908,2.261l19.435-4.94c1.606-0.408,2.908-2.082,2.908-3.739v-26
		C58.809,20.737,57.505,19.716,55.897,20.114z M52.173,45.693c-1.444,1.618-3.82,2.888-7.55,3.888
		c-2.045,0.548-3.58,0.809-4.542,0.945V30.613c1.173-0.555,3.308-1.338,5.413-1.901c2.708-0.727,4.422-0.825,5.775-0.254
		c1.264,0.413,2.107,1.513,2.107,3.256c0,1.864-1.173,3.864-3.369,5.264v0.09c2.135-0.028,4.09,1.131,4.09,3.897
		C54.098,42.769,53.315,44.394,52.173,45.693z"/>
	<path d="M29.757,13.511l-18.503,3.891c-1.622,0.341-1.633,0.944-0.026,1.348l21.465,5.394l22.042-5.53
		c1.607-0.403,1.593-0.993-0.032-1.318l-19.068-3.814C34.01,13.157,31.379,13.17,29.757,13.511z M44.062,16.479l-2.484,0.776
		c-0.705-0.319-1.831-0.694-3.46-1.016c-4.066-0.799-8.506-0.561-11.34,0.974c-2.605,1.41-1.698,2.802,2.722,3.67
		c1.455,0.285,3.172,0.494,4.396,0.554l-1.104,1.035c-1.106-0.036-3.284-0.258-5.717-0.735c-6.348-1.247-7.859-3.275-4.257-5.226
		c3.882-2.102,10.824-2.468,16.935-1.267C42.155,15.717,43.548,16.21,44.062,16.479z"/>
</g>
</svg>
