<?xml version="1.0" encoding="utf-8"?>
<!-- Generator: Adobe Illustrator 17.0.2, SVG Export Plug-In . SVG Version: 6.00 Build 0)  -->
<!DOCTYPE svg PUBLIC "-//W3C//DTD SVG 1.1//EN" "http://www.w3.org/Graphics/SVG/1.1/DTD/svg11.dtd">
<svg version="1.1" id="Capa_1" xmlns="http://www.w3.org/2000/svg" xmlns:xlink="http://www.w3.org/1999/xlink" x="0px" y="0px"
	 width="64px" height="64px" viewBox="0 0 64 64" enable-background="new 0 0 64 64" xml:space="preserve">
<g>
	<path d="M30.318,20.559c6.473,0,10.519-1.079,10.519-1.079s0.269-4.855-4.72-6.675c-3.762-1.373-4.496-5.352-4.629-7.227
		c-0.039-0.551-0.471-1-1.023-1h-2.551c-0.552,0-0.985,0.448-0.977,1c0.011,0.773,0.015,1.942-0.023,3.315
		c-0.067,2.495-3.008,4.548-3.008,4.548c-3.701,2.667-3.362,6.038-3.364,6.038C20.541,19.48,23.844,20.559,30.318,20.559z"/>
	<path d="M15.508,46.649c-0.1,0.406-0.16,0.793-0.16,1.152c0,1.53,0,4.189,0,6.204c0,1.49,0.889,3.53,2.167,4.293
		c2.295,1.37,6.471,3.125,12.803,3.125c6.331,0,10.507-1.755,12.802-3.125c1.279-0.763,2.168-2.803,2.168-4.293
		c0-2.014,0-4.673,0-6.204c0-0.273-0.04-0.563-0.1-0.863l0.095,0.189c0,0,8.833-6.675,8.698-15.846
		c-0.111-7.584-7.135-9.632-9.565-10.115c-0.474-0.852-1.482-1.304-2.463-1.029c-0.045,0.013-4.607,1.268-11.635,1.268
		c-6.912,0-10.728-1.168-10.817-1.195c-0.973-0.312-2.004,0.107-2.507,0.95c-2.394,0.469-9.49,2.499-9.602,10.122
		C7.277,39.038,13.562,44.993,15.508,46.649z M9.616,31.348c0.385-6.076,4.675-7.372,7.76-7.508
		c0.224,0.208,0.491,0.377,0.801,0.477c0.177,0.058,4.425,1.403,12.14,1.403c7.674,0,12.603-1.372,12.809-1.43
		c0.316-0.09,0.59-0.25,0.823-0.452c3.088,0.126,7.419,1.404,7.807,7.51c0.521,8.218-6.644,9.928-8.686,10.248
		c-0.601-1.412-1.103-2.845-1.154-4.18c-0.135-3.506,2.022-5.664,2.292-8.766c0.27-3.102-1.483-3.506-1.483-3.506
		s-5.844,1.349-12.407,1.349c-6.563,0-12.407-1.349-12.407-1.349s-1.754,0.404-1.484,3.506c0.269,3.102,2.428,5.259,2.293,8.766
		c-0.05,1.295-0.523,2.682-1.101,4.052C15.005,40.905,9.144,38.807,9.616,31.348z"/>
</g>
</svg>
