<?xml version="1.0" encoding="utf-8"?>
<!-- Generator: Adobe Illustrator 17.0.2, SVG Export Plug-In . SVG Version: 6.00 Build 0)  -->
<!DOCTYPE svg PUBLIC "-//W3C//DTD SVG 1.1//EN" "http://www.w3.org/Graphics/SVG/1.1/DTD/svg11.dtd">
<svg version="1.1" id="Capa_1" xmlns="http://www.w3.org/2000/svg" xmlns:xlink="http://www.w3.org/1999/xlink" x="0px" y="0px"
	 width="64px" height="64px" viewBox="0 0 64 64" enable-background="new 0 0 64 64" xml:space="preserve">
<g>
	<path d="M46.505,43.037L36.136,16.1c0.034-0.404,0.054-0.693,0.062-0.825c0.002-0.031,0.006-0.062,0.005-0.097v-0.009
		c0.021-0.887-0.122-1.788-0.461-2.668c-1.375-3.571-5.379-5.349-8.95-3.975c-1.608,0.619-2.824,1.783-3.582,3.192
		c-1.508-0.537-3.19-0.586-4.799,0.034c-3.57,1.374-5.35,5.378-3.975,8.95c0.317,0.825,0.784,1.54,1.344,2.16l-0.013,0.005
		c0,0,0.041,0.036,0.083,0.078c0.078,0.081,0.159,0.156,0.243,0.231c0.281,0.269,0.756,0.709,1.354,1.232l10.838,28.155l0.062-0.024
		c2.367,4.578,7.864,6.748,12.783,4.855c5.276-2.031,7.917-7.976,5.886-13.251C46.868,43.76,46.693,43.393,46.505,43.037z
		 M28.7,42.508l-5.306-13.785c2.443,1.373,5.029,2.245,7.027,1.477c2.143-0.825,3.503-3.563,4.36-6.479l5.493,14.27
		c-2.073-0.6-4.347-0.563-6.512,0.27C31.566,39.105,29.836,40.635,28.7,42.508z M39.693,53.662
		c-3.218,1.238-6.843-0.371-8.081-3.589c-1.238-3.218,0.371-6.843,3.589-8.081c2.918-1.123,6.164,0.101,7.669,2.736l0.678,1.762
		C44.199,49.454,42.611,52.539,39.693,53.662z"/>
</g>
</svg>
