<?xml version="1.0" encoding="utf-8"?>
<!-- Generator: Adobe Illustrator 17.0.2, SVG Export Plug-In . SVG Version: 6.00 Build 0)  -->
<!DOCTYPE svg PUBLIC "-//W3C//DTD SVG 1.1//EN" "http://www.w3.org/Graphics/SVG/1.1/DTD/svg11.dtd">
<svg version="1.1" id="Capa_1" xmlns="http://www.w3.org/2000/svg" xmlns:xlink="http://www.w3.org/1999/xlink" x="0px" y="0px"
	 width="64px" height="64px" viewBox="0 0 64 64" enable-background="new 0 0 64 64" xml:space="preserve">
<g>
	<path d="M55.779,55.06c-0.198,0.02-0.4,0.03-0.606,0.03c-3.183,0-5.765-2.579-5.765-5.763c0-1.123,0.323-2.17,0.879-3.054
		c0.946-1.505,1.739-2.4,0.92-2.562c-0.484-0.098-0.986-0.147-1.501-0.147c-0.703,0-1.381,0.102-2.028,0.28V31.653
		c0.479-0.698,0.469-1.618-0.022-2.296c-0.039-0.177-0.166-0.314-0.339-0.365c-1.99-1.776-3.941-3.247-5.842-4.479V23.9
		c0.117,0.051,0.197,0.089,0.228,0.104c0.981,0.502,2.181,0.111,2.685-0.866c0.506-0.982,0.119-2.189-0.862-2.694
		c-0.294-0.15-4.56-2.268-10.895-1.354V4.237c0-1.104-0.896-2-2-2s-2,0.896-2,2v15.087c-8.317-1.396-13.943,1.388-14.321,1.581
		c-0.224,0.115-0.412,0.271-0.57,0.447c-0.268,0.009-0.484,0.227-0.484,0.497v0.537c-0.027,0.185-0.025,0.372,0,0.561V35.16
		c-1.629,0.243-2.883,1.635-2.883,3.332c0,1.868,1.515,3.383,3.383,3.383s3.384-1.515,3.384-3.383c0-1.697-1.255-3.089-2.884-3.332
		V24.427c0.561,0.312,1.261,0.35,1.878,0.039c0.219-0.11,2.528-1.222,6.265-1.482c-1.648,1.03-3.348,2.297-5.08,3.848
		c-0.823,0.736-0.893,2.001-0.156,2.824c0.273,0.306,0.621,0.5,0.99,0.595v13.6c-0.125,0.178-0.243,0.413-0.346,0.729
		c-0.469,1.438-0.849,2.605-0.849,2.605h-2.74c-1.514,0-1.747,0.721-0.522,1.61c1.223,0.89,2.216,1.612,2.216,1.612l-0.846,2.607
		c-0.468,1.438,0.146,1.884,1.37,0.995c1.225-0.891,2.217-1.611,2.217-1.611l2.217,1.611c1.225,0.889,1.838,0.443,1.37-0.995
		c-0.467-1.44-0.847-2.607-0.847-2.607l2.218-1.612c1.224-0.89,0.989-1.61-0.523-1.61c-1.515,0-2.741,0-2.741,0l-0.847-2.605
		c-0.103-0.317-0.222-0.553-0.347-0.731V30.25c0.3-0.077,0.587-0.218,0.834-0.439c3.69-3.302,7.154-5.125,10.188-6.067
		c3.103,0.809,6.584,2.312,10.303,4.911v8.703c-0.008,0.015-0.019,0.026-0.025,0.041c-0.558-0.176-1.171-0.198-1.776-0.027
		c-1.018,0.289-1.771,1.055-2.087,1.987c-0.912,0.279-1.437,1.236-1.175,2.158c0.261,0.921,1.21,1.46,2.133,1.22
		c0.758,0.627,1.802,0.884,2.819,0.595c0.443-0.125,0.834-0.345,1.163-0.626c0.651,0.667,1.638,0.964,2.598,0.693
		c1.396-0.397,2.207-1.851,1.81-3.246c-0.27-0.952-1.032-1.632-1.931-1.841c0.01-0.2-0.012-0.403-0.068-0.606
		c-0.282-0.997-1.318-1.574-2.315-1.291c-0.052,0.015-0.097,0.041-0.146,0.06v-7.092c1.06,0.789,2.135,1.657,3.227,2.634
		c0.382,0.342,0.858,0.51,1.333,0.51c0.219,0,0.435-0.046,0.643-0.116V44.19c-2.718,1.174-4.622,3.876-4.622,7.026
		c0,4.225,3.426,7.651,7.65,7.651c1.682,0,3.234-0.542,4.496-1.46C55.676,56.336,56.112,55.023,55.779,55.06z M40.477,23.884
		c-0.357-0.218-0.716-0.436-1.069-0.636c0.407,0.092,0.765,0.19,1.069,0.286V23.884z"/>
</g>
</svg>
