<?xml version="1.0" encoding="utf-8"?>
<!-- Generator: Adobe Illustrator 17.0.2, SVG Export Plug-In . SVG Version: 6.00 Build 0)  -->
<!DOCTYPE svg PUBLIC "-//W3C//DTD SVG 1.1//EN" "http://www.w3.org/Graphics/SVG/1.1/DTD/svg11.dtd">
<svg version="1.1" id="Capa_1" xmlns="http://www.w3.org/2000/svg" xmlns:xlink="http://www.w3.org/1999/xlink" x="0px" y="0px"
	 width="64px" height="64px" viewBox="0 0 64 64" enable-background="new 0 0 64 64" xml:space="preserve">
<g>
	<path d="M32,17.866c8.54,0,10.47-6.105,10.548-6.364c0.267-0.892-0.238-1.831-1.129-2.098c-0.889-0.269-1.83,0.238-2.097,1.129
		c-0.012,0.04-1.259,3.965-7.321,3.965c-5.922,0-7.261-3.782-7.327-3.981c-0.275-0.88-1.208-1.381-2.092-1.113
		c-0.891,0.267-1.396,1.207-1.129,2.098C21.53,11.762,23.459,17.866,32,17.866z"/>
	<path d="M55.893,36.337c-0.811,0-1.565,0.235-2.204,0.638c0.003-0.03,0.004-0.047,0.004-0.047
		c-8.952-3.256-8.201-13.088-7.109-18.252c0.384-1.82-0.082-3.819-1.265-4.522l-2.142-1.271c-1.075,2.033-4.023,5.856-10.985,5.856
		c-6.963,0-9.911-3.823-10.986-5.856c0,0-0.959,0.57-2.142,1.271c-1.183,0.703-1.649,2.703-1.266,4.523
		c1.073,5.094,1.811,14.726-6.764,18.109c-0.75-0.745-1.784-1.205-2.926-1.205c-2.294,0-4.154,1.859-4.154,4.154
		c0,2.131,1.605,3.884,3.671,4.123c-0.246,0.531-0.387,1.119-0.387,1.742c0,2.295,1.86,4.155,4.154,4.155
		c0.59,0,1.15-0.124,1.658-0.346c-0.274,1.121-0.087,2.351,0.627,3.371c1.222,1.746,3.542,2.263,5.372,1.275
		c0.103,0.575,0.324,1.138,0.682,1.648c1.316,1.88,3.906,2.337,5.786,1.022c0.184-0.129,0.35-0.272,0.506-0.424
		c0.101,0.217,0.219,0.43,0.361,0.633c1.315,1.881,3.905,2.338,5.786,1.023c0.374-0.261,0.688-0.575,0.946-0.921
		c1.337,1.792,3.862,2.211,5.706,0.921c0.22-0.153,0.419-0.327,0.6-0.514c1.859,1.146,4.31,0.659,5.578-1.153
		c0.356-0.509,0.578-1.07,0.682-1.643c1.734,0.654,3.756,0.087,4.868-1.502c0.607-0.866,0.832-1.884,0.718-2.858
		c0.422,0.144,0.872,0.226,1.342,0.226c2.294,0,4.154-1.86,4.154-4.154c0-0.623-0.141-1.212-0.387-1.742
		c2.065-0.239,3.671-1.993,3.671-4.124C60.047,38.197,58.187,36.337,55.893,36.337z M35.461,33.924l-0.277,3.988
		c-0.191,2.739-1.551,3.089-3.039,0.779l-2.164-3.361c-1.043-1.619-1.006-3.261-0.083-4.308c-0.941-0.234-2.973-0.879-2.4-1.975
		c0.425-0.813,1.552-0.581,2.433-0.237c-0.243-0.853-0.321-1.832,0.442-2.179c0.829-0.376,1.336,0.646,1.62,1.591
		c0.603-0.7,1.446-1.379,2.183-0.889c0.942,0.627-0.208,1.971-0.956,2.7C34.672,30.412,35.603,31.889,35.461,33.924z"/>
	<circle cx="31.168" cy="33.176" r="0.688"/>
	<circle cx="33.293" cy="32.488" r="0.688"/>
</g>
</svg>
