<?xml version="1.0" encoding="utf-8"?>
<!-- Generator: Adobe Illustrator 17.0.2, SVG Export Plug-In . SVG Version: 6.00 Build 0)  -->
<!DOCTYPE svg PUBLIC "-//W3C//DTD SVG 1.1//EN" "http://www.w3.org/Graphics/SVG/1.1/DTD/svg11.dtd">
<svg version="1.1" id="Capa_1" xmlns="http://www.w3.org/2000/svg" xmlns:xlink="http://www.w3.org/1999/xlink" x="0px" y="0px"
	 width="64px" height="64px" viewBox="0 0 64 64" enable-background="new 0 0 64 64" xml:space="preserve">
<g>
	<path d="M29.603,30.233l0.373-0.534c0.277-0.397,0.717-0.39,0.982,0.015l0.659,1.007c0.265,0.405,0.506,0.343,0.54-0.141
		l0.13-1.836c0.034-0.483,0.404-0.681,0.824-0.442l1.322,0.751c0.42,0.24,0.611,0.07,0.427-0.377l-0.441-1.068
		c-0.184-0.448,0.053-0.875,0.53-0.955l0.5-0.084c0.479-0.08,0.564-0.401,0.132-0.62c-1.245-0.625-2.505-0.415-3.431-0.073
		l-0.86-1.291c-0.241-0.363-0.731-0.461-1.094-0.22c-0.363,0.242-0.461,0.732-0.221,1.095l0.786,1.179
		c-0.641,0.535-1.828,1.759-1.786,3.446C28.986,30.57,29.326,30.629,29.603,30.233z"/>
	<path d="M36.184,26.338c0,0.023-0.003,0.042-0.005,0.057c-0.037,0.25-0.272,0.434-0.626,0.493l-0.499,0.083
		c-0.151,0.024-0.268,0.099-0.329,0.208c-0.061,0.108-0.061,0.246-0.002,0.387l0.44,1.068c0.115,0.281,0.122,0.505,0.014,0.665
		c-0.08,0.12-0.209,0.185-0.364,0.185c-0.132,0-0.282-0.048-0.45-0.143l-1.321-0.751c-0.077-0.043-0.15-0.067-0.215-0.067
		c-0.171,0-0.209,0.187-0.218,0.298l-0.128,1.837c-0.043,0.588-0.351,0.653-0.482,0.653c-0.191,0-0.375-0.13-0.543-0.387
		l-0.659-1.006c-0.077-0.123-0.175-0.19-0.273-0.19c-0.094,0-0.189,0.065-0.272,0.181l-0.373,0.535
		c-0.166,0.241-0.376,0.374-0.585,0.374c-0.06,0-0.126-0.013-0.188-0.039c0.083,0.4,0.234,0.821,0.479,1.262
		c1.871,3.392,5.438,4.679,7.193,3.684c1.754-0.994,2.777-5.175,0.584-8.188C36.984,27.02,36.586,26.629,36.184,26.338z
		 M32.298,33.494c-0.161-0.058-0.406-0.158-0.471-0.242c-0.098-0.13-0.066-0.32,0.071-0.425c0.138-0.105,0.33-0.085,0.429,0.045
		c0.065,0.084,0.097,0.346,0.108,0.517C32.443,33.476,32.38,33.523,32.298,33.494z M34.818,31.649
		c-0.071,0.077-0.326,0.15-0.494,0.19c-0.084,0.021-0.143-0.035-0.126-0.12c0.032-0.168,0.092-0.426,0.167-0.503
		c0.109-0.117,0.303-0.116,0.429,0.004C34.921,31.34,34.932,31.533,34.818,31.649z M35.353,34.789
		c-0.05,0.072-0.13,0.069-0.174-0.005c-0.09-0.146-0.217-0.377-0.214-0.484c0.004-0.163,0.148-0.29,0.323-0.285
		c0.172,0.004,0.311,0.141,0.306,0.303C35.591,34.423,35.45,34.647,35.353,34.789z M37.489,32.906
		c-0.09,0.054-0.356,0.055-0.526,0.048c-0.087-0.003-0.129-0.072-0.09-0.149c0.078-0.155,0.203-0.386,0.296-0.44
		c0.14-0.082,0.325-0.028,0.413,0.12C37.671,32.635,37.629,32.822,37.489,32.906z M37.389,30.568
		c-0.154,0.08-0.394,0.191-0.497,0.182c-0.162-0.016-0.281-0.168-0.264-0.34c0.017-0.173,0.16-0.301,0.323-0.286
		c0.104,0.01,0.318,0.166,0.453,0.272C37.472,30.449,37.465,30.53,37.389,30.568z"/>
	<path d="M57.262,10.678c0-2.225-3.206-4.028-7.16-4.028H17.952c-3.954,0-7.16,1.803-7.16,4.028v4.027h46.47
		C57.262,14.705,57.262,12.902,57.262,10.678z"/>
	<path d="M54.461,17.092H13.59v35.449c0,3.954,3.206,7.16,7.16,7.16h26.551c3.954,0,7.16-3.206,7.16-7.16V17.092z M50.137,34.097
		c0,0.988-0.792,1.918-1.773,2.049c-2.633,0.351-7.956,0.933-14.232,0.933c-6.313,0-11.763-0.589-14.443-0.94
		c-0.979-0.128-1.771-1.055-1.771-2.043V22.91c0-0.989,0.784-1.635,1.76-1.471c2.805,0.469,8.567,1.279,14.455,1.172
		c5.851-0.106,11.477-0.816,14.237-1.216c0.977-0.143,1.768,0.527,1.768,1.516V34.097z"/>
</g>
</svg>
