<?xml version="1.0" encoding="utf-8"?>
<!-- Generator: Adobe Illustrator 17.0.2, SVG Export Plug-In . SVG Version: 6.00 Build 0)  -->
<!DOCTYPE svg PUBLIC "-//W3C//DTD SVG 1.1//EN" "http://www.w3.org/Graphics/SVG/1.1/DTD/svg11.dtd">
<svg version="1.1" id="Capa_1" xmlns="http://www.w3.org/2000/svg" xmlns:xlink="http://www.w3.org/1999/xlink" x="0px" y="0px"
	 width="64px" height="64px" viewBox="0 0 64 64" enable-background="new 0 0 64 64" xml:space="preserve">
<g>
	<path d="M51.841,30.62l-3.706,5H29.878l1.186,2.709h19.672l2.92-8.996C52.963,29.553,52.31,29.988,51.841,30.62z"/>
	<path d="M56.734,48.493H6.096c-1.125,0-2.036,0.912-2.036,2.036s0.911,2.036,2.036,2.036h50.639c1.125,0,2.036-0.912,2.036-2.036
		S57.859,48.493,56.734,48.493z"/>
	<path d="M58.228,33.918c0.131-1.682-0.977-3.657-2.256-4.403c-0.065-0.038-0.138-0.059-0.205-0.091l-3.324,10.237
		c-0.136,0.419-0.527,0.704-0.969,0.704H30.396c-0.404,0-0.771-0.24-0.933-0.61l-1.808-4.135h-0.037v-7.726h4.577
		c0.844,0,1.527-0.684,1.527-1.527c0-0.844-0.684-1.527-1.527-1.527H19.988c-0.844,0-1.527,0.684-1.527,1.527
		c0,0.843,0.684,1.527,1.527,1.527h4.576v7.833c-4.252,0.419-16.018,2.458-17.174,12.232h46.398
		C53.789,47.959,57.625,41.696,58.228,33.918z"/>
</g>
</svg>
