<?xml version="1.0" encoding="utf-8"?>
<!-- Generator: Adobe Illustrator 17.0.2, SVG Export Plug-In . SVG Version: 6.00 Build 0)  -->
<!DOCTYPE svg PUBLIC "-//W3C//DTD SVG 1.1//EN" "http://www.w3.org/Graphics/SVG/1.1/DTD/svg11.dtd">
<svg version="1.1" id="Capa_1" xmlns="http://www.w3.org/2000/svg" xmlns:xlink="http://www.w3.org/1999/xlink" x="0px" y="0px"
	 width="64px" height="64px" viewBox="0 0 64 64" enable-background="new 0 0 64 64" xml:space="preserve">
<g>
	<path d="M21.188,40.921h26.961c1.767,0,3.199-1.432,3.199-3.199s-1.433-3.2-3.199-3.2H21.188c-1.767,0-3.199,1.433-3.199,3.2
		S19.421,40.921,21.188,40.921z"/>
	<rect x="21.188" y="42.092" width="26.961" height="8.981"/>
	<path d="M21.188,23.091h26.961c0.006,0,0.013,0,0.018,0c1.011,0,1.828-0.819,1.828-1.829c0-0.487-0.19-0.93-0.501-1.257
		l-4.479-6.131c-0.046-0.063-0.104-0.113-0.158-0.169c0.165-0.274,0.267-0.593,0.267-0.937V9.855c0-2.614-2.128-4.741-4.741-4.741
		H28.956c-2.613,0-4.741,2.127-4.741,4.741v2.913c0,0.409,0.14,0.783,0.366,1.087l-4.842,6.292
		c-0.425,0.552-0.499,1.297-0.191,1.922C19.855,22.695,20.491,23.091,21.188,23.091z"/>
	<rect x="21.188" y="24.371" width="26.961" height="8.981"/>
	<path d="M21.188,58.399h26.961c1.767,0,3.199-1.433,3.199-3.2c0-1.767-1.433-3.199-3.199-3.199H21.188
		c-1.767,0-3.199,1.432-3.199,3.199C17.988,56.966,19.421,58.399,21.188,58.399z"/>
</g>
</svg>
