<?xml version="1.0" encoding="utf-8"?>
<!-- Generator: Adobe Illustrator 17.0.2, SVG Export Plug-In . SVG Version: 6.00 Build 0)  -->
<!DOCTYPE svg PUBLIC "-//W3C//DTD SVG 1.1//EN" "http://www.w3.org/Graphics/SVG/1.1/DTD/svg11.dtd">
<svg version="1.1" id="Capa_1" xmlns="http://www.w3.org/2000/svg" xmlns:xlink="http://www.w3.org/1999/xlink" x="0px" y="0px"
	 width="64px" height="64px" viewBox="0 0 64 64" enable-background="new 0 0 64 64" xml:space="preserve">
<g>
	<path d="M60.562,33.254c-2.133-4.843-5.515-5.499-5.657-5.525c-0.201-0.035-0.395-0.134-0.54-0.278
		c-0.162-0.16-4.076-3.95-9.851-2.837c-4.438,0.854-6.981,5.4-7.006,5.445c-0.087,0.158-0.216,0.292-0.372,0.383
		c-4.453,2.611-8.944,3.935-13.156,3.936c-2.619,0-5.129-0.512-7.456-1.544c-4.707-2.089-8.225-6.234-9.181-10.819
		c-0.688-3.304,0.2-6.543,1.611-9.334c-3.19,4.524-5.826,11.555-6.27,22.521v8.456c0,0,5.638,9.867,29.247,10.924
		C55.542,55.639,60.829,46.3,60.829,46.3s1.425-6.461,0.05-12.666C60.748,33.534,60.633,33.414,60.562,33.254z"/>
	<path d="M30.731,22.69c4.327-0.514,8.908,0.44,10.723,0.888c0.812-0.409,1.703-0.74,2.682-0.929
		c6.087-1.179,10.41,2.27,11.422,3.18c0.403,0.106,1.141,0.352,2.022,0.872c-0.2-0.227-0.409-0.448-0.629-0.662
		C50.081,19.344,35.634,3.486,22.067,4.543c0,0-2.432,0.03-5.573,1.553c-1.666,1.57-8.626,8.619-7.19,15.51
		c0.826,3.966,3.905,7.567,8.034,9.398c5.403,2.397,11.986,1.631,18.564-2.156c0.029-0.048,0.067-0.109,0.105-0.169
		c-5.222,1.007-7.973-0.118-11.618-2.024C20.512,24.63,25.447,23.32,30.731,22.69z"/>
</g>
</svg>
