<?xml version="1.0" encoding="utf-8"?>
<!-- Generator: Adobe Illustrator 17.0.2, SVG Export Plug-In . SVG Version: 6.00 Build 0)  -->
<!DOCTYPE svg PUBLIC "-//W3C//DTD SVG 1.1//EN" "http://www.w3.org/Graphics/SVG/1.1/DTD/svg11.dtd">
<svg version="1.1" id="Capa_1" xmlns="http://www.w3.org/2000/svg" xmlns:xlink="http://www.w3.org/1999/xlink" x="0px" y="0px"
	 width="64px" height="64px" viewBox="0 0 64 64" enable-background="new 0 0 64 64" xml:space="preserve">
<g>
	<path d="M17.676,26.503c-1.525,1.55-2.002,3.946-1.006,6.019c1.031,2.142,3.312,3.277,5.545,2.952
		c2.643,2.26,6.141,3.347,9.621,2.955l2.52,5.24c-0.365,1.732-0.125,3.775,0.807,5.714c1.852,3.851,3.353,6.972,8.666,4.417
		c5.311-2.554,3.811-5.675,1.959-9.526c-0.934-1.938-2.381-3.401-3.961-4.197l-2.52-5.24c2.479-2.474,3.812-5.885,3.697-9.36
		c1.648-1.541,2.186-4.031,1.156-6.174c-0.971-2.019-3.055-3.14-5.164-2.988c0.578-1.356,0.594-2.942-0.094-4.375
		c-1.271-2.641-4.439-3.751-7.08-2.482c-1.068,0.514-1.881,1.34-2.393,2.316c-1.451-2.135-4.281-2.95-6.678-1.797
		c-2.352,1.13-3.486,3.768-2.809,6.196c-1.012-0.147-2.072-0.005-3.061,0.469c-2.641,1.269-3.752,4.44-2.482,7.081
		C15.076,25.126,16.289,26.092,17.676,26.503z M39.9,45.634c1.467-0.706,3.227-0.088,3.932,1.378
		c0.707,1.467,0.09,3.228-1.377,3.934c-1.467,0.706-3.229,0.088-3.934-1.379C37.816,48.1,38.434,46.339,39.9,45.634z M24.289,20.007
		c1.01,0.147,2.072,0.006,3.061-0.469c1.068-0.514,1.881-1.342,2.393-2.317c1.076,1.583,2.906,2.438,4.762,2.305
		c-0.576,1.355-0.594,2.942,0.094,4.375c0.642,1.333,1.769,2.275,3.068,2.719c-0.244,2.452-1.713,4.724-4.09,5.866
		c-2.377,1.143-5.068,0.871-7.135-0.468c0.463-1.291,0.432-2.759-0.209-4.093c-0.676-1.404-1.891-2.37-3.277-2.781
		C24.269,23.809,24.803,21.851,24.289,20.007z"/>
</g>
</svg>
