<?xml version="1.0" encoding="utf-8"?>
<!-- Generator: Adobe Illustrator 17.0.2, SVG Export Plug-In . SVG Version: 6.00 Build 0)  -->
<!DOCTYPE svg PUBLIC "-//W3C//DTD SVG 1.1//EN" "http://www.w3.org/Graphics/SVG/1.1/DTD/svg11.dtd">
<svg version="1.1" id="Capa_1" xmlns="http://www.w3.org/2000/svg" xmlns:xlink="http://www.w3.org/1999/xlink" x="0px" y="0px"
	 width="64px" height="64px" viewBox="0 0 64 64" enable-background="new 0 0 64 64" xml:space="preserve">
<g>
	<path d="M55.002,33.218c-0.072,0.027-7.365,2.707-22.647,2.599c-14.954-0.1-22.047-3.31-22.17-3.366
		c-1.247-0.589-2.732-0.062-3.325,1.181c-0.596,1.246-0.069,2.738,1.177,3.334C8.11,37,8.596,37.224,9.471,37.54
		c0.017,0.038,0.025,0.076,0.044,0.113l5.979,11.691c1.699,3.322,5.753,5.778,9.496,5.778c0.065,0,0.129-0.001,0.194-0.003
		l17.288-0.4c3.789-0.088,7.846-2.748,9.437-6.188l4.933-10.666c0.001-0.003,0.002-0.007,0.003-0.01
		c1.232-0.517,1.849-1.914,1.376-3.176C57.736,33.388,56.294,32.732,55.002,33.218z"/>
	<path d="M23.831,28.999c0-2.021-1.644-3.666-3.666-3.666c-2.021,0-3.666,1.644-3.666,3.666c0,2.022,1.644,3.666,3.666,3.666
		C22.187,32.665,23.831,31.021,23.831,28.999z M17.5,28.999c0-1.47,1.196-2.666,2.666-2.666c1.47,0,2.666,1.196,2.666,2.666
		c0,1.47-1.196,2.666-2.666,2.666C18.695,31.665,17.5,30.469,17.5,28.999z"/>
	<path d="M35.96,20.948c0-2.159-1.757-3.916-3.916-3.916c-2.159,0-3.916,1.757-3.916,3.916c0,2.159,1.757,3.916,3.916,3.916
		C34.203,24.864,35.96,23.107,35.96,20.948z M29.128,20.948c0-1.607,1.308-2.916,2.916-2.916c1.608,0,2.916,1.309,2.916,2.916
		c0,1.607-1.308,2.916-2.916,2.916C30.436,23.864,29.128,22.556,29.128,20.948z"/>
	<path d="M21.831,28.959c0,0.138,0.112,0.25,0.25,0.25c0.138,0,0.25-0.112,0.25-0.25c0-1.194-0.972-2.166-2.166-2.166
		c-0.138,0-0.25,0.112-0.25,0.25s0.112,0.25,0.25,0.25C21.084,27.293,21.831,28.04,21.831,28.959z"/>
	<path d="M33.518,20.728c0,0.138,0.112,0.25,0.25,0.25c0.138,0,0.25-0.112,0.25-0.25c0-1.194-0.972-2.166-2.166-2.166
		c-0.138,0-0.25,0.112-0.25,0.25s0.112,0.25,0.25,0.25C32.77,19.062,33.518,19.81,33.518,20.728z"/>
	<path d="M50.116,23.186c0-2.159-1.757-3.916-3.916-3.916s-3.916,1.757-3.916,3.916c0,2.159,1.757,3.916,3.916,3.916
		S50.116,25.346,50.116,23.186z M43.284,23.186c0-1.607,1.308-2.916,2.916-2.916s2.916,1.309,2.916,2.916
		c0,1.607-1.308,2.916-2.916,2.916S43.284,24.794,43.284,23.186z"/>
	<path d="M47.674,22.967c0,0.138,0.112,0.25,0.25,0.25c0.138,0,0.25-0.112,0.25-0.25c0-1.194-0.972-2.166-2.166-2.166
		c-0.138,0-0.25,0.112-0.25,0.25s0.112,0.25,0.25,0.25C46.926,21.301,47.674,22.048,47.674,22.967z"/>
</g>
</svg>
