<?xml version="1.0" encoding="utf-8"?>
<!-- Generator: Adobe Illustrator 17.0.2, SVG Export Plug-In . SVG Version: 6.00 Build 0)  -->
<!DOCTYPE svg PUBLIC "-//W3C//DTD SVG 1.1//EN" "http://www.w3.org/Graphics/SVG/1.1/DTD/svg11.dtd">
<svg version="1.1" id="Capa_1" xmlns="http://www.w3.org/2000/svg" xmlns:xlink="http://www.w3.org/1999/xlink" x="0px" y="0px"
	 width="64px" height="64px" viewBox="0 0 64 64" enable-background="new 0 0 64 64" xml:space="preserve">
<g>
	<path d="M52.596,24.683c-0.095,0.009-0.186,0.045-0.262,0.104L26.806,44.65c-1.743,1.356-3.391,2.461-3.68,2.468
		c-0.173,0.004-0.348,0.008-0.525,0.012c-0.752,0.018-1.538,0.036-2.362,0.051c-3.125,0.052-5.621-0.781-7.366-2.494
		c-1.929-1.893-2.616-4.517-2.616-6.36c-0.005-0.263-0.042-6.448,7.665-7.128c4.862-0.423,6.258,1.744,6.306,1.821
		c0.045,0.079,0.1,0.151,0.163,0.215c1.299,1.299,2.014,3.024,2.014,4.86c0,1.837-0.715,3.562-2.014,4.861
		c-1,1-2.33,1.551-3.746,1.551c-1.415,0-2.746-0.551-3.747-1.552c-1.575-1.575-1.575-4.138,0-5.713
		c0.573-0.572,1.333-0.888,2.143-0.888c0.811,0,1.571,0.315,2.144,0.889c0.218,0.218,0.385,0.473,0.496,0.751
		c-0.104-0.189-0.237-0.366-0.394-0.523c-1.033-1.034-2.715-1.033-3.75-0.001c-0.579,0.579-0.897,1.349-0.897,2.167
		c0,0.818,0.319,1.588,0.897,2.166c0.676,0.677,1.575,1.05,2.532,1.05s1.855-0.372,2.532-1.049c0.798-0.798,1.237-1.858,1.237-2.987
		c0-1.129-0.439-2.19-1.237-2.987c-0.95-0.95-2.213-1.475-3.558-1.475c-1.345,0-2.608,0.523-3.558,1.474
		c-2.354,2.354-2.354,6.186,0,8.541c1.378,1.379,3.211,2.138,5.161,2.138c1.95,0,3.783-0.759,5.161-2.137
		c1.677-1.676,2.6-3.904,2.6-6.275c0-2.335-0.896-4.532-2.526-6.199c-0.441-0.643-2.556-3.182-8.133-2.689
		c-9.546,0.842-9.491,9.078-9.489,9.141c0,2.229,0.844,5.44,3.214,7.767c2.144,2.104,5.123,3.143,8.804,3.067
		c0.827-0.016,1.617-0.033,2.372-0.051c7.417-0.172,11.138-0.256,14.781,2.966c0.19,0.168,0.427,0.251,0.662,0.251
		c0.277,0,0.552-0.114,0.749-0.338c0.05-0.057,0.074-0.124,0.109-0.188c0.07-0.021,0.137-0.051,0.194-0.102l23.334-21
		c0.189-0.17,0.22-0.453,0.074-0.66C62.387,29.828,58.323,24.163,52.596,24.683z M18.95,40.389
		c-0.201-0.201-0.312-0.468-0.312-0.752c0-0.284,0.111-0.552,0.312-0.753c0.127-0.126,0.294-0.19,0.46-0.19
		c0.167,0,0.334,0.064,0.462,0.19c0.081,0.082,0.093,0.177,0.093,0.227c0,0.049-0.012,0.145-0.094,0.226
		c-0.391,0.391-0.392,1.023-0.001,1.414c0.037,0.037,0.075,0.069,0.115,0.1C19.594,40.83,19.229,40.668,18.95,40.389z"/>
	<path d="M52.454,23.269c0.083-0.064,0.144-0.154,0.174-0.255c0.048-0.163,1.125-4.048-3.155-7.716
		c-3.312-2.838-6.6-3.144-7.859-3.144c-0.392,0-0.612,0.028-0.612,0.028c-0.078,0.01-0.155,0.039-0.22,0.083l-23.39,16.005
		c6.07-0.531,8.809,2.199,9.417,2.916c1.82,1.857,2.82,4.306,2.82,6.909c0,1.147-0.206,2.261-0.579,3.311L52.454,23.269z"/>
</g>
</svg>
