<?xml version="1.0" encoding="utf-8"?>
<!-- Generator: Adobe Illustrator 17.0.2, SVG Export Plug-In . SVG Version: 6.00 Build 0)  -->
<!DOCTYPE svg PUBLIC "-//W3C//DTD SVG 1.1//EN" "http://www.w3.org/Graphics/SVG/1.1/DTD/svg11.dtd">
<svg version="1.1" id="Capa_1" xmlns="http://www.w3.org/2000/svg" xmlns:xlink="http://www.w3.org/1999/xlink" x="0px" y="0px"
	 width="64px" height="64px" viewBox="0 0 64 64" enable-background="new 0 0 64 64" xml:space="preserve">
<g>
	<path d="M54.201,19.562c1.381,0,2.5-1.119,2.5-2.5c0-1.381-1.119-2.5-2.5-2.5h-3.625v-1c0-1.381-1.119-2.5-2.5-2.5
		c-1.381,0-2.5,1.119-2.5,2.5v1h-1.972c-0.436-3.068-2.297-5.375-4.528-5.375c-1.667,0-3.124,1.292-3.938,3.222
		c-0.813-1.93-2.271-3.222-3.938-3.222s-3.124,1.292-3.938,3.222c-0.813-1.93-2.271-3.222-3.938-3.222
		c-2.232,0-4.093,2.306-4.528,5.375h-1.722v-1c0-1.381-1.119-2.5-2.5-2.5c-1.381,0-2.5,1.119-2.5,2.5v1h-1.875
		c-1.381,0-2.5,1.119-2.5,2.5c0,1.381,1.119,2.5,2.5,2.5h1.875v12.25c0,0.39,0.097,0.753,0.256,1.082
		c-2.258,2.582-3.631,5.933-3.631,9.605c0,8.146,6.716,14.75,15,14.75h17c8.284,0,15-6.604,15-14.75
		c0-4.423-1.989-8.38-5.125-11.084V19.562H54.201z M17.076,19.562h2.353c0.821,1.878,2.258,3.125,3.897,3.125
		c1.64,0,3.076-1.248,3.897-3.125h0.08c0.821,1.878,2.258,3.125,3.897,3.125c1.64,0,3.076-1.248,3.897-3.125h0.08
		c0.821,1.878,2.258,3.125,3.897,3.125c1.64,0,3.076-1.248,3.897-3.125h2.603v8.999c-1.53-0.518-3.166-0.812-4.875-0.812h-17
		c-2.382,0-4.625,0.56-6.625,1.532V19.562z M47.21,43.873c-0.761-0.284-1.573-0.459-2.433-0.459c-2.049,0-3.875,0.898-5.15,2.304
		c-1.276-1.406-3.103-2.304-5.151-2.304c-1.279,0-2.46,0.368-3.49,0.968c-1.031-0.6-2.212-0.968-3.491-0.968
		c-2.049,0-3.875,0.898-5.15,2.304c-1.276-1.406-3.103-2.304-5.151-2.304c0,0,0-1.562,0-3.491c0-1.928,6.25-3.49,13.962-3.49h2.094
		c7.712,0,13.962,1.666,13.962,3.72V43.873z"/>
</g>
</svg>
