<?xml version="1.0" encoding="utf-8"?>
<!-- Generator: Adobe Illustrator 17.0.2, SVG Export Plug-In . SVG Version: 6.00 Build 0)  -->
<!DOCTYPE svg PUBLIC "-//W3C//DTD SVG 1.1//EN" "http://www.w3.org/Graphics/SVG/1.1/DTD/svg11.dtd">
<svg version="1.1" id="Capa_1" xmlns="http://www.w3.org/2000/svg" xmlns:xlink="http://www.w3.org/1999/xlink" x="0px" y="0px"
	 width="64px" height="64px" viewBox="0 0 64 64" enable-background="new 0 0 64 64" xml:space="preserve">
<g>
	<path d="M12.176,42.635c0,8.99,7.808,16.304,17.404,16.304s17.404-7.313,17.404-16.304c0-2.222-0.489-4.336-1.351-6.266
		c2.854-3.303,4.571-7.495,4.571-12.058c0-10.614-9.252-19.25-20.625-19.25c-11.373,0-20.625,8.636-20.625,19.25
		c0,4.564,1.718,8.755,4.572,12.059C12.663,38.301,12.176,40.414,12.176,42.635z M14.165,32c0-0.829,0.672-1.5,1.5-1.5
		c0.828,0,1.5,0.671,1.5,1.5s-0.672,1.5-1.5,1.5C14.837,33.5,14.165,32.829,14.165,32z M17.165,47.507c-0.828,0-1.5-0.671-1.5-1.5
		s0.672-1.5,1.5-1.5c0.828,0,1.5,0.671,1.5,1.5S17.993,47.507,17.165,47.507z M21.666,54.167c-0.828,0-1.5-0.671-1.5-1.5
		s0.672-1.5,1.5-1.5c0.828,0,1.5,0.671,1.5,1.5S22.494,54.167,21.666,54.167z M30.332,57.167c-0.828,0-1.5-0.671-1.5-1.5
		s0.672-1.5,1.5-1.5c0.828,0,1.5,0.671,1.5,1.5S31.16,57.167,30.332,57.167z M29.58,49.939c-4.635,0-8.404-3.276-8.404-7.304
		c0-0.249,0.032-0.491,0.063-0.734c2.554,1.059,5.371,1.66,8.341,1.66s5.788-0.601,8.341-1.66c0.031,0.243,0.063,0.485,0.063,0.734
		C37.984,46.663,34.215,49.939,29.58,49.939z M38.665,53.667c-0.828,0-1.5-0.671-1.5-1.5s0.672-1.5,1.5-1.5
		c0.828,0,1.5,0.671,1.5,1.5S39.493,53.667,38.665,53.667z M46.999,24.333c0,0.829-0.672,1.5-1.5,1.5c-0.828,0-1.5-0.671-1.5-1.5
		s0.672-1.5,1.5-1.5C46.327,22.833,46.999,23.505,46.999,24.333z M43.999,15.333c0.828,0,1.5,0.671,1.5,1.5s-0.672,1.5-1.5,1.5
		c-0.828,0-1.5-0.671-1.5-1.5S43.171,15.333,43.999,15.333z M43.999,30.5c0.828,0,1.5,0.671,1.5,1.5s-0.672,1.5-1.5,1.5
		c-0.828,0-1.5-0.671-1.5-1.5S43.171,30.5,43.999,30.5z M43.165,46.007c0,0.829-0.672,1.5-1.5,1.5c-0.828,0-1.5-0.671-1.5-1.5
		s0.672-1.5,1.5-1.5C42.493,44.507,43.165,45.178,43.165,46.007z M37.165,9.667c0.828,0,1.5,0.671,1.5,1.5s-0.672,1.5-1.5,1.5
		c-0.828,0-1.5-0.671-1.5-1.5S36.337,9.667,37.165,9.667z M30.332,8.167c0.828,0,1.5,0.671,1.5,1.5s-0.672,1.5-1.5,1.5
		c-0.828,0-1.5-0.671-1.5-1.5S29.504,8.167,30.332,8.167z M22.499,9.667c0.828,0,1.5,0.671,1.5,1.5s-0.672,1.5-1.5,1.5
		c-0.828,0-1.5-0.671-1.5-1.5S21.671,9.667,22.499,9.667z M29.58,14.061c6.41,0,11.625,4.598,11.625,10.25
		c0,5.652-5.215,10.25-11.625,10.25c-6.41,0-11.625-4.598-11.625-10.25C17.955,18.659,23.17,14.061,29.58,14.061z M15.665,15.333
		c0.828,0,1.5,0.671,1.5,1.5s-0.672,1.5-1.5,1.5c-0.828,0-1.5-0.671-1.5-1.5S14.837,15.333,15.665,15.333z M12.665,24.333
		c0-0.829,0.672-1.5,1.5-1.5c0.828,0,1.5,0.671,1.5,1.5s-0.672,1.5-1.5,1.5C13.337,25.833,12.665,25.162,12.665,24.333z"/>
</g>
</svg>
