<?xml version="1.0" encoding="utf-8"?>
<!-- Generator: Adobe Illustrator 17.0.2, SVG Export Plug-In . SVG Version: 6.00 Build 0)  -->
<!DOCTYPE svg PUBLIC "-//W3C//DTD SVG 1.1//EN" "http://www.w3.org/Graphics/SVG/1.1/DTD/svg11.dtd">
<svg version="1.1" id="Capa_1" xmlns="http://www.w3.org/2000/svg" xmlns:xlink="http://www.w3.org/1999/xlink" x="0px" y="0px"
	 width="64px" height="64px" viewBox="0 0 64 64" enable-background="new 0 0 64 64" xml:space="preserve">
<g>
	<path d="M27.72,17.75c0.11,1.04,0.755,4.298,4.55,7.772c2.125-3.206,3.694-6.418,4.419-7.996c-2.331-0.3-4.176-0.019-4.176-0.019
		C30.672,17.45,29.095,17.545,27.72,17.75z"/>
	<path d="M9.696,39.335l2.128-1.021c0.88-0.466,1.149-1.093,1.133-1.715c3.571-3.685,8.044-3.457,8.044-3.457
		c-0.148,1.637-1.155,3.36-3.216,10.793c2.514-4.881,5.667-8.906,9.766-12.676c1.491-1.371,2.868-3.07,4.091-4.821
		c-4.078-3.675-4.862-7.15-5.011-8.489c-5.23,1.083-7.234,3.848-9.909,5.393c-3.049,1.762-7.394,4.703-8.463,5.432
		c-1.646-1.221-2.736,0.167-2.736,0.167l-1.178,1.665c-0.595,0.842-0.952,2.354-0.643,3.337c0.732,2.33,1.953,3.966,2.909,4.969
		C7.322,39.658,8.766,39.779,9.696,39.335z"/>
	<path d="M57.324,28.029c-0.286-0.137-0.64-0.319-1.089-0.544c-1.032-0.516-1.747-0.371-2.216-0.078
		c-0.724-0.163-6.47-1.581-10.072-6.167c-1.654-2.105-3.996-3.087-6.131-3.526c-1.078,2.408-4.674,9.901-9.52,14.354
		c-4.581,4.209-7.942,8.778-10.559,14.545c-0.042-0.001-0.08-0.013-0.122-0.013c-2.098,0-3.797,1.7-3.797,3.798
		s1.7,3.798,3.797,3.798c1.314,0,2.472-0.669,3.154-1.683c0.681,1.014,1.839,1.683,3.153,1.683c1.314,0,2.472-0.669,3.153-1.683
		c0.682,1.014,1.84,1.683,3.154,1.683c1.314,0,2.472-0.669,3.154-1.683c0.681,1.014,1.839,1.683,3.153,1.683
		c1.314,0,2.472-0.669,3.153-1.683c0.682,1.014,1.84,1.683,3.154,1.683c2.098,0,3.798-1.7,3.798-3.798
		c0-1.835-1.303-3.366-3.034-3.72c0.105-5.438-0.828-12.372-0.828-12.372c2.216,2.217,6.767,2.801,6.767,2.801
		c0.055-0.045,1.81,0.993,2.696,1.168c1.011,0.201,2.463-0.424,3.132-1.207c2.062-2.419,2.758-4.491,2.963-5.881
		C58.488,30.168,58.519,28.602,57.324,28.029z M40.18,29.279L40.18,29.279l-0.001,0.003c-0.003,0.009-0.007,0.017-0.011,0.024
		c-0.124,0.275-1.501,3.243-2.941,3.243c-1.379,0-2.702-2.635-2.969-3.2c-0.013-0.028-0.027-0.055-0.039-0.083
		c-0.006-0.014-0.013-0.028-0.013-0.028h0.003c-0.082-0.212-0.131-0.441-0.131-0.683c0-1.047,0.848-1.895,1.895-1.895
		c0.472,0,0.896,0.178,1.228,0.462c0.332-0.284,0.757-0.462,1.229-0.462c1.046,0,1.895,0.848,1.895,1.895
		C40.325,28.81,40.273,29.055,40.18,29.279z"/>
</g>
</svg>
