<?xml version="1.0" encoding="utf-8"?>
<!-- Generator: Adobe Illustrator 17.0.2, SVG Export Plug-In . SVG Version: 6.00 Build 0)  -->
<!DOCTYPE svg PUBLIC "-//W3C//DTD SVG 1.1//EN" "http://www.w3.org/Graphics/SVG/1.1/DTD/svg11.dtd">
<svg version="1.1" id="Capa_1" xmlns="http://www.w3.org/2000/svg" xmlns:xlink="http://www.w3.org/1999/xlink" x="0px" y="0px"
	 width="64px" height="64px" viewBox="0 0 64 64" enable-background="new 0 0 64 64" xml:space="preserve">
<g>
	<path d="M33.044,46.542v1.624h-2.175v-1.625c-0.833,0.295-1.413,0.909-1.413,1.625c0,0.999,1.121,1.812,2.5,1.812
		s2.5-0.813,2.5-1.812C34.456,47.451,33.877,46.836,33.044,46.542z"/>
	<path d="M50.249,31.896c-0.209,0-0.406,0.035-0.609,0.062c-2.043-7.845-9.154-13.645-17.639-13.645
		c-0.967,0-1.913,0.085-2.838,0.229c-0.453,0.358-0.892,0.739-1.304,1.151c-1.31,1.31-2.031,3.05-2.031,4.902
		c0,1.852,0.721,3.592,2.03,4.901c1.01,1.01,2.352,1.565,3.78,1.565h0.001c1.428,0,2.77-0.556,3.779-1.565
		c1.59-1.59,1.59-4.176,0-5.766c-1.195-1.194-3.138-1.193-4.329,0c-0.425,0.425-0.659,0.989-0.659,1.59
		c0,0.602,0.234,1.166,0.659,1.591c0.603,0.604,1.655,0.606,2.262,0c0.391-0.391,1.023-0.391,1.414,0
		c0.391,0.391,0.391,1.023,0,1.414c-1.359,1.36-3.73,1.358-5.09,0c-0.803-0.802-1.245-1.869-1.245-3.005
		c0-1.135,0.442-2.202,1.245-3.004c1.973-1.975,5.185-1.975,7.157,0c2.369,2.369,2.369,6.225,0,8.594
		c-1.432,1.433-3.312,2.148-5.193,2.148c-1.881,0-3.763-0.716-5.195-2.148c-1.688-1.688-2.616-3.93-2.616-6.316
		c0-1.819,0.544-3.554,1.549-5.023c-5.393,2.11-9.537,6.705-11.017,12.386c-0.201-0.026-0.4-0.062-0.609-0.062
		c-2.576,0-4.666,2.089-4.666,4.666s2.09,4.666,4.666,4.666c0.209,0,0.408-0.035,0.609-0.061
		c2.043,7.845,9.156,13.644,17.641,13.644s15.596-5.8,17.639-13.644c0.203,0.026,0.4,0.061,0.609,0.061
		c2.578,0,4.666-2.089,4.666-4.666S52.827,31.896,50.249,31.896z M26.069,39.062c-1.517,0-2.75,0.925-2.75,2.062
		c0,0.276-0.224,0.5-0.5,0.5c-0.276,0-0.5-0.224-0.5-0.5c0-1.689,1.683-3.062,3.75-3.062c2.067,0,3.75,1.374,3.75,3.062
		c0,0.276-0.224,0.5-0.5,0.5c-0.276,0-0.5-0.224-0.5-0.5C28.819,39.987,27.586,39.062,26.069,39.062z M31.956,50.478
		c-1.654,0-3-1.037-3-2.312c0-1.275,1.346-2.312,3-2.312c1.654,0,3,1.037,3,2.312C34.956,49.441,33.61,50.478,31.956,50.478z
		 M41.721,41.625c-0.276,0-0.5-0.224-0.5-0.5c0-1.138-1.233-2.062-2.75-2.062s-2.75,0.925-2.75,2.062c0,0.276-0.224,0.5-0.5,0.5
		c-0.276,0-0.5-0.224-0.5-0.5c0-1.689,1.683-3.062,3.75-3.062c2.067,0,3.75,1.374,3.75,3.062
		C42.221,41.401,41.997,41.625,41.721,41.625z"/>
</g>
</svg>
