<?xml version="1.0" encoding="utf-8"?>
<!-- Generator: Adobe Illustrator 17.0.2, SVG Export Plug-In . SVG Version: 6.00 Build 0)  -->
<!DOCTYPE svg PUBLIC "-//W3C//DTD SVG 1.1//EN" "http://www.w3.org/Graphics/SVG/1.1/DTD/svg11.dtd">
<svg version="1.1" id="Capa_1" xmlns="http://www.w3.org/2000/svg" xmlns:xlink="http://www.w3.org/1999/xlink" x="0px" y="0px"
	 width="64px" height="64px" viewBox="0 0 64 64" enable-background="new 0 0 64 64" xml:space="preserve">
<g>
	<ellipse transform="matrix(-0.4443 -0.8959 0.8959 -0.4443 -17.733 100.1492)" cx="22.196" cy="55.575" rx="5.813" ry="4.069"/>
	<path d="M15.215,38.596c-3.054,3.748-4.121,7.938-2.378,9.358c0.926,0.756,2.461,0.568,4.154-0.331
		c0.042,1.046,0.18,2.066,0.43,3.045c0.373-0.449,0.801-0.837,1.315-1.092c0.572-0.283,1.196-0.428,1.854-0.428
		c2.292,0,4.62,1.709,5.932,4.353c0.795,1.603,1.102,3.344,0.866,4.903c-0.129,0.849-0.42,1.608-0.843,2.236
		c1.503,0.533,3.112,0.837,4.797,0.837c1.567,0,3.071-0.259,4.484-0.722c-0.471-0.652-0.806-1.444-0.943-2.351
		c-0.236-1.559,0.071-3.3,0.866-4.903c1.312-2.644,3.64-4.353,5.932-4.353c0.658,0,1.282,0.145,1.854,0.428
		c0.659,0.326,1.212,0.831,1.631,1.467c0.308-1.077,0.493-2.206,0.542-3.37c1.656,0.856,3.152,1.023,4.061,0.281
		c1.742-1.42,0.676-5.61-2.378-9.358c-3.055-3.748-6.944-5.636-8.686-4.215c-0.081,0.066-0.127,0.168-0.196,0.245
		c-0.01-0.005-0.02-0.012-0.03-0.018c-1.931,1.538-4.429,2.472-7.159,2.472c-2.721,0-5.212-0.927-7.142-2.456
		c-0.02,0.011-0.038,0.024-0.057,0.035c-0.077-0.09-0.129-0.203-0.222-0.278C22.16,32.96,18.271,34.848,15.215,38.596z"/>
	<ellipse transform="matrix(0.4442 -0.8959 0.8959 0.4442 -27.3792 67.0139)" cx="40.324" cy="55.575" rx="5.813" ry="4.07"/>
	<path d="M45.112,5.887c-0.085-1.281-1.306-1.983-2.43-1.362c-2.685,1.485-6.822,5.734-8.586,13.382
		c-0.88-0.238-1.81-0.372-2.773-0.372c-0.949,0-1.864,0.131-2.733,0.363C26.823,10.256,22.69,6.01,20.005,4.525
		c-1.125-0.622-2.346,0.081-2.431,1.362c-0.517,7.881,5.115,13.636,6.32,14.773c-1.538,1.619-2.478,3.739-2.478,6.067
		c0,5.076,4.435,9.19,9.905,9.19c5.471,0,9.905-4.115,9.905-9.19c0-2.318-0.932-4.43-2.458-6.046
		C39.921,19.6,45.632,13.823,45.112,5.887z M21.979,12.652c0.039-0.586,0.598-0.908,1.113-0.623c1.256,0.695,3.21,2.707,3.985,6.355
		l-2.095,1.131C24.982,19.515,21.715,16.69,21.979,12.652z M27.973,27.421c-0.724,0-1.309-0.558-1.309-1.247
		c0-0.69,0.585-1.248,1.309-1.248c0.723,0,1.308,0.558,1.308,1.248C29.28,26.863,28.695,27.421,27.973,27.421z M31.655,31.011
		c-0.857,0-1.551-0.456-1.551-1.018c0-0.562,0.694-1.017,1.551-1.017c0.856,0,1.55,0.455,1.55,1.017
		C33.205,30.555,32.511,31.011,31.655,31.011z M34.948,27.421c-0.723,0-1.309-0.558-1.309-1.247c0-0.69,0.586-1.248,1.309-1.248
		c0.723,0,1.308,0.558,1.308,1.248C36.256,26.863,35.671,27.421,34.948,27.421z M37.868,19.515l-2.096-1.131
		c0.776-3.649,2.729-5.661,3.985-6.355c0.515-0.285,1.074,0.037,1.113,0.623C41.135,16.69,37.868,19.515,37.868,19.515z"/>
</g>
</svg>
