<?xml version="1.0" encoding="utf-8"?>
<!-- Generator: Adobe Illustrator 17.0.2, SVG Export Plug-In . SVG Version: 6.00 Build 0)  -->
<!DOCTYPE svg PUBLIC "-//W3C//DTD SVG 1.1//EN" "http://www.w3.org/Graphics/SVG/1.1/DTD/svg11.dtd">
<svg version="1.1" id="Capa_1" xmlns="http://www.w3.org/2000/svg" xmlns:xlink="http://www.w3.org/1999/xlink" x="0px" y="0px"
	 width="64px" height="64px" viewBox="0 0 64 64" enable-background="new 0 0 64 64" xml:space="preserve">
<g>
	<path d="M8.083,39.789c0,0.423,0.343,0.765,0.765,0.765h0.957c0,0,0,0.856,0,1.914c0,1.057,1.028,1.913,2.296,1.913h39.797
		c1.268,0,2.296-0.856,2.296-1.913v-1.914h0.957c0.422,0,0.765-0.342,0.765-0.765v-8.291H8.083V39.789z"/>
	<path d="M49.22,24.355h-6.518c-0.131-3.828-2.433-6.378-2.433-6.378s-4.464-1.786-5.995-3.189c-1.531-1.402-4.209,0.511-4.72,2.169
		c-0.51,1.657-2.806,3.571-5.995,4.72c-1.269,0.456-1.683,1.54-1.73,2.679h-7.05c-1.268,0-2.849,0.866-3.532,1.935l-2.591,4.06
		h46.685l-2.591-4.06C52.069,25.222,50.488,24.355,49.22,24.355z M47.54,29.075H16.034c-0.634,0-1.148-0.515-1.148-1.148
		c0-0.634,0.514-1.147,1.148-1.147h6.12c0.188,0.679,0.385,1.147,0.385,1.147h19.643c0.13-0.391,0.229-0.772,0.309-1.147h5.048
		c0.634,0,1.148,0.514,1.148,1.147C48.688,28.56,48.174,29.075,47.54,29.075z"/>
</g>
</svg>
