<?xml version="1.0" encoding="utf-8"?>
<!-- Generator: Adobe Illustrator 17.0.2, SVG Export Plug-In . SVG Version: 6.00 Build 0)  -->
<!DOCTYPE svg PUBLIC "-//W3C//DTD SVG 1.1//EN" "http://www.w3.org/Graphics/SVG/1.1/DTD/svg11.dtd">
<svg version="1.1" id="Capa_1" xmlns="http://www.w3.org/2000/svg" xmlns:xlink="http://www.w3.org/1999/xlink" x="0px" y="0px"
	 width="64px" height="64px" viewBox="0 0 64 64" enable-background="new 0 0 64 64" xml:space="preserve">
<g>
	<path d="M6.578,36.742c0,2.721,1.122,5.276,3.088,7.498l2.843,5.6c1.102,4.139,5.483,7.507,9.768,7.507h17
		c4.315,0,8.868-3.171,10.364-7.22l5.133-9.189l-0.019,0.021c0.836-1.342,1.324-2.755,1.324-4.218c0-3.667-2.038-7.035-5.438-9.688
		c0.87-0.891,2.352-2.741,2.276-4.966c-0.061-1.759-1.049-3.327-2.94-4.662c-4.874-3.442-10.323,1.035-12.85,4.248
		c-1.861-0.28-3.801-0.432-5.799-0.432c-2.311,0-4.546,0.203-6.669,0.574c-2.476-3.221-8.012-7.884-12.959-4.39
		c-1.891,1.335-2.879,2.903-2.94,4.662c-0.091,2.684,2.088,4.829,2.72,5.394C8.401,30.065,6.578,33.27,6.578,36.742z M36.759,23.776
		c0.684,0,1.236,0.554,1.236,1.237s-0.553,1.237-1.236,1.237s-1.236-0.554-1.236-1.237S36.075,23.776,36.759,23.776z M23.169,24.088
		c0.684,0,1.236,0.554,1.236,1.237s-0.553,1.237-1.236,1.237c-0.683,0-1.236-0.554-1.236-1.237S22.485,24.088,23.169,24.088z
		 M12.277,26.848L12.277,26.848C12.277,26.848,12.277,26.849,12.277,26.848L12.277,26.848z M31.328,28.075
		c11.243,0,20.051,4.743,20.051,10.799c0,6.056-8.808,10.799-20.051,10.799c-11.243,0-20.051-4.744-20.051-10.799
		C11.277,32.818,20.085,28.075,31.328,28.075z"/>
	<path d="M31.328,47.673c9.784,0,18.051-4.03,18.051-8.799c0-4.769-8.267-8.799-18.051-8.799c-9.784,0-18.051,4.029-18.051,8.799
		C13.277,43.644,21.544,47.673,31.328,47.673z M31.575,32.676c8.42,0,15.016,3.352,15.016,7.633h-1
		c0-3.595-6.418-6.633-14.016-6.633c-7.599,0-14.018,3.038-14.018,6.633h-1C16.558,36.028,23.154,32.676,31.575,32.676z"/>
</g>
</svg>
