<?xml version="1.0" encoding="utf-8"?>
<!-- Generator: Adobe Illustrator 17.0.2, SVG Export Plug-In . SVG Version: 6.00 Build 0)  -->
<!DOCTYPE svg PUBLIC "-//W3C//DTD SVG 1.1//EN" "http://www.w3.org/Graphics/SVG/1.1/DTD/svg11.dtd">
<svg version="1.1" id="Capa_1" xmlns="http://www.w3.org/2000/svg" xmlns:xlink="http://www.w3.org/1999/xlink" x="0px" y="0px"
	 width="64px" height="64px" viewBox="0 0 64 64" enable-background="new 0 0 64 64" xml:space="preserve">
<g>
	<path d="M15.046,14.596c-0.429,0.348-0.495,0.977-0.147,1.407c0.348,0.428,0.977,0.494,1.407,0.147
		c2.444-1.981,5.515-2.892,8.642-2.565c3.129,0.327,5.943,1.854,7.924,4.298c0.198,0.244,0.486,0.37,0.777,0.37
		c0.221,0,0.444-0.073,0.629-0.223c0.429-0.348,0.495-0.978,0.147-1.407C29.641,10.721,20.947,9.812,15.046,14.596z"/>
	<path d="M14.103,13.432c3.17-2.569,7.149-3.75,11.209-3.326c4.058,0.425,7.708,2.404,10.277,5.574
		c0.198,0.244,0.486,0.371,0.777,0.371c0.221,0,0.444-0.073,0.629-0.223c0.429-0.348,0.495-0.978,0.147-1.406
		c-2.905-3.585-7.033-5.824-11.623-6.304c-4.586-0.479-9.091,0.856-12.677,3.762c-0.429,0.348-0.495,0.978-0.147,1.407
		C13.044,13.713,13.672,13.778,14.103,13.432z"/>
	<path d="M27.001,38.234l6.173,7.617c0.043,1.723,0.728,3.605,2.048,5.232c2.62,3.233,4.744,5.854,9.203,2.239
		c4.46-3.615,2.336-6.235-0.285-9.468c-1.319-1.628-3.018-2.688-4.695-3.087l-6.173-7.616c2.32-3.98,2.079-9.143-0.993-12.933
		c-3.969-4.895-11.151-5.647-16.047-1.679c-4.896,3.967-5.647,11.151-1.679,16.047C17.625,38.378,22.627,39.682,27.001,38.234z
		 M39.294,46.052c1.362-0.655,2.998-0.082,3.653,1.28c0.655,1.362,0.082,2.999-1.28,3.654c-1.362,0.655-2.998,0.082-3.653-1.281
		C37.358,48.342,37.931,46.706,39.294,46.052z M18.03,29.055l2.768-2.245l-1.279-3.326c-0.358-0.935,0.03-1.25,0.87-0.705
		l2.989,1.94l2.769-2.245c0.776-0.629,1.197-0.356,0.939,0.61l-0.922,3.443l2.99,1.94c0.84,0.543,0.71,1.028-0.289,1.081
		l-3.559,0.187l-0.921,3.443c-0.26,0.966-0.76,0.993-1.118,0.059l-1.278-3.327L18.431,30.1
		C17.432,30.152,17.252,29.685,18.03,29.055z"/>
</g>
</svg>
