<?xml version="1.0" encoding="utf-8"?>
<!-- Generator: Adobe Illustrator 17.0.2, SVG Export Plug-In . SVG Version: 6.00 Build 0)  -->
<!DOCTYPE svg PUBLIC "-//W3C//DTD SVG 1.1//EN" "http://www.w3.org/Graphics/SVG/1.1/DTD/svg11.dtd">
<svg version="1.1" id="Capa_1" xmlns="http://www.w3.org/2000/svg" xmlns:xlink="http://www.w3.org/1999/xlink" x="0px" y="0px"
	 width="64px" height="64px" viewBox="0 0 64 64" enable-background="new 0 0 64 64" xml:space="preserve">
<g>
	<path d="M36.285,23.964c0.967,0.102,1.704-0.21,2.269-0.777c0.142,0.133,0.286,0.263,0.441,0.382v14.523
		c0,0.582,0.434,1.058,0.993,1.135v0.644v2.204h0.02c0,0-1.693,1.92-1.693,4.352c0,2.425,2.328,5.863,4.245,5.887
		c1.914-0.023,4.243-3.462,4.243-5.887c0-2.432-1.846-4.352-1.846-4.352v-2.832h0.013c0.637,0,1.152-0.516,1.152-1.152V23.569
		c0.217-0.167,0.413-0.355,0.603-0.552c0.582,0.675,1.369,1.058,2.429,0.947c4.143-0.436,0.856-6.924-0.586-9.442
		c-0.317-0.552-1.106-1.011-1.743-1.039l-0.41-0.018c-0.372-0.017-0.717,0.147-0.95,0.41c-0.856-0.493-1.848-0.779-2.907-0.779
		c-0.974,0-1.891,0.241-2.699,0.662c-0.225-0.194-0.523-0.307-0.836-0.293l-0.41,0.018c-0.637,0.028-1.426,0.487-1.742,1.039
		C35.43,17.04,32.142,23.528,36.285,23.964z M45.209,46.266c0.002-0.106,0.079-0.181,0.196-0.187
		c0.106,0.002,0.189,0.09,0.188,0.196c-0.09,3.627-2.779,4.646-2.807,4.655c-0.021,0.008-0.044,0.012-0.065,0.012
		c-0.078,0-0.152-0.048-0.18-0.126c-0.037-0.1,0.014-0.21,0.114-0.247C42.755,50.533,45.125,49.622,45.209,46.266z M44.376,16.83
		c0.354,0,0.64,0.287,0.64,0.64c0,0.353-0.286,0.64-0.64,0.64s-0.64-0.287-0.64-0.64C43.736,17.117,44.022,16.83,44.376,16.83z
		 M42.579,19.71c0.655,0,1.185,0.244,1.185,0.544s-0.529,0.543-1.185,0.543c-0.654,0-1.184-0.243-1.184-0.543
		S41.925,19.71,42.579,19.71z M40.792,16.83c0.354,0,0.64,0.287,0.64,0.64c0,0.353-0.286,0.64-0.64,0.64s-0.641-0.287-0.641-0.64
		C40.151,17.117,40.438,16.83,40.792,16.83z"/>
	<path d="M16.033,24.01c0.971,0.102,1.712-0.211,2.279-0.78c0.143,0.134,0.288,0.264,0.443,0.384v14.584
		c0,0.585,0.434,1.062,0.997,1.141v0.442H16.99c-1.104,0-2,0.895-2,2v6.407c0,1.104,0.896,2,2,2s2-0.896,2-2v-3.407
		c0-0.552,0.296-1,0.66-1c0.364,0,0.66,0.448,0.66,1l0.001,6.756c0,1.105,0.896,2,2,2c1.105,0,2-0.896,2-2l-0.001-6.756
		c0-0.552,0.296-1,0.66-1c0.365,0,0.661,0.448,0.661,1v3.407c0,1.104,0.896,2,2,2s2-0.896,2-2v-6.407c0-1.105-0.896-2-2-2h-2.908
		v-0.426c0.673,0,1.19-0.518,1.19-1.157V23.614c0.217-0.167,0.415-0.357,0.605-0.554c0.586,0.678,1.376,1.062,2.44,0.951
		c4.161-0.437,0.86-6.954-0.589-9.483c-0.317-0.554-1.111-1.015-1.749-1.043l-0.414-0.019c-0.372-0.016-0.719,0.148-0.953,0.413
		c-0.86-0.495-1.856-0.783-2.919-0.783c-0.979,0-1.9,0.241-2.711,0.665c-0.227-0.194-0.524-0.308-0.839-0.295l-0.413,0.019
		c-0.639,0.028-1.433,0.489-1.751,1.043C15.174,17.057,11.873,23.573,16.033,24.01z M24.159,16.846c0.354,0,0.643,0.288,0.643,0.643
		c0,0.355-0.288,0.643-0.643,0.643c-0.355,0-0.644-0.288-0.644-0.643C23.516,17.134,23.804,16.846,24.159,16.846z M22.354,19.739
		c0.657,0,1.189,0.245,1.189,0.546c0,0.301-0.531,0.546-1.189,0.546s-1.19-0.245-1.19-0.546
		C21.165,19.983,21.697,19.739,22.354,19.739z M20.56,16.846c0.354,0,0.643,0.288,0.643,0.643c0,0.355-0.288,0.643-0.643,0.643
		c-0.355,0-0.643-0.288-0.643-0.643C19.917,17.134,20.204,16.846,20.56,16.846z"/>
</g>
</svg>
