<?xml version="1.0" encoding="utf-8"?>
<!-- Generator: Adobe Illustrator 17.0.2, SVG Export Plug-In . SVG Version: 6.00 Build 0)  -->
<!DOCTYPE svg PUBLIC "-//W3C//DTD SVG 1.1//EN" "http://www.w3.org/Graphics/SVG/1.1/DTD/svg11.dtd">
<svg version="1.1" id="Capa_1" xmlns="http://www.w3.org/2000/svg" xmlns:xlink="http://www.w3.org/1999/xlink" x="0px" y="0px"
	 width="64px" height="64px" viewBox="0 0 64 64" enable-background="new 0 0 64 64" xml:space="preserve">
<g>
	<path d="M29.972,16.865c0,2.931,2.375,5.307,5.307,5.307c0.696,0,1.359-0.138,1.968-0.381l7.879-1.798
		c1.837-0.419,3.325-1.735,3.325-2.938c0-1.204-1.519-2.337-3.393-2.532l-5.334-0.553c-0.947-1.451-2.583-2.412-4.445-2.412
		C32.347,11.558,29.972,13.934,29.972,16.865z"/>
	<path d="M25.584,16.716c0,1.207,0.292,2.342,0.799,3.351C18.31,28.159,14.73,38.443,13.55,42.56
		c-2.791,1.237-4.74,4.027-4.74,7.276v4.597h1.376c-0.185-0.648-0.291-1.33-0.291-2.038c0-4.082,3.31-7.392,7.392-7.392
		c4.083,0,7.393,3.31,7.393,7.392c0,0.708-0.106,1.39-0.291,2.038h15.224c-0.185-0.648-0.291-1.33-0.291-2.038
		c0-4.082,3.31-7.392,7.392-7.392c4.082,0,7.392,3.31,7.392,7.392c0,0.708-0.106,1.39-0.291,2.038h1.377v-8.785
		c-1.209-2.857-4.208-4.861-9.041-4.861c-2.245,0-4.272,0.929-5.72,2.424c0,0-3.899,4.162-10.012,4.068
		c-2.716-0.042-4.723-1.037-5.879-1.808c1.274-7.341,5.952-18,7.477-21.351c0.346,0.049,0.696,0.083,1.056,0.083
		c1.799,0,3.448-0.635,4.739-1.692L37.419,22.6c-0.727,0.281-1.489,0.423-2.264,0.423c-3.478,0-6.307-2.83-6.307-6.307
		c0-3.478,2.829-6.308,6.307-6.308c1.005,0,1.973,0.24,2.84,0.678c-1.317-1.153-3.037-1.857-4.925-1.857
		C28.935,9.229,25.584,12.581,25.584,16.716z"/>
	<circle cx="17.227" cy="52.5" r="6"/>
	<circle cx="46.81" cy="52.5" r="6"/>
</g>
</svg>
