<?xml version="1.0" encoding="utf-8"?>
<!-- Generator: Adobe Illustrator 17.0.2, SVG Export Plug-In . SVG Version: 6.00 Build 0)  -->
<!DOCTYPE svg PUBLIC "-//W3C//DTD SVG 1.1//EN" "http://www.w3.org/Graphics/SVG/1.1/DTD/svg11.dtd">
<svg version="1.1" id="Capa_1" xmlns="http://www.w3.org/2000/svg" xmlns:xlink="http://www.w3.org/1999/xlink" x="0px" y="0px"
	 width="64px" height="64px" viewBox="0 0 64 64" enable-background="new 0 0 64 64" xml:space="preserve">
<g>
	<path d="M45.896,22.347c-6.125,2.25-14.625,2.375-14.625,2.375s-8.5-0.125-14.625-2.375c0,0,1.898,3.842,2.25,6
		c0.875,5.375-3.625,11.125-0.625,25.375c0,0,2.125,4.625,13,4.625s13-4.625,13-4.625c3-14.25-1.5-20-0.625-25.375
		C43.998,26.189,45.896,22.347,45.896,22.347z"/>
	<path d="M10.351,38.413c0.896,0.646,1.69-0.159,1.562-1.256c-0.5-4.298-1.116-14.293,3.441-16.988v0.47
		c0,0,7.167,2.75,15.917,2.667h0.584c8.75,0.083,15.917-2.667,15.917-2.667V20.07c4.724,2.56,4.091,12.741,3.586,17.086
		c-0.128,1.097,0.666,1.901,1.562,1.256c1.387-1,3.045-3.377,2.996-9.024c-0.065-7.55-5.681-10.312-8.144-11.164v-2.169
		c-0.144-3.207-5.674-4.351-10.357-4.744l0.565,3.215l-0.767,0.296c-0.105,0.041-2.58,0.984-5.11,0.984
		c-2.53,0-5.006-0.943-5.11-0.984l-0.733-0.283l0.434-3.301c-4.854,0.314-11.186,1.383-11.339,4.817v2.219
		c-2.534,0.91-7.937,3.712-8,11.114C7.306,35.036,8.964,37.413,10.351,38.413z"/>
	<path d="M36.801,13.992c0,0-0.326-1.856-0.728-4.146c-0.402-2.29-1.515-4.523-2.484-4.987c-0.971-0.464-2.528-0.455-3.48,0.021
		c-0.952,0.477-1.966,2.709-2.266,4.987l-0.541,4.125c0,0,2.377,0.917,4.75,0.917C34.424,14.909,36.801,13.992,36.801,13.992z"/>
</g>
</svg>
