<?xml version="1.0" encoding="utf-8"?>
<!-- Generator: Adobe Illustrator 17.0.2, SVG Export Plug-In . SVG Version: 6.00 Build 0)  -->
<!DOCTYPE svg PUBLIC "-//W3C//DTD SVG 1.1//EN" "http://www.w3.org/Graphics/SVG/1.1/DTD/svg11.dtd">
<svg version="1.1" id="Capa_1" xmlns="http://www.w3.org/2000/svg" xmlns:xlink="http://www.w3.org/1999/xlink" x="0px" y="0px"
	 width="64px" height="64px" viewBox="0 0 64 64" enable-background="new 0 0 64 64" xml:space="preserve">
<g>
	<path d="M8.856,41.858c0.087-0.013,8.91-1.334,22.888-1.26c13.883,0.046,20.453,1.229,20.513,1.24
		c0.194,0.037,0.387,0.054,0.578,0.054c1.469,0,2.777-1.044,3.058-2.54c0.317-1.691-0.796-3.318-2.487-3.636
		c-0.099-0.019-1.018-0.185-2.769-0.393c-0.644-4.959-4.119-9.246-9.122-11.829c-0.183,0.683-0.479,1.295-0.912,1.79
		c-0.752,0.858-1.824,1.331-3.02,1.331c-0.001,0-0.001,0-0.001,0c-0.706,0-1.438-0.162-2.177-0.479l-0.604-0.26
		c-0.061-0.026-0.123-0.053-0.183-0.08c-0.993,1.229-2.503,1.976-4.109,1.976c-1.593,0-3.062-0.71-4.054-1.909
		c-0.01,0.004-0.021,0.009-0.03,0.013l-0.606,0.261c-0.737,0.317-1.469,0.479-2.175,0.479c-1.982,0-3.461-1.272-3.95-3.212
		c-5.128,2.585-8.694,6.944-9.321,11.995c-1.481,0.161-2.333,0.283-2.441,0.3c-1.701,0.256-2.872,1.841-2.616,3.542
		C5.569,40.94,7.147,42.11,8.856,41.858z"/>
	<path d="M36.18,17.498l-1.168,0.687c-0.796,0.468-1.533,0.969-2.172,1.456c-0.66-0.467-1.462-0.747-2.331-0.747
		c-0.823,0-1.587,0.249-2.226,0.671c-0.617-0.463-1.315-0.936-2.07-1.379l-1.168-0.687c-2.372-1.396-4.295-0.296-4.295,2.457v2.492
		c0,2.752,2.049,4.101,4.577,3.011l0.606-0.26c0.334-0.144,0.657-0.294,0.971-0.448c0.666,1.324,2.023,2.242,3.606,2.242
		c1.618,0,3.003-0.955,3.651-2.326c0.364,0.183,0.74,0.362,1.133,0.532l0.606,0.26c2.527,1.09,4.577-0.259,4.577-3.011v-2.492
		C40.476,17.202,38.552,16.102,36.18,17.498z"/>
</g>
</svg>
