<?xml version="1.0" encoding="utf-8"?>
<!-- Generator: Adobe Illustrator 17.0.2, SVG Export Plug-In . SVG Version: 6.00 Build 0)  -->
<!DOCTYPE svg PUBLIC "-//W3C//DTD SVG 1.1//EN" "http://www.w3.org/Graphics/SVG/1.1/DTD/svg11.dtd">
<svg version="1.1" id="Capa_1" xmlns="http://www.w3.org/2000/svg" xmlns:xlink="http://www.w3.org/1999/xlink" x="0px" y="0px"
	 width="64px" height="64px" viewBox="0 0 64 64" enable-background="new 0 0 64 64" xml:space="preserve">
<g>
	<circle cx="44.527" cy="50.972" r="4.444"/>
	<circle cx="17.443" cy="50.972" r="4.444"/>
	<circle cx="26.091" cy="31.084" r="1.924"/>
	<path d="M35.709,9.541l0.033-0.157c0.287-1.351-0.575-2.678-1.926-2.965c-1.341-0.283-2.678,0.574-2.965,1.926l-4.234,19.916
		c1.281,0.271,2.243,1.407,2.243,2.77c0,1.564-1.268,2.832-2.831,2.832c-1.564,0-2.832-1.268-2.832-2.832h-15.4
		c-1.381,0-2.5,1.119-2.5,2.5c0,1.381,1.119,2.5,2.5,2.5h1.834c0.877,3.688,2.687,7.011,5.158,9.716
		c0.729-0.301,1.527-0.47,2.365-0.47c3.421,0,6.195,2.773,6.195,6.194c0,0.017-0.002,0.031-0.002,0.048
		c2.371,0.88,4.932,1.368,7.61,1.368c2.743,0,5.367-0.508,7.788-1.427c0.006-3.416,2.776-6.184,6.193-6.184
		c0.797,0,1.555,0.155,2.255,0.43c3.547-3.898,5.709-9.078,5.709-14.764C52.903,20.458,45.541,11.715,35.709,9.541z"/>
</g>
</svg>
