<?xml version="1.0" encoding="utf-8"?>
<!-- Generator: Adobe Illustrator 17.0.2, SVG Export Plug-In . SVG Version: 6.00 Build 0)  -->
<!DOCTYPE svg PUBLIC "-//W3C//DTD SVG 1.1//EN" "http://www.w3.org/Graphics/SVG/1.1/DTD/svg11.dtd">
<svg version="1.1" id="Capa_1" xmlns="http://www.w3.org/2000/svg" xmlns:xlink="http://www.w3.org/1999/xlink" x="0px" y="0px"
	 width="64px" height="64px" viewBox="0 0 64 64" enable-background="new 0 0 64 64" xml:space="preserve">
<g>
	<path d="M46.164,47.162c0.832,0.727,1.936,0.63,2.414-0.365c0.965-2.01,1.514-4.199,1.514-6.492
		c0-8.068-6.775-14.868-14.639-16.982c0-0.021,0.006-0.042,0.006-0.063c0-0.032-0.008-0.062-0.008-0.093
		c1.604-0.025,3.207-0.032,4.81-0.032c1.129,0,1.129-1.75,0-1.75c-1.719,0-3.439,0.012-5.158,0.042
		c-0.184-0.47-0.443-0.896-0.754-1.286c0.965-0.506,1.951-0.976,2.978-1.372c1.043-0.401,0.59-2.094-0.465-1.688
		c-1.363,0.525-2.672,1.139-3.938,1.833c-0.428-0.247-0.889-0.443-1.385-0.556c0.49-0.822,1.053-1.601,1.674-2.315
		c0.738-0.847-0.494-2.09-1.238-1.237c-0.926,1.064-1.744,2.245-2.406,3.505c-0.006,0.001-0.012,0.001-0.018,0.002
		c-0.039-1.073-0.076-2.146-0.082-3.221c-0.006-1.128-1.756-1.129-1.75,0c0.008,1.294,0.053,2.587,0.098,3.88
		c-0.006,0.003-0.012,0.006-0.018,0.009c-0.775-0.857-1.639-1.648-2.42-2.508c-0.76-0.837-1.994,0.404-1.236,1.237
		c0.664,0.732,1.395,1.405,2.068,2.121c-1.426-0.566-2.885-1.047-4.385-1.417c-1.096-0.271-1.56,1.417-0.465,1.688
		c1.494,0.369,2.941,0.852,4.356,1.419c0,0.001,0,0.002,0,0.002c-2.1,0.127-4.195,0.318-6.289,0.527
		c-1.113,0.111-1.123,1.862,0,1.75c1.988-0.198,3.975-0.38,5.967-0.507c0,0.01,0.002,0.019,0.002,0.029
		c-7.861,2.114-14.639,8.914-14.639,16.982c0,2.293,0.549,4.482,1.514,6.492c0.479,0.995,1.584,1.092,2.414,0.365
		c4.086-3.576,9.629-5.775,15.738-5.775S42.078,43.586,46.164,47.162z"/>
</g>
</svg>
