<?xml version="1.0" encoding="utf-8"?>
<!-- Generator: Adobe Illustrator 17.0.2, SVG Export Plug-In . SVG Version: 6.00 Build 0)  -->
<!DOCTYPE svg PUBLIC "-//W3C//DTD SVG 1.1//EN" "http://www.w3.org/Graphics/SVG/1.1/DTD/svg11.dtd">
<svg version="1.1" id="Capa_1" xmlns="http://www.w3.org/2000/svg" xmlns:xlink="http://www.w3.org/1999/xlink" x="0px" y="0px"
	 width="64px" height="64px" viewBox="0 0 64 64" enable-background="new 0 0 64 64" xml:space="preserve">
<g>
	<path d="M50.448,51.888c-0.121-0.57-0.434-1.045-0.849-1.391l-3.897-25.415l0.377-0.354v-5.447
		c1.101-0.863,1.505-1.538,1.449-2.197c-0.061-0.712-0.667-1.195-1.449-1.56v-3.455c0.107-0.875,0.5-5.213-1.785-7.835
		c-1.084-1.243-2.62-1.901-4.503-1.901c0,0,0,0-0.001,0c-6.993,0.057-9.376,4.022-9.737,4.71l-2.717,4.572
		c-0.582-0.078-1.322-0.141-2.247-0.141c-2.853,0-7.722,0.594-14.72,3.424c-3.395,1.374-4.981,2.798-4.851,4.354
		c0.278,3.292,8.747,5.244,9.688,5.45c0.029,0.008,1.731,0.461,4.31,0.847c-0.146,0.871-0.124,1.659,0.064,2.372l-7.384,22.624
		c-0.494,0.275-0.904,0.708-1.123,1.277l-2.088,5.424c-0.496,1.289,0.146,2.735,1.435,3.231c0.295,0.114,0.599,0.168,0.897,0.168
		c1.004,0,1.951-0.609,2.333-1.603l2.088-5.424c0.302-0.785,0.177-1.626-0.254-2.277l6.666-20.425
		c1.744,0.861,4.055,1.065,6.206,1.113l2.197,17.465c-0.238,0.484-0.332,1.045-0.211,1.614l0.012,0.054l-0.238,0.897
		c-0.693,0.303-1.245,0.906-1.435,1.698l-1.358,5.65c-0.323,1.343,0.504,2.692,1.847,3.015c0.196,0.047,0.393,0.07,0.586,0.07
		c1.129,0,2.153-0.77,2.429-1.917l0.521-2.165c0.382,0.23,0.823,0.365,1.287,0.365c0.172,0,0.346-0.018,0.521-0.056
		c1.351-0.286,2.213-1.613,1.927-2.964l-1.206-5.686c-0.111-0.526-0.384-0.974-0.751-1.313l4.98-18.765
		c0.042-0.158,0.052-0.315,0.048-0.472c1.182-0.65,2.251-1.345,3.151-1.987l3.546,23.128c-0.56,0.577-0.833,1.414-0.654,2.261
		l1.206,5.686c0.25,1.176,1.288,1.982,2.443,1.982c0.172,0,0.346-0.019,0.521-0.056c1.35-0.286,2.213-1.613,1.927-2.964
		L50.448,51.888z M23.63,15.553l1.98-1.032l-1.25,2.103c-0.13,0.167-0.249,0.328-0.374,0.492l-0.051-0.005
		c-1.231-0.115-1.539-0.427-1.555-0.504C22.366,16.53,22.534,16.125,23.63,15.553z M32.94,41.424l-1.184-9.414
		c1.32-0.075,2.628-0.355,3.888-0.773L32.94,41.424z M43.079,23.197c-0.31,0.182-0.552,0.457-0.694,0.782
		c-2.133,1.719-6.857,5.067-11.3,5.067h-0.816c-2.321,0-6.04-0.004-7.345-1.181c-0.064-0.342-0.231-0.655-0.481-0.898
		c-0.037-0.262-0.037-0.605,0.052-1.062c1.234,0.11,2.561,0.184,3.94,0.184c0.001,0,0.001,0,0.002,0
		c4.705,0,8.709-0.81,11.901-2.405c1.931-0.966,3.487-1.779,4.743-2.487L43.079,23.197z M43.093,11.769l-0.004,3.795l-2.774,1.114
		c-2.132,0.857-5.865,1.417-8.325,1.186l-4.631-0.433l5.297-8.895l0.071-0.135c0.014-0.03,1.559-3.023,7.127-3.068
		c0.966,0,1.657,0.276,2.176,0.869C43.316,7.673,43.233,10.721,43.093,11.769z"/>
</g>
</svg>
