<?xml version="1.0" encoding="utf-8"?>
<!-- Generator: Adobe Illustrator 17.0.2, SVG Export Plug-In . SVG Version: 6.00 Build 0)  -->
<!DOCTYPE svg PUBLIC "-//W3C//DTD SVG 1.1//EN" "http://www.w3.org/Graphics/SVG/1.1/DTD/svg11.dtd">
<svg version="1.1" id="Capa_1" xmlns="http://www.w3.org/2000/svg" xmlns:xlink="http://www.w3.org/1999/xlink" x="0px" y="0px"
	 width="64px" height="64px" viewBox="0 0 64 64" enable-background="new 0 0 64 64" xml:space="preserve">
<g>
	<path d="M37.121,26.856h-2.134v-0.562c0-0.205-0.165-0.371-0.37-0.371s-0.371,0.166-0.371,0.371v0.562h-1.146v-0.562
		c0-0.205-0.166-0.371-0.37-0.371s-0.371,0.166-0.371,0.371v0.562h-1.145v-0.562c0-0.205-0.166-0.371-0.37-0.371
		c-0.205,0-0.371,0.166-0.371,0.371v0.562h-1.146v-0.562c0-0.205-0.166-0.371-0.37-0.371c-0.205,0-0.371,0.166-0.371,0.371v0.562
		h-1.571c-0.205,0-0.371,0.166-0.371,0.371c0,0.204,0.166,0.371,0.371,0.371h1.571v0.674c0,0.205,0.166,0.371,0.371,0.371
		c0.204,0,0.37-0.166,0.37-0.371v-0.674h1.146v0.674c0,0.205,0.166,0.371,0.371,0.371c0.204,0,0.37-0.166,0.37-0.371v-0.674h1.145
		v0.674c0,0.205,0.167,0.371,0.371,0.371s0.37-0.166,0.37-0.371v-0.674h1.146v0.674c0,0.205,0.166,0.371,0.371,0.371
		s0.37-0.166,0.37-0.371v-0.674h2.134c0.204,0,0.37-0.166,0.37-0.371C37.491,27.022,37.325,26.856,37.121,26.856z"/>
	<path d="M57.519,13.446C50.316,7.622,44.193,5.536,41.2,4.811c-1.074-0.26-2.328,0.462-3.021,1.322
		c-1.102,1.366-3.147,3.063-6.515,3.063c-3.367,0-5.413-1.697-6.515-3.063c-0.693-0.86-1.947-1.583-3.022-1.322
		c-2.993,0.725-9.116,2.811-16.319,8.635c-1.718,1.389-2.235,4.115-1.262,5.963c0.973,1.848,3.509,2.957,5.666,2.478l5.604-1.245
		c0,0-4.931,19.722-0.529,29.407l-0.924,3.874c-0.51,2.139,0.833,4.222,3,4.652l4.566,0.907c2.166,0.431,4.084-1.01,4.538-3.172
		c0.739-3.522,2.265-8.158,5.196-8.375c2.932,0.217,4.457,4.853,5.196,8.375c0.454,2.162,2.372,3.603,4.538,3.172l4.566-0.907
		c2.167-0.431,3.51-2.514,3-4.652c-0.51-2.14-0.924-3.874-0.924-3.874c4.401-9.685-0.529-29.407-0.529-29.407l5.604,1.245
		c2.157,0.479,4.693-0.63,5.666-2.478C59.755,17.561,59.237,14.835,57.519,13.446z M31.664,31.348c-3.622,0-7.905-2.106-7.905-4.289
		c0-2.183,4.283-3.952,7.905-3.952c3.621,0,7.905,1.77,7.905,3.952C39.569,29.242,35.285,31.348,31.664,31.348z"/>
</g>
</svg>
