<?xml version="1.0" encoding="utf-8"?>
<!-- Generator: Adobe Illustrator 17.0.2, SVG Export Plug-In . SVG Version: 6.00 Build 0)  -->
<!DOCTYPE svg PUBLIC "-//W3C//DTD SVG 1.1//EN" "http://www.w3.org/Graphics/SVG/1.1/DTD/svg11.dtd">
<svg version="1.1" id="Capa_1" xmlns="http://www.w3.org/2000/svg" xmlns:xlink="http://www.w3.org/1999/xlink" x="0px" y="0px"
	 width="64px" height="64px" viewBox="0 0 64 64" enable-background="new 0 0 64 64" xml:space="preserve">
<g>
	<path d="M59.865,20.26c0.131-0.322,0.47-1.463-0.708-2.617l-7.417-7.271c-0.917-0.899-2.515-1.551-3.799-1.551H17.688
		c-1.284,0-2.882,0.652-3.799,1.551l-7.417,7.271c-1.105,1.083-0.877,2.145-0.735,2.539c-1.307,3.5-3.675,13.842,7.019,26.587
		c-0.021,0.073-0.044,0.16-0.065,0.229C12.385,48,12.891,48.78,13.94,48.78h0.193c-0.248,0.777-0.463,1.709-0.463,2.61
		c0,0.648-0.057,0.898-0.086,0.985c-0.079,0.027-0.281,0.072-0.781,0.092c-0.628,0.025-1.118,0.555-1.092,1.183
		c0.024,0.613,0.529,1.094,1.137,1.094c0.016,0,0.031-0.001,0.046-0.001c2.255-0.09,3.055-0.967,3.055-3.353
		c0-0.907,0.33-1.925,0.601-2.61h15.471h1.554h15.489c0.285,0.726,0.6,1.744,0.6,2.61c0,2.386,0.799,3.263,3.055,3.353
		c0.016,0,0.031,0.001,0.046,0.001c0.608,0,1.113-0.481,1.137-1.094c0.025-0.628-0.464-1.158-1.092-1.183
		c-0.5-0.02-0.703-0.065-0.781-0.092c-0.03-0.087-0.087-0.336-0.087-0.985c0-0.9-0.215-1.833-0.463-2.61h0.081
		c1.048,0,1.554-0.779,1.25-1.782c-0.081-0.267-0.167-0.567-0.253-0.896c9.338-11.543,8.023-21.026,6.758-25.08
		C59.638,20.73,59.802,20.413,59.865,20.26z M16.28,12.812c0.279-0.274,1.016-0.575,1.407-0.575H47.94
		c0.391,0,1.128,0.3,1.407,0.575l5.513,5.405l-44.094,0L16.28,12.812z M51.998,43.563c-0.399-2.186-0.735-5.073-0.771-8.736
		c-0.095-9.586,4.461-11.864,4.461-11.864H9.81c0,0,4.556,2.277,4.461,11.864c-0.041,4.117-0.458,7.248-0.921,9.507
		C4.942,33.622,6.263,25.04,7.377,21.548c0.217,0.05,0.451,0.086,0.725,0.086h49.311C58.492,25.095,59.682,33.3,51.998,43.563z"/>
</g>
</svg>
